<?xml version="1.0" encoding="UTF-8" standalone="no"?>
<!DOCTYPE svg PUBLIC "-//W3C//DTD SVG 1.0//EN"
 "http://www.w3.org/TR/2001/REC-SVG-20010904/DTD/svg10.dtd" [
 <!ATTLIST svg xmlns:xlink CDATA #FIXED "http://www.w3.org/1999/xlink">
]>
<!-- Generated by dot version 1.13 (v16) (Mon August 23, 2004)
     For user: (jarrodneven) Jarrod  Neven   Title: G    Pages: 1 -->
<svg width="1054pt" height="44pt"
 viewBox = "-1 -1 1053 43"
 xmlns="http://www.w3.org/2000/svg" xmlns:xlink="http://www.w3.org/1999/xlink">
<g id="graph0" class="graph" style="font-family:Times-Roman;font-size:14.00;">
<title>G</title>
<g id="node1" class="node"><title>Node1</title>
<polygon style="fill:#bfbfbf;stroke:black;" points="5,36 93,36 93,4 5,4 5,36"/>
<text text-anchor="middle" x="49" y="27" style="font-family:Helvetica;font-size:20.00;">AESDecode</text>
</g>
<g id="node3" class="node"><title>Node2</title>
<a xlink:href="_authenticate_8c.html#a207b19b2185ffaa19d1d3f053b996121" target="_top" xlink:title="xPLAuthenticate">
<polygon style="fill:none;stroke:black;" points="129,36 291,36 291,4 129,4 129,36"/>
<text text-anchor="middle" x="210" y="27" style="font-family:Helvetica;font-size:20.00;">xPLAuthenticate</text>
</a>
</g>
<g id="edge2" class="edge"><title>Node1-&gt;Node2</title>
<path style="fill:none;stroke:midnightblue;" d="M103,20C111,20 120,20 129,20"/>
<polygon style="fill:midnightblue;stroke:midnightblue;" points="103,23 93,20 103,16 103,23"/>
</g>
<g id="node5" class="node"><title>Node3</title>
<a xlink:href="x_p_l_8h.html#a3baecc6556e5cc7af0d59d0216aa217c" target="_top" xlink:title="SchemaProcessUDPMsg">
<polygon style="fill:none;stroke:black;" points="327,36 569,36 569,4 327,4 327,36"/>
<text text-anchor="middle" x="448" y="27" style="font-family:Helvetica;font-size:20.00;">SchemaProcessUDPMsg</text>
</a>
</g>
<g id="edge4" class="edge"><title>Node2-&gt;Node3</title>
<path style="fill:none;stroke:midnightblue;" d="M301,20C310,20 318,20 327,20"/>
<polygon style="fill:midnightblue;stroke:midnightblue;" points="301,23 291,20 301,16 301,23"/>
</g>
<g id="node7" class="node"><title>Node4</title>
<a xlink:href="x_p_l_8c.html#a41c59f641ff95b999e66c0d45117b73d" target="_top" xlink:title="XPLProcessUDPMsg">
<polygon style="fill:none;stroke:black;" points="605,36 811,36 811,4 605,4 605,36"/>
<text text-anchor="middle" x="708" y="27" style="font-family:Helvetica;font-size:20.00;">XPLProcessUDPMsg</text>
</a>
</g>
<g id="edge6" class="edge"><title>Node3-&gt;Node4</title>
<path style="fill:none;stroke:midnightblue;" d="M579,20C588,20 596,20 605,20"/>
<polygon style="fill:midnightblue;stroke:midnightblue;" points="579,23 569,20 579,16 579,23"/>
</g>
<g id="node9" class="node"><title>Node5</title>
<a xlink:href="x_p_l_8h.html#a86d914c966f337c4e3a6fda46a945d11" target="_top" xlink:title="XPLTasks">
<polygon style="fill:none;stroke:black;" points="848,36 951,36 951,4 848,4 848,36"/>
<text text-anchor="middle" x="899" y="27" style="font-family:Helvetica;font-size:20.00;">XPLTasks</text>
</a>
</g>
<g id="edge8" class="edge"><title>Node4-&gt;Node5</title>
<path style="fill:none;stroke:midnightblue;" d="M821,20C830,20 839,20 848,20"/>
<polygon style="fill:midnightblue;stroke:midnightblue;" points="821,23 811,20 821,16 821,23"/>
</g>
<g id="node11" class="node"><title>Node6</title>
<a xlink:href="_main_demo_8c.html#a6288eba0f8e8ad3ab1544ad731eb7667" target="_top" xlink:title="main">
<polygon style="fill:none;stroke:black;" points="988,36 1047,36 1047,4 988,4 988,36"/>
<text text-anchor="middle" x="1017" y="27" style="font-family:Helvetica;font-size:20.00;">main</text>
</a>
</g>
<g id="edge10" class="edge"><title>Node5-&gt;Node6</title>
<path style="fill:none;stroke:midnightblue;" d="M961,20C971,20 980,20 988,20"/>
<polygon style="fill:midnightblue;stroke:midnightblue;" points="961,23 951,20 961,16 961,23"/>
</g>
</g>
</svg>
