<?xml version="1.0" encoding="UTF-8" standalone="no"?>
<!DOCTYPE svg PUBLIC "-//W3C//DTD SVG 1.0//EN"
 "http://www.w3.org/TR/2001/REC-SVG-20010904/DTD/svg10.dtd" [
 <!ATTLIST svg xmlns:xlink CDATA #FIXED "http://www.w3.org/1999/xlink">
]>
<!-- Generated by dot version 1.13 (v16) (Mon August 23, 2004)
     For user: (jarrodneven) Jarrod  Neven   Title: G    Pages: 1 -->
<svg width="1104pt" height="44pt"
 viewBox = "-1 -1 1103 43"
 xmlns="http://www.w3.org/2000/svg" xmlns:xlink="http://www.w3.org/1999/xlink">
<g id="graph0" class="graph" style="font-family:Times-Roman;font-size:14.00;">
<title>G</title>
<g id="node1" class="node"><title>Node1</title>
<polygon style="fill:#bfbfbf;stroke:black;" points="6,36 143,36 143,4 6,4 6,36"/>
<text text-anchor="middle" x="74" y="27" style="font-family:Helvetica;font-size:20.00;">AESCalcDecodeKey</text>
</g>
<g id="node3" class="node"><title>Node2</title>
<a xlink:href="_authenticate_8c.html#a207b19b2185ffaa19d1d3f053b996121" target="_top" xlink:title="xPLAuthenticate">
<polygon style="fill:none;stroke:black;" points="179,36 341,36 341,4 179,4 179,36"/>
<text text-anchor="middle" x="260" y="27" style="font-family:Helvetica;font-size:20.00;">xPLAuthenticate</text>
</a>
</g>
<g id="edge2" class="edge"><title>Node1-&gt;Node2</title>
<path style="fill:none;stroke:midnightblue;" d="M153,20C162,20 170,20 179,20"/>
<polygon style="fill:midnightblue;stroke:midnightblue;" points="153,23 143,20 153,16 153,23"/>
</g>
<g id="node5" class="node"><title>Node3</title>
<a xlink:href="x_p_l_8h.html#a3baecc6556e5cc7af0d59d0216aa217c" target="_top" xlink:title="SchemaProcessUDPMsg">
<polygon style="fill:none;stroke:black;" points="377,36 619,36 619,4 377,4 377,36"/>
<text text-anchor="middle" x="498" y="27" style="font-family:Helvetica;font-size:20.00;">SchemaProcessUDPMsg</text>
</a>
</g>
<g id="edge4" class="edge"><title>Node2-&gt;Node3</title>
<path style="fill:none;stroke:midnightblue;" d="M351,20C360,20 368,20 377,20"/>
<polygon style="fill:midnightblue;stroke:midnightblue;" points="351,23 341,20 351,16 351,23"/>
</g>
<g id="node7" class="node"><title>Node4</title>
<a xlink:href="x_p_l_8c.html#a41c59f641ff95b999e66c0d45117b73d" target="_top" xlink:title="XPLProcessUDPMsg">
<polygon style="fill:none;stroke:black;" points="655,36 861,36 861,4 655,4 655,36"/>
<text text-anchor="middle" x="758" y="27" style="font-family:Helvetica;font-size:20.00;">XPLProcessUDPMsg</text>
</a>
</g>
<g id="edge6" class="edge"><title>Node3-&gt;Node4</title>
<path style="fill:none;stroke:midnightblue;" d="M629,20C638,20 646,20 655,20"/>
<polygon style="fill:midnightblue;stroke:midnightblue;" points="629,23 619,20 629,16 629,23"/>
</g>
<g id="node9" class="node"><title>Node5</title>
<a xlink:href="x_p_l_8h.html#a86d914c966f337c4e3a6fda46a945d11" target="_top" xlink:title="XPLTasks">
<polygon style="fill:none;stroke:black;" points="898,36 1001,36 1001,4 898,4 898,36"/>
<text text-anchor="middle" x="949" y="27" style="font-family:Helvetica;font-size:20.00;">XPLTasks</text>
</a>
</g>
<g id="edge8" class="edge"><title>Node4-&gt;Node5</title>
<path style="fill:none;stroke:midnightblue;" d="M871,20C880,20 889,20 898,20"/>
<polygon style="fill:midnightblue;stroke:midnightblue;" points="871,23 861,20 871,16 871,23"/>
</g>
<g id="node11" class="node"><title>Node6</title>
<a xlink:href="_main_demo_8c.html#a6288eba0f8e8ad3ab1544ad731eb7667" target="_top" xlink:title="main">
<polygon style="fill:none;stroke:black;" points="1038,36 1097,36 1097,4 1038,4 1038,36"/>
<text text-anchor="middle" x="1067" y="27" style="font-family:Helvetica;font-size:20.00;">main</text>
</a>
</g>
<g id="edge10" class="edge"><title>Node5-&gt;Node6</title>
<path style="fill:none;stroke:midnightblue;" d="M1011,20C1021,20 1030,20 1038,20"/>
<polygon style="fill:midnightblue;stroke:midnightblue;" points="1011,23 1001,20 1011,16 1011,23"/>
</g>
</g>
</svg>
