<?xml version="1.0" encoding="UTF-8" standalone="no"?>
<!DOCTYPE svg PUBLIC "-//W3C//DTD SVG 1.0//EN"
 "http://www.w3.org/TR/2001/REC-SVG-20010904/DTD/svg10.dtd" [
 <!ATTLIST svg xmlns:xlink CDATA #FIXED "http://www.w3.org/1999/xlink">
]>
<!-- Generated by dot version 1.13 (v16) (Mon August 23, 2004)
     For user: (jarrodneven) Jarrod  Neven   Title: G    Pages: 1 -->
<svg width="306pt" height="94pt"
 viewBox = "-1 -1 305 93"
 xmlns="http://www.w3.org/2000/svg" xmlns:xlink="http://www.w3.org/1999/xlink">
<g id="graph0" class="graph" style="font-family:Times-Roman;font-size:14.00;">
<title>G</title>
<g id="node1" class="node"><title>Node1</title>
<polygon style="fill:#bfbfbf;stroke:black;" points="5,61 93,61 93,29 5,29 5,61"/>
<text text-anchor="middle" x="49" y="52" style="font-family:Helvetica;font-size:20.00;">AESDecode</text>
</g>
<g id="node3" class="node"><title>Node2</title>
<a xlink:href="_a_e_s_8c.html#ab28514c50685365342e4f65c68979812" target="_top" xlink:title="DecKeySchedule">
<polygon style="fill:none;stroke:black;" points="130,36 299,36 299,4 130,4 130,36"/>
<text text-anchor="middle" x="214" y="27" style="font-family:Helvetica;font-size:20.00;">DecKeySchedule</text>
</a>
</g>
<g id="edge2" class="edge"><title>Node1-&gt;Node2</title>
<path style="fill:none;stroke:midnightblue;" d="M93,38C101,37 110,36 120,34"/>
<polygon style="fill:midnightblue;stroke:midnightblue;" points="120,31 130,33 120,37 120,31"/>
</g>
<g id="node5" class="node"><title>Node3</title>
<a xlink:href="_a_e_s_8c.html#ae3f9a7acb862eae95aeac5f1dda91782" target="_top" xlink:title="DecodeShiftRow">
<polygon style="fill:none;stroke:black;" points="132,86 297,86 297,54 132,54 132,86"/>
<text text-anchor="middle" x="214" y="77" style="font-family:Helvetica;font-size:20.00;">DecodeShiftRow</text>
</a>
</g>
<g id="edge4" class="edge"><title>Node1-&gt;Node3</title>
<path style="fill:none;stroke:midnightblue;" d="M93,52C102,53 112,55 122,56"/>
<polygon style="fill:midnightblue;stroke:midnightblue;" points="123,53 132,58 122,59 123,53"/>
</g>
</g>
</svg>
