<?xml version="1.0" encoding="UTF-8" standalone="no"?>
<!DOCTYPE svg PUBLIC "-//W3C//DTD SVG 1.0//EN"
 "http://www.w3.org/TR/2001/REC-SVG-20010904/DTD/svg10.dtd" [
 <!ATTLIST svg xmlns:xlink CDATA #FIXED "http://www.w3.org/1999/xlink">
]>
<!-- Generated by dot version 1.13 (v16) (Mon August 23, 2004)
     For user: (jarrodneven) Jarrod  Neven   Title: G    Pages: 1 -->
<svg width="302pt" height="94pt"
 viewBox = "-1 -1 301 93"
 xmlns="http://www.w3.org/2000/svg" xmlns:xlink="http://www.w3.org/1999/xlink">
<g id="graph0" class="graph" style="font-family:Times-Roman;font-size:14.00;">
<title>G</title>
<g id="node1" class="node"><title>Node1</title>
<polygon style="fill:#bfbfbf;stroke:black;" points="5,61 91,61 91,29 5,29 5,61"/>
<text text-anchor="middle" x="48" y="52" style="font-family:Helvetica;font-size:20.00;">AESEncode</text>
</g>
<g id="node3" class="node"><title>Node2</title>
<a xlink:href="_a_e_s_8c.html#a1469592c00f30a3ef472b7213bbec988" target="_top" xlink:title="EncKeySchedule">
<polygon style="fill:none;stroke:black;" points="127,36 295,36 295,4 127,4 127,36"/>
<text text-anchor="middle" x="211" y="27" style="font-family:Helvetica;font-size:20.00;">EncKeySchedule</text>
</a>
</g>
<g id="edge2" class="edge"><title>Node1-&gt;Node2</title>
<path style="fill:none;stroke:midnightblue;" d="M91,38C99,37 108,36 117,34"/>
<polygon style="fill:midnightblue;stroke:midnightblue;" points="117,31 127,33 117,37 117,31"/>
</g>
<g id="node5" class="node"><title>Node3</title>
<a xlink:href="_a_e_s_8c.html#ac56015e6f3965825aaf152fc65b1363f" target="_top" xlink:title="EncodeShiftRow">
<polygon style="fill:none;stroke:black;" points="129,86 293,86 293,54 129,54 129,86"/>
<text text-anchor="middle" x="211" y="77" style="font-family:Helvetica;font-size:20.00;">EncodeShiftRow</text>
</a>
</g>
<g id="edge4" class="edge"><title>Node1-&gt;Node3</title>
<path style="fill:none;stroke:midnightblue;" d="M91,52C100,53 109,55 119,56"/>
<polygon style="fill:midnightblue;stroke:midnightblue;" points="120,53 129,58 119,59 120,53"/>
</g>
</g>
</svg>
