<?xml version="1.0" encoding="UTF-8" standalone="no"?>
<!DOCTYPE svg PUBLIC "-//W3C//DTD SVG 1.0//EN"
 "http://www.w3.org/TR/2001/REC-SVG-20010904/DTD/svg10.dtd" [
 <!ATTLIST svg xmlns:xlink CDATA #FIXED "http://www.w3.org/1999/xlink">
]>
<!-- Generated by dot version 1.13 (v16) (Mon August 23, 2004)
     For user: (jarrodneven) Jarrod  Neven   Title: G    Pages: 1 -->
<svg width="1246pt" height="44pt"
 viewBox = "-1 -1 1245 43"
 xmlns="http://www.w3.org/2000/svg" xmlns:xlink="http://www.w3.org/1999/xlink">
<g id="graph0" class="graph" style="font-family:Times-Roman;font-size:14.00;">
<title>G</title>
<g id="node1" class="node"><title>Node1</title>
<polygon style="fill:#bfbfbf;stroke:black;" points="5,36 123,36 123,4 5,4 5,36"/>
<text text-anchor="middle" x="64" y="27" style="font-family:Helvetica;font-size:20.00;">DecodeShiftRow</text>
</g>
<g id="node3" class="node"><title>Node2</title>
<a xlink:href="_a_e_s_8h.html#a7f4a8c317d988a237650447bd91ea792" target="_top" xlink:title="AESDecode">
<polygon style="fill:none;stroke:black;" points="160,36 285,36 285,4 160,4 160,36"/>
<text text-anchor="middle" x="222" y="27" style="font-family:Helvetica;font-size:20.00;">AESDecode</text>
</a>
</g>
<g id="edge2" class="edge"><title>Node1-&gt;Node2</title>
<path style="fill:none;stroke:midnightblue;" d="M133,20C142,20 151,20 160,20"/>
<polygon style="fill:midnightblue;stroke:midnightblue;" points="133,23 123,20 133,16 133,23"/>
</g>
<g id="node5" class="node"><title>Node3</title>
<a xlink:href="_authenticate_8c.html#a207b19b2185ffaa19d1d3f053b996121" target="_top" xlink:title="xPLAuthenticate">
<polygon style="fill:none;stroke:black;" points="321,36 483,36 483,4 321,4 321,36"/>
<text text-anchor="middle" x="402" y="27" style="font-family:Helvetica;font-size:20.00;">xPLAuthenticate</text>
</a>
</g>
<g id="edge4" class="edge"><title>Node2-&gt;Node3</title>
<path style="fill:none;stroke:midnightblue;" d="M295,20C304,20 312,20 321,20"/>
<polygon style="fill:midnightblue;stroke:midnightblue;" points="295,23 285,20 295,16 295,23"/>
</g>
<g id="node7" class="node"><title>Node4</title>
<a xlink:href="x_p_l_8h.html#a3baecc6556e5cc7af0d59d0216aa217c" target="_top" xlink:title="SchemaProcessUDPMsg">
<polygon style="fill:none;stroke:black;" points="519,36 761,36 761,4 519,4 519,36"/>
<text text-anchor="middle" x="640" y="27" style="font-family:Helvetica;font-size:20.00;">SchemaProcessUDPMsg</text>
</a>
</g>
<g id="edge6" class="edge"><title>Node3-&gt;Node4</title>
<path style="fill:none;stroke:midnightblue;" d="M493,20C502,20 510,20 519,20"/>
<polygon style="fill:midnightblue;stroke:midnightblue;" points="493,23 483,20 493,16 493,23"/>
</g>
<g id="node9" class="node"><title>Node5</title>
<a xlink:href="x_p_l_8c.html#a41c59f641ff95b999e66c0d45117b73d" target="_top" xlink:title="XPLProcessUDPMsg">
<polygon style="fill:none;stroke:black;" points="797,36 1003,36 1003,4 797,4 797,36"/>
<text text-anchor="middle" x="900" y="27" style="font-family:Helvetica;font-size:20.00;">XPLProcessUDPMsg</text>
</a>
</g>
<g id="edge8" class="edge"><title>Node4-&gt;Node5</title>
<path style="fill:none;stroke:midnightblue;" d="M771,20C780,20 788,20 797,20"/>
<polygon style="fill:midnightblue;stroke:midnightblue;" points="771,23 761,20 771,16 771,23"/>
</g>
<g id="node11" class="node"><title>Node6</title>
<a xlink:href="x_p_l_8h.html#a86d914c966f337c4e3a6fda46a945d11" target="_top" xlink:title="XPLTasks">
<polygon style="fill:none;stroke:black;" points="1040,36 1143,36 1143,4 1040,4 1040,36"/>
<text text-anchor="middle" x="1091" y="27" style="font-family:Helvetica;font-size:20.00;">XPLTasks</text>
</a>
</g>
<g id="edge10" class="edge"><title>Node5-&gt;Node6</title>
<path style="fill:none;stroke:midnightblue;" d="M1013,20C1022,20 1031,20 1040,20"/>
<polygon style="fill:midnightblue;stroke:midnightblue;" points="1013,23 1003,20 1013,16 1013,23"/>
</g>
<g id="node13" class="node"><title>Node7</title>
<a xlink:href="_main_demo_8c.html#a6288eba0f8e8ad3ab1544ad731eb7667" target="_top" xlink:title="main">
<polygon style="fill:none;stroke:black;" points="1180,36 1239,36 1239,4 1180,4 1180,36"/>
<text text-anchor="middle" x="1209" y="27" style="font-family:Helvetica;font-size:20.00;">main</text>
</a>
</g>
<g id="edge12" class="edge"><title>Node6-&gt;Node7</title>
<path style="fill:none;stroke:midnightblue;" d="M1153,20C1163,20 1172,20 1180,20"/>
<polygon style="fill:midnightblue;stroke:midnightblue;" points="1153,23 1143,20 1153,16 1153,23"/>
</g>
</g>
</svg>
