<?xml version="1.0" encoding="UTF-8" standalone="no"?>
<!DOCTYPE svg PUBLIC "-//W3C//DTD SVG 1.0//EN"
 "http://www.w3.org/TR/2001/REC-SVG-20010904/DTD/svg10.dtd" [
 <!ATTLIST svg xmlns:xlink CDATA #FIXED "http://www.w3.org/1999/xlink">
]>
<!-- Generated by dot version 1.13 (v16) (Mon August 23, 2004)
     For user: (jarrodneven) Jarrod  Neven   Title: G    Pages: 1 -->
<svg width="1248pt" height="44pt"
 viewBox = "-1 -1 1247 43"
 xmlns="http://www.w3.org/2000/svg" xmlns:xlink="http://www.w3.org/1999/xlink">
<g id="graph0" class="graph" style="font-family:Times-Roman;font-size:14.00;">
<title>G</title>
<g id="node1" class="node"><title>Node1</title>
<polygon style="fill:#bfbfbf;stroke:black;" points="6,36 125,36 125,4 6,4 6,36"/>
<text text-anchor="middle" x="65" y="27" style="font-family:Helvetica;font-size:20.00;">DecKeySchedule</text>
</g>
<g id="node3" class="node"><title>Node2</title>
<a xlink:href="_a_e_s_8h.html#a7f4a8c317d988a237650447bd91ea792" target="_top" xlink:title="AESDecode">
<polygon style="fill:none;stroke:black;" points="162,36 287,36 287,4 162,4 162,36"/>
<text text-anchor="middle" x="224" y="27" style="font-family:Helvetica;font-size:20.00;">AESDecode</text>
</a>
</g>
<g id="edge2" class="edge"><title>Node1-&gt;Node2</title>
<path style="fill:none;stroke:midnightblue;" d="M135,20C144,20 153,20 162,20"/>
<polygon style="fill:midnightblue;stroke:midnightblue;" points="135,23 125,20 135,16 135,23"/>
</g>
<g id="node5" class="node"><title>Node3</title>
<a xlink:href="_authenticate_8c.html#a207b19b2185ffaa19d1d3f053b996121" target="_top" xlink:title="xPLAuthenticate">
<polygon style="fill:none;stroke:black;" points="323,36 485,36 485,4 323,4 323,36"/>
<text text-anchor="middle" x="404" y="27" style="font-family:Helvetica;font-size:20.00;">xPLAuthenticate</text>
</a>
</g>
<g id="edge4" class="edge"><title>Node2-&gt;Node3</title>
<path style="fill:none;stroke:midnightblue;" d="M297,20C306,20 314,20 323,20"/>
<polygon style="fill:midnightblue;stroke:midnightblue;" points="297,23 287,20 297,16 297,23"/>
</g>
<g id="node7" class="node"><title>Node4</title>
<a xlink:href="x_p_l_8h.html#a3baecc6556e5cc7af0d59d0216aa217c" target="_top" xlink:title="SchemaProcessUDPMsg">
<polygon style="fill:none;stroke:black;" points="521,36 763,36 763,4 521,4 521,36"/>
<text text-anchor="middle" x="642" y="27" style="font-family:Helvetica;font-size:20.00;">SchemaProcessUDPMsg</text>
</a>
</g>
<g id="edge6" class="edge"><title>Node3-&gt;Node4</title>
<path style="fill:none;stroke:midnightblue;" d="M495,20C504,20 512,20 521,20"/>
<polygon style="fill:midnightblue;stroke:midnightblue;" points="495,23 485,20 495,16 495,23"/>
</g>
<g id="node9" class="node"><title>Node5</title>
<a xlink:href="x_p_l_8c.html#a41c59f641ff95b999e66c0d45117b73d" target="_top" xlink:title="XPLProcessUDPMsg">
<polygon style="fill:none;stroke:black;" points="799,36 1005,36 1005,4 799,4 799,36"/>
<text text-anchor="middle" x="902" y="27" style="font-family:Helvetica;font-size:20.00;">XPLProcessUDPMsg</text>
</a>
</g>
<g id="edge8" class="edge"><title>Node4-&gt;Node5</title>
<path style="fill:none;stroke:midnightblue;" d="M773,20C782,20 790,20 799,20"/>
<polygon style="fill:midnightblue;stroke:midnightblue;" points="773,23 763,20 773,16 773,23"/>
</g>
<g id="node11" class="node"><title>Node6</title>
<a xlink:href="x_p_l_8h.html#a86d914c966f337c4e3a6fda46a945d11" target="_top" xlink:title="XPLTasks">
<polygon style="fill:none;stroke:black;" points="1042,36 1145,36 1145,4 1042,4 1042,36"/>
<text text-anchor="middle" x="1093" y="27" style="font-family:Helvetica;font-size:20.00;">XPLTasks</text>
</a>
</g>
<g id="edge10" class="edge"><title>Node5-&gt;Node6</title>
<path style="fill:none;stroke:midnightblue;" d="M1015,20C1024,20 1033,20 1042,20"/>
<polygon style="fill:midnightblue;stroke:midnightblue;" points="1015,23 1005,20 1015,16 1015,23"/>
</g>
<g id="node13" class="node"><title>Node7</title>
<a xlink:href="_main_demo_8c.html#a6288eba0f8e8ad3ab1544ad731eb7667" target="_top" xlink:title="main">
<polygon style="fill:none;stroke:black;" points="1182,36 1241,36 1241,4 1182,4 1182,36"/>
<text text-anchor="middle" x="1211" y="27" style="font-family:Helvetica;font-size:20.00;">main</text>
</a>
</g>
<g id="edge12" class="edge"><title>Node6-&gt;Node7</title>
<path style="fill:none;stroke:midnightblue;" d="M1155,20C1165,20 1174,20 1182,20"/>
<polygon style="fill:midnightblue;stroke:midnightblue;" points="1155,23 1145,20 1155,16 1155,23"/>
</g>
</g>
</svg>
