<?xml version="1.0" encoding="UTF-8" standalone="no"?>
<!DOCTYPE svg PUBLIC "-//W3C//DTD SVG 1.0//EN"
 "http://www.w3.org/TR/2001/REC-SVG-20010904/DTD/svg10.dtd" [
 <!ATTLIST svg xmlns:xlink CDATA #FIXED "http://www.w3.org/1999/xlink">
]>
<!-- Generated by dot version 1.13 (v16) (Mon August 23, 2004)
     For user: (jarrodneven) Jarrod  Neven   Title: G    Pages: 1 -->
<svg width="222pt" height="112pt"
 viewBox = "-1 -1 221 111"
 xmlns="http://www.w3.org/2000/svg" xmlns:xlink="http://www.w3.org/1999/xlink">
<g id="graph0" class="graph" style="font-family:Times-Roman;font-size:14.00;">
<title>G</title>
<g id="node1" class="node"><title>Node1</title>
<polygon style="fill:#bfbfbf;stroke:black;" points="65,36 179,36 179,4 65,4 65,36"/>
<text text-anchor="middle" x="122" y="27" style="font-family:Helvetica;font-size:20.00;">PIC Code/AES.c</text>
</g>
<g id="node3" class="node"><title>Node2</title>
<polygon style="fill:none;stroke:#bfbfbf;" points="5,104 126,104 126,72 5,72 5,104"/>
<text text-anchor="middle" x="65" y="95" style="font-family:Helvetica;font-size:20.00;">p18CXXX.h</text>
</g>
<g id="edge2" class="edge"><title>Node1-&gt;Node2</title>
<path style="fill:none;stroke:midnightblue;" d="M108,36C101,45 93,55 85,64"/>
<polygon style="fill:midnightblue;stroke:midnightblue;" points="87,67 78,72 82,62 87,67"/>
</g>
<g id="node5" class="node"><title>Node3</title>
<a xlink:href="_a_e_s_8h.html" target="_top" xlink:title="AES.h">
<polygon style="fill:none;stroke:black;" points="143,104 216,104 216,72 143,72 143,104"/>
<text text-anchor="middle" x="179" y="95" style="font-family:Helvetica;font-size:20.00;">AES.h</text>
</a>
</g>
<g id="edge4" class="edge"><title>Node1-&gt;Node3</title>
<path style="fill:none;stroke:midnightblue;" d="M136,36C143,45 151,55 159,64"/>
<polygon style="fill:midnightblue;stroke:midnightblue;" points="162,62 166,72 157,67 162,62"/>
</g>
</g>
</svg>
