<?xml version="1.0" encoding="UTF-8" standalone="no"?>
<!DOCTYPE svg PUBLIC "-//W3C//DTD SVG 1.0//EN"
 "http://www.w3.org/TR/2001/REC-SVG-20010904/DTD/svg10.dtd" [
 <!ATTLIST svg xmlns:xlink CDATA #FIXED "http://www.w3.org/1999/xlink">
]>
<!-- Generated by dot version 1.13 (v16) (Mon August 23, 2004)
     For user: (jarrodneven) Jarrod  Neven   Title: G    Pages: 1 -->
<svg width="1320pt" height="94pt"
 viewBox = "-1 -1 1319 93"
 xmlns="http://www.w3.org/2000/svg" xmlns:xlink="http://www.w3.org/1999/xlink">
<g id="graph0" class="graph" style="font-family:Times-Roman;font-size:14.00;">
<title>G</title>
<g id="node1" class="node"><title>Node1</title>
<polygon style="fill:#bfbfbf;stroke:black;" points="5,61 123,61 123,29 5,29 5,61"/>
<text text-anchor="middle" x="64" y="52" style="font-family:Helvetica;font-size:20.00;">EncKeySchedule</text>
</g>
<g id="node3" class="node"><title>Node2</title>
<a xlink:href="_a_e_s_8h.html#a7cc41315b74814b03832fc37ffc835ce" target="_top" xlink:title="AESCalcDecodeKey">
<polygon style="fill:none;stroke:black;" points="160,36 359,36 359,4 160,4 160,36"/>
<text text-anchor="middle" x="259" y="27" style="font-family:Helvetica;font-size:20.00;">AESCalcDecodeKey</text>
</a>
</g>
<g id="edge2" class="edge"><title>Node1-&gt;Node2</title>
<path style="fill:none;stroke:midnightblue;" d="M133,36C142,35 151,33 160,32"/>
<polygon style="fill:midnightblue;stroke:midnightblue;" points="133,39 123,37 133,33 133,39"/>
</g>
<g id="node15" class="node"><title>Node8</title>
<a xlink:href="_a_e_s_8c.html#ad865dabede0c764208414bb893640783" target="_top" xlink:title="AESEncode">
<polygon style="fill:none;stroke:black;" points="197,86 321,86 321,54 197,54 197,86"/>
<text text-anchor="middle" x="259" y="77" style="font-family:Helvetica;font-size:20.00;">AESEncode</text>
</a>
</g>
<g id="edge14" class="edge"><title>Node1-&gt;Node8</title>
<path style="fill:none;stroke:midnightblue;" d="M133,54C154,57 176,59 197,62"/>
<polygon style="fill:midnightblue;stroke:midnightblue;" points="133,57 123,53 133,51 133,57"/>
</g>
<g id="node5" class="node"><title>Node3</title>
<a xlink:href="_authenticate_8c.html#a207b19b2185ffaa19d1d3f053b996121" target="_top" xlink:title="xPLAuthenticate">
<polygon style="fill:none;stroke:black;" points="395,36 557,36 557,4 395,4 395,36"/>
<text text-anchor="middle" x="476" y="27" style="font-family:Helvetica;font-size:20.00;">xPLAuthenticate</text>
</a>
</g>
<g id="edge4" class="edge"><title>Node2-&gt;Node3</title>
<path style="fill:none;stroke:midnightblue;" d="M369,20C378,20 386,20 395,20"/>
<polygon style="fill:midnightblue;stroke:midnightblue;" points="369,23 359,20 369,16 369,23"/>
</g>
<g id="node7" class="node"><title>Node4</title>
<a xlink:href="x_p_l_8h.html#a3baecc6556e5cc7af0d59d0216aa217c" target="_top" xlink:title="SchemaProcessUDPMsg">
<polygon style="fill:none;stroke:black;" points="593,36 835,36 835,4 593,4 593,36"/>
<text text-anchor="middle" x="714" y="27" style="font-family:Helvetica;font-size:20.00;">SchemaProcessUDPMsg</text>
</a>
</g>
<g id="edge6" class="edge"><title>Node3-&gt;Node4</title>
<path style="fill:none;stroke:midnightblue;" d="M567,20C576,20 584,20 593,20"/>
<polygon style="fill:midnightblue;stroke:midnightblue;" points="567,23 557,20 567,16 567,23"/>
</g>
<g id="node9" class="node"><title>Node5</title>
<a xlink:href="x_p_l_8c.html#a41c59f641ff95b999e66c0d45117b73d" target="_top" xlink:title="XPLProcessUDPMsg">
<polygon style="fill:none;stroke:black;" points="871,36 1077,36 1077,4 871,4 871,36"/>
<text text-anchor="middle" x="974" y="27" style="font-family:Helvetica;font-size:20.00;">XPLProcessUDPMsg</text>
</a>
</g>
<g id="edge8" class="edge"><title>Node4-&gt;Node5</title>
<path style="fill:none;stroke:midnightblue;" d="M845,20C854,20 862,20 871,20"/>
<polygon style="fill:midnightblue;stroke:midnightblue;" points="845,23 835,20 845,16 845,23"/>
</g>
<g id="node11" class="node"><title>Node6</title>
<a xlink:href="x_p_l_8h.html#a86d914c966f337c4e3a6fda46a945d11" target="_top" xlink:title="XPLTasks">
<polygon style="fill:none;stroke:black;" points="1114,36 1217,36 1217,4 1114,4 1114,36"/>
<text text-anchor="middle" x="1165" y="27" style="font-family:Helvetica;font-size:20.00;">XPLTasks</text>
</a>
</g>
<g id="edge10" class="edge"><title>Node5-&gt;Node6</title>
<path style="fill:none;stroke:midnightblue;" d="M1087,20C1096,20 1105,20 1114,20"/>
<polygon style="fill:midnightblue;stroke:midnightblue;" points="1087,23 1077,20 1087,16 1087,23"/>
</g>
<g id="node13" class="node"><title>Node7</title>
<a xlink:href="_main_demo_8c.html#a6288eba0f8e8ad3ab1544ad731eb7667" target="_top" xlink:title="main">
<polygon style="fill:none;stroke:black;" points="1254,36 1313,36 1313,4 1254,4 1254,36"/>
<text text-anchor="middle" x="1283" y="27" style="font-family:Helvetica;font-size:20.00;">main</text>
</a>
</g>
<g id="edge12" class="edge"><title>Node6-&gt;Node7</title>
<path style="fill:none;stroke:midnightblue;" d="M1227,20C1237,20 1246,20 1254,20"/>
<polygon style="fill:midnightblue;stroke:midnightblue;" points="1227,23 1217,20 1227,16 1227,23"/>
</g>
</g>
</svg>
