<?xml version="1.0" encoding="UTF-8" standalone="no"?>
<!DOCTYPE svg PUBLIC "-//W3C//DTD SVG 1.0//EN"
 "http://www.w3.org/TR/2001/REC-SVG-20010904/DTD/svg10.dtd" [
 <!ATTLIST svg xmlns:xlink CDATA #FIXED "http://www.w3.org/1999/xlink">
]>
<!-- Generated by dot version 1.13 (v16) (Mon August 23, 2004)
     For user: (jarrodneven) Jarrod  Neven   Title: G    Pages: 1 -->
<svg width="428pt" height="112pt"
 viewBox = "-1 -1 427 111"
 xmlns="http://www.w3.org/2000/svg" xmlns:xlink="http://www.w3.org/1999/xlink">
<g id="graph0" class="graph" style="font-family:Times-Roman;font-size:14.00;">
<title>G</title>
<g id="node1" class="node"><title>Node1</title>
<polygon style="fill:#bfbfbf;stroke:black;" points="138,36 253,36 253,4 138,4 138,36"/>
<text text-anchor="middle" x="195" y="27" style="font-family:Helvetica;font-size:20.00;">PIC Code/AES.h</text>
</g>
<g id="node3" class="node"><title>Node2</title>
<a xlink:href="_a_e_s_8c.html" target="_top" xlink:title="PIC Code/AES.c">
<polygon style="fill:none;stroke:black;" points="5,104 169,104 169,72 5,72 5,104"/>
<text text-anchor="middle" x="87" y="95" style="font-family:Helvetica;font-size:20.00;">PIC Code/AES.c</text>
</a>
</g>
<g id="edge2" class="edge"><title>Node1-&gt;Node2</title>
<path style="fill:none;stroke:midnightblue;" d="M160,42C145,52 126,63 112,72"/>
<polygon style="fill:midnightblue;stroke:midnightblue;" points="159,39 169,36 163,44 159,39"/>
</g>
<g id="node5" class="node"><title>Node3</title>
<a xlink:href="_authenticate_8c.html" target="_top" xlink:title="Authenication, xPL and web.">
<polygon style="fill:none;stroke:black;" points="187,104 422,104 422,72 187,72 187,104"/>
<text text-anchor="middle" x="304" y="95" style="font-family:Helvetica;font-size:20.00;">PIC Code/Authenticate.c</text>
</a>
</g>
<g id="edge4" class="edge"><title>Node1-&gt;Node3</title>
<path style="fill:none;stroke:midnightblue;" d="M230,42C245,52 264,63 278,72"/>
<polygon style="fill:midnightblue;stroke:midnightblue;" points="227,44 221,36 231,39 227,44"/>
</g>
</g>
</svg>
