<?xml version="1.0" encoding="UTF-8" standalone="no"?>
<!DOCTYPE svg PUBLIC "-//W3C//DTD SVG 1.0//EN"
 "http://www.w3.org/TR/2001/REC-SVG-20010904/DTD/svg10.dtd" [
 <!ATTLIST svg xmlns:xlink CDATA #FIXED "http://www.w3.org/1999/xlink">
]>
<!-- Generated by dot version 1.13 (v16) (Mon August 23, 2004)
     For user: (jarrodneven) Jarrod  Neven   Title: G    Pages: 1 -->
<svg width="528pt" height="44pt"
 viewBox = "-1 -1 527 43"
 xmlns="http://www.w3.org/2000/svg" xmlns:xlink="http://www.w3.org/1999/xlink">
<g id="graph0" class="graph" style="font-family:Times-Roman;font-size:14.00;">
<title>G</title>
<g id="node1" class="node"><title>Node1</title>
<polygon style="fill:#bfbfbf;stroke:black;" points="5,36 157,36 157,4 5,4 5,36"/>
<text text-anchor="middle" x="81" y="27" style="font-family:Helvetica;font-size:20.00;">SaveUserNameEEdata</text>
</g>
<g id="node3" class="node"><title>Node2</title>
<a xlink:href="_security_system_8h.html#a73d4e378556fa6a028b9460759871f2c" target="_top" xlink:title="ModifyUser">
<polygon style="fill:none;stroke:black;" points="194,36 311,36 311,4 194,4 194,36"/>
<text text-anchor="middle" x="252" y="27" style="font-family:Helvetica;font-size:20.00;">ModifyUser</text>
</a>
</g>
<g id="edge2" class="edge"><title>Node1-&gt;Node2</title>
<path style="fill:none;stroke:midnightblue;" d="M167,20C176,20 185,20 194,20"/>
<polygon style="fill:midnightblue;stroke:midnightblue;" points="167,23 157,20 167,16 167,23"/>
</g>
<g id="node5" class="node"><title>Node3</title>
<a xlink:href="_h_t_t_p_forms_8c.html#a686ae35a16ecb63daffafcd015ddb070" target="_top" xlink:title="Processes all HTTP GETS.">
<polygon style="fill:none;stroke:black;" points="348,36 521,36 521,4 348,4 348,36"/>
<text text-anchor="middle" x="434" y="27" style="font-family:Helvetica;font-size:20.00;">HTTPExecuteGet</text>
</a>
</g>
<g id="edge4" class="edge"><title>Node2-&gt;Node3</title>
<path style="fill:none;stroke:midnightblue;" d="M321,20C330,20 339,20 348,20"/>
<polygon style="fill:midnightblue;stroke:midnightblue;" points="321,23 311,20 321,16 321,23"/>
</g>
</g>
</svg>
