<?xml version="1.0" encoding="UTF-8" standalone="no"?>
<!DOCTYPE svg PUBLIC "-//W3C//DTD SVG 1.0//EN"
 "http://www.w3.org/TR/2001/REC-SVG-20010904/DTD/svg10.dtd" [
 <!ATTLIST svg xmlns:xlink CDATA #FIXED "http://www.w3.org/1999/xlink">
]>
<!-- Generated by dot version 1.13 (v16) (Mon August 23, 2004)
     For user: (jarrodneven) Jarrod  Neven   Title: G    Pages: 1 -->
<svg width="682pt" height="332pt"
 viewBox = "-1 -1 681 331"
 xmlns="http://www.w3.org/2000/svg" xmlns:xlink="http://www.w3.org/1999/xlink">
<g id="graph0" class="graph" style="font-family:Times-Roman;font-size:14.00;">
<title>G</title>
<g id="node1" class="node"><title>Node1</title>
<polygon style="fill:#bfbfbf;stroke:black;" points="5,211 125,211 125,179 5,179 5,211"/>
<text text-anchor="middle" x="65" y="202" style="font-family:Helvetica;font-size:20.00;">xPLAuthenticate</text>
</g>
<g id="node3" class="node"><title>Node2</title>
<a xlink:href="_security_system_8h.html#a30c3c9cdda2491c17d5d6d5cc6426b31" target="_top" xlink:title="addxPLMessage">
<polygon style="fill:none;stroke:black;" points="190,49 355,49 355,17 190,17 190,49"/>
<text text-anchor="middle" x="272" y="40" style="font-family:Helvetica;font-size:20.00;">addxPLMessage</text>
</a>
</g>
<g id="edge2" class="edge"><title>Node1-&gt;Node2</title>
<path style="fill:none;stroke:midnightblue;" d="M125,179C168,137 117,89 161,49 167,44 173,40 180,37"/>
<polygon style="fill:midnightblue;stroke:midnightblue;" points="179,34 190,34 181,40 179,34"/>
</g>
<g id="node7" class="node"><title>Node4</title>
<a xlink:href="_a_e_s_8c.html#a7cc41315b74814b03832fc37ffc835ce" target="_top" xlink:title="AESCalcDecodeKey">
<polygon style="fill:none;stroke:black;" points="173,124 372,124 372,92 173,92 173,124"/>
<text text-anchor="middle" x="272" y="115" style="font-family:Helvetica;font-size:20.00;">AESCalcDecodeKey</text>
</a>
</g>
<g id="edge6" class="edge"><title>Node1-&gt;Node4</title>
<path style="fill:none;stroke:midnightblue;" d="M125,179C149,162 137,140 161,124 162,123 163,123 164,122"/>
<polygon style="fill:midnightblue;stroke:midnightblue;" points="162,119 173,118 165,125 162,119"/>
</g>
<g id="node11" class="node"><title>Node6</title>
<a xlink:href="_a_e_s_8c.html#a7f4a8c317d988a237650447bd91ea792" target="_top" xlink:title="AESDecode">
<polygon style="fill:none;stroke:black;" points="210,186 335,186 335,154 210,154 210,186"/>
<text text-anchor="middle" x="272" y="177" style="font-family:Helvetica;font-size:20.00;">AESDecode</text>
</a>
</g>
<g id="edge10" class="edge"><title>Node1-&gt;Node6</title>
<path style="fill:none;stroke:midnightblue;" d="M125,188C149,185 176,182 200,178"/>
<polygon style="fill:midnightblue;stroke:midnightblue;" points="200,175 210,177 200,181 200,175"/>
</g>
<g id="node17" class="node"><title>Node9</title>
<a xlink:href="_authenticate_8c.html#accacf14baedf98bbdcea140a8f3cd3eb" target="_top" xlink:title="Authenticate">
<polygon style="fill:none;stroke:black;" points="209,236 336,236 336,204 209,204 209,236"/>
<text text-anchor="middle" x="272" y="227" style="font-family:Helvetica;font-size:20.00;">Authenticate</text>
</a>
</g>
<g id="edge16" class="edge"><title>Node1-&gt;Node9</title>
<path style="fill:none;stroke:midnightblue;" d="M125,202C148,205 175,208 199,211"/>
<polygon style="fill:midnightblue;stroke:midnightblue;" points="199,208 209,212 199,214 199,208"/>
</g>
<g id="node21" class="node"><title>Node11</title>
<a xlink:href="_authenticate_8c.html#ae2103408fea706307404b433f103eb56" target="_top" xlink:title="LoadUserPasswordEEdata">
<polygon style="fill:none;stroke:black;" points="419,286 675,286 675,254 419,254 419,286"/>
<text text-anchor="middle" x="547" y="277" style="font-family:Helvetica;font-size:20.00;">LoadUserPasswordEEdata</text>
</a>
</g>
<g id="edge22" class="edge"><title>Node1-&gt;Node11</title>
<path style="fill:none;stroke:midnightblue;" d="M120,211C122,212 123,212 125,213 129,215 130,216 133,218 135,220 136,220 137,221 149,231 148,239 161,245 204,264 317,270 409,271"/>
<polygon style="fill:midnightblue;stroke:midnightblue;" points="409,267 419,271 409,274 409,267"/>
</g>
<g id="node24" class="node"><title>Node12</title>
<a xlink:href="_custom_s_n_t_p_8c.html#a3a2bcda2ac33aacd49d652a93f9031b1" target="_top" xlink:title="SNTPGetUTCSeconds">
<polygon style="fill:none;stroke:black;" points="162,324 383,324 383,292 162,292 162,324"/>
<text text-anchor="middle" x="272" y="315" style="font-family:Helvetica;font-size:20.00;">SNTPGetUTCSeconds</text>
</a>
</g>
<g id="edge24" class="edge"><title>Node1-&gt;Node12</title>
<path style="fill:none;stroke:midnightblue;" d="M125,211C152,235 134,262 155,286"/>
<polygon style="fill:midnightblue;stroke:midnightblue;" points="157,283 162,293 152,288 157,283"/>
</g>
<g id="node5" class="node"><title>Node3</title>
<a xlink:href="_security_system_8c.html#a491f8822a8274ca5244c41d226e7136e" target="_top" xlink:title="ClearArmingFlags">
<polygon style="fill:none;stroke:black;" points="459,36 635,36 635,4 459,4 459,36"/>
<text text-anchor="middle" x="547" y="27" style="font-family:Helvetica;font-size:20.00;">ClearArmingFlags</text>
</a>
</g>
<g id="edge4" class="edge"><title>Node2-&gt;Node3</title>
<path style="fill:none;stroke:midnightblue;" d="M355,29C385,27 418,26 449,25"/>
<polygon style="fill:midnightblue;stroke:midnightblue;" points="449,22 459,24 449,28 449,22"/>
</g>
<g id="node9" class="node"><title>Node5</title>
<a xlink:href="_a_e_s_8c.html#a1469592c00f30a3ef472b7213bbec988" target="_top" xlink:title="EncKeySchedule">
<polygon style="fill:none;stroke:black;" points="463,86 631,86 631,54 463,54 463,86"/>
<text text-anchor="middle" x="547" y="77" style="font-family:Helvetica;font-size:20.00;">EncKeySchedule</text>
</a>
</g>
<g id="edge8" class="edge"><title>Node4-&gt;Node5</title>
<path style="fill:none;stroke:midnightblue;" d="M372,94C376,93 379,93 383,92 400,90 403,89 419,86 430,84 441,83 453,81"/>
<polygon style="fill:midnightblue;stroke:midnightblue;" points="453,78 463,80 453,84 453,78"/>
</g>
<g id="node13" class="node"><title>Node7</title>
<a xlink:href="_a_e_s_8c.html#ab28514c50685365342e4f65c68979812" target="_top" xlink:title="DecKeySchedule">
<polygon style="fill:none;stroke:black;" points="463,136 632,136 632,104 463,104 463,136"/>
<text text-anchor="middle" x="547" y="127" style="font-family:Helvetica;font-size:20.00;">DecKeySchedule</text>
</a>
</g>
<g id="edge12" class="edge"><title>Node6-&gt;Node7</title>
<path style="fill:none;stroke:midnightblue;" d="M335,165C351,162 368,159 383,154 401,149 402,142 419,136 430,133 441,130 453,129"/>
<polygon style="fill:midnightblue;stroke:midnightblue;" points="453,126 463,127 454,132 453,126"/>
</g>
<g id="node15" class="node"><title>Node8</title>
<a xlink:href="_a_e_s_8c.html#ae3f9a7acb862eae95aeac5f1dda91782" target="_top" xlink:title="DecodeShiftRow">
<polygon style="fill:none;stroke:black;" points="465,186 630,186 630,154 465,154 465,186"/>
<text text-anchor="middle" x="547" y="177" style="font-family:Helvetica;font-size:20.00;">DecodeShiftRow</text>
</a>
</g>
<g id="edge14" class="edge"><title>Node6-&gt;Node8</title>
<path style="fill:none;stroke:midnightblue;" d="M335,170C370,170 415,170 455,170"/>
<polygon style="fill:midnightblue;stroke:midnightblue;" points="455,166 465,170 455,173 455,166"/>
</g>
<g id="node19" class="node"><title>Node10</title>
<a xlink:href="_authenticate_8c.html#ad9ccab53e1332706a0181ea3d79c6ee6" target="_top" xlink:title="LoadUserNameEEdata">
<polygon style="fill:none;stroke:black;" points="436,236 658,236 658,204 436,204 436,236"/>
<text text-anchor="middle" x="547" y="227" style="font-family:Helvetica;font-size:20.00;">LoadUserNameEEdata</text>
</a>
</g>
<g id="edge18" class="edge"><title>Node9-&gt;Node10</title>
<path style="fill:none;stroke:midnightblue;" d="M336,220C363,220 395,220 426,220"/>
<polygon style="fill:midnightblue;stroke:midnightblue;" points="426,216 436,220 426,223 426,216"/>
</g>
<g id="edge20" class="edge"><title>Node9-&gt;Node11</title>
<path style="fill:none;stroke:midnightblue;" d="M336,226C352,228 368,232 383,236 397,241 401,246 410,250"/>
<polygon style="fill:midnightblue;stroke:midnightblue;" points="411,247 419,254 408,253 411,247"/>
</g>
</g>
</svg>
