<?xml version="1.0" encoding="UTF-8" standalone="no"?>
<!DOCTYPE svg PUBLIC "-//W3C//DTD SVG 1.0//EN"
 "http://www.w3.org/TR/2001/REC-SVG-20010904/DTD/svg10.dtd" [
 <!ATTLIST svg xmlns:xlink CDATA #FIXED "http://www.w3.org/1999/xlink">
]>
<!-- Generated by dot version 1.13 (v16) (Mon August 23, 2004)
     For user: (jarrodneven) Jarrod  Neven   Title: G    Pages: 1 -->
<svg width="402pt" height="94pt"
 viewBox = "-1 -1 401 93"
 xmlns="http://www.w3.org/2000/svg" xmlns:xlink="http://www.w3.org/1999/xlink">
<g id="graph0" class="graph" style="font-family:Times-Roman;font-size:14.00;">
<title>G</title>
<g id="node1" class="node"><title>Node1</title>
<polygon style="fill:#bfbfbf;stroke:black;" points="5,61 103,61 103,29 5,29 5,61"/>
<text text-anchor="middle" x="54" y="52" style="font-family:Helvetica;font-size:20.00;">Authenticate</text>
</g>
<g id="node3" class="node"><title>Node2</title>
<a xlink:href="_authenticate_8c.html#ad9ccab53e1332706a0181ea3d79c6ee6" target="_top" xlink:title="LoadUserNameEEdata">
<polygon style="fill:none;stroke:black;" points="156,36 378,36 378,4 156,4 156,36"/>
<text text-anchor="middle" x="267" y="27" style="font-family:Helvetica;font-size:20.00;">LoadUserNameEEdata</text>
</a>
</g>
<g id="edge2" class="edge"><title>Node1-&gt;Node2</title>
<path style="fill:none;stroke:midnightblue;" d="M103,39C116,37 131,36 146,34"/>
<polygon style="fill:midnightblue;stroke:midnightblue;" points="146,31 156,33 146,37 146,31"/>
</g>
<g id="node5" class="node"><title>Node3</title>
<a xlink:href="_authenticate_8c.html#ae2103408fea706307404b433f103eb56" target="_top" xlink:title="LoadUserPasswordEEdata">
<polygon style="fill:none;stroke:black;" points="139,86 395,86 395,54 139,54 139,86"/>
<text text-anchor="middle" x="267" y="77" style="font-family:Helvetica;font-size:20.00;">LoadUserPasswordEEdata</text>
</a>
</g>
<g id="edge4" class="edge"><title>Node1-&gt;Node3</title>
<path style="fill:none;stroke:midnightblue;" d="M103,51C111,52 120,53 129,54"/>
<polygon style="fill:midnightblue;stroke:midnightblue;" points="129,51 139,55 129,57 129,51"/>
</g>
</g>
</svg>
