<?xml version="1.0" encoding="UTF-8" standalone="no"?>
<!DOCTYPE svg PUBLIC "-//W3C//DTD SVG 1.0//EN"
 "http://www.w3.org/TR/2001/REC-SVG-20010904/DTD/svg10.dtd" [
 <!ATTLIST svg xmlns:xlink CDATA #FIXED "http://www.w3.org/1999/xlink">
]>
<!-- Generated by dot version 1.13 (v16) (Mon August 23, 2004)
     For user: (jarrodneven) Jarrod  Neven   Title: G    Pages: 1 -->
<svg width="1372pt" height="144pt"
 viewBox = "-1 -1 1371 143"
 xmlns="http://www.w3.org/2000/svg" xmlns:xlink="http://www.w3.org/1999/xlink">
<g id="graph0" class="graph" style="font-family:Times-Roman;font-size:14.00;">
<title>G</title>
<g id="node1" class="node"><title>Node1</title>
<polygon style="fill:#bfbfbf;stroke:black;" points="6,86 159,86 159,54 6,54 6,86"/>
<text text-anchor="middle" x="82" y="77" style="font-family:Helvetica;font-size:20.00;">LoadUserNameEEdata</text>
</g>
<g id="node3" class="node"><title>Node2</title>
<a xlink:href="_security_system_8h.html#accacf14baedf98bbdcea140a8f3cd3eb" target="_top" xlink:title="Authenticate">
<polygon style="fill:none;stroke:black;" points="240,36 367,36 367,4 240,4 240,36"/>
<text text-anchor="middle" x="303" y="27" style="font-family:Helvetica;font-size:20.00;">Authenticate</text>
</a>
</g>
<g id="edge2" class="edge"><title>Node1-&gt;Node2</title>
<path style="fill:none;stroke:midnightblue;" d="M169,50C178,46 182,41 195,36 209,32 225,29 240,26"/>
<polygon style="fill:midnightblue;stroke:midnightblue;" points="170,54 159,54 167,47 170,54"/>
</g>
<g id="node15" class="node"><title>Node8</title>
<a xlink:href="_authenticate_8c.html#a1d92bb5a4818d19c7b16c60ec6cc96f4" target="_top" xlink:title="HTTPCheckAuth">
<polygon style="fill:none;stroke:black;" points="220,86 386,86 386,54 220,54 220,86"/>
<text text-anchor="middle" x="303" y="77" style="font-family:Helvetica;font-size:20.00;">HTTPCheckAuth</text>
</a>
</g>
<g id="edge14" class="edge"><title>Node1-&gt;Node8</title>
<path style="fill:none;stroke:midnightblue;" d="M169,70C186,70 203,70 220,70"/>
<polygon style="fill:midnightblue;stroke:midnightblue;" points="169,73 159,70 169,66 169,73"/>
</g>
<g id="node17" class="node"><title>Node9</title>
<a xlink:href="_authenticate_8c.html#a4d625f0ecf98464870350caed696c3ca" target="_top" xlink:title="HTTPPrint_UserName">
<polygon style="fill:none;stroke:black;" points="195,136 411,136 411,104 195,104 195,136"/>
<text text-anchor="middle" x="303" y="127" style="font-family:Helvetica;font-size:20.00;">HTTPPrint_UserName</text>
</a>
</g>
<g id="edge16" class="edge"><title>Node1-&gt;Node9</title>
<path style="fill:none;stroke:midnightblue;" d="M168,90C178,95 182,100 195,104"/>
<polygon style="fill:midnightblue;stroke:midnightblue;" points="167,93 159,86 170,87 167,93"/>
</g>
<g id="node5" class="node"><title>Node3</title>
<a xlink:href="_authenticate_8c.html#a207b19b2185ffaa19d1d3f053b996121" target="_top" xlink:title="xPLAuthenticate">
<polygon style="fill:none;stroke:black;" points="447,36 609,36 609,4 447,4 447,36"/>
<text text-anchor="middle" x="528" y="27" style="font-family:Helvetica;font-size:20.00;">xPLAuthenticate</text>
</a>
</g>
<g id="edge4" class="edge"><title>Node2-&gt;Node3</title>
<path style="fill:none;stroke:midnightblue;" d="M377,20C400,20 424,20 447,20"/>
<polygon style="fill:midnightblue;stroke:midnightblue;" points="377,23 367,20 377,16 377,23"/>
</g>
<g id="node7" class="node"><title>Node4</title>
<a xlink:href="x_p_l_8h.html#a3baecc6556e5cc7af0d59d0216aa217c" target="_top" xlink:title="SchemaProcessUDPMsg">
<polygon style="fill:none;stroke:black;" points="645,36 887,36 887,4 645,4 645,36"/>
<text text-anchor="middle" x="766" y="27" style="font-family:Helvetica;font-size:20.00;">SchemaProcessUDPMsg</text>
</a>
</g>
<g id="edge6" class="edge"><title>Node3-&gt;Node4</title>
<path style="fill:none;stroke:midnightblue;" d="M619,20C628,20 636,20 645,20"/>
<polygon style="fill:midnightblue;stroke:midnightblue;" points="619,23 609,20 619,16 619,23"/>
</g>
<g id="node9" class="node"><title>Node5</title>
<a xlink:href="x_p_l_8c.html#a41c59f641ff95b999e66c0d45117b73d" target="_top" xlink:title="XPLProcessUDPMsg">
<polygon style="fill:none;stroke:black;" points="923,36 1129,36 1129,4 923,4 923,36"/>
<text text-anchor="middle" x="1026" y="27" style="font-family:Helvetica;font-size:20.00;">XPLProcessUDPMsg</text>
</a>
</g>
<g id="edge8" class="edge"><title>Node4-&gt;Node5</title>
<path style="fill:none;stroke:midnightblue;" d="M897,20C906,20 914,20 923,20"/>
<polygon style="fill:midnightblue;stroke:midnightblue;" points="897,23 887,20 897,16 897,23"/>
</g>
<g id="node11" class="node"><title>Node6</title>
<a xlink:href="x_p_l_8h.html#a86d914c966f337c4e3a6fda46a945d11" target="_top" xlink:title="XPLTasks">
<polygon style="fill:none;stroke:black;" points="1166,36 1269,36 1269,4 1166,4 1166,36"/>
<text text-anchor="middle" x="1217" y="27" style="font-family:Helvetica;font-size:20.00;">XPLTasks</text>
</a>
</g>
<g id="edge10" class="edge"><title>Node5-&gt;Node6</title>
<path style="fill:none;stroke:midnightblue;" d="M1139,20C1148,20 1157,20 1166,20"/>
<polygon style="fill:midnightblue;stroke:midnightblue;" points="1139,23 1129,20 1139,16 1139,23"/>
</g>
<g id="node13" class="node"><title>Node7</title>
<a xlink:href="_main_demo_8c.html#a6288eba0f8e8ad3ab1544ad731eb7667" target="_top" xlink:title="main">
<polygon style="fill:none;stroke:black;" points="1306,36 1365,36 1365,4 1306,4 1306,36"/>
<text text-anchor="middle" x="1335" y="27" style="font-family:Helvetica;font-size:20.00;">main</text>
</a>
</g>
<g id="edge12" class="edge"><title>Node6-&gt;Node7</title>
<path style="fill:none;stroke:midnightblue;" d="M1279,20C1289,20 1298,20 1306,20"/>
<polygon style="fill:midnightblue;stroke:midnightblue;" points="1279,23 1269,20 1279,16 1279,23"/>
</g>
</g>
</svg>
