<?xml version="1.0" encoding="UTF-8" standalone="no"?>
<!DOCTYPE svg PUBLIC "-//W3C//DTD SVG 1.0//EN"
 "http://www.w3.org/TR/2001/REC-SVG-20010904/DTD/svg10.dtd" [
 <!ATTLIST svg xmlns:xlink CDATA #FIXED "http://www.w3.org/1999/xlink">
]>
<!-- Generated by dot version 1.13 (v16) (Mon August 23, 2004)
     For user: (jarrodneven) Jarrod  Neven   Title: G    Pages: 1 -->
<svg width="584pt" height="112pt"
 viewBox = "-1 -1 583 111"
 xmlns="http://www.w3.org/2000/svg" xmlns:xlink="http://www.w3.org/1999/xlink">
<g id="graph0" class="graph" style="font-family:Times-Roman;font-size:14.00;">
<title>G</title>
<g id="node1" class="node"><title>Node1</title>
<polygon style="fill:#bfbfbf;stroke:black;" points="191,36 362,36 362,4 191,4 191,36"/>
<text text-anchor="middle" x="276" y="27" style="font-family:Helvetica;font-size:20.00;">PIC Code/Authenticate.c</text>
</g>
<g id="node3" class="node"><title>Node2</title>
<a xlink:href="_a_e_s_8h.html" target="_top" xlink:title="AES.h">
<polygon style="fill:none;stroke:black;" points="5,104 78,104 78,72 5,72 5,104"/>
<text text-anchor="middle" x="41" y="95" style="font-family:Helvetica;font-size:20.00;">AES.h</text>
</a>
</g>
<g id="edge2" class="edge"><title>Node1-&gt;Node2</title>
<path style="fill:none;stroke:midnightblue;" d="M206,36C171,44 127,56 88,69"/>
<polygon style="fill:midnightblue;stroke:midnightblue;" points="89,72 78,72 87,66 89,72"/>
</g>
<g id="node5" class="node"><title>Node3</title>
<polygon style="fill:none;stroke:#bfbfbf;" points="95,104 304,104 304,72 95,72 95,104"/>
<text text-anchor="middle" x="199" y="95" style="font-family:Helvetica;font-size:20.00;">TCPIP Stack/TCPIP.h</text>
</g>
<g id="edge4" class="edge"><title>Node1-&gt;Node3</title>
<path style="fill:none;stroke:midnightblue;" d="M258,36C248,45 235,56 225,65"/>
<polygon style="fill:midnightblue;stroke:midnightblue;" points="227,68 217,72 222,63 227,68"/>
</g>
<g id="node7" class="node"><title>Node4</title>
<a xlink:href="x_p_l_8h.html" target="_top" xlink:title="xPL.h">
<polygon style="fill:none;stroke:black;" points="321,104 388,104 388,72 321,72 321,104"/>
<text text-anchor="middle" x="354" y="95" style="font-family:Helvetica;font-size:20.00;">xPL.h</text>
</a>
</g>
<g id="edge6" class="edge"><title>Node1-&gt;Node4</title>
<path style="fill:none;stroke:midnightblue;" d="M294,36C304,45 317,56 328,65"/>
<polygon style="fill:midnightblue;stroke:midnightblue;" points="331,63 336,72 326,68 331,63"/>
</g>
<g id="node9" class="node"><title>Node5</title>
<a xlink:href="_security_system_8h.html" target="_top" xlink:title="SecuritySystem.h">
<polygon style="fill:none;stroke:black;" points="405,104 577,104 577,72 405,72 405,104"/>
<text text-anchor="middle" x="491" y="95" style="font-family:Helvetica;font-size:20.00;">SecuritySystem.h</text>
</a>
</g>
<g id="edge8" class="edge"><title>Node1-&gt;Node5</title>
<path style="fill:none;stroke:midnightblue;" d="M327,36C358,46 398,58 430,69"/>
<polygon style="fill:midnightblue;stroke:midnightblue;" points="431,66 440,72 429,72 431,66"/>
</g>
</g>
</svg>
