<?xml version="1.0" encoding="UTF-8" standalone="no"?>
<!DOCTYPE svg PUBLIC "-//W3C//DTD SVG 1.0//EN"
 "http://www.w3.org/TR/2001/REC-SVG-20010904/DTD/svg10.dtd" [
 <!ATTLIST svg xmlns:xlink CDATA #FIXED "http://www.w3.org/1999/xlink">
]>
<!-- Generated by dot version 1.13 (v16) (Mon August 23, 2004)
     For user: (jarrodneven) Jarrod  Neven   Title: G    Pages: 1 -->
<svg width="422pt" height="94pt"
 viewBox = "-1 -1 421 93"
 xmlns="http://www.w3.org/2000/svg" xmlns:xlink="http://www.w3.org/1999/xlink">
<g id="graph0" class="graph" style="font-family:Times-Roman;font-size:14.00;">
<title>G</title>
<g id="node1" class="node"><title>Node1</title>
<polygon style="fill:#bfbfbf;stroke:black;" points="6,61 123,61 123,29 6,29 6,61"/>
<text text-anchor="middle" x="64" y="52" style="font-family:Helvetica;font-size:20.00;">HTTPCheckAuth</text>
</g>
<g id="node3" class="node"><title>Node2</title>
<a xlink:href="_authenticate_8c.html#ad9ccab53e1332706a0181ea3d79c6ee6" target="_top" xlink:title="LoadUserNameEEdata">
<polygon style="fill:none;stroke:black;" points="176,36 398,36 398,4 176,4 176,36"/>
<text text-anchor="middle" x="287" y="27" style="font-family:Helvetica;font-size:20.00;">LoadUserNameEEdata</text>
</a>
</g>
<g id="edge2" class="edge"><title>Node1-&gt;Node2</title>
<path style="fill:none;stroke:midnightblue;" d="M123,38C136,36 151,35 166,33"/>
<polygon style="fill:midnightblue;stroke:midnightblue;" points="166,30 176,32 166,36 166,30"/>
</g>
<g id="node5" class="node"><title>Node3</title>
<a xlink:href="_authenticate_8c.html#ae2103408fea706307404b433f103eb56" target="_top" xlink:title="LoadUserPasswordEEdata">
<polygon style="fill:none;stroke:black;" points="159,86 415,86 415,54 159,54 159,86"/>
<text text-anchor="middle" x="287" y="77" style="font-family:Helvetica;font-size:20.00;">LoadUserPasswordEEdata</text>
</a>
</g>
<g id="edge4" class="edge"><title>Node1-&gt;Node3</title>
<path style="fill:none;stroke:midnightblue;" d="M123,52C131,53 140,53 149,55"/>
<polygon style="fill:midnightblue;stroke:midnightblue;" points="149,52 159,56 149,58 149,52"/>
</g>
</g>
</svg>
