<?xml version="1.0" encoding="UTF-8" standalone="no"?>
<!DOCTYPE svg PUBLIC "-//W3C//DTD SVG 1.0//EN"
 "http://www.w3.org/TR/2001/REC-SVG-20010904/DTD/svg10.dtd" [
 <!ATTLIST svg xmlns:xlink CDATA #FIXED "http://www.w3.org/1999/xlink">
]>
<!-- Generated by dot version 1.13 (v16) (Mon August 23, 2004)
     For user: (jarrodneven) Jarrod  Neven   Title: G    Pages: 1 -->
<svg width="1430pt" height="182pt"
 viewBox = "-1 -1 1429 181"
 xmlns="http://www.w3.org/2000/svg" xmlns:xlink="http://www.w3.org/1999/xlink">
<g id="graph0" class="graph" style="font-family:Times-Roman;font-size:14.00;">
<title>G</title>
<g id="node1" class="node"><title>Node1</title>
<polygon style="fill:#bfbfbf;stroke:black;" points="5,102 181,102 181,70 5,70 5,102"/>
<text text-anchor="middle" x="93" y="93" style="font-family:Helvetica;font-size:20.00;">LoadUserPasswordEEdata</text>
</g>
<g id="node3" class="node"><title>Node2</title>
<a xlink:href="_security_system_8h.html#accacf14baedf98bbdcea140a8f3cd3eb" target="_top" xlink:title="Authenticate">
<polygon style="fill:none;stroke:black;" points="280,36 407,36 407,4 280,4 280,36"/>
<text text-anchor="middle" x="343" y="27" style="font-family:Helvetica;font-size:20.00;">Authenticate</text>
</a>
</g>
<g id="edge2" class="edge"><title>Node1-&gt;Node2</title>
<path style="fill:none;stroke:midnightblue;" d="M190,65C201,56 201,44 217,36 236,27 259,22 280,20"/>
<polygon style="fill:midnightblue;stroke:midnightblue;" points="191,68 181,70 188,62 191,68"/>
</g>
<g id="node5" class="node"><title>Node3</title>
<a xlink:href="_authenticate_8c.html#a207b19b2185ffaa19d1d3f053b996121" target="_top" xlink:title="xPLAuthenticate">
<polygon style="fill:none;stroke:black;" points="505,58 667,58 667,26 505,26 505,58"/>
<text text-anchor="middle" x="586" y="49" style="font-family:Helvetica;font-size:20.00;">xPLAuthenticate</text>
</a>
</g>
<g id="edge18" class="edge"><title>Node1-&gt;Node3</title>
<path style="fill:none;stroke:midnightblue;" d="M191,77C283,69 419,57 505,49"/>
<polygon style="fill:midnightblue;stroke:midnightblue;" points="191,80 181,78 191,74 191,80"/>
</g>
<g id="node15" class="node"><title>Node8</title>
<a xlink:href="_authenticate_8c.html#a1d92bb5a4818d19c7b16c60ec6cc96f4" target="_top" xlink:title="HTTPCheckAuth">
<polygon style="fill:none;stroke:black;" points="260,124 426,124 426,92 260,92 260,124"/>
<text text-anchor="middle" x="343" y="115" style="font-family:Helvetica;font-size:20.00;">HTTPCheckAuth</text>
</a>
</g>
<g id="edge14" class="edge"><title>Node1-&gt;Node8</title>
<path style="fill:none;stroke:midnightblue;" d="M191,95C214,97 237,99 260,101"/>
<polygon style="fill:midnightblue;stroke:midnightblue;" points="191,98 181,94 191,92 191,98"/>
</g>
<g id="node17" class="node"><title>Node9</title>
<a xlink:href="_authenticate_8c.html#af7da7701f182ba72027f320fbc33add7" target="_top" xlink:title="HTTPPrint_UserPassword">
<polygon style="fill:none;stroke:black;" points="218,174 469,174 469,142 218,142 218,174"/>
<text text-anchor="middle" x="343" y="165" style="font-family:Helvetica;font-size:20.00;">HTTPPrint_UserPassword</text>
</a>
</g>
<g id="edge16" class="edge"><title>Node1-&gt;Node9</title>
<path style="fill:none;stroke:midnightblue;" d="M189,108C201,119 199,133 217,142 217,142 218,142 218,142"/>
<polygon style="fill:midnightblue;stroke:midnightblue;" points="187,111 181,102 191,105 187,111"/>
</g>
<g id="edge4" class="edge"><title>Node2-&gt;Node3</title>
<path style="fill:none;stroke:midnightblue;" d="M417,27C445,29 476,32 505,35"/>
<polygon style="fill:midnightblue;stroke:midnightblue;" points="417,30 407,26 417,24 417,30"/>
</g>
<g id="node7" class="node"><title>Node4</title>
<a xlink:href="x_p_l_8h.html#a3baecc6556e5cc7af0d59d0216aa217c" target="_top" xlink:title="SchemaProcessUDPMsg">
<polygon style="fill:none;stroke:black;" points="703,58 945,58 945,26 703,26 703,58"/>
<text text-anchor="middle" x="824" y="49" style="font-family:Helvetica;font-size:20.00;">SchemaProcessUDPMsg</text>
</a>
</g>
<g id="edge6" class="edge"><title>Node3-&gt;Node4</title>
<path style="fill:none;stroke:midnightblue;" d="M677,42C686,42 694,42 703,42"/>
<polygon style="fill:midnightblue;stroke:midnightblue;" points="677,45 667,42 677,38 677,45"/>
</g>
<g id="node9" class="node"><title>Node5</title>
<a xlink:href="x_p_l_8c.html#a41c59f641ff95b999e66c0d45117b73d" target="_top" xlink:title="XPLProcessUDPMsg">
<polygon style="fill:none;stroke:black;" points="981,58 1187,58 1187,26 981,26 981,58"/>
<text text-anchor="middle" x="1084" y="49" style="font-family:Helvetica;font-size:20.00;">XPLProcessUDPMsg</text>
</a>
</g>
<g id="edge8" class="edge"><title>Node4-&gt;Node5</title>
<path style="fill:none;stroke:midnightblue;" d="M955,42C964,42 972,42 981,42"/>
<polygon style="fill:midnightblue;stroke:midnightblue;" points="955,45 945,42 955,38 955,45"/>
</g>
<g id="node11" class="node"><title>Node6</title>
<a xlink:href="x_p_l_8h.html#a86d914c966f337c4e3a6fda46a945d11" target="_top" xlink:title="XPLTasks">
<polygon style="fill:none;stroke:black;" points="1224,58 1327,58 1327,26 1224,26 1224,58"/>
<text text-anchor="middle" x="1275" y="49" style="font-family:Helvetica;font-size:20.00;">XPLTasks</text>
</a>
</g>
<g id="edge10" class="edge"><title>Node5-&gt;Node6</title>
<path style="fill:none;stroke:midnightblue;" d="M1197,42C1206,42 1215,42 1224,42"/>
<polygon style="fill:midnightblue;stroke:midnightblue;" points="1197,45 1187,42 1197,38 1197,45"/>
</g>
<g id="node13" class="node"><title>Node7</title>
<a xlink:href="_main_demo_8c.html#a6288eba0f8e8ad3ab1544ad731eb7667" target="_top" xlink:title="main">
<polygon style="fill:none;stroke:black;" points="1364,58 1423,58 1423,26 1364,26 1364,58"/>
<text text-anchor="middle" x="1393" y="49" style="font-family:Helvetica;font-size:20.00;">main</text>
</a>
</g>
<g id="edge12" class="edge"><title>Node6-&gt;Node7</title>
<path style="fill:none;stroke:midnightblue;" d="M1337,42C1347,42 1356,42 1364,42"/>
<polygon style="fill:midnightblue;stroke:midnightblue;" points="1337,45 1327,42 1337,38 1337,45"/>
</g>
</g>
</svg>
