<?xml version="1.0" encoding="UTF-8" standalone="no"?>
<!DOCTYPE svg PUBLIC "-//W3C//DTD SVG 1.0//EN"
 "http://www.w3.org/TR/2001/REC-SVG-20010904/DTD/svg10.dtd" [
 <!ATTLIST svg xmlns:xlink CDATA #FIXED "http://www.w3.org/1999/xlink">
]>
<!-- Generated by dot version 1.13 (v16) (Mon August 23, 2004)
     For user: (jarrodneven) Jarrod  Neven   Title: G    Pages: 1 -->
<svg width="888pt" height="44pt"
 viewBox = "-1 -1 887 43"
 xmlns="http://www.w3.org/2000/svg" xmlns:xlink="http://www.w3.org/1999/xlink">
<g id="graph0" class="graph" style="font-family:Times-Roman;font-size:14.00;">
<title>G</title>
<g id="node1" class="node"><title>Node1</title>
<polygon style="fill:#bfbfbf;stroke:black;" points="5,36 125,36 125,4 5,4 5,36"/>
<text text-anchor="middle" x="65" y="27" style="font-family:Helvetica;font-size:20.00;">xPLAuthenticate</text>
</g>
<g id="node3" class="node"><title>Node2</title>
<a xlink:href="x_p_l_8h.html#a3baecc6556e5cc7af0d59d0216aa217c" target="_top" xlink:title="SchemaProcessUDPMsg">
<polygon style="fill:none;stroke:black;" points="161,36 403,36 403,4 161,4 161,36"/>
<text text-anchor="middle" x="282" y="27" style="font-family:Helvetica;font-size:20.00;">SchemaProcessUDPMsg</text>
</a>
</g>
<g id="edge2" class="edge"><title>Node1-&gt;Node2</title>
<path style="fill:none;stroke:midnightblue;" d="M135,20C143,20 152,20 161,20"/>
<polygon style="fill:midnightblue;stroke:midnightblue;" points="135,23 125,20 135,16 135,23"/>
</g>
<g id="node5" class="node"><title>Node3</title>
<a xlink:href="x_p_l_8c.html#a41c59f641ff95b999e66c0d45117b73d" target="_top" xlink:title="XPLProcessUDPMsg">
<polygon style="fill:none;stroke:black;" points="439,36 645,36 645,4 439,4 439,36"/>
<text text-anchor="middle" x="542" y="27" style="font-family:Helvetica;font-size:20.00;">XPLProcessUDPMsg</text>
</a>
</g>
<g id="edge4" class="edge"><title>Node2-&gt;Node3</title>
<path style="fill:none;stroke:midnightblue;" d="M413,20C422,20 430,20 439,20"/>
<polygon style="fill:midnightblue;stroke:midnightblue;" points="413,23 403,20 413,16 413,23"/>
</g>
<g id="node7" class="node"><title>Node4</title>
<a xlink:href="x_p_l_8h.html#a86d914c966f337c4e3a6fda46a945d11" target="_top" xlink:title="XPLTasks">
<polygon style="fill:none;stroke:black;" points="682,36 785,36 785,4 682,4 682,36"/>
<text text-anchor="middle" x="733" y="27" style="font-family:Helvetica;font-size:20.00;">XPLTasks</text>
</a>
</g>
<g id="edge6" class="edge"><title>Node3-&gt;Node4</title>
<path style="fill:none;stroke:midnightblue;" d="M655,20C664,20 673,20 682,20"/>
<polygon style="fill:midnightblue;stroke:midnightblue;" points="655,23 645,20 655,16 655,23"/>
</g>
<g id="node9" class="node"><title>Node5</title>
<a xlink:href="_main_demo_8c.html#a6288eba0f8e8ad3ab1544ad731eb7667" target="_top" xlink:title="main">
<polygon style="fill:none;stroke:black;" points="822,36 881,36 881,4 822,4 822,36"/>
<text text-anchor="middle" x="851" y="27" style="font-family:Helvetica;font-size:20.00;">main</text>
</a>
</g>
<g id="edge8" class="edge"><title>Node4-&gt;Node5</title>
<path style="fill:none;stroke:midnightblue;" d="M795,20C805,20 814,20 822,20"/>
<polygon style="fill:midnightblue;stroke:midnightblue;" points="795,23 785,20 795,16 795,23"/>
</g>
</g>
</svg>
