<?xml version="1.0" encoding="UTF-8" standalone="no"?>
<!DOCTYPE svg PUBLIC "-//W3C//DTD SVG 1.0//EN"
 "http://www.w3.org/TR/2001/REC-SVG-20010904/DTD/svg10.dtd" [
 <!ATTLIST svg xmlns:xlink CDATA #FIXED "http://www.w3.org/1999/xlink">
]>
<!-- Generated by dot version 1.13 (v16) (Mon August 23, 2004)
     For user: (jarrodneven) Jarrod  Neven   Title: G    Pages: 1 -->
<svg width="552pt" height="44pt"
 viewBox = "-1 -1 551 43"
 xmlns="http://www.w3.org/2000/svg" xmlns:xlink="http://www.w3.org/1999/xlink">
<g id="graph0" class="graph" style="font-family:Times-Roman;font-size:14.00;">
<title>G</title>
<g id="node1" class="node"><title>Node1</title>
<polygon style="fill:#bfbfbf;stroke:black;" points="5,36 181,36 181,4 5,4 5,36"/>
<text text-anchor="middle" x="93" y="27" style="font-family:Helvetica;font-size:20.00;">SaveUserPasswordEEdata</text>
</g>
<g id="node3" class="node"><title>Node2</title>
<a xlink:href="_security_system_8h.html#a73d4e378556fa6a028b9460759871f2c" target="_top" xlink:title="ModifyUser">
<polygon style="fill:none;stroke:black;" points="218,36 335,36 335,4 218,4 218,36"/>
<text text-anchor="middle" x="276" y="27" style="font-family:Helvetica;font-size:20.00;">ModifyUser</text>
</a>
</g>
<g id="edge2" class="edge"><title>Node1-&gt;Node2</title>
<path style="fill:none;stroke:midnightblue;" d="M191,20C200,20 209,20 218,20"/>
<polygon style="fill:midnightblue;stroke:midnightblue;" points="191,23 181,20 191,16 191,23"/>
</g>
<g id="node5" class="node"><title>Node3</title>
<a xlink:href="_h_t_t_p_forms_8c.html#a686ae35a16ecb63daffafcd015ddb070" target="_top" xlink:title="Processes all HTTP GETS.">
<polygon style="fill:none;stroke:black;" points="372,36 545,36 545,4 372,4 372,36"/>
<text text-anchor="middle" x="458" y="27" style="font-family:Helvetica;font-size:20.00;">HTTPExecuteGet</text>
</a>
</g>
<g id="edge4" class="edge"><title>Node2-&gt;Node3</title>
<path style="fill:none;stroke:midnightblue;" d="M345,20C354,20 363,20 372,20"/>
<polygon style="fill:midnightblue;stroke:midnightblue;" points="345,23 335,20 345,16 345,23"/>
</g>
</g>
</svg>
