<?xml version="1.0" encoding="UTF-8" standalone="no"?>
<!DOCTYPE svg PUBLIC "-//W3C//DTD SVG 1.0//EN"
 "http://www.w3.org/TR/2001/REC-SVG-20010904/DTD/svg10.dtd" [
 <!ATTLIST svg xmlns:xlink CDATA #FIXED "http://www.w3.org/1999/xlink">
]>
<!-- Generated by dot version 1.13 (v16) (Mon August 23, 2004)
     For user: (jarrodneven) Jarrod  Neven   Title: G    Pages: 1 -->
<svg width="518pt" height="94pt"
 viewBox = "-1 -1 517 93"
 xmlns="http://www.w3.org/2000/svg" xmlns:xlink="http://www.w3.org/1999/xlink">
<g id="graph0" class="graph" style="font-family:Times-Roman;font-size:14.00;">
<title>G</title>
<g id="node1" class="node"><title>Node1</title>
<polygon style="fill:#bfbfbf;stroke:black;" points="5,61 97,61 97,29 5,29 5,61"/>
<text text-anchor="middle" x="51" y="52" style="font-family:Helvetica;font-size:20.00;">BatteryTask</text>
</g>
<g id="node3" class="node"><title>Node2</title>
<a xlink:href="_security_system_8h.html#a30c3c9cdda2491c17d5d6d5cc6426b31" target="_top" xlink:title="addxPLMessage">
<polygon style="fill:none;stroke:black;" points="134,36 299,36 299,4 134,4 134,36"/>
<text text-anchor="middle" x="216" y="27" style="font-family:Helvetica;font-size:20.00;">addxPLMessage</text>
</a>
</g>
<g id="edge2" class="edge"><title>Node1-&gt;Node2</title>
<path style="fill:none;stroke:midnightblue;" d="M97,38C105,37 114,35 124,34"/>
<polygon style="fill:midnightblue;stroke:midnightblue;" points="124,31 134,33 124,37 124,31"/>
</g>
<g id="node7" class="node"><title>Node4</title>
<a xlink:href="_battery_8c.html#a35ba3e06ddabc0ec9b6167696f49ec58" target="_top" xlink:title="FetchADC">
<polygon style="fill:none;stroke:black;" points="162,86 270,86 270,54 162,54 162,86"/>
<text text-anchor="middle" x="216" y="77" style="font-family:Helvetica;font-size:20.00;">FetchADC</text>
</a>
</g>
<g id="edge6" class="edge"><title>Node1-&gt;Node4</title>
<path style="fill:none;stroke:midnightblue;" d="M97,52C114,55 134,57 152,60"/>
<polygon style="fill:midnightblue;stroke:midnightblue;" points="153,57 162,62 152,63 153,57"/>
</g>
<g id="node5" class="node"><title>Node3</title>
<a xlink:href="_security_system_8c.html#a491f8822a8274ca5244c41d226e7136e" target="_top" xlink:title="ClearArmingFlags">
<polygon style="fill:none;stroke:black;" points="335,36 511,36 511,4 335,4 335,36"/>
<text text-anchor="middle" x="423" y="27" style="font-family:Helvetica;font-size:20.00;">ClearArmingFlags</text>
</a>
</g>
<g id="edge4" class="edge"><title>Node2-&gt;Node3</title>
<path style="fill:none;stroke:midnightblue;" d="M299,20C308,20 316,20 325,20"/>
<polygon style="fill:midnightblue;stroke:midnightblue;" points="325,16 335,20 325,23 325,16"/>
</g>
</g>
</svg>
