<?xml version="1.0" encoding="UTF-8" standalone="no"?>
<!DOCTYPE svg PUBLIC "-//W3C//DTD SVG 1.0//EN"
 "http://www.w3.org/TR/2001/REC-SVG-20010904/DTD/svg10.dtd" [
 <!ATTLIST svg xmlns:xlink CDATA #FIXED "http://www.w3.org/1999/xlink">
]>
<!-- Generated by dot version 1.13 (v16) (Mon August 23, 2004)
     For user: (jarrodneven) Jarrod  Neven   Title: G    Pages: 1 -->
<svg width="1198pt" height="94pt"
 viewBox = "-1 -1 1197 93"
 xmlns="http://www.w3.org/2000/svg" xmlns:xlink="http://www.w3.org/1999/xlink">
<g id="graph0" class="graph" style="font-family:Times-Roman;font-size:14.00;">
<title>G</title>
<g id="node1" class="node"><title>Node1</title>
<polygon style="fill:#bfbfbf;stroke:black;" points="6,61 155,61 155,29 6,29 6,61"/>
<text text-anchor="middle" x="80" y="52" style="font-family:Helvetica;font-size:20.00;">SNTPGetUTCSeconds</text>
</g>
<g id="node3" class="node"><title>Node2</title>
<a xlink:href="_custom_s_n_t_p_8c.html#a161e949048f06530e2b7bc36388d7241" target="_top" xlink:title="Prints the current EPOC.">
<polygon style="fill:none;stroke:black;" points="191,36 435,36 435,4 191,4 191,36"/>
<text text-anchor="middle" x="313" y="27" style="font-family:Helvetica;font-size:20.00;">HTTPPrint_CurrentEPOC</text>
</a>
</g>
<g id="edge2" class="edge"><title>Node1-&gt;Node2</title>
<path style="fill:none;stroke:midnightblue;" d="M165,36C173,35 182,34 191,33"/>
<polygon style="fill:midnightblue;stroke:midnightblue;" points="165,39 155,37 165,33 165,39"/>
</g>
<g id="node5" class="node"><title>Node3</title>
<a xlink:href="_authenticate_8c.html#a207b19b2185ffaa19d1d3f053b996121" target="_top" xlink:title="xPLAuthenticate">
<polygon style="fill:none;stroke:black;" points="232,86 394,86 394,54 232,54 232,86"/>
<text text-anchor="middle" x="313" y="77" style="font-family:Helvetica;font-size:20.00;">xPLAuthenticate</text>
</a>
</g>
<g id="edge4" class="edge"><title>Node1-&gt;Node3</title>
<path style="fill:none;stroke:midnightblue;" d="M165,54C187,57 210,58 232,61"/>
<polygon style="fill:midnightblue;stroke:midnightblue;" points="165,57 155,53 165,51 165,57"/>
</g>
<g id="node7" class="node"><title>Node4</title>
<a xlink:href="x_p_l_8h.html#a3baecc6556e5cc7af0d59d0216aa217c" target="_top" xlink:title="SchemaProcessUDPMsg">
<polygon style="fill:none;stroke:black;" points="471,86 713,86 713,54 471,54 471,86"/>
<text text-anchor="middle" x="592" y="77" style="font-family:Helvetica;font-size:20.00;">SchemaProcessUDPMsg</text>
</a>
</g>
<g id="edge6" class="edge"><title>Node3-&gt;Node4</title>
<path style="fill:none;stroke:midnightblue;" d="M404,70C425,70 449,70 471,70"/>
<polygon style="fill:midnightblue;stroke:midnightblue;" points="404,73 394,70 404,66 404,73"/>
</g>
<g id="node9" class="node"><title>Node5</title>
<a xlink:href="x_p_l_8c.html#a41c59f641ff95b999e66c0d45117b73d" target="_top" xlink:title="XPLProcessUDPMsg">
<polygon style="fill:none;stroke:black;" points="749,86 955,86 955,54 749,54 749,86"/>
<text text-anchor="middle" x="852" y="77" style="font-family:Helvetica;font-size:20.00;">XPLProcessUDPMsg</text>
</a>
</g>
<g id="edge8" class="edge"><title>Node4-&gt;Node5</title>
<path style="fill:none;stroke:midnightblue;" d="M723,70C732,70 740,70 749,70"/>
<polygon style="fill:midnightblue;stroke:midnightblue;" points="723,73 713,70 723,66 723,73"/>
</g>
<g id="node11" class="node"><title>Node6</title>
<a xlink:href="x_p_l_8h.html#a86d914c966f337c4e3a6fda46a945d11" target="_top" xlink:title="XPLTasks">
<polygon style="fill:none;stroke:black;" points="992,86 1095,86 1095,54 992,54 992,86"/>
<text text-anchor="middle" x="1043" y="77" style="font-family:Helvetica;font-size:20.00;">XPLTasks</text>
</a>
</g>
<g id="edge10" class="edge"><title>Node5-&gt;Node6</title>
<path style="fill:none;stroke:midnightblue;" d="M965,70C974,70 983,70 992,70"/>
<polygon style="fill:midnightblue;stroke:midnightblue;" points="965,73 955,70 965,66 965,73"/>
</g>
<g id="node13" class="node"><title>Node7</title>
<a xlink:href="_main_demo_8c.html#a6288eba0f8e8ad3ab1544ad731eb7667" target="_top" xlink:title="main">
<polygon style="fill:none;stroke:black;" points="1132,86 1191,86 1191,54 1132,54 1132,86"/>
<text text-anchor="middle" x="1161" y="77" style="font-family:Helvetica;font-size:20.00;">main</text>
</a>
</g>
<g id="edge12" class="edge"><title>Node6-&gt;Node7</title>
<path style="fill:none;stroke:midnightblue;" d="M1105,70C1115,70 1124,70 1132,70"/>
<polygon style="fill:midnightblue;stroke:midnightblue;" points="1105,73 1095,70 1105,66 1105,73"/>
</g>
</g>
</svg>
