<?xml version="1.0" encoding="UTF-8" standalone="no"?>
<!DOCTYPE svg PUBLIC "-//W3C//DTD SVG 1.0//EN"
 "http://www.w3.org/TR/2001/REC-SVG-20010904/DTD/svg10.dtd" [
 <!ATTLIST svg xmlns:xlink CDATA #FIXED "http://www.w3.org/1999/xlink">
]>
<!-- Generated by dot version 1.13 (v16) (Mon August 23, 2004)
     For user: (jarrodneven) Jarrod  Neven   Title: G    Pages: 1 -->
<svg width="872pt" height="94pt"
 viewBox = "-1 -1 871 93"
 xmlns="http://www.w3.org/2000/svg" xmlns:xlink="http://www.w3.org/1999/xlink">
<g id="graph0" class="graph" style="font-family:Times-Roman;font-size:14.00;">
<title>G</title>
<g id="node1" class="node"><title>Node1</title>
<polygon style="fill:#bfbfbf;stroke:black;" points="5,61 83,61 83,29 5,29 5,61"/>
<text text-anchor="middle" x="44" y="52" style="font-family:Helvetica;font-size:20.00;">CheckEOL</text>
</g>
<g id="node3" class="node"><title>Node2</title>
<a xlink:href="_e_o_l_8c.html#a158856c40ce33f6a7ac1f7b0808aa8e1" target="_top" xlink:title="Prints the analogue value read from the zone, calls CheckEOL() to determine the value.">
<polygon style="fill:none;stroke:black;" points="120,36 329,36 329,4 120,4 120,36"/>
<text text-anchor="middle" x="224" y="27" style="font-family:Helvetica;font-size:20.00;">HTTPPrint_EOLValue</text>
</a>
</g>
<g id="edge2" class="edge"><title>Node1-&gt;Node2</title>
<path style="fill:none;stroke:midnightblue;" d="M93,38C102,37 111,36 120,35"/>
<polygon style="fill:midnightblue;stroke:midnightblue;" points="93,41 83,40 92,35 93,41"/>
</g>
<g id="node5" class="node"><title>Node3</title>
<a xlink:href="_security_system_8h.html#a44f4ef2b28f2d65b626e1ec4e5885934" target="_top" xlink:title="IsZoneTriggered">
<polygon style="fill:none;stroke:black;" points="143,86 305,86 305,54 143,54 143,86"/>
<text text-anchor="middle" x="224" y="77" style="font-family:Helvetica;font-size:20.00;">IsZoneTriggered</text>
</a>
</g>
<g id="edge4" class="edge"><title>Node1-&gt;Node3</title>
<path style="fill:none;stroke:midnightblue;" d="M93,52C109,54 126,57 143,59"/>
<polygon style="fill:midnightblue;stroke:midnightblue;" points="92,55 83,50 93,49 92,55"/>
</g>
<g id="node7" class="node"><title>Node4</title>
<a xlink:href="_security_system_8c.html#a3ccbc635f6f7bb31465920840c7db474" target="_top" xlink:title="IOTasks">
<polygon style="fill:none;stroke:black;" points="365,86 453,86 453,54 365,54 365,86"/>
<text text-anchor="middle" x="409" y="77" style="font-family:Helvetica;font-size:20.00;">IOTasks</text>
</a>
</g>
<g id="edge6" class="edge"><title>Node3-&gt;Node4</title>
<path style="fill:none;stroke:midnightblue;" d="M315,70C333,70 350,70 365,70"/>
<polygon style="fill:midnightblue;stroke:midnightblue;" points="315,73 305,70 315,66 315,73"/>
</g>
<g id="node9" class="node"><title>Node5</title>
<a xlink:href="x_p_l_8h.html#a62b4d90791ab073f74677d42bfb64253" target="_top" xlink:title="SchemaTasks">
<polygon style="fill:none;stroke:black;" points="489,86 629,86 629,54 489,54 489,86"/>
<text text-anchor="middle" x="559" y="77" style="font-family:Helvetica;font-size:20.00;">SchemaTasks</text>
</a>
</g>
<g id="edge8" class="edge"><title>Node4-&gt;Node5</title>
<path style="fill:none;stroke:midnightblue;" d="M463,70C472,70 481,70 489,70"/>
<polygon style="fill:midnightblue;stroke:midnightblue;" points="463,73 453,70 463,66 463,73"/>
</g>
<g id="node11" class="node"><title>Node6</title>
<a xlink:href="x_p_l_8h.html#a86d914c966f337c4e3a6fda46a945d11" target="_top" xlink:title="XPLTasks">
<polygon style="fill:none;stroke:black;" points="666,86 769,86 769,54 666,54 666,86"/>
<text text-anchor="middle" x="717" y="77" style="font-family:Helvetica;font-size:20.00;">XPLTasks</text>
</a>
</g>
<g id="edge10" class="edge"><title>Node5-&gt;Node6</title>
<path style="fill:none;stroke:midnightblue;" d="M639,70C648,70 657,70 666,70"/>
<polygon style="fill:midnightblue;stroke:midnightblue;" points="639,73 629,70 639,66 639,73"/>
</g>
<g id="node13" class="node"><title>Node7</title>
<a xlink:href="_main_demo_8c.html#a6288eba0f8e8ad3ab1544ad731eb7667" target="_top" xlink:title="main">
<polygon style="fill:none;stroke:black;" points="806,86 865,86 865,54 806,54 806,86"/>
<text text-anchor="middle" x="835" y="77" style="font-family:Helvetica;font-size:20.00;">main</text>
</a>
</g>
<g id="edge12" class="edge"><title>Node6-&gt;Node7</title>
<path style="fill:none;stroke:midnightblue;" d="M779,70C789,70 798,70 806,70"/>
<polygon style="fill:midnightblue;stroke:midnightblue;" points="779,73 769,70 779,66 779,73"/>
</g>
</g>
</svg>
