<?xml version="1.0" encoding="UTF-8" standalone="no"?>
<!DOCTYPE svg PUBLIC "-//W3C//DTD SVG 1.0//EN"
 "http://www.w3.org/TR/2001/REC-SVG-20010904/DTD/svg10.dtd" [
 <!ATTLIST svg xmlns:xlink CDATA #FIXED "http://www.w3.org/1999/xlink">
]>
<!-- Generated by dot version 1.13 (v16) (Mon August 23, 2004)
     For user: (jarrodneven) Jarrod  Neven   Title: G    Pages: 1 -->
<svg width="384pt" height="244pt"
 viewBox = "-1 -1 383 243"
 xmlns="http://www.w3.org/2000/svg" xmlns:xlink="http://www.w3.org/1999/xlink">
<g id="graph0" class="graph" style="font-family:Times-Roman;font-size:14.00;">
<title>G</title>
<g id="node1" class="node"><title>Node1</title>
<polygon style="fill:#bfbfbf;stroke:black;" points="6,136 95,136 95,104 6,104 6,136"/>
<text text-anchor="middle" x="50" y="127" style="font-family:Helvetica;font-size:20.00;">HTTPPrintIP</text>
</g>
<g id="node3" class="node"><title>Node2</title>
<a xlink:href="_h_t_t_p_dyn_variables_8c.html#a2a3298f2e225312c34aeeece68a0888f" target="_top" xlink:title="HTTPPrint_config_dns1">
<polygon style="fill:none;stroke:black;" points="140,36 368,36 368,4 140,4 140,36"/>
<text text-anchor="middle" x="254" y="27" style="font-family:Helvetica;font-size:20.00;">HTTPPrint_config_dns1</text>
</a>
</g>
<g id="edge2" class="edge"><title>Node1-&gt;Node2</title>
<path style="fill:none;stroke:midnightblue;" d="M102,97C118,76 106,54 131,36 134,34 137,32 140,31"/>
<polygon style="fill:midnightblue;stroke:midnightblue;" points="105,99 95,104 100,94 105,99"/>
</g>
<g id="node5" class="node"><title>Node3</title>
<a xlink:href="_h_t_t_p_dyn_variables_8c.html#a4f7e1e50dfaa8e94f02804405263b670" target="_top" xlink:title="HTTPPrint_config_dns2">
<polygon style="fill:none;stroke:black;" points="140,86 368,86 368,54 140,54 140,86"/>
<text text-anchor="middle" x="254" y="77" style="font-family:Helvetica;font-size:20.00;">HTTPPrint_config_dns2</text>
</a>
</g>
<g id="edge4" class="edge"><title>Node1-&gt;Node3</title>
<path style="fill:none;stroke:midnightblue;" d="M104,100C114,95 118,91 131,86 134,85 137,84 140,84"/>
<polygon style="fill:midnightblue;stroke:midnightblue;" points="106,103 95,104 103,97 106,103"/>
</g>
<g id="node7" class="node"><title>Node4</title>
<a xlink:href="_h_t_t_p_dyn_variables_8c.html#a21709eafc10a559fbaae6727d7d985f9" target="_top" xlink:title="HTTPPrint_config_gw">
<polygon style="fill:none;stroke:black;" points="149,136 360,136 360,104 149,104 149,136"/>
<text text-anchor="middle" x="254" y="127" style="font-family:Helvetica;font-size:20.00;">HTTPPrint_config_gw</text>
</a>
</g>
<g id="edge6" class="edge"><title>Node1-&gt;Node4</title>
<path style="fill:none;stroke:midnightblue;" d="M105,120C119,120 134,120 149,120"/>
<polygon style="fill:midnightblue;stroke:midnightblue;" points="105,123 95,120 105,116 105,123"/>
</g>
<g id="node9" class="node"><title>Node5</title>
<a xlink:href="_h_t_t_p_dyn_variables_8c.html#a98b192490beb1027cd87eefa53d6d3f6" target="_top" xlink:title="HTTPPrint_config_ip">
<polygon style="fill:none;stroke:black;" points="154,186 355,186 355,154 154,154 154,186"/>
<text text-anchor="middle" x="254" y="177" style="font-family:Helvetica;font-size:20.00;">HTTPPrint_config_ip</text>
</a>
</g>
<g id="edge8" class="edge"><title>Node1-&gt;Node5</title>
<path style="fill:none;stroke:midnightblue;" d="M104,141C114,146 118,150 131,154 138,156 146,158 154,160"/>
<polygon style="fill:midnightblue;stroke:midnightblue;" points="102,144 95,136 105,138 102,144"/>
</g>
<g id="node11" class="node"><title>Node6</title>
<a xlink:href="_h_t_t_p_dyn_variables_8c.html#aa4f593882cd0045b9757ded844162f78" target="_top" xlink:title="HTTPPrint_config_subnet">
<polygon style="fill:none;stroke:black;" points="132,236 377,236 377,204 132,204 132,236"/>
<text text-anchor="middle" x="254" y="227" style="font-family:Helvetica;font-size:20.00;">HTTPPrint_config_subnet</text>
</a>
</g>
<g id="edge10" class="edge"><title>Node1-&gt;Node6</title>
<path style="fill:none;stroke:midnightblue;" d="M102,143C118,164 106,187 131,204 131,204 132,204 132,205"/>
<polygon style="fill:midnightblue;stroke:midnightblue;" points="100,146 95,136 105,141 100,146"/>
</g>
</g>
</svg>
