<?xml version="1.0" encoding="UTF-8" standalone="no"?>
<!DOCTYPE svg PUBLIC "-//W3C//DTD SVG 1.0//EN"
 "http://www.w3.org/TR/2001/REC-SVG-20010904/DTD/svg10.dtd" [
 <!ATTLIST svg xmlns:xlink CDATA #FIXED "http://www.w3.org/1999/xlink">
]>
<!-- Generated by dot version 1.13 (v16) (Mon August 23, 2004)
     For user: (jarrodneven) Jarrod  Neven   Title: G    Pages: 1 -->
<svg width="616pt" height="94pt"
 viewBox = "-1 -1 615 93"
 xmlns="http://www.w3.org/2000/svg" xmlns:xlink="http://www.w3.org/1999/xlink">
<g id="graph0" class="graph" style="font-family:Times-Roman;font-size:14.00;">
<title>G</title>
<g id="node1" class="node"><title>Node1</title>
<polygon style="fill:#bfbfbf;stroke:black;" points="6,61 133,61 133,29 6,29 6,61"/>
<text text-anchor="middle" x="69" y="52" style="font-family:Helvetica;font-size:20.00;">HTTPExecutePost</text>
</g>
<g id="node3" class="node"><title>Node2</title>
<a xlink:href="_h_t_t_p_forms_8c.html#a53d6ed1464f1ff112f0b356601ed8cdf" target="_top" xlink:title="HTTPPostConfig">
<polygon style="fill:none;stroke:black;" points="197,36 363,36 363,4 197,4 197,36"/>
<text text-anchor="middle" x="280" y="27" style="font-family:Helvetica;font-size:20.00;">HTTPPostConfig</text>
</a>
</g>
<g id="edge2" class="edge"><title>Node1-&gt;Node2</title>
<path style="fill:none;stroke:midnightblue;" d="M133,37C150,35 169,33 187,31"/>
<polygon style="fill:midnightblue;stroke:midnightblue;" points="187,28 197,30 187,34 187,28"/>
</g>
<g id="node5" class="node"><title>Node3</title>
<a xlink:href="_security_system_8h.html#a9684d57d301c8de28dba3a1dc22d4708" target="_top" xlink:title="This function reads an input parameter from the POSTed data, and writes that string to the configurat...">
<polygon style="fill:none;stroke:black;" points="169,86 391,86 391,54 169,54 169,86"/>
<text text-anchor="middle" x="280" y="77" style="font-family:Helvetica;font-size:20.00;">HTTPPostSMTPConfig</text>
</a>
</g>
<g id="edge4" class="edge"><title>Node1-&gt;Node3</title>
<path style="fill:none;stroke:midnightblue;" d="M133,53C141,54 150,55 159,56"/>
<polygon style="fill:midnightblue;stroke:midnightblue;" points="159,53 169,57 159,59 159,53"/>
</g>
<g id="node7" class="node"><title>Node4</title>
<a xlink:href="x_p_l_8c.html#a1099a7d6ccfe562deba149fd4acef424" target="_top" xlink:title="xPLSaveEEConfig">
<polygon style="fill:none;stroke:black;" points="428,86 609,86 609,54 428,54 428,86"/>
<text text-anchor="middle" x="518" y="77" style="font-family:Helvetica;font-size:20.00;">xPLSaveEEConfig</text>
</a>
</g>
<g id="edge6" class="edge"><title>Node3-&gt;Node4</title>
<path style="fill:none;stroke:midnightblue;" d="M391,70C400,70 409,70 418,70"/>
<polygon style="fill:midnightblue;stroke:midnightblue;" points="418,66 428,70 418,73 418,66"/>
</g>
</g>
</svg>
