<?xml version="1.0" encoding="UTF-8" standalone="no"?>
<!DOCTYPE svg PUBLIC "-//W3C//DTD SVG 1.0//EN"
 "http://www.w3.org/TR/2001/REC-SVG-20010904/DTD/svg10.dtd" [
 <!ATTLIST svg xmlns:xlink CDATA #FIXED "http://www.w3.org/1999/xlink">
]>
<!-- Generated by dot version 1.13 (v16) (Mon August 23, 2004)
     For user: (jarrodneven) Jarrod  Neven   Title: G    Pages: 1 -->
<svg width="1150pt" height="555pt"
 viewBox = "-1 -1 1149 554"
 xmlns="http://www.w3.org/2000/svg" xmlns:xlink="http://www.w3.org/1999/xlink">
<g id="graph0" class="graph" style="font-family:Times-Roman;font-size:14.00;">
<title>G</title>
<g id="node1" class="node"><title>Node1</title>
<polygon style="fill:#bfbfbf;stroke:black;" points="6,296 127,296 127,264 6,264 6,296"/>
<text text-anchor="middle" x="66" y="287" style="font-family:Helvetica;font-size:20.00;">HTTPExecuteGet</text>
</g>
<g id="node3" class="node"><title>Node2</title>
<a xlink:href="_security_system_8h.html#a30c3c9cdda2491c17d5d6d5cc6426b31" target="_top" xlink:title="addxPLMessage">
<polygon style="fill:none;stroke:black;" points="742,227 907,227 907,195 742,195 742,227"/>
<text text-anchor="middle" x="824" y="218" style="font-family:Helvetica;font-size:20.00;">addxPLMessage</text>
</a>
</g>
<g id="edge2" class="edge"><title>Node1-&gt;Node2</title>
<path style="fill:none;stroke:midnightblue;" d="M127,264C142,261 156,257 163,256 365,221 603,213 732,211"/>
<polygon style="fill:midnightblue;stroke:midnightblue;" points="732,207 742,211 732,214 732,207"/>
</g>
<g id="node5" class="node"><title>Node3</title>
<a xlink:href="_security_system_8c.html#a491f8822a8274ca5244c41d226e7136e" target="_top" xlink:title="ClearArmingFlags">
<polygon style="fill:none;stroke:black;" points="967,139 1143,139 1143,107 967,107 967,139"/>
<text text-anchor="middle" x="1055" y="130" style="font-family:Helvetica;font-size:20.00;">ClearArmingFlags</text>
</a>
</g>
<g id="edge24" class="edge"><title>Node1-&gt;Node3</title>
<path style="fill:none;stroke:midnightblue;" d="M118,264C121,262 124,260 127,256 187,188 94,113 163,54 202,22 781,4 931,70 949,78 948,91 959,101"/>
<polygon style="fill:midnightblue;stroke:midnightblue;" points="961,98 967,107 957,104 961,98"/>
</g>
<g id="node7" class="node"><title>Node4</title>
<a xlink:href="_security_system_8c.html#af7b9ebfe6bb90725304e83cadb4cced8" target="_top" xlink:title="ArmAway">
<polygon style="fill:none;stroke:black;" points="225,95 326,95 326,63 225,63 225,95"/>
<text text-anchor="middle" x="275" y="86" style="font-family:Helvetica;font-size:20.00;">ArmAway</text>
</a>
</g>
<g id="edge6" class="edge"><title>Node1-&gt;Node4</title>
<path style="fill:none;stroke:midnightblue;" d="M127,264C181,209 107,148 163,95 177,82 196,77 215,75"/>
<polygon style="fill:midnightblue;stroke:midnightblue;" points="215,72 225,74 215,78 215,72"/>
</g>
<g id="node16" class="node"><title>Node8</title>
<a xlink:href="_security_system_8c.html#afba09fe6505822eb03078088f14ef89b" target="_top" xlink:title="ArmHome">
<polygon style="fill:none;stroke:black;" points="222,145 328,145 328,113 222,113 222,145"/>
<text text-anchor="middle" x="275" y="136" style="font-family:Helvetica;font-size:20.00;">ArmHome</text>
</a>
</g>
<g id="edge16" class="edge"><title>Node1-&gt;Node8</title>
<path style="fill:none;stroke:midnightblue;" d="M127,264C167,226 122,181 163,145 176,134 195,129 212,126"/>
<polygon style="fill:midnightblue;stroke:midnightblue;" points="212,123 222,125 212,129 212,123"/>
</g>
<g id="node19" class="node"><title>Node9</title>
<a xlink:href="_security_system_8c.html#aad7b06369f4a1f3b427e137a9f84a5c0" target="_top" xlink:title="ArmLatchkey">
<polygon style="fill:none;stroke:black;" points="209,195 342,195 342,163 209,163 209,195"/>
<text text-anchor="middle" x="275" y="186" style="font-family:Helvetica;font-size:20.00;">ArmLatchkey</text>
</a>
</g>
<g id="edge20" class="edge"><title>Node1-&gt;Node9</title>
<path style="fill:none;stroke:midnightblue;" d="M127,264C155,243 135,215 163,195 173,188 186,183 199,180"/>
<polygon style="fill:midnightblue;stroke:midnightblue;" points="199,177 209,178 200,183 199,177"/>
</g>
<g id="node23" class="node"><title>Node10</title>
<a xlink:href="_h_t_t_p_forms_8c.html#a6e8f2eab6326e5e8d0884ac0f3329628" target="_top" xlink:title="Decodes and int value from a HTTP buffer (GET)">
<polygon style="fill:none;stroke:black;" points="455,321 650,321 650,289 455,289 455,321"/>
<text text-anchor="middle" x="552" y="312" style="font-family:Helvetica;font-size:20.00;">DecodeIntFromGET</text>
</a>
</g>
<g id="edge26" class="edge"><title>Node1-&gt;Node10</title>
<path style="fill:none;stroke:midnightblue;" d="M127,283C207,287 347,294 445,299"/>
<polygon style="fill:midnightblue;stroke:midnightblue;" points="445,296 455,300 445,302 445,296"/>
</g>
<g id="node25" class="node"><title>Node11</title>
<a xlink:href="_security_system_8c.html#a3ca20943ab34a0d560cd22d88c0ba324" target="_top" xlink:title="Disarm">
<polygon style="fill:none;stroke:black;" points="513,271 592,271 592,239 513,239 513,271"/>
<text text-anchor="middle" x="552" y="262" style="font-family:Helvetica;font-size:20.00;">Disarm</text>
</a>
</g>
<g id="edge28" class="edge"><title>Node1-&gt;Node11</title>
<path style="fill:none;stroke:midnightblue;" d="M127,277C225,272 413,262 503,257"/>
<polygon style="fill:midnightblue;stroke:midnightblue;" points="503,253 513,257 503,260 503,253"/>
</g>
<g id="node28" class="node"><title>Node12</title>
<a xlink:href="_authenticate_8c.html#a73d4e378556fa6a028b9460759871f2c" target="_top" xlink:title="ModifyUser">
<polygon style="fill:none;stroke:black;" points="217,359 334,359 334,327 217,327 217,359"/>
<text text-anchor="middle" x="275" y="350" style="font-family:Helvetica;font-size:20.00;">ModifyUser</text>
</a>
</g>
<g id="edge32" class="edge"><title>Node1-&gt;Node12</title>
<path style="fill:none;stroke:midnightblue;" d="M127,296C146,306 144,319 163,327 177,333 192,337 207,340"/>
<polygon style="fill:midnightblue;stroke:midnightblue;" points="207,337 217,341 207,343 207,337"/>
</g>
<g id="node35" class="node"><title>Node15</title>
<a xlink:href="_security_system_8c.html#a1e04428a714d6c8c97cb8685f96933ee" target="_top" xlink:title="Panic">
<polygon style="fill:none;stroke:black;" points="519,471 585,471 585,439 519,439 519,471"/>
<text text-anchor="middle" x="552" y="462" style="font-family:Helvetica;font-size:20.00;">Panic</text>
</a>
</g>
<g id="edge40" class="edge"><title>Node1-&gt;Node15</title>
<path style="fill:none;stroke:midnightblue;" d="M108,296C115,297 122,299 131,305 149,316 153,322 159,341 164,353 155,360 163,368 234,441 297,362 387,406 407,416 404,430 423,439 450,451 483,456 509,457"/>
<polygon style="fill:midnightblue;stroke:midnightblue;" points="509,453 519,457 509,460 509,453"/>
</g>
<g id="node38" class="node"><title>Node16</title>
<a xlink:href="_h_t_t_p_forms_8c.html#aa3c409ffd21320f7da0499631f024dd9" target="_top" xlink:title="SaveDeviceDescription">
<polygon style="fill:none;stroke:black;" points="164,447 387,447 387,415 164,415 164,447"/>
<text text-anchor="middle" x="275" y="438" style="font-family:Helvetica;font-size:20.00;">SaveDeviceDescription</text>
</a>
</g>
<g id="edge44" class="edge"><title>Node1-&gt;Node16</title>
<path style="fill:none;stroke:midnightblue;" d="M127,296C164,332 128,374 157,409"/>
<polygon style="fill:midnightblue;stroke:midnightblue;" points="159,406 164,416 154,411 159,406"/>
</g>
<g id="node40" class="node"><title>Node17</title>
<a xlink:href="_security_system_8h.html#ae777555850cf9c897f46c8407ce1729f" target="_top" xlink:title="Places a new email in the SMTP queue to be processed (sent)">
<polygon style="fill:none;stroke:black;" points="184,497 366,497 366,465 184,465 184,497"/>
<text text-anchor="middle" x="275" y="488" style="font-family:Helvetica;font-size:20.00;">SMTPQueueEmail</text>
</a>
</g>
<g id="edge46" class="edge"><title>Node1-&gt;Node17</title>
<path style="fill:none;stroke:midnightblue;" d="M127,296C181,352 107,413 163,465 167,469 170,471 175,474"/>
<polygon style="fill:midnightblue;stroke:midnightblue;" points="176,471 184,478 173,477 176,471"/>
</g>
<g id="node42" class="node"><title>Node18</title>
<a xlink:href="x_p_l_8c.html#a1099a7d6ccfe562deba149fd4acef424" target="_top" xlink:title="xPLSaveEEConfig">
<polygon style="fill:none;stroke:black;" points="185,547 366,547 366,515 185,515 185,547"/>
<text text-anchor="middle" x="275" y="538" style="font-family:Helvetica;font-size:20.00;">xPLSaveEEConfig</text>
</a>
</g>
<g id="edge48" class="edge"><title>Node1-&gt;Node18</title>
<path style="fill:none;stroke:midnightblue;" d="M127,296C194,369 93,446 163,515 167,519 171,522 176,525"/>
<polygon style="fill:midnightblue;stroke:midnightblue;" points="177,522 185,529 174,528 177,522"/>
</g>
<g id="edge4" class="edge"><title>Node2-&gt;Node3</title>
<path style="fill:none;stroke:midnightblue;" d="M907,206C916,204 924,200 931,195 953,181 946,162 959,146"/>
<polygon style="fill:midnightblue;stroke:midnightblue;" points="957,143 967,139 962,148 957,143"/>
</g>
<g id="node9" class="node"><title>Node5</title>
<a xlink:href="_security_system_8c.html#ad2cdbcce787b8a3c88addf52f996805f" target="_top" xlink:title="StateChangeToArm">
<polygon style="fill:none;stroke:black;" points="457,153 648,153 648,121 457,121 457,153"/>
<text text-anchor="middle" x="552" y="144" style="font-family:Helvetica;font-size:20.00;">StateChangeToArm</text>
</a>
</g>
<g id="edge8" class="edge"><title>Node4-&gt;Node5</title>
<path style="fill:none;stroke:midnightblue;" d="M326,81C346,84 368,88 387,95 406,103 405,114 423,121 431,124 439,127 447,129"/>
<polygon style="fill:midnightblue;stroke:midnightblue;" points="448,126 457,131 447,132 448,126"/>
</g>
<g id="edge10" class="edge"><title>Node5-&gt;Node2</title>
<path style="fill:none;stroke:midnightblue;" d="M648,141C660,144 671,148 681,153 703,165 696,184 717,195 722,197 727,200 732,202"/>
<polygon style="fill:midnightblue;stroke:midnightblue;" points="733,199 742,205 731,205 733,199"/>
</g>
<g id="node12" class="node"><title>Node6</title>
<a xlink:href="_security_system_8c.html#a2d0a6f4e811adf18c96693529c2d81b4" target="_top" xlink:title="ArmingZoneState">
<polygon style="fill:none;stroke:black;" points="738,111 910,111 910,79 738,79 738,111"/>
<text text-anchor="middle" x="824" y="102" style="font-family:Helvetica;font-size:20.00;">ArmingZoneState</text>
</a>
</g>
<g id="edge12" class="edge"><title>Node5-&gt;Node6</title>
<path style="fill:none;stroke:midnightblue;" d="M648,127C659,125 670,123 681,121 698,118 701,115 717,111 721,110 724,110 728,109"/>
<polygon style="fill:midnightblue;stroke:midnightblue;" points="728,106 738,107 729,112 728,106"/>
</g>
<g id="node14" class="node"><title>Node7</title>
<a xlink:href="_security_system_8c.html#a290b0da69aaf212aa38c219c45a6d8a9" target="_top" xlink:title="isZoneMemberOfArea">
<polygon style="fill:none;stroke:black;" points="718,161 931,161 931,129 718,129 718,161"/>
<text text-anchor="middle" x="824" y="152" style="font-family:Helvetica;font-size:20.00;">isZoneMemberOfArea</text>
</a>
</g>
<g id="edge14" class="edge"><title>Node5-&gt;Node7</title>
<path style="fill:none;stroke:midnightblue;" d="M648,140C668,141 688,141 708,142"/>
<polygon style="fill:midnightblue;stroke:midnightblue;" points="708,138 718,142 708,145 708,138"/>
</g>
<g id="edge18" class="edge"><title>Node8-&gt;Node5</title>
<path style="fill:none;stroke:midnightblue;" d="M328,131C362,132 406,133 447,134"/>
<polygon style="fill:midnightblue;stroke:midnightblue;" points="447,130 457,134 447,137 447,130"/>
</g>
<g id="edge22" class="edge"><title>Node9-&gt;Node5</title>
<path style="fill:none;stroke:midnightblue;" d="M342,171C357,169 373,166 387,163 404,160 407,157 423,153 431,152 439,150 447,149"/>
<polygon style="fill:midnightblue;stroke:midnightblue;" points="447,146 457,147 448,152 447,146"/>
</g>
<g id="edge30" class="edge"><title>Node11-&gt;Node2</title>
<path style="fill:none;stroke:midnightblue;" d="M592,252C618,250 652,246 681,239 698,236 701,231 717,227 722,226 727,225 732,224"/>
<polygon style="fill:midnightblue;stroke:midnightblue;" points="732,221 742,222 733,227 732,221"/>
</g>
<g id="edge34" class="edge"><title>Node12-&gt;Node10</title>
<path style="fill:none;stroke:midnightblue;" d="M334,335C351,333 370,330 387,327 404,325 407,324 423,321 430,320 437,319 445,318"/>
<polygon style="fill:midnightblue;stroke:midnightblue;" points="445,315 455,317 445,321 445,315"/>
</g>
<g id="node31" class="node"><title>Node13</title>
<a xlink:href="_authenticate_8c.html#a0be112c6d3c0c4852d7b5d78c30006a2" target="_top" xlink:title="SaveUserNameEEdata">
<polygon style="fill:none;stroke:black;" points="441,371 664,371 664,339 441,339 441,371"/>
<text text-anchor="middle" x="552" y="362" style="font-family:Helvetica;font-size:20.00;">SaveUserNameEEdata</text>
</a>
</g>
<g id="edge36" class="edge"><title>Node12-&gt;Node13</title>
<path style="fill:none;stroke:midnightblue;" d="M334,346C362,347 397,349 431,350"/>
<polygon style="fill:midnightblue;stroke:midnightblue;" points="431,346 441,350 431,353 431,346"/>
</g>
<g id="node33" class="node"><title>Node14</title>
<a xlink:href="_authenticate_8c.html#a3a54eb2d8295163334f74dbacc0784e1" target="_top" xlink:title="SaveUserPasswordEEdata">
<polygon style="fill:none;stroke:black;" points="424,421 681,421 681,389 424,389 424,421"/>
<text text-anchor="middle" x="552" y="412" style="font-family:Helvetica;font-size:20.00;">SaveUserPasswordEEdata</text>
</a>
</g>
<g id="edge38" class="edge"><title>Node12-&gt;Node14</title>
<path style="fill:none;stroke:midnightblue;" d="M334,345C352,348 371,352 387,359 403,366 404,376 415,384"/>
<polygon style="fill:midnightblue;stroke:midnightblue;" points="417,381 424,389 414,387 417,381"/>
</g>
<g id="edge42" class="edge"><title>Node15-&gt;Node2</title>
<path style="fill:none;stroke:midnightblue;" d="M585,461C614,464 656,463 681,439 751,373 649,294 717,227 721,223 727,219 732,217"/>
<polygon style="fill:midnightblue;stroke:midnightblue;" points="731,213 742,213 734,220 731,213"/>
</g>
</g>
</svg>
