<?xml version="1.0" encoding="UTF-8" standalone="no"?>
<!DOCTYPE svg PUBLIC "-//W3C//DTD SVG 1.0//EN"
 "http://www.w3.org/TR/2001/REC-SVG-20010904/DTD/svg10.dtd" [
 <!ATTLIST svg xmlns:xlink CDATA #FIXED "http://www.w3.org/1999/xlink">
]>
<!-- Generated by dot version 1.13 (v16) (Mon August 23, 2004)
     For user: (jarrodneven) Jarrod  Neven   Title: G    Pages: 1 -->
<svg width="512pt" height="82pt"
 viewBox = "-1 -1 511 81"
 xmlns="http://www.w3.org/2000/svg" xmlns:xlink="http://www.w3.org/1999/xlink">
<g id="graph0" class="graph" style="font-family:Times-Roman;font-size:14.00;">
<title>G</title>
<g id="node1" class="node"><title>Node1</title>
<polygon style="fill:#bfbfbf;stroke:black;" points="5,52 141,52 141,20 5,20 5,52"/>
<text text-anchor="middle" x="73" y="43" style="font-family:Helvetica;font-size:20.00;">DecodeIntFromGET</text>
</g>
<g id="node3" class="node"><title>Node2</title>
<a xlink:href="_h_t_t_p_forms_8c.html#a686ae35a16ecb63daffafcd015ddb070" target="_top" xlink:title="Processes all HTTP GETS.">
<polygon style="fill:none;stroke:black;" points="332,52 505,52 505,20 332,20 332,52"/>
<text text-anchor="middle" x="418" y="43" style="font-family:Helvetica;font-size:20.00;">HTTPExecuteGet</text>
</a>
</g>
<g id="edge2" class="edge"><title>Node1-&gt;Node2</title>
<path style="fill:none;stroke:midnightblue;" d="M151,34C160,34 168,33 177,33 230,33 243,33 295,33 307,33 319,33 332,34"/>
<polygon style="fill:midnightblue;stroke:midnightblue;" points="151,37 141,34 151,30 151,37"/>
</g>
<g id="node5" class="node"><title>Node3</title>
<a xlink:href="_security_system_8h.html#a73d4e378556fa6a028b9460759871f2c" target="_top" xlink:title="ModifyUser">
<polygon style="fill:none;stroke:black;" points="178,74 295,74 295,42 178,42 178,74"/>
<text text-anchor="middle" x="236" y="65" style="font-family:Helvetica;font-size:20.00;">ModifyUser</text>
</a>
</g>
<g id="edge4" class="edge"><title>Node1-&gt;Node3</title>
<path style="fill:none;stroke:midnightblue;" d="M151,46C160,48 169,49 178,50"/>
<polygon style="fill:midnightblue;stroke:midnightblue;" points="151,49 141,45 151,43 151,49"/>
</g>
<g id="edge6" class="edge"><title>Node3-&gt;Node2</title>
<path style="fill:none;stroke:midnightblue;" d="M305,50C314,48 323,47 332,46"/>
<polygon style="fill:midnightblue;stroke:midnightblue;" points="305,53 295,51 305,47 305,53"/>
</g>
</g>
</svg>
