<?xml version="1.0" encoding="UTF-8" standalone="no"?>
<!DOCTYPE svg PUBLIC "-//W3C//DTD SVG 1.0//EN"
 "http://www.w3.org/TR/2001/REC-SVG-20010904/DTD/svg10.dtd" [
 <!ATTLIST svg xmlns:xlink CDATA #FIXED "http://www.w3.org/1999/xlink">
]>
<!-- Generated by dot version 1.13 (v16) (Mon August 23, 2004)
     For user: (jarrodneven) Jarrod  Neven   Title: G    Pages: 1 -->
<svg width="366pt" height="112pt"
 viewBox = "-1 -1 365 111"
 xmlns="http://www.w3.org/2000/svg" xmlns:xlink="http://www.w3.org/1999/xlink">
<g id="graph0" class="graph" style="font-family:Times-Roman;font-size:14.00;">
<title>G</title>
<g id="node1" class="node"><title>Node1</title>
<polygon style="fill:#bfbfbf;stroke:black;" points="126,36 279,36 279,4 126,4 126,36"/>
<text text-anchor="middle" x="202" y="27" style="font-family:Helvetica;font-size:20.00;">PIC Code/MainDemo.c</text>
</g>
<g id="node3" class="node"><title>Node2</title>
<polygon style="fill:none;stroke:#bfbfbf;" points="5,104 214,104 214,72 5,72 5,104"/>
<text text-anchor="middle" x="109" y="95" style="font-family:Helvetica;font-size:20.00;">TCPIP Stack/TCPIP.h</text>
</g>
<g id="edge2" class="edge"><title>Node1-&gt;Node2</title>
<path style="fill:none;stroke:midnightblue;" d="M180,36C168,45 152,56 139,66"/>
<polygon style="fill:midnightblue;stroke:midnightblue;" points="141,69 131,72 137,63 141,69"/>
</g>
<g id="node5" class="node"><title>Node3</title>
<a xlink:href="_main_demo_8h.html" target="_top" xlink:title="MainDemo.h">
<polygon style="fill:none;stroke:black;" points="231,104 360,104 360,72 231,72 231,104"/>
<text text-anchor="middle" x="295" y="95" style="font-family:Helvetica;font-size:20.00;">MainDemo.h</text>
</a>
</g>
<g id="edge4" class="edge"><title>Node1-&gt;Node3</title>
<path style="fill:none;stroke:midnightblue;" d="M224,36C236,45 252,56 265,66"/>
<polygon style="fill:midnightblue;stroke:midnightblue;" points="267,63 273,72 263,69 267,63"/>
</g>
</g>
</svg>
