<?xml version="1.0" encoding="UTF-8" standalone="no"?>
<!DOCTYPE svg PUBLIC "-//W3C//DTD SVG 1.0//EN"
 "http://www.w3.org/TR/2001/REC-SVG-20010904/DTD/svg10.dtd" [
 <!ATTLIST svg xmlns:xlink CDATA #FIXED "http://www.w3.org/1999/xlink">
]>
<!-- Generated by dot version 1.13 (v16) (Mon August 23, 2004)
     For user: (jarrodneven) Jarrod  Neven   Title: G    Pages: 1 -->
<svg width="1494pt" height="1491pt"
 viewBox = "-1 -1 1493 1490"
 xmlns="http://www.w3.org/2000/svg" xmlns:xlink="http://www.w3.org/1999/xlink">
<g id="graph0" class="graph" style="font-family:Times-Roman;font-size:14.00;">
<title>G</title>
<g id="node1" class="node"><title>Node1</title>
<polygon style="fill:#bfbfbf;stroke:black;" points="6,444 51,444 51,412 6,412 6,444"/>
<text text-anchor="middle" x="28" y="435" style="font-family:Helvetica;font-size:20.00;">main</text>
</g>
<g id="node3" class="node"><title>Node2</title>
<a xlink:href="_main_demo_8c.html#a81c93ed3b819564cf8d53c6df5f4cee5" target="_top" xlink:title="InitAppConfig">
<polygon style="fill:none;stroke:black;" points="90,369 226,369 226,337 90,337 90,369"/>
<text text-anchor="middle" x="158" y="360" style="font-family:Helvetica;font-size:20.00;">InitAppConfig</text>
</a>
</g>
<g id="edge2" class="edge"><title>Node1-&gt;Node2</title>
<path style="fill:none;stroke:midnightblue;" d="M51,412C67,398 67,386 81,374"/>
<polygon style="fill:midnightblue;stroke:midnightblue;" points="80,371 90,368 84,376 80,371"/>
</g>
<g id="node5" class="node"><title>Node3</title>
<a xlink:href="_main_demo_8c.html#a9d407cc5d1f74ec0206881c1562d8af5" target="_top" xlink:title="InitializeBoard">
<polygon style="fill:none;stroke:black;" points="87,419 229,419 229,387 87,387 87,419"/>
<text text-anchor="middle" x="158" y="410" style="font-family:Helvetica;font-size:20.00;">InitializeBoard</text>
</a>
</g>
<g id="edge4" class="edge"><title>Node1-&gt;Node3</title>
<path style="fill:none;stroke:midnightblue;" d="M51,424C58,423 67,420 77,419"/>
<polygon style="fill:midnightblue;stroke:midnightblue;" points="77,416 87,417 78,422 77,416"/>
</g>
<g id="node7" class="node"><title>Node4</title>
<a xlink:href="x_p_l_8c.html#a091a12042a9d63dc524ce896fbc04b46" target="_top" xlink:title="xPLInit">
<polygon style="fill:none;stroke:black;" points="120,469 197,469 197,437 120,437 120,469"/>
<text text-anchor="middle" x="158" y="460" style="font-family:Helvetica;font-size:20.00;">xPLInit</text>
</a>
</g>
<g id="edge6" class="edge"><title>Node1-&gt;Node4</title>
<path style="fill:none;stroke:midnightblue;" d="M51,432C67,435 90,440 110,444"/>
<polygon style="fill:midnightblue;stroke:midnightblue;" points="111,441 120,446 110,447 111,441"/>
</g>
<g id="node21" class="node"><title>Node11</title>
<a xlink:href="x_p_l_8c.html#a86d914c966f337c4e3a6fda46a945d11" target="_top" xlink:title="XPLTasks">
<polygon style="fill:none;stroke:black;" points="107,919 210,919 210,887 107,887 107,919"/>
<text text-anchor="middle" x="158" y="910" style="font-family:Helvetica;font-size:20.00;">XPLTasks</text>
</a>
</g>
<g id="edge20" class="edge"><title>Node1-&gt;Node11</title>
<path style="fill:none;stroke:midnightblue;" d="M51,444C101,531 23,813 87,887 90,891 94,893 98,896"/>
<polygon style="fill:midnightblue;stroke:midnightblue;" points="99,893 107,900 96,899 99,893"/>
</g>
<g id="node9" class="node"><title>Node5</title>
<a xlink:href="_security_system_8c.html#aea89a2e5b007623f49cb6117afc947ec" target="_top" xlink:title="SchemaInit">
<polygon style="fill:none;stroke:black;" points="874,86 990,86 990,54 874,54 874,86"/>
<text text-anchor="middle" x="932" y="77" style="font-family:Helvetica;font-size:20.00;">SchemaInit</text>
</a>
</g>
<g id="edge8" class="edge"><title>Node4-&gt;Node5</title>
<path style="fill:none;stroke:midnightblue;" d="M197,453C209,450 221,446 229,437 291,373 217,315 265,240 336,130 382,111 507,71 572,51 761,59 864,65"/>
<polygon style="fill:midnightblue;stroke:midnightblue;" points="864,62 874,66 864,68 864,62"/>
</g>
<g id="node11" class="node"><title>Node6</title>
<a xlink:href="_security_system_8c.html#aa38cdab46c967118f0f383312f150cce" target="_top" xlink:title="LoadDefaultConfig">
<polygon style="fill:none;stroke:black;" points="1094,36 1276,36 1276,4 1094,4 1094,36"/>
<text text-anchor="middle" x="1185" y="27" style="font-family:Helvetica;font-size:20.00;">LoadDefaultConfig</text>
</a>
</g>
<g id="edge10" class="edge"><title>Node5-&gt;Node6</title>
<path style="fill:none;stroke:midnightblue;" d="M990,66C1009,64 1030,60 1049,54 1064,50 1067,44 1084,37"/>
<polygon style="fill:midnightblue;stroke:midnightblue;" points="1083,33 1094,33 1086,40 1083,33"/>
</g>
<g id="node13" class="node"><title>Node7</title>
<a xlink:href="_security_x_p_l_sender_8c.html#ad811bd225b593df01e168e1bb0967713" target="_top" xlink:title="SendGatewayReady">
<polygon style="fill:none;stroke:black;" points="1086,86 1285,86 1285,54 1086,54 1086,86"/>
<text text-anchor="middle" x="1185" y="77" style="font-family:Helvetica;font-size:20.00;">SendGatewayReady</text>
</a>
</g>
<g id="edge12" class="edge"><title>Node5-&gt;Node7</title>
<path style="fill:none;stroke:midnightblue;" d="M990,70C1015,70 1046,70 1076,70"/>
<polygon style="fill:midnightblue;stroke:midnightblue;" points="1076,66 1086,70 1076,73 1076,66"/>
</g>
<g id="node17" class="node"><title>Node9</title>
<a xlink:href="_security_system_8h.html#ae777555850cf9c897f46c8407ce1729f" target="_top" xlink:title="Places a new email in the SMTP queue to be processed (sent)">
<polygon style="fill:none;stroke:black;" points="1094,262 1276,262 1276,230 1094,230 1094,262"/>
<text text-anchor="middle" x="1185" y="253" style="font-family:Helvetica;font-size:20.00;">SMTPQueueEmail</text>
</a>
</g>
<g id="edge16" class="edge"><title>Node5-&gt;Node9</title>
<path style="fill:none;stroke:midnightblue;" d="M990,65C1011,66 1033,72 1049,86 1099,131 1037,186 1085,230 1085,230 1086,231 1086,231"/>
<polygon style="fill:midnightblue;stroke:midnightblue;" points="1088,228 1094,237 1084,234 1088,228"/>
</g>
<g id="node19" class="node"><title>Node10</title>
<a xlink:href="x_p_l_8c.html#a31c1c8faace74e23f37a03b7292f7981" target="_top" xlink:title="xPLLoadEEConfig">
<polygon style="fill:none;stroke:black;" points="1096,136 1275,136 1275,104 1096,104 1096,136"/>
<text text-anchor="middle" x="1185" y="127" style="font-family:Helvetica;font-size:20.00;">xPLLoadEEConfig</text>
</a>
</g>
<g id="edge18" class="edge"><title>Node5-&gt;Node10</title>
<path style="fill:none;stroke:midnightblue;" d="M990,74C1009,77 1030,80 1049,86 1067,92 1068,99 1085,104 1085,104 1086,104 1086,104"/>
<polygon style="fill:midnightblue;stroke:midnightblue;" points="1087,101 1096,107 1085,107 1087,101"/>
</g>
<g id="node15" class="node"><title>Node8</title>
<a xlink:href="x_p_l_8c.html#abde6ae0f37ef47bee8e881bba8502169" target="_top" xlink:title="XPLSendHeader">
<polygon style="fill:none;stroke:black;" points="1321,982 1487,982 1487,950 1321,950 1321,982"/>
<text text-anchor="middle" x="1404" y="973" style="font-family:Helvetica;font-size:20.00;">XPLSendHeader</text>
</a>
</g>
<g id="edge14" class="edge"><title>Node7-&gt;Node8</title>
<path style="fill:none;stroke:midnightblue;" d="M1285,86C1347,159 1264,832 1316,941"/>
<polygon style="fill:midnightblue;stroke:midnightblue;" points="1319,940 1321,950 1313,943 1319,940"/>
</g>
<g id="node23" class="node"><title>Node12</title>
<a xlink:href="_security_system_8c.html#a62b4d90791ab073f74677d42bfb64253" target="_top" xlink:title="SchemaTasks">
<polygon style="fill:none;stroke:black;" points="298,919 438,919 438,887 298,887 298,919"/>
<text text-anchor="middle" x="368" y="910" style="font-family:Helvetica;font-size:20.00;">SchemaTasks</text>
</a>
</g>
<g id="edge22" class="edge"><title>Node11-&gt;Node12</title>
<path style="fill:none;stroke:midnightblue;" d="M210,903C233,903 261,903 288,903"/>
<polygon style="fill:midnightblue;stroke:midnightblue;" points="288,899 298,903 288,906 288,899"/>
</g>
<g id="node115" class="node"><title>Node44</title>
<a xlink:href="_security_system_8h.html#aa3464edbc8a2b00d44aff04588ed10ef" target="_top" xlink:title="Managers the scheduled sending of emails.">
<polygon style="fill:none;stroke:black;" points="276,969 461,969 461,937 276,937 276,969"/>
<text text-anchor="middle" x="368" y="960" style="font-family:Helvetica;font-size:20.00;">SMTPTaskProcess</text>
</a>
</g>
<g id="edge142" class="edge"><title>Node11-&gt;Node44</title>
<path style="fill:none;stroke:midnightblue;" d="M210,914C217,915 223,917 229,919 246,926 248,932 265,937 265,937 266,937 266,937"/>
<polygon style="fill:midnightblue;stroke:midnightblue;" points="267,934 276,940 265,940 267,934"/>
</g>
<g id="node117" class="node"><title>Node45</title>
<a xlink:href="x_p_l_8c.html#a07f019fb7de86ef4bfe4cab422be0969" target="_top" xlink:title="XPLHeartBeatTiming">
<polygon style="fill:none;stroke:black;" points="267,1250 470,1250 470,1218 267,1218 267,1250"/>
<text text-anchor="middle" x="368" y="1241" style="font-family:Helvetica;font-size:20.00;">XPLHeartBeatTiming</text>
</a>
</g>
<g id="edge144" class="edge"><title>Node11-&gt;Node45</title>
<path style="fill:none;stroke:midnightblue;" d="M210,907C217,909 224,913 229,919 317,1015 179,1116 260,1212"/>
<polygon style="fill:midnightblue;stroke:midnightblue;" points="263,1210 267,1220 258,1215 263,1210"/>
</g>
<g id="node122" class="node"><title>Node47</title>
<a xlink:href="x_p_l_8c.html#a41c59f641ff95b999e66c0d45117b73d" target="_top" xlink:title="XPLProcessUDPMsg">
<polygon style="fill:none;stroke:black;" points="265,281 471,281 471,249 265,249 265,281"/>
<text text-anchor="middle" x="368" y="272" style="font-family:Helvetica;font-size:20.00;">XPLProcessUDPMsg</text>
</a>
</g>
<g id="edge150" class="edge"><title>Node11-&gt;Node47</title>
<path style="fill:none;stroke:midnightblue;" d="M210,900C217,897 224,893 229,887 315,787 182,401 259,289"/>
<polygon style="fill:midnightblue;stroke:midnightblue;" points="256,287 265,281 262,291 256,287"/>
</g>
<g id="edge136" class="edge"><title>Node12-&gt;Node9</title>
<path style="fill:none;stroke:midnightblue;" d="M438,899C442,898 446,896 449,895 487,881 496,861 503,821 505,815 503,315 507,309 548,264 720,285 779,271 796,268 799,262 815,259 905,243 1008,240 1084,242"/>
<polygon style="fill:midnightblue;stroke:midnightblue;" points="1084,238 1094,242 1084,245 1084,238"/>
</g>
<g id="node25" class="node"><title>Node13</title>
<a xlink:href="_battery_8c.html#ad7abffae7b40c1538c5411bfd808a68a" target="_top" xlink:title="Task process for managing the battery state.">
<polygon style="fill:none;stroke:black;" points="583,350 703,350 703,318 583,318 583,350"/>
<text text-anchor="middle" x="643" y="341" style="font-family:Helvetica;font-size:20.00;">BatteryTask</text>
</a>
</g>
<g id="edge24" class="edge"><title>Node12-&gt;Node13</title>
<path style="fill:none;stroke:midnightblue;" d="M438,905C451,902 462,897 471,887 552,799 425,437 507,350 524,332 549,326 573,325"/>
<polygon style="fill:midnightblue;stroke:midnightblue;" points="573,321 583,325 573,328 573,321"/>
</g>
<g id="node31" class="node"><title>Node16</title>
<a xlink:href="_security_system_8c.html#ab3be31caf1027bb142335a3a3d7d4eb1" target="_top" xlink:title="bypassZone">
<polygon style="fill:none;stroke:black;" points="581,463 706,463 706,431 581,431 581,463"/>
<text text-anchor="middle" x="643" y="454" style="font-family:Helvetica;font-size:20.00;">bypassZone</text>
</a>
</g>
<g id="edge30" class="edge"><title>Node12-&gt;Node16</title>
<path style="fill:none;stroke:midnightblue;" d="M438,905C451,902 462,896 471,887 536,818 442,531 507,463 524,446 548,441 571,439"/>
<polygon style="fill:midnightblue;stroke:midnightblue;" points="571,435 581,439 571,442 571,435"/>
</g>
<g id="node36" class="node"><title>Node18</title>
<a xlink:href="_security_system_8c.html#a14eb903eaa706a4874267274a2ffc6fa" target="_top" xlink:title="EnableZone">
<polygon style="fill:none;stroke:black;" points="581,563 705,563 705,531 581,531 581,563"/>
<text text-anchor="middle" x="643" y="554" style="font-family:Helvetica;font-size:20.00;">EnableZone</text>
</a>
</g>
<g id="edge36" class="edge"><title>Node12-&gt;Node18</title>
<path style="fill:none;stroke:midnightblue;" d="M438,905C451,902 462,896 471,887 572,783 405,666 507,563 524,546 548,541 571,539"/>
<polygon style="fill:midnightblue;stroke:midnightblue;" points="571,535 581,539 571,542 571,535"/>
</g>
<g id="node40" class="node"><title>Node19</title>
<a xlink:href="_security_system_8c.html#a3ccbc635f6f7bb31465920840c7db474" target="_top" xlink:title="IOTasks">
<polygon style="fill:none;stroke:black;" points="599,652 687,652 687,620 599,620 599,652"/>
<text text-anchor="middle" x="643" y="643" style="font-family:Helvetica;font-size:20.00;">IOTasks</text>
</a>
</g>
<g id="edge42" class="edge"><title>Node12-&gt;Node19</title>
<path style="fill:none;stroke:midnightblue;" d="M438,904C451,901 462,896 471,887 546,813 431,726 507,652 528,632 561,627 589,628"/>
<polygon style="fill:midnightblue;stroke:midnightblue;" points="589,625 599,629 589,631 589,625"/>
</g>
<g id="node50" class="node"><title>Node23</title>
<a xlink:href="_security_system_8h.html#ae9e6733b7fed738a76787f01762bb284" target="_top" xlink:title="SendAlarmingMsg">
<polygon style="fill:none;stroke:red;" points="1096,784 1275,784 1275,752 1096,752 1096,784"/>
<text text-anchor="middle" x="1185" y="775" style="font-family:Helvetica;font-size:20.00;">SendAlarmingMsg</text>
</a>
</g>
<g id="edge74" class="edge"><title>Node12-&gt;Node23</title>
<path style="fill:none;stroke:midnightblue;" d="M438,897C450,894 462,889 471,881 491,867 496,860 503,837 506,829 501,803 507,796 548,758 907,761 1086,765"/>
<polygon style="fill:midnightblue;stroke:midnightblue;" points="1086,761 1096,765 1086,768 1086,761"/>
</g>
<g id="node58" class="node"><title>Node26</title>
<a xlink:href="_security_system_8c.html#aa58e855f239c14c2cfc32dcfa244d31f" target="_top" xlink:title="IsolateZone">
<polygon style="fill:none;stroke:black;" points="583,837 704,837 704,805 583,805 583,837"/>
<text text-anchor="middle" x="643" y="828" style="font-family:Helvetica;font-size:20.00;">IsolateZone</text>
</a>
</g>
<g id="edge64" class="edge"><title>Node12-&gt;Node26</title>
<path style="fill:none;stroke:midnightblue;" d="M438,900C450,897 461,893 471,887 495,873 484,851 507,837 527,826 551,820 573,819"/>
<polygon style="fill:midnightblue;stroke:midnightblue;" points="573,816 583,818 573,822 573,816"/>
</g>
<g id="node62" class="node"><title>Node27</title>
<a xlink:href="_security_x_p_l_sender_8c.html#aa79f220fe412930dbbe86acd8e506f48" target="_top" xlink:title="SendACStat">
<polygon style="fill:none;stroke:black;" points="1122,872 1248,872 1248,840 1122,840 1122,872"/>
<text text-anchor="middle" x="1185" y="863" style="font-family:Helvetica;font-size:20.00;">SendACStat</text>
</a>
</g>
<g id="edge70" class="edge"><title>Node12-&gt;Node27</title>
<path style="fill:none;stroke:midnightblue;" d="M438,897C439,897 440,897 441,897 471,895 478,892 507,889 727,871 987,861 1112,858"/>
<polygon style="fill:midnightblue;stroke:midnightblue;" points="1112,854 1122,858 1112,861 1112,854"/>
</g>
<g id="node66" class="node"><title>Node28</title>
<a xlink:href="_security_system_8h.html#acdb6126b5578c4ca8c06d5343a7b37df" target="_top" xlink:title="SendAreaInfo">
<polygon style="fill:none;stroke:red;" points="863,916 1001,916 1001,884 863,884 863,916"/>
<text text-anchor="middle" x="932" y="907" style="font-family:Helvetica;font-size:20.00;">SendAreaInfo</text>
</a>
</g>
<g id="edge76" class="edge"><title>Node12-&gt;Node28</title>
<path style="fill:none;stroke:midnightblue;" d="M438,903C544,902 742,901 853,900"/>
<polygon style="fill:midnightblue;stroke:midnightblue;" points="853,896 863,900 853,903 853,896"/>
</g>
<g id="node69" class="node"><title>Node29</title>
<a xlink:href="_security_system_8h.html#a43dbd62169c9f83be3663dc435e232c7" target="_top" xlink:title="SendAreaList">
<polygon style="fill:none;stroke:black;" points="1117,960 1253,960 1253,928 1117,928 1117,960"/>
<text text-anchor="middle" x="1185" y="951" style="font-family:Helvetica;font-size:20.00;">SendAreaList</text>
</a>
</g>
<g id="edge80" class="edge"><title>Node12-&gt;Node29</title>
<path style="fill:none;stroke:midnightblue;" d="M438,907C590,914 947,932 1107,940"/>
<polygon style="fill:midnightblue;stroke:midnightblue;" points="1107,937 1117,941 1107,943 1107,937"/>
</g>
<g id="node72" class="node"><title>Node30</title>
<a xlink:href="_security_system_8h.html#a5d91f06e22d49f6ecee37802e866e0e6" target="_top" xlink:title="SendAreaStat">
<polygon style="fill:none;stroke:red;" points="862,1004 1003,1004 1003,972 862,972 862,1004"/>
<text text-anchor="middle" x="932" y="995" style="font-family:Helvetica;font-size:20.00;">SendAreaStat</text>
</a>
</g>
<g id="edge84" class="edge"><title>Node12-&gt;Node30</title>
<path style="fill:none;stroke:midnightblue;" d="M438,906C450,908 461,911 471,916 494,927 486,947 507,958 565,988 745,991 852,990"/>
<polygon style="fill:midnightblue;stroke:midnightblue;" points="852,986 862,990 852,993 852,986"/>
</g>
<g id="node75" class="node"><title>Node31</title>
<a xlink:href="_security_system_8h.html#ae77b19bae92f6c64f9a58f722b4bf193" target="_top" xlink:title="SendAreaStateMsg">
<polygon style="fill:none;stroke:red;" points="1091,1048 1280,1048 1280,1016 1091,1016 1091,1048"/>
<text text-anchor="middle" x="1185" y="1039" style="font-family:Helvetica;font-size:20.00;">SendAreaStateMsg</text>
</a>
</g>
<g id="edge88" class="edge"><title>Node12-&gt;Node31</title>
<path style="fill:none;stroke:midnightblue;" d="M438,908C450,911 461,915 471,921 493,934 496,943 503,966 505,971 503,988 507,992 548,1030 901,1034 1081,1033"/>
<polygon style="fill:midnightblue;stroke:midnightblue;" points="1081,1029 1091,1033 1081,1036 1081,1029"/>
</g>
<g id="node78" class="node"><title>Node32</title>
<a xlink:href="_security_system_8h.html#ae049c3724d5bacc955f50f724483ed91" target="_top" xlink:title="SendArmed">
<polygon style="fill:none;stroke:black;" points="871,1092 993,1092 993,1060 871,1060 871,1092"/>
<text text-anchor="middle" x="932" y="1083" style="font-family:Helvetica;font-size:20.00;">SendArmed</text>
</a>
</g>
<g id="edge92" class="edge"><title>Node12-&gt;Node32</title>
<path style="fill:none;stroke:midnightblue;" d="M438,908C453,912 468,919 479,929 496,945 498,952 503,973 505,980 502,1040 507,1046 555,1094 753,1088 861,1082"/>
<polygon style="fill:midnightblue;stroke:midnightblue;" points="861,1079 871,1081 861,1085 861,1079"/>
</g>
<g id="node81" class="node"><title>Node33</title>
<a xlink:href="_security_x_p_l_sender_8c.html#a80218fda4a4753b2d214453e14b400ff" target="_top" xlink:title="SendBatteryStat">
<polygon style="fill:none;stroke:black;" points="1104,1136 1266,1136 1266,1104 1104,1104 1104,1136"/>
<text text-anchor="middle" x="1185" y="1127" style="font-family:Helvetica;font-size:20.00;">SendBatteryStat</text>
</a>
</g>
<g id="edge96" class="edge"><title>Node12-&gt;Node33</title>
<path style="fill:none;stroke:midnightblue;" d="M438,912C448,914 458,917 471,925 481,931 481,936 487,944 498,959 500,964 503,982 505,987 503,1084 507,1089 548,1129 918,1126 1094,1122"/>
<polygon style="fill:midnightblue;stroke:midnightblue;" points="1094,1118 1104,1122 1094,1125 1094,1118"/>
</g>
<g id="node84" class="node"><title>Node34</title>
<a xlink:href="_security_system_8h.html#a07582d84515caf26cd22e534fd29f378" target="_top" xlink:title="SendConfigList">
<polygon style="fill:none;stroke:black;" points="856,1180 1008,1180 1008,1148 856,1148 856,1180"/>
<text text-anchor="middle" x="932" y="1171" style="font-family:Helvetica;font-size:20.00;">SendConfigList</text>
</a>
</g>
<g id="edge100" class="edge"><title>Node12-&gt;Node34</title>
<path style="fill:none;stroke:midnightblue;" d="M438,914C456,918 462,918 475,929 487,940 489,944 495,958 501,969 502,973 503,986 505,994 502,1128 507,1134 553,1181 735,1177 846,1171"/>
<polygon style="fill:midnightblue;stroke:midnightblue;" points="846,1168 856,1170 846,1174 846,1168"/>
</g>
<g id="node87" class="node"><title>Node35</title>
<a xlink:href="_security_system_8h.html#af1800c287b83d40961f39fcd9a751322" target="_top" xlink:title="SendDisarm">
<polygon style="fill:none;stroke:black;" points="1122,1224 1248,1224 1248,1192 1122,1192 1122,1224"/>
<text text-anchor="middle" x="1185" y="1215" style="font-family:Helvetica;font-size:20.00;">SendDisarm</text>
</a>
</g>
<g id="edge104" class="edge"><title>Node12-&gt;Node35</title>
<path style="fill:none;stroke:midnightblue;" d="M437,919C454,924 469,929 475,935 478,938 494,960 495,963 503,978 502,983 503,1000 504,1004 504,1174 507,1178 549,1220 945,1214 1112,1210"/>
<polygon style="fill:midnightblue;stroke:midnightblue;" points="1112,1206 1122,1210 1112,1213 1112,1206"/>
</g>
<g id="node90" class="node"><title>Node36</title>
<a xlink:href="_security_system_8h.html#ab29cace49ca20af0048aac94e64c10dd" target="_top" xlink:title="SendError">
<polygon style="fill:none;stroke:black;" points="879,1268 986,1268 986,1236 879,1236 879,1268"/>
<text text-anchor="middle" x="932" y="1259" style="font-family:Helvetica;font-size:20.00;">SendError</text>
</a>
</g>
<g id="edge108" class="edge"><title>Node12-&gt;Node36</title>
<path style="fill:none;stroke:midnightblue;" d="M438,911C452,915 465,921 475,930 489,942 489,949 495,965 501,979 502,982 503,998 504,1004 503,1217 507,1222 555,1272 762,1265 869,1258"/>
<polygon style="fill:midnightblue;stroke:midnightblue;" points="869,1255 879,1257 869,1261 869,1255"/>
</g>
<g id="node93" class="node"><title>Node37</title>
<a xlink:href="_security_system_8h.html#aeb4ee205f02bf767a5d3b93608abc736" target="_top" xlink:title="SendGateStat">
<polygon style="fill:none;stroke:red;" points="1114,1312 1256,1312 1256,1280 1114,1280 1114,1312"/>
<text text-anchor="middle" x="1185" y="1303" style="font-family:Helvetica;font-size:20.00;">SendGateStat</text>
</a>
</g>
<g id="edge112" class="edge"><title>Node12-&gt;Node37</title>
<path style="fill:none;stroke:midnightblue;" d="M438,914C452,919 465,926 475,935 492,950 494,958 499,979 504,996 502,1001 503,1019 504,1025 503,1261 507,1266 528,1287 928,1294 1104,1295"/>
<polygon style="fill:midnightblue;stroke:midnightblue;" points="1104,1291 1114,1295 1104,1298 1104,1291"/>
</g>
<g id="node96" class="node"><title>Node38</title>
<a xlink:href="_security_system_8h.html#a2c31ecf27fafa5085703f0719f6decac" target="_top" xlink:title="SendGatewayChanged">
<polygon style="fill:none;stroke:black;" points="821,1356 1044,1356 1044,1324 821,1324 821,1356"/>
<text text-anchor="middle" x="932" y="1347" style="font-family:Helvetica;font-size:20.00;">SendGatewayChanged</text>
</a>
</g>
<g id="edge116" class="edge"><title>Node12-&gt;Node38</title>
<path style="fill:none;stroke:midnightblue;" d="M438,910C452,914 465,920 475,930 493,947 494,955 499,978 503,994 502,998 503,1015 504,1023 502,1298 507,1304 527,1325 692,1334 811,1338"/>
<polygon style="fill:midnightblue;stroke:midnightblue;" points="811,1334 821,1338 811,1341 811,1334"/>
</g>
<g id="node99" class="node"><title>Node39</title>
<a xlink:href="_security_system_8h.html#a46495fd42c19f6703e4663cb7cf2d1ec" target="_top" xlink:title="SendGatewayInfo">
<polygon style="fill:none;stroke:black;" points="556,1388 731,1388 731,1356 556,1356 556,1388"/>
<text text-anchor="middle" x="643" y="1379" style="font-family:Helvetica;font-size:20.00;">SendGatewayInfo</text>
</a>
</g>
<g id="edge120" class="edge"><title>Node12-&gt;Node39</title>
<path style="fill:none;stroke:midnightblue;" d="M438,902C451,905 462,910 471,919 538,990 440,1285 507,1356 518,1367 531,1373 546,1376"/>
<polygon style="fill:midnightblue;stroke:midnightblue;" points="547,1373 556,1378 546,1379 547,1373"/>
</g>
<g id="node102" class="node"><title>Node40</title>
<a xlink:href="_security_system_8h.html#ae149da75e2b494aa56f4976837706565" target="_top" xlink:title="SendZoneInfo">
<polygon style="fill:none;stroke:red;" points="572,1438 714,1438 714,1406 572,1406 572,1438"/>
<text text-anchor="middle" x="643" y="1429" style="font-family:Helvetica;font-size:20.00;">SendZoneInfo</text>
</a>
</g>
<g id="edge124" class="edge"><title>Node12-&gt;Node40</title>
<path style="fill:none;stroke:midnightblue;" d="M438,901C451,904 462,910 471,919 545,998 432,1327 507,1406 522,1421 541,1427 562,1429"/>
<polygon style="fill:midnightblue;stroke:midnightblue;" points="562,1426 572,1430 562,1432 562,1426"/>
</g>
<g id="node105" class="node"><title>Node41</title>
<a xlink:href="_security_system_8h.html#a5583c2b95797b8210dfe1b1a5e516c2d" target="_top" xlink:title="SendZoneList">
<polygon style="fill:none;stroke:black;" points="574,212 713,212 713,180 574,180 574,212"/>
<text text-anchor="middle" x="643" y="203" style="font-family:Helvetica;font-size:20.00;">SendZoneList</text>
</a>
</g>
<g id="edge128" class="edge"><title>Node12-&gt;Node41</title>
<path style="fill:none;stroke:midnightblue;" d="M438,905C451,902 462,897 471,887 572,776 405,322 507,212 522,196 542,190 564,188"/>
<polygon style="fill:midnightblue;stroke:midnightblue;" points="564,185 574,187 564,191 564,185"/>
</g>
<g id="node108" class="node"><title>Node42</title>
<a xlink:href="_security_system_8h.html#a7fdbfa1929e90a45cc905c6276ab7cae" target="_top" xlink:title="SendZoneStat">
<polygon style="fill:none;stroke:black;" points="571,262 715,262 715,230 571,230 571,262"/>
<text text-anchor="middle" x="643" y="253" style="font-family:Helvetica;font-size:20.00;">SendZoneStat</text>
</a>
</g>
<g id="edge132" class="edge"><title>Node12-&gt;Node42</title>
<path style="fill:none;stroke:midnightblue;" d="M438,905C451,902 462,897 471,887 565,784 412,364 507,262 521,247 541,241 561,238"/>
<polygon style="fill:midnightblue;stroke:midnightblue;" points="561,235 571,237 561,241 561,235"/>
</g>
<g id="node112" class="node"><title>Node43</title>
<a xlink:href="_security_system_8c.html#ab4b79e3122c6964725cec23bf923547a" target="_top" xlink:title="StateChangeToArmFailed">
<polygon style="fill:none;stroke:black;" points="521,513 766,513 766,481 521,481 521,513"/>
<text text-anchor="middle" x="643" y="504" style="font-family:Helvetica;font-size:20.00;">StateChangeToArmFailed</text>
</a>
</g>
<g id="edge138" class="edge"><title>Node12-&gt;Node43</title>
<path style="fill:none;stroke:midnightblue;" d="M438,905C451,902 462,896 471,887 529,827 449,573 507,513 509,511 511,509 513,508"/>
<polygon style="fill:midnightblue;stroke:midnightblue;" points="511,505 521,502 515,511 511,505"/>
</g>
<g id="node27" class="node"><title>Node14</title>
<a xlink:href="_security_system_8h.html#a30c3c9cdda2491c17d5d6d5cc6426b31" target="_top" xlink:title="addxPLMessage">
<polygon style="fill:none;stroke:red;" points="850,350 1015,350 1015,318 850,318 850,350"/>
<text text-anchor="middle" x="932" y="341" style="font-family:Helvetica;font-size:20.00;">addxPLMessage</text>
</a>
</g>
<g id="edge26" class="edge"><title>Node13-&gt;Node14</title>
<path style="fill:none;stroke:midnightblue;" d="M703,334C743,334 795,334 840,334"/>
<polygon style="fill:midnightblue;stroke:midnightblue;" points="840,330 850,334 840,337 840,330"/>
</g>
<g id="node29" class="node"><title>Node15</title>
<a xlink:href="_battery_8c.html#a35ba3e06ddabc0ec9b6167696f49ec58" target="_top" xlink:title="FetchADC">
<polygon style="fill:none;stroke:black;" points="878,300 986,300 986,268 878,268 878,300"/>
<text text-anchor="middle" x="932" y="291" style="font-family:Helvetica;font-size:20.00;">FetchADC</text>
</a>
</g>
<g id="edge28" class="edge"><title>Node13-&gt;Node15</title>
<path style="fill:none;stroke:midnightblue;" d="M703,332C727,330 755,325 779,318 797,313 798,306 815,300 832,295 851,291 868,289"/>
<polygon style="fill:midnightblue;stroke:midnightblue;" points="868,286 878,288 868,292 868,286"/>
</g>
<g id="edge34" class="edge"><title>Node16-&gt;Node8</title>
<path style="fill:none;stroke:midnightblue;" d="M706,445C730,443 756,439 779,431 797,426 798,415 815,410 1020,355 1139,331 1285,483 1319,519 1307,542 1313,590 1314,591 1321,920 1321,920 1326,929 1331,927 1339,931 1354,940 1362,940 1374,945"/>
<polygon style="fill:midnightblue;stroke:midnightblue;" points="1376,942 1383,950 1373,948 1376,942"/>
</g>
<g id="node33" class="node"><title>Node17</title>
<a xlink:href="x_p_l_8c.html#a1099a7d6ccfe562deba149fd4acef424" target="_top" xlink:title="xPLSaveEEConfig">
<polygon style="fill:none;stroke:black;" points="842,476 1023,476 1023,444 842,444 842,476"/>
<text text-anchor="middle" x="932" y="467" style="font-family:Helvetica;font-size:20.00;">xPLSaveEEConfig</text>
</a>
</g>
<g id="edge32" class="edge"><title>Node16-&gt;Node17</title>
<path style="fill:none;stroke:midnightblue;" d="M706,450C743,452 790,454 832,456"/>
<polygon style="fill:midnightblue;stroke:midnightblue;" points="832,452 842,456 832,459 832,452"/>
</g>
<g id="edge40" class="edge"><title>Node18-&gt;Node8</title>
<path style="fill:none;stroke:midnightblue;" d="M705,550C707,550 710,550 713,550 759,549 770,541 815,538 1026,525 1129,467 1285,608 1310,630 1307,645 1313,676 1314,677 1321,938 1321,938 1329,947 1360,944 1378,947"/>
<polygon style="fill:midnightblue;stroke:midnightblue;" points="1379,944 1388,950 1377,950 1379,944"/>
</g>
<g id="edge38" class="edge"><title>Node18-&gt;Node17</title>
<path style="fill:none;stroke:midnightblue;" d="M705,551C730,550 757,545 779,531 804,516 791,492 815,476 820,473 826,470 832,467"/>
<polygon style="fill:midnightblue;stroke:midnightblue;" points="831,464 842,464 833,470 831,464"/>
</g>
<g id="edge44" class="edge"><title>Node19-&gt;Node14</title>
<path style="fill:none;stroke:midnightblue;" d="M687,644C717,646 756,643 779,620 866,536 730,436 815,350 822,343 831,338 840,335"/>
<polygon style="fill:midnightblue;stroke:midnightblue;" points="839,332 850,332 841,338 839,332"/>
</g>
<g id="node43" class="node"><title>Node20</title>
<a xlink:href="_e_o_l_8c.html#a44f4ef2b28f2d65b626e1ec4e5885934" target="_top" xlink:title="IsZoneTriggered">
<polygon style="fill:none;stroke:red;" points="851,752 1013,752 1013,720 851,720 851,752"/>
<text text-anchor="middle" x="932" y="743" style="font-family:Helvetica;font-size:20.00;">IsZoneTriggered</text>
</a>
</g>
<g id="edge46" class="edge"><title>Node19-&gt;Node20</title>
<path style="fill:none;stroke:midnightblue;" d="M687,631C716,631 752,634 779,652 808,672 787,701 815,720 823,726 832,730 841,732"/>
<polygon style="fill:midnightblue;stroke:midnightblue;" points="842,729 851,735 840,735 842,729"/>
</g>
<g id="node45" class="node"><title>Node21</title>
<a xlink:href="_security_system_8h.html#ab01e7f6872c9f26dd9f91bc24f43f4b6" target="_top" xlink:title="SendZoneStateMsg">
<polygon style="fill:none;stroke:black;" points="1089,649 1282,649 1282,617 1089,617 1089,649"/>
<text text-anchor="middle" x="1185" y="640" style="font-family:Helvetica;font-size:20.00;">SendZoneStateMsg</text>
</a>
</g>
<g id="edge48" class="edge"><title>Node19-&gt;Node21</title>
<path style="fill:none;stroke:midnightblue;" d="M687,634C697,634 707,632 717,631 727,630 729,629 738,627 747,626 750,626 758,623 786,616 800,613 811,586 816,576 807,569 815,561 855,528 1004,537 1049,561 1072,574 1064,595 1081,612"/>
<polygon style="fill:midnightblue;stroke:midnightblue;" points="1084,610 1089,619 1079,615 1084,610"/>
</g>
<g id="node48" class="node"><title>Node22</title>
<a xlink:href="_security_system_8c.html#accca294859199bc9e59cec74618c871c" target="_top" xlink:title="StateChangeToAlarming">
<polygon style="fill:none;stroke:red;" points="816,602 1049,602 1049,570 816,570 816,602"/>
<text text-anchor="middle" x="932" y="593" style="font-family:Helvetica;font-size:20.00;">StateChangeToAlarming</text>
</a>
</g>
<g id="edge52" class="edge"><title>Node19-&gt;Node22</title>
<path style="fill:none;stroke:midnightblue;" d="M687,635C714,633 749,629 779,620 793,616 797,611 807,606"/>
<polygon style="fill:midnightblue;stroke:midnightblue;" points="805,603 816,602 808,609 805,603"/>
</g>
<g id="node54" class="node"><title>Node24</title>
<a xlink:href="_security_system_8c.html#a75fd42e4a596598bc65a32ee0c863ac6" target="_top" xlink:title="TaskAlarmed">
<polygon style="fill:none;stroke:black;" points="866,652 998,652 998,620 866,620 866,652"/>
<text text-anchor="middle" x="932" y="643" style="font-family:Helvetica;font-size:20.00;">TaskAlarmed</text>
</a>
</g>
<g id="edge60" class="edge"><title>Node19-&gt;Node24</title>
<path style="fill:none;stroke:midnightblue;" d="M687,636C732,636 802,636 856,636"/>
<polygon style="fill:midnightblue;stroke:midnightblue;" points="856,632 866,636 856,639 856,632"/>
</g>
<g id="node56" class="node"><title>Node25</title>
<a xlink:href="_security_system_8c.html#aa4b206c6022f03ed09cc1e7c0c1c64ac" target="_top" xlink:title="TaskAlarming">
<polygon style="fill:none;stroke:red;" points="864,702 1000,702 1000,670 864,670 864,702"/>
<text text-anchor="middle" x="932" y="693" style="font-family:Helvetica;font-size:20.00;">TaskAlarming</text>
</a>
</g>
<g id="edge62" class="edge"><title>Node19-&gt;Node25</title>
<path style="fill:none;stroke:midnightblue;" d="M687,637C714,639 749,643 779,652 797,658 798,665 815,670 828,674 841,677 854,679"/>
<polygon style="fill:midnightblue;stroke:midnightblue;" points="855,676 864,681 854,682 855,676"/>
</g>
<g id="edge50" class="edge"><title>Node21-&gt;Node8</title>
<path style="fill:none;stroke:midnightblue;" d="M1282,646C1283,647 1284,648 1285,649 1377,744 1238,846 1314,942"/>
<polygon style="fill:midnightblue;stroke:midnightblue;" points="1317,940 1321,950 1312,945 1317,940"/>
</g>
<g id="edge58" class="edge"><title>Node22-&gt;Node9</title>
<path style="fill:none;stroke:midnightblue;" d="M1049,570C1146,472 990,362 1085,262 1085,262 1086,261 1086,261"/>
<polygon style="fill:midnightblue;stroke:midnightblue;" points="1084,258 1094,255 1088,264 1084,258"/>
</g>
<g id="edge54" class="edge"><title>Node22-&gt;Node23</title>
<path style="fill:none;stroke:midnightblue;" d="M1049,602C1100,649 1035,706 1085,752 1086,753 1087,753 1087,754"/>
<polygon style="fill:midnightblue;stroke:midnightblue;" points="1090,752 1096,760 1086,757 1090,752"/>
</g>
<g id="edge56" class="edge"><title>Node23-&gt;Node8</title>
<path style="fill:none;stroke:midnightblue;" d="M1275,777C1279,779 1282,781 1285,784 1337,833 1275,892 1314,942"/>
<polygon style="fill:midnightblue;stroke:midnightblue;" points="1317,940 1321,950 1312,945 1317,940"/>
</g>
<g id="edge68" class="edge"><title>Node26-&gt;Node8</title>
<path style="fill:none;stroke:midnightblue;" d="M704,828C823,829 1280,827 1285,831 1315,852 1303,874 1313,908 1318,922 1311,930 1321,939 1340,957 1355,942 1377,947"/>
<polygon style="fill:midnightblue;stroke:midnightblue;" points="1378,944 1387,950 1376,950 1378,944"/>
</g>
<g id="edge66" class="edge"><title>Node26-&gt;Node17</title>
<path style="fill:none;stroke:midnightblue;" d="M704,830C731,830 760,825 779,805 883,701 713,582 815,476 820,471 826,467 832,464"/>
<polygon style="fill:midnightblue;stroke:midnightblue;" points="831,460 842,460 834,467 831,460"/>
</g>
<g id="edge72" class="edge"><title>Node27-&gt;Node8</title>
<path style="fill:none;stroke:midnightblue;" d="M1248,857C1261,859 1275,864 1285,872 1313,894 1295,921 1314,943"/>
<polygon style="fill:midnightblue;stroke:midnightblue;" points="1316,940 1321,950 1311,945 1316,940"/>
</g>
<g id="edge78" class="edge"><title>Node28-&gt;Node8</title>
<path style="fill:none;stroke:midnightblue;" d="M1001,893C1074,888 1191,887 1285,919 1302,925 1303,933 1317,941 1321,943 1325,945 1328,947"/>
<polygon style="fill:midnightblue;stroke:midnightblue;" points="1329,944 1338,950 1327,950 1329,944"/>
</g>
<g id="edge82" class="edge"><title>Node29-&gt;Node8</title>
<path style="fill:none;stroke:midnightblue;" d="M1253,951C1271,953 1291,954 1311,957"/>
<polygon style="fill:midnightblue;stroke:midnightblue;" points="1311,954 1321,958 1311,960 1311,954"/>
</g>
<g id="edge86" class="edge"><title>Node30-&gt;Node8</title>
<path style="fill:none;stroke:midnightblue;" d="M1003,985C1085,981 1220,975 1311,970"/>
<polygon style="fill:midnightblue;stroke:midnightblue;" points="1311,966 1321,970 1311,973 1311,966"/>
</g>
<g id="edge90" class="edge"><title>Node31-&gt;Node8</title>
<path style="fill:none;stroke:midnightblue;" d="M1280,1018C1282,1017 1283,1017 1285,1016 1301,1008 1302,997 1313,988"/>
<polygon style="fill:midnightblue;stroke:midnightblue;" points="1311,985 1321,982 1315,991 1311,985"/>
</g>
<g id="edge94" class="edge"><title>Node32-&gt;Node8</title>
<path style="fill:none;stroke:midnightblue;" d="M993,1080C1082,1084 1239,1087 1285,1057 1310,1040 1293,1018 1313,997 1316,994 1318,994 1321,993 1346,985 1356,993 1378,986"/>
<polygon style="fill:midnightblue;stroke:midnightblue;" points="1376,983 1387,982 1379,989 1376,983"/>
</g>
<g id="edge98" class="edge"><title>Node33-&gt;Node8</title>
<path style="fill:none;stroke:midnightblue;" d="M1266,1115C1273,1112 1280,1109 1285,1104 1325,1069 1286,1026 1314,990"/>
<polygon style="fill:midnightblue;stroke:midnightblue;" points="1312,987 1321,982 1317,992 1312,987"/>
</g>
<g id="edge102" class="edge"><title>Node34-&gt;Node8</title>
<path style="fill:none;stroke:midnightblue;" d="M1008,1169C1099,1174 1243,1176 1285,1145 1311,1126 1302,1108 1309,1078 1311,1069 1315,1010 1317,1003 1325,981 1352,982 1370,982"/>
<polygon style="fill:midnightblue;stroke:midnightblue;" points="1370,978 1380,982 1370,985 1370,978"/>
</g>
<g id="edge106" class="edge"><title>Node35-&gt;Node8</title>
<path style="fill:none;stroke:midnightblue;" d="M1248,1209C1262,1207 1275,1202 1285,1192 1350,1127 1262,1055 1314,989"/>
<polygon style="fill:midnightblue;stroke:midnightblue;" points="1311,987 1321,982 1316,992 1311,987"/>
</g>
<g id="edge110" class="edge"><title>Node36-&gt;Node8</title>
<path style="fill:none;stroke:midnightblue;" d="M986,1256C1073,1261 1239,1266 1285,1233 1311,1214 1303,1197 1309,1167 1316,1133 1312,1124 1313,1091 1315,1056 1313,1048 1317,1014 1319,1004 1315,999 1321,993 1339,975 1355,990 1377,985"/>
<polygon style="fill:midnightblue;stroke:midnightblue;" points="1376,982 1387,982 1378,988 1376,982"/>
</g>
<g id="edge114" class="edge"><title>Node37-&gt;Node8</title>
<path style="fill:none;stroke:midnightblue;" d="M1256,1296C1267,1293 1277,1288 1285,1280 1376,1186 1239,1084 1314,990"/>
<polygon style="fill:midnightblue;stroke:midnightblue;" points="1312,987 1321,982 1317,992 1312,987"/>
</g>
<g id="edge118" class="edge"><title>Node38-&gt;Node8</title>
<path style="fill:none;stroke:midnightblue;" d="M1044,1347C1133,1350 1248,1348 1285,1321 1311,1302 1304,1285 1309,1255 1314,1231 1313,1171 1313,1147 1315,1093 1313,1079 1317,1026 1318,1019 1317,1002 1321,998 1338,979 1354,991 1376,986"/>
<polygon style="fill:midnightblue;stroke:midnightblue;" points="1374,983 1385,982 1377,989 1374,983"/>
</g>
<g id="edge122" class="edge"><title>Node39-&gt;Node8</title>
<path style="fill:none;stroke:midnightblue;" d="M731,1381C886,1394 1199,1413 1285,1351 1309,1334 1304,1319 1309,1291 1310,1290 1317,1027 1317,1027 1318,1020 1318,1004 1321,1000 1338,980 1354,991 1376,986"/>
<polygon style="fill:midnightblue;stroke:midnightblue;" points="1374,983 1385,982 1377,989 1374,983"/>
</g>
<g id="edge126" class="edge"><title>Node40-&gt;Node8</title>
<path style="fill:none;stroke:midnightblue;" d="M714,1429C862,1442 1198,1462 1285,1395 1314,1372 1304,1352 1309,1317 1315,1280 1312,1187 1313,1150 1315,1092 1311,1077 1317,1021 1319,1011 1316,1007 1321,1001 1327,994 1331,996 1339,994 1356,988 1364,990 1376,986"/>
<polygon style="fill:midnightblue;stroke:midnightblue;" points="1374,983 1385,982 1377,989 1374,983"/>
</g>
<g id="edge130" class="edge"><title>Node41-&gt;Node8</title>
<path style="fill:none;stroke:midnightblue;" d="M713,192C870,183 1240,167 1285,200 1330,234 1306,267 1309,322 1313,384 1312,400 1313,461 1314,465 1320,911 1321,913 1326,923 1358,935 1377,945"/>
<polygon style="fill:midnightblue;stroke:midnightblue;" points="1379,942 1386,950 1376,948 1379,942"/>
</g>
<g id="edge134" class="edge"><title>Node42-&gt;Node8</title>
<path style="fill:none;stroke:midnightblue;" d="M715,238C874,220 1244,183 1285,221 1311,245 1312,501 1313,535 1314,536 1321,916 1321,916 1326,925 1331,924 1339,928 1356,938 1363,938 1376,945"/>
<polygon style="fill:midnightblue;stroke:midnightblue;" points="1378,942 1385,950 1375,948 1378,942"/>
</g>
<g id="edge140" class="edge"><title>Node43-&gt;Node8</title>
<path style="fill:none;stroke:midnightblue;" d="M766,487C771,485 775,483 779,481 802,469 792,447 815,435 909,390 948,412 1049,435 1163,461 1210,460 1285,549 1315,584 1307,603 1313,647 1314,649 1321,925 1321,926 1327,937 1355,944 1372,948"/>
<polygon style="fill:midnightblue;stroke:midnightblue;" points="1373,945 1382,950 1372,951 1373,945"/>
</g>
<g id="node119" class="node"><title>Node46</title>
<a xlink:href="x_p_l_8c.html#abc8f282f2ce56cb62d7e149120130c72" target="_top" xlink:title="XPLSendHeartBeat">
<polygon style="fill:none;stroke:black;" points="1090,1482 1281,1482 1281,1450 1090,1450 1090,1482"/>
<text text-anchor="middle" x="1185" y="1473" style="font-family:Helvetica;font-size:20.00;">XPLSendHeartBeat</text>
</a>
</g>
<g id="edge146" class="edge"><title>Node45-&gt;Node46</title>
<path style="fill:none;stroke:midnightblue;" d="M470,1249C470,1249 471,1250 471,1250 535,1312 440,1389 507,1447 550,1483 900,1476 1080,1470"/>
<polygon style="fill:midnightblue;stroke:midnightblue;" points="1080,1466 1090,1470 1080,1473 1080,1466"/>
</g>
<g id="edge148" class="edge"><title>Node46-&gt;Node8</title>
<path style="fill:none;stroke:midnightblue;" d="M1281,1454C1283,1453 1284,1451 1285,1450 1354,1375 1259,1080 1315,990"/>
<polygon style="fill:midnightblue;stroke:midnightblue;" points="1312,988 1321,982 1318,992 1312,988"/>
</g>
<g id="node124" class="node"><title>Node48</title>
<a xlink:href="_security_system_8c.html#a3baecc6556e5cc7af0d59d0216aa217c" target="_top" xlink:title="SchemaProcessUDPMsg">
<polygon style="fill:none;stroke:red;" points="522,400 764,400 764,368 522,368 522,400"/>
<text text-anchor="middle" x="643" y="391" style="font-family:Helvetica;font-size:20.00;">SchemaProcessUDPMsg</text>
</a>
</g>
<g id="edge152" class="edge"><title>Node47-&gt;Node48</title>
<path style="fill:none;stroke:midnightblue;" d="M471,281C504,307 474,343 507,368 509,369 511,370 513,372"/>
<polygon style="fill:midnightblue;stroke:midnightblue;" points="515,369 522,377 512,375 515,369"/>
</g>
<g id="node128" class="node"><title>Node49</title>
<a xlink:href="x_p_l_8c.html#a5f8892113a09c41986fc7240b315c01e" target="_top" xlink:title="xPLProcessMsgCompair">
<polygon style="fill:none;stroke:black;" points="525,112 761,112 761,80 525,80 525,112"/>
<text text-anchor="middle" x="643" y="103" style="font-family:Helvetica;font-size:20.00;">xPLProcessMsgCompair</text>
</a>
</g>
<g id="edge158" class="edge"><title>Node47-&gt;Node49</title>
<path style="fill:none;stroke:midnightblue;" d="M471,249C518,207 460,154 507,112 510,109 513,107 516,105"/>
<polygon style="fill:midnightblue;stroke:midnightblue;" points="514,102 525,101 517,108 514,102"/>
</g>
<g id="node130" class="node"><title>Node50</title>
<a xlink:href="x_p_l_8c.html#af740a9e5684491e3dcbe5b0198f98860" target="_top" xlink:title="XPLProcessUDPMsgHeader">
<polygon style="fill:none;stroke:red;" points="507,162 779,162 779,130 507,130 507,162"/>
<text text-anchor="middle" x="643" y="153" style="font-family:Helvetica;font-size:20.00;">XPLProcessUDPMsgHeader</text>
</a>
</g>
<g id="edge160" class="edge"><title>Node47-&gt;Node50</title>
<path style="fill:none;stroke:midnightblue;" d="M471,249C501,226 479,194 500,169"/>
<polygon style="fill:midnightblue;stroke:midnightblue;" points="497,167 507,162 502,172 497,167"/>
</g>
<g id="edge154" class="edge"><title>Node48-&gt;Node14</title>
<path style="fill:none;stroke:midnightblue;" d="M764,372C769,371 774,370 779,368 797,363 798,356 815,350 823,348 831,346 840,344"/>
<polygon style="fill:midnightblue;stroke:midnightblue;" points="840,341 850,342 841,347 840,341"/>
</g>
<g id="edge156" class="edge"><title>Node48-&gt;Node17</title>
<path style="fill:none;stroke:midnightblue;" d="M764,393C769,395 774,397 779,400 802,413 793,432 815,444 820,447 826,450 832,452"/>
<polygon style="fill:midnightblue;stroke:midnightblue;" points="833,449 842,455 831,455 833,449"/>
</g>
</g>
</svg>
