<?xml version="1.0" encoding="UTF-8" standalone="no"?>
<!DOCTYPE svg PUBLIC "-//W3C//DTD SVG 1.0//EN"
 "http://www.w3.org/TR/2001/REC-SVG-20010904/DTD/svg10.dtd" [
 <!ATTLIST svg xmlns:xlink CDATA #FIXED "http://www.w3.org/1999/xlink">
]>
<!-- Generated by dot version 1.13 (v16) (Mon August 23, 2004)
     For user: (jarrodneven) Jarrod  Neven   Title: G    Pages: 1 -->
<svg width="426pt" height="112pt"
 viewBox = "-1 -1 425 111"
 xmlns="http://www.w3.org/2000/svg" xmlns:xlink="http://www.w3.org/1999/xlink">
<g id="graph0" class="graph" style="font-family:Times-Roman;font-size:14.00;">
<title>G</title>
<g id="node1" class="node"><title>Node1</title>
<polygon style="fill:#bfbfbf;stroke:black;" points="146,36 300,36 300,4 146,4 146,36"/>
<text text-anchor="middle" x="223" y="27" style="font-family:Helvetica;font-size:20.00;">PIC Code/MainDemo.h</text>
</g>
<g id="node3" class="node"><title>Node2</title>
<a xlink:href="_main_demo_8c.html" target="_top" xlink:title="main.c, says it all.">
<polygon style="fill:none;stroke:black;" points="5,104 226,104 226,72 5,72 5,104"/>
<text text-anchor="middle" x="115" y="95" style="font-family:Helvetica;font-size:20.00;">PIC Code/MainDemo.c</text>
</a>
</g>
<g id="edge2" class="edge"><title>Node1-&gt;Node2</title>
<path style="fill:none;stroke:midnightblue;" d="M188,42C173,52 154,63 140,72"/>
<polygon style="fill:midnightblue;stroke:midnightblue;" points="187,39 197,36 191,44 187,39"/>
</g>
<g id="node5" class="node"><title>Node3</title>
<a xlink:href="_s_m_t_p_8c.html" target="_top" xlink:title="All things Email.">
<polygon style="fill:none;stroke:black;" points="243,104 420,104 420,72 243,72 243,104"/>
<text text-anchor="middle" x="331" y="95" style="font-family:Helvetica;font-size:20.00;">PIC Code/SMTP.c</text>
</a>
</g>
<g id="edge4" class="edge"><title>Node1-&gt;Node3</title>
<path style="fill:none;stroke:midnightblue;" d="M258,42C273,52 292,63 306,72"/>
<polygon style="fill:midnightblue;stroke:midnightblue;" points="255,44 249,36 259,39 255,44"/>
</g>
</g>
</svg>
