<?xml version="1.0" encoding="UTF-8" standalone="no"?>
<!DOCTYPE svg PUBLIC "-//W3C//DTD SVG 1.0//EN"
 "http://www.w3.org/TR/2001/REC-SVG-20010904/DTD/svg10.dtd" [
 <!ATTLIST svg xmlns:xlink CDATA #FIXED "http://www.w3.org/1999/xlink">
]>
<!-- Generated by dot version 1.13 (v16) (Mon August 23, 2004)
     For user: (jarrodneven) Jarrod  Neven   Title: G    Pages: 1 -->
<svg width="640pt" height="112pt"
 viewBox = "-1 -1 639 111"
 xmlns="http://www.w3.org/2000/svg" xmlns:xlink="http://www.w3.org/1999/xlink">
<g id="graph0" class="graph" style="font-family:Times-Roman;font-size:14.00;">
<title>G</title>
<g id="node1" class="node"><title>Node1</title>
<polygon style="fill:#bfbfbf;stroke:black;" points="318,36 441,36 441,4 318,4 318,36"/>
<text text-anchor="middle" x="379" y="27" style="font-family:Helvetica;font-size:20.00;">PIC Code/SMTP.c</text>
</g>
<g id="node3" class="node"><title>Node2</title>
<polygon style="fill:none;stroke:#bfbfbf;" points="5,104 214,104 214,72 5,72 5,104"/>
<text text-anchor="middle" x="109" y="95" style="font-family:Helvetica;font-size:20.00;">TCPIP Stack/TCPIP.h</text>
</g>
<g id="edge2" class="edge"><title>Node1-&gt;Node2</title>
<path style="fill:none;stroke:midnightblue;" d="M318,36C275,47 225,60 185,70"/>
<polygon style="fill:midnightblue;stroke:midnightblue;" points="185,73 175,72 184,67 185,73"/>
</g>
<g id="node5" class="node"><title>Node3</title>
<a xlink:href="_main_demo_8h.html" target="_top" xlink:title="MainDemo.h">
<polygon style="fill:none;stroke:black;" points="231,104 360,104 360,72 231,72 231,104"/>
<text text-anchor="middle" x="295" y="95" style="font-family:Helvetica;font-size:20.00;">MainDemo.h</text>
</a>
</g>
<g id="edge4" class="edge"><title>Node1-&gt;Node3</title>
<path style="fill:none;stroke:midnightblue;" d="M359,36C348,45 335,56 323,66"/>
<polygon style="fill:midnightblue;stroke:midnightblue;" points="325,69 315,72 321,63 325,69"/>
</g>
<g id="node7" class="node"><title>Node4</title>
<a xlink:href="_security_system_8h.html" target="_top" xlink:title="SecuritySystem.h">
<polygon style="fill:none;stroke:black;" points="377,104 549,104 549,72 377,72 377,104"/>
<text text-anchor="middle" x="463" y="95" style="font-family:Helvetica;font-size:20.00;">SecuritySystem.h</text>
</a>
</g>
<g id="edge6" class="edge"><title>Node1-&gt;Node4</title>
<path style="fill:none;stroke:midnightblue;" d="M399,36C410,45 423,56 435,66"/>
<polygon style="fill:midnightblue;stroke:midnightblue;" points="437,63 443,72 433,69 437,63"/>
</g>
<g id="node9" class="node"><title>Node5</title>
<a xlink:href="x_p_l_8h.html" target="_top" xlink:title="xPL.h">
<polygon style="fill:none;stroke:black;" points="567,104 634,104 634,72 567,72 567,104"/>
<text text-anchor="middle" x="600" y="95" style="font-family:Helvetica;font-size:20.00;">xPL.h</text>
</a>
</g>
<g id="edge8" class="edge"><title>Node1-&gt;Node5</title>
<path style="fill:none;stroke:midnightblue;" d="M438,36C480,48 534,63 557,69"/>
<polygon style="fill:midnightblue;stroke:midnightblue;" points="558,66 567,72 556,72 558,66"/>
</g>
</g>
</svg>
