<?xml version="1.0" encoding="UTF-8" standalone="no"?>
<!DOCTYPE svg PUBLIC "-//W3C//DTD SVG 1.0//EN"
 "http://www.w3.org/TR/2001/REC-SVG-20010904/DTD/svg10.dtd" [
 <!ATTLIST svg xmlns:xlink CDATA #FIXED "http://www.w3.org/1999/xlink">
]>
<!-- Generated by dot version 1.13 (v16) (Mon August 23, 2004)
     For user: (jarrodneven) Jarrod  Neven   Title: G    Pages: 1 -->
<svg width="376pt" height="44pt"
 viewBox = "-1 -1 375 43"
 xmlns="http://www.w3.org/2000/svg" xmlns:xlink="http://www.w3.org/1999/xlink">
<g id="graph0" class="graph" style="font-family:Times-Roman;font-size:14.00;">
<title>G</title>
<g id="node1" class="node"><title>Node1</title>
<polygon style="fill:#bfbfbf;stroke:black;" points="6,36 133,36 133,4 6,4 6,36"/>
<text text-anchor="middle" x="69" y="27" style="font-family:Helvetica;font-size:20.00;">SMTPTaskProcess</text>
</g>
<g id="node3" class="node"><title>Node2</title>
<a xlink:href="x_p_l_8h.html#a86d914c966f337c4e3a6fda46a945d11" target="_top" xlink:title="XPLTasks">
<polygon style="fill:none;stroke:black;" points="170,36 273,36 273,4 170,4 170,36"/>
<text text-anchor="middle" x="221" y="27" style="font-family:Helvetica;font-size:20.00;">XPLTasks</text>
</a>
</g>
<g id="edge2" class="edge"><title>Node1-&gt;Node2</title>
<path style="fill:none;stroke:midnightblue;" d="M143,20C152,20 161,20 170,20"/>
<polygon style="fill:midnightblue;stroke:midnightblue;" points="143,23 133,20 143,16 143,23"/>
</g>
<g id="node5" class="node"><title>Node3</title>
<a xlink:href="_main_demo_8c.html#a6288eba0f8e8ad3ab1544ad731eb7667" target="_top" xlink:title="main">
<polygon style="fill:none;stroke:black;" points="310,36 369,36 369,4 310,4 310,36"/>
<text text-anchor="middle" x="339" y="27" style="font-family:Helvetica;font-size:20.00;">main</text>
</a>
</g>
<g id="edge4" class="edge"><title>Node2-&gt;Node3</title>
<path style="fill:none;stroke:midnightblue;" d="M283,20C293,20 302,20 310,20"/>
<polygon style="fill:midnightblue;stroke:midnightblue;" points="283,23 273,20 283,16 283,23"/>
</g>
</g>
</svg>
