<?xml version="1.0" encoding="UTF-8" standalone="no"?>
<!DOCTYPE svg PUBLIC "-//W3C//DTD SVG 1.0//EN"
 "http://www.w3.org/TR/2001/REC-SVG-20010904/DTD/svg10.dtd" [
 <!ATTLIST svg xmlns:xlink CDATA #FIXED "http://www.w3.org/1999/xlink">
]>
<!-- Generated by dot version 1.13 (v16) (Mon August 23, 2004)
     For user: (jarrodneven) Jarrod  Neven   Title: G    Pages: 1 -->
<svg width="410pt" height="112pt"
 viewBox = "-1 -1 409 111"
 xmlns="http://www.w3.org/2000/svg" xmlns:xlink="http://www.w3.org/1999/xlink">
<g id="graph0" class="graph" style="font-family:Times-Roman;font-size:14.00;">
<title>G</title>
<g id="node1" class="node"><title>Node1</title>
<polygon style="fill:#bfbfbf;stroke:black;" points="114,36 313,36 313,4 114,4 114,36"/>
<text text-anchor="middle" x="213" y="27" style="font-family:Helvetica;font-size:20.00;">PIC Code/SNTP Customised.c</text>
</g>
<g id="node3" class="node"><title>Node2</title>
<polygon style="fill:none;stroke:#bfbfbf;" points="5,104 214,104 214,72 5,72 5,104"/>
<text text-anchor="middle" x="109" y="95" style="font-family:Helvetica;font-size:20.00;">TCPIP Stack/TCPIP.h</text>
</g>
<g id="edge2" class="edge"><title>Node1-&gt;Node2</title>
<path style="fill:none;stroke:midnightblue;" d="M188,36C175,45 157,56 142,66"/>
<polygon style="fill:midnightblue;stroke:midnightblue;" points="144,69 134,72 140,63 144,69"/>
</g>
<g id="node5" class="node"><title>Node3</title>
<a xlink:href="_security_system_8h.html" target="_top" xlink:title="SecuritySystem.h">
<polygon style="fill:none;stroke:black;" points="231,104 403,104 403,72 231,72 231,104"/>
<text text-anchor="middle" x="317" y="95" style="font-family:Helvetica;font-size:20.00;">SecuritySystem.h</text>
</a>
</g>
<g id="edge4" class="edge"><title>Node1-&gt;Node3</title>
<path style="fill:none;stroke:midnightblue;" d="M238,36C251,45 269,56 284,66"/>
<polygon style="fill:midnightblue;stroke:midnightblue;" points="286,63 292,72 282,69 286,63"/>
</g>
</g>
</svg>
