<?xml version="1.0" encoding="UTF-8" standalone="no"?>
<!DOCTYPE svg PUBLIC "-//W3C//DTD SVG 1.0//EN"
 "http://www.w3.org/TR/2001/REC-SVG-20010904/DTD/svg10.dtd" [
 <!ATTLIST svg xmlns:xlink CDATA #FIXED "http://www.w3.org/1999/xlink">
]>
<!-- Generated by dot version 1.13 (v16) (Mon August 23, 2004)
     For user: (jarrodneven) Jarrod  Neven   Title: G    Pages: 1 -->
<svg width="780pt" height="144pt"
 viewBox = "-1 -1 779 143"
 xmlns="http://www.w3.org/2000/svg" xmlns:xlink="http://www.w3.org/1999/xlink">
<g id="graph0" class="graph" style="font-family:Times-Roman;font-size:14.00;">
<title>G</title>
<g id="node1" class="node"><title>Node1</title>
<polygon style="fill:#bfbfbf;stroke:black;" points="5,86 83,86 83,54 5,54 5,86"/>
<text text-anchor="middle" x="44" y="77" style="font-family:Helvetica;font-size:20.00;">ArmHome</text>
</g>
<g id="node3" class="node"><title>Node2</title>
<a xlink:href="_security_system_8c.html#ad2cdbcce787b8a3c88addf52f996805f" target="_top" xlink:title="StateChangeToArm">
<polygon style="fill:none;stroke:black;" points="120,86 311,86 311,54 120,54 120,86"/>
<text text-anchor="middle" x="215" y="77" style="font-family:Helvetica;font-size:20.00;">StateChangeToArm</text>
</a>
</g>
<g id="edge2" class="edge"><title>Node1-&gt;Node2</title>
<path style="fill:none;stroke:midnightblue;" d="M83,70C91,70 100,70 110,70"/>
<polygon style="fill:midnightblue;stroke:midnightblue;" points="110,66 120,70 110,73 110,66"/>
</g>
<g id="node5" class="node"><title>Node3</title>
<a xlink:href="_security_system_8h.html#a30c3c9cdda2491c17d5d6d5cc6426b31" target="_top" xlink:title="addxPLMessage">
<polygon style="fill:none;stroke:black;" points="372,36 537,36 537,4 372,4 372,36"/>
<text text-anchor="middle" x="454" y="27" style="font-family:Helvetica;font-size:20.00;">addxPLMessage</text>
</a>
</g>
<g id="edge4" class="edge"><title>Node2-&gt;Node3</title>
<path style="fill:none;stroke:midnightblue;" d="M311,54C329,49 330,42 347,36 352,35 357,33 362,32"/>
<polygon style="fill:midnightblue;stroke:midnightblue;" points="362,29 372,30 363,35 362,29"/>
</g>
<g id="node9" class="node"><title>Node5</title>
<a xlink:href="_security_system_8c.html#a2d0a6f4e811adf18c96693529c2d81b4" target="_top" xlink:title="ArmingZoneState">
<polygon style="fill:none;stroke:black;" points="368,86 540,86 540,54 368,54 368,86"/>
<text text-anchor="middle" x="454" y="77" style="font-family:Helvetica;font-size:20.00;">ArmingZoneState</text>
</a>
</g>
<g id="edge8" class="edge"><title>Node2-&gt;Node5</title>
<path style="fill:none;stroke:midnightblue;" d="M311,70C327,70 342,70 358,70"/>
<polygon style="fill:midnightblue;stroke:midnightblue;" points="358,66 368,70 358,73 358,66"/>
</g>
<g id="node11" class="node"><title>Node6</title>
<a xlink:href="_security_system_8c.html#a290b0da69aaf212aa38c219c45a6d8a9" target="_top" xlink:title="isZoneMemberOfArea">
<polygon style="fill:none;stroke:black;" points="348,136 561,136 561,104 348,104 348,136"/>
<text text-anchor="middle" x="454" y="127" style="font-family:Helvetica;font-size:20.00;">isZoneMemberOfArea</text>
</a>
</g>
<g id="edge10" class="edge"><title>Node2-&gt;Node6</title>
<path style="fill:none;stroke:midnightblue;" d="M311,86C325,91 329,96 339,101"/>
<polygon style="fill:midnightblue;stroke:midnightblue;" points="340,98 348,104 337,104 340,98"/>
</g>
<g id="node7" class="node"><title>Node4</title>
<a xlink:href="_security_system_8c.html#a491f8822a8274ca5244c41d226e7136e" target="_top" xlink:title="ClearArmingFlags">
<polygon style="fill:none;stroke:black;" points="597,36 773,36 773,4 597,4 597,36"/>
<text text-anchor="middle" x="685" y="27" style="font-family:Helvetica;font-size:20.00;">ClearArmingFlags</text>
</a>
</g>
<g id="edge6" class="edge"><title>Node3-&gt;Node4</title>
<path style="fill:none;stroke:midnightblue;" d="M537,20C553,20 570,20 587,20"/>
<polygon style="fill:midnightblue;stroke:midnightblue;" points="587,16 597,20 587,23 587,16"/>
</g>
</g>
</svg>
