<?xml version="1.0" encoding="UTF-8" standalone="no"?>
<!DOCTYPE svg PUBLIC "-//W3C//DTD SVG 1.0//EN"
 "http://www.w3.org/TR/2001/REC-SVG-20010904/DTD/svg10.dtd" [
 <!ATTLIST svg xmlns:xlink CDATA #FIXED "http://www.w3.org/1999/xlink">
]>
<!-- Generated by dot version 1.13 (v16) (Mon August 23, 2004)
     For user: (jarrodneven) Jarrod  Neven   Title: G    Pages: 1 -->
<svg width="1292pt" height="194pt"
 viewBox = "-1 -1 1291 193"
 xmlns="http://www.w3.org/2000/svg" xmlns:xlink="http://www.w3.org/1999/xlink">
<g id="graph0" class="graph" style="font-family:Times-Roman;font-size:14.00;">
<title>G</title>
<g id="node1" class="node"><title>Node1</title>
<polygon style="fill:#bfbfbf;stroke:black;" points="6,111 131,111 131,79 6,79 6,111"/>
<text text-anchor="middle" x="68" y="102" style="font-family:Helvetica;font-size:20.00;">ArmingZoneState</text>
</g>
<g id="node3" class="node"><title>Node2</title>
<a xlink:href="_security_system_8c.html#ad2cdbcce787b8a3c88addf52f996805f" target="_top" xlink:title="StateChangeToArm">
<polygon style="fill:none;stroke:black;" points="168,111 359,111 359,79 168,79 168,111"/>
<text text-anchor="middle" x="263" y="102" style="font-family:Helvetica;font-size:20.00;">StateChangeToArm</text>
</a>
</g>
<g id="edge2" class="edge"><title>Node1-&gt;Node2</title>
<path style="fill:none;stroke:midnightblue;" d="M141,95C150,95 159,95 168,95"/>
<polygon style="fill:midnightblue;stroke:midnightblue;" points="141,98 131,95 141,91 141,98"/>
</g>
<g id="node5" class="node"><title>Node3</title>
<a xlink:href="_security_system_8h.html#a723bf79e9ca7924d850e5c2be4029b1c" target="_top" xlink:title="Arm">
<polygon style="fill:none;stroke:black;" points="436,36 489,36 489,4 436,4 436,36"/>
<text text-anchor="middle" x="462" y="27" style="font-family:Helvetica;font-size:20.00;">Arm</text>
</a>
</g>
<g id="edge4" class="edge"><title>Node2-&gt;Node3</title>
<path style="fill:none;stroke:midnightblue;" d="M368,73C379,62 377,48 395,36 408,29 423,25 436,22"/>
<polygon style="fill:midnightblue;stroke:midnightblue;" points="370,76 360,79 366,70 370,76"/>
</g>
<g id="node15" class="node"><title>Node8</title>
<a xlink:href="_security_system_8h.html#af7b9ebfe6bb90725304e83cadb4cced8" target="_top" xlink:title="ArmAway">
<polygon style="fill:none;stroke:black;" points="412,86 513,86 513,54 412,54 412,86"/>
<text text-anchor="middle" x="462" y="77" style="font-family:Helvetica;font-size:20.00;">ArmAway</text>
</a>
</g>
<g id="edge14" class="edge"><title>Node2-&gt;Node8</title>
<path style="fill:none;stroke:midnightblue;" d="M369,82C384,80 399,79 412,77"/>
<polygon style="fill:midnightblue;stroke:midnightblue;" points="369,85 359,83 369,79 369,85"/>
</g>
<g id="node20" class="node"><title>Node10</title>
<a xlink:href="_security_system_8h.html#afba09fe6505822eb03078088f14ef89b" target="_top" xlink:title="ArmHome">
<polygon style="fill:none;stroke:black;" points="409,136 515,136 515,104 409,104 409,136"/>
<text text-anchor="middle" x="462" y="127" style="font-family:Helvetica;font-size:20.00;">ArmHome</text>
</a>
</g>
<g id="edge20" class="edge"><title>Node2-&gt;Node10</title>
<path style="fill:none;stroke:midnightblue;" d="M369,108C383,110 397,111 409,113"/>
<polygon style="fill:midnightblue;stroke:midnightblue;" points="369,111 359,107 369,105 369,111"/>
</g>
<g id="node24" class="node"><title>Node11</title>
<a xlink:href="_security_system_8h.html#aad7b06369f4a1f3b427e137a9f84a5c0" target="_top" xlink:title="ArmLatchkey">
<polygon style="fill:none;stroke:black;" points="396,186 529,186 529,154 396,154 396,186"/>
<text text-anchor="middle" x="462" y="177" style="font-family:Helvetica;font-size:20.00;">ArmLatchkey</text>
</a>
</g>
<g id="edge26" class="edge"><title>Node2-&gt;Node11</title>
<path style="fill:none;stroke:midnightblue;" d="M368,117C379,128 377,142 395,154 395,154 396,154 396,155"/>
<polygon style="fill:midnightblue;stroke:midnightblue;" points="366,120 360,111 370,114 366,120"/>
</g>
<g id="node7" class="node"><title>Node4</title>
<a xlink:href="x_p_l_8h.html#a3baecc6556e5cc7af0d59d0216aa217c" target="_top" xlink:title="SchemaProcessUDPMsg">
<polygon style="fill:none;stroke:black;" points="565,86 807,86 807,54 565,54 565,86"/>
<text text-anchor="middle" x="686" y="77" style="font-family:Helvetica;font-size:20.00;">SchemaProcessUDPMsg</text>
</a>
</g>
<g id="edge6" class="edge"><title>Node3-&gt;Node4</title>
<path style="fill:none;stroke:midnightblue;" d="M499,27C509,30 519,33 529,36 546,43 548,49 565,54"/>
<polygon style="fill:midnightblue;stroke:midnightblue;" points="498,30 489,25 499,24 498,30"/>
</g>
<g id="node9" class="node"><title>Node5</title>
<a xlink:href="x_p_l_8c.html#a41c59f641ff95b999e66c0d45117b73d" target="_top" xlink:title="XPLProcessUDPMsg">
<polygon style="fill:none;stroke:black;" points="843,86 1049,86 1049,54 843,54 843,86"/>
<text text-anchor="middle" x="946" y="77" style="font-family:Helvetica;font-size:20.00;">XPLProcessUDPMsg</text>
</a>
</g>
<g id="edge8" class="edge"><title>Node4-&gt;Node5</title>
<path style="fill:none;stroke:midnightblue;" d="M817,70C826,70 834,70 843,70"/>
<polygon style="fill:midnightblue;stroke:midnightblue;" points="817,73 807,70 817,66 817,73"/>
</g>
<g id="node11" class="node"><title>Node6</title>
<a xlink:href="x_p_l_8h.html#a86d914c966f337c4e3a6fda46a945d11" target="_top" xlink:title="XPLTasks">
<polygon style="fill:none;stroke:black;" points="1086,86 1189,86 1189,54 1086,54 1086,86"/>
<text text-anchor="middle" x="1137" y="77" style="font-family:Helvetica;font-size:20.00;">XPLTasks</text>
</a>
</g>
<g id="edge10" class="edge"><title>Node5-&gt;Node6</title>
<path style="fill:none;stroke:midnightblue;" d="M1059,70C1068,70 1077,70 1086,70"/>
<polygon style="fill:midnightblue;stroke:midnightblue;" points="1059,73 1049,70 1059,66 1059,73"/>
</g>
<g id="node13" class="node"><title>Node7</title>
<a xlink:href="_main_demo_8c.html#a6288eba0f8e8ad3ab1544ad731eb7667" target="_top" xlink:title="main">
<polygon style="fill:none;stroke:black;" points="1226,86 1285,86 1285,54 1226,54 1226,86"/>
<text text-anchor="middle" x="1255" y="77" style="font-family:Helvetica;font-size:20.00;">main</text>
</a>
</g>
<g id="edge12" class="edge"><title>Node6-&gt;Node7</title>
<path style="fill:none;stroke:midnightblue;" d="M1199,70C1209,70 1218,70 1226,70"/>
<polygon style="fill:midnightblue;stroke:midnightblue;" points="1199,73 1189,70 1199,66 1199,73"/>
</g>
<g id="edge18" class="edge"><title>Node8-&gt;Node4</title>
<path style="fill:none;stroke:midnightblue;" d="M523,70C536,70 550,70 565,70"/>
<polygon style="fill:midnightblue;stroke:midnightblue;" points="523,73 513,70 523,66 523,73"/>
</g>
<g id="node17" class="node"><title>Node9</title>
<a xlink:href="_h_t_t_p_forms_8c.html#a686ae35a16ecb63daffafcd015ddb070" target="_top" xlink:title="Processes all HTTP GETS.">
<polygon style="fill:none;stroke:black;" points="600,136 773,136 773,104 600,104 600,136"/>
<text text-anchor="middle" x="686" y="127" style="font-family:Helvetica;font-size:20.00;">HTTPExecuteGet</text>
</a>
</g>
<g id="edge16" class="edge"><title>Node8-&gt;Node9</title>
<path style="fill:none;stroke:midnightblue;" d="M523,84C525,85 527,85 529,86 546,93 548,99 565,104 576,107 588,110 600,112"/>
<polygon style="fill:midnightblue;stroke:midnightblue;" points="522,87 513,81 524,81 522,87"/>
</g>
<g id="edge24" class="edge"><title>Node10-&gt;Node4</title>
<path style="fill:none;stroke:midnightblue;" d="M525,106C526,105 528,105 529,104 546,98 548,92 565,86"/>
<polygon style="fill:midnightblue;stroke:midnightblue;" points="526,109 515,109 524,103 526,109"/>
</g>
<g id="edge22" class="edge"><title>Node10-&gt;Node9</title>
<path style="fill:none;stroke:midnightblue;" d="M525,120C548,120 575,120 600,120"/>
<polygon style="fill:midnightblue;stroke:midnightblue;" points="525,123 515,120 525,116 525,123"/>
</g>
<g id="edge30" class="edge"><title>Node11-&gt;Node4</title>
<path style="fill:none;stroke:midnightblue;" d="M536,147C553,127 540,104 565,86"/>
<polygon style="fill:midnightblue;stroke:midnightblue;" points="539,149 529,154 534,144 539,149"/>
</g>
<g id="edge28" class="edge"><title>Node11-&gt;Node9</title>
<path style="fill:none;stroke:midnightblue;" d="M538,150C548,145 552,140 565,136 576,133 588,130 600,128"/>
<polygon style="fill:midnightblue;stroke:midnightblue;" points="540,153 529,154 537,147 540,153"/>
</g>
</g>
</svg>
