<?xml version="1.0" encoding="UTF-8" standalone="no"?>
<!DOCTYPE svg PUBLIC "-//W3C//DTD SVG 1.0//EN"
 "http://www.w3.org/TR/2001/REC-SVG-20010904/DTD/svg10.dtd" [
 <!ATTLIST svg xmlns:xlink CDATA #FIXED "http://www.w3.org/1999/xlink">
]>
<!-- Generated by dot version 1.13 (v16) (Mon August 23, 2004)
     For user: (jarrodneven) Jarrod  Neven   Title: G    Pages: 1 -->
<svg width="944pt" height="82pt"
 viewBox = "-1 -1 943 81"
 xmlns="http://www.w3.org/2000/svg" xmlns:xlink="http://www.w3.org/1999/xlink">
<g id="graph0" class="graph" style="font-family:Times-Roman;font-size:14.00;">
<title>G</title>
<g id="node1" class="node"><title>Node1</title>
<polygon style="fill:#bfbfbf;stroke:black;" points="5,52 131,52 131,20 5,20 5,52"/>
<text text-anchor="middle" x="68" y="43" style="font-family:Helvetica;font-size:20.00;">SendAlarmingMsg</text>
</g>
<g id="node3" class="node"><title>Node2</title>
<a xlink:href="x_p_l_8h.html#a62b4d90791ab073f74677d42bfb64253" target="_top" xlink:title="SchemaTasks">
<polygon style="fill:none;stroke:black;" points="561,52 701,52 701,20 561,20 561,52"/>
<text text-anchor="middle" x="631" y="43" style="font-family:Helvetica;font-size:20.00;">SchemaTasks</text>
</a>
</g>
<g id="edge2" class="edge"><title>Node1-&gt;Node2</title>
<path style="fill:none;stroke:midnightblue;" d="M141,34C150,34 158,33 167,33 327,31 366,31 525,33 537,33 549,34 561,34"/>
<polygon style="fill:midnightblue;stroke:midnightblue;" points="141,37 131,34 141,30 141,37"/>
</g>
<g id="node9" class="node"><title>Node5</title>
<a xlink:href="_security_system_8c.html#accca294859199bc9e59cec74618c871c" target="_top" xlink:title="StateChangeToAlarming">
<polygon style="fill:none;stroke:black;" points="168,74 401,74 401,42 168,42 168,74"/>
<text text-anchor="middle" x="284" y="65" style="font-family:Helvetica;font-size:20.00;">StateChangeToAlarming</text>
</a>
</g>
<g id="edge8" class="edge"><title>Node1-&gt;Node5</title>
<path style="fill:none;stroke:midnightblue;" d="M141,43C150,44 159,45 168,46"/>
<polygon style="fill:midnightblue;stroke:midnightblue;" points="141,46 131,42 141,40 141,46"/>
</g>
<g id="node5" class="node"><title>Node3</title>
<a xlink:href="x_p_l_8h.html#a86d914c966f337c4e3a6fda46a945d11" target="_top" xlink:title="XPLTasks">
<polygon style="fill:none;stroke:black;" points="738,52 841,52 841,20 738,20 738,52"/>
<text text-anchor="middle" x="789" y="43" style="font-family:Helvetica;font-size:20.00;">XPLTasks</text>
</a>
</g>
<g id="edge4" class="edge"><title>Node2-&gt;Node3</title>
<path style="fill:none;stroke:midnightblue;" d="M711,36C720,36 729,36 738,36"/>
<polygon style="fill:midnightblue;stroke:midnightblue;" points="711,39 701,36 711,32 711,39"/>
</g>
<g id="node7" class="node"><title>Node4</title>
<a xlink:href="_main_demo_8c.html#a6288eba0f8e8ad3ab1544ad731eb7667" target="_top" xlink:title="main">
<polygon style="fill:none;stroke:black;" points="878,52 937,52 937,20 878,20 878,52"/>
<text text-anchor="middle" x="907" y="43" style="font-family:Helvetica;font-size:20.00;">main</text>
</a>
</g>
<g id="edge6" class="edge"><title>Node3-&gt;Node4</title>
<path style="fill:none;stroke:midnightblue;" d="M851,36C861,36 870,36 878,36"/>
<polygon style="fill:midnightblue;stroke:midnightblue;" points="851,39 841,36 851,32 851,39"/>
</g>
<g id="node11" class="node"><title>Node6</title>
<a xlink:href="_security_system_8c.html#a3ccbc635f6f7bb31465920840c7db474" target="_top" xlink:title="IOTasks">
<polygon style="fill:none;stroke:black;" points="437,74 525,74 525,42 437,42 437,74"/>
<text text-anchor="middle" x="481" y="65" style="font-family:Helvetica;font-size:20.00;">IOTasks</text>
</a>
</g>
<g id="edge10" class="edge"><title>Node5-&gt;Node6</title>
<path style="fill:none;stroke:midnightblue;" d="M411,58C420,58 429,58 437,58"/>
<polygon style="fill:midnightblue;stroke:midnightblue;" points="411,61 401,58 411,54 411,61"/>
</g>
<g id="edge12" class="edge"><title>Node6-&gt;Node2</title>
<path style="fill:none;stroke:midnightblue;" d="M535,50C543,49 552,47 561,46"/>
<polygon style="fill:midnightblue;stroke:midnightblue;" points="535,53 525,52 534,47 535,53"/>
</g>
</g>
</svg>
