<?xml version="1.0" encoding="UTF-8" standalone="no"?>
<!DOCTYPE svg PUBLIC "-//W3C//DTD SVG 1.0//EN"
 "http://www.w3.org/TR/2001/REC-SVG-20010904/DTD/svg10.dtd" [
 <!ATTLIST svg xmlns:xlink CDATA #FIXED "http://www.w3.org/1999/xlink">
]>
<!-- Generated by dot version 1.13 (v16) (Mon August 23, 2004)
     For user: (jarrodneven) Jarrod  Neven   Title: G    Pages: 1 -->
<svg width="1286pt" height="521pt"
 viewBox = "-1 -1 1285 520"
 xmlns="http://www.w3.org/2000/svg" xmlns:xlink="http://www.w3.org/1999/xlink">
<g id="graph0" class="graph" style="font-family:Times-Roman;font-size:14.00;">
<title>G</title>
<g id="node1" class="node"><title>Node1</title>
<polygon style="fill:#bfbfbf;stroke:black;" points="5,325 119,325 119,293 5,293 5,325"/>
<text text-anchor="middle" x="62" y="316" style="font-family:Helvetica;font-size:20.00;">addxPLMessage</text>
</g>
<g id="node3" class="node"><title>Node2</title>
<a xlink:href="_security_system_8h.html#a723bf79e9ca7924d850e5c2be4029b1c" target="_top" xlink:title="Arm">
<polygon style="fill:none;stroke:black;" points="427,125 480,125 480,93 427,93 427,125"/>
<text text-anchor="middle" x="453" y="116" style="font-family:Helvetica;font-size:20.00;">Arm</text>
</a>
</g>
<g id="edge2" class="edge"><title>Node1-&gt;Node2</title>
<path style="fill:none;stroke:midnightblue;" d="M82,289C100,283 113,293 127,278 144,261 145,254 151,230 154,221 149,192 155,184 224,102 368,102 427,106"/>
<polygon style="fill:midnightblue;stroke:midnightblue;" points="84,292 73,293 81,286 84,292"/>
</g>
<g id="node5" class="node"><title>Node3</title>
<a xlink:href="x_p_l_8h.html#a3baecc6556e5cc7af0d59d0216aa217c" target="_top" xlink:title="SchemaProcessUDPMsg">
<polygon style="fill:none;stroke:black;" points="559,225 801,225 801,193 559,193 559,225"/>
<text text-anchor="middle" x="680" y="216" style="font-family:Helvetica;font-size:20.00;">SchemaProcessUDPMsg</text>
</a>
</g>
<g id="edge36" class="edge"><title>Node1-&gt;Node3</title>
<path style="fill:none;stroke:midnightblue;" d="M85,288C100,282 112,285 127,272 134,267 135,264 139,256 148,243 149,238 151,222 153,213 149,144 155,136 222,57 280,96 383,84 445,78 471,52 523,84 565,110 536,150 572,181 577,185 580,184 585,185 598,189 607,191 615,193"/>
<polygon style="fill:midnightblue;stroke:midnightblue;" points="86,291 76,293 83,285 86,291"/>
</g>
<g id="node13" class="node"><title>Node7</title>
<a xlink:href="_security_system_8h.html#ad7abffae7b40c1538c5411bfd808a68a" target="_top" xlink:title="Task process for managing the battery state.">
<polygon style="fill:none;stroke:black;" points="191,463 311,463 311,431 191,431 191,463"/>
<text text-anchor="middle" x="251" y="454" style="font-family:Helvetica;font-size:20.00;">BatteryTask</text>
</a>
</g>
<g id="edge12" class="edge"><title>Node1-&gt;Node7</title>
<path style="fill:none;stroke:midnightblue;" d="M126,332C151,365 121,400 155,431 165,440 178,444 191,447"/>
<polygon style="fill:midnightblue;stroke:midnightblue;" points="124,335 119,325 129,330 124,335"/>
</g>
<g id="node18" class="node"><title>Node9</title>
<a xlink:href="_security_system_8h.html#a3ca20943ab34a0d560cd22d88c0ba324" target="_top" xlink:title="Disarm">
<polygon style="fill:none;stroke:black;" points="414,375 493,375 493,343 414,343 414,375"/>
<text text-anchor="middle" x="453" y="366" style="font-family:Helvetica;font-size:20.00;">Disarm</text>
</a>
</g>
<g id="edge18" class="edge"><title>Node1-&gt;Node9</title>
<path style="fill:none;stroke:midnightblue;" d="M129,317C211,328 348,345 414,354"/>
<polygon style="fill:midnightblue;stroke:midnightblue;" points="129,320 119,316 129,314 129,320"/>
</g>
<g id="node20" class="node"><title>Node10</title>
<a xlink:href="_h_t_t_p_forms_8c.html#a686ae35a16ecb63daffafcd015ddb070" target="_top" xlink:title="Processes all HTTP GETS.">
<polygon style="fill:none;stroke:black;" points="594,300 767,300 767,268 594,268 594,300"/>
<text text-anchor="middle" x="680" y="291" style="font-family:Helvetica;font-size:20.00;">HTTPExecuteGet</text>
</a>
</g>
<g id="edge24" class="edge"><title>Node1-&gt;Node10</title>
<path style="fill:none;stroke:midnightblue;" d="M108,327C115,328 122,329 131,334 143,340 143,347 155,351 232,381 454,427 523,384 555,364 533,334 559,308 562,306 563,306 566,305 577,302 586,300 594,298"/>
<polygon style="fill:midnightblue;stroke:midnightblue;" points="107,330 98,325 108,324 107,330"/>
</g>
<g id="node24" class="node"><title>Node11</title>
<a xlink:href="_security_system_8c.html#a3ccbc635f6f7bb31465920840c7db474" target="_top" xlink:title="IOTasks">
<polygon style="fill:none;stroke:black;" points="207,513 295,513 295,481 207,481 207,513"/>
<text text-anchor="middle" x="251" y="504" style="font-family:Helvetica;font-size:20.00;">IOTasks</text>
</a>
</g>
<g id="edge26" class="edge"><title>Node1-&gt;Node11</title>
<path style="fill:none;stroke:midnightblue;" d="M126,333C163,382 107,434 155,481 169,494 189,498 207,500"/>
<polygon style="fill:midnightblue;stroke:midnightblue;" points="123,335 119,325 128,330 123,335"/>
</g>
<g id="node27" class="node"><title>Node12</title>
<a xlink:href="_security_system_8h.html#a1e04428a714d6c8c97cb8685f96933ee" target="_top" xlink:title="Panic">
<polygon style="fill:none;stroke:black;" points="420,325 486,325 486,293 420,293 420,325"/>
<text text-anchor="middle" x="453" y="316" style="font-family:Helvetica;font-size:20.00;">Panic</text>
</a>
</g>
<g id="edge30" class="edge"><title>Node1-&gt;Node12</title>
<path style="fill:none;stroke:midnightblue;" d="M129,309C214,309 356,309 420,309"/>
<polygon style="fill:midnightblue;stroke:midnightblue;" points="129,312 119,309 129,305 129,312"/>
</g>
<g id="node32" class="node"><title>Node13</title>
<a xlink:href="_security_system_8c.html#ad2cdbcce787b8a3c88addf52f996805f" target="_top" xlink:title="StateChangeToArm">
<polygon style="fill:none;stroke:black;" points="156,225 347,225 347,193 156,193 156,225"/>
<text text-anchor="middle" x="251" y="216" style="font-family:Helvetica;font-size:20.00;">StateChangeToArm</text>
</a>
</g>
<g id="edge38" class="edge"><title>Node1-&gt;Node13</title>
<path style="fill:none;stroke:midnightblue;" d="M126,286C143,266 131,243 155,225 155,225 156,225 156,224"/>
<polygon style="fill:midnightblue;stroke:midnightblue;" points="129,288 119,293 124,283 129,288"/>
</g>
<g id="node47" class="node"><title>Node17</title>
<a xlink:href="_authenticate_8c.html#a207b19b2185ffaa19d1d3f053b996121" target="_top" xlink:title="xPLAuthenticate">
<polygon style="fill:none;stroke:black;" points="170,37 332,37 332,5 170,5 170,37"/>
<text text-anchor="middle" x="251" y="28" style="font-family:Helvetica;font-size:20.00;">xPLAuthenticate</text>
</a>
</g>
<g id="edge60" class="edge"><title>Node1-&gt;Node17</title>
<path style="fill:none;stroke:midnightblue;" d="M125,285C188,202 77,117 155,37 159,33 164,29 170,27"/>
<polygon style="fill:midnightblue;stroke:midnightblue;" points="128,287 119,293 122,283 128,287"/>
</g>
<g id="edge4" class="edge"><title>Node2-&gt;Node3</title>
<path style="fill:none;stroke:midnightblue;" d="M490,112C501,114 514,118 523,125 551,146 531,174 559,193"/>
<polygon style="fill:midnightblue;stroke:midnightblue;" points="489,115 480,110 490,109 489,115"/>
</g>
<g id="node7" class="node"><title>Node4</title>
<a xlink:href="x_p_l_8c.html#a41c59f641ff95b999e66c0d45117b73d" target="_top" xlink:title="XPLProcessUDPMsg">
<polygon style="fill:none;stroke:black;" points="837,275 1043,275 1043,243 837,243 837,275"/>
<text text-anchor="middle" x="940" y="266" style="font-family:Helvetica;font-size:20.00;">XPLProcessUDPMsg</text>
</a>
</g>
<g id="edge6" class="edge"><title>Node3-&gt;Node4</title>
<path style="fill:none;stroke:midnightblue;" d="M810,229C820,234 824,239 837,243"/>
<polygon style="fill:midnightblue;stroke:midnightblue;" points="809,232 801,225 812,226 809,232"/>
</g>
<g id="node9" class="node"><title>Node5</title>
<a xlink:href="x_p_l_8h.html#a86d914c966f337c4e3a6fda46a945d11" target="_top" xlink:title="XPLTasks">
<polygon style="fill:none;stroke:black;" points="1080,346 1183,346 1183,314 1080,314 1080,346"/>
<text text-anchor="middle" x="1131" y="337" style="font-family:Helvetica;font-size:20.00;">XPLTasks</text>
</a>
</g>
<g id="edge8" class="edge"><title>Node4-&gt;Node5</title>
<path style="fill:none;stroke:midnightblue;" d="M1051,281C1063,292 1063,304 1079,314 1079,314 1080,314 1080,315"/>
<polygon style="fill:midnightblue;stroke:midnightblue;" points="1049,284 1043,275 1053,278 1049,284"/>
</g>
<g id="node11" class="node"><title>Node6</title>
<a xlink:href="_main_demo_8c.html#a6288eba0f8e8ad3ab1544ad731eb7667" target="_top" xlink:title="main">
<polygon style="fill:none;stroke:black;" points="1220,346 1279,346 1279,314 1220,314 1220,346"/>
<text text-anchor="middle" x="1249" y="337" style="font-family:Helvetica;font-size:20.00;">main</text>
</a>
</g>
<g id="edge10" class="edge"><title>Node5-&gt;Node6</title>
<path style="fill:none;stroke:midnightblue;" d="M1193,330C1203,330 1212,330 1220,330"/>
<polygon style="fill:midnightblue;stroke:midnightblue;" points="1193,333 1183,330 1193,326 1193,333"/>
</g>
<g id="node15" class="node"><title>Node8</title>
<a xlink:href="x_p_l_8h.html#a62b4d90791ab073f74677d42bfb64253" target="_top" xlink:title="SchemaTasks">
<polygon style="fill:none;stroke:black;" points="383,463 523,463 523,431 383,431 383,463"/>
<text text-anchor="middle" x="453" y="454" style="font-family:Helvetica;font-size:20.00;">SchemaTasks</text>
</a>
</g>
<g id="edge14" class="edge"><title>Node7-&gt;Node8</title>
<path style="fill:none;stroke:midnightblue;" d="M321,447C341,447 362,447 383,447"/>
<polygon style="fill:midnightblue;stroke:midnightblue;" points="321,450 311,447 321,443 321,450"/>
</g>
<g id="edge16" class="edge"><title>Node8-&gt;Node5</title>
<path style="fill:none;stroke:midnightblue;" d="M533,433C674,409 963,360 1080,339"/>
<polygon style="fill:midnightblue;stroke:midnightblue;" points="533,436 523,435 532,430 533,436"/>
</g>
<g id="edge22" class="edge"><title>Node9-&gt;Node3</title>
<path style="fill:none;stroke:midnightblue;" d="M503,354C510,351 517,348 523,343 564,306 518,261 559,225"/>
<polygon style="fill:midnightblue;stroke:midnightblue;" points="504,357 493,357 502,351 504,357"/>
</g>
<g id="edge20" class="edge"><title>Node9-&gt;Node10</title>
<path style="fill:none;stroke:midnightblue;" d="M503,352C510,350 517,347 523,343 545,330 538,313 559,300 570,294 582,290 594,287"/>
<polygon style="fill:midnightblue;stroke:midnightblue;" points="504,355 493,355 502,349 504,355"/>
</g>
<g id="edge28" class="edge"><title>Node11-&gt;Node8</title>
<path style="fill:none;stroke:midnightblue;" d="M305,491C319,488 334,485 347,481 365,475 367,469 383,463"/>
<polygon style="fill:midnightblue;stroke:midnightblue;" points="305,494 295,492 305,488 305,494"/>
</g>
<g id="edge34" class="edge"><title>Node12-&gt;Node3</title>
<path style="fill:none;stroke:midnightblue;" d="M496,305C506,303 515,299 523,293 551,273 531,245 559,225"/>
<polygon style="fill:midnightblue;stroke:midnightblue;" points="496,308 486,307 495,302 496,308"/>
</g>
<g id="edge32" class="edge"><title>Node12-&gt;Node10</title>
<path style="fill:none;stroke:midnightblue;" d="M496,304C523,301 560,297 594,293"/>
<polygon style="fill:midnightblue;stroke:midnightblue;" points="496,307 486,305 496,301 496,307"/>
</g>
<g id="edge40" class="edge"><title>Node13-&gt;Node2</title>
<path style="fill:none;stroke:midnightblue;" d="M355,186C371,168 359,144 383,125 396,116 413,112 427,110"/>
<polygon style="fill:midnightblue;stroke:midnightblue;" points="357,189 347,193 352,184 357,189"/>
</g>
<g id="node35" class="node"><title>Node14</title>
<a xlink:href="_security_system_8h.html#af7b9ebfe6bb90725304e83cadb4cced8" target="_top" xlink:title="ArmAway">
<polygon style="fill:none;stroke:black;" points="403,225 504,225 504,193 403,193 403,225"/>
<text text-anchor="middle" x="453" y="216" style="font-family:Helvetica;font-size:20.00;">ArmAway</text>
</a>
</g>
<g id="edge42" class="edge"><title>Node13-&gt;Node14</title>
<path style="fill:none;stroke:midnightblue;" d="M357,209C373,209 389,209 403,209"/>
<polygon style="fill:midnightblue;stroke:midnightblue;" points="357,212 347,209 357,205 357,212"/>
</g>
<g id="node39" class="node"><title>Node15</title>
<a xlink:href="_security_system_8h.html#afba09fe6505822eb03078088f14ef89b" target="_top" xlink:title="ArmHome">
<polygon style="fill:none;stroke:black;" points="400,275 506,275 506,243 400,243 400,275"/>
<text text-anchor="middle" x="453" y="266" style="font-family:Helvetica;font-size:20.00;">ArmHome</text>
</a>
</g>
<g id="edge48" class="edge"><title>Node13-&gt;Node15</title>
<path style="fill:none;stroke:midnightblue;" d="M357,229C366,234 370,238 383,243 388,245 394,247 400,248"/>
<polygon style="fill:midnightblue;stroke:midnightblue;" points="355,232 347,225 358,225 355,232"/>
</g>
<g id="node43" class="node"><title>Node16</title>
<a xlink:href="_security_system_8h.html#aad7b06369f4a1f3b427e137a9f84a5c0" target="_top" xlink:title="ArmLatchkey">
<polygon style="fill:none;stroke:black;" points="387,175 520,175 520,143 387,143 387,175"/>
<text text-anchor="middle" x="453" y="166" style="font-family:Helvetica;font-size:20.00;">ArmLatchkey</text>
</a>
</g>
<g id="edge54" class="edge"><title>Node13-&gt;Node16</title>
<path style="fill:none;stroke:midnightblue;" d="M357,190C366,185 370,181 383,175 384,175 385,174 387,174"/>
<polygon style="fill:midnightblue;stroke:midnightblue;" points="358,193 347,193 356,187 358,193"/>
</g>
<g id="edge46" class="edge"><title>Node14-&gt;Node3</title>
<path style="fill:none;stroke:midnightblue;" d="M514,209C528,209 544,209 559,209"/>
<polygon style="fill:midnightblue;stroke:midnightblue;" points="514,212 504,209 514,205 514,212"/>
</g>
<g id="edge44" class="edge"><title>Node14-&gt;Node10</title>
<path style="fill:none;stroke:midnightblue;" d="M514,220C517,222 520,223 523,225 545,239 538,256 559,268 570,274 582,278 594,281"/>
<polygon style="fill:midnightblue;stroke:midnightblue;" points="513,223 504,217 515,217 513,223"/>
</g>
<g id="edge52" class="edge"><title>Node15-&gt;Node3</title>
<path style="fill:none;stroke:midnightblue;" d="M516,246C518,245 521,244 523,243 540,237 542,231 559,225"/>
<polygon style="fill:midnightblue;stroke:midnightblue;" points="516,249 506,248 515,243 516,249"/>
</g>
<g id="edge50" class="edge"><title>Node15-&gt;Node10</title>
<path style="fill:none;stroke:midnightblue;" d="M516,266C540,269 568,271 594,274"/>
<polygon style="fill:midnightblue;stroke:midnightblue;" points="516,269 506,265 516,263 516,269"/>
</g>
<g id="edge58" class="edge"><title>Node16-&gt;Node3</title>
<path style="fill:none;stroke:midnightblue;" d="M529,178C541,184 545,189 559,193"/>
<polygon style="fill:midnightblue;stroke:midnightblue;" points="528,181 520,174 531,175 528,181"/>
</g>
<g id="edge56" class="edge"><title>Node16-&gt;Node10</title>
<path style="fill:none;stroke:midnightblue;" d="M527,180C553,209 528,243 559,268 569,276 581,281 594,284"/>
<polygon style="fill:midnightblue;stroke:midnightblue;" points="525,183 520,173 530,178 525,183"/>
</g>
<g id="edge62" class="edge"><title>Node17-&gt;Node3</title>
<path style="fill:none;stroke:midnightblue;" d="M342,7C401,4 474,9 523,51 565,87 542,117 555,169 557,177 554,181 559,185 562,188 566,191 569,193"/>
<polygon style="fill:midnightblue;stroke:midnightblue;" points="342,10 332,8 342,4 342,10"/>
</g>
</g>
</svg>
