<?xml version="1.0" encoding="UTF-8" standalone="no"?>
<!DOCTYPE svg PUBLIC "-//W3C//DTD SVG 1.0//EN"
 "http://www.w3.org/TR/2001/REC-SVG-20010904/DTD/svg10.dtd" [
 <!ATTLIST svg xmlns:xlink CDATA #FIXED "http://www.w3.org/1999/xlink">
]>
<!-- Generated by dot version 1.13 (v16) (Mon August 23, 2004)
     For user: (jarrodneven) Jarrod  Neven   Title: G    Pages: 1 -->
<svg width="514pt" height="44pt"
 viewBox = "-1 -1 513 43"
 xmlns="http://www.w3.org/2000/svg" xmlns:xlink="http://www.w3.org/1999/xlink">
<g id="graph0" class="graph" style="font-family:Times-Roman;font-size:14.00;">
<title>G</title>
<g id="node1" class="node"><title>Node1</title>
<polygon style="fill:#bfbfbf;stroke:black;" points="6,36 95,36 95,4 6,4 6,36"/>
<text text-anchor="middle" x="50" y="27" style="font-family:Helvetica;font-size:20.00;">SendDisarm</text>
</g>
<g id="node3" class="node"><title>Node2</title>
<a xlink:href="x_p_l_8h.html#a62b4d90791ab073f74677d42bfb64253" target="_top" xlink:title="SchemaTasks">
<polygon style="fill:none;stroke:black;" points="131,36 271,36 271,4 131,4 131,36"/>
<text text-anchor="middle" x="201" y="27" style="font-family:Helvetica;font-size:20.00;">SchemaTasks</text>
</a>
</g>
<g id="edge2" class="edge"><title>Node1-&gt;Node2</title>
<path style="fill:none;stroke:midnightblue;" d="M105,20C114,20 123,20 131,20"/>
<polygon style="fill:midnightblue;stroke:midnightblue;" points="105,23 95,20 105,16 105,23"/>
</g>
<g id="node5" class="node"><title>Node3</title>
<a xlink:href="x_p_l_8h.html#a86d914c966f337c4e3a6fda46a945d11" target="_top" xlink:title="XPLTasks">
<polygon style="fill:none;stroke:black;" points="308,36 411,36 411,4 308,4 308,36"/>
<text text-anchor="middle" x="359" y="27" style="font-family:Helvetica;font-size:20.00;">XPLTasks</text>
</a>
</g>
<g id="edge4" class="edge"><title>Node2-&gt;Node3</title>
<path style="fill:none;stroke:midnightblue;" d="M281,20C290,20 299,20 308,20"/>
<polygon style="fill:midnightblue;stroke:midnightblue;" points="281,23 271,20 281,16 281,23"/>
</g>
<g id="node7" class="node"><title>Node4</title>
<a xlink:href="_main_demo_8c.html#a6288eba0f8e8ad3ab1544ad731eb7667" target="_top" xlink:title="main">
<polygon style="fill:none;stroke:black;" points="448,36 507,36 507,4 448,4 448,36"/>
<text text-anchor="middle" x="477" y="27" style="font-family:Helvetica;font-size:20.00;">main</text>
</a>
</g>
<g id="edge6" class="edge"><title>Node3-&gt;Node4</title>
<path style="fill:none;stroke:midnightblue;" d="M421,20C431,20 440,20 448,20"/>
<polygon style="fill:midnightblue;stroke:midnightblue;" points="421,23 411,20 421,16 421,23"/>
</g>
</g>
</svg>
