<?xml version="1.0" encoding="UTF-8" standalone="no"?>
<!DOCTYPE svg PUBLIC "-//W3C//DTD SVG 1.0//EN"
 "http://www.w3.org/TR/2001/REC-SVG-20010904/DTD/svg10.dtd" [
 <!ATTLIST svg xmlns:xlink CDATA #FIXED "http://www.w3.org/1999/xlink">
]>
<!-- Generated by dot version 1.13 (v16) (Mon August 23, 2004)
     For user: (jarrodneven) Jarrod  Neven   Title: G    Pages: 1 -->
<svg width="348pt" height="144pt"
 viewBox = "-1 -1 347 143"
 xmlns="http://www.w3.org/2000/svg" xmlns:xlink="http://www.w3.org/1999/xlink">
<g id="graph0" class="graph" style="font-family:Times-Roman;font-size:14.00;">
<title>G</title>
<g id="node1" class="node"><title>Node1</title>
<polygon style="fill:#bfbfbf;stroke:black;" points="5,86 91,86 91,54 5,54 5,86"/>
<text text-anchor="middle" x="48" y="77" style="font-family:Helvetica;font-size:20.00;">EnableArea</text>
</g>
<g id="node3" class="node"><title>Node2</title>
<a xlink:href="_security_system_8c.html#a290b0da69aaf212aa38c219c45a6d8a9" target="_top" xlink:title="isZoneMemberOfArea">
<polygon style="fill:none;stroke:black;" points="128,36 341,36 341,4 128,4 128,36"/>
<text text-anchor="middle" x="234" y="27" style="font-family:Helvetica;font-size:20.00;">isZoneMemberOfArea</text>
</a>
</g>
<g id="edge2" class="edge"><title>Node1-&gt;Node2</title>
<path style="fill:none;stroke:midnightblue;" d="M91,54C104,48 108,44 118,40"/>
<polygon style="fill:midnightblue;stroke:midnightblue;" points="117,36 128,36 120,43 117,36"/>
</g>
<g id="node5" class="node"><title>Node3</title>
<a xlink:href="x_p_l_8c.html#a1099a7d6ccfe562deba149fd4acef424" target="_top" xlink:title="xPLSaveEEConfig">
<polygon style="fill:none;stroke:black;" points="144,86 325,86 325,54 144,54 144,86"/>
<text text-anchor="middle" x="234" y="77" style="font-family:Helvetica;font-size:20.00;">xPLSaveEEConfig</text>
</a>
</g>
<g id="edge4" class="edge"><title>Node1-&gt;Node3</title>
<path style="fill:none;stroke:midnightblue;" d="M91,70C104,70 119,70 134,70"/>
<polygon style="fill:midnightblue;stroke:midnightblue;" points="134,66 144,70 134,73 134,66"/>
</g>
<g id="node7" class="node"><title>Node4</title>
<a xlink:href="x_p_l_8c.html#abde6ae0f37ef47bee8e881bba8502169" target="_top" xlink:title="XPLSendHeader">
<polygon style="fill:none;stroke:black;" points="151,136 317,136 317,104 151,104 151,136"/>
<text text-anchor="middle" x="234" y="127" style="font-family:Helvetica;font-size:20.00;">XPLSendHeader</text>
</a>
</g>
<g id="edge6" class="edge"><title>Node1-&gt;Node4</title>
<path style="fill:none;stroke:midnightblue;" d="M91,86C108,94 110,99 127,104 132,105 136,107 141,108"/>
<polygon style="fill:midnightblue;stroke:midnightblue;" points="142,105 151,110 141,111 142,105"/>
</g>
</g>
</svg>
