<?xml version="1.0" encoding="UTF-8" standalone="no"?>
<!DOCTYPE svg PUBLIC "-//W3C//DTD SVG 1.0//EN"
 "http://www.w3.org/TR/2001/REC-SVG-20010904/DTD/svg10.dtd" [
 <!ATTLIST svg xmlns:xlink CDATA #FIXED "http://www.w3.org/1999/xlink">
]>
<!-- Generated by dot version 1.13 (v16) (Mon August 23, 2004)
     For user: (jarrodneven) Jarrod  Neven   Title: G    Pages: 1 -->
<svg width="818pt" height="94pt"
 viewBox = "-1 -1 817 93"
 xmlns="http://www.w3.org/2000/svg" xmlns:xlink="http://www.w3.org/1999/xlink">
<g id="graph0" class="graph" style="font-family:Times-Roman;font-size:14.00;">
<title>G</title>
<g id="node1" class="node"><title>Node1</title>
<polygon style="fill:#bfbfbf;stroke:black;" points="6,61 55,61 55,29 6,29 6,61"/>
<text text-anchor="middle" x="30" y="52" style="font-family:Helvetica;font-size:20.00;">Panic</text>
</g>
<g id="node3" class="node"><title>Node2</title>
<a xlink:href="_h_t_t_p_forms_8c.html#a686ae35a16ecb63daffafcd015ddb070" target="_top" xlink:title="Processes all HTTP GETS.">
<polygon style="fill:none;stroke:black;" points="126,36 299,36 299,4 126,4 126,36"/>
<text text-anchor="middle" x="212" y="27" style="font-family:Helvetica;font-size:20.00;">HTTPExecuteGet</text>
</a>
</g>
<g id="edge2" class="edge"><title>Node1-&gt;Node2</title>
<path style="fill:none;stroke:midnightblue;" d="M65,40C73,39 82,37 91,36 102,35 114,33 126,31"/>
<polygon style="fill:midnightblue;stroke:midnightblue;" points="65,43 55,41 65,37 65,43"/>
</g>
<g id="node5" class="node"><title>Node3</title>
<a xlink:href="x_p_l_8h.html#a3baecc6556e5cc7af0d59d0216aa217c" target="_top" xlink:title="SchemaProcessUDPMsg">
<polygon style="fill:none;stroke:black;" points="91,86 333,86 333,54 91,54 91,86"/>
<text text-anchor="middle" x="212" y="77" style="font-family:Helvetica;font-size:20.00;">SchemaProcessUDPMsg</text>
</a>
</g>
<g id="edge4" class="edge"><title>Node1-&gt;Node3</title>
<path style="fill:none;stroke:midnightblue;" d="M65,51C73,52 82,53 91,54"/>
<polygon style="fill:midnightblue;stroke:midnightblue;" points="64,54 55,49 65,48 64,54"/>
</g>
<g id="node7" class="node"><title>Node4</title>
<a xlink:href="x_p_l_8c.html#a41c59f641ff95b999e66c0d45117b73d" target="_top" xlink:title="XPLProcessUDPMsg">
<polygon style="fill:none;stroke:black;" points="369,86 575,86 575,54 369,54 369,86"/>
<text text-anchor="middle" x="472" y="77" style="font-family:Helvetica;font-size:20.00;">XPLProcessUDPMsg</text>
</a>
</g>
<g id="edge6" class="edge"><title>Node3-&gt;Node4</title>
<path style="fill:none;stroke:midnightblue;" d="M343,70C352,70 360,70 369,70"/>
<polygon style="fill:midnightblue;stroke:midnightblue;" points="343,73 333,70 343,66 343,73"/>
</g>
<g id="node9" class="node"><title>Node5</title>
<a xlink:href="x_p_l_8h.html#a86d914c966f337c4e3a6fda46a945d11" target="_top" xlink:title="XPLTasks">
<polygon style="fill:none;stroke:black;" points="612,86 715,86 715,54 612,54 612,86"/>
<text text-anchor="middle" x="663" y="77" style="font-family:Helvetica;font-size:20.00;">XPLTasks</text>
</a>
</g>
<g id="edge8" class="edge"><title>Node4-&gt;Node5</title>
<path style="fill:none;stroke:midnightblue;" d="M585,70C594,70 603,70 612,70"/>
<polygon style="fill:midnightblue;stroke:midnightblue;" points="585,73 575,70 585,66 585,73"/>
</g>
<g id="node11" class="node"><title>Node6</title>
<a xlink:href="_main_demo_8c.html#a6288eba0f8e8ad3ab1544ad731eb7667" target="_top" xlink:title="main">
<polygon style="fill:none;stroke:black;" points="752,86 811,86 811,54 752,54 752,86"/>
<text text-anchor="middle" x="781" y="77" style="font-family:Helvetica;font-size:20.00;">main</text>
</a>
</g>
<g id="edge10" class="edge"><title>Node5-&gt;Node6</title>
<path style="fill:none;stroke:midnightblue;" d="M725,70C735,70 744,70 752,70"/>
<polygon style="fill:midnightblue;stroke:midnightblue;" points="725,73 715,70 725,66 725,73"/>
</g>
</g>
</svg>
