<?xml version="1.0" encoding="UTF-8" standalone="no"?>
<!DOCTYPE svg PUBLIC "-//W3C//DTD SVG 1.0//EN"
 "http://www.w3.org/TR/2001/REC-SVG-20010904/DTD/svg10.dtd" [
 <!ATTLIST svg xmlns:xlink CDATA #FIXED "http://www.w3.org/1999/xlink">
]>
<!-- Generated by dot version 1.13 (v16) (Mon August 23, 2004)
     For user: (jarrodneven) Jarrod  Neven   Title: G    Pages: 1 -->
<svg width="614pt" height="144pt"
 viewBox = "-1 -1 613 143"
 xmlns="http://www.w3.org/2000/svg" xmlns:xlink="http://www.w3.org/1999/xlink">
<g id="graph0" class="graph" style="font-family:Times-Roman;font-size:14.00;">
<title>G</title>
<g id="node1" class="node"><title>Node1</title>
<polygon style="fill:#bfbfbf;stroke:black;" points="6,86 145,86 145,54 6,54 6,86"/>
<text text-anchor="middle" x="75" y="77" style="font-family:Helvetica;font-size:20.00;">StateChangeToArm</text>
</g>
<g id="node3" class="node"><title>Node2</title>
<a xlink:href="_security_system_8h.html#a30c3c9cdda2491c17d5d6d5cc6426b31" target="_top" xlink:title="addxPLMessage">
<polygon style="fill:none;stroke:black;" points="206,36 371,36 371,4 206,4 206,36"/>
<text text-anchor="middle" x="288" y="27" style="font-family:Helvetica;font-size:20.00;">addxPLMessage</text>
</a>
</g>
<g id="edge2" class="edge"><title>Node1-&gt;Node2</title>
<path style="fill:none;stroke:midnightblue;" d="M145,54C162,48 164,42 181,36 186,35 191,33 196,32"/>
<polygon style="fill:midnightblue;stroke:midnightblue;" points="196,29 206,30 197,35 196,29"/>
</g>
<g id="node7" class="node"><title>Node4</title>
<a xlink:href="_security_system_8c.html#a2d0a6f4e811adf18c96693529c2d81b4" target="_top" xlink:title="ArmingZoneState">
<polygon style="fill:none;stroke:black;" points="202,86 374,86 374,54 202,54 202,86"/>
<text text-anchor="middle" x="288" y="77" style="font-family:Helvetica;font-size:20.00;">ArmingZoneState</text>
</a>
</g>
<g id="edge6" class="edge"><title>Node1-&gt;Node4</title>
<path style="fill:none;stroke:midnightblue;" d="M145,70C160,70 176,70 192,70"/>
<polygon style="fill:midnightblue;stroke:midnightblue;" points="192,66 202,70 192,73 192,66"/>
</g>
<g id="node9" class="node"><title>Node5</title>
<a xlink:href="_security_system_8c.html#a290b0da69aaf212aa38c219c45a6d8a9" target="_top" xlink:title="isZoneMemberOfArea">
<polygon style="fill:none;stroke:black;" points="182,136 395,136 395,104 182,104 182,136"/>
<text text-anchor="middle" x="288" y="127" style="font-family:Helvetica;font-size:20.00;">isZoneMemberOfArea</text>
</a>
</g>
<g id="edge8" class="edge"><title>Node1-&gt;Node5</title>
<path style="fill:none;stroke:midnightblue;" d="M145,86C158,92 162,96 172,101"/>
<polygon style="fill:midnightblue;stroke:midnightblue;" points="173,98 182,104 171,104 173,98"/>
</g>
<g id="node5" class="node"><title>Node3</title>
<a xlink:href="_security_system_8c.html#a491f8822a8274ca5244c41d226e7136e" target="_top" xlink:title="ClearArmingFlags">
<polygon style="fill:none;stroke:black;" points="431,36 607,36 607,4 431,4 431,36"/>
<text text-anchor="middle" x="519" y="27" style="font-family:Helvetica;font-size:20.00;">ClearArmingFlags</text>
</a>
</g>
<g id="edge4" class="edge"><title>Node2-&gt;Node3</title>
<path style="fill:none;stroke:midnightblue;" d="M371,20C387,20 404,20 421,20"/>
<polygon style="fill:midnightblue;stroke:midnightblue;" points="421,16 431,20 421,23 421,16"/>
</g>
</g>
</svg>
