<?xml version="1.0" encoding="UTF-8" standalone="no"?>
<!DOCTYPE svg PUBLIC "-//W3C//DTD SVG 1.0//EN"
 "http://www.w3.org/TR/2001/REC-SVG-20010904/DTD/svg10.dtd" [
 <!ATTLIST svg xmlns:xlink CDATA #FIXED "http://www.w3.org/1999/xlink">
]>
<!-- Generated by dot version 1.13 (v16) (Mon August 23, 2004)
     For user: (jarrodneven) Jarrod  Neven   Title: G    Pages: 1 -->
<svg width="884pt" height="44pt"
 viewBox = "-1 -1 883 43"
 xmlns="http://www.w3.org/2000/svg" xmlns:xlink="http://www.w3.org/1999/xlink">
<g id="graph0" class="graph" style="font-family:Times-Roman;font-size:14.00;">
<title>G</title>
<g id="node1" class="node"><title>Node1</title>
<polygon style="fill:#bfbfbf;stroke:black;" points="5,36 169,36 169,4 5,4 5,36"/>
<text text-anchor="middle" x="87" y="27" style="font-family:Helvetica;font-size:20.00;">StateChangeToAlarmed</text>
</g>
<g id="node3" class="node"><title>Node2</title>
<a xlink:href="_security_system_8c.html#aa4b206c6022f03ed09cc1e7c0c1c64ac" target="_top" xlink:title="TaskAlarming">
<polygon style="fill:none;stroke:black;" points="205,36 341,36 341,4 205,4 205,36"/>
<text text-anchor="middle" x="273" y="27" style="font-family:Helvetica;font-size:20.00;">TaskAlarming</text>
</a>
</g>
<g id="edge2" class="edge"><title>Node1-&gt;Node2</title>
<path style="fill:none;stroke:midnightblue;" d="M179,20C188,20 196,20 205,20"/>
<polygon style="fill:midnightblue;stroke:midnightblue;" points="179,23 169,20 179,16 179,23"/>
</g>
<g id="node5" class="node"><title>Node3</title>
<a xlink:href="_security_system_8c.html#a3ccbc635f6f7bb31465920840c7db474" target="_top" xlink:title="IOTasks">
<polygon style="fill:none;stroke:black;" points="377,36 465,36 465,4 377,4 377,36"/>
<text text-anchor="middle" x="421" y="27" style="font-family:Helvetica;font-size:20.00;">IOTasks</text>
</a>
</g>
<g id="edge4" class="edge"><title>Node2-&gt;Node3</title>
<path style="fill:none;stroke:midnightblue;" d="M351,20C360,20 369,20 377,20"/>
<polygon style="fill:midnightblue;stroke:midnightblue;" points="351,23 341,20 351,16 351,23"/>
</g>
<g id="node7" class="node"><title>Node4</title>
<a xlink:href="x_p_l_8h.html#a62b4d90791ab073f74677d42bfb64253" target="_top" xlink:title="SchemaTasks">
<polygon style="fill:none;stroke:black;" points="501,36 641,36 641,4 501,4 501,36"/>
<text text-anchor="middle" x="571" y="27" style="font-family:Helvetica;font-size:20.00;">SchemaTasks</text>
</a>
</g>
<g id="edge6" class="edge"><title>Node3-&gt;Node4</title>
<path style="fill:none;stroke:midnightblue;" d="M475,20C484,20 493,20 501,20"/>
<polygon style="fill:midnightblue;stroke:midnightblue;" points="475,23 465,20 475,16 475,23"/>
</g>
<g id="node9" class="node"><title>Node5</title>
<a xlink:href="x_p_l_8h.html#a86d914c966f337c4e3a6fda46a945d11" target="_top" xlink:title="XPLTasks">
<polygon style="fill:none;stroke:black;" points="678,36 781,36 781,4 678,4 678,36"/>
<text text-anchor="middle" x="729" y="27" style="font-family:Helvetica;font-size:20.00;">XPLTasks</text>
</a>
</g>
<g id="edge8" class="edge"><title>Node4-&gt;Node5</title>
<path style="fill:none;stroke:midnightblue;" d="M651,20C660,20 669,20 678,20"/>
<polygon style="fill:midnightblue;stroke:midnightblue;" points="651,23 641,20 651,16 651,23"/>
</g>
<g id="node11" class="node"><title>Node6</title>
<a xlink:href="_main_demo_8c.html#a6288eba0f8e8ad3ab1544ad731eb7667" target="_top" xlink:title="main">
<polygon style="fill:none;stroke:black;" points="818,36 877,36 877,4 818,4 818,36"/>
<text text-anchor="middle" x="847" y="27" style="font-family:Helvetica;font-size:20.00;">main</text>
</a>
</g>
<g id="edge10" class="edge"><title>Node5-&gt;Node6</title>
<path style="fill:none;stroke:midnightblue;" d="M791,20C801,20 810,20 818,20"/>
<polygon style="fill:midnightblue;stroke:midnightblue;" points="791,23 781,20 791,16 791,23"/>
</g>
</g>
</svg>
