<?xml version="1.0" encoding="UTF-8" standalone="no"?>
<!DOCTYPE svg PUBLIC "-//W3C//DTD SVG 1.0//EN"
 "http://www.w3.org/TR/2001/REC-SVG-20010904/DTD/svg10.dtd" [
 <!ATTLIST svg xmlns:xlink CDATA #FIXED "http://www.w3.org/1999/xlink">
]>
<!-- Generated by dot version 1.13 (v16) (Mon August 23, 2004)
     For user: (jarrodneven) Jarrod  Neven   Title: G    Pages: 1 -->
<svg width="1078pt" height="194pt"
 viewBox = "-1 -1 1077 193"
 xmlns="http://www.w3.org/2000/svg" xmlns:xlink="http://www.w3.org/1999/xlink">
<g id="graph0" class="graph" style="font-family:Times-Roman;font-size:14.00;">
<title>G</title>
<g id="node1" class="node"><title>Node1</title>
<polygon style="fill:#bfbfbf;stroke:black;" points="6,111 145,111 145,79 6,79 6,111"/>
<text text-anchor="middle" x="75" y="102" style="font-family:Helvetica;font-size:20.00;">StateChangeToArm</text>
</g>
<g id="node3" class="node"><title>Node2</title>
<a xlink:href="_security_system_8h.html#a723bf79e9ca7924d850e5c2be4029b1c" target="_top" xlink:title="Arm">
<polygon style="fill:none;stroke:black;" points="222,36 275,36 275,4 222,4 222,36"/>
<text text-anchor="middle" x="248" y="27" style="font-family:Helvetica;font-size:20.00;">Arm</text>
</a>
</g>
<g id="edge2" class="edge"><title>Node1-&gt;Node2</title>
<path style="fill:none;stroke:midnightblue;" d="M154,73C165,61 163,48 181,36 194,29 209,25 222,22"/>
<polygon style="fill:midnightblue;stroke:midnightblue;" points="156,76 146,79 152,70 156,76"/>
</g>
<g id="node13" class="node"><title>Node7</title>
<a xlink:href="_security_system_8h.html#af7b9ebfe6bb90725304e83cadb4cced8" target="_top" xlink:title="ArmAway">
<polygon style="fill:none;stroke:black;" points="198,86 299,86 299,54 198,54 198,86"/>
<text text-anchor="middle" x="248" y="77" style="font-family:Helvetica;font-size:20.00;">ArmAway</text>
</a>
</g>
<g id="edge12" class="edge"><title>Node1-&gt;Node7</title>
<path style="fill:none;stroke:midnightblue;" d="M155,83C170,81 184,79 198,77"/>
<polygon style="fill:midnightblue;stroke:midnightblue;" points="155,86 145,85 154,80 155,86"/>
</g>
<g id="node18" class="node"><title>Node9</title>
<a xlink:href="_security_system_8h.html#afba09fe6505822eb03078088f14ef89b" target="_top" xlink:title="ArmHome">
<polygon style="fill:none;stroke:black;" points="195,136 301,136 301,104 195,104 195,136"/>
<text text-anchor="middle" x="248" y="127" style="font-family:Helvetica;font-size:20.00;">ArmHome</text>
</a>
</g>
<g id="edge18" class="edge"><title>Node1-&gt;Node9</title>
<path style="fill:none;stroke:midnightblue;" d="M155,106C169,108 182,110 195,112"/>
<polygon style="fill:midnightblue;stroke:midnightblue;" points="155,109 145,105 155,103 155,109"/>
</g>
<g id="node22" class="node"><title>Node10</title>
<a xlink:href="_security_system_8h.html#aad7b06369f4a1f3b427e137a9f84a5c0" target="_top" xlink:title="ArmLatchkey">
<polygon style="fill:none;stroke:black;" points="182,186 315,186 315,154 182,154 182,186"/>
<text text-anchor="middle" x="248" y="177" style="font-family:Helvetica;font-size:20.00;">ArmLatchkey</text>
</a>
</g>
<g id="edge24" class="edge"><title>Node1-&gt;Node10</title>
<path style="fill:none;stroke:midnightblue;" d="M154,117C165,129 163,142 181,154 181,154 182,154 182,155"/>
<polygon style="fill:midnightblue;stroke:midnightblue;" points="152,120 146,111 156,114 152,120"/>
</g>
<g id="node5" class="node"><title>Node3</title>
<a xlink:href="x_p_l_8h.html#a3baecc6556e5cc7af0d59d0216aa217c" target="_top" xlink:title="SchemaProcessUDPMsg">
<polygon style="fill:none;stroke:black;" points="351,86 593,86 593,54 351,54 351,86"/>
<text text-anchor="middle" x="472" y="77" style="font-family:Helvetica;font-size:20.00;">SchemaProcessUDPMsg</text>
</a>
</g>
<g id="edge4" class="edge"><title>Node2-&gt;Node3</title>
<path style="fill:none;stroke:midnightblue;" d="M285,27C295,30 305,33 315,36 332,43 334,49 351,54"/>
<polygon style="fill:midnightblue;stroke:midnightblue;" points="284,30 275,25 285,24 284,30"/>
</g>
<g id="node7" class="node"><title>Node4</title>
<a xlink:href="x_p_l_8c.html#a41c59f641ff95b999e66c0d45117b73d" target="_top" xlink:title="XPLProcessUDPMsg">
<polygon style="fill:none;stroke:black;" points="629,86 835,86 835,54 629,54 629,86"/>
<text text-anchor="middle" x="732" y="77" style="font-family:Helvetica;font-size:20.00;">XPLProcessUDPMsg</text>
</a>
</g>
<g id="edge6" class="edge"><title>Node3-&gt;Node4</title>
<path style="fill:none;stroke:midnightblue;" d="M603,70C612,70 620,70 629,70"/>
<polygon style="fill:midnightblue;stroke:midnightblue;" points="603,73 593,70 603,66 603,73"/>
</g>
<g id="node9" class="node"><title>Node5</title>
<a xlink:href="x_p_l_8h.html#a86d914c966f337c4e3a6fda46a945d11" target="_top" xlink:title="XPLTasks">
<polygon style="fill:none;stroke:black;" points="872,86 975,86 975,54 872,54 872,86"/>
<text text-anchor="middle" x="923" y="77" style="font-family:Helvetica;font-size:20.00;">XPLTasks</text>
</a>
</g>
<g id="edge8" class="edge"><title>Node4-&gt;Node5</title>
<path style="fill:none;stroke:midnightblue;" d="M845,70C854,70 863,70 872,70"/>
<polygon style="fill:midnightblue;stroke:midnightblue;" points="845,73 835,70 845,66 845,73"/>
</g>
<g id="node11" class="node"><title>Node6</title>
<a xlink:href="_main_demo_8c.html#a6288eba0f8e8ad3ab1544ad731eb7667" target="_top" xlink:title="main">
<polygon style="fill:none;stroke:black;" points="1012,86 1071,86 1071,54 1012,54 1012,86"/>
<text text-anchor="middle" x="1041" y="77" style="font-family:Helvetica;font-size:20.00;">main</text>
</a>
</g>
<g id="edge10" class="edge"><title>Node5-&gt;Node6</title>
<path style="fill:none;stroke:midnightblue;" d="M985,70C995,70 1004,70 1012,70"/>
<polygon style="fill:midnightblue;stroke:midnightblue;" points="985,73 975,70 985,66 985,73"/>
</g>
<g id="edge16" class="edge"><title>Node7-&gt;Node3</title>
<path style="fill:none;stroke:midnightblue;" d="M309,70C322,70 336,70 351,70"/>
<polygon style="fill:midnightblue;stroke:midnightblue;" points="309,73 299,70 309,66 309,73"/>
</g>
<g id="node15" class="node"><title>Node8</title>
<a xlink:href="_h_t_t_p_forms_8c.html#a686ae35a16ecb63daffafcd015ddb070" target="_top" xlink:title="Processes all HTTP GETS.">
<polygon style="fill:none;stroke:black;" points="386,136 559,136 559,104 386,104 386,136"/>
<text text-anchor="middle" x="472" y="127" style="font-family:Helvetica;font-size:20.00;">HTTPExecuteGet</text>
</a>
</g>
<g id="edge14" class="edge"><title>Node7-&gt;Node8</title>
<path style="fill:none;stroke:midnightblue;" d="M309,84C311,85 313,85 315,86 332,93 334,99 351,104 362,107 374,110 386,112"/>
<polygon style="fill:midnightblue;stroke:midnightblue;" points="308,87 299,81 310,81 308,87"/>
</g>
<g id="edge22" class="edge"><title>Node9-&gt;Node3</title>
<path style="fill:none;stroke:midnightblue;" d="M311,106C312,105 314,105 315,104 332,98 334,92 351,86"/>
<polygon style="fill:midnightblue;stroke:midnightblue;" points="312,109 301,109 310,103 312,109"/>
</g>
<g id="edge20" class="edge"><title>Node9-&gt;Node8</title>
<path style="fill:none;stroke:midnightblue;" d="M311,120C334,120 361,120 386,120"/>
<polygon style="fill:midnightblue;stroke:midnightblue;" points="311,123 301,120 311,116 311,123"/>
</g>
<g id="edge28" class="edge"><title>Node10-&gt;Node3</title>
<path style="fill:none;stroke:midnightblue;" d="M322,147C339,127 326,104 351,86"/>
<polygon style="fill:midnightblue;stroke:midnightblue;" points="325,149 315,154 320,144 325,149"/>
</g>
<g id="edge26" class="edge"><title>Node10-&gt;Node8</title>
<path style="fill:none;stroke:midnightblue;" d="M324,150C334,145 338,140 351,136 362,133 374,130 386,128"/>
<polygon style="fill:midnightblue;stroke:midnightblue;" points="326,153 315,154 323,147 326,153"/>
</g>
</g>
</svg>
