<?xml version="1.0" encoding="UTF-8" standalone="no"?>
<!DOCTYPE svg PUBLIC "-//W3C//DTD SVG 1.0//EN"
 "http://www.w3.org/TR/2001/REC-SVG-20010904/DTD/svg10.dtd" [
 <!ATTLIST svg xmlns:xlink CDATA #FIXED "http://www.w3.org/1999/xlink">
]>
<!-- Generated by dot version 1.13 (v16) (Mon August 23, 2004)
     For user: (jarrodneven) Jarrod  Neven   Title: G    Pages: 1 -->
<svg width="648pt" height="44pt"
 viewBox = "-1 -1 647 43"
 xmlns="http://www.w3.org/2000/svg" xmlns:xlink="http://www.w3.org/1999/xlink">
<g id="graph0" class="graph" style="font-family:Times-Roman;font-size:14.00;">
<title>G</title>
<g id="node1" class="node"><title>Node1</title>
<polygon style="fill:#bfbfbf;stroke:black;" points="5,36 105,36 105,4 5,4 5,36"/>
<text text-anchor="middle" x="55" y="27" style="font-family:Helvetica;font-size:20.00;">TaskAlarming</text>
</g>
<g id="node3" class="node"><title>Node2</title>
<a xlink:href="_security_system_8c.html#a3ccbc635f6f7bb31465920840c7db474" target="_top" xlink:title="IOTasks">
<polygon style="fill:none;stroke:black;" points="141,36 229,36 229,4 141,4 141,36"/>
<text text-anchor="middle" x="185" y="27" style="font-family:Helvetica;font-size:20.00;">IOTasks</text>
</a>
</g>
<g id="edge2" class="edge"><title>Node1-&gt;Node2</title>
<path style="fill:none;stroke:midnightblue;" d="M115,20C124,20 132,20 141,20"/>
<polygon style="fill:midnightblue;stroke:midnightblue;" points="115,23 105,20 115,16 115,23"/>
</g>
<g id="node5" class="node"><title>Node3</title>
<a xlink:href="x_p_l_8h.html#a62b4d90791ab073f74677d42bfb64253" target="_top" xlink:title="SchemaTasks">
<polygon style="fill:none;stroke:black;" points="265,36 405,36 405,4 265,4 265,36"/>
<text text-anchor="middle" x="335" y="27" style="font-family:Helvetica;font-size:20.00;">SchemaTasks</text>
</a>
</g>
<g id="edge4" class="edge"><title>Node2-&gt;Node3</title>
<path style="fill:none;stroke:midnightblue;" d="M239,20C248,20 257,20 265,20"/>
<polygon style="fill:midnightblue;stroke:midnightblue;" points="239,23 229,20 239,16 239,23"/>
</g>
<g id="node7" class="node"><title>Node4</title>
<a xlink:href="x_p_l_8h.html#a86d914c966f337c4e3a6fda46a945d11" target="_top" xlink:title="XPLTasks">
<polygon style="fill:none;stroke:black;" points="442,36 545,36 545,4 442,4 442,36"/>
<text text-anchor="middle" x="493" y="27" style="font-family:Helvetica;font-size:20.00;">XPLTasks</text>
</a>
</g>
<g id="edge6" class="edge"><title>Node3-&gt;Node4</title>
<path style="fill:none;stroke:midnightblue;" d="M415,20C424,20 433,20 442,20"/>
<polygon style="fill:midnightblue;stroke:midnightblue;" points="415,23 405,20 415,16 415,23"/>
</g>
<g id="node9" class="node"><title>Node5</title>
<a xlink:href="_main_demo_8c.html#a6288eba0f8e8ad3ab1544ad731eb7667" target="_top" xlink:title="main">
<polygon style="fill:none;stroke:black;" points="582,36 641,36 641,4 582,4 582,36"/>
<text text-anchor="middle" x="611" y="27" style="font-family:Helvetica;font-size:20.00;">main</text>
</a>
</g>
<g id="edge8" class="edge"><title>Node4-&gt;Node5</title>
<path style="fill:none;stroke:midnightblue;" d="M555,20C565,20 574,20 582,20"/>
<polygon style="fill:midnightblue;stroke:midnightblue;" points="555,23 545,20 555,16 555,23"/>
</g>
</g>
</svg>
