<?xml version="1.0" encoding="UTF-8" standalone="no"?>
<!DOCTYPE svg PUBLIC "-//W3C//DTD SVG 1.0//EN"
 "http://www.w3.org/TR/2001/REC-SVG-20010904/DTD/svg10.dtd" [
 <!ATTLIST svg xmlns:xlink CDATA #FIXED "http://www.w3.org/1999/xlink">
]>
<!-- Generated by dot version 1.13 (v16) (Mon August 23, 2004)
     For user: (jarrodneven) Jarrod  Neven   Title: G    Pages: 1 -->
<svg width="1416pt" height="684pt"
 viewBox = "-1 -1 1415 683"
 xmlns="http://www.w3.org/2000/svg" xmlns:xlink="http://www.w3.org/1999/xlink">
<g id="graph0" class="graph" style="font-family:Times-Roman;font-size:14.00;">
<title>G</title>
<g id="node1" class="node"><title>Node1</title>
<polygon style="fill:#bfbfbf;stroke:black;" points="5,275 155,275 155,243 5,243 5,275"/>
<text text-anchor="middle" x="80" y="266" style="font-family:Helvetica;font-size:20.00;">isZoneMemberOfArea</text>
</g>
<g id="node3" class="node"><title>Node2</title>
<a xlink:href="_security_system_8h.html#a6ff589f01cb93ce6c97ab0af6405d0df" target="_top" xlink:title="bypassArea">
<polygon style="fill:none;stroke:black;" points="226,36 348,36 348,4 226,4 226,36"/>
<text text-anchor="middle" x="287" y="27" style="font-family:Helvetica;font-size:20.00;">bypassArea</text>
</a>
</g>
<g id="edge2" class="edge"><title>Node1-&gt;Node2</title>
<path style="fill:none;stroke:midnightblue;" d="M162,235C213,170 128,99 191,36 200,27 213,22 226,19"/>
<polygon style="fill:midnightblue;stroke:midnightblue;" points="164,238 155,243 159,233 164,238"/>
</g>
<g id="node5" class="node"><title>Node3</title>
<a xlink:href="_security_system_8h.html#a4c1402940dc136f20f757edb09c73e28" target="_top" xlink:title="EnableArea">
<polygon style="fill:none;stroke:black;" points="227,86 348,86 348,54 227,54 227,86"/>
<text text-anchor="middle" x="287" y="77" style="font-family:Helvetica;font-size:20.00;">EnableArea</text>
</a>
</g>
<g id="edge4" class="edge"><title>Node1-&gt;Node3</title>
<path style="fill:none;stroke:midnightblue;" d="M162,236C201,187 142,134 191,86 201,77 214,72 227,70"/>
<polygon style="fill:midnightblue;stroke:midnightblue;" points="165,238 155,243 160,233 165,238"/>
</g>
<g id="node7" class="node"><title>Node4</title>
<a xlink:href="_security_system_8h.html#a3e1f7b8c937f29b73398bb3ad54743c4" target="_top" xlink:title="IsolateArea">
<polygon style="fill:none;stroke:black;" points="229,136 346,136 346,104 229,104 229,136"/>
<text text-anchor="middle" x="287" y="127" style="font-family:Helvetica;font-size:20.00;">IsolateArea</text>
</a>
</g>
<g id="edge6" class="edge"><title>Node1-&gt;Node4</title>
<path style="fill:none;stroke:midnightblue;" d="M162,236C187,204 156,167 191,136 202,127 215,122 229,120"/>
<polygon style="fill:midnightblue;stroke:midnightblue;" points="165,238 155,243 160,233 165,238"/>
</g>
<g id="node9" class="node"><title>Node5</title>
<a xlink:href="_security_system_8h.html#a44f4ef2b28f2d65b626e1ec4e5885934" target="_top" xlink:title="IsZoneTriggered">
<polygon style="fill:none;stroke:black;" points="455,476 617,476 617,444 455,444 455,476"/>
<text text-anchor="middle" x="536" y="467" style="font-family:Helvetica;font-size:20.00;">IsZoneTriggered</text>
</a>
</g>
<g id="edge8" class="edge"><title>Node1-&gt;Node5</title>
<path style="fill:none;stroke:midnightblue;" d="M104,280C125,288 138,279 159,292 172,301 172,307 179,319 181,323 182,323 183,326 186,333 186,335 187,341 188,346 188,428 191,431 226,467 364,468 455,465"/>
<polygon style="fill:midnightblue;stroke:midnightblue;" points="102,283 95,275 105,277 102,283"/>
</g>
<g id="node19" class="node"><title>Node10</title>
<a xlink:href="_security_x_p_l_sender_8c.html#ae9e6733b7fed738a76787f01762bb284" target="_top" xlink:title="SendAlarmingMsg">
<polygon style="fill:none;stroke:black;" points="198,388 377,388 377,356 198,356 198,388"/>
<text text-anchor="middle" x="287" y="379" style="font-family:Helvetica;font-size:20.00;">SendAlarmingMsg</text>
</a>
</g>
<g id="edge18" class="edge"><title>Node1-&gt;Node10</title>
<path style="fill:none;stroke:midnightblue;" d="M162,282C182,306 163,334 191,356 193,358 195,359 198,361"/>
<polygon style="fill:midnightblue;stroke:midnightblue;" points="160,285 155,275 165,280 160,285"/>
</g>
<g id="node22" class="node"><title>Node11</title>
<a xlink:href="_security_system_8c.html#accca294859199bc9e59cec74618c871c" target="_top" xlink:title="StateChangeToAlarming">
<polygon style="fill:none;stroke:black;" points="420,426 653,426 653,394 420,394 420,426"/>
<text text-anchor="middle" x="536" y="417" style="font-family:Helvetica;font-size:20.00;">StateChangeToAlarming</text>
</a>
</g>
<g id="edge46" class="edge"><title>Node1-&gt;Node11</title>
<path style="fill:none;stroke:midnightblue;" d="M102,279C123,287 135,276 155,286 162,290 163,293 167,298 181,314 183,320 187,340 189,347 187,393 191,397 223,428 333,428 420,422"/>
<polygon style="fill:midnightblue;stroke:midnightblue;" points="101,282 93,275 104,276 101,282"/>
</g>
<g id="node25" class="node"><title>Node12</title>
<a xlink:href="_security_x_p_l_sender_8c.html#acdb6126b5578c4ca8c06d5343a7b37df" target="_top" xlink:title="SendAreaInfo">
<polygon style="fill:none;stroke:black;" points="741,162 879,162 879,130 741,130 741,162"/>
<text text-anchor="middle" x="810" y="153" style="font-family:Helvetica;font-size:20.00;">SendAreaInfo</text>
</a>
</g>
<g id="edge26" class="edge"><title>Node1-&gt;Node12</title>
<path style="fill:none;stroke:midnightblue;" d="M127,241C137,240 147,239 163,234 176,230 179,227 191,223 387,174 625,155 741,149"/>
<polygon style="fill:midnightblue;stroke:midnightblue;" points="127,244 117,243 126,238 127,244"/>
</g>
<g id="node28" class="node"><title>Node13</title>
<a xlink:href="_security_x_p_l_sender_8c.html#a5d91f06e22d49f6ecee37802e866e0e6" target="_top" xlink:title="SendAreaStat">
<polygon style="fill:none;stroke:black;" points="740,212 881,212 881,180 740,180 740,212"/>
<text text-anchor="middle" x="810" y="203" style="font-family:Helvetica;font-size:20.00;">SendAreaStat</text>
</a>
</g>
<g id="edge30" class="edge"><title>Node1-&gt;Node13</title>
<path style="fill:none;stroke:midnightblue;" d="M165,246C174,245 182,244 191,243 390,221 625,206 740,200"/>
<polygon style="fill:midnightblue;stroke:midnightblue;" points="165,249 155,248 164,243 165,249"/>
</g>
<g id="node31" class="node"><title>Node14</title>
<a xlink:href="_security_x_p_l_sender_8c.html#ae77b19bae92f6c64f9a58f722b4bf193" target="_top" xlink:title="SendAreaStateMsg">
<polygon style="fill:none;stroke:black;" points="716,262 905,262 905,230 716,230 716,262"/>
<text text-anchor="middle" x="810" y="253" style="font-family:Helvetica;font-size:20.00;">SendAreaStateMsg</text>
</a>
</g>
<g id="edge34" class="edge"><title>Node1-&gt;Node14</title>
<path style="fill:none;stroke:midnightblue;" d="M165,258C303,255 573,250 716,248"/>
<polygon style="fill:midnightblue;stroke:midnightblue;" points="165,261 155,258 165,254 165,261"/>
</g>
<g id="node34" class="node"><title>Node15</title>
<a xlink:href="_security_x_p_l_sender_8c.html#aeb4ee205f02bf767a5d3b93608abc736" target="_top" xlink:title="SendGateStat">
<polygon style="fill:none;stroke:black;" points="465,300 607,300 607,268 465,268 465,300"/>
<text text-anchor="middle" x="536" y="291" style="font-family:Helvetica;font-size:20.00;">SendGateStat</text>
</a>
</g>
<g id="edge38" class="edge"><title>Node1-&gt;Node15</title>
<path style="fill:none;stroke:midnightblue;" d="M165,264C252,269 384,275 465,280"/>
<polygon style="fill:midnightblue;stroke:midnightblue;" points="165,267 155,263 165,261 165,267"/>
</g>
<g id="node37" class="node"><title>Node16</title>
<a xlink:href="_security_x_p_l_sender_8c.html#ae149da75e2b494aa56f4976837706565" target="_top" xlink:title="SendZoneInfo">
<polygon style="fill:none;stroke:black;" points="216,338 358,338 358,306 216,306 216,338"/>
<text text-anchor="middle" x="287" y="329" style="font-family:Helvetica;font-size:20.00;">SendZoneInfo</text>
</a>
</g>
<g id="edge42" class="edge"><title>Node1-&gt;Node16</title>
<path style="fill:none;stroke:midnightblue;" d="M163,281C174,290 175,299 191,306 199,310 207,313 216,315"/>
<polygon style="fill:midnightblue;stroke:midnightblue;" points="161,284 155,275 165,278 161,284"/>
</g>
<g id="node41" class="node"><title>Node17</title>
<a xlink:href="_security_system_8c.html#ad2cdbcce787b8a3c88addf52f996805f" target="_top" xlink:title="StateChangeToArm">
<polygon style="fill:none;stroke:black;" points="192,576 383,576 383,544 192,544 192,576"/>
<text text-anchor="middle" x="287" y="567" style="font-family:Helvetica;font-size:20.00;">StateChangeToArm</text>
</a>
</g>
<g id="edge48" class="edge"><title>Node1-&gt;Node17</title>
<path style="fill:none;stroke:midnightblue;" d="M162,283C230,369 110,460 191,544 191,544 191,544 192,545"/>
<polygon style="fill:midnightblue;stroke:midnightblue;" points="159,285 155,275 164,280 159,285"/>
</g>
<g id="node11" class="node"><title>Node6</title>
<a xlink:href="_security_system_8c.html#a3ccbc635f6f7bb31465920840c7db474" target="_top" xlink:title="IOTasks">
<polygon style="fill:none;stroke:black;" points="766,426 854,426 854,394 766,394 766,426"/>
<text text-anchor="middle" x="810" y="417" style="font-family:Helvetica;font-size:20.00;">IOTasks</text>
</a>
</g>
<g id="edge10" class="edge"><title>Node5-&gt;Node6</title>
<path style="fill:none;stroke:midnightblue;" d="M627,450C636,448 645,446 653,444 671,439 672,432 689,426 714,419 743,415 766,413"/>
<polygon style="fill:midnightblue;stroke:midnightblue;" points="627,453 617,452 626,447 627,453"/>
</g>
<g id="node13" class="node"><title>Node7</title>
<a xlink:href="x_p_l_8h.html#a62b4d90791ab073f74677d42bfb64253" target="_top" xlink:title="SchemaTasks">
<polygon style="fill:none;stroke:black;" points="1000,325 1140,325 1140,293 1000,293 1000,325"/>
<text text-anchor="middle" x="1070" y="316" style="font-family:Helvetica;font-size:20.00;">SchemaTasks</text>
</a>
</g>
<g id="edge12" class="edge"><title>Node6-&gt;Node7</title>
<path style="fill:none;stroke:midnightblue;" d="M864,414C887,413 912,408 931,394 960,375 939,346 967,325 977,318 988,314 1000,311"/>
<polygon style="fill:midnightblue;stroke:midnightblue;" points="864,417 854,414 864,410 864,417"/>
</g>
<g id="node15" class="node"><title>Node8</title>
<a xlink:href="x_p_l_8h.html#a86d914c966f337c4e3a6fda46a945d11" target="_top" xlink:title="XPLTasks">
<polygon style="fill:none;stroke:black;" points="1210,402 1313,402 1313,370 1210,370 1210,402"/>
<text text-anchor="middle" x="1261" y="393" style="font-family:Helvetica;font-size:20.00;">XPLTasks</text>
</a>
</g>
<g id="edge14" class="edge"><title>Node7-&gt;Node8</title>
<path style="fill:none;stroke:midnightblue;" d="M1150,315C1158,317 1166,321 1173,325 1196,338 1188,356 1209,370 1209,370 1210,370 1210,371"/>
<polygon style="fill:midnightblue;stroke:midnightblue;" points="1149,318 1140,313 1150,312 1149,318"/>
</g>
<g id="node17" class="node"><title>Node9</title>
<a xlink:href="_main_demo_8c.html#a6288eba0f8e8ad3ab1544ad731eb7667" target="_top" xlink:title="main">
<polygon style="fill:none;stroke:black;" points="1350,402 1409,402 1409,370 1350,370 1350,402"/>
<text text-anchor="middle" x="1379" y="393" style="font-family:Helvetica;font-size:20.00;">main</text>
</a>
</g>
<g id="edge16" class="edge"><title>Node8-&gt;Node9</title>
<path style="fill:none;stroke:midnightblue;" d="M1323,386C1333,386 1342,386 1350,386"/>
<polygon style="fill:midnightblue;stroke:midnightblue;" points="1323,389 1313,386 1323,382 1323,389"/>
</g>
<g id="edge20" class="edge"><title>Node10-&gt;Node7</title>
<path style="fill:none;stroke:midnightblue;" d="M387,364C549,351 861,326 1000,315"/>
<polygon style="fill:midnightblue;stroke:midnightblue;" points="387,367 377,365 387,361 387,367"/>
</g>
<g id="edge22" class="edge"><title>Node10-&gt;Node11</title>
<path style="fill:none;stroke:midnightblue;" d="M387,389C405,392 419,394 419,394 419,394 420,394 420,394"/>
<polygon style="fill:midnightblue;stroke:midnightblue;" points="386,392 377,387 387,386 386,392"/>
</g>
<g id="edge24" class="edge"><title>Node11-&gt;Node6</title>
<path style="fill:none;stroke:midnightblue;" d="M663,410C700,410 738,410 766,410"/>
<polygon style="fill:midnightblue;stroke:midnightblue;" points="663,413 653,410 663,406 663,413"/>
</g>
<g id="edge28" class="edge"><title>Node12-&gt;Node7</title>
<path style="fill:none;stroke:midnightblue;" d="M889,143C905,146 920,152 931,162 977,202 922,253 967,293 976,301 988,306 1000,309"/>
<polygon style="fill:midnightblue;stroke:midnightblue;" points="889,146 879,142 889,140 889,146"/>
</g>
<g id="edge32" class="edge"><title>Node13-&gt;Node7</title>
<path style="fill:none;stroke:midnightblue;" d="M891,195C906,198 920,203 931,212 963,236 936,270 967,293 977,300 988,305 1000,308"/>
<polygon style="fill:midnightblue;stroke:midnightblue;" points="891,198 881,194 891,192 891,198"/>
</g>
<g id="edge36" class="edge"><title>Node14-&gt;Node7</title>
<path style="fill:none;stroke:midnightblue;" d="M915,256C921,257 926,259 931,262 951,271 948,285 967,293 977,298 989,301 1000,304"/>
<polygon style="fill:midnightblue;stroke:midnightblue;" points="914,259 905,253 916,253 914,259"/>
</g>
<g id="edge40" class="edge"><title>Node15-&gt;Node7</title>
<path style="fill:none;stroke:midnightblue;" d="M617,287C722,293 901,301 1000,306"/>
<polygon style="fill:midnightblue;stroke:midnightblue;" points="617,290 607,287 617,283 617,290"/>
</g>
<g id="edge44" class="edge"><title>Node16-&gt;Node7</title>
<path style="fill:none;stroke:midnightblue;" d="M368,321C522,319 855,313 1000,310"/>
<polygon style="fill:midnightblue;stroke:midnightblue;" points="368,324 358,321 368,317 368,324"/>
</g>
<g id="node43" class="node"><title>Node18</title>
<a xlink:href="_security_system_8h.html#a723bf79e9ca7924d850e5c2be4029b1c" target="_top" xlink:title="Arm">
<polygon style="fill:none;stroke:black;" points="510,526 563,526 563,494 510,494 510,526"/>
<text text-anchor="middle" x="536" y="517" style="font-family:Helvetica;font-size:20.00;">Arm</text>
</a>
</g>
<g id="edge50" class="edge"><title>Node17-&gt;Node18</title>
<path style="fill:none;stroke:midnightblue;" d="M392,540C402,535 406,530 419,526 450,516 486,513 510,511"/>
<polygon style="fill:midnightblue;stroke:midnightblue;" points="394,543 383,544 391,537 394,543"/>
</g>
<g id="node50" class="node"><title>Node21</title>
<a xlink:href="_security_system_8h.html#af7b9ebfe6bb90725304e83cadb4cced8" target="_top" xlink:title="ArmAway">
<polygon style="fill:none;stroke:black;" points="486,676 587,676 587,644 486,644 486,676"/>
<text text-anchor="middle" x="536" y="667" style="font-family:Helvetica;font-size:20.00;">ArmAway</text>
</a>
</g>
<g id="edge58" class="edge"><title>Node17-&gt;Node21</title>
<path style="fill:none;stroke:midnightblue;" d="M391,583C407,601 394,626 419,644 439,657 464,662 486,663"/>
<polygon style="fill:midnightblue;stroke:midnightblue;" points="388,585 383,576 393,580 388,585"/>
</g>
<g id="node55" class="node"><title>Node23</title>
<a xlink:href="_security_system_8h.html#afba09fe6505822eb03078088f14ef89b" target="_top" xlink:title="ArmHome">
<polygon style="fill:none;stroke:black;" points="483,576 589,576 589,544 483,544 483,576"/>
<text text-anchor="middle" x="536" y="567" style="font-family:Helvetica;font-size:20.00;">ArmHome</text>
</a>
</g>
<g id="edge64" class="edge"><title>Node17-&gt;Node23</title>
<path style="fill:none;stroke:midnightblue;" d="M393,560C424,560 457,560 483,560"/>
<polygon style="fill:midnightblue;stroke:midnightblue;" points="393,563 383,560 393,556 393,563"/>
</g>
<g id="node59" class="node"><title>Node24</title>
<a xlink:href="_security_system_8h.html#aad7b06369f4a1f3b427e137a9f84a5c0" target="_top" xlink:title="ArmLatchkey">
<polygon style="fill:none;stroke:black;" points="470,626 603,626 603,594 470,594 470,626"/>
<text text-anchor="middle" x="536" y="617" style="font-family:Helvetica;font-size:20.00;">ArmLatchkey</text>
</a>
</g>
<g id="edge70" class="edge"><title>Node17-&gt;Node24</title>
<path style="fill:none;stroke:midnightblue;" d="M392,579C402,584 406,589 419,594 435,599 453,602 470,605"/>
<polygon style="fill:midnightblue;stroke:midnightblue;" points="391,582 383,576 394,576 391,582"/>
</g>
<g id="node45" class="node"><title>Node19</title>
<a xlink:href="x_p_l_8h.html#a3baecc6556e5cc7af0d59d0216aa217c" target="_top" xlink:title="SchemaProcessUDPMsg">
<polygon style="fill:none;stroke:black;" points="689,576 931,576 931,544 689,544 689,576"/>
<text text-anchor="middle" x="810" y="567" style="font-family:Helvetica;font-size:20.00;">SchemaProcessUDPMsg</text>
</a>
</g>
<g id="edge52" class="edge"><title>Node18-&gt;Node19</title>
<path style="fill:none;stroke:midnightblue;" d="M573,512C596,514 627,517 653,526 671,531 672,538 689,544"/>
<polygon style="fill:midnightblue;stroke:midnightblue;" points="573,515 563,511 573,509 573,515"/>
</g>
<g id="node47" class="node"><title>Node20</title>
<a xlink:href="x_p_l_8c.html#a41c59f641ff95b999e66c0d45117b73d" target="_top" xlink:title="XPLProcessUDPMsg">
<polygon style="fill:none;stroke:black;" points="967,518 1173,518 1173,486 967,486 967,518"/>
<text text-anchor="middle" x="1070" y="509" style="font-family:Helvetica;font-size:20.00;">XPLProcessUDPMsg</text>
</a>
</g>
<g id="edge54" class="edge"><title>Node19-&gt;Node20</title>
<path style="fill:none;stroke:midnightblue;" d="M940,539C950,532 952,524 967,518"/>
<polygon style="fill:midnightblue;stroke:midnightblue;" points="941,542 931,544 938,536 941,542"/>
</g>
<g id="edge56" class="edge"><title>Node20-&gt;Node8</title>
<path style="fill:none;stroke:midnightblue;" d="M1181,479C1202,455 1182,427 1209,402 1209,402 1210,402 1210,401"/>
<polygon style="fill:midnightblue;stroke:midnightblue;" points="1183,482 1173,486 1178,477 1183,482"/>
</g>
<g id="edge62" class="edge"><title>Node21-&gt;Node19</title>
<path style="fill:none;stroke:midnightblue;" d="M597,662C616,660 637,655 653,644 682,624 661,595 689,576"/>
<polygon style="fill:midnightblue;stroke:midnightblue;" points="597,665 587,663 597,659 597,665"/>
</g>
<g id="node52" class="node"><title>Node22</title>
<a xlink:href="_h_t_t_p_forms_8c.html#a686ae35a16ecb63daffafcd015ddb070" target="_top" xlink:title="Processes all HTTP GETS.">
<polygon style="fill:none;stroke:black;" points="724,626 897,626 897,594 724,594 724,626"/>
<text text-anchor="middle" x="810" y="617" style="font-family:Helvetica;font-size:20.00;">HTTPExecuteGet</text>
</a>
</g>
<g id="edge60" class="edge"><title>Node21-&gt;Node22</title>
<path style="fill:none;stroke:midnightblue;" d="M597,655C615,653 635,649 653,644 671,638 672,631 689,626 700,623 712,620 724,618"/>
<polygon style="fill:midnightblue;stroke:midnightblue;" points="597,658 587,656 597,652 597,658"/>
</g>
<g id="edge68" class="edge"><title>Node23-&gt;Node19</title>
<path style="fill:none;stroke:midnightblue;" d="M599,560C626,560 658,560 689,560"/>
<polygon style="fill:midnightblue;stroke:midnightblue;" points="599,563 589,560 599,556 599,563"/>
</g>
<g id="edge66" class="edge"><title>Node23-&gt;Node22</title>
<path style="fill:none;stroke:midnightblue;" d="M599,564C617,567 636,571 653,576 671,581 672,588 689,594 700,597 712,600 724,602"/>
<polygon style="fill:midnightblue;stroke:midnightblue;" points="599,567 589,563 599,561 599,567"/>
</g>
<g id="edge74" class="edge"><title>Node24-&gt;Node19</title>
<path style="fill:none;stroke:midnightblue;" d="M613,603C627,601 640,598 653,594 671,588 672,581 689,576"/>
<polygon style="fill:midnightblue;stroke:midnightblue;" points="613,606 603,604 613,600 613,606"/>
</g>
<g id="edge72" class="edge"><title>Node24-&gt;Node22</title>
<path style="fill:none;stroke:midnightblue;" d="M613,610C648,610 689,610 724,610"/>
<polygon style="fill:midnightblue;stroke:midnightblue;" points="613,613 603,610 613,606 613,613"/>
</g>
</g>
</svg>
