<?xml version="1.0" encoding="UTF-8" standalone="no"?>
<!DOCTYPE svg PUBLIC "-//W3C//DTD SVG 1.0//EN"
 "http://www.w3.org/TR/2001/REC-SVG-20010904/DTD/svg10.dtd" [
 <!ATTLIST svg xmlns:xlink CDATA #FIXED "http://www.w3.org/1999/xlink">
]>
<!-- Generated by dot version 1.13 (v16) (Mon August 23, 2004)
     For user: (jarrodneven) Jarrod  Neven   Title: G    Pages: 1 -->
<svg width="506pt" height="44pt"
 viewBox = "-1 -1 505 43"
 xmlns="http://www.w3.org/2000/svg" xmlns:xlink="http://www.w3.org/1999/xlink">
<g id="graph0" class="graph" style="font-family:Times-Roman;font-size:14.00;">
<title>G</title>
<g id="node1" class="node"><title>Node1</title>
<polygon style="fill:#bfbfbf;stroke:black;" points="6,36 137,36 137,4 6,4 6,36"/>
<text text-anchor="middle" x="71" y="27" style="font-family:Helvetica;font-size:20.00;">LoadDefaultConfig</text>
</g>
<g id="node3" class="node"><title>Node2</title>
<a xlink:href="x_p_l_8h.html#aea89a2e5b007623f49cb6117afc947ec" target="_top" xlink:title="SchemaInit">
<polygon style="fill:none;stroke:black;" points="173,36 289,36 289,4 173,4 173,36"/>
<text text-anchor="middle" x="231" y="27" style="font-family:Helvetica;font-size:20.00;">SchemaInit</text>
</a>
</g>
<g id="edge2" class="edge"><title>Node1-&gt;Node2</title>
<path style="fill:none;stroke:midnightblue;" d="M147,20C156,20 164,20 173,20"/>
<polygon style="fill:midnightblue;stroke:midnightblue;" points="147,23 137,20 147,16 147,23"/>
</g>
<g id="node5" class="node"><title>Node3</title>
<a xlink:href="x_p_l_8h.html#a091a12042a9d63dc524ce896fbc04b46" target="_top" xlink:title="xPLInit">
<polygon style="fill:none;stroke:black;" points="326,36 403,36 403,4 326,4 326,36"/>
<text text-anchor="middle" x="364" y="27" style="font-family:Helvetica;font-size:20.00;">xPLInit</text>
</a>
</g>
<g id="edge4" class="edge"><title>Node2-&gt;Node3</title>
<path style="fill:none;stroke:midnightblue;" d="M299,20C308,20 317,20 326,20"/>
<polygon style="fill:midnightblue;stroke:midnightblue;" points="299,23 289,20 299,16 299,23"/>
</g>
<g id="node7" class="node"><title>Node4</title>
<a xlink:href="_main_demo_8c.html#a6288eba0f8e8ad3ab1544ad731eb7667" target="_top" xlink:title="main">
<polygon style="fill:none;stroke:black;" points="440,36 499,36 499,4 440,4 440,36"/>
<text text-anchor="middle" x="469" y="27" style="font-family:Helvetica;font-size:20.00;">main</text>
</a>
</g>
<g id="edge6" class="edge"><title>Node3-&gt;Node4</title>
<path style="fill:none;stroke:midnightblue;" d="M413,20C422,20 431,20 440,20"/>
<polygon style="fill:midnightblue;stroke:midnightblue;" points="413,23 403,20 413,16 413,23"/>
</g>
</g>
</svg>
