<?xml version="1.0" encoding="UTF-8" standalone="no"?>
<!DOCTYPE svg PUBLIC "-//W3C//DTD SVG 1.0//EN"
 "http://www.w3.org/TR/2001/REC-SVG-20010904/DTD/svg10.dtd" [
 <!ATTLIST svg xmlns:xlink CDATA #FIXED "http://www.w3.org/1999/xlink">
]>
<!-- Generated by dot version 1.13 (v16) (Mon August 23, 2004)
     For user: (jarrodneven) Jarrod  Neven   Title: G    Pages: 1 -->
<svg width="744pt" height="144pt"
 viewBox = "-1 -1 743 143"
 xmlns="http://www.w3.org/2000/svg" xmlns:xlink="http://www.w3.org/1999/xlink">
<g id="graph0" class="graph" style="font-family:Times-Roman;font-size:14.00;">
<title>G</title>
<g id="node1" class="node"><title>Node1</title>
<polygon style="fill:#bfbfbf;stroke:black;" points="5,62 47,62 47,30 5,30 5,62"/>
<text text-anchor="middle" x="26" y="53" style="font-family:Helvetica;font-size:20.00;">Arm</text>
</g>
<g id="node3" class="node"><title>Node2</title>
<a xlink:href="_security_system_8h.html#a30c3c9cdda2491c17d5d6d5cc6426b31" target="_top" xlink:title="addxPLMessage">
<polygon style="fill:none;stroke:black;" points="336,36 501,36 501,4 336,4 336,36"/>
<text text-anchor="middle" x="418" y="27" style="font-family:Helvetica;font-size:20.00;">addxPLMessage</text>
</a>
</g>
<g id="edge2" class="edge"><title>Node1-&gt;Node2</title>
<path style="fill:none;stroke:midnightblue;" d="M47,45C98,41 234,32 326,26"/>
<polygon style="fill:midnightblue;stroke:midnightblue;" points="326,23 336,25 326,29 326,23"/>
</g>
<g id="node7" class="node"><title>Node4</title>
<a xlink:href="_security_system_8c.html#ad2cdbcce787b8a3c88addf52f996805f" target="_top" xlink:title="StateChangeToArm">
<polygon style="fill:none;stroke:black;" points="84,85 275,85 275,53 84,53 84,85"/>
<text text-anchor="middle" x="179" y="76" style="font-family:Helvetica;font-size:20.00;">StateChangeToArm</text>
</a>
</g>
<g id="edge6" class="edge"><title>Node1-&gt;Node4</title>
<path style="fill:none;stroke:midnightblue;" d="M47,49C55,51 64,52 74,54"/>
<polygon style="fill:midnightblue;stroke:midnightblue;" points="74,51 84,55 74,57 74,51"/>
</g>
<g id="node5" class="node"><title>Node3</title>
<a xlink:href="_security_system_8c.html#a491f8822a8274ca5244c41d226e7136e" target="_top" xlink:title="ClearArmingFlags">
<polygon style="fill:none;stroke:black;" points="561,36 737,36 737,4 561,4 561,36"/>
<text text-anchor="middle" x="649" y="27" style="font-family:Helvetica;font-size:20.00;">ClearArmingFlags</text>
</a>
</g>
<g id="edge4" class="edge"><title>Node2-&gt;Node3</title>
<path style="fill:none;stroke:midnightblue;" d="M501,20C517,20 534,20 551,20"/>
<polygon style="fill:midnightblue;stroke:midnightblue;" points="551,16 561,20 551,23 551,16"/>
</g>
<g id="edge8" class="edge"><title>Node4-&gt;Node2</title>
<path style="fill:none;stroke:midnightblue;" d="M275,53C292,47 295,41 311,36 316,35 321,34 326,32"/>
<polygon style="fill:midnightblue;stroke:midnightblue;" points="326,29 336,30 327,35 326,29"/>
</g>
<g id="node10" class="node"><title>Node5</title>
<a xlink:href="_security_system_8c.html#a2d0a6f4e811adf18c96693529c2d81b4" target="_top" xlink:title="ArmingZoneState">
<polygon style="fill:none;stroke:black;" points="332,86 504,86 504,54 332,54 332,86"/>
<text text-anchor="middle" x="418" y="77" style="font-family:Helvetica;font-size:20.00;">ArmingZoneState</text>
</a>
</g>
<g id="edge10" class="edge"><title>Node4-&gt;Node5</title>
<path style="fill:none;stroke:midnightblue;" d="M275,69C291,69 306,69 322,70"/>
<polygon style="fill:midnightblue;stroke:midnightblue;" points="322,66 332,70 322,73 322,66"/>
</g>
<g id="node12" class="node"><title>Node6</title>
<a xlink:href="_security_system_8c.html#a290b0da69aaf212aa38c219c45a6d8a9" target="_top" xlink:title="isZoneMemberOfArea">
<polygon style="fill:none;stroke:black;" points="312,136 525,136 525,104 312,104 312,136"/>
<text text-anchor="middle" x="418" y="127" style="font-family:Helvetica;font-size:20.00;">isZoneMemberOfArea</text>
</a>
</g>
<g id="edge12" class="edge"><title>Node4-&gt;Node6</title>
<path style="fill:none;stroke:midnightblue;" d="M275,85C289,89 293,95 303,100"/>
<polygon style="fill:midnightblue;stroke:midnightblue;" points="304,97 312,104 301,103 304,97"/>
</g>
</g>
</svg>
