<?xml version="1.0" encoding="UTF-8" standalone="no"?>
<!DOCTYPE svg PUBLIC "-//W3C//DTD SVG 1.0//EN"
 "http://www.w3.org/TR/2001/REC-SVG-20010904/DTD/svg10.dtd" [
 <!ATTLIST svg xmlns:xlink CDATA #FIXED "http://www.w3.org/1999/xlink">
]>
<!-- Generated by dot version 1.13 (v16) (Mon August 23, 2004)
     For user: (jarrodneven) Jarrod  Neven   Title: G    Pages: 1 -->
<svg width="802pt" height="144pt"
 viewBox = "-1 -1 801 143"
 xmlns="http://www.w3.org/2000/svg" xmlns:xlink="http://www.w3.org/1999/xlink">
<g id="graph0" class="graph" style="font-family:Times-Roman;font-size:14.00;">
<title>G</title>
<g id="node1" class="node"><title>Node1</title>
<polygon style="fill:#bfbfbf;stroke:black;" points="6,86 105,86 105,54 6,54 6,86"/>
<text text-anchor="middle" x="55" y="77" style="font-family:Helvetica;font-size:20.00;">ArmLatchkey</text>
</g>
<g id="node3" class="node"><title>Node2</title>
<a xlink:href="_security_system_8c.html#ad2cdbcce787b8a3c88addf52f996805f" target="_top" xlink:title="StateChangeToArm">
<polygon style="fill:none;stroke:black;" points="142,86 333,86 333,54 142,54 142,86"/>
<text text-anchor="middle" x="237" y="77" style="font-family:Helvetica;font-size:20.00;">StateChangeToArm</text>
</a>
</g>
<g id="edge2" class="edge"><title>Node1-&gt;Node2</title>
<path style="fill:none;stroke:midnightblue;" d="M105,70C113,70 122,70 132,70"/>
<polygon style="fill:midnightblue;stroke:midnightblue;" points="132,66 142,70 132,73 132,66"/>
</g>
<g id="node5" class="node"><title>Node3</title>
<a xlink:href="_security_system_8h.html#a30c3c9cdda2491c17d5d6d5cc6426b31" target="_top" xlink:title="addxPLMessage">
<polygon style="fill:none;stroke:black;" points="394,36 559,36 559,4 394,4 394,36"/>
<text text-anchor="middle" x="476" y="27" style="font-family:Helvetica;font-size:20.00;">addxPLMessage</text>
</a>
</g>
<g id="edge4" class="edge"><title>Node2-&gt;Node3</title>
<path style="fill:none;stroke:midnightblue;" d="M333,54C351,49 352,42 369,36 374,35 379,33 384,32"/>
<polygon style="fill:midnightblue;stroke:midnightblue;" points="384,29 394,30 385,35 384,29"/>
</g>
<g id="node9" class="node"><title>Node5</title>
<a xlink:href="_security_system_8c.html#a2d0a6f4e811adf18c96693529c2d81b4" target="_top" xlink:title="ArmingZoneState">
<polygon style="fill:none;stroke:black;" points="390,86 562,86 562,54 390,54 390,86"/>
<text text-anchor="middle" x="476" y="77" style="font-family:Helvetica;font-size:20.00;">ArmingZoneState</text>
</a>
</g>
<g id="edge8" class="edge"><title>Node2-&gt;Node5</title>
<path style="fill:none;stroke:midnightblue;" d="M333,70C349,70 364,70 380,70"/>
<polygon style="fill:midnightblue;stroke:midnightblue;" points="380,66 390,70 380,73 380,66"/>
</g>
<g id="node11" class="node"><title>Node6</title>
<a xlink:href="_security_system_8c.html#a290b0da69aaf212aa38c219c45a6d8a9" target="_top" xlink:title="isZoneMemberOfArea">
<polygon style="fill:none;stroke:black;" points="370,136 583,136 583,104 370,104 370,136"/>
<text text-anchor="middle" x="476" y="127" style="font-family:Helvetica;font-size:20.00;">isZoneMemberOfArea</text>
</a>
</g>
<g id="edge10" class="edge"><title>Node2-&gt;Node6</title>
<path style="fill:none;stroke:midnightblue;" d="M333,86C347,91 351,96 361,101"/>
<polygon style="fill:midnightblue;stroke:midnightblue;" points="362,98 370,104 359,104 362,98"/>
</g>
<g id="node7" class="node"><title>Node4</title>
<a xlink:href="_security_system_8c.html#a491f8822a8274ca5244c41d226e7136e" target="_top" xlink:title="ClearArmingFlags">
<polygon style="fill:none;stroke:black;" points="619,36 795,36 795,4 619,4 619,36"/>
<text text-anchor="middle" x="707" y="27" style="font-family:Helvetica;font-size:20.00;">ClearArmingFlags</text>
</a>
</g>
<g id="edge6" class="edge"><title>Node3-&gt;Node4</title>
<path style="fill:none;stroke:midnightblue;" d="M559,20C575,20 592,20 609,20"/>
<polygon style="fill:midnightblue;stroke:midnightblue;" points="609,16 619,20 609,23 609,16"/>
</g>
</g>
</svg>
