<?xml version="1.0" encoding="UTF-8" standalone="no"?>
<!DOCTYPE svg PUBLIC "-//W3C//DTD SVG 1.0//EN"
 "http://www.w3.org/TR/2001/REC-SVG-20010904/DTD/svg10.dtd" [
 <!ATTLIST svg xmlns:xlink CDATA #FIXED "http://www.w3.org/1999/xlink">
]>
<!-- Generated by dot version 1.13 (v16) (Mon August 23, 2004)
     For user: (jarrodneven) Jarrod  Neven   Title: G    Pages: 1 -->
<svg width="664pt" height="44pt"
 viewBox = "-1 -1 663 43"
 xmlns="http://www.w3.org/2000/svg" xmlns:xlink="http://www.w3.org/1999/xlink">
<g id="graph0" class="graph" style="font-family:Times-Roman;font-size:14.00;">
<title>G</title>
<g id="node1" class="node"><title>Node1</title>
<polygon style="fill:#bfbfbf;stroke:black;" points="5,36 121,36 121,4 5,4 5,36"/>
<text text-anchor="middle" x="63" y="27" style="font-family:Helvetica;font-size:20.00;">IsZoneTriggered</text>
</g>
<g id="node3" class="node"><title>Node2</title>
<a xlink:href="_security_system_8c.html#a3ccbc635f6f7bb31465920840c7db474" target="_top" xlink:title="IOTasks">
<polygon style="fill:none;stroke:black;" points="157,36 245,36 245,4 157,4 157,36"/>
<text text-anchor="middle" x="201" y="27" style="font-family:Helvetica;font-size:20.00;">IOTasks</text>
</a>
</g>
<g id="edge2" class="edge"><title>Node1-&gt;Node2</title>
<path style="fill:none;stroke:midnightblue;" d="M131,20C140,20 148,20 157,20"/>
<polygon style="fill:midnightblue;stroke:midnightblue;" points="131,23 121,20 131,16 131,23"/>
</g>
<g id="node5" class="node"><title>Node3</title>
<a xlink:href="x_p_l_8h.html#a62b4d90791ab073f74677d42bfb64253" target="_top" xlink:title="SchemaTasks">
<polygon style="fill:none;stroke:black;" points="281,36 421,36 421,4 281,4 281,36"/>
<text text-anchor="middle" x="351" y="27" style="font-family:Helvetica;font-size:20.00;">SchemaTasks</text>
</a>
</g>
<g id="edge4" class="edge"><title>Node2-&gt;Node3</title>
<path style="fill:none;stroke:midnightblue;" d="M255,20C264,20 273,20 281,20"/>
<polygon style="fill:midnightblue;stroke:midnightblue;" points="255,23 245,20 255,16 255,23"/>
</g>
<g id="node7" class="node"><title>Node4</title>
<a xlink:href="x_p_l_8h.html#a86d914c966f337c4e3a6fda46a945d11" target="_top" xlink:title="XPLTasks">
<polygon style="fill:none;stroke:black;" points="458,36 561,36 561,4 458,4 458,36"/>
<text text-anchor="middle" x="509" y="27" style="font-family:Helvetica;font-size:20.00;">XPLTasks</text>
</a>
</g>
<g id="edge6" class="edge"><title>Node3-&gt;Node4</title>
<path style="fill:none;stroke:midnightblue;" d="M431,20C440,20 449,20 458,20"/>
<polygon style="fill:midnightblue;stroke:midnightblue;" points="431,23 421,20 431,16 431,23"/>
</g>
<g id="node9" class="node"><title>Node5</title>
<a xlink:href="_main_demo_8c.html#a6288eba0f8e8ad3ab1544ad731eb7667" target="_top" xlink:title="main">
<polygon style="fill:none;stroke:black;" points="598,36 657,36 657,4 598,4 598,36"/>
<text text-anchor="middle" x="627" y="27" style="font-family:Helvetica;font-size:20.00;">main</text>
</a>
</g>
<g id="edge8" class="edge"><title>Node4-&gt;Node5</title>
<path style="fill:none;stroke:midnightblue;" d="M571,20C581,20 590,20 598,20"/>
<polygon style="fill:midnightblue;stroke:midnightblue;" points="571,23 561,20 571,16 571,23"/>
</g>
</g>
</svg>
