<?xml version="1.0" encoding="UTF-8" standalone="no"?>
<!DOCTYPE svg PUBLIC "-//W3C//DTD SVG 1.0//EN"
 "http://www.w3.org/TR/2001/REC-SVG-20010904/DTD/svg10.dtd" [
 <!ATTLIST svg xmlns:xlink CDATA #FIXED "http://www.w3.org/1999/xlink">
]>
<!-- Generated by dot version 1.13 (v16) (Mon August 23, 2004)
     For user: (jarrodneven) Jarrod  Neven   Title: G    Pages: 1 -->
<svg width="1498pt" height="559pt"
 viewBox = "-1 -1 1497 558"
 xmlns="http://www.w3.org/2000/svg" xmlns:xlink="http://www.w3.org/1999/xlink">
<g id="graph0" class="graph" style="font-family:Times-Roman;font-size:14.00;">
<title>G</title>
<g id="node1" class="node"><title>Node1</title>
<polygon style="fill:#bfbfbf;stroke:black;" points="5,251 129,251 129,219 5,219 5,251"/>
<text text-anchor="middle" x="67" y="242" style="font-family:Helvetica;font-size:20.00;">ClearArmingFlags</text>
</g>
<g id="node3" class="node"><title>Node2</title>
<a xlink:href="_security_x_p_l_sender_8c.html#a30c3c9cdda2491c17d5d6d5cc6426b31" target="_top" xlink:title="addxPLMessage">
<polygon style="fill:none;stroke:black;" points="166,251 331,251 331,219 166,219 166,251"/>
<text text-anchor="middle" x="248" y="242" style="font-family:Helvetica;font-size:20.00;">addxPLMessage</text>
</a>
</g>
<g id="edge2" class="edge"><title>Node1-&gt;Node2</title>
<path style="fill:none;stroke:midnightblue;" d="M139,235C148,235 157,235 166,235"/>
<polygon style="fill:midnightblue;stroke:midnightblue;" points="139,238 129,235 139,231 139,238"/>
</g>
<g id="node7" class="node"><title>Node4</title>
<a xlink:href="x_p_l_8h.html#a3baecc6556e5cc7af0d59d0216aa217c" target="_top" xlink:title="SchemaProcessUDPMsg">
<polygon style="fill:none;stroke:black;" points="771,360 1013,360 1013,328 771,328 771,360"/>
<text text-anchor="middle" x="892" y="351" style="font-family:Helvetica;font-size:20.00;">SchemaProcessUDPMsg</text>
</a>
</g>
<g id="edge68" class="edge"><title>Node1-&gt;Node4</title>
<path style="fill:none;stroke:midnightblue;" d="M138,257C261,337 228,448 367,509 442,541 668,551 735,505 770,482 760,458 767,417 769,408 765,381 771,373 776,367 782,363 787,360"/>
<polygon style="fill:midnightblue;stroke:midnightblue;" points="135,259 129,251 139,254 135,259"/>
</g>
<g id="node22" class="node"><title>Node11</title>
<a xlink:href="_h_t_t_p_forms_8c.html#a686ae35a16ecb63daffafcd015ddb070" target="_top" xlink:title="Processes all HTTP GETS.">
<polygon style="fill:none;stroke:black;" points="806,235 979,235 979,203 806,203 806,235"/>
<text text-anchor="middle" x="892" y="226" style="font-family:Helvetica;font-size:20.00;">HTTPExecuteGet</text>
</a>
</g>
<g id="edge66" class="edge"><title>Node1-&gt;Node11</title>
<path style="fill:none;stroke:midnightblue;" d="M138,214C249,158 245,81 367,40 445,15 673,4 735,56 738,59 769,188 771,190 774,193 789,197 794,198 804,200 812,202 819,203"/>
<polygon style="fill:midnightblue;stroke:midnightblue;" points="139,217 129,219 136,211 139,217"/>
</g>
<g id="node5" class="node"><title>Node3</title>
<a xlink:href="_security_system_8h.html#a723bf79e9ca7924d850e5c2be4029b1c" target="_top" xlink:title="Arm">
<polygon style="fill:none;stroke:black;" points="639,435 692,435 692,403 639,403 639,435"/>
<text text-anchor="middle" x="665" y="426" style="font-family:Helvetica;font-size:20.00;">Arm</text>
</a>
</g>
<g id="edge4" class="edge"><title>Node2-&gt;Node3</title>
<path style="fill:none;stroke:midnightblue;" d="M278,254C302,261 318,249 339,268 354,281 358,287 363,305 366,314 362,338 367,344 442,434 506,389 619,416 624,418 625,418 629,418 632,418 635,419 639,419"/>
<polygon style="fill:midnightblue;stroke:midnightblue;" points="277,257 268,251 279,251 277,257"/>
</g>
<g id="edge38" class="edge"><title>Node2-&gt;Node4</title>
<path style="fill:none;stroke:midnightblue;" d="M290,252C305,252 318,249 331,263 395,331 296,410 367,469 430,522 665,507 735,464 762,449 760,433 767,403 769,397 767,378 771,372 776,367 781,363 786,360"/>
<polygon style="fill:midnightblue;stroke:midnightblue;" points="290,255 280,251 290,249 290,255"/>
</g>
<g id="node15" class="node"><title>Node8</title>
<a xlink:href="_security_system_8h.html#ad7abffae7b40c1538c5411bfd808a68a" target="_top" xlink:title="Task process for managing the battery state.">
<polygon style="fill:none;stroke:black;" points="403,131 523,131 523,99 403,99 403,131"/>
<text text-anchor="middle" x="463" y="122" style="font-family:Helvetica;font-size:20.00;">BatteryTask</text>
</a>
</g>
<g id="edge14" class="edge"><title>Node2-&gt;Node8</title>
<path style="fill:none;stroke:midnightblue;" d="M338,212C359,187 337,156 367,131 377,123 390,119 403,116"/>
<polygon style="fill:midnightblue;stroke:midnightblue;" points="341,214 331,219 336,209 341,214"/>
</g>
<g id="node20" class="node"><title>Node10</title>
<a xlink:href="_security_system_8h.html#a3ca20943ab34a0d560cd22d88c0ba324" target="_top" xlink:title="Disarm">
<polygon style="fill:none;stroke:black;" points="626,185 705,185 705,153 626,153 626,185"/>
<text text-anchor="middle" x="665" y="176" style="font-family:Helvetica;font-size:20.00;">Disarm</text>
</a>
</g>
<g id="edge20" class="edge"><title>Node2-&gt;Node10</title>
<path style="fill:none;stroke:midnightblue;" d="M341,219C350,218 359,216 367,215 460,200 569,184 626,175"/>
<polygon style="fill:midnightblue;stroke:midnightblue;" points="341,222 331,221 340,216 341,222"/>
</g>
<g id="edge26" class="edge"><title>Node2-&gt;Node11</title>
<path style="fill:none;stroke:midnightblue;" d="M315,218C322,216 330,214 339,209 353,203 353,196 367,189 462,149 493,155 595,144 657,138 680,116 735,144 763,159 749,189 778,199 789,203 798,205 806,207"/>
<polygon style="fill:midnightblue;stroke:midnightblue;" points="315,221 305,219 315,215 315,221"/>
</g>
<g id="node26" class="node"><title>Node12</title>
<a xlink:href="_security_system_8c.html#a3ccbc635f6f7bb31465920840c7db474" target="_top" xlink:title="IOTasks">
<polygon style="fill:none;stroke:black;" points="419,81 507,81 507,49 419,49 419,81"/>
<text text-anchor="middle" x="463" y="72" style="font-family:Helvetica;font-size:20.00;">IOTasks</text>
</a>
</g>
<g id="edge28" class="edge"><title>Node2-&gt;Node12</title>
<path style="fill:none;stroke:midnightblue;" d="M338,212C372,170 324,122 367,81 381,68 401,64 419,62"/>
<polygon style="fill:midnightblue;stroke:midnightblue;" points="341,214 331,219 336,209 341,214"/>
</g>
<g id="node29" class="node"><title>Node13</title>
<a xlink:href="_security_system_8h.html#a1e04428a714d6c8c97cb8685f96933ee" target="_top" xlink:title="Panic">
<polygon style="fill:none;stroke:black;" points="632,235 698,235 698,203 632,203 632,235"/>
<text text-anchor="middle" x="665" y="226" style="font-family:Helvetica;font-size:20.00;">Panic</text>
</a>
</g>
<g id="edge32" class="edge"><title>Node2-&gt;Node13</title>
<path style="fill:none;stroke:midnightblue;" d="M341,232C433,228 570,223 632,220"/>
<polygon style="fill:midnightblue;stroke:midnightblue;" points="341,235 331,232 341,228 341,235"/>
</g>
<g id="node34" class="node"><title>Node14</title>
<a xlink:href="_security_system_8c.html#ad2cdbcce787b8a3c88addf52f996805f" target="_top" xlink:title="StateChangeToArm">
<polygon style="fill:none;stroke:black;" points="368,335 559,335 559,303 368,303 368,335"/>
<text text-anchor="middle" x="463" y="326" style="font-family:Helvetica;font-size:20.00;">StateChangeToArm</text>
</a>
</g>
<g id="edge40" class="edge"><title>Node2-&gt;Node14</title>
<path style="fill:none;stroke:midnightblue;" d="M339,258C353,272 347,290 367,303 367,303 368,303 368,304"/>
<polygon style="fill:midnightblue;stroke:midnightblue;" points="336,260 331,251 341,255 336,260"/>
</g>
<g id="node49" class="node"><title>Node18</title>
<a xlink:href="_authenticate_8c.html#a207b19b2185ffaa19d1d3f053b996121" target="_top" xlink:title="xPLAuthenticate">
<polygon style="fill:none;stroke:black;" points="382,460 544,460 544,428 382,428 382,460"/>
<text text-anchor="middle" x="463" y="451" style="font-family:Helvetica;font-size:20.00;">xPLAuthenticate</text>
</a>
</g>
<g id="edge62" class="edge"><title>Node2-&gt;Node18</title>
<path style="fill:none;stroke:midnightblue;" d="M338,258C382,314 312,375 367,428 371,432 376,436 382,438"/>
<polygon style="fill:midnightblue;stroke:midnightblue;" points="336,261 331,251 341,256 336,261"/>
</g>
<g id="edge6" class="edge"><title>Node3-&gt;Node4</title>
<path style="fill:none;stroke:midnightblue;" d="M702,415C713,413 725,409 735,403 757,390 750,373 771,360"/>
<polygon style="fill:midnightblue;stroke:midnightblue;" points="702,418 692,417 701,412 702,418"/>
</g>
<g id="node9" class="node"><title>Node5</title>
<a xlink:href="x_p_l_8c.html#a41c59f641ff95b999e66c0d45117b73d" target="_top" xlink:title="XPLProcessUDPMsg">
<polygon style="fill:none;stroke:black;" points="1049,286 1255,286 1255,254 1049,254 1049,286"/>
<text text-anchor="middle" x="1152" y="277" style="font-family:Helvetica;font-size:20.00;">XPLProcessUDPMsg</text>
</a>
</g>
<g id="edge8" class="edge"><title>Node4-&gt;Node5</title>
<path style="fill:none;stroke:midnightblue;" d="M1022,322C1033,311 1031,296 1049,286"/>
<polygon style="fill:midnightblue;stroke:midnightblue;" points="1024,325 1014,328 1020,319 1024,325"/>
</g>
<g id="node11" class="node"><title>Node6</title>
<a xlink:href="x_p_l_8h.html#a86d914c966f337c4e3a6fda46a945d11" target="_top" xlink:title="XPLTasks">
<polygon style="fill:none;stroke:black;" points="1292,215 1395,215 1395,183 1292,183 1292,215"/>
<text text-anchor="middle" x="1343" y="206" style="font-family:Helvetica;font-size:20.00;">XPLTasks</text>
</a>
</g>
<g id="edge10" class="edge"><title>Node5-&gt;Node6</title>
<path style="fill:none;stroke:midnightblue;" d="M1264,248C1275,238 1275,226 1291,215 1291,215 1292,215 1292,214"/>
<polygon style="fill:midnightblue;stroke:midnightblue;" points="1265,251 1255,254 1261,246 1265,251"/>
</g>
<g id="node13" class="node"><title>Node7</title>
<a xlink:href="_main_demo_8c.html#a6288eba0f8e8ad3ab1544ad731eb7667" target="_top" xlink:title="main">
<polygon style="fill:none;stroke:black;" points="1432,215 1491,215 1491,183 1432,183 1432,215"/>
<text text-anchor="middle" x="1461" y="206" style="font-family:Helvetica;font-size:20.00;">main</text>
</a>
</g>
<g id="edge12" class="edge"><title>Node6-&gt;Node7</title>
<path style="fill:none;stroke:midnightblue;" d="M1405,199C1415,199 1424,199 1432,199"/>
<polygon style="fill:midnightblue;stroke:midnightblue;" points="1405,202 1395,199 1405,195 1405,202"/>
</g>
<g id="node17" class="node"><title>Node9</title>
<a xlink:href="x_p_l_8h.html#a62b4d90791ab073f74677d42bfb64253" target="_top" xlink:title="SchemaTasks">
<polygon style="fill:none;stroke:black;" points="595,97 735,97 735,65 595,65 595,97"/>
<text text-anchor="middle" x="665" y="88" style="font-family:Helvetica;font-size:20.00;">SchemaTasks</text>
</a>
</g>
<g id="edge16" class="edge"><title>Node8-&gt;Node9</title>
<path style="fill:none;stroke:midnightblue;" d="M533,103C542,102 551,100 559,99 571,97 583,95 595,93"/>
<polygon style="fill:midnightblue;stroke:midnightblue;" points="533,106 523,105 532,100 533,106"/>
</g>
<g id="edge18" class="edge"><title>Node9-&gt;Node6</title>
<path style="fill:none;stroke:midnightblue;" d="M745,95C886,119 1175,169 1292,190"/>
<polygon style="fill:midnightblue;stroke:midnightblue;" points="744,98 735,93 745,92 744,98"/>
</g>
<g id="edge24" class="edge"><title>Node10-&gt;Node4</title>
<path style="fill:none;stroke:midnightblue;" d="M715,173C722,176 729,179 735,185 782,231 723,285 771,328"/>
<polygon style="fill:midnightblue;stroke:midnightblue;" points="714,176 705,171 715,170 714,176"/>
</g>
<g id="edge22" class="edge"><title>Node10-&gt;Node11</title>
<path style="fill:none;stroke:midnightblue;" d="M715,179C722,181 729,183 735,185 752,192 754,198 771,203 782,206 794,209 806,211"/>
<polygon style="fill:midnightblue;stroke:midnightblue;" points="714,182 705,177 715,176 714,182"/>
</g>
<g id="edge30" class="edge"><title>Node12-&gt;Node9</title>
<path style="fill:none;stroke:midnightblue;" d="M517,70C541,71 570,73 595,75"/>
<polygon style="fill:midnightblue;stroke:midnightblue;" points="517,73 507,69 517,67 517,73"/>
</g>
<g id="edge36" class="edge"><title>Node13-&gt;Node4</title>
<path style="fill:none;stroke:midnightblue;" d="M708,222C718,225 727,229 735,235 769,264 737,301 771,328"/>
<polygon style="fill:midnightblue;stroke:midnightblue;" points="707,225 698,220 708,219 707,225"/>
</g>
<g id="edge34" class="edge"><title>Node13-&gt;Node11</title>
<path style="fill:none;stroke:midnightblue;" d="M708,219C735,219 772,219 806,219"/>
<polygon style="fill:midnightblue;stroke:midnightblue;" points="708,222 698,219 708,215 708,222"/>
</g>
<g id="edge42" class="edge"><title>Node14-&gt;Node3</title>
<path style="fill:none;stroke:midnightblue;" d="M567,342C583,361 571,385 595,403 608,413 625,417 639,418"/>
<polygon style="fill:midnightblue;stroke:midnightblue;" points="564,344 559,335 569,339 564,344"/>
</g>
<g id="node37" class="node"><title>Node15</title>
<a xlink:href="_security_system_8h.html#af7b9ebfe6bb90725304e83cadb4cced8" target="_top" xlink:title="ArmAway">
<polygon style="fill:none;stroke:black;" points="615,385 716,385 716,353 615,353 615,385"/>
<text text-anchor="middle" x="665" y="376" style="font-family:Helvetica;font-size:20.00;">ArmAway</text>
</a>
</g>
<g id="edge44" class="edge"><title>Node14-&gt;Node15</title>
<path style="fill:none;stroke:midnightblue;" d="M569,339C578,344 582,348 595,353 601,355 608,357 615,359"/>
<polygon style="fill:midnightblue;stroke:midnightblue;" points="567,342 559,335 570,335 567,342"/>
</g>
<g id="node41" class="node"><title>Node16</title>
<a xlink:href="_security_system_8h.html#afba09fe6505822eb03078088f14ef89b" target="_top" xlink:title="ArmHome">
<polygon style="fill:none;stroke:black;" points="612,285 718,285 718,253 612,253 612,285"/>
<text text-anchor="middle" x="665" y="276" style="font-family:Helvetica;font-size:20.00;">ArmHome</text>
</a>
</g>
<g id="edge50" class="edge"><title>Node14-&gt;Node16</title>
<path style="fill:none;stroke:midnightblue;" d="M569,300C578,295 582,291 595,285 600,283 606,282 612,280"/>
<polygon style="fill:midnightblue;stroke:midnightblue;" points="570,303 559,303 568,297 570,303"/>
</g>
<g id="node45" class="node"><title>Node17</title>
<a xlink:href="_security_system_8h.html#aad7b06369f4a1f3b427e137a9f84a5c0" target="_top" xlink:title="ArmLatchkey">
<polygon style="fill:none;stroke:black;" points="599,335 732,335 732,303 599,303 599,335"/>
<text text-anchor="middle" x="665" y="326" style="font-family:Helvetica;font-size:20.00;">ArmLatchkey</text>
</a>
</g>
<g id="edge56" class="edge"><title>Node14-&gt;Node17</title>
<path style="fill:none;stroke:midnightblue;" d="M569,319C579,319 589,319 599,319"/>
<polygon style="fill:midnightblue;stroke:midnightblue;" points="569,322 559,319 569,315 569,322"/>
</g>
<g id="edge48" class="edge"><title>Node15-&gt;Node4</title>
<path style="fill:none;stroke:midnightblue;" d="M726,362C740,360 756,359 771,357"/>
<polygon style="fill:midnightblue;stroke:midnightblue;" points="726,365 716,363 726,359 726,365"/>
</g>
<g id="edge46" class="edge"><title>Node15-&gt;Node11</title>
<path style="fill:none;stroke:midnightblue;" d="M725,360C729,358 732,356 735,353 776,316 730,271 771,235 781,227 793,221 806,218"/>
<polygon style="fill:midnightblue;stroke:midnightblue;" points="727,363 716,364 724,357 727,363"/>
</g>
<g id="edge54" class="edge"><title>Node16-&gt;Node4</title>
<path style="fill:none;stroke:midnightblue;" d="M727,281C730,282 733,284 735,285 757,299 750,316 771,328"/>
<polygon style="fill:midnightblue;stroke:midnightblue;" points="726,284 718,277 729,278 726,284"/>
</g>
<g id="edge52" class="edge"><title>Node16-&gt;Node11</title>
<path style="fill:none;stroke:midnightblue;" d="M728,256C730,255 733,254 735,253 752,247 754,241 771,235 782,232 794,229 806,227"/>
<polygon style="fill:midnightblue;stroke:midnightblue;" points="728,259 718,258 727,253 728,259"/>
</g>
<g id="edge60" class="edge"><title>Node17-&gt;Node4</title>
<path style="fill:none;stroke:midnightblue;" d="M742,327C751,328 761,330 771,331"/>
<polygon style="fill:midnightblue;stroke:midnightblue;" points="742,330 732,326 742,324 742,330"/>
</g>
<g id="edge58" class="edge"><title>Node17-&gt;Node11</title>
<path style="fill:none;stroke:midnightblue;" d="M740,298C760,278 746,253 771,235 781,228 793,224 806,221"/>
<polygon style="fill:midnightblue;stroke:midnightblue;" points="742,301 732,305 737,296 742,301"/>
</g>
<g id="edge64" class="edge"><title>Node18-&gt;Node4</title>
<path style="fill:none;stroke:midnightblue;" d="M554,455C622,460 706,463 735,444 767,425 742,392 771,369 776,365 782,362 786,360"/>
<polygon style="fill:midnightblue;stroke:midnightblue;" points="554,458 544,454 554,452 554,458"/>
</g>
</g>
</svg>
