<?xml version="1.0" encoding="UTF-8" standalone="no"?>
<!DOCTYPE svg PUBLIC "-//W3C//DTD SVG 1.0//EN"
 "http://www.w3.org/TR/2001/REC-SVG-20010904/DTD/svg10.dtd" [
 <!ATTLIST svg xmlns:xlink CDATA #FIXED "http://www.w3.org/1999/xlink">
]>
<!-- Generated by dot version 1.13 (v16) (Mon August 23, 2004)
     For user: (jarrodneven) Jarrod  Neven   Title: G    Pages: 1 -->
<svg width="388pt" height="94pt"
 viewBox = "-1 -1 387 93"
 xmlns="http://www.w3.org/2000/svg" xmlns:xlink="http://www.w3.org/1999/xlink">
<g id="graph0" class="graph" style="font-family:Times-Roman;font-size:14.00;">
<title>G</title>
<g id="node1" class="node"><title>Node1</title>
<polygon style="fill:#bfbfbf;stroke:black;" points="5,61 131,61 131,29 5,29 5,61"/>
<text text-anchor="middle" x="68" y="52" style="font-family:Helvetica;font-size:20.00;">SendAlarmingMsg</text>
</g>
<g id="node3" class="node"><title>Node2</title>
<a xlink:href="_security_system_8c.html#a290b0da69aaf212aa38c219c45a6d8a9" target="_top" xlink:title="isZoneMemberOfArea">
<polygon style="fill:none;stroke:black;" points="168,36 381,36 381,4 168,4 168,36"/>
<text text-anchor="middle" x="274" y="27" style="font-family:Helvetica;font-size:20.00;">isZoneMemberOfArea</text>
</a>
</g>
<g id="edge2" class="edge"><title>Node1-&gt;Node2</title>
<path style="fill:none;stroke:midnightblue;" d="M131,37C140,36 149,35 158,34"/>
<polygon style="fill:midnightblue;stroke:midnightblue;" points="158,31 168,33 158,37 158,31"/>
</g>
<g id="node5" class="node"><title>Node3</title>
<a xlink:href="x_p_l_8c.html#abde6ae0f37ef47bee8e881bba8502169" target="_top" xlink:title="XPLSendHeader">
<polygon style="fill:none;stroke:black;" points="191,86 357,86 357,54 191,54 191,86"/>
<text text-anchor="middle" x="274" y="77" style="font-family:Helvetica;font-size:20.00;">XPLSendHeader</text>
</a>
</g>
<g id="edge4" class="edge"><title>Node1-&gt;Node3</title>
<path style="fill:none;stroke:midnightblue;" d="M131,53C147,55 164,57 181,59"/>
<polygon style="fill:midnightblue;stroke:midnightblue;" points="181,56 191,60 181,62 181,56"/>
</g>
</g>
</svg>
