<?xml version="1.0" encoding="UTF-8" standalone="no"?>
<!DOCTYPE svg PUBLIC "-//W3C//DTD SVG 1.0//EN"
 "http://www.w3.org/TR/2001/REC-SVG-20010904/DTD/svg10.dtd" [
 <!ATTLIST svg xmlns:xlink CDATA #FIXED "http://www.w3.org/1999/xlink">
]>
<!-- Generated by dot version 1.13 (v16) (Mon August 23, 2004)
     For user: (jarrodneven) Jarrod  Neven   Title: G    Pages: 1 -->
<svg width="778pt" height="144pt"
 viewBox = "-1 -1 777 143"
 xmlns="http://www.w3.org/2000/svg" xmlns:xlink="http://www.w3.org/1999/xlink">
<g id="graph0" class="graph" style="font-family:Times-Roman;font-size:14.00;">
<title>G</title>
<g id="node1" class="node"><title>Node1</title>
<polygon style="fill:#bfbfbf;stroke:black;" points="5,86 81,86 81,54 5,54 5,86"/>
<text text-anchor="middle" x="43" y="77" style="font-family:Helvetica;font-size:20.00;">ArmAway</text>
</g>
<g id="node3" class="node"><title>Node2</title>
<a xlink:href="_security_system_8c.html#ad2cdbcce787b8a3c88addf52f996805f" target="_top" xlink:title="StateChangeToArm">
<polygon style="fill:none;stroke:black;" points="118,86 309,86 309,54 118,54 118,86"/>
<text text-anchor="middle" x="213" y="77" style="font-family:Helvetica;font-size:20.00;">StateChangeToArm</text>
</a>
</g>
<g id="edge2" class="edge"><title>Node1-&gt;Node2</title>
<path style="fill:none;stroke:midnightblue;" d="M81,70C89,70 98,70 108,70"/>
<polygon style="fill:midnightblue;stroke:midnightblue;" points="108,66 118,70 108,73 108,66"/>
</g>
<g id="node5" class="node"><title>Node3</title>
<a xlink:href="_security_system_8h.html#a30c3c9cdda2491c17d5d6d5cc6426b31" target="_top" xlink:title="addxPLMessage">
<polygon style="fill:none;stroke:black;" points="370,36 535,36 535,4 370,4 370,36"/>
<text text-anchor="middle" x="452" y="27" style="font-family:Helvetica;font-size:20.00;">addxPLMessage</text>
</a>
</g>
<g id="edge4" class="edge"><title>Node2-&gt;Node3</title>
<path style="fill:none;stroke:midnightblue;" d="M309,54C327,49 328,42 345,36 350,35 355,33 360,32"/>
<polygon style="fill:midnightblue;stroke:midnightblue;" points="360,29 370,30 361,35 360,29"/>
</g>
<g id="node9" class="node"><title>Node5</title>
<a xlink:href="_security_system_8c.html#a2d0a6f4e811adf18c96693529c2d81b4" target="_top" xlink:title="ArmingZoneState">
<polygon style="fill:none;stroke:black;" points="366,86 538,86 538,54 366,54 366,86"/>
<text text-anchor="middle" x="452" y="77" style="font-family:Helvetica;font-size:20.00;">ArmingZoneState</text>
</a>
</g>
<g id="edge8" class="edge"><title>Node2-&gt;Node5</title>
<path style="fill:none;stroke:midnightblue;" d="M309,70C325,70 340,70 356,70"/>
<polygon style="fill:midnightblue;stroke:midnightblue;" points="356,66 366,70 356,73 356,66"/>
</g>
<g id="node11" class="node"><title>Node6</title>
<a xlink:href="_security_system_8c.html#a290b0da69aaf212aa38c219c45a6d8a9" target="_top" xlink:title="isZoneMemberOfArea">
<polygon style="fill:none;stroke:black;" points="346,136 559,136 559,104 346,104 346,136"/>
<text text-anchor="middle" x="452" y="127" style="font-family:Helvetica;font-size:20.00;">isZoneMemberOfArea</text>
</a>
</g>
<g id="edge10" class="edge"><title>Node2-&gt;Node6</title>
<path style="fill:none;stroke:midnightblue;" d="M309,86C323,91 327,96 337,101"/>
<polygon style="fill:midnightblue;stroke:midnightblue;" points="338,98 346,104 335,104 338,98"/>
</g>
<g id="node7" class="node"><title>Node4</title>
<a xlink:href="_security_system_8c.html#a491f8822a8274ca5244c41d226e7136e" target="_top" xlink:title="ClearArmingFlags">
<polygon style="fill:none;stroke:black;" points="595,36 771,36 771,4 595,4 595,36"/>
<text text-anchor="middle" x="683" y="27" style="font-family:Helvetica;font-size:20.00;">ClearArmingFlags</text>
</a>
</g>
<g id="edge6" class="edge"><title>Node3-&gt;Node4</title>
<path style="fill:none;stroke:midnightblue;" d="M535,20C551,20 568,20 585,20"/>
<polygon style="fill:midnightblue;stroke:midnightblue;" points="585,16 595,20 585,23 585,16"/>
</g>
</g>
</svg>
