<?xml version="1.0" encoding="UTF-8" standalone="no"?>
<!DOCTYPE svg PUBLIC "-//W3C//DTD SVG 1.0//EN"
 "http://www.w3.org/TR/2001/REC-SVG-20010904/DTD/svg10.dtd" [
 <!ATTLIST svg xmlns:xlink CDATA #FIXED "http://www.w3.org/1999/xlink">
]>
<!-- Generated by dot version 1.13 (v16) (Mon August 23, 2004)
     For user: (jarrodneven) Jarrod  Neven   Title: G    Pages: 1 -->
<svg width="348pt" height="94pt"
 viewBox = "-1 -1 347 93"
 xmlns="http://www.w3.org/2000/svg" xmlns:xlink="http://www.w3.org/1999/xlink">
<g id="graph0" class="graph" style="font-family:Times-Roman;font-size:14.00;">
<title>G</title>
<g id="node1" class="node"><title>Node1</title>
<polygon style="fill:#bfbfbf;stroke:black;" points="6,61 139,61 139,29 6,29 6,61"/>
<text text-anchor="middle" x="72" y="52" style="font-family:Helvetica;font-size:20.00;">SendConfigCurrent</text>
</g>
<g id="node3" class="node"><title>Node2</title>
<a xlink:href="_security_system_8h.html#a0a59aa6a73171b98b88cf2f9070ceac4" target="_top" xlink:title="SendIPValue">
<polygon style="fill:none;stroke:black;" points="193,36 324,36 324,4 193,4 193,36"/>
<text text-anchor="middle" x="258" y="27" style="font-family:Helvetica;font-size:20.00;">SendIPValue</text>
</a>
</g>
<g id="edge2" class="edge"><title>Node1-&gt;Node2</title>
<path style="fill:none;stroke:midnightblue;" d="M139,36C153,34 168,32 183,30"/>
<polygon style="fill:midnightblue;stroke:midnightblue;" points="183,27 193,29 183,33 183,27"/>
</g>
<g id="node5" class="node"><title>Node3</title>
<a xlink:href="x_p_l_8c.html#abde6ae0f37ef47bee8e881bba8502169" target="_top" xlink:title="XPLSendHeader">
<polygon style="fill:none;stroke:black;" points="175,86 341,86 341,54 175,54 175,86"/>
<text text-anchor="middle" x="258" y="77" style="font-family:Helvetica;font-size:20.00;">XPLSendHeader</text>
</a>
</g>
<g id="edge4" class="edge"><title>Node1-&gt;Node3</title>
<path style="fill:none;stroke:midnightblue;" d="M139,54C148,55 156,56 165,58"/>
<polygon style="fill:midnightblue;stroke:midnightblue;" points="165,55 175,59 165,61 165,55"/>
</g>
</g>
</svg>
