<?xml version="1.0" encoding="UTF-8" standalone="no"?>
<!DOCTYPE svg PUBLIC "-//W3C//DTD SVG 1.0//EN"
 "http://www.w3.org/TR/2001/REC-SVG-20010904/DTD/svg10.dtd" [
 <!ATTLIST svg xmlns:xlink CDATA #FIXED "http://www.w3.org/1999/xlink">
]>
<!-- Generated by dot version 1.13 (v16) (Mon August 23, 2004)
     For user: (jarrodneven) Jarrod  Neven   Title: G    Pages: 1 -->
<svg width="2382pt" height="112pt"
 viewBox = "-1 -1 2381 111"
 xmlns="http://www.w3.org/2000/svg" xmlns:xlink="http://www.w3.org/1999/xlink">
<g id="graph0" class="graph" style="font-family:Times-Roman;font-size:14.00;">
<title>G</title>
<g id="node1" class="node"><title>Node1</title>
<polygon style="fill:#bfbfbf;stroke:black;" points="1056,36 1244,36 1244,4 1056,4 1056,36"/>
<text text-anchor="middle" x="1150" y="27" style="font-family:Helvetica;font-size:20.00;">PIC Code/SecuritySystem.h</text>
</g>
<g id="node3" class="node"><title>Node2</title>
<a xlink:href="_authenticate_8c.html" target="_top" xlink:title="Authenication, xPL and web.">
<polygon style="fill:none;stroke:black;" points="5,104 240,104 240,72 5,72 5,104"/>
<text text-anchor="middle" x="122" y="95" style="font-family:Helvetica;font-size:20.00;">PIC Code/Authenticate.c</text>
</a>
</g>
<g id="edge2" class="edge"><title>Node1-&gt;Node2</title>
<path style="fill:none;stroke:midnightblue;" d="M1046,37C694,74 599,40 240,72"/>
<polygon style="fill:midnightblue;stroke:midnightblue;" points="1046,34 1056,36 1046,40 1046,34"/>
</g>
<g id="node5" class="node"><title>Node3</title>
<a xlink:href="_battery_8c.html" target="_top" xlink:title="Backup battery management.">
<polygon style="fill:none;stroke:black;" points="257,104 443,104 443,72 257,72 257,104"/>
<text text-anchor="middle" x="350" y="95" style="font-family:Helvetica;font-size:20.00;">PIC Code/Battery.c</text>
</a>
</g>
<g id="edge4" class="edge"><title>Node1-&gt;Node3</title>
<path style="fill:none;stroke:midnightblue;" d="M1046,37C783,66 712,41 443,72"/>
<polygon style="fill:midnightblue;stroke:midnightblue;" points="1046,34 1056,36 1046,40 1046,34"/>
</g>
<g id="node7" class="node"><title>Node4</title>
<a xlink:href="_custom_s_n_t_p_8c.html" target="_top" xlink:title="Custom version of SNTP.">
<polygon style="fill:none;stroke:black;" points="461,104 704,104 704,72 461,72 461,104"/>
<text text-anchor="middle" x="582" y="95" style="font-family:Helvetica;font-size:20.00;">PIC Code/CustomSNTP.c</text>
</a>
</g>
<g id="edge6" class="edge"><title>Node1-&gt;Node4</title>
<path style="fill:none;stroke:midnightblue;" d="M1046,37C899,58 857,54 704,72"/>
<polygon style="fill:midnightblue;stroke:midnightblue;" points="1046,34 1056,36 1046,40 1046,34"/>
</g>
<g id="node9" class="node"><title>Node5</title>
<a xlink:href="_e_o_l_8c.html" target="_top" xlink:title="End Of Line detection, hardware interface.">
<polygon style="fill:none;stroke:black;" points="721,104 885,104 885,72 721,72 721,104"/>
<text text-anchor="middle" x="803" y="95" style="font-family:Helvetica;font-size:20.00;">PIC Code/EOL.c</text>
</a>
</g>
<g id="edge8" class="edge"><title>Node1-&gt;Node5</title>
<path style="fill:none;stroke:midnightblue;" d="M1058,38C1005,49 937,62 885,72"/>
<polygon style="fill:midnightblue;stroke:midnightblue;" points="1058,35 1068,36 1059,41 1058,35"/>
</g>
<g id="node11" class="node"><title>Node6</title>
<a xlink:href="_h_t_t_p_forms_8c.html" target="_top" xlink:title="Processes data from HTML forms.">
<polygon style="fill:none;stroke:black;" points="903,104 1136,104 1136,72 903,72 903,104"/>
<text text-anchor="middle" x="1019" y="95" style="font-family:Helvetica;font-size:20.00;">PIC Code/HTTPForms.c</text>
</a>
</g>
<g id="edge10" class="edge"><title>Node1-&gt;Node6</title>
<path style="fill:none;stroke:midnightblue;" d="M1110,41C1091,51 1068,63 1050,72"/>
<polygon style="fill:midnightblue;stroke:midnightblue;" points="1109,38 1119,36 1112,44 1109,38"/>
</g>
<g id="node13" class="node"><title>Node7</title>
<a xlink:href="_h_t_t_p_variables_8c.html" target="_top" xlink:title="All HTML variables are defined here.">
<polygon style="fill:none;stroke:black;" points="1153,104 1411,104 1411,72 1153,72 1153,104"/>
<text text-anchor="middle" x="1282" y="95" style="font-family:Helvetica;font-size:20.00;">PIC Code/HTTPVariables.c</text>
</a>
</g>
<g id="edge12" class="edge"><title>Node1-&gt;Node7</title>
<path style="fill:none;stroke:midnightblue;" d="M1190,41C1210,51 1233,63 1251,72"/>
<polygon style="fill:midnightblue;stroke:midnightblue;" points="1188,44 1181,36 1191,38 1188,44"/>
</g>
<g id="node15" class="node"><title>Node8</title>
<a xlink:href="_security_system_8c.html" target="_top" xlink:title="Main of security.">
<polygon style="fill:none;stroke:black;" points="1429,104 1692,104 1692,72 1429,72 1429,104"/>
<text text-anchor="middle" x="1560" y="95" style="font-family:Helvetica;font-size:20.00;">PIC Code/SecuritySystem.c</text>
</a>
</g>
<g id="edge14" class="edge"><title>Node1-&gt;Node8</title>
<path style="fill:none;stroke:midnightblue;" d="M1254,38C1324,49 1401,62 1461,72"/>
<polygon style="fill:midnightblue;stroke:midnightblue;" points="1253,41 1244,36 1254,35 1253,41"/>
</g>
<g id="node17" class="node"><title>Node9</title>
<a xlink:href="_security_x_p_l_sender_8c.html" target="_top" xlink:title="Sends all security xPL messages.">
<polygon style="fill:none;stroke:black;" points="1709,104 2006,104 2006,72 1709,72 1709,104"/>
<text text-anchor="middle" x="1857" y="95" style="font-family:Helvetica;font-size:20.00;">PIC Code/SecurityXPLSender.c</text>
</a>
</g>
<g id="edge16" class="edge"><title>Node1-&gt;Node9</title>
<path style="fill:none;stroke:midnightblue;" d="M1254,37C1451,62 1505,53 1709,72"/>
<polygon style="fill:midnightblue;stroke:midnightblue;" points="1254,40 1244,36 1254,34 1254,40"/>
</g>
<g id="node19" class="node"><title>Node10</title>
<a xlink:href="_s_m_t_p_8c.html" target="_top" xlink:title="All things Email.">
<polygon style="fill:none;stroke:black;" points="2023,104 2200,104 2200,72 2023,72 2023,104"/>
<text text-anchor="middle" x="2111" y="95" style="font-family:Helvetica;font-size:20.00;">PIC Code/SMTP.c</text>
</a>
</g>
<g id="edge18" class="edge"><title>Node1-&gt;Node10</title>
<path style="fill:none;stroke:midnightblue;" d="M1254,37C1590,73 1681,33 2023,72"/>
<polygon style="fill:midnightblue;stroke:midnightblue;" points="1254,40 1244,36 1254,34 1254,40"/>
</g>
<g id="node21" class="node"><title>Node11</title>
<a xlink:href="x_p_l_8c.html" target="_top" xlink:title="xPL Framework">
<polygon style="fill:none;stroke:black;" points="2217,104 2375,104 2375,72 2217,72 2217,104"/>
<text text-anchor="middle" x="2296" y="95" style="font-family:Helvetica;font-size:20.00;">PIC Code/xPL.c</text>
</a>
</g>
<g id="edge20" class="edge"><title>Node1-&gt;Node11</title>
<path style="fill:none;stroke:midnightblue;" d="M1254,37C1676,80 1790,21 2217,72"/>
<polygon style="fill:midnightblue;stroke:midnightblue;" points="1254,40 1244,36 1254,34 1254,40"/>
</g>
</g>
</svg>
