<?xml version="1.0" encoding="UTF-8" standalone="no"?>
<!DOCTYPE svg PUBLIC "-//W3C//DTD SVG 1.0//EN"
 "http://www.w3.org/TR/2001/REC-SVG-20010904/DTD/svg10.dtd" [
 <!ATTLIST svg xmlns:xlink CDATA #FIXED "http://www.w3.org/1999/xlink">
]>
<!-- Generated by dot version 1.13 (v16) (Mon August 23, 2004)
     For user: (jarrodneven) Jarrod  Neven   Title: G    Pages: 1 -->
<svg width="392pt" height="144pt"
 viewBox = "-1 -1 391 143"
 xmlns="http://www.w3.org/2000/svg" xmlns:xlink="http://www.w3.org/1999/xlink">
<g id="graph0" class="graph" style="font-family:Times-Roman;font-size:14.00;">
<title>G</title>
<g id="node1" class="node"><title>Node1</title>
<polygon style="fill:#bfbfbf;stroke:black;" points="6,86 91,86 91,54 6,54 6,86"/>
<text text-anchor="middle" x="48" y="77" style="font-family:Helvetica;font-size:20.00;">ModifyUser</text>
</g>
<g id="node3" class="node"><title>Node2</title>
<a xlink:href="_h_t_t_p_forms_8c.html#a6e8f2eab6326e5e8d0884ac0f3329628" target="_top" xlink:title="Decodes and int value from a HTTP buffer (GET)">
<polygon style="fill:none;stroke:black;" points="159,36 354,36 354,4 159,4 159,36"/>
<text text-anchor="middle" x="256" y="27" style="font-family:Helvetica;font-size:20.00;">DecodeIntFromGET</text>
</a>
</g>
<g id="edge2" class="edge"><title>Node1-&gt;Node2</title>
<path style="fill:none;stroke:midnightblue;" d="M91,54C108,47 110,42 127,36 134,34 141,32 149,31"/>
<polygon style="fill:midnightblue;stroke:midnightblue;" points="149,28 159,29 150,34 149,28"/>
</g>
<g id="node5" class="node"><title>Node3</title>
<a xlink:href="_authenticate_8c.html#a0be112c6d3c0c4852d7b5d78c30006a2" target="_top" xlink:title="SaveUserNameEEdata">
<polygon style="fill:none;stroke:black;" points="145,86 368,86 368,54 145,54 145,86"/>
<text text-anchor="middle" x="256" y="77" style="font-family:Helvetica;font-size:20.00;">SaveUserNameEEdata</text>
</a>
</g>
<g id="edge4" class="edge"><title>Node1-&gt;Node3</title>
<path style="fill:none;stroke:midnightblue;" d="M91,70C104,70 119,70 135,70"/>
<polygon style="fill:midnightblue;stroke:midnightblue;" points="135,66 145,70 135,73 135,66"/>
</g>
<g id="node7" class="node"><title>Node4</title>
<a xlink:href="_authenticate_8c.html#a3a54eb2d8295163334f74dbacc0784e1" target="_top" xlink:title="SaveUserPasswordEEdata">
<polygon style="fill:none;stroke:black;" points="128,136 385,136 385,104 128,104 128,136"/>
<text text-anchor="middle" x="256" y="127" style="font-family:Helvetica;font-size:20.00;">SaveUserPasswordEEdata</text>
</a>
</g>
<g id="edge6" class="edge"><title>Node1-&gt;Node4</title>
<path style="fill:none;stroke:midnightblue;" d="M91,86C104,92 108,97 118,101"/>
<polygon style="fill:midnightblue;stroke:midnightblue;" points="119,98 128,104 117,104 119,98"/>
</g>
</g>
</svg>
