<?xml version="1.0" encoding="UTF-8" standalone="no"?>
<!DOCTYPE svg PUBLIC "-//W3C//DTD SVG 1.0//EN"
 "http://www.w3.org/TR/2001/REC-SVG-20010904/DTD/svg10.dtd" [
 <!ATTLIST svg xmlns:xlink CDATA #FIXED "http://www.w3.org/1999/xlink">
]>
<!-- Generated by dot version 1.13 (v16) (Mon August 23, 2004)
     For user: (jarrodneven) Jarrod  Neven   Title: G    Pages: 1 -->
<svg width="648pt" height="138pt"
 viewBox = "-1 -1 647 137"
 xmlns="http://www.w3.org/2000/svg" xmlns:xlink="http://www.w3.org/1999/xlink">
<g id="graph0" class="graph" style="font-family:Times-Roman;font-size:14.00;">
<title>G</title>
<g id="node1" class="node"><title>Node1</title>
<polygon style="fill:#bfbfbf;stroke:black;" points="6,80 173,80 173,48 6,48 6,80"/>
<text text-anchor="middle" x="89" y="71" style="font-family:Helvetica;font-size:20.00;">StateChangeToAlarming</text>
</g>
<g id="node3" class="node"><title>Node2</title>
<a xlink:href="_security_system_8c.html#a290b0da69aaf212aa38c219c45a6d8a9" target="_top" xlink:title="isZoneMemberOfArea">
<polygon style="fill:none;stroke:black;" points="428,36 641,36 641,4 428,4 428,36"/>
<text text-anchor="middle" x="534" y="27" style="font-family:Helvetica;font-size:20.00;">isZoneMemberOfArea</text>
</a>
</g>
<g id="edge2" class="edge"><title>Node1-&gt;Node2</title>
<path style="fill:none;stroke:midnightblue;" d="M173,48C190,45 193,42 209,39 278,29 355,24 418,22"/>
<polygon style="fill:midnightblue;stroke:midnightblue;" points="418,18 428,22 418,25 418,18"/>
</g>
<g id="node5" class="node"><title>Node3</title>
<a xlink:href="_security_system_8h.html#ae9e6733b7fed738a76787f01762bb284" target="_top" xlink:title="SendAlarmingMsg">
<polygon style="fill:none;stroke:black;" points="211,80 390,80 390,48 211,48 211,80"/>
<text text-anchor="middle" x="300" y="71" style="font-family:Helvetica;font-size:20.00;">SendAlarmingMsg</text>
</a>
</g>
<g id="edge4" class="edge"><title>Node1-&gt;Node3</title>
<path style="fill:none;stroke:midnightblue;" d="M173,64C182,64 191,64 201,64"/>
<polygon style="fill:midnightblue;stroke:midnightblue;" points="201,60 211,64 201,67 201,60"/>
</g>
<g id="node10" class="node"><title>Node5</title>
<a xlink:href="_security_system_8h.html#ae777555850cf9c897f46c8407ce1729f" target="_top" xlink:title="Places a new email in the SMTP queue to be processed (sent)">
<polygon style="fill:none;stroke:black;" points="209,130 391,130 391,98 209,98 209,130"/>
<text text-anchor="middle" x="300" y="121" style="font-family:Helvetica;font-size:20.00;">SMTPQueueEmail</text>
</a>
</g>
<g id="edge10" class="edge"><title>Node1-&gt;Node5</title>
<path style="fill:none;stroke:midnightblue;" d="M173,80C186,84 191,89 200,94"/>
<polygon style="fill:midnightblue;stroke:midnightblue;" points="201,91 209,98 198,97 201,91"/>
</g>
<g id="edge6" class="edge"><title>Node3-&gt;Node2</title>
<path style="fill:none;stroke:midnightblue;" d="M390,48C390,48 391,48 391,48 404,45 409,42 418,39"/>
<polygon style="fill:midnightblue;stroke:midnightblue;" points="417,36 428,36 419,42 417,36"/>
</g>
<g id="node8" class="node"><title>Node4</title>
<a xlink:href="x_p_l_8c.html#abde6ae0f37ef47bee8e881bba8502169" target="_top" xlink:title="XPLSendHeader">
<polygon style="fill:none;stroke:black;" points="451,86 617,86 617,54 451,54 451,86"/>
<text text-anchor="middle" x="534" y="77" style="font-family:Helvetica;font-size:20.00;">XPLSendHeader</text>
</a>
</g>
<g id="edge8" class="edge"><title>Node3-&gt;Node4</title>
<path style="fill:none;stroke:midnightblue;" d="M390,66C407,67 424,67 441,68"/>
<polygon style="fill:midnightblue;stroke:midnightblue;" points="441,64 451,68 441,71 441,64"/>
</g>
</g>
</svg>
