<?xml version="1.0" encoding="UTF-8" standalone="no"?>
<!DOCTYPE svg PUBLIC "-//W3C//DTD SVG 1.0//EN"
 "http://www.w3.org/TR/2001/REC-SVG-20010904/DTD/svg10.dtd" [
 <!ATTLIST svg xmlns:xlink CDATA #FIXED "http://www.w3.org/1999/xlink">
]>
<!-- Generated by dot version 1.13 (v16) (Mon August 23, 2004)
     For user: (jarrodneven) Jarrod  Neven   Title: G    Pages: 1 -->
<svg width="860pt" height="370pt"
 viewBox = "-1 -1 859 369"
 xmlns="http://www.w3.org/2000/svg" xmlns:xlink="http://www.w3.org/1999/xlink">
<g id="graph0" class="graph" style="font-family:Times-Roman;font-size:14.00;">
<title>G</title>
<g id="node1" class="node"><title>Node1</title>
<polygon style="fill:#bfbfbf;stroke:black;" points="5,234 69,234 69,202 5,202 5,234"/>
<text text-anchor="middle" x="37" y="225" style="font-family:Helvetica;font-size:20.00;">IOTasks</text>
</g>
<g id="node3" class="node"><title>Node2</title>
<a xlink:href="_security_system_8h.html#a30c3c9cdda2491c17d5d6d5cc6426b31" target="_top" xlink:title="addxPLMessage">
<polygon style="fill:none;stroke:black;" points="140,58 305,58 305,26 140,26 140,58"/>
<text text-anchor="middle" x="222" y="49" style="font-family:Helvetica;font-size:20.00;">addxPLMessage</text>
</a>
</g>
<g id="edge2" class="edge"><title>Node1-&gt;Node2</title>
<path style="fill:none;stroke:midnightblue;" d="M69,202C111,151 56,103 105,58 112,51 121,47 130,44"/>
<polygon style="fill:midnightblue;stroke:midnightblue;" points="129,41 140,41 131,47 129,41"/>
</g>
<g id="node7" class="node"><title>Node4</title>
<a xlink:href="_e_o_l_8c.html#a44f4ef2b28f2d65b626e1ec4e5885934" target="_top" xlink:title="IsZoneTriggered">
<polygon style="fill:none;stroke:black;" points="141,130 303,130 303,98 141,98 141,130"/>
<text text-anchor="middle" x="222" y="121" style="font-family:Helvetica;font-size:20.00;">IsZoneTriggered</text>
</a>
</g>
<g id="edge6" class="edge"><title>Node1-&gt;Node4</title>
<path style="fill:none;stroke:midnightblue;" d="M69,202C95,177 76,151 105,130 113,125 122,121 131,118"/>
<polygon style="fill:midnightblue;stroke:midnightblue;" points="130,115 141,115 132,121 130,115"/>
</g>
<g id="node13" class="node"><title>Node7</title>
<a xlink:href="_security_system_8h.html#ab01e7f6872c9f26dd9f91bc24f43f4b6" target="_top" xlink:title="SendZoneStateMsg">
<polygon style="fill:none;stroke:black;" points="393,312 586,312 586,280 393,280 393,312"/>
<text text-anchor="middle" x="489" y="303" style="font-family:Helvetica;font-size:20.00;">SendZoneStateMsg</text>
</a>
</g>
<g id="edge12" class="edge"><title>Node1-&gt;Node7</title>
<path style="fill:none;stroke:midnightblue;" d="M69,221C136,227 290,242 339,259 357,266 358,274 375,280 378,281 380,282 383,283"/>
<polygon style="fill:midnightblue;stroke:midnightblue;" points="384,280 393,285 383,286 384,280"/>
</g>
<g id="node17" class="node"><title>Node9</title>
<a xlink:href="_security_system_8c.html#accca294859199bc9e59cec74618c871c" target="_top" xlink:title="StateChangeToAlarming">
<polygon style="fill:none;stroke:black;" points="106,212 339,212 339,180 106,180 106,212"/>
<text text-anchor="middle" x="222" y="203" style="font-family:Helvetica;font-size:20.00;">StateChangeToAlarming</text>
</a>
</g>
<g id="edge16" class="edge"><title>Node1-&gt;Node9</title>
<path style="fill:none;stroke:midnightblue;" d="M69,214C77,213 86,212 96,211"/>
<polygon style="fill:midnightblue;stroke:midnightblue;" points="96,208 106,210 96,214 96,208"/>
</g>
<g id="node26" class="node"><title>Node12</title>
<a xlink:href="_security_system_8c.html#a75fd42e4a596598bc65a32ee0c863ac6" target="_top" xlink:title="TaskAlarmed">
<polygon style="fill:none;stroke:black;" points="156,300 288,300 288,268 156,268 156,300"/>
<text text-anchor="middle" x="222" y="291" style="font-family:Helvetica;font-size:20.00;">TaskAlarmed</text>
</a>
</g>
<g id="edge28" class="edge"><title>Node1-&gt;Node12</title>
<path style="fill:none;stroke:midnightblue;" d="M69,234C88,247 86,259 105,268 118,274 132,278 146,281"/>
<polygon style="fill:midnightblue;stroke:midnightblue;" points="146,278 156,282 146,284 146,278"/>
</g>
<g id="node28" class="node"><title>Node13</title>
<a xlink:href="_security_system_8c.html#aa4b206c6022f03ed09cc1e7c0c1c64ac" target="_top" xlink:title="TaskAlarming">
<polygon style="fill:none;stroke:black;" points="154,356 290,356 290,324 154,324 154,356"/>
<text text-anchor="middle" x="222" y="347" style="font-family:Helvetica;font-size:20.00;">TaskAlarming</text>
</a>
</g>
<g id="edge30" class="edge"><title>Node1-&gt;Node13</title>
<path style="fill:none;stroke:midnightblue;" d="M69,234C99,266 72,297 105,324 116,333 130,338 144,340"/>
<polygon style="fill:midnightblue;stroke:midnightblue;" points="145,337 154,342 144,343 145,337"/>
</g>
<g id="node5" class="node"><title>Node3</title>
<a xlink:href="_security_system_8c.html#a491f8822a8274ca5244c41d226e7136e" target="_top" xlink:title="ClearArmingFlags">
<polygon style="fill:none;stroke:black;" points="401,36 577,36 577,4 401,4 401,36"/>
<text text-anchor="middle" x="489" y="27" style="font-family:Helvetica;font-size:20.00;">ClearArmingFlags</text>
</a>
</g>
<g id="edge4" class="edge"><title>Node2-&gt;Node3</title>
<path style="fill:none;stroke:midnightblue;" d="M305,35C332,33 362,31 391,28"/>
<polygon style="fill:midnightblue;stroke:midnightblue;" points="391,25 401,27 391,31 391,25"/>
</g>
<g id="node9" class="node"><title>Node5</title>
<a xlink:href="_e_o_l_8c.html#a1cabc40dfab4455722bcd809c23ed21d" target="_top" xlink:title="CheckEOL">
<polygon style="fill:none;stroke:black;" points="433,86 546,86 546,54 433,54 433,86"/>
<text text-anchor="middle" x="489" y="77" style="font-family:Helvetica;font-size:20.00;">CheckEOL</text>
</a>
</g>
<g id="edge8" class="edge"><title>Node4-&gt;Node5</title>
<path style="fill:none;stroke:midnightblue;" d="M303,105C315,103 328,101 339,98 356,95 359,90 375,86 391,83 407,80 423,78"/>
<polygon style="fill:midnightblue;stroke:midnightblue;" points="423,75 433,76 424,81 423,75"/>
</g>
<g id="node11" class="node"><title>Node6</title>
<a xlink:href="_security_system_8c.html#a290b0da69aaf212aa38c219c45a6d8a9" target="_top" xlink:title="isZoneMemberOfArea">
<polygon style="fill:none;stroke:black;" points="640,168 853,168 853,136 640,136 640,168"/>
<text text-anchor="middle" x="746" y="159" style="font-family:Helvetica;font-size:20.00;">isZoneMemberOfArea</text>
</a>
</g>
<g id="edge10" class="edge"><title>Node4-&gt;Node6</title>
<path style="fill:none;stroke:midnightblue;" d="M303,118C380,123 500,130 603,138 612,139 621,139 630,141"/>
<polygon style="fill:midnightblue;stroke:midnightblue;" points="630,138 640,142 630,144 630,138"/>
</g>
<g id="node15" class="node"><title>Node8</title>
<a xlink:href="x_p_l_8c.html#abde6ae0f37ef47bee8e881bba8502169" target="_top" xlink:title="XPLSendHeader">
<polygon style="fill:none;stroke:black;" points="663,265 829,265 829,233 663,233 663,265"/>
<text text-anchor="middle" x="746" y="256" style="font-family:Helvetica;font-size:20.00;">XPLSendHeader</text>
</a>
</g>
<g id="edge14" class="edge"><title>Node7-&gt;Node8</title>
<path style="fill:none;stroke:midnightblue;" d="M586,284C592,283 598,282 603,280 620,276 623,270 639,265 644,264 648,263 653,262"/>
<polygon style="fill:midnightblue;stroke:midnightblue;" points="653,259 663,260 654,265 653,259"/>
</g>
<g id="edge18" class="edge"><title>Node9-&gt;Node6</title>
<path style="fill:none;stroke:midnightblue;" d="M339,180C356,177 359,174 375,171 460,159 556,154 630,152"/>
<polygon style="fill:midnightblue;stroke:midnightblue;" points="630,148 640,152 630,155 630,148"/>
</g>
<g id="node20" class="node"><title>Node10</title>
<a xlink:href="_security_system_8h.html#ae9e6733b7fed738a76787f01762bb284" target="_top" xlink:title="SendAlarmingMsg">
<polygon style="fill:none;stroke:black;" points="400,212 579,212 579,180 400,180 400,212"/>
<text text-anchor="middle" x="489" y="203" style="font-family:Helvetica;font-size:20.00;">SendAlarmingMsg</text>
</a>
</g>
<g id="edge20" class="edge"><title>Node9-&gt;Node10</title>
<path style="fill:none;stroke:midnightblue;" d="M339,196C356,196 373,196 390,196"/>
<polygon style="fill:midnightblue;stroke:midnightblue;" points="390,192 400,196 390,199 390,192"/>
</g>
<g id="node24" class="node"><title>Node11</title>
<a xlink:href="_security_system_8h.html#ae777555850cf9c897f46c8407ce1729f" target="_top" xlink:title="Places a new email in the SMTP queue to be processed (sent)">
<polygon style="fill:none;stroke:black;" points="398,262 580,262 580,230 398,230 398,262"/>
<text text-anchor="middle" x="489" y="253" style="font-family:Helvetica;font-size:20.00;">SMTPQueueEmail</text>
</a>
</g>
<g id="edge26" class="edge"><title>Node9-&gt;Node11</title>
<path style="fill:none;stroke:midnightblue;" d="M339,212C357,218 358,225 375,230 379,231 383,232 388,233"/>
<polygon style="fill:midnightblue;stroke:midnightblue;" points="389,230 398,236 387,236 389,230"/>
</g>
<g id="edge22" class="edge"><title>Node10-&gt;Node6</title>
<path style="fill:none;stroke:midnightblue;" d="M579,185C587,184 595,182 603,180 616,178 621,174 630,171"/>
<polygon style="fill:midnightblue;stroke:midnightblue;" points="629,168 640,168 631,174 629,168"/>
</g>
<g id="edge24" class="edge"><title>Node10-&gt;Node8</title>
<path style="fill:none;stroke:midnightblue;" d="M579,206C587,207 595,209 603,212 621,219 622,227 639,233 644,235 648,236 653,237"/>
<polygon style="fill:midnightblue;stroke:midnightblue;" points="654,234 663,240 652,240 654,234"/>
</g>
<g id="node30" class="node"><title>Node14</title>
<a xlink:href="_security_system_8c.html#ab4846465588e6aede197b7e0dbfcea7a" target="_top" xlink:title="StateChangeToAlarmed">
<polygon style="fill:none;stroke:black;" points="375,362 603,362 603,330 375,330 375,362"/>
<text text-anchor="middle" x="489" y="353" style="font-family:Helvetica;font-size:20.00;">StateChangeToAlarmed</text>
</a>
</g>
<g id="edge32" class="edge"><title>Node13-&gt;Node14</title>
<path style="fill:none;stroke:midnightblue;" d="M290,342C313,342 339,343 365,343"/>
<polygon style="fill:midnightblue;stroke:midnightblue;" points="365,339 375,343 365,346 365,339"/>
</g>
</g>
</svg>
