<?xml version="1.0" encoding="UTF-8" standalone="no"?>
<!DOCTYPE svg PUBLIC "-//W3C//DTD SVG 1.0//EN"
 "http://www.w3.org/TR/2001/REC-SVG-20010904/DTD/svg10.dtd" [
 <!ATTLIST svg xmlns:xlink CDATA #FIXED "http://www.w3.org/1999/xlink">
]>
<!-- Generated by dot version 1.13 (v16) (Mon August 23, 2004)
     For user: (jarrodneven) Jarrod  Neven   Title: G    Pages: 1 -->
<svg width="844pt" height="94pt"
 viewBox = "-1 -1 843 93"
 xmlns="http://www.w3.org/2000/svg" xmlns:xlink="http://www.w3.org/1999/xlink">
<g id="graph0" class="graph" style="font-family:Times-Roman;font-size:14.00;">
<title>G</title>
<g id="node1" class="node"><title>Node1</title>
<polygon style="fill:#bfbfbf;stroke:black;" points="5,61 81,61 81,29 5,29 5,61"/>
<text text-anchor="middle" x="43" y="52" style="font-family:Helvetica;font-size:20.00;">ArmAway</text>
</g>
<g id="node3" class="node"><title>Node2</title>
<a xlink:href="_h_t_t_p_forms_8c.html#a686ae35a16ecb63daffafcd015ddb070" target="_top" xlink:title="Processes all HTTP GETS.">
<polygon style="fill:none;stroke:black;" points="152,36 325,36 325,4 152,4 152,36"/>
<text text-anchor="middle" x="238" y="27" style="font-family:Helvetica;font-size:20.00;">HTTPExecuteGet</text>
</a>
</g>
<g id="edge2" class="edge"><title>Node1-&gt;Node2</title>
<path style="fill:none;stroke:midnightblue;" d="M91,39C109,37 131,34 152,31"/>
<polygon style="fill:midnightblue;stroke:midnightblue;" points="91,42 81,40 91,36 91,42"/>
</g>
<g id="node5" class="node"><title>Node3</title>
<a xlink:href="x_p_l_8h.html#a3baecc6556e5cc7af0d59d0216aa217c" target="_top" xlink:title="SchemaProcessUDPMsg">
<polygon style="fill:none;stroke:black;" points="117,86 359,86 359,54 117,54 117,86"/>
<text text-anchor="middle" x="238" y="77" style="font-family:Helvetica;font-size:20.00;">SchemaProcessUDPMsg</text>
</a>
</g>
<g id="edge4" class="edge"><title>Node1-&gt;Node3</title>
<path style="fill:none;stroke:midnightblue;" d="M91,51C99,52 108,53 117,54"/>
<polygon style="fill:midnightblue;stroke:midnightblue;" points="91,54 81,50 91,48 91,54"/>
</g>
<g id="node7" class="node"><title>Node4</title>
<a xlink:href="x_p_l_8c.html#a41c59f641ff95b999e66c0d45117b73d" target="_top" xlink:title="XPLProcessUDPMsg">
<polygon style="fill:none;stroke:black;" points="395,86 601,86 601,54 395,54 395,86"/>
<text text-anchor="middle" x="498" y="77" style="font-family:Helvetica;font-size:20.00;">XPLProcessUDPMsg</text>
</a>
</g>
<g id="edge6" class="edge"><title>Node3-&gt;Node4</title>
<path style="fill:none;stroke:midnightblue;" d="M369,70C378,70 386,70 395,70"/>
<polygon style="fill:midnightblue;stroke:midnightblue;" points="369,73 359,70 369,66 369,73"/>
</g>
<g id="node9" class="node"><title>Node5</title>
<a xlink:href="x_p_l_8h.html#a86d914c966f337c4e3a6fda46a945d11" target="_top" xlink:title="XPLTasks">
<polygon style="fill:none;stroke:black;" points="638,86 741,86 741,54 638,54 638,86"/>
<text text-anchor="middle" x="689" y="77" style="font-family:Helvetica;font-size:20.00;">XPLTasks</text>
</a>
</g>
<g id="edge8" class="edge"><title>Node4-&gt;Node5</title>
<path style="fill:none;stroke:midnightblue;" d="M611,70C620,70 629,70 638,70"/>
<polygon style="fill:midnightblue;stroke:midnightblue;" points="611,73 601,70 611,66 611,73"/>
</g>
<g id="node11" class="node"><title>Node6</title>
<a xlink:href="_main_demo_8c.html#a6288eba0f8e8ad3ab1544ad731eb7667" target="_top" xlink:title="main">
<polygon style="fill:none;stroke:black;" points="778,86 837,86 837,54 778,54 778,86"/>
<text text-anchor="middle" x="807" y="77" style="font-family:Helvetica;font-size:20.00;">main</text>
</a>
</g>
<g id="edge10" class="edge"><title>Node5-&gt;Node6</title>
<path style="fill:none;stroke:midnightblue;" d="M751,70C761,70 770,70 778,70"/>
<polygon style="fill:midnightblue;stroke:midnightblue;" points="751,73 741,70 751,66 751,73"/>
</g>
</g>
</svg>
