<?xml version="1.0" encoding="UTF-8" standalone="no"?>
<!DOCTYPE svg PUBLIC "-//W3C//DTD SVG 1.0//EN"
 "http://www.w3.org/TR/2001/REC-SVG-20010904/DTD/svg10.dtd" [
 <!ATTLIST svg xmlns:xlink CDATA #FIXED "http://www.w3.org/1999/xlink">
]>
<!-- Generated by dot version 1.13 (v16) (Mon August 23, 2004)
     For user: (jarrodneven) Jarrod  Neven   Title: G    Pages: 1 -->
<svg width="654pt" height="44pt"
 viewBox = "-1 -1 653 43"
 xmlns="http://www.w3.org/2000/svg" xmlns:xlink="http://www.w3.org/1999/xlink">
<g id="graph0" class="graph" style="font-family:Times-Roman;font-size:14.00;">
<title>G</title>
<g id="node1" class="node"><title>Node1</title>
<polygon style="fill:#bfbfbf;stroke:black;" points="6,36 169,36 169,4 6,4 6,36"/>
<text text-anchor="middle" x="87" y="27" style="font-family:Helvetica;font-size:20.00;">SchemaProcessUDPMsg</text>
</g>
<g id="node3" class="node"><title>Node2</title>
<a xlink:href="x_p_l_8c.html#a41c59f641ff95b999e66c0d45117b73d" target="_top" xlink:title="XPLProcessUDPMsg">
<polygon style="fill:none;stroke:black;" points="205,36 411,36 411,4 205,4 205,36"/>
<text text-anchor="middle" x="308" y="27" style="font-family:Helvetica;font-size:20.00;">XPLProcessUDPMsg</text>
</a>
</g>
<g id="edge2" class="edge"><title>Node1-&gt;Node2</title>
<path style="fill:none;stroke:midnightblue;" d="M179,20C188,20 196,20 205,20"/>
<polygon style="fill:midnightblue;stroke:midnightblue;" points="179,23 169,20 179,16 179,23"/>
</g>
<g id="node5" class="node"><title>Node3</title>
<a xlink:href="x_p_l_8h.html#a86d914c966f337c4e3a6fda46a945d11" target="_top" xlink:title="XPLTasks">
<polygon style="fill:none;stroke:black;" points="448,36 551,36 551,4 448,4 448,36"/>
<text text-anchor="middle" x="499" y="27" style="font-family:Helvetica;font-size:20.00;">XPLTasks</text>
</a>
</g>
<g id="edge4" class="edge"><title>Node2-&gt;Node3</title>
<path style="fill:none;stroke:midnightblue;" d="M421,20C430,20 439,20 448,20"/>
<polygon style="fill:midnightblue;stroke:midnightblue;" points="421,23 411,20 421,16 421,23"/>
</g>
<g id="node7" class="node"><title>Node4</title>
<a xlink:href="_main_demo_8c.html#a6288eba0f8e8ad3ab1544ad731eb7667" target="_top" xlink:title="main">
<polygon style="fill:none;stroke:black;" points="588,36 647,36 647,4 588,4 588,36"/>
<text text-anchor="middle" x="617" y="27" style="font-family:Helvetica;font-size:20.00;">main</text>
</a>
</g>
<g id="edge6" class="edge"><title>Node3-&gt;Node4</title>
<path style="fill:none;stroke:midnightblue;" d="M561,20C571,20 580,20 588,20"/>
<polygon style="fill:midnightblue;stroke:midnightblue;" points="561,23 551,20 561,16 561,23"/>
</g>
</g>
</svg>
