<?xml version="1.0" encoding="UTF-8" standalone="no"?>
<!DOCTYPE svg PUBLIC "-//W3C//DTD SVG 1.0//EN"
 "http://www.w3.org/TR/2001/REC-SVG-20010904/DTD/svg10.dtd" [
 <!ATTLIST svg xmlns:xlink CDATA #FIXED "http://www.w3.org/1999/xlink">
]>
<!-- Generated by dot version 1.13 (v16) (Mon August 23, 2004)
     For user: (jarrodneven) Jarrod  Neven   Title: G    Pages: 1 -->
<svg width="494pt" height="112pt"
 viewBox = "-1 -1 493 111"
 xmlns="http://www.w3.org/2000/svg" xmlns:xlink="http://www.w3.org/1999/xlink">
<g id="graph0" class="graph" style="font-family:Times-Roman;font-size:14.00;">
<title>G</title>
<g id="node1" class="node"><title>Node1</title>
<polygon style="fill:#bfbfbf;stroke:black;" points="161,36 368,36 368,4 161,4 161,36"/>
<text text-anchor="middle" x="264" y="27" style="font-family:Helvetica;font-size:20.00;">PIC Code/SecurityXPLSender.c</text>
</g>
<g id="node3" class="node"><title>Node2</title>
<polygon style="fill:none;stroke:#bfbfbf;" points="5,104 214,104 214,72 5,72 5,104"/>
<text text-anchor="middle" x="109" y="95" style="font-family:Helvetica;font-size:20.00;">TCPIP Stack/TCPIP.h</text>
</g>
<g id="edge2" class="edge"><title>Node1-&gt;Node2</title>
<path style="fill:none;stroke:midnightblue;" d="M227,36C205,46 178,58 154,68"/>
<polygon style="fill:midnightblue;stroke:midnightblue;" points="156,71 145,72 153,65 156,71"/>
</g>
<g id="node5" class="node"><title>Node3</title>
<a xlink:href="x_p_l_8h.html" target="_top" xlink:title="xPL.h">
<polygon style="fill:none;stroke:black;" points="231,104 298,104 298,72 231,72 231,104"/>
<text text-anchor="middle" x="264" y="95" style="font-family:Helvetica;font-size:20.00;">xPL.h</text>
</a>
</g>
<g id="edge4" class="edge"><title>Node1-&gt;Node3</title>
<path style="fill:none;stroke:midnightblue;" d="M264,36C264,44 264,53 264,62"/>
<polygon style="fill:midnightblue;stroke:midnightblue;" points="268,62 264,72 261,62 268,62"/>
</g>
<g id="node7" class="node"><title>Node4</title>
<a xlink:href="_security_system_8h.html" target="_top" xlink:title="SecuritySystem.h">
<polygon style="fill:none;stroke:black;" points="315,104 487,104 487,72 315,72 315,104"/>
<text text-anchor="middle" x="401" y="95" style="font-family:Helvetica;font-size:20.00;">SecuritySystem.h</text>
</a>
</g>
<g id="edge6" class="edge"><title>Node1-&gt;Node4</title>
<path style="fill:none;stroke:midnightblue;" d="M296,36C315,46 339,57 360,67"/>
<polygon style="fill:midnightblue;stroke:midnightblue;" points="362,64 369,72 359,70 362,64"/>
</g>
</g>
</svg>
