<?xml version="1.0" encoding="UTF-8" standalone="no"?>
<!DOCTYPE svg PUBLIC "-//W3C//DTD SVG 1.0//EN"
 "http://www.w3.org/TR/2001/REC-SVG-20010904/DTD/svg10.dtd" [
 <!ATTLIST svg xmlns:xlink CDATA #FIXED "http://www.w3.org/1999/xlink">
]>
<!-- Generated by dot version 1.13 (v16) (Mon August 23, 2004)
     For user: (jarrodneven) Jarrod  Neven   Title: G    Pages: 1 -->
<svg width="502pt" height="44pt"
 viewBox = "-1 -1 501 43"
 xmlns="http://www.w3.org/2000/svg" xmlns:xlink="http://www.w3.org/1999/xlink">
<g id="graph0" class="graph" style="font-family:Times-Roman;font-size:14.00;">
<title>G</title>
<g id="node1" class="node"><title>Node1</title>
<polygon style="fill:#bfbfbf;stroke:black;" points="6,36 83,36 83,4 6,4 6,36"/>
<text text-anchor="middle" x="44" y="27" style="font-family:Helvetica;font-size:20.00;">SendError</text>
</g>
<g id="node3" class="node"><title>Node2</title>
<a xlink:href="x_p_l_8h.html#a62b4d90791ab073f74677d42bfb64253" target="_top" xlink:title="SchemaTasks">
<polygon style="fill:none;stroke:black;" points="119,36 259,36 259,4 119,4 119,36"/>
<text text-anchor="middle" x="189" y="27" style="font-family:Helvetica;font-size:20.00;">SchemaTasks</text>
</a>
</g>
<g id="edge2" class="edge"><title>Node1-&gt;Node2</title>
<path style="fill:none;stroke:midnightblue;" d="M93,20C102,20 111,20 119,20"/>
<polygon style="fill:midnightblue;stroke:midnightblue;" points="93,23 83,20 93,16 93,23"/>
</g>
<g id="node5" class="node"><title>Node3</title>
<a xlink:href="x_p_l_8h.html#a86d914c966f337c4e3a6fda46a945d11" target="_top" xlink:title="XPLTasks">
<polygon style="fill:none;stroke:black;" points="296,36 399,36 399,4 296,4 296,36"/>
<text text-anchor="middle" x="347" y="27" style="font-family:Helvetica;font-size:20.00;">XPLTasks</text>
</a>
</g>
<g id="edge4" class="edge"><title>Node2-&gt;Node3</title>
<path style="fill:none;stroke:midnightblue;" d="M269,20C278,20 287,20 296,20"/>
<polygon style="fill:midnightblue;stroke:midnightblue;" points="269,23 259,20 269,16 269,23"/>
</g>
<g id="node7" class="node"><title>Node4</title>
<a xlink:href="_main_demo_8c.html#a6288eba0f8e8ad3ab1544ad731eb7667" target="_top" xlink:title="main">
<polygon style="fill:none;stroke:black;" points="436,36 495,36 495,4 436,4 436,36"/>
<text text-anchor="middle" x="465" y="27" style="font-family:Helvetica;font-size:20.00;">main</text>
</a>
</g>
<g id="edge6" class="edge"><title>Node3-&gt;Node4</title>
<path style="fill:none;stroke:midnightblue;" d="M409,20C419,20 428,20 436,20"/>
<polygon style="fill:midnightblue;stroke:midnightblue;" points="409,23 399,20 409,16 409,23"/>
</g>
</g>
</svg>
