<?xml version="1.0" encoding="UTF-8" standalone="no"?>
<!DOCTYPE svg PUBLIC "-//W3C//DTD SVG 1.0//EN"
 "http://www.w3.org/TR/2001/REC-SVG-20010904/DTD/svg10.dtd" [
 <!ATTLIST svg xmlns:xlink CDATA #FIXED "http://www.w3.org/1999/xlink">
]>
<!-- Generated by dot version 1.13 (v16) (Mon August 23, 2004)
     For user: (jarrodneven) Jarrod  Neven   Title: G    Pages: 1 -->
<svg width="516pt" height="44pt"
 viewBox = "-1 -1 515 43"
 xmlns="http://www.w3.org/2000/svg" xmlns:xlink="http://www.w3.org/1999/xlink">
<g id="graph0" class="graph" style="font-family:Times-Roman;font-size:14.00;">
<title>G</title>
<g id="node1" class="node"><title>Node1</title>
<polygon style="fill:#bfbfbf;stroke:black;" points="6,36 97,36 97,4 6,4 6,36"/>
<text text-anchor="middle" x="51" y="27" style="font-family:Helvetica;font-size:20.00;">SendACStat</text>
</g>
<g id="node3" class="node"><title>Node2</title>
<a xlink:href="x_p_l_8h.html#a62b4d90791ab073f74677d42bfb64253" target="_top" xlink:title="SchemaTasks">
<polygon style="fill:none;stroke:black;" points="133,36 273,36 273,4 133,4 133,36"/>
<text text-anchor="middle" x="203" y="27" style="font-family:Helvetica;font-size:20.00;">SchemaTasks</text>
</a>
</g>
<g id="edge2" class="edge"><title>Node1-&gt;Node2</title>
<path style="fill:none;stroke:midnightblue;" d="M107,20C116,20 125,20 133,20"/>
<polygon style="fill:midnightblue;stroke:midnightblue;" points="107,23 97,20 107,16 107,23"/>
</g>
<g id="node5" class="node"><title>Node3</title>
<a xlink:href="x_p_l_8h.html#a86d914c966f337c4e3a6fda46a945d11" target="_top" xlink:title="XPLTasks">
<polygon style="fill:none;stroke:black;" points="310,36 413,36 413,4 310,4 310,36"/>
<text text-anchor="middle" x="361" y="27" style="font-family:Helvetica;font-size:20.00;">XPLTasks</text>
</a>
</g>
<g id="edge4" class="edge"><title>Node2-&gt;Node3</title>
<path style="fill:none;stroke:midnightblue;" d="M283,20C292,20 301,20 310,20"/>
<polygon style="fill:midnightblue;stroke:midnightblue;" points="283,23 273,20 283,16 283,23"/>
</g>
<g id="node7" class="node"><title>Node4</title>
<a xlink:href="_main_demo_8c.html#a6288eba0f8e8ad3ab1544ad731eb7667" target="_top" xlink:title="main">
<polygon style="fill:none;stroke:black;" points="450,36 509,36 509,4 450,4 450,36"/>
<text text-anchor="middle" x="479" y="27" style="font-family:Helvetica;font-size:20.00;">main</text>
</a>
</g>
<g id="edge6" class="edge"><title>Node3-&gt;Node4</title>
<path style="fill:none;stroke:midnightblue;" d="M423,20C433,20 442,20 450,20"/>
<polygon style="fill:midnightblue;stroke:midnightblue;" points="423,23 413,20 423,16 423,23"/>
</g>
</g>
</svg>
