<?xml version="1.0" encoding="UTF-8" standalone="no"?>
<!DOCTYPE svg PUBLIC "-//W3C//DTD SVG 1.0//EN"
 "http://www.w3.org/TR/2001/REC-SVG-20010904/DTD/svg10.dtd" [
 <!ATTLIST svg xmlns:xlink CDATA #FIXED "http://www.w3.org/1999/xlink">
]>
<!-- Generated by dot version 1.13 (v16) (Mon August 23, 2004)
     For user: (jarrodneven) Jarrod  Neven   Title: G    Pages: 1 -->
<svg width="1064pt" height="44pt"
 viewBox = "-1 -1 1063 43"
 xmlns="http://www.w3.org/2000/svg" xmlns:xlink="http://www.w3.org/1999/xlink">
<g id="graph0" class="graph" style="font-family:Times-Roman;font-size:14.00;">
<title>G</title>
<g id="node1" class="node"><title>Node1</title>
<polygon style="fill:#bfbfbf;stroke:black;" points="5,36 103,36 103,4 5,4 5,36"/>
<text text-anchor="middle" x="54" y="27" style="font-family:Helvetica;font-size:20.00;">Authenticate</text>
</g>
<g id="node3" class="node"><title>Node2</title>
<a xlink:href="_authenticate_8c.html#a207b19b2185ffaa19d1d3f053b996121" target="_top" xlink:title="xPLAuthenticate">
<polygon style="fill:none;stroke:black;" points="139,36 301,36 301,4 139,4 139,36"/>
<text text-anchor="middle" x="220" y="27" style="font-family:Helvetica;font-size:20.00;">xPLAuthenticate</text>
</a>
</g>
<g id="edge2" class="edge"><title>Node1-&gt;Node2</title>
<path style="fill:none;stroke:midnightblue;" d="M113,20C122,20 131,20 139,20"/>
<polygon style="fill:midnightblue;stroke:midnightblue;" points="113,23 103,20 113,16 113,23"/>
</g>
<g id="node5" class="node"><title>Node3</title>
<a xlink:href="x_p_l_8h.html#a3baecc6556e5cc7af0d59d0216aa217c" target="_top" xlink:title="SchemaProcessUDPMsg">
<polygon style="fill:none;stroke:black;" points="337,36 579,36 579,4 337,4 337,36"/>
<text text-anchor="middle" x="458" y="27" style="font-family:Helvetica;font-size:20.00;">SchemaProcessUDPMsg</text>
</a>
</g>
<g id="edge4" class="edge"><title>Node2-&gt;Node3</title>
<path style="fill:none;stroke:midnightblue;" d="M311,20C320,20 328,20 337,20"/>
<polygon style="fill:midnightblue;stroke:midnightblue;" points="311,23 301,20 311,16 311,23"/>
</g>
<g id="node7" class="node"><title>Node4</title>
<a xlink:href="x_p_l_8c.html#a41c59f641ff95b999e66c0d45117b73d" target="_top" xlink:title="XPLProcessUDPMsg">
<polygon style="fill:none;stroke:black;" points="615,36 821,36 821,4 615,4 615,36"/>
<text text-anchor="middle" x="718" y="27" style="font-family:Helvetica;font-size:20.00;">XPLProcessUDPMsg</text>
</a>
</g>
<g id="edge6" class="edge"><title>Node3-&gt;Node4</title>
<path style="fill:none;stroke:midnightblue;" d="M589,20C598,20 606,20 615,20"/>
<polygon style="fill:midnightblue;stroke:midnightblue;" points="589,23 579,20 589,16 589,23"/>
</g>
<g id="node9" class="node"><title>Node5</title>
<a xlink:href="x_p_l_8h.html#a86d914c966f337c4e3a6fda46a945d11" target="_top" xlink:title="XPLTasks">
<polygon style="fill:none;stroke:black;" points="858,36 961,36 961,4 858,4 858,36"/>
<text text-anchor="middle" x="909" y="27" style="font-family:Helvetica;font-size:20.00;">XPLTasks</text>
</a>
</g>
<g id="edge8" class="edge"><title>Node4-&gt;Node5</title>
<path style="fill:none;stroke:midnightblue;" d="M831,20C840,20 849,20 858,20"/>
<polygon style="fill:midnightblue;stroke:midnightblue;" points="831,23 821,20 831,16 831,23"/>
</g>
<g id="node11" class="node"><title>Node6</title>
<a xlink:href="_main_demo_8c.html#a6288eba0f8e8ad3ab1544ad731eb7667" target="_top" xlink:title="main">
<polygon style="fill:none;stroke:black;" points="998,36 1057,36 1057,4 998,4 998,36"/>
<text text-anchor="middle" x="1027" y="27" style="font-family:Helvetica;font-size:20.00;">main</text>
</a>
</g>
<g id="edge10" class="edge"><title>Node5-&gt;Node6</title>
<path style="fill:none;stroke:midnightblue;" d="M971,20C981,20 990,20 998,20"/>
<polygon style="fill:midnightblue;stroke:midnightblue;" points="971,23 961,20 971,16 971,23"/>
</g>
</g>
</svg>
