<?xml version="1.0" encoding="UTF-8" standalone="no"?>
<!DOCTYPE svg PUBLIC "-//W3C//DTD SVG 1.0//EN"
 "http://www.w3.org/TR/2001/REC-SVG-20010904/DTD/svg10.dtd" [
 <!ATTLIST svg xmlns:xlink CDATA #FIXED "http://www.w3.org/1999/xlink">
]>
<!-- Generated by dot version 1.13 (v16) (Mon August 23, 2004)
     For user: (jarrodneven) Jarrod  Neven   Title: G    Pages: 1 -->
<svg width="378pt" height="94pt"
 viewBox = "-1 -1 377 93"
 xmlns="http://www.w3.org/2000/svg" xmlns:xlink="http://www.w3.org/1999/xlink">
<g id="graph0" class="graph" style="font-family:Times-Roman;font-size:14.00;">
<title>G</title>
<g id="node1" class="node"><title>Node1</title>
<polygon style="fill:#bfbfbf;stroke:black;" points="5,61 121,61 121,29 5,29 5,61"/>
<text text-anchor="middle" x="63" y="52" style="font-family:Helvetica;font-size:20.00;">IsZoneTriggered</text>
</g>
<g id="node3" class="node"><title>Node2</title>
<a xlink:href="_e_o_l_8c.html#a1cabc40dfab4455722bcd809c23ed21d" target="_top" xlink:title="CheckEOL">
<polygon style="fill:none;stroke:black;" points="208,36 321,36 321,4 208,4 208,36"/>
<text text-anchor="middle" x="264" y="27" style="font-family:Helvetica;font-size:20.00;">CheckEOL</text>
</a>
</g>
<g id="edge2" class="edge"><title>Node1-&gt;Node2</title>
<path style="fill:none;stroke:midnightblue;" d="M121,38C146,34 173,31 198,28"/>
<polygon style="fill:midnightblue;stroke:midnightblue;" points="198,25 208,27 198,31 198,25"/>
</g>
<g id="node5" class="node"><title>Node3</title>
<a xlink:href="_security_system_8c.html#a290b0da69aaf212aa38c219c45a6d8a9" target="_top" xlink:title="isZoneMemberOfArea">
<polygon style="fill:none;stroke:black;" points="158,86 371,86 371,54 158,54 158,86"/>
<text text-anchor="middle" x="264" y="77" style="font-family:Helvetica;font-size:20.00;">isZoneMemberOfArea</text>
</a>
</g>
<g id="edge4" class="edge"><title>Node1-&gt;Node3</title>
<path style="fill:none;stroke:midnightblue;" d="M121,52C130,53 139,54 148,56"/>
<polygon style="fill:midnightblue;stroke:midnightblue;" points="148,53 158,57 148,59 148,53"/>
</g>
</g>
</svg>
