<?xml version="1.0" encoding="UTF-8" standalone="no"?>
<!DOCTYPE svg PUBLIC "-//W3C//DTD SVG 1.0//EN"
 "http://www.w3.org/TR/2001/REC-SVG-20010904/DTD/svg10.dtd" [
 <!ATTLIST svg xmlns:xlink CDATA #FIXED "http://www.w3.org/1999/xlink">
]>
<!-- Generated by dot version 1.13 (v16) (Mon August 23, 2004)
     For user: (jarrodneven) Jarrod  Neven   Title: G    Pages: 1 -->
<svg width="486pt" height="44pt"
 viewBox = "-1 -1 485 43"
 xmlns="http://www.w3.org/2000/svg" xmlns:xlink="http://www.w3.org/1999/xlink">
<g id="graph0" class="graph" style="font-family:Times-Roman;font-size:14.00;">
<title>G</title>
<g id="node1" class="node"><title>Node1</title>
<polygon style="fill:#bfbfbf;stroke:black;" points="6,36 65,36 65,4 6,4 6,36"/>
<text text-anchor="middle" x="35" y="27" style="font-family:Helvetica;font-size:20.00;">Disarm</text>
</g>
<g id="node3" class="node"><title>Node2</title>
<a xlink:href="_security_system_8h.html#a30c3c9cdda2491c17d5d6d5cc6426b31" target="_top" xlink:title="addxPLMessage">
<polygon style="fill:none;stroke:black;" points="102,36 267,36 267,4 102,4 102,36"/>
<text text-anchor="middle" x="184" y="27" style="font-family:Helvetica;font-size:20.00;">addxPLMessage</text>
</a>
</g>
<g id="edge2" class="edge"><title>Node1-&gt;Node2</title>
<path style="fill:none;stroke:midnightblue;" d="M65,20C73,20 82,20 92,20"/>
<polygon style="fill:midnightblue;stroke:midnightblue;" points="92,16 102,20 92,23 92,16"/>
</g>
<g id="node5" class="node"><title>Node3</title>
<a xlink:href="_security_system_8c.html#a491f8822a8274ca5244c41d226e7136e" target="_top" xlink:title="ClearArmingFlags">
<polygon style="fill:none;stroke:black;" points="303,36 479,36 479,4 303,4 303,36"/>
<text text-anchor="middle" x="391" y="27" style="font-family:Helvetica;font-size:20.00;">ClearArmingFlags</text>
</a>
</g>
<g id="edge4" class="edge"><title>Node2-&gt;Node3</title>
<path style="fill:none;stroke:midnightblue;" d="M267,20C276,20 284,20 293,20"/>
<polygon style="fill:midnightblue;stroke:midnightblue;" points="293,16 303,20 293,23 293,16"/>
</g>
</g>
</svg>
