<?xml version="1.0" encoding="UTF-8" standalone="no"?>
<!DOCTYPE svg PUBLIC "-//W3C//DTD SVG 1.0//EN"
 "http://www.w3.org/TR/2001/REC-SVG-20010904/DTD/svg10.dtd" [
 <!ATTLIST svg xmlns:xlink CDATA #FIXED "http://www.w3.org/1999/xlink">
]>
<!-- Generated by dot version 1.13 (v16) (Mon August 23, 2004)
     For user: (jarrodneven) Jarrod  Neven   Title: G    Pages: 1 -->
<svg width="366pt" height="94pt"
 viewBox = "-1 -1 365 93"
 xmlns="http://www.w3.org/2000/svg" xmlns:xlink="http://www.w3.org/1999/xlink">
<g id="graph0" class="graph" style="font-family:Times-Roman;font-size:14.00;">
<title>G</title>
<g id="node1" class="node"><title>Node1</title>
<polygon style="fill:#bfbfbf;stroke:black;" points="6,61 109,61 109,29 6,29 6,61"/>
<text text-anchor="middle" x="57" y="52" style="font-family:Helvetica;font-size:20.00;">SendAreaStat</text>
</g>
<g id="node3" class="node"><title>Node2</title>
<a xlink:href="_security_system_8c.html#a290b0da69aaf212aa38c219c45a6d8a9" target="_top" xlink:title="isZoneMemberOfArea">
<polygon style="fill:none;stroke:black;" points="146,36 359,36 359,4 146,4 146,36"/>
<text text-anchor="middle" x="252" y="27" style="font-family:Helvetica;font-size:20.00;">isZoneMemberOfArea</text>
</a>
</g>
<g id="edge2" class="edge"><title>Node1-&gt;Node2</title>
<path style="fill:none;stroke:midnightblue;" d="M109,38C118,37 127,36 136,35"/>
<polygon style="fill:midnightblue;stroke:midnightblue;" points="136,32 146,33 137,38 136,32"/>
</g>
<g id="node5" class="node"><title>Node3</title>
<a xlink:href="x_p_l_8c.html#abde6ae0f37ef47bee8e881bba8502169" target="_top" xlink:title="XPLSendHeader">
<polygon style="fill:none;stroke:black;" points="169,86 335,86 335,54 169,54 169,86"/>
<text text-anchor="middle" x="252" y="77" style="font-family:Helvetica;font-size:20.00;">XPLSendHeader</text>
</a>
</g>
<g id="edge4" class="edge"><title>Node1-&gt;Node3</title>
<path style="fill:none;stroke:midnightblue;" d="M109,52C124,54 142,56 159,58"/>
<polygon style="fill:midnightblue;stroke:midnightblue;" points="159,55 169,59 159,61 159,55"/>
</g>
</g>
</svg>
