<?xml version="1.0" encoding="UTF-8" standalone="no"?>
<!DOCTYPE svg PUBLIC "-//W3C//DTD SVG 1.0//EN"
 "http://www.w3.org/TR/2001/REC-SVG-20010904/DTD/svg10.dtd" [
 <!ATTLIST svg xmlns:xlink CDATA #FIXED "http://www.w3.org/1999/xlink">
]>
<!-- Generated by dot version 1.13 (v16) (Mon August 23, 2004)
     For user: (jarrodneven) Jarrod  Neven   Title: G    Pages: 1 -->
<svg width="940pt" height="182pt"
 viewBox = "-1 -1 939 181"
 xmlns="http://www.w3.org/2000/svg" xmlns:xlink="http://www.w3.org/1999/xlink">
<g id="graph0" class="graph" style="font-family:Times-Roman;font-size:14.00;">
<title>G</title>
<g id="node1" class="node"><title>Node1</title>
<polygon style="fill:#bfbfbf;stroke:black;" points="5,108 127,108 127,76 5,76 5,108"/>
<text text-anchor="middle" x="66" y="99" style="font-family:Helvetica;font-size:20.00;">SMTPQueueEmail</text>
</g>
<g id="node3" class="node"><title>Node2</title>
<a xlink:href="_h_t_t_p_forms_8c.html#a686ae35a16ecb63daffafcd015ddb070" target="_top" xlink:title="Processes all HTTP GETS.">
<polygon style="fill:none;stroke:black;" points="194,36 367,36 367,4 194,4 194,36"/>
<text text-anchor="middle" x="280" y="27" style="font-family:Helvetica;font-size:20.00;">HTTPExecuteGet</text>
</a>
</g>
<g id="edge2" class="edge"><title>Node1-&gt;Node2</title>
<path style="fill:none;stroke:midnightblue;" d="M135,70C147,59 145,46 163,36 173,31 183,28 194,25"/>
<polygon style="fill:midnightblue;stroke:midnightblue;" points="137,73 127,76 133,67 137,73"/>
</g>
<g id="node5" class="node"><title>Node3</title>
<a xlink:href="x_p_l_8h.html#aea89a2e5b007623f49cb6117afc947ec" target="_top" xlink:title="SchemaInit">
<polygon style="fill:none;stroke:black;" points="222,86 338,86 338,54 222,54 222,86"/>
<text text-anchor="middle" x="280" y="77" style="font-family:Helvetica;font-size:20.00;">SchemaInit</text>
</a>
</g>
<g id="edge4" class="edge"><title>Node1-&gt;Node3</title>
<path style="fill:none;stroke:midnightblue;" d="M137,85C165,82 195,79 222,76"/>
<polygon style="fill:midnightblue;stroke:midnightblue;" points="137,88 127,86 137,82 137,88"/>
</g>
<g id="node11" class="node"><title>Node6</title>
<a xlink:href="x_p_l_8h.html#a62b4d90791ab073f74677d42bfb64253" target="_top" xlink:title="SchemaTasks">
<polygon style="fill:none;stroke:black;" points="557,136 697,136 697,104 557,104 557,136"/>
<text text-anchor="middle" x="627" y="127" style="font-family:Helvetica;font-size:20.00;">SchemaTasks</text>
</a>
</g>
<g id="edge10" class="edge"><title>Node1-&gt;Node6</title>
<path style="fill:none;stroke:midnightblue;" d="M137,95C245,101 449,111 557,116"/>
<polygon style="fill:midnightblue;stroke:midnightblue;" points="137,98 127,95 137,91 137,98"/>
</g>
<g id="node16" class="node"><title>Node8</title>
<a xlink:href="_security_system_8c.html#accca294859199bc9e59cec74618c871c" target="_top" xlink:title="StateChangeToAlarming">
<polygon style="fill:none;stroke:black;" points="164,174 397,174 397,142 164,142 164,174"/>
<text text-anchor="middle" x="280" y="165" style="font-family:Helvetica;font-size:20.00;">StateChangeToAlarming</text>
</a>
</g>
<g id="edge16" class="edge"><title>Node1-&gt;Node8</title>
<path style="fill:none;stroke:midnightblue;" d="M136,114C147,124 147,135 163,142 163,142 164,142 164,142"/>
<polygon style="fill:midnightblue;stroke:midnightblue;" points="133,116 127,108 137,111 133,116"/>
</g>
<g id="node7" class="node"><title>Node4</title>
<a xlink:href="x_p_l_8h.html#a091a12042a9d63dc524ce896fbc04b46" target="_top" xlink:title="xPLInit">
<polygon style="fill:none;stroke:black;" points="589,86 666,86 666,54 589,54 589,86"/>
<text text-anchor="middle" x="627" y="77" style="font-family:Helvetica;font-size:20.00;">xPLInit</text>
</a>
</g>
<g id="edge6" class="edge"><title>Node3-&gt;Node4</title>
<path style="fill:none;stroke:midnightblue;" d="M348,70C420,70 531,70 589,70"/>
<polygon style="fill:midnightblue;stroke:midnightblue;" points="348,73 338,70 348,66 348,73"/>
</g>
<g id="node9" class="node"><title>Node5</title>
<a xlink:href="_main_demo_8c.html#a6288eba0f8e8ad3ab1544ad731eb7667" target="_top" xlink:title="main">
<polygon style="fill:none;stroke:black;" points="874,111 933,111 933,79 874,79 874,111"/>
<text text-anchor="middle" x="903" y="102" style="font-family:Helvetica;font-size:20.00;">main</text>
</a>
</g>
<g id="edge8" class="edge"><title>Node4-&gt;Node5</title>
<path style="fill:none;stroke:midnightblue;" d="M676,75C734,79 827,88 874,92"/>
<polygon style="fill:midnightblue;stroke:midnightblue;" points="676,78 666,74 676,72 676,78"/>
</g>
<g id="node13" class="node"><title>Node7</title>
<a xlink:href="x_p_l_8h.html#a86d914c966f337c4e3a6fda46a945d11" target="_top" xlink:title="XPLTasks">
<polygon style="fill:none;stroke:black;" points="734,133 837,133 837,101 734,101 734,133"/>
<text text-anchor="middle" x="785" y="124" style="font-family:Helvetica;font-size:20.00;">XPLTasks</text>
</a>
</g>
<g id="edge12" class="edge"><title>Node6-&gt;Node7</title>
<path style="fill:none;stroke:midnightblue;" d="M707,119C716,119 725,118 734,118"/>
<polygon style="fill:midnightblue;stroke:midnightblue;" points="707,122 697,119 707,115 707,122"/>
</g>
<g id="edge14" class="edge"><title>Node7-&gt;Node5</title>
<path style="fill:none;stroke:midnightblue;" d="M847,105C857,104 866,101 874,100"/>
<polygon style="fill:midnightblue;stroke:midnightblue;" points="847,108 837,107 846,102 847,108"/>
</g>
<g id="node18" class="node"><title>Node9</title>
<a xlink:href="_security_system_8c.html#a3ccbc635f6f7bb31465920840c7db474" target="_top" xlink:title="IOTasks">
<polygon style="fill:none;stroke:black;" points="433,174 521,174 521,142 433,142 433,174"/>
<text text-anchor="middle" x="477" y="165" style="font-family:Helvetica;font-size:20.00;">IOTasks</text>
</a>
</g>
<g id="edge18" class="edge"><title>Node8-&gt;Node9</title>
<path style="fill:none;stroke:midnightblue;" d="M407,158C416,158 425,158 433,158"/>
<polygon style="fill:midnightblue;stroke:midnightblue;" points="407,161 397,158 407,154 407,161"/>
</g>
<g id="edge20" class="edge"><title>Node9-&gt;Node6</title>
<path style="fill:none;stroke:midnightblue;" d="M531,143C540,140 549,138 557,136"/>
<polygon style="fill:midnightblue;stroke:midnightblue;" points="532,146 521,146 530,140 532,146"/>
</g>
</g>
</svg>
