<?xml version="1.0" encoding="UTF-8" standalone="no"?>
<!DOCTYPE svg PUBLIC "-//W3C//DTD SVG 1.0//EN"
 "http://www.w3.org/TR/2001/REC-SVG-20010904/DTD/svg10.dtd" [
 <!ATTLIST svg xmlns:xlink CDATA #FIXED "http://www.w3.org/1999/xlink">
]>
<!-- Generated by dot version 1.13 (v16) (Mon August 23, 2004)
     For user: (jarrodneven) Jarrod  Neven   Title: G    Pages: 1 -->
<svg width="868pt" height="94pt"
 viewBox = "-1 -1 867 93"
 xmlns="http://www.w3.org/2000/svg" xmlns:xlink="http://www.w3.org/1999/xlink">
<g id="graph0" class="graph" style="font-family:Times-Roman;font-size:14.00;">
<title>G</title>
<g id="node1" class="node"><title>Node1</title>
<polygon style="fill:#bfbfbf;stroke:black;" points="6,61 105,61 105,29 6,29 6,61"/>
<text text-anchor="middle" x="55" y="52" style="font-family:Helvetica;font-size:20.00;">ArmLatchkey</text>
</g>
<g id="node3" class="node"><title>Node2</title>
<a xlink:href="_h_t_t_p_forms_8c.html#a686ae35a16ecb63daffafcd015ddb070" target="_top" xlink:title="Processes all HTTP GETS.">
<polygon style="fill:none;stroke:black;" points="176,36 349,36 349,4 176,4 176,36"/>
<text text-anchor="middle" x="262" y="27" style="font-family:Helvetica;font-size:20.00;">HTTPExecuteGet</text>
</a>
</g>
<g id="edge2" class="edge"><title>Node1-&gt;Node2</title>
<path style="fill:none;stroke:midnightblue;" d="M115,38C134,36 156,34 176,31"/>
<polygon style="fill:midnightblue;stroke:midnightblue;" points="115,41 105,39 115,35 115,41"/>
</g>
<g id="node5" class="node"><title>Node3</title>
<a xlink:href="x_p_l_8h.html#a3baecc6556e5cc7af0d59d0216aa217c" target="_top" xlink:title="SchemaProcessUDPMsg">
<polygon style="fill:none;stroke:black;" points="141,86 383,86 383,54 141,54 141,86"/>
<text text-anchor="middle" x="262" y="77" style="font-family:Helvetica;font-size:20.00;">SchemaProcessUDPMsg</text>
</a>
</g>
<g id="edge4" class="edge"><title>Node1-&gt;Node3</title>
<path style="fill:none;stroke:midnightblue;" d="M115,52C123,53 132,54 141,55"/>
<polygon style="fill:midnightblue;stroke:midnightblue;" points="115,55 105,51 115,49 115,55"/>
</g>
<g id="node7" class="node"><title>Node4</title>
<a xlink:href="x_p_l_8c.html#a41c59f641ff95b999e66c0d45117b73d" target="_top" xlink:title="XPLProcessUDPMsg">
<polygon style="fill:none;stroke:black;" points="419,86 625,86 625,54 419,54 419,86"/>
<text text-anchor="middle" x="522" y="77" style="font-family:Helvetica;font-size:20.00;">XPLProcessUDPMsg</text>
</a>
</g>
<g id="edge6" class="edge"><title>Node3-&gt;Node4</title>
<path style="fill:none;stroke:midnightblue;" d="M393,70C402,70 410,70 419,70"/>
<polygon style="fill:midnightblue;stroke:midnightblue;" points="393,73 383,70 393,66 393,73"/>
</g>
<g id="node9" class="node"><title>Node5</title>
<a xlink:href="x_p_l_8h.html#a86d914c966f337c4e3a6fda46a945d11" target="_top" xlink:title="XPLTasks">
<polygon style="fill:none;stroke:black;" points="662,86 765,86 765,54 662,54 662,86"/>
<text text-anchor="middle" x="713" y="77" style="font-family:Helvetica;font-size:20.00;">XPLTasks</text>
</a>
</g>
<g id="edge8" class="edge"><title>Node4-&gt;Node5</title>
<path style="fill:none;stroke:midnightblue;" d="M635,70C644,70 653,70 662,70"/>
<polygon style="fill:midnightblue;stroke:midnightblue;" points="635,73 625,70 635,66 635,73"/>
</g>
<g id="node11" class="node"><title>Node6</title>
<a xlink:href="_main_demo_8c.html#a6288eba0f8e8ad3ab1544ad731eb7667" target="_top" xlink:title="main">
<polygon style="fill:none;stroke:black;" points="802,86 861,86 861,54 802,54 802,86"/>
<text text-anchor="middle" x="831" y="77" style="font-family:Helvetica;font-size:20.00;">main</text>
</a>
</g>
<g id="edge10" class="edge"><title>Node5-&gt;Node6</title>
<path style="fill:none;stroke:midnightblue;" d="M775,70C785,70 794,70 802,70"/>
<polygon style="fill:midnightblue;stroke:midnightblue;" points="775,73 765,70 775,66 775,73"/>
</g>
</g>
</svg>
