<?xml version="1.0" encoding="UTF-8" standalone="no"?>
<!DOCTYPE svg PUBLIC "-//W3C//DTD SVG 1.0//EN"
 "http://www.w3.org/TR/2001/REC-SVG-20010904/DTD/svg10.dtd" [
 <!ATTLIST svg xmlns:xlink CDATA #FIXED "http://www.w3.org/1999/xlink">
]>
<!-- Generated by dot version 1.13 (v16) (Mon August 23, 2004)
     For user: (jarrodneven) Jarrod  Neven   Title: G    Pages: 1 -->
<svg width="534pt" height="194pt"
 viewBox = "-1 -1 533 193"
 xmlns="http://www.w3.org/2000/svg" xmlns:xlink="http://www.w3.org/1999/xlink">
<g id="graph0" class="graph" style="font-family:Times-Roman;font-size:14.00;">
<title>G</title>
<g id="node1" class="node"><title>Node1</title>
<polygon style="fill:#bfbfbf;stroke:black;" points="5,111 89,111 89,79 5,79 5,111"/>
<text text-anchor="middle" x="47" y="102" style="font-family:Helvetica;font-size:20.00;">SchemaInit</text>
</g>
<g id="node3" class="node"><title>Node2</title>
<a xlink:href="_security_system_8c.html#aa38cdab46c967118f0f383312f150cce" target="_top" xlink:title="LoadDefaultConfig">
<polygon style="fill:none;stroke:black;" points="134,36 316,36 316,4 134,4 134,36"/>
<text text-anchor="middle" x="225" y="27" style="font-family:Helvetica;font-size:20.00;">LoadDefaultConfig</text>
</a>
</g>
<g id="edge2" class="edge"><title>Node1-&gt;Node2</title>
<path style="fill:none;stroke:midnightblue;" d="M89,79C108,67 105,52 125,38"/>
<polygon style="fill:midnightblue;stroke:midnightblue;" points="124,35 134,32 128,40 124,35"/>
</g>
<g id="node5" class="node"><title>Node3</title>
<a xlink:href="_security_x_p_l_sender_8c.html#ad811bd225b593df01e168e1bb0967713" target="_top" xlink:title="SendGatewayReady">
<polygon style="fill:none;stroke:black;" points="126,86 325,86 325,54 126,54 126,86"/>
<text text-anchor="middle" x="225" y="77" style="font-family:Helvetica;font-size:20.00;">SendGatewayReady</text>
</a>
</g>
<g id="edge4" class="edge"><title>Node1-&gt;Node3</title>
<path style="fill:none;stroke:midnightblue;" d="M89,89C97,88 106,87 116,86"/>
<polygon style="fill:midnightblue;stroke:midnightblue;" points="116,83 126,84 117,89 116,83"/>
</g>
<g id="node9" class="node"><title>Node5</title>
<a xlink:href="_security_system_8h.html#ae777555850cf9c897f46c8407ce1729f" target="_top" xlink:title="Places a new email in the SMTP queue to be processed (sent)">
<polygon style="fill:none;stroke:black;" points="134,136 316,136 316,104 134,104 134,136"/>
<text text-anchor="middle" x="225" y="127" style="font-family:Helvetica;font-size:20.00;">SMTPQueueEmail</text>
</a>
</g>
<g id="edge8" class="edge"><title>Node1-&gt;Node5</title>
<path style="fill:none;stroke:midnightblue;" d="M89,101C100,103 112,104 124,106"/>
<polygon style="fill:midnightblue;stroke:midnightblue;" points="124,103 134,107 124,109 124,103"/>
</g>
<g id="node11" class="node"><title>Node6</title>
<a xlink:href="x_p_l_8c.html#a31c1c8faace74e23f37a03b7292f7981" target="_top" xlink:title="xPLLoadEEConfig">
<polygon style="fill:none;stroke:black;" points="136,186 315,186 315,154 136,154 136,186"/>
<text text-anchor="middle" x="225" y="177" style="font-family:Helvetica;font-size:20.00;">xPLLoadEEConfig</text>
</a>
</g>
<g id="edge10" class="edge"><title>Node1-&gt;Node6</title>
<path style="fill:none;stroke:midnightblue;" d="M89,111C110,126 104,142 125,154 126,154 126,155 127,155"/>
<polygon style="fill:midnightblue;stroke:midnightblue;" points="128,152 136,159 125,158 128,152"/>
</g>
<g id="node7" class="node"><title>Node4</title>
<a xlink:href="x_p_l_8c.html#abde6ae0f37ef47bee8e881bba8502169" target="_top" xlink:title="XPLSendHeader">
<polygon style="fill:none;stroke:black;" points="361,86 527,86 527,54 361,54 361,86"/>
<text text-anchor="middle" x="444" y="77" style="font-family:Helvetica;font-size:20.00;">XPLSendHeader</text>
</a>
</g>
<g id="edge6" class="edge"><title>Node3-&gt;Node4</title>
<path style="fill:none;stroke:midnightblue;" d="M325,70C334,70 342,70 351,70"/>
<polygon style="fill:midnightblue;stroke:midnightblue;" points="351,66 361,70 351,73 351,66"/>
</g>
</g>
</svg>
