<?xml version="1.0" encoding="UTF-8" standalone="no"?>
<!DOCTYPE svg PUBLIC "-//W3C//DTD SVG 1.0//EN"
 "http://www.w3.org/TR/2001/REC-SVG-20010904/DTD/svg10.dtd" [
 <!ATTLIST svg xmlns:xlink CDATA #FIXED "http://www.w3.org/1999/xlink">
]>
<!-- Generated by dot version 1.13 (v16) (Mon August 23, 2004)
     For user: (jarrodneven) Jarrod  Neven   Title: G    Pages: 1 -->
<svg width="916pt" height="228pt"
 viewBox = "-1 -1 915 227"
 xmlns="http://www.w3.org/2000/svg" xmlns:xlink="http://www.w3.org/1999/xlink">
<g id="graph0" class="graph" style="font-family:Times-Roman;font-size:14.00;">
<title>G</title>
<g id="node1" class="node"><title>Node9</title>
<polygon style="fill:#bfbfbf;stroke:black;" points="478,188 408,188 408,220 478,220 478,188"/>
<text text-anchor="middle" x="443" y="211" style="font-family:Helvetica;font-size:20.00;">Inherited</text>
</g>
<g id="node2" class="node"><title>Node10</title>
<a xlink:href="$classPublicBase.html" xlink:title="PublicBase">
<polygon style="fill:none;stroke:black;" points="121,96 5,96 5,128 121,128 121,96"/>
<text text-anchor="middle" x="63" y="119" style="font-family:Helvetica;font-size:20.00;">PublicBase</text>
</a>
</g>
<g id="edge2" class="edge"><title>Node10-&gt;Node9</title>
<path style="fill:none;stroke:midnightblue;" d="M121,131C188,152 305,187 408,202"/>
<polygon style="fill:midnightblue;stroke:midnightblue;" points="120,134 111,128 122,128 120,134"/>
</g>
<g id="node4" class="node"><title>Node11</title>
<a xlink:href="$classTruncated.html" xlink:title="Truncated">
<polygon style="fill:none;stroke:red;" points="115,4 11,4 11,36 115,36 115,4"/>
<text text-anchor="middle" x="63" y="27" style="font-family:Helvetica;font-size:20.00;">Truncated</text>
</a>
</g>
<g id="edge4" class="edge"><title>Node11-&gt;Node10</title>
<path style="fill:none;stroke:midnightblue;" d="M63,46C63,62 63,82 63,96"/>
<polygon style="fill:midnightblue;stroke:midnightblue;" points="60,46 63,36 67,46 60,46"/>
</g>
<g id="node6" class="node"><title>Node13</title>
<a xlink:href="$classProtectedBase.html" xlink:title="ProtectedBase">
<polygon style="fill:none;stroke:black;" points="285,96 139,96 139,128 285,128 285,96"/>
<text text-anchor="middle" x="212" y="119" style="font-family:Helvetica;font-size:20.00;">ProtectedBase</text>
</a>
</g>
<g id="edge6" class="edge"><title>Node13-&gt;Node9</title>
<path style="fill:none;stroke:darkgreen;" d="M253,133C291,152 351,178 408,196"/>
<polygon style="fill:darkgreen;stroke:darkgreen;" points="251,136 244,128 254,130 251,136"/>
</g>
<g id="node8" class="node"><title>Node14</title>
<a xlink:href="$classPrivateBase.html" xlink:title="PrivateBase">
<polygon style="fill:none;stroke:black;" points="426,96 304,96 304,128 426,128 426,96"/>
<text text-anchor="middle" x="365" y="119" style="font-family:Helvetica;font-size:20.00;">PrivateBase</text>
</a>
</g>
<g id="edge8" class="edge"><title>Node14-&gt;Node9</title>
<path style="fill:none;stroke:#8b1a1a;" d="M386,136C399,153 417,174 429,188"/>
<polygon style="fill:#8b1a1a;stroke:#8b1a1a;" points="383,138 379,128 388,133 383,138"/>
</g>
<g id="node10" class="node"><title>Node15</title>
<polygon style="fill:none;stroke:#bfbfbf;" points="596,96 446,96 446,128 596,128 596,96"/>
<text text-anchor="middle" x="521" y="119" style="font-family:Helvetica;font-size:20.00;">Undocumented</text>
</g>
<g id="edge10" class="edge"><title>Node15-&gt;Node9</title>
<path style="fill:none;stroke:midnightblue;" d="M500,136C487,153 469,174 457,188"/>
<polygon style="fill:midnightblue;stroke:midnightblue;" points="498,133 507,128 503,138 498,133"/>
</g>
<g id="node12" class="node"><title>Node16</title>
<a xlink:href="$classTempl.html" xlink:title="Templ&lt; int &gt;">
<polygon style="fill:none;stroke:black;" points="739,96 615,96 615,128 739,128 739,96"/>
<text text-anchor="middle" x="677" y="119" style="font-family:Helvetica;font-size:20.00;">Templ&lt; int &gt;</text>
</a>
</g>
<g id="edge12" class="edge"><title>Node16-&gt;Node9</title>
<path style="fill:none;stroke:midnightblue;" d="M636,133C597,152 536,178 478,196"/>
<polygon style="fill:midnightblue;stroke:midnightblue;" points="635,130 645,128 638,136 635,130"/>
</g>
<g id="node14" class="node"><title>Node17</title>
<a xlink:href="$classTempl.html" xlink:title="Templ&lt; T &gt;">
<polygon style="fill:none;stroke:black;" points="734,4 620,4 620,36 734,36 734,4"/>
<text text-anchor="middle" x="677" y="27" style="font-family:Helvetica;font-size:20.00;">Templ&lt; T &gt;</text>
</a>
</g>
<g id="edge14" class="edge"><title>Node17-&gt;Node16</title>
<path style="fill:none;stroke:orange;stroke-dasharray:5,2;" d="M677,46C677,62 677,82 677,96"/>
<polygon style="fill:orange;stroke:orange;" points="674,46 677,36 681,46 674,46"/>
<text text-anchor="middle" x="704" y="73" style="font-family:Helvetica;font-size:20.00;">&lt; int &gt;</text>
</g>
<g id="node16" class="node"><title>Node18</title>
<a xlink:href="$classUsed.html" xlink:title="Used">
<polygon style="fill:none;stroke:black;" points="818,96 758,96 758,128 818,128 818,96"/>
<text text-anchor="middle" x="788" y="119" style="font-family:Helvetica;font-size:20.00;">Used</text>
</a>
</g>
<g id="edge16" class="edge"><title>Node18-&gt;Node9</title>
<path style="fill:none;stroke:#9832cd;stroke-dasharray:5,2;" d="M748,128C628,169 597,183 478,202"/>
<polygon style="fill:#9832cd;stroke:#9832cd;" points="746,125 757,125 749,131 746,125"/>
<text text-anchor="middle" x="759" y="165" style="font-family:Helvetica;font-size:20.00;">m_usedClass</text>
</g>
</g>
</svg>
