<?xml version="1.0" encoding="UTF-8" standalone="no"?>
<!DOCTYPE svg PUBLIC "-//W3C//DTD SVG 1.0//EN"
 "http://www.w3.org/TR/2001/REC-SVG-20010904/DTD/svg10.dtd">
<!-- Generated by dot version 1.13 (v16) (Mon August 23, 2004)
     For user: (jarrodneven) Jarrod  Neven   Title: G    Pages: 1 -->
<svg width="752pt" height="816pt"
 viewBox = "-1 -1 751 815"
 xmlns="http://www.w3.org/2000/svg">
<g id="graph0" class="graph" style="font-family:Times-Roman;font-size:14.00;">
<title>G</title>
<g id="node1" class="node"><title>Node1</title>
<polygon style="fill:#bfbfbf;stroke:black;" points="262,808 453,808 453,400 262,400 262,808"/>
<text text-anchor="middle" x="357" y="423" style="font-family:Helvetica;font-size:20.00;">ZoneConfigs</text>
<polyline style="fill:none;stroke:black;" points="262,432 453,432 "/>
<text text-anchor="start" x="269" y="455" style="font-family:Helvetica;font-size:20.00;">+ IsTriggered</text>
<text text-anchor="start" x="269" y="479" style="font-family:Helvetica;font-size:20.00;">+ IsNO</text>
<text text-anchor="start" x="269" y="503" style="font-family:Helvetica;font-size:20.00;">+ IsEntry</text>
<text text-anchor="start" x="269" y="527" style="font-family:Helvetica;font-size:20.00;">+ IsIsolated</text>
<text text-anchor="start" x="269" y="551" style="font-family:Helvetica;font-size:20.00;">+ IsBypassed</text>
<text text-anchor="start" x="269" y="575" style="font-family:Helvetica;font-size:20.00;">+ IsArmed</text>
<text text-anchor="start" x="269" y="599" style="font-family:Helvetica;font-size:20.00;">+ IsAlarmed</text>
<text text-anchor="start" x="269" y="623" style="font-family:Helvetica;font-size:20.00;">+ IsChangeFlagged</text>
<text text-anchor="start" x="269" y="647" style="font-family:Helvetica;font-size:20.00;">+ IsTampered</text>
<text text-anchor="start" x="269" y="671" style="font-family:Helvetica;font-size:20.00;">+ State</text>
<text text-anchor="start" x="269" y="695" style="font-family:Helvetica;font-size:20.00;">+ ZoneType</text>
<text text-anchor="start" x="269" y="719" style="font-family:Helvetica;font-size:20.00;">+ ZoneAlarmType</text>
<text text-anchor="start" x="269" y="743" style="font-family:Helvetica;font-size:20.00;">+ AreaList</text>
<text text-anchor="start" x="269" y="767" style="font-family:Helvetica;font-size:20.00;">+ BounceDelay</text>
<polyline style="fill:none;stroke:black;" points="262,776 453,776 "/>
<text text-anchor="middle" x="357" y="799" style="font-family:Helvetica;font-size:20.00;"> </text>
</g>
<g id="node2" class="node"><title>Node2</title>
<polygon style="fill:none;stroke:#bfbfbf;" points="5,100 187,100 187,4 5,4 5,100"/>
<text text-anchor="middle" x="96" y="27" style="font-family:Helvetica;font-size:20.00;">enum _ZoneTypes</text>
<polyline style="fill:none;stroke:#bfbfbf;" points="5,36 187,36 "/>
<text text-anchor="middle" x="96" y="59" style="font-family:Helvetica;font-size:20.00;"> </text>
<polyline style="fill:none;stroke:#bfbfbf;" points="5,68 187,68 "/>
<text text-anchor="middle" x="96" y="91" style="font-family:Helvetica;font-size:20.00;"> </text>
</g>
<g id="edge2" class="edge"><title>Node2-&gt;Node1</title>
<path style="fill:none;stroke:#9832cd;stroke-dasharray:5,2;" d="M102,110C114,183 142,308 216,382 231,398 246,385 262,400"/>
<polygon style="fill:#9832cd;stroke:#9832cd;" points="101,100 98,110 101,103 102,110 101,103 106,110 101,100 101,100"/>
<text text-anchor="middle" x="260" y="257" style="font-family:Helvetica;font-size:20.00;">ZoneType</text>
</g>
<g id="node4" class="node"><title>Node3</title>
<polygon style="fill:none;stroke:#bfbfbf;" points="205,100 401,100 401,4 205,4 205,100"/>
<text text-anchor="middle" x="303" y="27" style="font-family:Helvetica;font-size:20.00;">enum _Zone_States</text>
<polyline style="fill:none;stroke:#bfbfbf;" points="205,36 401,36 "/>
<text text-anchor="middle" x="303" y="59" style="font-family:Helvetica;font-size:20.00;"> </text>
<polyline style="fill:none;stroke:#bfbfbf;" points="205,68 401,68 "/>
<text text-anchor="middle" x="303" y="91" style="font-family:Helvetica;font-size:20.00;"> </text>
</g>
<g id="edge4" class="edge"><title>Node3-&gt;Node1</title>
<path style="fill:none;stroke:#9832cd;stroke-dasharray:5,2;" d="M309,110C315,178 327,296 337,400"/>
<polygon style="fill:#9832cd;stroke:#9832cd;" points="308,100 305,110 308,103 309,110 308,103 313,110 308,100 308,100"/>
<text text-anchor="middle" x="357" y="257" style="font-family:Helvetica;font-size:20.00;">State</text>
</g>
<g id="node6" class="node"><title>Node4</title>
<polygon style="fill:none;stroke:#bfbfbf;" points="419,100 456,100 456,4 419,4 419,100"/>
<text text-anchor="middle" x="437" y="27" style="font-family:Helvetica;font-size:20.00;">int</text>
<polyline style="fill:none;stroke:#bfbfbf;" points="419,36 456,36 "/>
<text text-anchor="middle" x="437" y="59" style="font-family:Helvetica;font-size:20.00;"> </text>
<polyline style="fill:none;stroke:#bfbfbf;" points="419,68 456,68 "/>
<text text-anchor="middle" x="437" y="91" style="font-family:Helvetica;font-size:20.00;"> </text>
</g>
<g id="edge6" class="edge"><title>Node4-&gt;Node1</title>
<path style="fill:none;stroke:#9832cd;stroke-dasharray:5,2;" d="M426,110C426,113 425,115 425,118 410,210 395,313 384,400"/>
<polygon style="fill:#9832cd;stroke:#9832cd;" points="428,100 422,109 427,103 426,110 427,103 430,111 428,100 428,100"/>
<text text-anchor="middle" x="503" y="137" style="font-family:Helvetica;font-size:20.00;">IsArmed</text>
<text text-anchor="middle" x="503" y="161" style="font-family:Helvetica;font-size:20.00;">IsTriggered</text>
<text text-anchor="middle" x="503" y="185" style="font-family:Helvetica;font-size:20.00;">AreaList</text>
<text text-anchor="middle" x="503" y="209" style="font-family:Helvetica;font-size:20.00;">IsEntry</text>
<text text-anchor="middle" x="503" y="233" style="font-family:Helvetica;font-size:20.00;">IsNO</text>
<text text-anchor="middle" x="503" y="257" style="font-family:Helvetica;font-size:20.00;">IsAlarmed</text>
<text text-anchor="middle" x="503" y="281" style="font-family:Helvetica;font-size:20.00;">BounceDelay</text>
<text text-anchor="middle" x="503" y="305" style="font-family:Helvetica;font-size:20.00;">IsChangeFlagged</text>
<text text-anchor="middle" x="503" y="329" style="font-family:Helvetica;font-size:20.00;">IsBypassed</text>
<text text-anchor="middle" x="503" y="353" style="font-family:Helvetica;font-size:20.00;">IsTampered</text>
<text text-anchor="middle" x="503" y="377" style="font-family:Helvetica;font-size:20.00;">...</text>
</g>
<g id="node8" class="node"><title>Node5</title>
<polygon style="fill:none;stroke:#bfbfbf;" points="510,100 698,100 698,4 510,4 510,100"/>
<text text-anchor="middle" x="604" y="27" style="font-family:Helvetica;font-size:20.00;">enum _AlarmTypes</text>
<polyline style="fill:none;stroke:#bfbfbf;" points="510,36 698,36 "/>
<text text-anchor="middle" x="604" y="59" style="font-family:Helvetica;font-size:20.00;"> </text>
<polyline style="fill:none;stroke:#bfbfbf;" points="510,68 698,68 "/>
<text text-anchor="middle" x="604" y="91" style="font-family:Helvetica;font-size:20.00;"> </text>
</g>
<g id="edge8" class="edge"><title>Node5-&gt;Node1</title>
<path style="fill:none;stroke:#9832cd;stroke-dasharray:5,2;" d="M603,110C601,203 595,372 586,382 545,426 499,363 453,400"/>
<polygon style="fill:#9832cd;stroke:#9832cd;" points="603,100 599,110 603,103 603,110 603,103 608,110 603,100 603,100"/>
<text text-anchor="middle" x="671" y="257" style="font-family:Helvetica;font-size:20.00;">ZoneAlarmType</text>
</g>
</g>
</svg>
