<?xml version="1.0" encoding="UTF-8" standalone="no"?>
<!DOCTYPE svg PUBLIC "-//W3C//DTD SVG 1.0//EN"
 "http://www.w3.org/TR/2001/REC-SVG-20010904/DTD/svg10.dtd" [
 <!ATTLIST svg xmlns:xlink CDATA #FIXED "http://www.w3.org/1999/xlink">
]>
<!-- Generated by dot version 1.13 (v16) (Mon August 23, 2004)
     For user: (jarrodneven) Jarrod  Neven   Title: G    Pages: 1 -->
<svg width="501pt" height="516pt"
 viewBox = "-1 -1 500 515"
 xmlns="http://www.w3.org/2000/svg" xmlns:xlink="http://www.w3.org/1999/xlink">
<g id="graph0" class="graph" style="font-family:Times-Roman;font-size:14.00;">
<title>G</title>
<g id="node1" class="node"><title>Node1</title>
<polygon style="fill:#bfbfbf;stroke:black;" points="266,508 420,508 420,364 266,364 266,508"/>
<text text-anchor="middle" x="343" y="387" style="font-family:Helvetica;font-size:20.00;">SMTPTaskLists</text>
<polyline style="fill:none;stroke:black;" points="266,396 420,396 "/>
<text text-anchor="start" x="274" y="419" style="font-family:Helvetica;font-size:20.00;">+ CurentTask</text>
<text text-anchor="start" x="274" y="443" style="font-family:Helvetica;font-size:20.00;">+ FreePosition</text>
<text text-anchor="start" x="274" y="467" style="font-family:Helvetica;font-size:20.00;">+ Task</text>
<polyline style="fill:none;stroke:black;" points="266,476 420,476 "/>
<text text-anchor="middle" x="343" y="499" style="font-family:Helvetica;font-size:20.00;"> </text>
</g>
<g id="node2" class="node"><title>Node2</title>
<a xlink:href="struct_s_m_t_p_task_stack.html" target="_top" xlink:title="Task buffer for queuing up emails to be sent.">
<polygon style="fill:none;stroke:black;" points="156,280 346,280 346,160 156,160 156,280"/>
<text text-anchor="middle" x="251" y="183" style="font-family:Helvetica;font-size:20.00;">SMTPTaskStack</text>
<polyline style="fill:none;stroke:black;" points="156,192 346,192 "/>
<text text-anchor="start" x="164" y="215" style="font-family:Helvetica;font-size:20.00;">+ SMTP_SendType</text>
<text text-anchor="start" x="164" y="239" style="font-family:Helvetica;font-size:20.00;">+ SMTP_State</text>
<polyline style="fill:none;stroke:black;" points="156,248 346,248 "/>
<text text-anchor="middle" x="251" y="271" style="font-family:Helvetica;font-size:20.00;"> </text>
</a>
</g>
<g id="edge2" class="edge"><title>Node2-&gt;Node1</title>
<path style="fill:none;stroke:#9832cd;stroke-dasharray:5,2;" d="M281,289C291,313 302,340 312,364"/>
<polygon style="fill:#9832cd;stroke:#9832cd;" points="277,280 277,291 278,283 281,289 278,283 285,287 277,280 277,280"/>
<text text-anchor="middle" x="324" y="329" style="font-family:Helvetica;font-size:20.00;">Task</text>
</g>
<g id="node4" class="node"><title>Node3</title>
<polygon style="fill:none;stroke:#bfbfbf;" points="5,100 254,100 254,4 5,4 5,100"/>
<text text-anchor="middle" x="129" y="27" style="font-family:Helvetica;font-size:20.00;">enum _SMTP_SendTypes</text>
<polyline style="fill:none;stroke:#bfbfbf;" points="5,36 254,36 "/>
<text text-anchor="middle" x="129" y="59" style="font-family:Helvetica;font-size:20.00;"> </text>
<polyline style="fill:none;stroke:#bfbfbf;" points="5,68 254,68 "/>
<text text-anchor="middle" x="129" y="91" style="font-family:Helvetica;font-size:20.00;"> </text>
</g>
<g id="edge4" class="edge"><title>Node3-&gt;Node2</title>
<path style="fill:none;stroke:#9832cd;stroke-dasharray:5,2;" d="M170,109C182,125 195,143 207,160"/>
<polygon style="fill:#9832cd;stroke:#9832cd;" points="164,100 166,111 166,102 170,108 166,102 173,106 164,100 164,100"/>
<text text-anchor="middle" x="274" y="137" style="font-family:Helvetica;font-size:20.00;">SMTP_SendType</text>
</g>
<g id="node6" class="node"><title>Node4</title>
<polygon style="fill:none;stroke:#bfbfbf;" points="271,100 477,100 477,4 271,4 271,100"/>
<text text-anchor="middle" x="374" y="27" style="font-family:Helvetica;font-size:20.00;">enum _SMTP_States</text>
<polyline style="fill:none;stroke:#bfbfbf;" points="271,36 477,36 "/>
<text text-anchor="middle" x="374" y="59" style="font-family:Helvetica;font-size:20.00;"> </text>
<polyline style="fill:none;stroke:#bfbfbf;" points="271,68 477,68 "/>
<text text-anchor="middle" x="374" y="91" style="font-family:Helvetica;font-size:20.00;"> </text>
</g>
<g id="edge6" class="edge"><title>Node4-&gt;Node2</title>
<path style="fill:none;stroke:#9832cd;stroke-dasharray:5,2;" d="M368,110C365,121 361,133 355,142 351,148 346,154 341,160"/>
<polygon style="fill:#9832cd;stroke:#9832cd;" points="370,100 364,109 369,103 368,110 369,103 372,111 370,100 370,100"/>
<text text-anchor="middle" x="420" y="137" style="font-family:Helvetica;font-size:20.00;">SMTP_State</text>
</g>
<g id="node8" class="node"><title>Node5</title>
<polygon style="fill:none;stroke:#bfbfbf;" points="364,268 401,268 401,172 364,172 364,268"/>
<text text-anchor="middle" x="382" y="195" style="font-family:Helvetica;font-size:20.00;">int</text>
<polyline style="fill:none;stroke:#bfbfbf;" points="364,204 401,204 "/>
<text text-anchor="middle" x="382" y="227" style="font-family:Helvetica;font-size:20.00;"> </text>
<polyline style="fill:none;stroke:#bfbfbf;" points="364,236 401,236 "/>
<text text-anchor="middle" x="382" y="259" style="font-family:Helvetica;font-size:20.00;"> </text>
</g>
<g id="edge8" class="edge"><title>Node5-&gt;Node1</title>
<path style="fill:none;stroke:#9832cd;stroke-dasharray:5,2;" d="M371,278C367,304 361,336 356,364"/>
<polygon style="fill:#9832cd;stroke:#9832cd;" points="373,268 367,277 372,271 371,278 372,271 375,279 373,268 373,268"/>
<text text-anchor="middle" x="422" y="317" style="font-family:Helvetica;font-size:20.00;">CurentTask</text>
<text text-anchor="middle" x="422" y="341" style="font-family:Helvetica;font-size:20.00;">FreePosition</text>
</g>
</g>
</svg>
