<?xml version="1.0" encoding="UTF-8" standalone="no"?>
<!DOCTYPE svg PUBLIC "-//W3C//DTD SVG 1.0//EN"
 "http://www.w3.org/TR/2001/REC-SVG-20010904/DTD/svg10.dtd">
<!-- Generated by dot version 1.13 (v16) (Mon August 23, 2004)
     For user: (jarrodneven) Jarrod  Neven   Title: G    Pages: 1 -->
<svg width="549pt" height="912pt"
 viewBox = "-1 -1 548 911"
 xmlns="http://www.w3.org/2000/svg">
<g id="graph0" class="graph" style="font-family:Times-Roman;font-size:14.00;">
<title>G</title>
<g id="node1" class="node"><title>Node1</title>
<polygon style="fill:#bfbfbf;stroke:black;" points="157,904 327,904 327,400 157,400 157,904"/>
<text text-anchor="middle" x="242" y="423" style="font-family:Helvetica;font-size:20.00;">_NTP_PACKET</text>
<polyline style="fill:none;stroke:black;" points="157,432 327,432 "/>
<text text-anchor="start" x="165" y="455" style="font-family:Helvetica;font-size:20.00;">+ mode</text>
<text text-anchor="start" x="165" y="479" style="font-family:Helvetica;font-size:20.00;">+ versionNumber</text>
<text text-anchor="start" x="165" y="503" style="font-family:Helvetica;font-size:20.00;">+ leapIndicator</text>
<text text-anchor="start" x="165" y="527" style="font-family:Helvetica;font-size:20.00;">+ flags</text>
<text text-anchor="start" x="165" y="551" style="font-family:Helvetica;font-size:20.00;">+ stratum</text>
<text text-anchor="start" x="165" y="575" style="font-family:Helvetica;font-size:20.00;">+ poll</text>
<text text-anchor="start" x="165" y="599" style="font-family:Helvetica;font-size:20.00;">+ precision</text>
<text text-anchor="start" x="165" y="623" style="font-family:Helvetica;font-size:20.00;">+ root_delay</text>
<text text-anchor="start" x="165" y="647" style="font-family:Helvetica;font-size:20.00;">+ root_dispersion</text>
<text text-anchor="start" x="165" y="671" style="font-family:Helvetica;font-size:20.00;">+ ref_identifier</text>
<text text-anchor="start" x="165" y="695" style="font-family:Helvetica;font-size:20.00;">+ ref_ts_secs</text>
<text text-anchor="start" x="165" y="719" style="font-family:Helvetica;font-size:20.00;">+ ref_ts_fraq</text>
<text text-anchor="start" x="165" y="743" style="font-family:Helvetica;font-size:20.00;">+ orig_ts_secs</text>
<text text-anchor="start" x="165" y="767" style="font-family:Helvetica;font-size:20.00;">+ orig_ts_fraq</text>
<text text-anchor="start" x="165" y="791" style="font-family:Helvetica;font-size:20.00;">+ recv_ts_secs</text>
<text text-anchor="start" x="165" y="815" style="font-family:Helvetica;font-size:20.00;">+ recv_ts_fraq</text>
<text text-anchor="start" x="165" y="839" style="font-family:Helvetica;font-size:20.00;">+ tx_ts_secs</text>
<text text-anchor="start" x="165" y="863" style="font-family:Helvetica;font-size:20.00;">+ tx_ts_fraq</text>
<polyline style="fill:none;stroke:black;" points="157,872 327,872 "/>
<text text-anchor="middle" x="242" y="895" style="font-family:Helvetica;font-size:20.00;"> </text>
</g>
<g id="node2" class="node"><title>Node2</title>
<polygon style="fill:none;stroke:#bfbfbf;" points="5,100 78,100 78,4 5,4 5,100"/>
<text text-anchor="middle" x="41" y="27" style="font-family:Helvetica;font-size:20.00;">CHAR</text>
<polyline style="fill:none;stroke:#bfbfbf;" points="5,36 78,36 "/>
<text text-anchor="middle" x="41" y="59" style="font-family:Helvetica;font-size:20.00;"> </text>
<polyline style="fill:none;stroke:#bfbfbf;" points="5,68 78,68 "/>
<text text-anchor="middle" x="41" y="91" style="font-family:Helvetica;font-size:20.00;"> </text>
</g>
<g id="edge2" class="edge"><title>Node2-&gt;Node1</title>
<path style="fill:none;stroke:#9832cd;stroke-dasharray:5,2;" d="M28,110C15,184 7,308 73,382 99,411 132,372 157,400"/>
<polygon style="fill:#9832cd;stroke:#9832cd;" points="30,100 24,109 29,103 28,110 29,103 32,111 30,100 30,100"/>
<text text-anchor="middle" x="114" y="245" style="font-family:Helvetica;font-size:20.00;">precision</text>
<text text-anchor="middle" x="114" y="269" style="font-family:Helvetica;font-size:20.00;">poll</text>
</g>
<g id="node4" class="node"><title>Node3</title>
<polygon style="fill:none;stroke:#bfbfbf;" points="123,100 191,100 191,4 123,4 123,100"/>
<text text-anchor="middle" x="157" y="27" style="font-family:Helvetica;font-size:20.00;">BYTE</text>
<polyline style="fill:none;stroke:#bfbfbf;" points="123,36 191,36 "/>
<text text-anchor="middle" x="157" y="59" style="font-family:Helvetica;font-size:20.00;"> </text>
<polyline style="fill:none;stroke:#bfbfbf;" points="123,68 191,68 "/>
<text text-anchor="middle" x="157" y="91" style="font-family:Helvetica;font-size:20.00;"> </text>
</g>
<g id="edge4" class="edge"><title>Node3-&gt;Node1</title>
<path style="fill:none;stroke:#9832cd;stroke-dasharray:5,2;" d="M156,110C155,177 158,288 171,382 172,388 173,394 174,400"/>
<polygon style="fill:#9832cd;stroke:#9832cd;" points="156,100 152,110 156,103 156,110 156,103 161,110 156,100 156,100"/>
<text text-anchor="middle" x="238" y="221" style="font-family:Helvetica;font-size:20.00;">leapIndicator</text>
<text text-anchor="middle" x="238" y="245" style="font-family:Helvetica;font-size:20.00;">mode</text>
<text text-anchor="middle" x="238" y="269" style="font-family:Helvetica;font-size:20.00;">stratum</text>
<text text-anchor="middle" x="238" y="293" style="font-family:Helvetica;font-size:20.00;">versionNumber</text>
</g>
<g id="node6" class="node"><title>Node4</title>
<polygon style="fill:none;stroke:#bfbfbf;" points="281,100 375,100 375,4 281,4 281,100"/>
<text text-anchor="middle" x="328" y="27" style="font-family:Helvetica;font-size:20.00;">DWORD</text>
<polyline style="fill:none;stroke:#bfbfbf;" points="281,36 375,36 "/>
<text text-anchor="middle" x="328" y="59" style="font-family:Helvetica;font-size:20.00;"> </text>
<polyline style="fill:none;stroke:#bfbfbf;" points="281,68 375,68 "/>
<text text-anchor="middle" x="328" y="91" style="font-family:Helvetica;font-size:20.00;"> </text>
</g>
<g id="edge6" class="edge"><title>Node4-&gt;Node1</title>
<path style="fill:none;stroke:#9832cd;stroke-dasharray:5,2;" d="M328,110C328,177 324,288 310,382 309,388 308,394 307,400"/>
<polygon style="fill:#9832cd;stroke:#9832cd;" points="328,100 324,110 328,103 328,110 328,103 333,110 328,100 328,100"/>
<text text-anchor="middle" x="395" y="137" style="font-family:Helvetica;font-size:20.00;">orig_ts_fraq</text>
<text text-anchor="middle" x="395" y="161" style="font-family:Helvetica;font-size:20.00;">recv_ts_secs</text>
<text text-anchor="middle" x="395" y="185" style="font-family:Helvetica;font-size:20.00;">orig_ts_secs</text>
<text text-anchor="middle" x="395" y="209" style="font-family:Helvetica;font-size:20.00;">ref_ts_secs</text>
<text text-anchor="middle" x="395" y="233" style="font-family:Helvetica;font-size:20.00;">tx_ts_fraq</text>
<text text-anchor="middle" x="395" y="257" style="font-family:Helvetica;font-size:20.00;">recv_ts_fraq</text>
<text text-anchor="middle" x="395" y="281" style="font-family:Helvetica;font-size:20.00;">ref_ts_fraq</text>
<text text-anchor="middle" x="395" y="305" style="font-family:Helvetica;font-size:20.00;">ref_identifier</text>
<text text-anchor="middle" x="395" y="329" style="font-family:Helvetica;font-size:20.00;">root_dispersion</text>
<text text-anchor="middle" x="395" y="353" style="font-family:Helvetica;font-size:20.00;">tx_ts_secs</text>
<text text-anchor="middle" x="395" y="377" style="font-family:Helvetica;font-size:20.00;">...</text>
</g>
<g id="node8" class="node"><title>Node5</title>
<polygon style="fill:none;stroke:#bfbfbf;" points="477,100 524,100 524,4 477,4 477,100"/>
<text text-anchor="middle" x="500" y="27" style="font-family:Helvetica;font-size:20.00;">@0</text>
<polyline style="fill:none;stroke:#bfbfbf;" points="477,36 524,36 "/>
<text text-anchor="middle" x="500" y="59" style="font-family:Helvetica;font-size:20.00;"> </text>
<polyline style="fill:none;stroke:#bfbfbf;" points="477,68 524,68 "/>
<text text-anchor="middle" x="500" y="91" style="font-family:Helvetica;font-size:20.00;"> </text>
</g>
<g id="edge8" class="edge"><title>Node5-&gt;Node1</title>
<path style="fill:none;stroke:#9832cd;stroke-dasharray:5,2;" d="M498,110C494,200 485,364 467,382 423,427 370,355 327,400"/>
<polygon style="fill:#9832cd;stroke:#9832cd;" points="498,100 494,110 498,103 498,110 498,103 503,110 498,100 498,100"/>
<text text-anchor="middle" x="518" y="257" style="font-family:Helvetica;font-size:20.00;">flags</text>
</g>
</g>
</svg>
