<?xml version="1.0" encoding="UTF-8" standalone="no"?>
<!DOCTYPE svg PUBLIC "-//W3C//DTD SVG 1.0//EN"
 "http://www.w3.org/TR/2001/REC-SVG-20010904/DTD/svg10.dtd">
<!-- Generated by dot version 1.13 (v16) (Mon August 23, 2004)
     For user: (jarrodneven) Jarrod  Neven   Title: G    Pages: 1 -->
<svg width="494pt" height="288pt"
 viewBox = "-1 -1 493 287"
 xmlns="http://www.w3.org/2000/svg">
<g id="graph0" class="graph" style="font-family:Times-Roman;font-size:14.00;">
<title>G</title>
<g id="node1" class="node"><title>Node1</title>
<polygon style="fill:#bfbfbf;stroke:black;" points="156,280 346,280 346,160 156,160 156,280"/>
<text text-anchor="middle" x="251" y="183" style="font-family:Helvetica;font-size:20.00;">SMTPTaskStack</text>
<polyline style="fill:none;stroke:black;" points="156,192 346,192 "/>
<text text-anchor="start" x="164" y="215" style="font-family:Helvetica;font-size:20.00;">+ SMTP_SendType</text>
<text text-anchor="start" x="164" y="239" style="font-family:Helvetica;font-size:20.00;">+ SMTP_State</text>
<polyline style="fill:none;stroke:black;" points="156,248 346,248 "/>
<text text-anchor="middle" x="251" y="271" style="font-family:Helvetica;font-size:20.00;"> </text>
</g>
<g id="node2" class="node"><title>Node2</title>
<polygon style="fill:none;stroke:#bfbfbf;" points="5,100 254,100 254,4 5,4 5,100"/>
<text text-anchor="middle" x="129" y="27" style="font-family:Helvetica;font-size:20.00;">enum _SMTP_SendTypes</text>
<polyline style="fill:none;stroke:#bfbfbf;" points="5,36 254,36 "/>
<text text-anchor="middle" x="129" y="59" style="font-family:Helvetica;font-size:20.00;"> </text>
<polyline style="fill:none;stroke:#bfbfbf;" points="5,68 254,68 "/>
<text text-anchor="middle" x="129" y="91" style="font-family:Helvetica;font-size:20.00;"> </text>
</g>
<g id="edge2" class="edge"><title>Node2-&gt;Node1</title>
<path style="fill:none;stroke:#9832cd;stroke-dasharray:5,2;" d="M170,109C182,125 195,143 207,160"/>
<polygon style="fill:#9832cd;stroke:#9832cd;" points="164,100 166,111 166,102 170,108 166,102 173,106 164,100 164,100"/>
<text text-anchor="middle" x="271" y="137" style="font-family:Helvetica;font-size:20.00;">SMTP_SendType</text>
</g>
<g id="node4" class="node"><title>Node3</title>
<polygon style="fill:none;stroke:#bfbfbf;" points="271,100 477,100 477,4 271,4 271,100"/>
<text text-anchor="middle" x="374" y="27" style="font-family:Helvetica;font-size:20.00;">enum _SMTP_States</text>
<polyline style="fill:none;stroke:#bfbfbf;" points="271,36 477,36 "/>
<text text-anchor="middle" x="374" y="59" style="font-family:Helvetica;font-size:20.00;"> </text>
<polyline style="fill:none;stroke:#bfbfbf;" points="271,68 477,68 "/>
<text text-anchor="middle" x="374" y="91" style="font-family:Helvetica;font-size:20.00;"> </text>
</g>
<g id="edge4" class="edge"><title>Node3-&gt;Node1</title>
<path style="fill:none;stroke:#9832cd;stroke-dasharray:5,2;" d="M367,110C364,121 359,133 353,142 349,148 344,154 339,160"/>
<polygon style="fill:#9832cd;stroke:#9832cd;" points="369,100 363,109 368,103 367,110 368,103 371,111 369,100 369,100"/>
<text text-anchor="middle" x="419" y="137" style="font-family:Helvetica;font-size:20.00;">SMTP_State</text>
</g>
</g>
</svg>
