<?xml version="1.0" encoding="UTF-8" standalone="no"?>
<!DOCTYPE svg PUBLIC "-//W3C//DTD SVG 1.0//EN"
 "http://www.w3.org/TR/2001/REC-SVG-20010904/DTD/svg10.dtd">
<!-- Generated by dot version 1.13 (v16) (Mon August 23, 2004)
     For user: (jarrodneven) Jarrod  Neven   Title: G    Pages: 1 -->
<svg width="835pt" height="408pt"
 viewBox = "-1 -1 834 407"
 xmlns="http://www.w3.org/2000/svg">
<g id="graph0" class="graph" style="font-family:Times-Roman;font-size:14.00;">
<title>G</title>
<g id="node1" class="node"><title>Node1</title>
<polygon style="fill:#bfbfbf;stroke:black;" points="343,400 509,400 509,184 343,184 343,400"/>
<text text-anchor="middle" x="426" y="207" style="font-family:Helvetica;font-size:20.00;">xPLTasks</text>
<polyline style="fill:none;stroke:black;" points="343,216 509,216 "/>
<text text-anchor="start" x="351" y="239" style="font-family:Helvetica;font-size:20.00;">+ TaskBuffered</text>
<text text-anchor="start" x="351" y="263" style="font-family:Helvetica;font-size:20.00;">+ ErrorMessage</text>
<text text-anchor="start" x="351" y="287" style="font-family:Helvetica;font-size:20.00;">+ FlaggedZones</text>
<text text-anchor="start" x="351" y="311" style="font-family:Helvetica;font-size:20.00;">+ FlaggedAreas</text>
<text text-anchor="start" x="351" y="335" style="font-family:Helvetica;font-size:20.00;">+ NewZoneState</text>
<text text-anchor="start" x="351" y="359" style="font-family:Helvetica;font-size:20.00;">+ TaskState</text>
<polyline style="fill:none;stroke:black;" points="343,368 509,368 "/>
<text text-anchor="middle" x="426" y="391" style="font-family:Helvetica;font-size:20.00;"> </text>
</g>
<g id="node2" class="node"><title>Node2</title>
<polygon style="fill:none;stroke:#bfbfbf;" points="5,100 113,100 113,4 5,4 5,100"/>
<text text-anchor="middle" x="59" y="27" style="font-family:Helvetica;font-size:20.00;">rom char *</text>
<polyline style="fill:none;stroke:#bfbfbf;" points="5,36 113,36 "/>
<text text-anchor="middle" x="59" y="59" style="font-family:Helvetica;font-size:20.00;"> </text>
<polyline style="fill:none;stroke:#bfbfbf;" points="5,68 113,68 "/>
<text text-anchor="middle" x="59" y="91" style="font-family:Helvetica;font-size:20.00;"> </text>
</g>
<g id="edge2" class="edge"><title>Node2-&gt;Node1</title>
<path style="fill:none;stroke:#9832cd;stroke-dasharray:5,2;" d="M80,109C91,131 106,153 127,166 131,170 329,181 334,184 338,188 341,192 343,196"/>
<polygon style="fill:#9832cd;stroke:#9832cd;" points="76,100 76,111 77,103 80,109 77,103 84,107 76,100 76,100"/>
<text text-anchor="middle" x="189" y="149" style="font-family:Helvetica;font-size:20.00;">ErrorMessage</text>
</g>
<g id="node4" class="node"><title>Node3</title>
<polygon style="fill:none;stroke:#bfbfbf;" points="131,100 327,100 327,4 131,4 131,100"/>
<text text-anchor="middle" x="229" y="27" style="font-family:Helvetica;font-size:20.00;">enum _Zone_States</text>
<polyline style="fill:none;stroke:#bfbfbf;" points="131,36 327,36 "/>
<text text-anchor="middle" x="229" y="59" style="font-family:Helvetica;font-size:20.00;"> </text>
<polyline style="fill:none;stroke:#bfbfbf;" points="131,68 327,68 "/>
<text text-anchor="middle" x="229" y="91" style="font-family:Helvetica;font-size:20.00;"> </text>
</g>
<g id="edge4" class="edge"><title>Node3-&gt;Node1</title>
<path style="fill:none;stroke:#9832cd;stroke-dasharray:5,2;" d="M253,109C263,130 278,151 296,166 313,181 325,171 343,184"/>
<polygon style="fill:#9832cd;stroke:#9832cd;" points="248,100 249,111 249,103 253,109 249,103 257,107 248,100 248,100"/>
<text text-anchor="middle" x="362" y="149" style="font-family:Helvetica;font-size:20.00;">NewZoneState</text>
</g>
<g id="node6" class="node"><title>Node4</title>
<polygon style="fill:none;stroke:#bfbfbf;" points="345,100 532,100 532,4 345,4 345,100"/>
<text text-anchor="middle" x="438" y="27" style="font-family:Helvetica;font-size:20.00;">enum _TaskBuffers</text>
<polyline style="fill:none;stroke:#bfbfbf;" points="345,36 532,36 "/>
<text text-anchor="middle" x="438" y="59" style="font-family:Helvetica;font-size:20.00;"> </text>
<polyline style="fill:none;stroke:#bfbfbf;" points="345,68 532,68 "/>
<text text-anchor="middle" x="438" y="91" style="font-family:Helvetica;font-size:20.00;"> </text>
</g>
<g id="edge6" class="edge"><title>Node4-&gt;Node1</title>
<path style="fill:none;stroke:#9832cd;stroke-dasharray:5,2;" d="M436,110C434,132 433,158 431,184"/>
<polygon style="fill:#9832cd;stroke:#9832cd;" points="436,100 432,110 436,103 436,110 436,103 441,110 436,100 436,100"/>
<text text-anchor="middle" x="491" y="149" style="font-family:Helvetica;font-size:20.00;">TaskBuffered</text>
</g>
<g id="node8" class="node"><title>Node5</title>
<polygon style="fill:none;stroke:#bfbfbf;" points="560,100 597,100 597,4 560,4 560,100"/>
<text text-anchor="middle" x="578" y="27" style="font-family:Helvetica;font-size:20.00;">int</text>
<polyline style="fill:none;stroke:#bfbfbf;" points="560,36 597,36 "/>
<text text-anchor="middle" x="578" y="59" style="font-family:Helvetica;font-size:20.00;"> </text>
<polyline style="fill:none;stroke:#bfbfbf;" points="560,68 597,68 "/>
<text text-anchor="middle" x="578" y="91" style="font-family:Helvetica;font-size:20.00;"> </text>
</g>
<g id="edge8" class="edge"><title>Node5-&gt;Node1</title>
<path style="fill:none;stroke:#9832cd;stroke-dasharray:5,2;" d="M576,110C573,130 566,151 553,166 539,183 525,172 509,184"/>
<polygon style="fill:#9832cd;stroke:#9832cd;" points="577,100 572,110 577,103 576,110 577,103 580,110 577,100 577,100"/>
<text text-anchor="middle" x="616" y="149" style="font-family:Helvetica;font-size:20.00;">TaskState</text>
</g>
<g id="node10" class="node"><title>Node6</title>
<polygon style="fill:none;stroke:#bfbfbf;" points="639,100 763,100 763,4 639,4 639,100"/>
<text text-anchor="middle" x="701" y="27" style="font-family:Helvetica;font-size:20.00;">unsigned int</text>
<polyline style="fill:none;stroke:#bfbfbf;" points="639,36 763,36 "/>
<text text-anchor="middle" x="701" y="59" style="font-family:Helvetica;font-size:20.00;"> </text>
<polyline style="fill:none;stroke:#bfbfbf;" points="639,68 763,68 "/>
<text text-anchor="middle" x="701" y="91" style="font-family:Helvetica;font-size:20.00;"> </text>
</g>
<g id="edge10" class="edge"><title>Node6-&gt;Node1</title>
<path style="fill:none;stroke:#9832cd;stroke-dasharray:5,2;" d="M695,110C690,131 681,152 664,166 660,169 524,182 522,184 496,208 517,237 509,262"/>
<polygon style="fill:#9832cd;stroke:#9832cd;" points="697,100 691,109 696,103 695,110 696,103 699,111 697,100 697,100"/>
<text text-anchor="middle" x="755" y="137" style="font-family:Helvetica;font-size:20.00;">FlaggedZones</text>
<text text-anchor="middle" x="755" y="161" style="font-family:Helvetica;font-size:20.00;">FlaggedAreas</text>
</g>
</g>
</svg>
