<?xml version="1.0" encoding="UTF-8" standalone="no"?>
<!DOCTYPE svg PUBLIC "-//W3C//DTD SVG 1.0//EN"
 "http://www.w3.org/TR/2001/REC-SVG-20010904/DTD/svg10.dtd">
<!-- Generated by dot version 1.13 (v16) (Mon August 23, 2004)
     For user: (jarrodneven) Jarrod  Neven   Title: G    Pages: 1 -->
<svg width="475pt" height="912pt"
 viewBox = "-1 -1 474 911"
 xmlns="http://www.w3.org/2000/svg">
<g id="graph0" class="graph" style="font-family:Times-Roman;font-size:14.00;">
<title>G</title>
<g id="node1" class="node"><title>Node1</title>
<polygon style="fill:#bfbfbf;stroke:black;" points="24,904 267,904 267,400 24,400 24,904"/>
<text text-anchor="middle" x="145" y="423" style="font-family:Helvetica;font-size:20.00;">xPLConfigs</text>
<polyline style="fill:none;stroke:black;" points="24,432 267,432 "/>
<text text-anchor="start" x="31" y="455" style="font-family:Helvetica;font-size:20.00;">+ xPL_Heartbeat_Interval</text>
<text text-anchor="start" x="31" y="479" style="font-family:Helvetica;font-size:20.00;">+ xPL_My_Instance_ID</text>
<text text-anchor="start" x="31" y="503" style="font-family:Helvetica;font-size:20.00;">+ ExitDelay</text>
<text text-anchor="start" x="31" y="527" style="font-family:Helvetica;font-size:20.00;">+ EntryDelay</text>
<text text-anchor="start" x="31" y="551" style="font-family:Helvetica;font-size:20.00;">+ AlarmingDuration</text>
<text text-anchor="start" x="31" y="575" style="font-family:Helvetica;font-size:20.00;">+ Alarming24Duration</text>
<text text-anchor="start" x="31" y="599" style="font-family:Helvetica;font-size:20.00;">+ SirenDelay24h</text>
<text text-anchor="start" x="31" y="623" style="font-family:Helvetica;font-size:20.00;">+ SirenDelay</text>
<text text-anchor="start" x="31" y="647" style="font-family:Helvetica;font-size:20.00;">+ SMTP_To</text>
<text text-anchor="start" x="31" y="671" style="font-family:Helvetica;font-size:20.00;">+ SMTP_Server</text>
<text text-anchor="start" x="31" y="695" style="font-family:Helvetica;font-size:20.00;">+ SMTP_User</text>
<text text-anchor="start" x="31" y="719" style="font-family:Helvetica;font-size:20.00;">+ SMTP_Password</text>
<text text-anchor="start" x="31" y="743" style="font-family:Helvetica;font-size:20.00;">+ SMTP_Port</text>
<text text-anchor="start" x="31" y="767" style="font-family:Helvetica;font-size:20.00;">+ Use_AES</text>
<text text-anchor="start" x="31" y="791" style="font-family:Helvetica;font-size:20.00;">+ SMTP_Active</text>
<text text-anchor="start" x="31" y="815" style="font-family:Helvetica;font-size:20.00;">+ SMTP_OnlyInitalAlarm</text>
<text text-anchor="start" x="31" y="839" style="font-family:Helvetica;font-size:20.00;">+ SMTP_ArmDisarm</text>
<text text-anchor="start" x="31" y="863" style="font-family:Helvetica;font-size:20.00;">+ NTP_Server</text>
<polyline style="fill:none;stroke:black;" points="24,872 267,872 "/>
<text text-anchor="middle" x="145" y="895" style="font-family:Helvetica;font-size:20.00;"> </text>
</g>
<g id="node2" class="node"><title>Node2</title>
<polygon style="fill:none;stroke:#bfbfbf;" points="5,100 60,100 60,4 5,4 5,100"/>
<text text-anchor="middle" x="32" y="27" style="font-family:Helvetica;font-size:20.00;">char</text>
<polyline style="fill:none;stroke:#bfbfbf;" points="5,36 60,36 "/>
<text text-anchor="middle" x="32" y="59" style="font-family:Helvetica;font-size:20.00;"> </text>
<polyline style="fill:none;stroke:#bfbfbf;" points="5,68 60,68 "/>
<text text-anchor="middle" x="32" y="91" style="font-family:Helvetica;font-size:20.00;"> </text>
</g>
<g id="edge2" class="edge"><title>Node2-&gt;Node1</title>
<path style="fill:none;stroke:#9832cd;stroke-dasharray:5,2;" d="M30,110C27,177 28,289 46,382 47,388 49,394 50,400"/>
<polygon style="fill:#9832cd;stroke:#9832cd;" points="30,100 26,110 30,103 30,110 30,103 35,110 30,100 30,100"/>
<text text-anchor="middle" x="142" y="197" style="font-family:Helvetica;font-size:20.00;">SMTP_User</text>
<text text-anchor="middle" x="142" y="221" style="font-family:Helvetica;font-size:20.00;">xPL_My_Instance_ID</text>
<text text-anchor="middle" x="142" y="245" style="font-family:Helvetica;font-size:20.00;">NTP_Server</text>
<text text-anchor="middle" x="142" y="269" style="font-family:Helvetica;font-size:20.00;">SMTP_Password</text>
<text text-anchor="middle" x="142" y="293" style="font-family:Helvetica;font-size:20.00;">SMTP_To</text>
<text text-anchor="middle" x="142" y="317" style="font-family:Helvetica;font-size:20.00;">SMTP_Server</text>
</g>
<g id="node4" class="node"><title>Node3</title>
<polygon style="fill:none;stroke:#bfbfbf;" points="240,100 277,100 277,4 240,4 240,100"/>
<text text-anchor="middle" x="258" y="27" style="font-family:Helvetica;font-size:20.00;">int</text>
<polyline style="fill:none;stroke:#bfbfbf;" points="240,36 277,36 "/>
<text text-anchor="middle" x="258" y="59" style="font-family:Helvetica;font-size:20.00;"> </text>
<polyline style="fill:none;stroke:#bfbfbf;" points="240,68 277,68 "/>
<text text-anchor="middle" x="258" y="91" style="font-family:Helvetica;font-size:20.00;"> </text>
</g>
<g id="edge4" class="edge"><title>Node3-&gt;Node1</title>
<path style="fill:none;stroke:#9832cd;stroke-dasharray:5,2;" d="M257,110C255,191 250,332 240,382 239,388 238,394 236,400"/>
<polygon style="fill:#9832cd;stroke:#9832cd;" points="257,100 253,110 257,103 257,110 257,103 262,110 257,100 257,100"/>
<text text-anchor="middle" x="360" y="137" style="font-family:Helvetica;font-size:20.00;">SirenDelay</text>
<text text-anchor="middle" x="360" y="161" style="font-family:Helvetica;font-size:20.00;">ExitDelay</text>
<text text-anchor="middle" x="360" y="185" style="font-family:Helvetica;font-size:20.00;">xPL_Heartbeat_Interval</text>
<text text-anchor="middle" x="360" y="209" style="font-family:Helvetica;font-size:20.00;">SMTP_ArmDisarm</text>
<text text-anchor="middle" x="360" y="233" style="font-family:Helvetica;font-size:20.00;">SMTP_OnlyInitalAlarm</text>
<text text-anchor="middle" x="360" y="257" style="font-family:Helvetica;font-size:20.00;">Use_AES</text>
<text text-anchor="middle" x="360" y="281" style="font-family:Helvetica;font-size:20.00;">Alarming24Duration</text>
<text text-anchor="middle" x="360" y="305" style="font-family:Helvetica;font-size:20.00;">AlarmingDuration</text>
<text text-anchor="middle" x="360" y="329" style="font-family:Helvetica;font-size:20.00;">SMTP_Port</text>
<text text-anchor="middle" x="360" y="353" style="font-family:Helvetica;font-size:20.00;">SirenDelay24h</text>
<text text-anchor="middle" x="360" y="377" style="font-family:Helvetica;font-size:20.00;">...</text>
</g>
</g>
</svg>
