<?xml version="1.0" encoding="UTF-8" standalone="no"?>
<!DOCTYPE svg PUBLIC "-//W3C//DTD SVG 1.0//EN"
 "http://www.w3.org/TR/2001/REC-SVG-20010904/DTD/svg10.dtd">
<!-- Generated by dot version 1.13 (v16) (Mon August 23, 2004)
     For user: (jarrodneven) Jarrod  Neven   Title: G    Pages: 1 -->
<svg width="578pt" height="600pt"
 viewBox = "-1 -1 577 599"
 xmlns="http://www.w3.org/2000/svg">
<g id="graph0" class="graph" style="font-family:Times-Roman;font-size:14.00;">
<title>G</title>
<g id="node1" class="node"><title>Node1</title>
<polygon style="fill:#bfbfbf;stroke:black;" points="142,592 333,592 333,304 142,304 142,592"/>
<text text-anchor="middle" x="237" y="327" style="font-family:Helvetica;font-size:20.00;">AreaConfigs</text>
<polyline style="fill:none;stroke:black;" points="142,336 333,336 "/>
<text text-anchor="start" x="149" y="359" style="font-family:Helvetica;font-size:20.00;">+ IsTriggered</text>
<text text-anchor="start" x="149" y="383" style="font-family:Helvetica;font-size:20.00;">+ IsIsolated</text>
<text text-anchor="start" x="149" y="407" style="font-family:Helvetica;font-size:20.00;">+ IsBypassed</text>
<text text-anchor="start" x="149" y="431" style="font-family:Helvetica;font-size:20.00;">+ IsArmed</text>
<text text-anchor="start" x="149" y="455" style="font-family:Helvetica;font-size:20.00;">+ IsAlarmed</text>
<text text-anchor="start" x="149" y="479" style="font-family:Helvetica;font-size:20.00;">+ IsChangeFlagged</text>
<text text-anchor="start" x="149" y="503" style="font-family:Helvetica;font-size:20.00;">+ IsTampered</text>
<text text-anchor="start" x="149" y="527" style="font-family:Helvetica;font-size:20.00;">+ State</text>
<text text-anchor="start" x="149" y="551" style="font-family:Helvetica;font-size:20.00;">+ ZoneAlarmType</text>
<polyline style="fill:none;stroke:black;" points="142,560 333,560 "/>
<text text-anchor="middle" x="237" y="583" style="font-family:Helvetica;font-size:20.00;"> </text>
</g>
<g id="node2" class="node"><title>Node2</title>
<polygon style="fill:none;stroke:#bfbfbf;" points="5,100 201,100 201,4 5,4 5,100"/>
<text text-anchor="middle" x="103" y="27" style="font-family:Helvetica;font-size:20.00;">enum _Zone_States</text>
<polyline style="fill:none;stroke:#bfbfbf;" points="5,36 201,36 "/>
<text text-anchor="middle" x="103" y="59" style="font-family:Helvetica;font-size:20.00;"> </text>
<polyline style="fill:none;stroke:#bfbfbf;" points="5,68 201,68 "/>
<text text-anchor="middle" x="103" y="91" style="font-family:Helvetica;font-size:20.00;"> </text>
</g>
<g id="edge2" class="edge"><title>Node2-&gt;Node1</title>
<path style="fill:none;stroke:#9832cd;stroke-dasharray:5,2;" d="M122,110C139,161 165,236 188,304"/>
<polygon style="fill:#9832cd;stroke:#9832cd;" points="119,100 118,111 120,103 122,110 120,103 126,108 119,100 119,100"/>
<text text-anchor="middle" x="204" y="209" style="font-family:Helvetica;font-size:20.00;">State</text>
</g>
<g id="node4" class="node"><title>Node3</title>
<polygon style="fill:none;stroke:#bfbfbf;" points="219,100 256,100 256,4 219,4 219,100"/>
<text text-anchor="middle" x="237" y="27" style="font-family:Helvetica;font-size:20.00;">int</text>
<polyline style="fill:none;stroke:#bfbfbf;" points="219,36 256,36 "/>
<text text-anchor="middle" x="237" y="59" style="font-family:Helvetica;font-size:20.00;"> </text>
<polyline style="fill:none;stroke:#bfbfbf;" points="219,68 256,68 "/>
<text text-anchor="middle" x="237" y="91" style="font-family:Helvetica;font-size:20.00;"> </text>
</g>
<g id="edge4" class="edge"><title>Node3-&gt;Node1</title>
<path style="fill:none;stroke:#9832cd;stroke-dasharray:5,2;" d="M237,110C237,161 237,237 237,304"/>
<polygon style="fill:#9832cd;stroke:#9832cd;" points="237,100 233,110 237,103 237,110 237,103 242,110 237,100 237,100"/>
<text text-anchor="middle" x="315" y="137" style="font-family:Helvetica;font-size:20.00;">IsArmed</text>
<text text-anchor="middle" x="315" y="161" style="font-family:Helvetica;font-size:20.00;">IsTriggered</text>
<text text-anchor="middle" x="315" y="185" style="font-family:Helvetica;font-size:20.00;">IsAlarmed</text>
<text text-anchor="middle" x="315" y="209" style="font-family:Helvetica;font-size:20.00;">IsChangeFlagged</text>
<text text-anchor="middle" x="315" y="233" style="font-family:Helvetica;font-size:20.00;">IsBypassed</text>
<text text-anchor="middle" x="315" y="257" style="font-family:Helvetica;font-size:20.00;">IsTampered</text>
<text text-anchor="middle" x="315" y="281" style="font-family:Helvetica;font-size:20.00;">IsIsolated</text>
</g>
<g id="node6" class="node"><title>Node4</title>
<polygon style="fill:none;stroke:#bfbfbf;" points="336,100 524,100 524,4 336,4 336,100"/>
<text text-anchor="middle" x="430" y="27" style="font-family:Helvetica;font-size:20.00;">enum _AlarmTypes</text>
<polyline style="fill:none;stroke:#bfbfbf;" points="336,36 524,36 "/>
<text text-anchor="middle" x="430" y="59" style="font-family:Helvetica;font-size:20.00;"> </text>
<polyline style="fill:none;stroke:#bfbfbf;" points="336,68 524,68 "/>
<text text-anchor="middle" x="430" y="91" style="font-family:Helvetica;font-size:20.00;"> </text>
</g>
<g id="edge6" class="edge"><title>Node4-&gt;Node1</title>
<path style="fill:none;stroke:#9832cd;stroke-dasharray:5,2;" d="M429,110C427,172 420,260 398,286 378,309 357,287 333,304"/>
<polygon style="fill:#9832cd;stroke:#9832cd;" points="429,100 425,110 429,103 429,110 429,103 434,110 429,100 429,100"/>
<text text-anchor="middle" x="498" y="209" style="font-family:Helvetica;font-size:20.00;">ZoneAlarmType</text>
</g>
</g>
</svg>
