<?xml version="1.0" encoding="UTF-8" standalone="no"?>
<!DOCTYPE svg PUBLIC "-//W3C//DTD SVG 1.0//EN"
 "http://www.w3.org/TR/2001/REC-SVG-20010904/DTD/svg10.dtd" [
 <!ATTLIST svg xmlns:xlink CDATA #FIXED "http://www.w3.org/1999/xlink">
]>
<!-- Generated by dot version 1.13 (v16) (Mon August 23, 2004)
     For user: (jarrodneven) Jarrod  Neven   Title: G    Pages: 1 -->
<svg width="1317pt" height="660pt"
 viewBox = "-1 -1 1316 659"
 xmlns="http://www.w3.org/2000/svg" xmlns:xlink="http://www.w3.org/1999/xlink">
<g id="graph0" class="graph" style="font-family:Times-Roman;font-size:14.00;">
<title>G</title>
<g id="node1" class="node"><title>Node1</title>
<polygon style="fill:#bfbfbf;stroke:black;" points="787,652 1031,652 1031,460 787,460 787,652"/>
<text text-anchor="middle" x="909" y="483" style="font-family:Helvetica;font-size:20.00;">xPLTaskLists</text>
<polyline style="fill:none;stroke:black;" points="787,492 1031,492 "/>
<text text-anchor="start" x="795" y="515" style="font-family:Helvetica;font-size:20.00;">+ CurentTask</text>
<text text-anchor="start" x="795" y="539" style="font-family:Helvetica;font-size:20.00;">+ FreePosition</text>
<text text-anchor="start" x="795" y="563" style="font-family:Helvetica;font-size:20.00;">+ PositionCounter</text>
<text text-anchor="start" x="795" y="587" style="font-family:Helvetica;font-size:20.00;">+ GatewayChangedTimer</text>
<text text-anchor="start" x="795" y="611" style="font-family:Helvetica;font-size:20.00;">+ Task</text>
<polyline style="fill:none;stroke:black;" points="787,620 1031,620 "/>
<text text-anchor="middle" x="909" y="643" style="font-family:Helvetica;font-size:20.00;"> </text>
</g>
<g id="node2" class="node"><title>Node2</title>
<a xlink:href="structx_p_l_tasks.html" target="_top" xlink:title="Defines a task in the xPL messages to be transmitted task buffer.">
<polygon style="fill:none;stroke:black;" points="467,400 633,400 633,184 467,184 467,400"/>
<text text-anchor="middle" x="550" y="207" style="font-family:Helvetica;font-size:20.00;">xPLTasks</text>
<polyline style="fill:none;stroke:black;" points="467,216 633,216 "/>
<text text-anchor="start" x="475" y="239" style="font-family:Helvetica;font-size:20.00;">+ TaskBuffered</text>
<text text-anchor="start" x="475" y="263" style="font-family:Helvetica;font-size:20.00;">+ ErrorMessage</text>
<text text-anchor="start" x="475" y="287" style="font-family:Helvetica;font-size:20.00;">+ FlaggedZones</text>
<text text-anchor="start" x="475" y="311" style="font-family:Helvetica;font-size:20.00;">+ FlaggedAreas</text>
<text text-anchor="start" x="475" y="335" style="font-family:Helvetica;font-size:20.00;">+ NewZoneState</text>
<text text-anchor="start" x="475" y="359" style="font-family:Helvetica;font-size:20.00;">+ TaskState</text>
<polyline style="fill:none;stroke:black;" points="467,368 633,368 "/>
<text text-anchor="middle" x="550" y="391" style="font-family:Helvetica;font-size:20.00;"> </text>
</a>
</g>
<g id="edge2" class="edge"><title>Node2-&gt;Node1</title>
<path style="fill:none;stroke:#9832cd;stroke-dasharray:5,2;" d="M641,406C695,443 727,426 787,460"/>
<polygon style="fill:#9832cd;stroke:#9832cd;" points="633,400 638,410 635,402 641,406 635,402 644,402 633,400 633,400"/>
<text text-anchor="middle" x="765" y="437" style="font-family:Helvetica;font-size:20.00;">Task</text>
</g>
<g id="node4" class="node"><title>Node3</title>
<polygon style="fill:none;stroke:#bfbfbf;" points="423,100 531,100 531,4 423,4 423,100"/>
<text text-anchor="middle" x="477" y="27" style="font-family:Helvetica;font-size:20.00;">rom char *</text>
<polyline style="fill:none;stroke:#bfbfbf;" points="423,36 531,36 "/>
<text text-anchor="middle" x="477" y="59" style="font-family:Helvetica;font-size:20.00;"> </text>
<polyline style="fill:none;stroke:#bfbfbf;" points="423,68 531,68 "/>
<text text-anchor="middle" x="477" y="91" style="font-family:Helvetica;font-size:20.00;"> </text>
</g>
<g id="edge4" class="edge"><title>Node3-&gt;Node2</title>
<path style="fill:none;stroke:#9832cd;stroke-dasharray:5,2;" d="M476,110C477,128 479,148 484,166 486,172 488,178 490,184"/>
<polygon style="fill:#9832cd;stroke:#9832cd;" points="476,100 472,110 476,103 476,110 476,103 481,110 476,100 476,100"/>
<text text-anchor="middle" x="547" y="149" style="font-family:Helvetica;font-size:20.00;">ErrorMessage</text>
</g>
<g id="node6" class="node"><title>Node4</title>
<polygon style="fill:none;stroke:#bfbfbf;" points="5,100 201,100 201,4 5,4 5,100"/>
<text text-anchor="middle" x="103" y="27" style="font-family:Helvetica;font-size:20.00;">enum _Zone_States</text>
<polyline style="fill:none;stroke:#bfbfbf;" points="5,36 201,36 "/>
<text text-anchor="middle" x="103" y="59" style="font-family:Helvetica;font-size:20.00;"> </text>
<polyline style="fill:none;stroke:#bfbfbf;" points="5,68 201,68 "/>
<text text-anchor="middle" x="103" y="91" style="font-family:Helvetica;font-size:20.00;"> </text>
</g>
<g id="edge6" class="edge"><title>Node4-&gt;Node2</title>
<path style="fill:none;stroke:#9832cd;stroke-dasharray:5,2;" d="M133,109C147,130 166,153 190,166 228,187 340,180 382,182 389,183 434,182 439,184 474,202 454,236 467,264"/>
<polygon style="fill:#9832cd;stroke:#9832cd;" points="127,100 129,111 129,102 133,108 129,102 136,106 127,100 127,100"/>
<text text-anchor="middle" x="257" y="149" style="font-family:Helvetica;font-size:20.00;">NewZoneState</text>
</g>
<g id="node8" class="node"><title>Node5</title>
<polygon style="fill:none;stroke:#bfbfbf;" points="219,100 406,100 406,4 219,4 219,100"/>
<text text-anchor="middle" x="312" y="27" style="font-family:Helvetica;font-size:20.00;">enum _TaskBuffers</text>
<polyline style="fill:none;stroke:#bfbfbf;" points="219,36 406,36 "/>
<text text-anchor="middle" x="312" y="59" style="font-family:Helvetica;font-size:20.00;"> </text>
<polyline style="fill:none;stroke:#bfbfbf;" points="219,68 406,68 "/>
<text text-anchor="middle" x="312" y="91" style="font-family:Helvetica;font-size:20.00;"> </text>
</g>
<g id="edge8" class="edge"><title>Node5-&gt;Node2</title>
<path style="fill:none;stroke:#9832cd;stroke-dasharray:5,2;" d="M323,110C330,131 341,152 358,166 397,197 432,151 467,184"/>
<polygon style="fill:#9832cd;stroke:#9832cd;" points="320,100 319,111 321,103 323,110 321,103 327,108 320,100 320,100"/>
<text text-anchor="middle" x="417" y="149" style="font-family:Helvetica;font-size:20.00;">TaskBuffered</text>
</g>
<g id="node10" class="node"><title>Node6</title>
<polygon style="fill:none;stroke:#bfbfbf;" points="833,100 870,100 870,4 833,4 833,100"/>
<text text-anchor="middle" x="851" y="27" style="font-family:Helvetica;font-size:20.00;">int</text>
<polyline style="fill:none;stroke:#bfbfbf;" points="833,36 870,36 "/>
<text text-anchor="middle" x="851" y="59" style="font-family:Helvetica;font-size:20.00;"> </text>
<polyline style="fill:none;stroke:#bfbfbf;" points="833,68 870,68 "/>
<text text-anchor="middle" x="851" y="91" style="font-family:Helvetica;font-size:20.00;"> </text>
</g>
<g id="edge14" class="edge"><title>Node6-&gt;Node1</title>
<path style="fill:none;stroke:#9832cd;stroke-dasharray:5,2;" d="M878,106C886,110 894,108 899,118 916,147 914,340 912,460"/>
<polygon style="fill:#9832cd;stroke:#9832cd;" points="870,100 875,110 872,102 878,106 872,102 881,102 870,100 870,100"/>
<text text-anchor="middle" x="986" y="275" style="font-family:Helvetica;font-size:20.00;">CurentTask</text>
<text text-anchor="middle" x="986" y="299" style="font-family:Helvetica;font-size:20.00;">FreePosition</text>
<text text-anchor="middle" x="986" y="323" style="font-family:Helvetica;font-size:20.00;">PositionCounter</text>
</g>
<g id="edge10" class="edge"><title>Node6-&gt;Node2</title>
<path style="fill:none;stroke:#9832cd;stroke-dasharray:5,2;" d="M826,108C821,111 815,113 808,118 784,138 786,153 757,166 707,191 675,148 633,184"/>
<polygon style="fill:#9832cd;stroke:#9832cd;" points="833,101 823,105 831,103 826,108 831,103 829,111 833,101 833,101"/>
<text text-anchor="middle" x="858" y="149" style="font-family:Helvetica;font-size:20.00;">TaskState</text>
</g>
<g id="node12" class="node"><title>Node7</title>
<polygon style="fill:none;stroke:#bfbfbf;" points="569,100 693,100 693,4 569,4 569,100"/>
<text text-anchor="middle" x="631" y="27" style="font-family:Helvetica;font-size:20.00;">unsigned int</text>
<polyline style="fill:none;stroke:#bfbfbf;" points="569,36 693,36 "/>
<text text-anchor="middle" x="631" y="59" style="font-family:Helvetica;font-size:20.00;"> </text>
<polyline style="fill:none;stroke:#bfbfbf;" points="569,68 693,68 "/>
<text text-anchor="middle" x="631" y="91" style="font-family:Helvetica;font-size:20.00;"> </text>
</g>
<g id="edge12" class="edge"><title>Node7-&gt;Node2</title>
<path style="fill:none;stroke:#9832cd;stroke-dasharray:5,2;" d="M626,110C623,128 619,148 613,166 611,172 609,178 607,184"/>
<polygon style="fill:#9832cd;stroke:#9832cd;" points="627,100 622,110 627,103 626,110 627,103 630,110 627,100 627,100"/>
<text text-anchor="middle" x="690" y="137" style="font-family:Helvetica;font-size:20.00;">FlaggedZones</text>
<text text-anchor="middle" x="690" y="161" style="font-family:Helvetica;font-size:20.00;">FlaggedAreas</text>
</g>
<g id="node15" class="node"><title>Node8</title>
<polygon style="fill:none;stroke:#bfbfbf;" points="1069,340 1131,340 1131,244 1069,244 1069,340"/>
<text text-anchor="middle" x="1100" y="267" style="font-family:Helvetica;font-size:20.00;">TICK</text>
<polyline style="fill:none;stroke:#bfbfbf;" points="1069,276 1131,276 "/>
<text text-anchor="middle" x="1100" y="299" style="font-family:Helvetica;font-size:20.00;"> </text>
<polyline style="fill:none;stroke:#bfbfbf;" points="1069,308 1131,308 "/>
<text text-anchor="middle" x="1100" y="331" style="font-family:Helvetica;font-size:20.00;"> </text>
</g>
<g id="edge16" class="edge"><title>Node8-&gt;Node1</title>
<path style="fill:none;stroke:#9832cd;stroke-dasharray:5,2;" d="M1089,350C1085,367 1078,385 1069,400 1056,421 1040,441 1023,460"/>
<polygon style="fill:#9832cd;stroke:#9832cd;" points="1092,340 1085,348 1091,343 1089,350 1091,343 1093,351 1092,340 1092,340"/>
<text text-anchor="middle" x="1162" y="437" style="font-family:Helvetica;font-size:20.00;">GatewayChangedTimer</text>
</g>
</g>
</svg>
