<?xml version="1.0" encoding="UTF-8" standalone="no"?>
<!DOCTYPE svg PUBLIC "-//W3C//DTD SVG 1.0//EN"
 "http://www.w3.org/TR/2001/REC-SVG-20010904/DTD/svg10.dtd">
<!-- Generated by dot version 1.13 (v16) (Mon August 23, 2004)
     For user: (jarrodneven) Jarrod  Neven   Title: G    Pages: 1 -->
<svg width="1256pt" height="456pt"
 viewBox = "-1 -1 1255 455"
 xmlns="http://www.w3.org/2000/svg">
<g id="graph0" class="graph" style="font-family:Times-Roman;font-size:14.00;">
<title>G</title>
<g id="node1" class="node"><title>Node1</title>
<polygon style="fill:#bfbfbf;stroke:black;" points="386,448 611,448 611,208 386,208 386,448"/>
<text text-anchor="middle" x="498" y="231" style="font-family:Helvetica;font-size:20.00;">xPLReceivedMessages</text>
<polyline style="fill:none;stroke:black;" points="386,240 611,240 "/>
<text text-anchor="start" x="394" y="263" style="font-family:Helvetica;font-size:20.00;">+ xPL_MessageType</text>
<text text-anchor="start" x="394" y="287" style="font-family:Helvetica;font-size:20.00;">+ xPL_MsgDestination</text>
<text text-anchor="start" x="394" y="311" style="font-family:Helvetica;font-size:20.00;">+ xPL_SchemaClass</text>
<text text-anchor="start" x="394" y="335" style="font-family:Helvetica;font-size:20.00;">+ xPL_SchemaTypes</text>
<text text-anchor="start" x="394" y="359" style="font-family:Helvetica;font-size:20.00;">+ SourceVendor</text>
<text text-anchor="start" x="394" y="383" style="font-family:Helvetica;font-size:20.00;">+ SourceDeviceID</text>
<text text-anchor="start" x="394" y="407" style="font-family:Helvetica;font-size:20.00;">+ SourceInstanceID</text>
<polyline style="fill:none;stroke:black;" points="386,416 611,416 "/>
<text text-anchor="middle" x="498" y="439" style="font-family:Helvetica;font-size:20.00;"> </text>
</g>
<g id="node2" class="node"><title>Node2</title>
<polygon style="fill:none;stroke:#bfbfbf;" points="5,100 60,100 60,4 5,4 5,100"/>
<text text-anchor="middle" x="32" y="27" style="font-family:Helvetica;font-size:20.00;">char</text>
<polyline style="fill:none;stroke:#bfbfbf;" points="5,36 60,36 "/>
<text text-anchor="middle" x="32" y="59" style="font-family:Helvetica;font-size:20.00;"> </text>
<polyline style="fill:none;stroke:#bfbfbf;" points="5,68 60,68 "/>
<text text-anchor="middle" x="32" y="91" style="font-family:Helvetica;font-size:20.00;"> </text>
</g>
<g id="edge2" class="edge"><title>Node2-&gt;Node1</title>
<path style="fill:none;stroke:#9832cd;stroke-dasharray:5,2;" d="M43,110C51,139 66,172 92,190 96,193 372,206 375,208 380,213 384,218 386,223"/>
<polygon style="fill:#9832cd;stroke:#9832cd;" points="40,100 39,111 41,103 43,110 41,103 47,108 40,100 40,100"/>
<text text-anchor="middle" x="172" y="137" style="font-family:Helvetica;font-size:20.00;">SourceInstanceID</text>
<text text-anchor="middle" x="172" y="161" style="font-family:Helvetica;font-size:20.00;">SourceVendor</text>
<text text-anchor="middle" x="172" y="185" style="font-family:Helvetica;font-size:20.00;">SourceDeviceID</text>
</g>
<g id="node4" class="node"><title>Node3</title>
<polygon style="fill:none;stroke:#bfbfbf;" points="86,100 348,100 348,4 86,4 86,100"/>
<text text-anchor="middle" x="217" y="27" style="font-family:Helvetica;font-size:20.00;">enum _xPL_SchemaClasss</text>
<polyline style="fill:none;stroke:#bfbfbf;" points="86,36 348,36 "/>
<text text-anchor="middle" x="217" y="59" style="font-family:Helvetica;font-size:20.00;"> </text>
<polyline style="fill:none;stroke:#bfbfbf;" points="86,68 348,68 "/>
<text text-anchor="middle" x="217" y="91" style="font-family:Helvetica;font-size:20.00;"> </text>
</g>
<g id="edge4" class="edge"><title>Node3-&gt;Node1</title>
<path style="fill:none;stroke:#9832cd;stroke-dasharray:5,2;" d="M250,109C268,137 295,169 326,190 349,206 362,194 386,208"/>
<polygon style="fill:#9832cd;stroke:#9832cd;" points="244,100 246,111 246,102 250,108 246,102 253,106 244,100 244,100"/>
<text text-anchor="middle" x="410" y="161" style="font-family:Helvetica;font-size:20.00;">xPL_SchemaClass</text>
</g>
<g id="node6" class="node"><title>Node4</title>
<polygon style="fill:none;stroke:#bfbfbf;" points="366,100 631,100 631,4 366,4 366,100"/>
<text text-anchor="middle" x="498" y="27" style="font-family:Helvetica;font-size:20.00;">enum _xPL_SchemaTypess</text>
<polyline style="fill:none;stroke:#bfbfbf;" points="366,36 631,36 "/>
<text text-anchor="middle" x="498" y="59" style="font-family:Helvetica;font-size:20.00;"> </text>
<polyline style="fill:none;stroke:#bfbfbf;" points="366,68 631,68 "/>
<text text-anchor="middle" x="498" y="91" style="font-family:Helvetica;font-size:20.00;"> </text>
</g>
<g id="edge6" class="edge"><title>Node4-&gt;Node1</title>
<path style="fill:none;stroke:#9832cd;stroke-dasharray:5,2;" d="M498,110C498,139 498,174 498,208"/>
<polygon style="fill:#9832cd;stroke:#9832cd;" points="498,100 494,110 498,103 498,110 498,103 503,110 498,100 498,100"/>
<text text-anchor="middle" x="584" y="161" style="font-family:Helvetica;font-size:20.00;">xPL_SchemaTypes</text>
</g>
<g id="node8" class="node"><title>Node5</title>
<polygon style="fill:none;stroke:#bfbfbf;" points="648,100 911,100 911,4 648,4 648,100"/>
<text text-anchor="middle" x="779" y="27" style="font-family:Helvetica;font-size:20.00;">enum _xPL_MessageTypes</text>
<polyline style="fill:none;stroke:#bfbfbf;" points="648,36 911,36 "/>
<text text-anchor="middle" x="779" y="59" style="font-family:Helvetica;font-size:20.00;"> </text>
<polyline style="fill:none;stroke:#bfbfbf;" points="648,68 911,68 "/>
<text text-anchor="middle" x="779" y="91" style="font-family:Helvetica;font-size:20.00;"> </text>
</g>
<g id="edge8" class="edge"><title>Node5-&gt;Node1</title>
<path style="fill:none;stroke:#9832cd;stroke-dasharray:5,2;" d="M748,109C730,137 704,169 674,190 649,207 635,193 611,208"/>
<polygon style="fill:#9832cd;stroke:#9832cd;" points="753,100 744,107 752,103 748,109 752,103 752,111 753,100 753,100"/>
<text text-anchor="middle" x="826" y="161" style="font-family:Helvetica;font-size:20.00;">xPL_MessageType</text>
</g>
<g id="node10" class="node"><title>Node6</title>
<polygon style="fill:none;stroke:#bfbfbf;" points="928,100 1204,100 1204,4 928,4 928,100"/>
<text text-anchor="middle" x="1066" y="27" style="font-family:Helvetica;font-size:20.00;">enum _xPL_MsgDestinations</text>
<polyline style="fill:none;stroke:#bfbfbf;" points="928,36 1204,36 "/>
<text text-anchor="middle" x="1066" y="59" style="font-family:Helvetica;font-size:20.00;"> </text>
<polyline style="fill:none;stroke:#bfbfbf;" points="928,68 1204,68 "/>
<text text-anchor="middle" x="1066" y="91" style="font-family:Helvetica;font-size:20.00;"> </text>
</g>
<g id="edge10" class="edge"><title>Node6-&gt;Node1</title>
<path style="fill:none;stroke:#9832cd;stroke-dasharray:5,2;" d="M1021,108C995,138 956,172 915,190 911,192 630,206 627,208 594,234 623,269 611,298"/>
<polygon style="fill:#9832cd;stroke:#9832cd;" points="1028,100 1018,105 1026,102 1021,108 1026,102 1025,110 1028,100 1028,100"/>
<text text-anchor="middle" x="1103" y="161" style="font-family:Helvetica;font-size:20.00;">xPL_MsgDestination</text>
</g>
</g>
</svg>
