<?xml version="1.0" encoding="UTF-8" standalone="no"?>
<!DOCTYPE svg PUBLIC "-//W3C//DTD SVG 1.0//EN"
 "http://www.w3.org/TR/2001/REC-SVG-20010904/DTD/svg10.dtd" [
 <!ATTLIST svg xmlns:xlink CDATA #FIXED "http://www.w3.org/1999/xlink">
]>
<!-- Generated by dot version 1.13 (v16) (Mon August 23, 2004)
     For user: (jarrodneven) Jarrod  Neven   Title: G    Pages: 1 -->
<svg width="1380pt" height="1268pt"
 viewBox = "-1 -1 1379 1267"
 xmlns="http://www.w3.org/2000/svg" xmlns:xlink="http://www.w3.org/1999/xlink">
<g id="graph0" class="graph" style="font-family:Times-Roman;font-size:14.00;">
<title>G</title>
<g id="node1" class="node"><title>Node1</title>
<polygon style="fill:#bfbfbf;stroke:black;" points="5,628 119,628 119,596 5,596 5,628"/>
<text text-anchor="middle" x="62" y="619" style="font-family:Helvetica;font-size:20.00;">XPLSendHeader</text>
</g>
<g id="node3" class="node"><title>Node2</title>
<a xlink:href="_security_system_8h.html#a6ff589f01cb93ce6c97ab0af6405d0df" target="_top" xlink:title="bypassArea">
<polygon style="fill:none;stroke:black;" points="217,36 339,36 339,4 217,4 217,36"/>
<text text-anchor="middle" x="278" y="27" style="font-family:Helvetica;font-size:20.00;">bypassArea</text>
</a>
</g>
<g id="edge2" class="edge"><title>Node1-&gt;Node2</title>
<path style="fill:none;stroke:midnightblue;" d="M125,588C191,480 72,126 155,36 171,20 194,14 217,13"/>
<polygon style="fill:midnightblue;stroke:midnightblue;" points="128,590 119,596 122,586 128,590"/>
</g>
<g id="node5" class="node"><title>Node3</title>
<a xlink:href="_security_system_8h.html#ab3be31caf1027bb142335a3a3d7d4eb1" target="_top" xlink:title="bypassZone">
<polygon style="fill:none;stroke:black;" points="740,244 865,244 865,212 740,212 740,244"/>
<text text-anchor="middle" x="802" y="235" style="font-family:Helvetica;font-size:20.00;">bypassZone</text>
</a>
</g>
<g id="edge4" class="edge"><title>Node1-&gt;Node3</title>
<path style="fill:none;stroke:midnightblue;" d="M84,591C100,583 113,588 127,571 134,565 133,561 135,552 143,530 145,524 147,500 151,474 150,468 151,441 152,435 151,323 155,317 228,228 592,224 740,226"/>
<polygon style="fill:midnightblue;stroke:midnightblue;" points="85,594 75,596 82,588 85,594"/>
</g>
<g id="node13" class="node"><title>Node7</title>
<a xlink:href="_security_system_8h.html#a4c1402940dc136f20f757edb09c73e28" target="_top" xlink:title="EnableArea">
<polygon style="fill:none;stroke:black;" points="218,124 339,124 339,92 218,92 218,124"/>
<text text-anchor="middle" x="278" y="115" style="font-family:Helvetica;font-size:20.00;">EnableArea</text>
</a>
</g>
<g id="edge12" class="edge"><title>Node1-&gt;Node7</title>
<path style="fill:none;stroke:midnightblue;" d="M125,588C180,495 85,199 155,124 171,107 195,102 218,101"/>
<polygon style="fill:midnightblue;stroke:midnightblue;" points="128,590 119,596 122,586 128,590"/>
</g>
<g id="node15" class="node"><title>Node8</title>
<a xlink:href="_security_system_8h.html#a14eb903eaa706a4874267274a2ffc6fa" target="_top" xlink:title="EnableZone">
<polygon style="fill:none;stroke:black;" points="492,288 616,288 616,256 492,256 492,288"/>
<text text-anchor="middle" x="554" y="279" style="font-family:Helvetica;font-size:20.00;">EnableZone</text>
</a>
</g>
<g id="edge14" class="edge"><title>Node1-&gt;Node8</title>
<path style="fill:none;stroke:midnightblue;" d="M86,592C97,588 106,589 119,580 136,570 134,560 139,541 144,526 145,522 147,506 150,491 150,487 151,470 152,466 153,318 155,314 199,267 391,266 492,269"/>
<polygon style="fill:midnightblue;stroke:midnightblue;" points="88,595 77,596 85,589 88,595"/>
</g>
<g id="node18" class="node"><title>Node9</title>
<a xlink:href="_security_system_8h.html#a3e1f7b8c937f29b73398bb3ad54743c4" target="_top" xlink:title="IsolateArea">
<polygon style="fill:none;stroke:black;" points="220,224 337,224 337,192 220,192 220,224"/>
<text text-anchor="middle" x="278" y="215" style="font-family:Helvetica;font-size:20.00;">IsolateArea</text>
</a>
</g>
<g id="edge18" class="edge"><title>Node1-&gt;Node9</title>
<path style="fill:none;stroke:midnightblue;" d="M125,588C167,513 100,282 155,224 172,207 197,202 220,201"/>
<polygon style="fill:midnightblue;stroke:midnightblue;" points="128,590 119,596 122,586 128,590"/>
</g>
<g id="node20" class="node"><title>Node10</title>
<a xlink:href="_security_system_8h.html#aa58e855f239c14c2cfc32dcfa244d31f" target="_top" xlink:title="IsolateZone">
<polygon style="fill:none;stroke:black;" points="742,332 863,332 863,300 742,300 742,332"/>
<text text-anchor="middle" x="802" y="323" style="font-family:Helvetica;font-size:20.00;">IsolateZone</text>
</a>
</g>
<g id="edge20" class="edge"><title>Node1-&gt;Node10</title>
<path style="fill:none;stroke:midnightblue;" d="M92,594C101,592 109,592 119,583 132,574 130,567 135,552 143,532 145,526 147,504 151,478 150,472 151,445 152,441 153,372 155,368 195,326 589,318 742,316"/>
<polygon style="fill:midnightblue;stroke:midnightblue;" points="92,597 82,596 91,591 92,597"/>
</g>
<g id="node23" class="node"><title>Node11</title>
<a xlink:href="_security_x_p_l_sender_8c.html#aa79f220fe412930dbbe86acd8e506f48" target="_top" xlink:title="SendACStat">
<polygon style="fill:none;stroke:black;" points="491,376 617,376 617,344 491,344 491,376"/>
<text text-anchor="middle" x="554" y="367" style="font-family:Helvetica;font-size:20.00;">SendACStat</text>
</a>
</g>
<g id="edge24" class="edge"><title>Node1-&gt;Node11</title>
<path style="fill:none;stroke:midnightblue;" d="M88,594C98,593 107,596 119,587 130,580 130,575 135,562 140,551 140,548 143,535 147,522 149,519 151,505 152,499 151,395 155,390 200,343 390,349 491,355"/>
<polygon style="fill:midnightblue;stroke:midnightblue;" points="88,597 78,596 87,591 88,597"/>
</g>
<g id="node26" class="node"><title>Node12</title>
<a xlink:href="_security_x_p_l_sender_8c.html#ae9e6733b7fed738a76787f01762bb284" target="_top" xlink:title="SendAlarmingMsg">
<polygon style="fill:none;stroke:black;" points="189,716 368,716 368,684 189,684 189,716"/>
<text text-anchor="middle" x="278" y="707" style="font-family:Helvetica;font-size:20.00;">SendAlarmingMsg</text>
</a>
</g>
<g id="edge28" class="edge"><title>Node1-&gt;Node12</title>
<path style="fill:none;stroke:midnightblue;" d="M126,635C141,652 134,671 155,684 165,691 177,695 189,698"/>
<polygon style="fill:midnightblue;stroke:midnightblue;" points="124,638 119,628 129,633 124,638"/>
</g>
<g id="node34" class="node"><title>Node15</title>
<a xlink:href="_security_x_p_l_sender_8c.html#acdb6126b5578c4ca8c06d5343a7b37df" target="_top" xlink:title="SendAreaInfo">
<polygon style="fill:none;stroke:black;" points="733,420 871,420 871,388 733,388 733,420"/>
<text text-anchor="middle" x="802" y="411" style="font-family:Helvetica;font-size:20.00;">SendAreaInfo</text>
</a>
</g>
<g id="edge38" class="edge"><title>Node1-&gt;Node15</title>
<path style="fill:none;stroke:midnightblue;" d="M95,592C103,590 110,588 119,580 124,577 124,575 127,570 147,540 147,528 151,492 152,488 152,454 155,450 196,411 575,405 733,404"/>
<polygon style="fill:midnightblue;stroke:midnightblue;" points="97,595 86,596 94,589 97,595"/>
</g>
<g id="node37" class="node"><title>Node16</title>
<a xlink:href="_security_x_p_l_sender_8c.html#a43dbd62169c9f83be3663dc435e232c7" target="_top" xlink:title="SendAreaList">
<polygon style="fill:none;stroke:black;" points="734,470 870,470 870,438 734,438 734,470"/>
<text text-anchor="middle" x="802" y="461" style="font-family:Helvetica;font-size:20.00;">SendAreaList</text>
</a>
</g>
<g id="edge42" class="edge"><title>Node1-&gt;Node16</title>
<path style="fill:none;stroke:midnightblue;" d="M98,593C108,591 117,589 127,577 138,566 148,525 151,509 154,500 148,495 155,488 238,413 585,434 734,447"/>
<polygon style="fill:midnightblue;stroke:midnightblue;" points="99,596 88,596 97,590 99,596"/>
</g>
<g id="node40" class="node"><title>Node17</title>
<a xlink:href="_security_x_p_l_sender_8c.html#a5d91f06e22d49f6ecee37802e866e0e6" target="_top" xlink:title="SendAreaStat">
<polygon style="fill:none;stroke:black;" points="484,502 625,502 625,470 484,470 484,502"/>
<text text-anchor="middle" x="554" y="493" style="font-family:Helvetica;font-size:20.00;">SendAreaStat</text>
</a>
</g>
<g id="edge46" class="edge"><title>Node1-&gt;Node17</title>
<path style="fill:none;stroke:midnightblue;" d="M88,593C102,591 113,596 127,583 132,579 133,577 135,571 138,566 150,520 155,516 205,479 383,479 484,483"/>
<polygon style="fill:midnightblue;stroke:midnightblue;" points="89,596 78,596 87,590 89,596"/>
</g>
<g id="node43" class="node"><title>Node18</title>
<a xlink:href="_security_x_p_l_sender_8c.html#ae77b19bae92f6c64f9a58f722b4bf193" target="_top" xlink:title="SendAreaStateMsg">
<polygon style="fill:none;stroke:black;" points="708,558 897,558 897,526 708,526 708,558"/>
<text text-anchor="middle" x="802" y="549" style="font-family:Helvetica;font-size:20.00;">SendAreaStateMsg</text>
</a>
</g>
<g id="edge50" class="edge"><title>Node1-&gt;Node18</title>
<path style="fill:none;stroke:midnightblue;" d="M97,594C103,593 110,593 119,588 137,581 138,573 155,567 345,510 580,520 708,531"/>
<polygon style="fill:midnightblue;stroke:midnightblue;" points="97,597 87,596 96,591 97,597"/>
</g>
<g id="node46" class="node"><title>Node19</title>
<a xlink:href="_security_x_p_l_sender_8c.html#ae049c3724d5bacc955f50f724483ed91" target="_top" xlink:title="SendArmed">
<polygon style="fill:none;stroke:black;" points="493,590 615,590 615,558 493,558 493,590"/>
<text text-anchor="middle" x="554" y="581" style="font-family:Helvetica;font-size:20.00;">SendArmed</text>
</a>
</g>
<g id="edge54" class="edge"><title>Node1-&gt;Node19</title>
<path style="fill:none;stroke:midnightblue;" d="M125,593C135,591 145,588 155,587 274,569 414,570 493,572"/>
<polygon style="fill:midnightblue;stroke:midnightblue;" points="126,596 115,596 124,590 126,596"/>
</g>
<g id="node49" class="node"><title>Node20</title>
<a xlink:href="_security_x_p_l_sender_8c.html#a80218fda4a4753b2d214453e14b400ff" target="_top" xlink:title="SendBatteryStat">
<polygon style="fill:none;stroke:black;" points="721,646 883,646 883,614 721,614 721,646"/>
<text text-anchor="middle" x="802" y="637" style="font-family:Helvetica;font-size:20.00;">SendBatteryStat</text>
</a>
</g>
<g id="edge58" class="edge"><title>Node1-&gt;Node20</title>
<path style="fill:none;stroke:midnightblue;" d="M121,631C132,633 144,635 155,637 210,645 560,636 721,632"/>
<polygon style="fill:midnightblue;stroke:midnightblue;" points="120,634 111,628 122,628 120,634"/>
</g>
<g id="node52" class="node"><title>Node21</title>
<a xlink:href="_security_x_p_l_sender_8c.html#a729b2eb0275e2affcdf87121b20125fc" target="_top" xlink:title="SendConfigCurrent">
<polygon style="fill:none;stroke:black;" points="185,628 372,628 372,596 185,596 185,628"/>
<text text-anchor="middle" x="278" y="619" style="font-family:Helvetica;font-size:20.00;">SendConfigCurrent</text>
</a>
</g>
<g id="edge62" class="edge"><title>Node1-&gt;Node21</title>
<path style="fill:none;stroke:midnightblue;" d="M129,612C147,612 166,612 185,612"/>
<polygon style="fill:midnightblue;stroke:midnightblue;" points="129,615 119,612 129,608 129,615"/>
</g>
<g id="node54" class="node"><title>Node22</title>
<a xlink:href="_security_x_p_l_sender_8c.html#a07582d84515caf26cd22e534fd29f378" target="_top" xlink:title="SendConfigList">
<polygon style="fill:none;stroke:black;" points="478,816 630,816 630,784 478,784 478,816"/>
<text text-anchor="middle" x="554" y="807" style="font-family:Helvetica;font-size:20.00;">SendConfigList</text>
</a>
</g>
<g id="edge64" class="edge"><title>Node1-&gt;Node22</title>
<path style="fill:none;stroke:midnightblue;" d="M81,634C97,641 108,635 123,645 129,649 128,651 131,656 146,679 147,687 151,713 152,719 151,762 155,766 199,810 375,810 478,805"/>
<polygon style="fill:midnightblue;stroke:midnightblue;" points="78,636 72,628 82,631 78,636"/>
</g>
<g id="node57" class="node"><title>Node23</title>
<a xlink:href="_security_x_p_l_sender_8c.html#af1800c287b83d40961f39fcd9a751322" target="_top" xlink:title="SendDisarm">
<polygon style="fill:none;stroke:black;" points="739,823 865,823 865,791 739,791 739,823"/>
<text text-anchor="middle" x="802" y="814" style="font-family:Helvetica;font-size:20.00;">SendDisarm</text>
</a>
</g>
<g id="edge68" class="edge"><title>Node1-&gt;Node23</title>
<path style="fill:none;stroke:midnightblue;" d="M83,634C98,642 108,639 123,652 131,659 131,661 135,669 143,682 144,686 147,700 150,710 150,712 151,721 152,727 152,810 155,813 237,895 557,833 671,825 693,823 717,821 739,817"/>
<polygon style="fill:midnightblue;stroke:midnightblue;" points="81,637 75,628 85,631 81,637"/>
</g>
<g id="node60" class="node"><title>Node24</title>
<a xlink:href="_security_x_p_l_sender_8c.html#ab29cace49ca20af0048aac94e64c10dd" target="_top" xlink:title="SendError">
<polygon style="fill:none;stroke:black;" points="501,904 608,904 608,872 501,872 501,904"/>
<text text-anchor="middle" x="554" y="895" style="font-family:Helvetica;font-size:20.00;">SendError</text>
</a>
</g>
<g id="edge72" class="edge"><title>Node1-&gt;Node24</title>
<path style="fill:none;stroke:midnightblue;" d="M79,634C96,643 107,636 123,647 135,656 134,663 139,676 148,696 149,702 151,723 152,731 150,853 155,858 202,907 403,899 501,892"/>
<polygon style="fill:midnightblue;stroke:midnightblue;" points="77,637 71,628 81,631 77,637"/>
</g>
<g id="node63" class="node"><title>Node25</title>
<a xlink:href="_security_x_p_l_sender_8c.html#aeb4ee205f02bf767a5d3b93608abc736" target="_top" xlink:title="SendGateStat">
<polygon style="fill:none;stroke:black;" points="731,917 873,917 873,885 731,885 731,917"/>
<text text-anchor="middle" x="802" y="908" style="font-family:Helvetica;font-size:20.00;">SendGateStat</text>
</a>
</g>
<g id="edge76" class="edge"><title>Node1-&gt;Node25</title>
<path style="fill:none;stroke:midnightblue;" d="M83,634C98,642 108,639 123,652 133,661 135,665 139,676 150,703 149,711 151,739 152,744 152,900 155,903 196,944 614,916 671,913 691,912 712,911 731,909"/>
<polygon style="fill:midnightblue;stroke:midnightblue;" points="81,637 75,628 85,631 81,637"/>
</g>
<g id="node66" class="node"><title>Node26</title>
<a xlink:href="_security_x_p_l_sender_8c.html#a2c31ecf27fafa5085703f0719f6decac" target="_top" xlink:title="SendGatewayChanged">
<polygon style="fill:none;stroke:black;" points="443,992 666,992 666,960 443,960 443,992"/>
<text text-anchor="middle" x="554" y="983" style="font-family:Helvetica;font-size:20.00;">SendGatewayChanged</text>
</a>
</g>
<g id="edge80" class="edge"><title>Node1-&gt;Node26</title>
<path style="fill:none;stroke:midnightblue;" d="M79,634C96,643 107,636 123,647 140,660 138,670 143,690 145,697 146,699 147,705 150,720 150,723 151,737 152,743 152,936 155,940 193,981 339,985 443,982"/>
<polygon style="fill:midnightblue;stroke:midnightblue;" points="77,637 71,628 81,631 77,637"/>
</g>
<g id="node69" class="node"><title>Node27</title>
<a xlink:href="_security_x_p_l_sender_8c.html#a46495fd42c19f6703e4663cb7cf2d1ec" target="_top" xlink:title="SendGatewayInfo">
<polygon style="fill:none;stroke:black;" points="715,1029 890,1029 890,997 715,997 715,1029"/>
<text text-anchor="middle" x="802" y="1020" style="font-family:Helvetica;font-size:20.00;">SendGatewayInfo</text>
</a>
</g>
<g id="edge84" class="edge"><title>Node1-&gt;Node27</title>
<path style="fill:none;stroke:midnightblue;" d="M79,634C96,643 107,636 123,647 147,665 143,680 147,708 151,727 150,732 151,751 152,758 151,984 155,988 194,1028 548,1021 715,1016"/>
<polygon style="fill:midnightblue;stroke:midnightblue;" points="77,637 71,628 81,631 77,637"/>
</g>
<g id="node72" class="node"><title>Node28</title>
<a xlink:href="_security_x_p_l_sender_8c.html#ad811bd225b593df01e168e1bb0967713" target="_top" xlink:title="SendGatewayReady">
<polygon style="fill:none;stroke:black;" points="455,1242 654,1242 654,1210 455,1210 455,1242"/>
<text text-anchor="middle" x="554" y="1233" style="font-family:Helvetica;font-size:20.00;">SendGatewayReady</text>
</a>
</g>
<g id="edge88" class="edge"><title>Node1-&gt;Node28</title>
<path style="fill:none;stroke:midnightblue;" d="M92,630C103,631 111,629 119,640 197,744 62,1132 155,1221 197,1260 351,1251 455,1239"/>
<polygon style="fill:midnightblue;stroke:midnightblue;" points="91,633 82,628 92,627 91,633"/>
</g>
<g id="node79" class="node"><title>Node31</title>
<a xlink:href="_security_x_p_l_sender_8c.html#ae149da75e2b494aa56f4976837706565" target="_top" xlink:title="SendZoneInfo">
<polygon style="fill:none;stroke:black;" points="207,1062 349,1062 349,1030 207,1030 207,1062"/>
<text text-anchor="middle" x="278" y="1053" style="font-family:Helvetica;font-size:20.00;">SendZoneInfo</text>
</a>
</g>
<g id="edge96" class="edge"><title>Node1-&gt;Node31</title>
<path style="fill:none;stroke:midnightblue;" d="M125,637C171,718 95,968 155,1030 169,1044 188,1050 207,1052"/>
<polygon style="fill:midnightblue;stroke:midnightblue;" points="122,638 119,628 127,634 122,638"/>
</g>
<g id="node82" class="node"><title>Node32</title>
<a xlink:href="_security_x_p_l_sender_8c.html#a5583c2b95797b8210dfe1b1a5e516c2d" target="_top" xlink:title="SendZoneList">
<polygon style="fill:none;stroke:black;" points="209,1112 348,1112 348,1080 209,1080 209,1112"/>
<text text-anchor="middle" x="278" y="1103" style="font-family:Helvetica;font-size:20.00;">SendZoneList</text>
</a>
</g>
<g id="edge100" class="edge"><title>Node1-&gt;Node32</title>
<path style="fill:none;stroke:midnightblue;" d="M125,636C178,726 88,1009 155,1080 169,1095 189,1101 209,1102"/>
<polygon style="fill:midnightblue;stroke:midnightblue;" points="122,638 119,628 128,634 122,638"/>
</g>
<g id="node85" class="node"><title>Node33</title>
<a xlink:href="_security_x_p_l_sender_8c.html#a7fdbfa1929e90a45cc905c6276ab7cae" target="_top" xlink:title="SendZoneStat">
<polygon style="fill:none;stroke:black;" points="206,1162 350,1162 350,1130 206,1130 206,1162"/>
<text text-anchor="middle" x="278" y="1153" style="font-family:Helvetica;font-size:20.00;">SendZoneStat</text>
</a>
</g>
<g id="edge104" class="edge"><title>Node1-&gt;Node33</title>
<path style="fill:none;stroke:midnightblue;" d="M125,636C184,735 81,1051 155,1130 168,1144 187,1150 206,1152"/>
<polygon style="fill:midnightblue;stroke:midnightblue;" points="122,638 119,628 128,634 122,638"/>
</g>
<g id="node88" class="node"><title>Node34</title>
<a xlink:href="_security_x_p_l_sender_8c.html#ab01e7f6872c9f26dd9f91bc24f43f4b6" target="_top" xlink:title="SendZoneStateMsg">
<polygon style="fill:none;stroke:black;" points="458,766 651,766 651,734 458,734 458,766"/>
<text text-anchor="middle" x="554" y="757" style="font-family:Helvetica;font-size:20.00;">SendZoneStateMsg</text>
</a>
</g>
<g id="edge108" class="edge"><title>Node1-&gt;Node34</title>
<path style="fill:none;stroke:midnightblue;" d="M81,633C99,640 112,630 127,643 138,653 148,688 151,699 153,705 151,722 155,725 198,764 354,763 458,757"/>
<polygon style="fill:midnightblue;stroke:midnightblue;" points="79,636 72,628 82,630 79,636"/>
</g>
<g id="node91" class="node"><title>Node35</title>
<a xlink:href="_security_system_8c.html#ab4b79e3122c6964725cec23bf923547a" target="_top" xlink:title="StateChangeToArmFailed">
<polygon style="fill:none;stroke:black;" points="156,174 401,174 401,142 156,142 156,174"/>
<text text-anchor="middle" x="278" y="165" style="font-family:Helvetica;font-size:20.00;">StateChangeToArmFailed</text>
</a>
</g>
<g id="edge112" class="edge"><title>Node1-&gt;Node35</title>
<path style="fill:none;stroke:midnightblue;" d="M125,588C173,504 92,241 155,174 155,174 156,173 156,173"/>
<polygon style="fill:midnightblue;stroke:midnightblue;" points="128,590 119,596 122,586 128,590"/>
</g>
<g id="node94" class="node"><title>Node36</title>
<a xlink:href="_security_system_8h.html#a05993d6944a2de72b8463a2ca719d3f1" target="_top" xlink:title="xPLFactoryRestart">
<polygon style="fill:none;stroke:black;" points="187,1212 369,1212 369,1180 187,1180 187,1212"/>
<text text-anchor="middle" x="278" y="1203" style="font-family:Helvetica;font-size:20.00;">xPLFactoryRestart</text>
</a>
</g>
<g id="edge116" class="edge"><title>Node1-&gt;Node36</title>
<path style="fill:none;stroke:midnightblue;" d="M125,636C191,744 73,1093 155,1180 164,1189 175,1195 187,1198"/>
<polygon style="fill:midnightblue;stroke:midnightblue;" points="122,638 119,628 128,634 122,638"/>
</g>
<g id="node96" class="node"><title>Node37</title>
<a xlink:href="x_p_l_8c.html#abc8f282f2ce56cb62d7e149120130c72" target="_top" xlink:title="XPLSendHeartBeat">
<polygon style="fill:none;stroke:black;" points="459,105 650,105 650,73 459,73 459,105"/>
<text text-anchor="middle" x="554" y="96" style="font-family:Helvetica;font-size:20.00;">XPLSendHeartBeat</text>
</a>
</g>
<g id="edge118" class="edge"><title>Node1-&gt;Node37</title>
<path style="fill:none;stroke:midnightblue;" d="M83,591C99,584 113,591 127,575 139,564 149,523 151,507 152,502 151,88 155,83 176,62 348,72 459,81"/>
<polygon style="fill:midnightblue;stroke:midnightblue;" points="84,594 74,596 81,588 84,594"/>
</g>
<g id="node7" class="node"><title>Node4</title>
<a xlink:href="x_p_l_8h.html#a62b4d90791ab073f74677d42bfb64253" target="_top" xlink:title="SchemaTasks">
<polygon style="fill:none;stroke:black;" points="965,668 1105,668 1105,636 965,636 965,668"/>
<text text-anchor="middle" x="1035" y="659" style="font-family:Helvetica;font-size:20.00;">SchemaTasks</text>
</a>
</g>
<g id="edge6" class="edge"><title>Node3-&gt;Node4</title>
<path style="fill:none;stroke:midnightblue;" d="M875,230C883,233 891,237 897,244 957,309 874,573 933,636 942,645 953,650 965,653"/>
<polygon style="fill:midnightblue;stroke:midnightblue;" points="874,233 865,227 876,227 874,233"/>
</g>
<g id="node9" class="node"><title>Node5</title>
<a xlink:href="x_p_l_8h.html#a86d914c966f337c4e3a6fda46a945d11" target="_top" xlink:title="XPLTasks">
<polygon style="fill:none;stroke:black;" points="1174,668 1277,668 1277,636 1174,636 1174,668"/>
<text text-anchor="middle" x="1225" y="659" style="font-family:Helvetica;font-size:20.00;">XPLTasks</text>
</a>
</g>
<g id="edge8" class="edge"><title>Node4-&gt;Node5</title>
<path style="fill:none;stroke:midnightblue;" d="M1115,652C1135,652 1156,652 1174,652"/>
<polygon style="fill:midnightblue;stroke:midnightblue;" points="1115,655 1105,652 1115,648 1115,655"/>
</g>
<g id="node11" class="node"><title>Node6</title>
<a xlink:href="_main_demo_8c.html#a6288eba0f8e8ad3ab1544ad731eb7667" target="_top" xlink:title="main">
<polygon style="fill:none;stroke:black;" points="1314,753 1373,753 1373,721 1314,721 1314,753"/>
<text text-anchor="middle" x="1343" y="744" style="font-family:Helvetica;font-size:20.00;">main</text>
</a>
</g>
<g id="edge10" class="edge"><title>Node5-&gt;Node6</title>
<path style="fill:none;stroke:midnightblue;" d="M1285,675C1298,690 1295,705 1313,721 1313,721 1314,722 1314,722"/>
<polygon style="fill:midnightblue;stroke:midnightblue;" points="1282,677 1277,668 1287,672 1282,677"/>
</g>
<g id="edge16" class="edge"><title>Node8-&gt;Node4</title>
<path style="fill:none;stroke:midnightblue;" d="M626,268C714,264 856,262 897,291 932,315 919,339 936,377 938,381 939,382 940,386 948,407 948,413 950,434 952,448 953,451 954,464 955,469 972,599 978,636"/>
<polygon style="fill:midnightblue;stroke:midnightblue;" points="626,271 616,268 626,264 626,271"/>
</g>
<g id="edge22" class="edge"><title>Node10-&gt;Node4</title>
<path style="fill:none;stroke:midnightblue;" d="M873,317C882,320 890,325 897,332 991,431 839,538 933,636 942,645 953,650 965,653"/>
<polygon style="fill:midnightblue;stroke:midnightblue;" points="872,320 863,315 873,314 872,320"/>
</g>
<g id="edge26" class="edge"><title>Node11-&gt;Node4</title>
<path style="fill:none;stroke:midnightblue;" d="M627,356C715,352 855,351 897,379 966,426 953,471 965,552 967,561 971,614 976,636"/>
<polygon style="fill:midnightblue;stroke:midnightblue;" points="627,359 617,356 627,352 627,359"/>
</g>
<g id="edge30" class="edge"><title>Node12-&gt;Node4</title>
<path style="fill:none;stroke:midnightblue;" d="M378,688C386,687 393,685 401,684 418,681 421,678 437,675 488,668 818,658 965,654"/>
<polygon style="fill:midnightblue;stroke:midnightblue;" points="378,691 368,690 377,685 378,691"/>
</g>
<g id="node29" class="node"><title>Node13</title>
<a xlink:href="_security_system_8c.html#accca294859199bc9e59cec74618c871c" target="_top" xlink:title="StateChangeToAlarming">
<polygon style="fill:none;stroke:black;" points="438,716 671,716 671,684 438,684 438,716"/>
<text text-anchor="middle" x="554" y="707" style="font-family:Helvetica;font-size:20.00;">StateChangeToAlarming</text>
</a>
</g>
<g id="edge32" class="edge"><title>Node12-&gt;Node13</title>
<path style="fill:none;stroke:midnightblue;" d="M378,700C397,700 418,700 438,700"/>
<polygon style="fill:midnightblue;stroke:midnightblue;" points="378,703 368,700 378,696 378,703"/>
</g>
<g id="node31" class="node"><title>Node14</title>
<a xlink:href="_security_system_8c.html#a3ccbc635f6f7bb31465920840c7db474" target="_top" xlink:title="IOTasks">
<polygon style="fill:none;stroke:black;" points="758,734 846,734 846,702 758,702 758,734"/>
<text text-anchor="middle" x="802" y="725" style="font-family:Helvetica;font-size:20.00;">IOTasks</text>
</a>
</g>
<g id="edge34" class="edge"><title>Node13-&gt;Node14</title>
<path style="fill:none;stroke:midnightblue;" d="M681,709C709,711 736,713 758,715"/>
<polygon style="fill:midnightblue;stroke:midnightblue;" points="681,712 671,708 681,706 681,712"/>
</g>
<g id="edge36" class="edge"><title>Node14-&gt;Node4</title>
<path style="fill:none;stroke:midnightblue;" d="M856,715C870,712 885,708 897,702 917,693 914,678 933,668 943,663 954,660 965,657"/>
<polygon style="fill:midnightblue;stroke:midnightblue;" points="856,718 846,716 856,712 856,718"/>
</g>
<g id="edge40" class="edge"><title>Node15-&gt;Node4</title>
<path style="fill:none;stroke:midnightblue;" d="M880,409C887,411 892,415 897,420 966,489 864,568 933,636 942,645 953,650 965,653"/>
<polygon style="fill:midnightblue;stroke:midnightblue;" points="879,412 871,405 882,406 879,412"/>
</g>
<g id="edge44" class="edge"><title>Node16-&gt;Node4</title>
<path style="fill:none;stroke:midnightblue;" d="M880,459C886,461 892,465 897,470 952,523 879,585 933,636 942,644 953,649 965,652"/>
<polygon style="fill:midnightblue;stroke:midnightblue;" points="879,462 870,456 881,456 879,462"/>
</g>
<g id="edge48" class="edge"><title>Node17-&gt;Node4</title>
<path style="fill:none;stroke:midnightblue;" d="M635,485C723,484 857,489 897,517 948,553 909,604 957,642 959,644 962,646 965,647"/>
<polygon style="fill:midnightblue;stroke:midnightblue;" points="635,488 625,485 635,481 635,488"/>
</g>
<g id="edge52" class="edge"><title>Node18-&gt;Node4</title>
<path style="fill:none;stroke:midnightblue;" d="M904,565C924,588 906,615 933,636 942,643 953,648 965,650"/>
<polygon style="fill:midnightblue;stroke:midnightblue;" points="902,568 897,558 907,563 902,568"/>
</g>
<g id="edge56" class="edge"><title>Node19-&gt;Node4</title>
<path style="fill:none;stroke:midnightblue;" d="M625,568C697,565 809,568 897,605 917,614 915,626 933,636 943,641 954,645 965,647"/>
<polygon style="fill:midnightblue;stroke:midnightblue;" points="625,571 615,569 625,565 625,571"/>
</g>
<g id="edge60" class="edge"><title>Node20-&gt;Node4</title>
<path style="fill:none;stroke:midnightblue;" d="M893,639C917,641 942,643 965,645"/>
<polygon style="fill:midnightblue;stroke:midnightblue;" points="893,642 883,638 893,636 893,642"/>
</g>
<g id="edge66" class="edge"><title>Node22-&gt;Node4</title>
<path style="fill:none;stroke:midnightblue;" d="M640,789C651,787 661,786 671,784 772,768 813,800 897,743 929,722 915,696 943,671 949,666 957,662 965,659"/>
<polygon style="fill:midnightblue;stroke:midnightblue;" points="640,792 630,790 640,786 640,792"/>
</g>
<g id="edge70" class="edge"><title>Node23-&gt;Node4</title>
<path style="fill:none;stroke:midnightblue;" d="M875,804C883,801 890,797 897,791 940,754 891,706 933,668 942,660 953,655 965,653"/>
<polygon style="fill:midnightblue;stroke:midnightblue;" points="876,807 865,807 874,801 876,807"/>
</g>
<g id="edge74" class="edge"><title>Node24-&gt;Node4</title>
<path style="fill:none;stroke:midnightblue;" d="M618,881C712,870 876,849 897,832 960,782 916,729 965,666"/>
<polygon style="fill:midnightblue;stroke:midnightblue;" points="618,884 608,882 618,878 618,884"/>
</g>
<g id="edge78" class="edge"><title>Node25-&gt;Node4</title>
<path style="fill:none;stroke:midnightblue;" d="M882,895C888,893 893,889 897,885 967,816 864,737 933,668 942,659 953,654 965,651"/>
<polygon style="fill:midnightblue;stroke:midnightblue;" points="884,898 873,899 881,892 884,898"/>
</g>
<g id="edge82" class="edge"><title>Node26-&gt;Node4</title>
<path style="fill:none;stroke:midnightblue;" d="M676,986C748,985 835,973 897,926 975,868 955,815 965,718 968,696 963,689 972,668"/>
<polygon style="fill:midnightblue;stroke:midnightblue;" points="676,989 666,986 676,982 676,989"/>
</g>
<g id="edge86" class="edge"><title>Node27-&gt;Node4</title>
<path style="fill:none;stroke:midnightblue;" d="M897,995C991,886 834,773 933,668 942,659 953,654 965,651"/>
<polygon style="fill:midnightblue;stroke:midnightblue;" points="899,998 890,1003 894,993 899,998"/>
</g>
<g id="node74" class="node"><title>Node29</title>
<a xlink:href="x_p_l_8h.html#aea89a2e5b007623f49cb6117afc947ec" target="_top" xlink:title="SchemaInit">
<polygon style="fill:none;stroke:black;" points="744,1228 860,1228 860,1196 744,1196 744,1228"/>
<text text-anchor="middle" x="802" y="1219" style="font-family:Helvetica;font-size:20.00;">SchemaInit</text>
</a>
</g>
<g id="edge90" class="edge"><title>Node28-&gt;Node29</title>
<path style="fill:none;stroke:midnightblue;" d="M664,1219C692,1218 720,1216 744,1215"/>
<polygon style="fill:midnightblue;stroke:midnightblue;" points="664,1222 654,1220 664,1216 664,1222"/>
</g>
<g id="node76" class="node"><title>Node30</title>
<a xlink:href="x_p_l_8h.html#a091a12042a9d63dc524ce896fbc04b46" target="_top" xlink:title="xPLInit">
<polygon style="fill:none;stroke:black;" points="997,962 1074,962 1074,930 997,930 997,962"/>
<text text-anchor="middle" x="1035" y="953" style="font-family:Helvetica;font-size:20.00;">xPLInit</text>
</a>
</g>
<g id="edge92" class="edge"><title>Node29-&gt;Node30</title>
<path style="fill:none;stroke:midnightblue;" d="M870,1211C880,1208 889,1204 897,1196 971,1122 859,1037 933,962 950,946 975,942 997,942"/>
<polygon style="fill:midnightblue;stroke:midnightblue;" points="870,1214 860,1213 869,1208 870,1214"/>
</g>
<g id="edge94" class="edge"><title>Node30-&gt;Node6</title>
<path style="fill:none;stroke:midnightblue;" d="M1084,945C1102,943 1121,938 1137,930 1236,880 1224,820 1313,753 1313,753 1314,753 1314,752"/>
<polygon style="fill:midnightblue;stroke:midnightblue;" points="1084,948 1074,946 1084,942 1084,948"/>
</g>
<g id="edge98" class="edge"><title>Node31-&gt;Node4</title>
<path style="fill:none;stroke:midnightblue;" d="M359,1056C507,1072 812,1098 897,1038 929,1017 922,995 929,957 933,941 927,819 933,803 941,787 954,790 961,773 965,766 971,706 972,697 975,684 971,678 980,668"/>
<polygon style="fill:midnightblue;stroke:midnightblue;" points="359,1059 349,1055 359,1053 359,1059"/>
</g>
<g id="edge102" class="edge"><title>Node32-&gt;Node4</title>
<path style="fill:none;stroke:midnightblue;" d="M358,1105C506,1119 813,1141 897,1081 926,1062 915,1042 925,1009 928,1003 929,1001 929,994 937,943 926,814 933,762 934,757 935,756 936,751 938,747 938,745 940,740 948,727 953,726 961,713 971,700 969,694 980,682 983,680 985,680 988,677 993,674 999,671 1005,668"/>
<polygon style="fill:midnightblue;stroke:midnightblue;" points="358,1108 348,1104 358,1102 358,1108"/>
</g>
<g id="edge106" class="edge"><title>Node33-&gt;Node4</title>
<path style="fill:none;stroke:midnightblue;" d="M360,1154C508,1167 814,1185 897,1125 928,1103 918,1082 925,1044 928,1033 928,1030 929,1017 938,920 928,896 933,798 934,789 938,720 943,711 947,705 982,683 1008,668"/>
<polygon style="fill:midnightblue;stroke:midnightblue;" points="360,1157 350,1153 360,1151 360,1157"/>
</g>
<g id="edge110" class="edge"><title>Node34-&gt;Node14</title>
<path style="fill:none;stroke:midnightblue;" d="M661,736C695,731 731,727 758,723"/>
<polygon style="fill:midnightblue;stroke:midnightblue;" points="661,739 651,737 661,733 661,739"/>
</g>
<g id="edge114" class="edge"><title>Node35-&gt;Node4</title>
<path style="fill:none;stroke:midnightblue;" d="M411,160C581,163 860,175 897,203 933,231 922,255 929,299 933,321 928,475 933,496 936,505 940,506 943,514 946,519 946,520 947,524 950,531 949,533 950,540 952,550 953,553 954,562 958,585 958,591 961,613 963,624 958,629 965,636"/>
<polygon style="fill:midnightblue;stroke:midnightblue;" points="411,163 401,160 411,156 411,163"/>
</g>
<g id="node98" class="node"><title>Node38</title>
<a xlink:href="x_p_l_8c.html#a07f019fb7de86ef4bfe4cab422be0969" target="_top" xlink:title="XPLHeartBeatTiming">
<polygon style="fill:none;stroke:black;" points="934,362 1137,362 1137,330 934,330 934,362"/>
<text text-anchor="middle" x="1035" y="353" style="font-family:Helvetica;font-size:20.00;">XPLHeartBeatTiming</text>
</a>
</g>
<g id="edge120" class="edge"><title>Node37-&gt;Node38</title>
<path style="fill:none;stroke:midnightblue;" d="M660,81C737,81 837,95 897,157 952,214 877,276 933,330 933,330 934,330 934,331"/>
<polygon style="fill:midnightblue;stroke:midnightblue;" points="660,84 650,81 660,77 660,84"/>
</g>
<g id="edge122" class="edge"><title>Node38-&gt;Node5</title>
<path style="fill:none;stroke:midnightblue;" d="M1144,369C1216,455 1096,546 1173,636 1173,636 1174,637 1174,637"/>
<polygon style="fill:midnightblue;stroke:midnightblue;" points="1142,372 1137,362 1147,367 1142,372"/>
</g>
</g>
</svg>
