<?xml version="1.0" encoding="UTF-8" standalone="no"?>
<!DOCTYPE svg PUBLIC "-//W3C//DTD SVG 1.0//EN"
 "http://www.w3.org/TR/2001/REC-SVG-20010904/DTD/svg10.dtd" [
 <!ATTLIST svg xmlns:xlink CDATA #FIXED "http://www.w3.org/1999/xlink">
]>
<!-- Generated by dot version 1.13 (v16) (Mon August 23, 2004)
     For user: (jarrodneven) Jarrod  Neven   Title: G    Pages: 1 -->
<svg width="892pt" height="444pt"
 viewBox = "-1 -1 891 443"
 xmlns="http://www.w3.org/2000/svg" xmlns:xlink="http://www.w3.org/1999/xlink">
<g id="graph0" class="graph" style="font-family:Times-Roman;font-size:14.00;">
<title>G</title>
<g id="node1" class="node"><title>Node1</title>
<polygon style="fill:#bfbfbf;stroke:black;" points="6,236 129,236 129,204 6,204 6,236"/>
<text text-anchor="middle" x="67" y="227" style="font-family:Helvetica;font-size:20.00;">xPLSaveEEConfig</text>
</g>
<g id="node3" class="node"><title>Node2</title>
<a xlink:href="_security_system_8h.html#a6ff589f01cb93ce6c97ab0af6405d0df" target="_top" xlink:title="bypassArea">
<polygon style="fill:none;stroke:black;" points="225,36 347,36 347,4 225,4 225,36"/>
<text text-anchor="middle" x="286" y="27" style="font-family:Helvetica;font-size:20.00;">bypassArea</text>
</a>
</g>
<g id="edge2" class="edge"><title>Node1-&gt;Node2</title>
<path style="fill:none;stroke:midnightblue;" d="M136,196C175,143 112,86 165,36 181,22 204,16 225,15"/>
<polygon style="fill:midnightblue;stroke:midnightblue;" points="138,199 129,204 133,194 138,199"/>
</g>
<g id="node5" class="node"><title>Node3</title>
<a xlink:href="_security_system_8h.html#ab3be31caf1027bb142335a3a3d7d4eb1" target="_top" xlink:title="bypassZone">
<polygon style="fill:none;stroke:black;" points="224,386 349,386 349,354 224,354 224,386"/>
<text text-anchor="middle" x="286" y="377" style="font-family:Helvetica;font-size:20.00;">bypassZone</text>
</a>
</g>
<g id="edge4" class="edge"><title>Node1-&gt;Node3</title>
<path style="fill:none;stroke:midnightblue;" d="M136,243C163,279 127,320 165,354 181,368 203,373 224,375"/>
<polygon style="fill:midnightblue;stroke:midnightblue;" points="134,246 129,236 139,241 134,246"/>
</g>
<g id="node13" class="node"><title>Node7</title>
<a xlink:href="_security_system_8h.html#a4c1402940dc136f20f757edb09c73e28" target="_top" xlink:title="EnableArea">
<polygon style="fill:none;stroke:black;" points="226,136 347,136 347,104 226,104 226,136"/>
<text text-anchor="middle" x="286" y="127" style="font-family:Helvetica;font-size:20.00;">EnableArea</text>
</a>
</g>
<g id="edge12" class="edge"><title>Node1-&gt;Node7</title>
<path style="fill:none;stroke:midnightblue;" d="M136,197C152,177 140,154 165,136 183,124 205,119 226,118"/>
<polygon style="fill:midnightblue;stroke:midnightblue;" points="139,199 129,204 134,194 139,199"/>
</g>
<g id="node15" class="node"><title>Node8</title>
<a xlink:href="_security_system_8h.html#a14eb903eaa706a4874267274a2ffc6fa" target="_top" xlink:title="EnableZone">
<polygon style="fill:none;stroke:black;" points="224,436 348,436 348,404 224,404 224,436"/>
<text text-anchor="middle" x="286" y="427" style="font-family:Helvetica;font-size:20.00;">EnableZone</text>
</a>
</g>
<g id="edge14" class="edge"><title>Node1-&gt;Node8</title>
<path style="fill:none;stroke:midnightblue;" d="M136,244C175,297 112,354 165,404 181,418 203,424 224,425"/>
<polygon style="fill:midnightblue;stroke:midnightblue;" points="133,246 129,236 138,241 133,246"/>
</g>
<g id="node18" class="node"><title>Node9</title>
<a xlink:href="_h_t_t_p_forms_8c.html#a686ae35a16ecb63daffafcd015ddb070" target="_top" xlink:title="Processes all HTTP GETS.">
<polygon style="fill:none;stroke:black;" points="200,236 373,236 373,204 200,204 200,236"/>
<text text-anchor="middle" x="286" y="227" style="font-family:Helvetica;font-size:20.00;">HTTPExecuteGet</text>
</a>
</g>
<g id="edge18" class="edge"><title>Node1-&gt;Node9</title>
<path style="fill:none;stroke:midnightblue;" d="M139,220C159,220 180,220 200,220"/>
<polygon style="fill:midnightblue;stroke:midnightblue;" points="139,223 129,220 139,216 139,223"/>
</g>
<g id="node20" class="node"><title>Node10</title>
<a xlink:href="_s_m_t_p_8c.html#a9684d57d301c8de28dba3a1dc22d4708" target="_top" xlink:title="This function reads an input parameter from the POSTed data, and writes that string to the configurat...">
<polygon style="fill:none;stroke:black;" points="175,186 397,186 397,154 175,154 175,186"/>
<text text-anchor="middle" x="286" y="177" style="font-family:Helvetica;font-size:20.00;">HTTPPostSMTPConfig</text>
</a>
</g>
<g id="edge20" class="edge"><title>Node1-&gt;Node10</title>
<path style="fill:none;stroke:midnightblue;" d="M138,200C148,195 152,191 165,186 168,185 172,184 175,183"/>
<polygon style="fill:midnightblue;stroke:midnightblue;" points="140,203 129,204 137,197 140,203"/>
</g>
<g id="node24" class="node"><title>Node12</title>
<a xlink:href="_security_system_8h.html#a3e1f7b8c937f29b73398bb3ad54743c4" target="_top" xlink:title="IsolateArea">
<polygon style="fill:none;stroke:black;" points="228,336 345,336 345,304 228,304 228,336"/>
<text text-anchor="middle" x="286" y="327" style="font-family:Helvetica;font-size:20.00;">IsolateArea</text>
</a>
</g>
<g id="edge24" class="edge"><title>Node1-&gt;Node12</title>
<path style="fill:none;stroke:midnightblue;" d="M136,243C152,263 140,286 165,304 183,316 206,321 228,323"/>
<polygon style="fill:midnightblue;stroke:midnightblue;" points="134,246 129,236 139,241 134,246"/>
</g>
<g id="node26" class="node"><title>Node13</title>
<a xlink:href="_security_system_8h.html#aa58e855f239c14c2cfc32dcfa244d31f" target="_top" xlink:title="IsolateZone">
<polygon style="fill:none;stroke:black;" points="226,286 347,286 347,254 226,254 226,286"/>
<text text-anchor="middle" x="286" y="277" style="font-family:Helvetica;font-size:20.00;">IsolateZone</text>
</a>
</g>
<g id="edge26" class="edge"><title>Node1-&gt;Node13</title>
<path style="fill:none;stroke:midnightblue;" d="M138,240C148,245 152,249 165,254 184,260 206,263 226,266"/>
<polygon style="fill:midnightblue;stroke:midnightblue;" points="137,243 129,236 140,237 137,243"/>
</g>
<g id="node29" class="node"><title>Node14</title>
<a xlink:href="x_p_l_8h.html#a3baecc6556e5cc7af0d59d0216aa217c" target="_top" xlink:title="SchemaProcessUDPMsg">
<polygon style="fill:none;stroke:black;" points="165,86 407,86 407,54 165,54 165,86"/>
<text text-anchor="middle" x="286" y="77" style="font-family:Helvetica;font-size:20.00;">SchemaProcessUDPMsg</text>
</a>
</g>
<g id="edge30" class="edge"><title>Node1-&gt;Node14</title>
<path style="fill:none;stroke:midnightblue;" d="M136,197C163,161 127,120 165,86"/>
<polygon style="fill:midnightblue;stroke:midnightblue;" points="139,199 129,204 134,194 139,199"/>
</g>
<g id="node7" class="node"><title>Node4</title>
<a xlink:href="x_p_l_8h.html#a62b4d90791ab073f74677d42bfb64253" target="_top" xlink:title="SchemaTasks">
<polygon style="fill:none;stroke:black;" points="476,336 616,336 616,304 476,304 476,336"/>
<text text-anchor="middle" x="546" y="327" style="font-family:Helvetica;font-size:20.00;">SchemaTasks</text>
</a>
</g>
<g id="edge6" class="edge"><title>Node3-&gt;Node4</title>
<path style="fill:none;stroke:midnightblue;" d="M359,364C375,362 392,358 407,354 425,348 426,341 443,336 454,332 465,330 476,328"/>
<polygon style="fill:midnightblue;stroke:midnightblue;" points="359,367 349,365 359,361 359,367"/>
</g>
<g id="node9" class="node"><title>Node5</title>
<a xlink:href="x_p_l_8h.html#a86d914c966f337c4e3a6fda46a945d11" target="_top" xlink:title="XPLTasks">
<polygon style="fill:none;stroke:black;" points="686,224 789,224 789,192 686,192 686,224"/>
<text text-anchor="middle" x="737" y="215" style="font-family:Helvetica;font-size:20.00;">XPLTasks</text>
</a>
</g>
<g id="edge8" class="edge"><title>Node4-&gt;Node5</title>
<path style="fill:none;stroke:midnightblue;" d="M626,316C634,313 642,309 649,304 681,280 656,249 685,224 685,224 686,224 686,223"/>
<polygon style="fill:midnightblue;stroke:midnightblue;" points="627,319 616,319 625,313 627,319"/>
</g>
<g id="node11" class="node"><title>Node6</title>
<a xlink:href="_main_demo_8c.html#a6288eba0f8e8ad3ab1544ad731eb7667" target="_top" xlink:title="main">
<polygon style="fill:none;stroke:black;" points="826,224 885,224 885,192 826,192 826,224"/>
<text text-anchor="middle" x="855" y="215" style="font-family:Helvetica;font-size:20.00;">main</text>
</a>
</g>
<g id="edge10" class="edge"><title>Node5-&gt;Node6</title>
<path style="fill:none;stroke:midnightblue;" d="M799,208C809,208 818,208 826,208"/>
<polygon style="fill:midnightblue;stroke:midnightblue;" points="799,211 789,208 799,204 799,211"/>
</g>
<g id="edge16" class="edge"><title>Node8-&gt;Node4</title>
<path style="fill:none;stroke:midnightblue;" d="M358,421C375,419 393,413 407,404 436,384 416,355 443,336 453,329 464,325 476,322"/>
<polygon style="fill:midnightblue;stroke:midnightblue;" points="358,424 348,422 358,418 358,424"/>
</g>
<g id="node22" class="node"><title>Node11</title>
<a xlink:href="_h_t_t_p_forms_8c.html#a821765eef4f0b64f901828f4d667fb17" target="_top" xlink:title="Processes HTTP POST&#39;s.">
<polygon style="fill:none;stroke:black;" points="456,186 637,186 637,154 456,154 456,186"/>
<text text-anchor="middle" x="546" y="177" style="font-family:Helvetica;font-size:20.00;">HTTPExecutePost</text>
</a>
</g>
<g id="edge22" class="edge"><title>Node10-&gt;Node11</title>
<path style="fill:none;stroke:midnightblue;" d="M407,170C424,170 440,170 456,170"/>
<polygon style="fill:midnightblue;stroke:midnightblue;" points="407,173 397,170 407,166 407,173"/>
</g>
<g id="edge28" class="edge"><title>Node13-&gt;Node4</title>
<path style="fill:none;stroke:midnightblue;" d="M357,275C374,277 391,281 407,286 425,291 426,298 443,304 454,307 465,310 476,312"/>
<polygon style="fill:midnightblue;stroke:midnightblue;" points="357,278 347,274 357,272 357,278"/>
</g>
<g id="node31" class="node"><title>Node15</title>
<a xlink:href="x_p_l_8c.html#a41c59f641ff95b999e66c0d45117b73d" target="_top" xlink:title="XPLProcessUDPMsg">
<polygon style="fill:none;stroke:black;" points="443,111 649,111 649,79 443,79 443,111"/>
<text text-anchor="middle" x="546" y="102" style="font-family:Helvetica;font-size:20.00;">XPLProcessUDPMsg</text>
</a>
</g>
<g id="edge32" class="edge"><title>Node14-&gt;Node15</title>
<path style="fill:none;stroke:midnightblue;" d="M417,83C426,84 434,84 443,85"/>
<polygon style="fill:midnightblue;stroke:midnightblue;" points="417,86 407,82 417,80 417,86"/>
</g>
<g id="edge34" class="edge"><title>Node15-&gt;Node5</title>
<path style="fill:none;stroke:midnightblue;" d="M657,118C677,141 659,168 685,192 685,192 686,193 686,193"/>
<polygon style="fill:midnightblue;stroke:midnightblue;" points="654,120 649,111 659,115 654,120"/>
</g>
</g>
</svg>
