<?xml version="1.0" encoding="UTF-8" standalone="no"?>
<!DOCTYPE svg PUBLIC "-//W3C//DTD SVG 1.0//EN"
 "http://www.w3.org/TR/2001/REC-SVG-20010904/DTD/svg10.dtd" [
 <!ATTLIST svg xmlns:xlink CDATA #FIXED "http://www.w3.org/1999/xlink">
]>
<!-- Generated by dot version 1.13 (v16) (Mon August 23, 2004)
     For user: (jarrodneven) Jarrod  Neven   Title: G    Pages: 1 -->
<svg width="392pt" height="44pt"
 viewBox = "-1 -1 391 43"
 xmlns="http://www.w3.org/2000/svg" xmlns:xlink="http://www.w3.org/1999/xlink">
<g id="graph0" class="graph" style="font-family:Times-Roman;font-size:14.00;">
<title>G</title>
<g id="node1" class="node"><title>Node1</title>
<polygon style="fill:#bfbfbf;stroke:black;" points="5,36 149,36 149,4 5,4 5,36"/>
<text text-anchor="middle" x="77" y="27" style="font-family:Helvetica;font-size:20.00;">XPLHeartBeatTiming</text>
</g>
<g id="node3" class="node"><title>Node2</title>
<a xlink:href="x_p_l_8h.html#a86d914c966f337c4e3a6fda46a945d11" target="_top" xlink:title="XPLTasks">
<polygon style="fill:none;stroke:black;" points="186,36 289,36 289,4 186,4 186,36"/>
<text text-anchor="middle" x="237" y="27" style="font-family:Helvetica;font-size:20.00;">XPLTasks</text>
</a>
</g>
<g id="edge2" class="edge"><title>Node1-&gt;Node2</title>
<path style="fill:none;stroke:midnightblue;" d="M159,20C168,20 177,20 186,20"/>
<polygon style="fill:midnightblue;stroke:midnightblue;" points="159,23 149,20 159,16 159,23"/>
</g>
<g id="node5" class="node"><title>Node3</title>
<a xlink:href="_main_demo_8c.html#a6288eba0f8e8ad3ab1544ad731eb7667" target="_top" xlink:title="main">
<polygon style="fill:none;stroke:black;" points="326,36 385,36 385,4 326,4 326,36"/>
<text text-anchor="middle" x="355" y="27" style="font-family:Helvetica;font-size:20.00;">main</text>
</a>
</g>
<g id="edge4" class="edge"><title>Node2-&gt;Node3</title>
<path style="fill:none;stroke:midnightblue;" d="M299,20C309,20 318,20 326,20"/>
<polygon style="fill:midnightblue;stroke:midnightblue;" points="299,23 289,20 299,16 299,23"/>
</g>
</g>
</svg>
