<?xml version="1.0" encoding="UTF-8" standalone="no"?>
<!DOCTYPE svg PUBLIC "-//W3C//DTD SVG 1.0//EN"
 "http://www.w3.org/TR/2001/REC-SVG-20010904/DTD/svg10.dtd" [
 <!ATTLIST svg xmlns:xlink CDATA #FIXED "http://www.w3.org/1999/xlink">
]>
<!-- Generated by dot version 1.13 (v16) (Mon August 23, 2004)
     For user: (jarrodneven) Jarrod  Neven   Title: G    Pages: 1 -->
<svg width="498pt" height="44pt"
 viewBox = "-1 -1 497 43"
 xmlns="http://www.w3.org/2000/svg" xmlns:xlink="http://www.w3.org/1999/xlink">
<g id="graph0" class="graph" style="font-family:Times-Roman;font-size:14.00;">
<title>G</title>
<g id="node1" class="node"><title>Node1</title>
<polygon style="fill:#bfbfbf;stroke:black;" points="6,36 129,36 129,4 6,4 6,36"/>
<text text-anchor="middle" x="67" y="27" style="font-family:Helvetica;font-size:20.00;">xPLLoadEEConfig</text>
</g>
<g id="node3" class="node"><title>Node2</title>
<a xlink:href="x_p_l_8h.html#aea89a2e5b007623f49cb6117afc947ec" target="_top" xlink:title="SchemaInit">
<polygon style="fill:none;stroke:black;" points="165,36 281,36 281,4 165,4 165,36"/>
<text text-anchor="middle" x="223" y="27" style="font-family:Helvetica;font-size:20.00;">SchemaInit</text>
</a>
</g>
<g id="edge2" class="edge"><title>Node1-&gt;Node2</title>
<path style="fill:none;stroke:midnightblue;" d="M139,20C148,20 156,20 165,20"/>
<polygon style="fill:midnightblue;stroke:midnightblue;" points="139,23 129,20 139,16 139,23"/>
</g>
<g id="node5" class="node"><title>Node3</title>
<a xlink:href="x_p_l_8h.html#a091a12042a9d63dc524ce896fbc04b46" target="_top" xlink:title="xPLInit">
<polygon style="fill:none;stroke:black;" points="318,36 395,36 395,4 318,4 318,36"/>
<text text-anchor="middle" x="356" y="27" style="font-family:Helvetica;font-size:20.00;">xPLInit</text>
</a>
</g>
<g id="edge4" class="edge"><title>Node2-&gt;Node3</title>
<path style="fill:none;stroke:midnightblue;" d="M291,20C300,20 309,20 318,20"/>
<polygon style="fill:midnightblue;stroke:midnightblue;" points="291,23 281,20 291,16 291,23"/>
</g>
<g id="node7" class="node"><title>Node4</title>
<a xlink:href="_main_demo_8c.html#a6288eba0f8e8ad3ab1544ad731eb7667" target="_top" xlink:title="main">
<polygon style="fill:none;stroke:black;" points="432,36 491,36 491,4 432,4 432,36"/>
<text text-anchor="middle" x="461" y="27" style="font-family:Helvetica;font-size:20.00;">main</text>
</a>
</g>
<g id="edge6" class="edge"><title>Node3-&gt;Node4</title>
<path style="fill:none;stroke:midnightblue;" d="M405,20C414,20 423,20 432,20"/>
<polygon style="fill:midnightblue;stroke:midnightblue;" points="405,23 395,20 405,16 405,23"/>
</g>
</g>
</svg>
