<?xml version="1.0" encoding="UTF-8" standalone="no"?>
<!DOCTYPE svg PUBLIC "-//W3C//DTD SVG 1.0//EN"
 "http://www.w3.org/TR/2001/REC-SVG-20010904/DTD/svg10.dtd" [
 <!ATTLIST svg xmlns:xlink CDATA #FIXED "http://www.w3.org/1999/xlink">
]>
<!-- Generated by dot version 1.13 (v16) (Mon August 23, 2004)
     For user: (jarrodneven) Jarrod  Neven   Title: G    Pages: 1 -->
<svg width="660pt" height="194pt"
 viewBox = "-1 -1 659 193"
 xmlns="http://www.w3.org/2000/svg" xmlns:xlink="http://www.w3.org/1999/xlink">
<g id="graph0" class="graph" style="font-family:Times-Roman;font-size:14.00;">
<title>G</title>
<g id="node1" class="node"><title>Node1</title>
<polygon style="fill:#bfbfbf;stroke:black;" points="5,111 63,111 63,79 5,79 5,111"/>
<text text-anchor="middle" x="34" y="102" style="font-family:Helvetica;font-size:20.00;">xPLInit</text>
</g>
<g id="node3" class="node"><title>Node2</title>
<a xlink:href="_security_system_8c.html#aea89a2e5b007623f49cb6117afc947ec" target="_top" xlink:title="SchemaInit">
<polygon style="fill:none;stroke:black;" points="99,111 215,111 215,79 99,79 99,111"/>
<text text-anchor="middle" x="157" y="102" style="font-family:Helvetica;font-size:20.00;">SchemaInit</text>
</a>
</g>
<g id="edge2" class="edge"><title>Node1-&gt;Node2</title>
<path style="fill:none;stroke:midnightblue;" d="M63,95C71,95 80,95 89,95"/>
<polygon style="fill:midnightblue;stroke:midnightblue;" points="89,91 99,95 89,98 89,91"/>
</g>
<g id="node5" class="node"><title>Node3</title>
<a xlink:href="_security_system_8c.html#aa38cdab46c967118f0f383312f150cce" target="_top" xlink:title="LoadDefaultConfig">
<polygon style="fill:none;stroke:black;" points="260,36 442,36 442,4 260,4 260,36"/>
<text text-anchor="middle" x="351" y="27" style="font-family:Helvetica;font-size:20.00;">LoadDefaultConfig</text>
</a>
</g>
<g id="edge4" class="edge"><title>Node2-&gt;Node3</title>
<path style="fill:none;stroke:midnightblue;" d="M215,79C234,67 231,53 251,38"/>
<polygon style="fill:midnightblue;stroke:midnightblue;" points="250,35 260,32 254,40 250,35"/>
</g>
<g id="node7" class="node"><title>Node4</title>
<a xlink:href="_security_x_p_l_sender_8c.html#ad811bd225b593df01e168e1bb0967713" target="_top" xlink:title="SendGatewayReady">
<polygon style="fill:none;stroke:black;" points="252,86 451,86 451,54 252,54 252,86"/>
<text text-anchor="middle" x="351" y="77" style="font-family:Helvetica;font-size:20.00;">SendGatewayReady</text>
</a>
</g>
<g id="edge6" class="edge"><title>Node2-&gt;Node4</title>
<path style="fill:none;stroke:midnightblue;" d="M215,87C224,86 233,85 242,84"/>
<polygon style="fill:midnightblue;stroke:midnightblue;" points="242,81 252,82 243,87 242,81"/>
</g>
<g id="node11" class="node"><title>Node6</title>
<a xlink:href="_security_system_8h.html#ae777555850cf9c897f46c8407ce1729f" target="_top" xlink:title="Places a new email in the SMTP queue to be processed (sent)">
<polygon style="fill:none;stroke:black;" points="260,136 442,136 442,104 260,104 260,136"/>
<text text-anchor="middle" x="351" y="127" style="font-family:Helvetica;font-size:20.00;">SMTPQueueEmail</text>
</a>
</g>
<g id="edge10" class="edge"><title>Node2-&gt;Node6</title>
<path style="fill:none;stroke:midnightblue;" d="M215,103C226,105 238,106 250,108"/>
<polygon style="fill:midnightblue;stroke:midnightblue;" points="250,105 260,109 250,111 250,105"/>
</g>
<g id="node13" class="node"><title>Node7</title>
<a xlink:href="x_p_l_8c.html#a31c1c8faace74e23f37a03b7292f7981" target="_top" xlink:title="xPLLoadEEConfig">
<polygon style="fill:none;stroke:black;" points="262,186 441,186 441,154 262,154 262,186"/>
<text text-anchor="middle" x="351" y="177" style="font-family:Helvetica;font-size:20.00;">xPLLoadEEConfig</text>
</a>
</g>
<g id="edge12" class="edge"><title>Node2-&gt;Node7</title>
<path style="fill:none;stroke:midnightblue;" d="M215,111C236,125 230,142 251,154 252,154 252,155 253,155"/>
<polygon style="fill:midnightblue;stroke:midnightblue;" points="254,152 262,159 251,158 254,152"/>
</g>
<g id="node9" class="node"><title>Node5</title>
<a xlink:href="x_p_l_8c.html#abde6ae0f37ef47bee8e881bba8502169" target="_top" xlink:title="XPLSendHeader">
<polygon style="fill:none;stroke:black;" points="487,86 653,86 653,54 487,54 487,86"/>
<text text-anchor="middle" x="570" y="77" style="font-family:Helvetica;font-size:20.00;">XPLSendHeader</text>
</a>
</g>
<g id="edge8" class="edge"><title>Node4-&gt;Node5</title>
<path style="fill:none;stroke:midnightblue;" d="M451,70C460,70 468,70 477,70"/>
<polygon style="fill:midnightblue;stroke:midnightblue;" points="477,66 487,70 477,73 477,66"/>
</g>
</g>
</svg>
