<?xml version="1.0" encoding="UTF-8" standalone="no"?>
<!DOCTYPE svg PUBLIC "-//W3C//DTD SVG 1.0//EN"
 "http://www.w3.org/TR/2001/REC-SVG-20010904/DTD/svg10.dtd" [
 <!ATTLIST svg xmlns:xlink CDATA #FIXED "http://www.w3.org/1999/xlink">
]>
<!-- Generated by dot version 1.13 (v16) (Mon August 23, 2004)
     For user: (jarrodneven) Jarrod  Neven   Title: G    Pages: 1 -->
<svg width="350pt" height="44pt"
 viewBox = "-1 -1 349 43"
 xmlns="http://www.w3.org/2000/svg" xmlns:xlink="http://www.w3.org/1999/xlink">
<g id="graph0" class="graph" style="font-family:Times-Roman;font-size:14.00;">
<title>G</title>
<g id="node1" class="node"><title>Node1</title>
<polygon style="fill:#bfbfbf;stroke:black;" points="6,36 107,36 107,4 6,4 6,36"/>
<text text-anchor="middle" x="56" y="27" style="font-family:Helvetica;font-size:20.00;">SchemaTasks</text>
</g>
<g id="node3" class="node"><title>Node2</title>
<a xlink:href="x_p_l_8h.html#a86d914c966f337c4e3a6fda46a945d11" target="_top" xlink:title="XPLTasks">
<polygon style="fill:none;stroke:black;" points="144,36 247,36 247,4 144,4 144,36"/>
<text text-anchor="middle" x="195" y="27" style="font-family:Helvetica;font-size:20.00;">XPLTasks</text>
</a>
</g>
<g id="edge2" class="edge"><title>Node1-&gt;Node2</title>
<path style="fill:none;stroke:midnightblue;" d="M117,20C126,20 135,20 144,20"/>
<polygon style="fill:midnightblue;stroke:midnightblue;" points="117,23 107,20 117,16 117,23"/>
</g>
<g id="node5" class="node"><title>Node3</title>
<a xlink:href="_main_demo_8c.html#a6288eba0f8e8ad3ab1544ad731eb7667" target="_top" xlink:title="main">
<polygon style="fill:none;stroke:black;" points="284,36 343,36 343,4 284,4 284,36"/>
<text text-anchor="middle" x="313" y="27" style="font-family:Helvetica;font-size:20.00;">main</text>
</a>
</g>
<g id="edge4" class="edge"><title>Node2-&gt;Node3</title>
<path style="fill:none;stroke:midnightblue;" d="M257,20C267,20 276,20 284,20"/>
<polygon style="fill:midnightblue;stroke:midnightblue;" points="257,23 247,20 257,16 257,23"/>
</g>
</g>
</svg>
