<?xml version="1.0" encoding="UTF-8" standalone="no"?>
<!DOCTYPE svg PUBLIC "-//W3C//DTD SVG 1.0//EN"
 "http://www.w3.org/TR/2001/REC-SVG-20010904/DTD/svg10.dtd" [
 <!ATTLIST svg xmlns:xlink CDATA #FIXED "http://www.w3.org/1999/xlink">
]>
<!-- Generated by dot version 1.13 (v16) (Mon August 23, 2004)
     For user: (jarrodneven) Jarrod  Neven   Title: G    Pages: 1 -->
<svg width="1168pt" height="651pt"
 viewBox = "-1 -1 1167 650"
 xmlns="http://www.w3.org/2000/svg" xmlns:xlink="http://www.w3.org/1999/xlink">
<g id="graph0" class="graph" style="font-family:Times-Roman;font-size:14.00;">
<title>G</title>
<g id="node1" class="node"><title>Node1</title>
<polygon style="fill:#bfbfbf;stroke:black;" points="6,330 169,330 169,298 6,298 6,330"/>
<text text-anchor="middle" x="87" y="321" style="font-family:Helvetica;font-size:20.00;">SchemaProcessUDPMsg</text>
</g>
<g id="node3" class="node"><title>Node2</title>
<a xlink:href="_security_system_8h.html#a30c3c9cdda2491c17d5d6d5cc6426b31" target="_top" xlink:title="addxPLMessage">
<polygon style="fill:none;stroke:black;" points="739,261 904,261 904,229 739,229 739,261"/>
<text text-anchor="middle" x="821" y="252" style="font-family:Helvetica;font-size:20.00;">addxPLMessage</text>
</a>
</g>
<g id="edge2" class="edge"><title>Node1-&gt;Node2</title>
<path style="fill:none;stroke:midnightblue;" d="M169,310C304,303 566,288 657,270 674,267 677,264 693,259 705,257 717,254 729,252"/>
<polygon style="fill:midnightblue;stroke:midnightblue;" points="729,249 739,251 729,255 729,249"/>
</g>
<g id="node5" class="node"><title>Node3</title>
<a xlink:href="_security_system_8c.html#a491f8822a8274ca5244c41d226e7136e" target="_top" xlink:title="ClearArmingFlags">
<polygon style="fill:none;stroke:black;" points="985,148 1161,148 1161,116 985,116 985,148"/>
<text text-anchor="middle" x="1073" y="139" style="font-family:Helvetica;font-size:20.00;">ClearArmingFlags</text>
</a>
</g>
<g id="edge30" class="edge"><title>Node1-&gt;Node3</title>
<path style="fill:none;stroke:midnightblue;" d="M160,298C163,296 166,293 169,290 245,206 120,113 205,38 245,4 752,50 949,101 962,105 967,109 975,113"/>
<polygon style="fill:midnightblue;stroke:midnightblue;" points="976,110 985,116 974,116 976,110"/>
</g>
<g id="node7" class="node"><title>Node4</title>
<a xlink:href="_security_system_8c.html#a723bf79e9ca7924d850e5c2be4029b1c" target="_top" xlink:title="Arm">
<polygon style="fill:none;stroke:black;" points="276,229 329,229 329,197 276,197 276,229"/>
<text text-anchor="middle" x="302" y="220" style="font-family:Helvetica;font-size:20.00;">Arm</text>
</a>
</g>
<g id="edge6" class="edge"><title>Node1-&gt;Node4</title>
<path style="fill:none;stroke:midnightblue;" d="M169,298C197,278 177,250 205,229 223,217 246,212 266,211"/>
<polygon style="fill:midnightblue;stroke:midnightblue;" points="266,207 276,211 266,214 266,207"/>
</g>
<g id="node17" class="node"><title>Node8</title>
<a xlink:href="_security_system_8c.html#af7b9ebfe6bb90725304e83cadb4cced8" target="_top" xlink:title="ArmAway">
<polygon style="fill:none;stroke:black;" points="252,129 353,129 353,97 252,97 252,129"/>
<text text-anchor="middle" x="302" y="120" style="font-family:Helvetica;font-size:20.00;">ArmAway</text>
</a>
</g>
<g id="edge18" class="edge"><title>Node1-&gt;Node8</title>
<path style="fill:none;stroke:midnightblue;" d="M169,298C224,245 150,183 205,129 215,119 228,114 242,112"/>
<polygon style="fill:midnightblue;stroke:midnightblue;" points="242,109 252,111 242,115 242,109"/>
</g>
<g id="node20" class="node"><title>Node9</title>
<a xlink:href="_security_system_8c.html#afba09fe6505822eb03078088f14ef89b" target="_top" xlink:title="ArmHome">
<polygon style="fill:none;stroke:black;" points="249,179 355,179 355,147 249,147 249,179"/>
<text text-anchor="middle" x="302" y="170" style="font-family:Helvetica;font-size:20.00;">ArmHome</text>
</a>
</g>
<g id="edge22" class="edge"><title>Node1-&gt;Node9</title>
<path style="fill:none;stroke:midnightblue;" d="M169,298C210,261 164,216 205,179 214,171 226,166 239,164"/>
<polygon style="fill:midnightblue;stroke:midnightblue;" points="239,161 249,162 240,167 239,161"/>
</g>
<g id="node23" class="node"><title>Node10</title>
<a xlink:href="_security_system_8c.html#aad7b06369f4a1f3b427e137a9f84a5c0" target="_top" xlink:title="ArmLatchkey">
<polygon style="fill:none;stroke:black;" points="236,79 369,79 369,47 236,47 236,79"/>
<text text-anchor="middle" x="302" y="70" style="font-family:Helvetica;font-size:20.00;">ArmLatchkey</text>
</a>
</g>
<g id="edge26" class="edge"><title>Node1-&gt;Node10</title>
<path style="fill:none;stroke:midnightblue;" d="M169,298C238,228 136,149 205,79 211,73 218,69 226,66"/>
<polygon style="fill:midnightblue;stroke:midnightblue;" points="225,63 236,63 227,69 225,63"/>
</g>
<g id="node27" class="node"><title>Node11</title>
<a xlink:href="_security_system_8c.html#a3ca20943ab34a0d560cd22d88c0ba324" target="_top" xlink:title="Disarm">
<polygon style="fill:none;stroke:black;" points="507,349 586,349 586,317 507,317 507,349"/>
<text text-anchor="middle" x="546" y="340" style="font-family:Helvetica;font-size:20.00;">Disarm</text>
</a>
</g>
<g id="edge32" class="edge"><title>Node1-&gt;Node11</title>
<path style="fill:none;stroke:midnightblue;" d="M169,317C265,322 418,327 497,331"/>
<polygon style="fill:midnightblue;stroke:midnightblue;" points="497,327 507,331 497,334 497,327"/>
</g>
<g id="node30" class="node"><title>Node12</title>
<a xlink:href="_main_demo_8c.html#a8a69fd5952a14c7bfa97a304380d4bc1" target="_top" xlink:title="DisplayIPValue">
<polygon style="fill:none;stroke:black;" points="227,443 377,443 377,411 227,411 227,443"/>
<text text-anchor="middle" x="302" y="434" style="font-family:Helvetica;font-size:20.00;">DisplayIPValue</text>
</a>
</g>
<g id="edge36" class="edge"><title>Node1-&gt;Node12</title>
<path style="fill:none;stroke:midnightblue;" d="M169,330C200,354 174,386 205,411 209,414 213,416 218,418"/>
<polygon style="fill:midnightblue;stroke:midnightblue;" points="219,415 227,422 216,421 219,415"/>
</g>
<g id="node32" class="node"><title>Node13</title>
<a xlink:href="_security_system_8c.html#a1e04428a714d6c8c97cb8685f96933ee" target="_top" xlink:title="Panic">
<polygon style="fill:none;stroke:black;" points="513,261 579,261 579,229 513,229 513,261"/>
<text text-anchor="middle" x="546" y="252" style="font-family:Helvetica;font-size:20.00;">Panic</text>
</a>
</g>
<g id="edge38" class="edge"><title>Node1-&gt;Node13</title>
<path style="fill:none;stroke:midnightblue;" d="M169,298C170,298 172,297 173,297 188,292 190,286 205,281 309,252 437,246 503,245"/>
<polygon style="fill:midnightblue;stroke:midnightblue;" points="503,241 513,245 503,248 503,241"/>
</g>
<g id="node35" class="node"><title>Node14</title>
<a xlink:href="x_p_l_8c.html#a7c4561dc703960b7f5d24ec72ff34ba5" target="_top" xlink:title="SaveKVP">
<polygon style="fill:none;stroke:black;" points="251,493 353,493 353,461 251,461 251,493"/>
<text text-anchor="middle" x="302" y="484" style="font-family:Helvetica;font-size:20.00;">SaveKVP</text>
</a>
</g>
<g id="edge42" class="edge"><title>Node1-&gt;Node14</title>
<path style="fill:none;stroke:midnightblue;" d="M169,330C214,371 161,420 205,461 215,470 228,475 241,477"/>
<polygon style="fill:midnightblue;stroke:midnightblue;" points="242,474 251,479 241,480 242,474"/>
</g>
<g id="node37" class="node"><title>Node15</title>
<a xlink:href="_security_system_8c.html#a9b56fcd765dadf3ef1f50d01c51caf7b" target="_top" xlink:title="SetArming">
<polygon style="fill:none;stroke:black;" points="248,543 357,543 357,511 248,511 248,543"/>
<text text-anchor="middle" x="302" y="534" style="font-family:Helvetica;font-size:20.00;">SetArming</text>
</a>
</g>
<g id="edge44" class="edge"><title>Node1-&gt;Node15</title>
<path style="fill:none;stroke:midnightblue;" d="M169,330C228,387 147,453 205,511 214,520 226,525 238,527"/>
<polygon style="fill:midnightblue;stroke:midnightblue;" points="239,524 248,529 238,530 239,524"/>
</g>
<g id="node39" class="node"><title>Node16</title>
<a xlink:href="_authenticate_8c.html#a207b19b2185ffaa19d1d3f053b996121" target="_top" xlink:title="xPLAuthenticate">
<polygon style="fill:none;stroke:black;" points="221,393 383,393 383,361 221,361 221,393"/>
<text text-anchor="middle" x="302" y="384" style="font-family:Helvetica;font-size:20.00;">xPLAuthenticate</text>
</a>
</g>
<g id="edge46" class="edge"><title>Node1-&gt;Node16</title>
<path style="fill:none;stroke:midnightblue;" d="M169,330C188,339 186,352 205,361 207,362 209,363 211,363"/>
<polygon style="fill:midnightblue;stroke:midnightblue;" points="213,360 221,367 210,367 213,360"/>
</g>
<g id="node61" class="node"><title>Node26</title>
<a xlink:href="x_p_l_8c.html#ace930888808081ff410b21e68caa146e" target="_top" xlink:title="xPLFindArrayInKVP">
<polygon style="fill:none;stroke:black;" points="205,593 399,593 399,561 205,561 205,593"/>
<text text-anchor="middle" x="302" y="584" style="font-family:Helvetica;font-size:20.00;">xPLFindArrayInKVP</text>
</a>
</g>
<g id="edge70" class="edge"><title>Node1-&gt;Node26</title>
<path style="fill:none;stroke:midnightblue;" d="M169,330C239,401 140,481 198,553"/>
<polygon style="fill:midnightblue;stroke:midnightblue;" points="201,551 205,561 196,556 201,551"/>
</g>
<g id="node63" class="node"><title>Node27</title>
<a xlink:href="x_p_l_8c.html#a1099a7d6ccfe562deba149fd4acef424" target="_top" xlink:title="xPLSaveEEConfig">
<polygon style="fill:none;stroke:black;" points="212,643 393,643 393,611 212,611 212,643"/>
<text text-anchor="middle" x="302" y="634" style="font-family:Helvetica;font-size:20.00;">xPLSaveEEConfig</text>
</a>
</g>
<g id="edge72" class="edge"><title>Node1-&gt;Node27</title>
<path style="fill:none;stroke:midnightblue;" d="M169,330C254,419 125,515 205,609"/>
<polygon style="fill:midnightblue;stroke:midnightblue;" points="208,607 212,617 203,612 208,607"/>
</g>
<g id="edge4" class="edge"><title>Node2-&gt;Node3</title>
<path style="fill:none;stroke:midnightblue;" d="M904,247C920,244 936,239 949,229 978,208 959,179 978,155"/>
<polygon style="fill:midnightblue;stroke:midnightblue;" points="975,153 985,148 980,158 975,153"/>
</g>
<g id="edge8" class="edge"><title>Node4-&gt;Node2</title>
<path style="fill:none;stroke:midnightblue;" d="M329,213C401,211 595,209 657,220 679,224 683,230 703,235 711,237 720,239 729,240"/>
<polygon style="fill:midnightblue;stroke:midnightblue;" points="730,237 739,242 729,243 730,237"/>
</g>
<g id="node10" class="node"><title>Node5</title>
<a xlink:href="_security_system_8c.html#ad2cdbcce787b8a3c88addf52f996805f" target="_top" xlink:title="StateChangeToArm">
<polygon style="fill:none;stroke:black;" points="451,173 642,173 642,141 451,141 451,173"/>
<text text-anchor="middle" x="546" y="164" style="font-family:Helvetica;font-size:20.00;">StateChangeToArm</text>
</a>
</g>
<g id="edge10" class="edge"><title>Node4-&gt;Node5</title>
<path style="fill:none;stroke:midnightblue;" d="M329,212C349,210 377,206 399,197 417,190 418,180 435,173 437,172 439,171 441,171"/>
<polygon style="fill:midnightblue;stroke:midnightblue;" points="440,168 451,168 442,174 440,168"/>
</g>
<g id="edge12" class="edge"><title>Node5-&gt;Node2</title>
<path style="fill:none;stroke:midnightblue;" d="M642,165C647,168 652,170 657,173 682,189 668,214 693,229 704,236 716,241 729,244"/>
<polygon style="fill:midnightblue;stroke:midnightblue;" points="730,241 739,246 729,247 730,241"/>
</g>
<g id="node13" class="node"><title>Node6</title>
<a xlink:href="_security_system_8c.html#a2d0a6f4e811adf18c96693529c2d81b4" target="_top" xlink:title="ArmingZoneState">
<polygon style="fill:none;stroke:black;" points="735,142 907,142 907,110 735,110 735,142"/>
<text text-anchor="middle" x="821" y="133" style="font-family:Helvetica;font-size:20.00;">ArmingZoneState</text>
</a>
</g>
<g id="edge14" class="edge"><title>Node5-&gt;Node6</title>
<path style="fill:none;stroke:midnightblue;" d="M642,146C669,143 698,140 725,137"/>
<polygon style="fill:midnightblue;stroke:midnightblue;" points="725,134 735,136 725,140 725,134"/>
</g>
<g id="node15" class="node"><title>Node7</title>
<a xlink:href="_security_system_8c.html#a290b0da69aaf212aa38c219c45a6d8a9" target="_top" xlink:title="isZoneMemberOfArea">
<polygon style="fill:none;stroke:black;" points="715,192 928,192 928,160 715,160 715,192"/>
<text text-anchor="middle" x="821" y="183" style="font-family:Helvetica;font-size:20.00;">isZoneMemberOfArea</text>
</a>
</g>
<g id="edge16" class="edge"><title>Node5-&gt;Node7</title>
<path style="fill:none;stroke:midnightblue;" d="M642,164C662,165 684,166 705,168"/>
<polygon style="fill:midnightblue;stroke:midnightblue;" points="705,165 715,169 705,171 705,165"/>
</g>
<g id="edge20" class="edge"><title>Node8-&gt;Node5</title>
<path style="fill:none;stroke:midnightblue;" d="M353,120C368,122 384,126 399,129 416,134 419,138 435,141 437,141 439,142 441,142"/>
<polygon style="fill:midnightblue;stroke:midnightblue;" points="442,139 451,145 440,145 442,139"/>
</g>
<g id="edge24" class="edge"><title>Node9-&gt;Node5</title>
<path style="fill:none;stroke:midnightblue;" d="M355,162C380,161 411,160 441,159"/>
<polygon style="fill:midnightblue;stroke:midnightblue;" points="441,155 451,159 441,162 441,155"/>
</g>
<g id="edge28" class="edge"><title>Node10-&gt;Node5</title>
<path style="fill:none;stroke:midnightblue;" d="M369,66C380,69 390,73 399,79 426,98 409,124 435,141 437,142 439,144 442,145"/>
<polygon style="fill:midnightblue;stroke:midnightblue;" points="443,142 451,149 440,148 443,142"/>
</g>
<g id="edge34" class="edge"><title>Node11-&gt;Node2</title>
<path style="fill:none;stroke:midnightblue;" d="M586,335C609,334 636,330 657,317 682,302 668,277 693,261 704,255 716,250 729,247"/>
<polygon style="fill:midnightblue;stroke:midnightblue;" points="729,244 739,245 730,250 729,244"/>
</g>
<g id="edge40" class="edge"><title>Node13-&gt;Node2</title>
<path style="fill:none;stroke:midnightblue;" d="M579,245C616,245 677,245 729,245"/>
<polygon style="fill:midnightblue;stroke:midnightblue;" points="729,241 739,245 729,248 729,241"/>
</g>
<g id="edge48" class="edge"><title>Node16-&gt;Node2</title>
<path style="fill:none;stroke:midnightblue;" d="M383,382C474,386 615,388 657,358 666,351 686,277 693,269 696,266 711,262 729,259"/>
<polygon style="fill:midnightblue;stroke:midnightblue;" points="729,256 739,257 730,262 729,256"/>
</g>
<g id="node42" class="node"><title>Node17</title>
<a xlink:href="_a_e_s_8c.html#a7cc41315b74814b03832fc37ffc835ce" target="_top" xlink:title="AESCalcDecodeKey">
<polygon style="fill:none;stroke:black;" points="447,437 646,437 646,405 447,405 447,437"/>
<text text-anchor="middle" x="546" y="428" style="font-family:Helvetica;font-size:20.00;">AESCalcDecodeKey</text>
</a>
</g>
<g id="edge50" class="edge"><title>Node16-&gt;Node17</title>
<path style="fill:none;stroke:midnightblue;" d="M383,389C388,390 394,392 399,393 416,397 419,401 435,405 436,405 436,405 437,406"/>
<polygon style="fill:midnightblue;stroke:midnightblue;" points="438,403 447,408 437,409 438,403"/>
</g>
<g id="node46" class="node"><title>Node19</title>
<a xlink:href="_a_e_s_8c.html#a7f4a8c317d988a237650447bd91ea792" target="_top" xlink:title="AESDecode">
<polygon style="fill:none;stroke:black;" points="484,487 609,487 609,455 484,455 484,487"/>
<text text-anchor="middle" x="546" y="478" style="font-family:Helvetica;font-size:20.00;">AESDecode</text>
</a>
</g>
<g id="edge54" class="edge"><title>Node16-&gt;Node19</title>
<path style="fill:none;stroke:midnightblue;" d="M383,385C389,387 394,390 399,393 426,411 409,437 435,455 446,462 460,467 474,469"/>
<polygon style="fill:midnightblue;stroke:midnightblue;" points="475,466 484,471 474,472 475,466"/>
</g>
<g id="node52" class="node"><title>Node22</title>
<a xlink:href="_authenticate_8c.html#accacf14baedf98bbdcea140a8f3cd3eb" target="_top" xlink:title="Authenticate">
<polygon style="fill:none;stroke:black;" points="483,537 610,537 610,505 483,505 483,537"/>
<text text-anchor="middle" x="546" y="528" style="font-family:Helvetica;font-size:20.00;">Authenticate</text>
</a>
</g>
<g id="edge60" class="edge"><title>Node16-&gt;Node22</title>
<path style="fill:none;stroke:midnightblue;" d="M383,383C389,385 394,389 399,393 439,427 396,471 435,505 445,514 459,519 473,522"/>
<polygon style="fill:midnightblue;stroke:midnightblue;" points="474,519 483,524 473,525 474,519"/>
</g>
<g id="node56" class="node"><title>Node24</title>
<a xlink:href="_authenticate_8c.html#ae2103408fea706307404b433f103eb56" target="_top" xlink:title="LoadUserPasswordEEdata">
<polygon style="fill:none;stroke:black;" points="693,587 949,587 949,555 693,555 693,587"/>
<text text-anchor="middle" x="821" y="578" style="font-family:Helvetica;font-size:20.00;">LoadUserPasswordEEdata</text>
</a>
</g>
<g id="edge66" class="edge"><title>Node16-&gt;Node24</title>
<path style="fill:none;stroke:midnightblue;" d="M383,387C390,390 397,395 403,400 417,412 421,416 427,434 430,440 430,442 431,450 432,455 432,542 435,546 469,580 587,584 683,580"/>
<polygon style="fill:midnightblue;stroke:midnightblue;" points="683,576 693,580 683,583 683,576"/>
</g>
<g id="node59" class="node"><title>Node25</title>
<a xlink:href="_custom_s_n_t_p_8c.html#a3a2bcda2ac33aacd49d652a93f9031b1" target="_top" xlink:title="SNTPGetUTCSeconds">
<polygon style="fill:none;stroke:black;" points="436,625 657,625 657,593 436,593 436,625"/>
<text text-anchor="middle" x="546" y="616" style="font-family:Helvetica;font-size:20.00;">SNTPGetUTCSeconds</text>
</a>
</g>
<g id="edge68" class="edge"><title>Node16-&gt;Node25</title>
<path style="fill:none;stroke:midnightblue;" d="M383,382C389,385 394,388 399,393 461,454 378,524 429,586"/>
<polygon style="fill:midnightblue;stroke:midnightblue;" points="432,584 436,594 427,589 432,584"/>
</g>
<g id="node44" class="node"><title>Node18</title>
<a xlink:href="_a_e_s_8c.html#a1469592c00f30a3ef472b7213bbec988" target="_top" xlink:title="EncKeySchedule">
<polygon style="fill:none;stroke:black;" points="737,387 905,387 905,355 737,355 737,387"/>
<text text-anchor="middle" x="821" y="378" style="font-family:Helvetica;font-size:20.00;">EncKeySchedule</text>
</a>
</g>
<g id="edge52" class="edge"><title>Node17-&gt;Node18</title>
<path style="fill:none;stroke:midnightblue;" d="M646,408C650,407 654,406 657,405 675,399 676,392 693,387 704,384 715,381 727,379"/>
<polygon style="fill:midnightblue;stroke:midnightblue;" points="727,376 737,377 728,382 727,376"/>
</g>
<g id="node48" class="node"><title>Node20</title>
<a xlink:href="_a_e_s_8c.html#ab28514c50685365342e4f65c68979812" target="_top" xlink:title="DecKeySchedule">
<polygon style="fill:none;stroke:black;" points="737,437 906,437 906,405 737,405 737,437"/>
<text text-anchor="middle" x="821" y="428" style="font-family:Helvetica;font-size:20.00;">DecKeySchedule</text>
</a>
</g>
<g id="edge56" class="edge"><title>Node19-&gt;Node20</title>
<path style="fill:none;stroke:midnightblue;" d="M609,465C625,463 642,459 657,455 675,449 676,442 693,437 704,434 715,431 727,429"/>
<polygon style="fill:midnightblue;stroke:midnightblue;" points="727,426 737,427 728,432 727,426"/>
</g>
<g id="node50" class="node"><title>Node21</title>
<a xlink:href="_a_e_s_8c.html#ae3f9a7acb862eae95aeac5f1dda91782" target="_top" xlink:title="DecodeShiftRow">
<polygon style="fill:none;stroke:black;" points="739,487 904,487 904,455 739,455 739,487"/>
<text text-anchor="middle" x="821" y="478" style="font-family:Helvetica;font-size:20.00;">DecodeShiftRow</text>
</a>
</g>
<g id="edge58" class="edge"><title>Node19-&gt;Node21</title>
<path style="fill:none;stroke:midnightblue;" d="M609,471C644,471 689,471 729,471"/>
<polygon style="fill:midnightblue;stroke:midnightblue;" points="729,467 739,471 729,474 729,467"/>
</g>
<g id="node54" class="node"><title>Node23</title>
<a xlink:href="_authenticate_8c.html#ad9ccab53e1332706a0181ea3d79c6ee6" target="_top" xlink:title="LoadUserNameEEdata">
<polygon style="fill:none;stroke:black;" points="710,537 932,537 932,505 710,505 710,537"/>
<text text-anchor="middle" x="821" y="528" style="font-family:Helvetica;font-size:20.00;">LoadUserNameEEdata</text>
</a>
</g>
<g id="edge62" class="edge"><title>Node22-&gt;Node23</title>
<path style="fill:none;stroke:midnightblue;" d="M610,521C637,521 669,521 700,521"/>
<polygon style="fill:midnightblue;stroke:midnightblue;" points="700,517 710,521 700,524 700,517"/>
</g>
<g id="edge64" class="edge"><title>Node22-&gt;Node24</title>
<path style="fill:none;stroke:midnightblue;" d="M610,527C626,529 642,532 657,537 671,541 675,546 684,551"/>
<polygon style="fill:midnightblue;stroke:midnightblue;" points="685,548 693,555 682,554 685,548"/>
</g>
</g>
</svg>
