<?xml version="1.0" encoding="UTF-8" standalone="no"?>
<!DOCTYPE svg PUBLIC "-//W3C//DTD SVG 1.0//EN"
 "http://www.w3.org/TR/2001/REC-SVG-20010904/DTD/svg10.dtd" [
 <!ATTLIST svg xmlns:xlink CDATA #FIXED "http://www.w3.org/1999/xlink">
]>
<!-- Generated by dot version 1.13 (v16) (Mon August 23, 2004)
     For user: (jarrodneven) Jarrod  Neven   Title: G    Pages: 1 -->
<svg width="622pt" height="44pt"
 viewBox = "-1 -1 621 43"
 xmlns="http://www.w3.org/2000/svg" xmlns:xlink="http://www.w3.org/1999/xlink">
<g id="graph0" class="graph" style="font-family:Times-Roman;font-size:14.00;">
<title>G</title>
<g id="node1" class="node"><title>Node1</title>
<polygon style="fill:#bfbfbf;stroke:black;" points="6,36 139,36 139,4 6,4 6,36"/>
<text text-anchor="middle" x="72" y="27" style="font-family:Helvetica;font-size:20.00;">XPLSendHeartBeat</text>
</g>
<g id="node3" class="node"><title>Node2</title>
<a xlink:href="x_p_l_8c.html#a07f019fb7de86ef4bfe4cab422be0969" target="_top" xlink:title="XPLHeartBeatTiming">
<polygon style="fill:none;stroke:black;" points="176,36 379,36 379,4 176,4 176,36"/>
<text text-anchor="middle" x="277" y="27" style="font-family:Helvetica;font-size:20.00;">XPLHeartBeatTiming</text>
</a>
</g>
<g id="edge2" class="edge"><title>Node1-&gt;Node2</title>
<path style="fill:none;stroke:midnightblue;" d="M149,20C158,20 167,20 176,20"/>
<polygon style="fill:midnightblue;stroke:midnightblue;" points="149,23 139,20 149,16 149,23"/>
</g>
<g id="node5" class="node"><title>Node3</title>
<a xlink:href="x_p_l_8h.html#a86d914c966f337c4e3a6fda46a945d11" target="_top" xlink:title="XPLTasks">
<polygon style="fill:none;stroke:black;" points="416,36 519,36 519,4 416,4 416,36"/>
<text text-anchor="middle" x="467" y="27" style="font-family:Helvetica;font-size:20.00;">XPLTasks</text>
</a>
</g>
<g id="edge4" class="edge"><title>Node2-&gt;Node3</title>
<path style="fill:none;stroke:midnightblue;" d="M389,20C398,20 407,20 416,20"/>
<polygon style="fill:midnightblue;stroke:midnightblue;" points="389,23 379,20 389,16 389,23"/>
</g>
<g id="node7" class="node"><title>Node4</title>
<a xlink:href="_main_demo_8c.html#a6288eba0f8e8ad3ab1544ad731eb7667" target="_top" xlink:title="main">
<polygon style="fill:none;stroke:black;" points="556,36 615,36 615,4 556,4 556,36"/>
<text text-anchor="middle" x="585" y="27" style="font-family:Helvetica;font-size:20.00;">main</text>
</a>
</g>
<g id="edge6" class="edge"><title>Node3-&gt;Node4</title>
<path style="fill:none;stroke:midnightblue;" d="M529,20C539,20 548,20 556,20"/>
<polygon style="fill:midnightblue;stroke:midnightblue;" points="529,23 519,20 529,16 529,23"/>
</g>
</g>
</svg>
