<?xml version="1.0" encoding="UTF-8" standalone="no"?>
<!DOCTYPE svg PUBLIC "-//W3C//DTD SVG 1.0//EN"
 "http://www.w3.org/TR/2001/REC-SVG-20010904/DTD/svg10.dtd" [
 <!ATTLIST svg xmlns:xlink CDATA #FIXED "http://www.w3.org/1999/xlink">
]>
<!-- Generated by dot version 1.13 (v16) (Mon August 23, 2004)
     For user: (jarrodneven) Jarrod  Neven   Title: G    Pages: 1 -->
<svg width="902pt" height="44pt"
 viewBox = "-1 -1 901 43"
 xmlns="http://www.w3.org/2000/svg" xmlns:xlink="http://www.w3.org/1999/xlink">
<g id="graph0" class="graph" style="font-family:Times-Roman;font-size:14.00;">
<title>G</title>
<g id="node1" class="node"><title>Node1</title>
<polygon style="fill:#bfbfbf;stroke:black;" points="5,36 139,36 139,4 5,4 5,36"/>
<text text-anchor="middle" x="72" y="27" style="font-family:Helvetica;font-size:20.00;">xPLFindArrayInKVP</text>
</g>
<g id="node3" class="node"><title>Node2</title>
<a xlink:href="x_p_l_8h.html#a3baecc6556e5cc7af0d59d0216aa217c" target="_top" xlink:title="SchemaProcessUDPMsg">
<polygon style="fill:none;stroke:black;" points="175,36 417,36 417,4 175,4 175,36"/>
<text text-anchor="middle" x="296" y="27" style="font-family:Helvetica;font-size:20.00;">SchemaProcessUDPMsg</text>
</a>
</g>
<g id="edge2" class="edge"><title>Node1-&gt;Node2</title>
<path style="fill:none;stroke:midnightblue;" d="M149,20C157,20 166,20 175,20"/>
<polygon style="fill:midnightblue;stroke:midnightblue;" points="149,23 139,20 149,16 149,23"/>
</g>
<g id="node5" class="node"><title>Node3</title>
<a xlink:href="x_p_l_8c.html#a41c59f641ff95b999e66c0d45117b73d" target="_top" xlink:title="XPLProcessUDPMsg">
<polygon style="fill:none;stroke:black;" points="453,36 659,36 659,4 453,4 453,36"/>
<text text-anchor="middle" x="556" y="27" style="font-family:Helvetica;font-size:20.00;">XPLProcessUDPMsg</text>
</a>
</g>
<g id="edge4" class="edge"><title>Node2-&gt;Node3</title>
<path style="fill:none;stroke:midnightblue;" d="M427,20C436,20 444,20 453,20"/>
<polygon style="fill:midnightblue;stroke:midnightblue;" points="427,23 417,20 427,16 427,23"/>
</g>
<g id="node7" class="node"><title>Node4</title>
<a xlink:href="x_p_l_8h.html#a86d914c966f337c4e3a6fda46a945d11" target="_top" xlink:title="XPLTasks">
<polygon style="fill:none;stroke:black;" points="696,36 799,36 799,4 696,4 696,36"/>
<text text-anchor="middle" x="747" y="27" style="font-family:Helvetica;font-size:20.00;">XPLTasks</text>
</a>
</g>
<g id="edge6" class="edge"><title>Node3-&gt;Node4</title>
<path style="fill:none;stroke:midnightblue;" d="M669,20C678,20 687,20 696,20"/>
<polygon style="fill:midnightblue;stroke:midnightblue;" points="669,23 659,20 669,16 669,23"/>
</g>
<g id="node9" class="node"><title>Node5</title>
<a xlink:href="_main_demo_8c.html#a6288eba0f8e8ad3ab1544ad731eb7667" target="_top" xlink:title="main">
<polygon style="fill:none;stroke:black;" points="836,36 895,36 895,4 836,4 836,36"/>
<text text-anchor="middle" x="865" y="27" style="font-family:Helvetica;font-size:20.00;">main</text>
</a>
</g>
<g id="edge8" class="edge"><title>Node4-&gt;Node5</title>
<path style="fill:none;stroke:midnightblue;" d="M809,20C819,20 828,20 836,20"/>
<polygon style="fill:midnightblue;stroke:midnightblue;" points="809,23 799,20 809,16 809,23"/>
</g>
</g>
</svg>
