<?xml version="1.0" encoding="UTF-8" standalone="no"?>
<!DOCTYPE svg PUBLIC "-//W3C//DTD SVG 1.0//EN"
 "http://www.w3.org/TR/2001/REC-SVG-20010904/DTD/svg10.dtd" [
 <!ATTLIST svg xmlns:xlink CDATA #FIXED "http://www.w3.org/1999/xlink">
]>
<!-- Generated by dot version 1.13 (v16) (Mon August 23, 2004)
     For user: (jarrodneven) Jarrod  Neven   Title: G    Pages: 1 -->
<svg width="2122pt" height="112pt"
 viewBox = "-1 -1 2121 111"
 xmlns="http://www.w3.org/2000/svg" xmlns:xlink="http://www.w3.org/1999/xlink">
<g id="graph0" class="graph" style="font-family:Times-Roman;font-size:14.00;">
<title>G</title>
<g id="node1" class="node"><title>Node1</title>
<polygon style="fill:#bfbfbf;stroke:black;" points="966,36 1078,36 1078,4 966,4 966,36"/>
<text text-anchor="middle" x="1022" y="27" style="font-family:Helvetica;font-size:20.00;">PIC Code/xPL.h</text>
</g>
<g id="node3" class="node"><title>Node2</title>
<a xlink:href="_authenticate_8c.html" target="_top" xlink:title="Authenication, xPL and web.">
<polygon style="fill:none;stroke:black;" points="5,104 240,104 240,72 5,72 5,104"/>
<text text-anchor="middle" x="122" y="95" style="font-family:Helvetica;font-size:20.00;">PIC Code/Authenticate.c</text>
</a>
</g>
<g id="edge2" class="edge"><title>Node1-&gt;Node2</title>
<path style="fill:none;stroke:midnightblue;" d="M956,38C646,88 559,43 240,72"/>
<polygon style="fill:midnightblue;stroke:midnightblue;" points="956,35 966,36 957,41 956,35"/>
</g>
<g id="node5" class="node"><title>Node3</title>
<a xlink:href="_battery_8c.html" target="_top" xlink:title="Backup battery management.">
<polygon style="fill:none;stroke:black;" points="257,104 443,104 443,72 257,72 257,104"/>
<text text-anchor="middle" x="350" y="95" style="font-family:Helvetica;font-size:20.00;">PIC Code/Battery.c</text>
</a>
</g>
<g id="edge4" class="edge"><title>Node1-&gt;Node3</title>
<path style="fill:none;stroke:midnightblue;" d="M956,38C735,76 672,45 443,72"/>
<polygon style="fill:midnightblue;stroke:midnightblue;" points="956,35 966,36 957,41 956,35"/>
</g>
<g id="node7" class="node"><title>Node4</title>
<a xlink:href="_e_o_l_8c.html" target="_top" xlink:title="End Of Line detection, hardware interface.">
<polygon style="fill:none;stroke:black;" points="461,104 625,104 625,72 461,72 461,104"/>
<text text-anchor="middle" x="543" y="95" style="font-family:Helvetica;font-size:20.00;">PIC Code/EOL.c</text>
</a>
</g>
<g id="edge6" class="edge"><title>Node1-&gt;Node4</title>
<path style="fill:none;stroke:midnightblue;" d="M956,38C815,65 773,50 625,72"/>
<polygon style="fill:midnightblue;stroke:midnightblue;" points="956,35 966,36 957,41 956,35"/>
</g>
<g id="node9" class="node"><title>Node5</title>
<a xlink:href="_h_t_t_p_forms_8c.html" target="_top" xlink:title="Processes data from HTML forms.">
<polygon style="fill:none;stroke:black;" points="643,104 876,104 876,72 643,72 643,104"/>
<text text-anchor="middle" x="759" y="95" style="font-family:Helvetica;font-size:20.00;">PIC Code/HTTPForms.c</text>
</a>
</g>
<g id="edge8" class="edge"><title>Node1-&gt;Node5</title>
<path style="fill:none;stroke:midnightblue;" d="M956,39C913,51 864,63 826,72"/>
<polygon style="fill:midnightblue;stroke:midnightblue;" points="955,36 966,36 957,42 955,36"/>
</g>
<g id="node11" class="node"><title>Node6</title>
<a xlink:href="_h_t_t_p_variables_8c.html" target="_top" xlink:title="All HTML variables are defined here.">
<polygon style="fill:none;stroke:black;" points="893,104 1151,104 1151,72 893,72 893,104"/>
<text text-anchor="middle" x="1022" y="95" style="font-family:Helvetica;font-size:20.00;">PIC Code/HTTPVariables.c</text>
</a>
</g>
<g id="edge10" class="edge"><title>Node1-&gt;Node6</title>
<path style="fill:none;stroke:midnightblue;" d="M1022,46C1022,55 1022,64 1022,72"/>
<polygon style="fill:midnightblue;stroke:midnightblue;" points="1019,46 1022,36 1026,46 1019,46"/>
</g>
<g id="node13" class="node"><title>Node7</title>
<a xlink:href="_security_system_8c.html" target="_top" xlink:title="Main of security.">
<polygon style="fill:none;stroke:black;" points="1169,104 1432,104 1432,72 1169,72 1169,104"/>
<text text-anchor="middle" x="1300" y="95" style="font-family:Helvetica;font-size:20.00;">PIC Code/SecuritySystem.c</text>
</a>
</g>
<g id="edge12" class="edge"><title>Node1-&gt;Node7</title>
<path style="fill:none;stroke:midnightblue;" d="M1088,39C1134,51 1186,63 1227,72"/>
<polygon style="fill:midnightblue;stroke:midnightblue;" points="1087,42 1078,36 1089,36 1087,42"/>
</g>
<g id="node15" class="node"><title>Node8</title>
<a xlink:href="_security_x_p_l_sender_8c.html" target="_top" xlink:title="Sends all security xPL messages.">
<polygon style="fill:none;stroke:black;" points="1449,104 1746,104 1746,72 1449,72 1449,104"/>
<text text-anchor="middle" x="1597" y="95" style="font-family:Helvetica;font-size:20.00;">PIC Code/SecurityXPLSender.c</text>
</a>
</g>
<g id="edge14" class="edge"><title>Node1-&gt;Node8</title>
<path style="fill:none;stroke:midnightblue;" d="M1088,38C1242,67 1288,56 1449,72"/>
<polygon style="fill:midnightblue;stroke:midnightblue;" points="1087,41 1078,36 1088,35 1087,41"/>
</g>
<g id="node17" class="node"><title>Node9</title>
<a xlink:href="_s_m_t_p_8c.html" target="_top" xlink:title="All things Email.">
<polygon style="fill:none;stroke:black;" points="1763,104 1940,104 1940,72 1763,72 1763,104"/>
<text text-anchor="middle" x="1851" y="95" style="font-family:Helvetica;font-size:20.00;">PIC Code/SMTP.c</text>
</a>
</g>
<g id="edge16" class="edge"><title>Node1-&gt;Node9</title>
<path style="fill:none;stroke:midnightblue;" d="M1088,38C1380,86 1463,37 1763,72"/>
<polygon style="fill:midnightblue;stroke:midnightblue;" points="1087,41 1078,36 1088,35 1087,41"/>
</g>
<g id="node19" class="node"><title>Node10</title>
<a xlink:href="x_p_l_8c.html" target="_top" xlink:title="xPL Framework">
<polygon style="fill:none;stroke:black;" points="1957,104 2115,104 2115,72 1957,72 1957,104"/>
<text text-anchor="middle" x="2036" y="95" style="font-family:Helvetica;font-size:20.00;">PIC Code/xPL.c</text>
</a>
</g>
<g id="edge18" class="edge"><title>Node1-&gt;Node10</title>
<path style="fill:none;stroke:midnightblue;" d="M1088,38C1466,98 1571,26 1957,72"/>
<polygon style="fill:midnightblue;stroke:midnightblue;" points="1087,41 1078,36 1088,35 1087,41"/>
</g>
</g>
</svg>
