<?xml version="1.0" encoding="UTF-8" standalone="no"?>
<!DOCTYPE svg PUBLIC "-//W3C//DTD SVG 1.0//EN"
 "http://www.w3.org/TR/2001/REC-SVG-20010904/DTD/svg10.dtd" [
 <!ATTLIST svg xmlns:xlink CDATA #FIXED "http://www.w3.org/1999/xlink">
]>
<!-- Generated by dot version 1.13 (v16) (Mon August 23, 2004)
     For user: (jarrodneven) Jarrod  Neven   Title: G    Pages: 1 -->
<svg width="586pt" height="44pt"
 viewBox = "-1 -1 585 43"
 xmlns="http://www.w3.org/2000/svg" xmlns:xlink="http://www.w3.org/1999/xlink">
<g id="graph0" class="graph" style="font-family:Times-Roman;font-size:14.00;">
<title>G</title>
<g id="node1" class="node"><title>Node1</title>
<polygon style="fill:#bfbfbf;stroke:black;" points="5,36 149,36 149,4 5,4 5,36"/>
<text text-anchor="middle" x="77" y="27" style="font-family:Helvetica;font-size:20.00;">XPLHeartBeatTiming</text>
</g>
<g id="node3" class="node"><title>Node2</title>
<a xlink:href="x_p_l_8c.html#abc8f282f2ce56cb62d7e149120130c72" target="_top" xlink:title="XPLSendHeartBeat">
<polygon style="fill:none;stroke:black;" points="186,36 377,36 377,4 186,4 186,36"/>
<text text-anchor="middle" x="281" y="27" style="font-family:Helvetica;font-size:20.00;">XPLSendHeartBeat</text>
</a>
</g>
<g id="edge2" class="edge"><title>Node1-&gt;Node2</title>
<path style="fill:none;stroke:midnightblue;" d="M149,20C158,20 167,20 176,20"/>
<polygon style="fill:midnightblue;stroke:midnightblue;" points="176,16 186,20 176,23 176,16"/>
</g>
<g id="node5" class="node"><title>Node3</title>
<a xlink:href="x_p_l_8c.html#abde6ae0f37ef47bee8e881bba8502169" target="_top" xlink:title="XPLSendHeader">
<polygon style="fill:none;stroke:black;" points="413,36 579,36 579,4 413,4 413,36"/>
<text text-anchor="middle" x="496" y="27" style="font-family:Helvetica;font-size:20.00;">XPLSendHeader</text>
</a>
</g>
<g id="edge4" class="edge"><title>Node2-&gt;Node3</title>
<path style="fill:none;stroke:midnightblue;" d="M377,20C386,20 394,20 403,20"/>
<polygon style="fill:midnightblue;stroke:midnightblue;" points="403,16 413,20 403,23 403,16"/>
</g>
</g>
</svg>
