<?xml version="1.0" encoding="UTF-8" standalone="no"?>
<!DOCTYPE svg PUBLIC "-//W3C//DTD SVG 1.0//EN"
 "http://www.w3.org/TR/2001/REC-SVG-20010904/DTD/svg10.dtd" [
 <!ATTLIST svg xmlns:xlink CDATA #FIXED "http://www.w3.org/1999/xlink">
]>
<!-- Generated by dot version 1.13 (v16) (Mon August 23, 2004)
     For user: (jarrodneven) Jarrod  Neven   Title: G    Pages: 1 -->
<svg width="386pt" height="44pt"
 viewBox = "-1 -1 385 43"
 xmlns="http://www.w3.org/2000/svg" xmlns:xlink="http://www.w3.org/1999/xlink">
<g id="graph0" class="graph" style="font-family:Times-Roman;font-size:14.00;">
<title>G</title>
<g id="node1" class="node"><title>Node1</title>
<polygon style="fill:#bfbfbf;stroke:black;" points="5,36 143,36 143,4 5,4 5,36"/>
<text text-anchor="middle" x="74" y="27" style="font-family:Helvetica;font-size:20.00;">XPLProcessUDPMsg</text>
</g>
<g id="node3" class="node"><title>Node2</title>
<a xlink:href="x_p_l_8h.html#a86d914c966f337c4e3a6fda46a945d11" target="_top" xlink:title="XPLTasks">
<polygon style="fill:none;stroke:black;" points="180,36 283,36 283,4 180,4 180,36"/>
<text text-anchor="middle" x="231" y="27" style="font-family:Helvetica;font-size:20.00;">XPLTasks</text>
</a>
</g>
<g id="edge2" class="edge"><title>Node1-&gt;Node2</title>
<path style="fill:none;stroke:midnightblue;" d="M153,20C162,20 171,20 180,20"/>
<polygon style="fill:midnightblue;stroke:midnightblue;" points="153,23 143,20 153,16 153,23"/>
</g>
<g id="node5" class="node"><title>Node3</title>
<a xlink:href="_main_demo_8c.html#a6288eba0f8e8ad3ab1544ad731eb7667" target="_top" xlink:title="main">
<polygon style="fill:none;stroke:black;" points="320,36 379,36 379,4 320,4 320,36"/>
<text text-anchor="middle" x="349" y="27" style="font-family:Helvetica;font-size:20.00;">main</text>
</a>
</g>
<g id="edge4" class="edge"><title>Node2-&gt;Node3</title>
<path style="fill:none;stroke:midnightblue;" d="M293,20C303,20 312,20 320,20"/>
<polygon style="fill:midnightblue;stroke:midnightblue;" points="293,23 283,20 293,16 293,23"/>
</g>
</g>
</svg>
