<?xml version="1.0" encoding="UTF-8" standalone="no"?>
<!DOCTYPE svg PUBLIC "-//W3C//DTD SVG 1.0//EN"
 "http://www.w3.org/TR/2001/REC-SVG-20010904/DTD/svg10.dtd" [
 <!ATTLIST svg xmlns:xlink CDATA #FIXED "http://www.w3.org/1999/xlink">
]>
<!-- Generated by dot version 1.13 (v16) (Mon August 23, 2004)
     For user: (jarrodneven) Jarrod  Neven   Title: G    Pages: 1 -->
<svg width="938pt" height="44pt"
 viewBox = "-1 -1 937 43"
 xmlns="http://www.w3.org/2000/svg" xmlns:xlink="http://www.w3.org/1999/xlink">
<g id="graph0" class="graph" style="font-family:Times-Roman;font-size:14.00;">
<title>G</title>
<g id="node1" class="node"><title>Node1</title>
<polygon style="fill:#bfbfbf;stroke:black;" points="6,36 145,36 145,4 6,4 6,36"/>
<text text-anchor="middle" x="75" y="27" style="font-family:Helvetica;font-size:20.00;">xPLProcessMsgChar</text>
</g>
<g id="node3" class="node"><title>Node2</title>
<a xlink:href="x_p_l_8c.html#af740a9e5684491e3dcbe5b0198f98860" target="_top" xlink:title="XPLProcessUDPMsgHeader">
<polygon style="fill:none;stroke:black;" points="181,36 453,36 453,4 181,4 181,36"/>
<text text-anchor="middle" x="317" y="27" style="font-family:Helvetica;font-size:20.00;">XPLProcessUDPMsgHeader</text>
</a>
</g>
<g id="edge2" class="edge"><title>Node1-&gt;Node2</title>
<path style="fill:none;stroke:midnightblue;" d="M155,20C163,20 172,20 181,20"/>
<polygon style="fill:midnightblue;stroke:midnightblue;" points="155,23 145,20 155,16 155,23"/>
</g>
<g id="node5" class="node"><title>Node3</title>
<a xlink:href="x_p_l_8c.html#a41c59f641ff95b999e66c0d45117b73d" target="_top" xlink:title="XPLProcessUDPMsg">
<polygon style="fill:none;stroke:black;" points="489,36 695,36 695,4 489,4 489,36"/>
<text text-anchor="middle" x="592" y="27" style="font-family:Helvetica;font-size:20.00;">XPLProcessUDPMsg</text>
</a>
</g>
<g id="edge4" class="edge"><title>Node2-&gt;Node3</title>
<path style="fill:none;stroke:midnightblue;" d="M463,20C472,20 480,20 489,20"/>
<polygon style="fill:midnightblue;stroke:midnightblue;" points="463,23 453,20 463,16 463,23"/>
</g>
<g id="node7" class="node"><title>Node4</title>
<a xlink:href="x_p_l_8h.html#a86d914c966f337c4e3a6fda46a945d11" target="_top" xlink:title="XPLTasks">
<polygon style="fill:none;stroke:black;" points="732,36 835,36 835,4 732,4 732,36"/>
<text text-anchor="middle" x="783" y="27" style="font-family:Helvetica;font-size:20.00;">XPLTasks</text>
</a>
</g>
<g id="edge6" class="edge"><title>Node3-&gt;Node4</title>
<path style="fill:none;stroke:midnightblue;" d="M705,20C714,20 723,20 732,20"/>
<polygon style="fill:midnightblue;stroke:midnightblue;" points="705,23 695,20 705,16 705,23"/>
</g>
<g id="node9" class="node"><title>Node5</title>
<a xlink:href="_main_demo_8c.html#a6288eba0f8e8ad3ab1544ad731eb7667" target="_top" xlink:title="main">
<polygon style="fill:none;stroke:black;" points="872,36 931,36 931,4 872,4 872,36"/>
<text text-anchor="middle" x="901" y="27" style="font-family:Helvetica;font-size:20.00;">main</text>
</a>
</g>
<g id="edge8" class="edge"><title>Node4-&gt;Node5</title>
<path style="fill:none;stroke:midnightblue;" d="M845,20C855,20 864,20 872,20"/>
<polygon style="fill:midnightblue;stroke:midnightblue;" points="845,23 835,20 845,16 845,23"/>
</g>
</g>
</svg>
