<?xml version="1.0" encoding="UTF-8" standalone="no"?>
<!DOCTYPE svg PUBLIC "-//W3C//DTD SVG 1.0//EN"
 "http://www.w3.org/TR/2001/REC-SVG-20010904/DTD/svg10.dtd" [
 <!ATTLIST svg xmlns:xlink CDATA #FIXED "http://www.w3.org/1999/xlink">
]>
<!-- Generated by dot version 1.13 (v16) (Mon August 23, 2004)
     For user: (jarrodneven) Jarrod  Neven   Title: G    Pages: 1 -->
<svg width="950pt" height="44pt"
 viewBox = "-1 -1 949 43"
 xmlns="http://www.w3.org/2000/svg" xmlns:xlink="http://www.w3.org/1999/xlink">
<g id="graph0" class="graph" style="font-family:Times-Roman;font-size:14.00;">
<title>G</title>
<g id="node1" class="node"><title>Node1</title>
<polygon style="fill:#bfbfbf;stroke:black;" points="6,36 157,36 157,4 6,4 6,36"/>
<text text-anchor="middle" x="81" y="27" style="font-family:Helvetica;font-size:20.00;">xPLProcessSaveValue</text>
</g>
<g id="node3" class="node"><title>Node2</title>
<a xlink:href="x_p_l_8c.html#af740a9e5684491e3dcbe5b0198f98860" target="_top" xlink:title="XPLProcessUDPMsgHeader">
<polygon style="fill:none;stroke:black;" points="193,36 465,36 465,4 193,4 193,36"/>
<text text-anchor="middle" x="329" y="27" style="font-family:Helvetica;font-size:20.00;">XPLProcessUDPMsgHeader</text>
</a>
</g>
<g id="edge2" class="edge"><title>Node1-&gt;Node2</title>
<path style="fill:none;stroke:midnightblue;" d="M167,20C175,20 184,20 193,20"/>
<polygon style="fill:midnightblue;stroke:midnightblue;" points="167,23 157,20 167,16 167,23"/>
</g>
<g id="node5" class="node"><title>Node3</title>
<a xlink:href="x_p_l_8c.html#a41c59f641ff95b999e66c0d45117b73d" target="_top" xlink:title="XPLProcessUDPMsg">
<polygon style="fill:none;stroke:black;" points="501,36 707,36 707,4 501,4 501,36"/>
<text text-anchor="middle" x="604" y="27" style="font-family:Helvetica;font-size:20.00;">XPLProcessUDPMsg</text>
</a>
</g>
<g id="edge4" class="edge"><title>Node2-&gt;Node3</title>
<path style="fill:none;stroke:midnightblue;" d="M475,20C484,20 492,20 501,20"/>
<polygon style="fill:midnightblue;stroke:midnightblue;" points="475,23 465,20 475,16 475,23"/>
</g>
<g id="node7" class="node"><title>Node4</title>
<a xlink:href="x_p_l_8h.html#a86d914c966f337c4e3a6fda46a945d11" target="_top" xlink:title="XPLTasks">
<polygon style="fill:none;stroke:black;" points="744,36 847,36 847,4 744,4 744,36"/>
<text text-anchor="middle" x="795" y="27" style="font-family:Helvetica;font-size:20.00;">XPLTasks</text>
</a>
</g>
<g id="edge6" class="edge"><title>Node3-&gt;Node4</title>
<path style="fill:none;stroke:midnightblue;" d="M717,20C726,20 735,20 744,20"/>
<polygon style="fill:midnightblue;stroke:midnightblue;" points="717,23 707,20 717,16 717,23"/>
</g>
<g id="node9" class="node"><title>Node5</title>
<a xlink:href="_main_demo_8c.html#a6288eba0f8e8ad3ab1544ad731eb7667" target="_top" xlink:title="main">
<polygon style="fill:none;stroke:black;" points="884,36 943,36 943,4 884,4 884,36"/>
<text text-anchor="middle" x="913" y="27" style="font-family:Helvetica;font-size:20.00;">main</text>
</a>
</g>
<g id="edge8" class="edge"><title>Node4-&gt;Node5</title>
<path style="fill:none;stroke:midnightblue;" d="M857,20C867,20 876,20 884,20"/>
<polygon style="fill:midnightblue;stroke:midnightblue;" points="857,23 847,20 857,16 857,23"/>
</g>
</g>
</svg>
