<?xml version="1.0" encoding="UTF-8" standalone="no"?>
<!DOCTYPE svg PUBLIC "-//W3C//DTD SVG 1.0//EN"
 "http://www.w3.org/TR/2001/REC-SVG-20010904/DTD/svg10.dtd" [
 <!ATTLIST svg xmlns:xlink CDATA #FIXED "http://www.w3.org/1999/xlink">
]>
<!-- Generated by dot version 1.13 (v16) (Mon August 23, 2004)
     For user: (jarrodneven) Jarrod  Neven   Title: G    Pages: 1 -->
<svg width="1474pt" height="1072pt"
 viewBox = "-1 -1 1473 1071"
 xmlns="http://www.w3.org/2000/svg" xmlns:xlink="http://www.w3.org/1999/xlink">
<g id="graph0" class="graph" style="font-family:Times-Roman;font-size:14.00;">
<title>G</title>
<g id="node1" class="node"><title>Node1</title>
<polygon style="fill:#bfbfbf;stroke:black;" points="5,801 143,801 143,769 5,769 5,801"/>
<text text-anchor="middle" x="74" y="792" style="font-family:Helvetica;font-size:20.00;">XPLProcessUDPMsg</text>
</g>
<g id="node3" class="node"><title>Node2</title>
<a xlink:href="_security_system_8c.html#a3baecc6556e5cc7af0d59d0216aa217c" target="_top" xlink:title="SchemaProcessUDPMsg">
<polygon style="fill:none;stroke:black;" points="194,638 436,638 436,606 194,606 194,638"/>
<text text-anchor="middle" x="315" y="629" style="font-family:Helvetica;font-size:20.00;">SchemaProcessUDPMsg</text>
</a>
</g>
<g id="edge2" class="edge"><title>Node1-&gt;Node2</title>
<path style="fill:none;stroke:midnightblue;" d="M143,769C187,728 134,678 179,638 181,636 183,635 185,634"/>
<polygon style="fill:midnightblue;stroke:midnightblue;" points="184,631 194,628 188,636 184,631"/>
</g>
<g id="node67" class="node"><title>Node29</title>
<a xlink:href="x_p_l_8c.html#a5f8892113a09c41986fc7240b315c01e" target="_top" xlink:title="xPLProcessMsgCompair">
<polygon style="fill:none;stroke:black;" points="197,801 433,801 433,769 197,769 197,801"/>
<text text-anchor="middle" x="315" y="792" style="font-family:Helvetica;font-size:20.00;">xPLProcessMsgCompair</text>
</a>
</g>
<g id="edge76" class="edge"><title>Node1-&gt;Node29</title>
<path style="fill:none;stroke:midnightblue;" d="M143,785C157,785 172,785 187,785"/>
<polygon style="fill:midnightblue;stroke:midnightblue;" points="187,781 197,785 187,788 187,781"/>
</g>
<g id="node69" class="node"><title>Node30</title>
<a xlink:href="x_p_l_8c.html#af740a9e5684491e3dcbe5b0198f98860" target="_top" xlink:title="XPLProcessUDPMsgHeader">
<polygon style="fill:none;stroke:black;" points="179,989 451,989 451,957 179,957 179,989"/>
<text text-anchor="middle" x="315" y="980" style="font-family:Helvetica;font-size:20.00;">XPLProcessUDPMsgHeader</text>
</a>
</g>
<g id="edge78" class="edge"><title>Node1-&gt;Node30</title>
<path style="fill:none;stroke:midnightblue;" d="M143,801C191,849 134,903 172,950"/>
<polygon style="fill:midnightblue;stroke:midnightblue;" points="174,947 179,957 169,952 174,947"/>
</g>
<g id="node5" class="node"><title>Node3</title>
<a xlink:href="_security_system_8h.html#a30c3c9cdda2491c17d5d6d5cc6426b31" target="_top" xlink:title="addxPLMessage">
<polygon style="fill:none;stroke:black;" points="1045,588 1210,588 1210,556 1045,556 1045,588"/>
<text text-anchor="middle" x="1127" y="579" style="font-family:Helvetica;font-size:20.00;">addxPLMessage</text>
</a>
</g>
<g id="edge4" class="edge"><title>Node2-&gt;Node3</title>
<path style="fill:none;stroke:midnightblue;" d="M436,610C436,610 437,610 437,610 455,605 457,597 467,581 477,568 480,564 483,547 484,542 484,363 487,359 565,284 887,377 963,453 965,455 998,549 999,550 1005,556 1019,560 1035,564"/>
<polygon style="fill:midnightblue;stroke:midnightblue;" points="1036,561 1045,566 1035,567 1036,561"/>
</g>
<g id="node7" class="node"><title>Node4</title>
<a xlink:href="_security_system_8c.html#a491f8822a8274ca5244c41d226e7136e" target="_top" xlink:title="ClearArmingFlags">
<polygon style="fill:none;stroke:black;" points="1291,754 1467,754 1467,722 1291,722 1291,754"/>
<text text-anchor="middle" x="1379" y="745" style="font-family:Helvetica;font-size:20.00;">ClearArmingFlags</text>
</a>
</g>
<g id="edge32" class="edge"><title>Node2-&gt;Node4</title>
<path style="fill:none;stroke:midnightblue;" d="M436,636C443,638 448,642 451,646 507,739 406,815 487,885 547,936 1138,885 1255,810 1277,797 1270,777 1283,761"/>
<polygon style="fill:midnightblue;stroke:midnightblue;" points="1281,758 1291,754 1286,763 1281,758"/>
</g>
<g id="node9" class="node"><title>Node5</title>
<a xlink:href="_security_system_8c.html#a723bf79e9ca7924d850e5c2be4029b1c" target="_top" xlink:title="Arm">
<polygon style="fill:none;stroke:black;" points="570,588 623,588 623,556 570,556 570,588"/>
<text text-anchor="middle" x="596" y="579" style="font-family:Helvetica;font-size:20.00;">Arm</text>
</a>
</g>
<g id="edge8" class="edge"><title>Node2-&gt;Node5</title>
<path style="fill:none;stroke:midnightblue;" d="M436,610C441,609 446,608 451,606 469,601 470,594 487,588 511,581 538,577 560,575"/>
<polygon style="fill:midnightblue;stroke:midnightblue;" points="560,572 570,574 560,578 560,572"/>
</g>
<g id="node19" class="node"><title>Node9</title>
<a xlink:href="_security_system_8c.html#af7b9ebfe6bb90725304e83cadb4cced8" target="_top" xlink:title="ArmAway">
<polygon style="fill:none;stroke:black;" points="546,876 647,876 647,844 546,844 546,876"/>
<text text-anchor="middle" x="596" y="867" style="font-family:Helvetica;font-size:20.00;">ArmAway</text>
</a>
</g>
<g id="edge20" class="edge"><title>Node2-&gt;Node9</title>
<path style="fill:none;stroke:midnightblue;" d="M436,627C442,630 447,634 451,638 519,702 421,780 487,844 500,857 518,862 536,864"/>
<polygon style="fill:midnightblue;stroke:midnightblue;" points="536,861 546,865 536,867 536,861"/>
</g>
<g id="node22" class="node"><title>Node10</title>
<a xlink:href="_security_system_8c.html#afba09fe6505822eb03078088f14ef89b" target="_top" xlink:title="ArmHome">
<polygon style="fill:none;stroke:black;" points="543,776 649,776 649,744 543,744 543,776"/>
<text text-anchor="middle" x="596" y="767" style="font-family:Helvetica;font-size:20.00;">ArmHome</text>
</a>
</g>
<g id="edge24" class="edge"><title>Node2-&gt;Node10</title>
<path style="fill:none;stroke:midnightblue;" d="M436,629C441,631 446,634 451,638 490,670 449,713 487,744 500,755 517,760 533,763"/>
<polygon style="fill:midnightblue;stroke:midnightblue;" points="533,760 543,764 533,766 533,760"/>
</g>
<g id="node25" class="node"><title>Node11</title>
<a xlink:href="_security_system_8c.html#aad7b06369f4a1f3b427e137a9f84a5c0" target="_top" xlink:title="ArmLatchkey">
<polygon style="fill:none;stroke:black;" points="530,826 663,826 663,794 530,794 530,826"/>
<text text-anchor="middle" x="596" y="817" style="font-family:Helvetica;font-size:20.00;">ArmLatchkey</text>
</a>
</g>
<g id="edge28" class="edge"><title>Node2-&gt;Node11</title>
<path style="fill:none;stroke:midnightblue;" d="M436,628C441,631 446,634 451,638 504,686 435,746 487,794 496,803 508,808 520,811"/>
<polygon style="fill:midnightblue;stroke:midnightblue;" points="521,808 530,813 520,814 521,808"/>
</g>
<g id="node29" class="node"><title>Node12</title>
<a xlink:href="_security_system_8c.html#a3ca20943ab34a0d560cd22d88c0ba324" target="_top" xlink:title="Disarm">
<polygon style="fill:none;stroke:black;" points="813,494 892,494 892,462 813,462 813,494"/>
<text text-anchor="middle" x="852" y="485" style="font-family:Helvetica;font-size:20.00;">Disarm</text>
</a>
</g>
<g id="edge34" class="edge"><title>Node2-&gt;Node12</title>
<path style="fill:none;stroke:midnightblue;" d="M436,609C444,608 446,606 451,600 469,585 478,581 483,557 485,552 483,452 487,447 557,380 610,428 705,447 722,451 725,458 741,462 761,468 784,472 803,474"/>
<polygon style="fill:midnightblue;stroke:midnightblue;" points="803,471 813,475 803,477 803,471"/>
</g>
<g id="node32" class="node"><title>Node13</title>
<a xlink:href="_main_demo_8c.html#a8a69fd5952a14c7bfa97a304380d4bc1" target="_top" xlink:title="DisplayIPValue">
<polygon style="fill:none;stroke:black;" points="521,400 671,400 671,368 521,368 521,400"/>
<text text-anchor="middle" x="596" y="391" style="font-family:Helvetica;font-size:20.00;">DisplayIPValue</text>
</a>
</g>
<g id="edge38" class="edge"><title>Node2-&gt;Node13</title>
<path style="fill:none;stroke:midnightblue;" d="M436,617C442,614 447,610 451,606 519,543 421,465 487,400 494,393 502,389 511,386"/>
<polygon style="fill:midnightblue;stroke:midnightblue;" points="510,383 521,383 512,389 510,383"/>
</g>
<g id="node34" class="node"><title>Node14</title>
<a xlink:href="_security_system_8c.html#a1e04428a714d6c8c97cb8685f96933ee" target="_top" xlink:title="Panic">
<polygon style="fill:none;stroke:black;" points="819,679 885,679 885,647 819,647 819,679"/>
<text text-anchor="middle" x="852" y="670" style="font-family:Helvetica;font-size:20.00;">Panic</text>
</a>
</g>
<g id="edge40" class="edge"><title>Node2-&gt;Node14</title>
<path style="fill:none;stroke:midnightblue;" d="M419,638C425,639 431,640 437,641 462,646 473,652 483,674 488,684 480,691 487,697 562,760 611,720 705,697 723,693 724,685 741,679 763,673 788,668 809,666"/>
<polygon style="fill:midnightblue;stroke:midnightblue;" points="809,663 819,665 809,669 809,663"/>
</g>
<g id="node37" class="node"><title>Node15</title>
<a xlink:href="x_p_l_8c.html#a7c4561dc703960b7f5d24ec72ff34ba5" target="_top" xlink:title="SaveKVP">
<polygon style="fill:none;stroke:black;" points="545,488 647,488 647,456 545,456 545,488"/>
<text text-anchor="middle" x="596" y="479" style="font-family:Helvetica;font-size:20.00;">SaveKVP</text>
</a>
</g>
<g id="edge44" class="edge"><title>Node2-&gt;Node15</title>
<path style="fill:none;stroke:midnightblue;" d="M436,616C441,613 446,610 451,606 494,571 446,524 487,488 500,477 518,472 535,470"/>
<polygon style="fill:midnightblue;stroke:midnightblue;" points="535,467 545,469 535,473 535,467"/>
</g>
<g id="node39" class="node"><title>Node16</title>
<a xlink:href="_security_system_8c.html#a9b56fcd765dadf3ef1f50d01c51caf7b" target="_top" xlink:title="SetArming">
<polygon style="fill:none;stroke:black;" points="542,538 651,538 651,506 542,506 542,538"/>
<text text-anchor="middle" x="596" y="529" style="font-family:Helvetica;font-size:20.00;">SetArming</text>
</a>
</g>
<g id="edge46" class="edge"><title>Node2-&gt;Node16</title>
<path style="fill:none;stroke:midnightblue;" d="M436,614C441,612 446,609 451,606 480,587 460,558 487,538 500,529 516,524 532,521"/>
<polygon style="fill:midnightblue;stroke:midnightblue;" points="532,518 542,520 532,524 532,518"/>
</g>
<g id="node41" class="node"><title>Node17</title>
<a xlink:href="_authenticate_8c.html#a207b19b2185ffaa19d1d3f053b996121" target="_top" xlink:title="xPLAuthenticate">
<polygon style="fill:none;stroke:black;" points="515,230 677,230 677,198 515,198 515,230"/>
<text text-anchor="middle" x="596" y="221" style="font-family:Helvetica;font-size:20.00;">xPLAuthenticate</text>
</a>
</g>
<g id="edge48" class="edge"><title>Node2-&gt;Node17</title>
<path style="fill:none;stroke:midnightblue;" d="M436,618C442,614 447,611 451,606 510,547 430,291 487,230 492,224 498,220 505,217"/>
<polygon style="fill:midnightblue;stroke:midnightblue;" points="504,214 515,214 506,220 504,214"/>
</g>
<g id="node63" class="node"><title>Node27</title>
<a xlink:href="x_p_l_8c.html#ace930888808081ff410b21e68caa146e" target="_top" xlink:title="xPLFindArrayInKVP">
<polygon style="fill:none;stroke:black;" points="499,638 693,638 693,606 499,606 499,638"/>
<text text-anchor="middle" x="596" y="629" style="font-family:Helvetica;font-size:20.00;">xPLFindArrayInKVP</text>
</a>
</g>
<g id="edge72" class="edge"><title>Node2-&gt;Node27</title>
<path style="fill:none;stroke:midnightblue;" d="M436,622C454,622 471,622 489,622"/>
<polygon style="fill:midnightblue;stroke:midnightblue;" points="489,618 499,622 489,625 489,618"/>
</g>
<g id="node65" class="node"><title>Node28</title>
<a xlink:href="x_p_l_8c.html#a1099a7d6ccfe562deba149fd4acef424" target="_top" xlink:title="xPLSaveEEConfig">
<polygon style="fill:none;stroke:black;" points="506,688 687,688 687,656 506,656 506,688"/>
<text text-anchor="middle" x="596" y="679" style="font-family:Helvetica;font-size:20.00;">xPLSaveEEConfig</text>
</a>
</g>
<g id="edge74" class="edge"><title>Node2-&gt;Node28</title>
<path style="fill:none;stroke:midnightblue;" d="M436,634C441,635 446,637 451,638 469,644 470,651 487,656 490,657 493,658 496,659"/>
<polygon style="fill:midnightblue;stroke:midnightblue;" points="497,656 506,661 496,662 497,656"/>
</g>
<g id="edge6" class="edge"><title>Node3-&gt;Node4</title>
<path style="fill:none;stroke:midnightblue;" d="M1210,569C1227,571 1243,577 1255,588 1299,627 1252,675 1284,715"/>
<polygon style="fill:midnightblue;stroke:midnightblue;" points="1286,712 1291,722 1281,717 1286,712"/>
</g>
<g id="edge10" class="edge"><title>Node5-&gt;Node3</title>
<path style="fill:none;stroke:midnightblue;" d="M623,567C630,568 638,570 649,570 783,571 939,571 1035,572"/>
<polygon style="fill:midnightblue;stroke:midnightblue;" points="1035,568 1045,572 1035,575 1035,568"/>
</g>
<g id="node12" class="node"><title>Node6</title>
<a xlink:href="_security_system_8c.html#ad2cdbcce787b8a3c88addf52f996805f" target="_top" xlink:title="StateChangeToArm">
<polygon style="fill:none;stroke:black;" points="757,776 948,776 948,744 757,744 757,776"/>
<text text-anchor="middle" x="852" y="767" style="font-family:Helvetica;font-size:20.00;">StateChangeToArm</text>
</a>
</g>
<g id="edge12" class="edge"><title>Node5-&gt;Node6</title>
<path style="fill:none;stroke:midnightblue;" d="M623,568C648,566 684,568 705,588 758,637 689,696 741,744 743,746 746,748 748,750"/>
<polygon style="fill:midnightblue;stroke:midnightblue;" points="750,747 757,755 747,753 750,747"/>
</g>
<g id="edge14" class="edge"><title>Node6-&gt;Node3</title>
<path style="fill:none;stroke:midnightblue;" d="M948,754C954,752 959,748 963,744 1016,696 947,636 999,588 1009,579 1022,574 1035,570"/>
<polygon style="fill:midnightblue;stroke:midnightblue;" points="1035,567 1045,568 1036,573 1035,567"/>
</g>
<g id="node15" class="node"><title>Node7</title>
<a xlink:href="_security_system_8c.html#a2d0a6f4e811adf18c96693529c2d81b4" target="_top" xlink:title="ArmingZoneState">
<polygon style="fill:none;stroke:black;" points="1041,801 1213,801 1213,769 1041,769 1041,801"/>
<text text-anchor="middle" x="1127" y="792" style="font-family:Helvetica;font-size:20.00;">ArmingZoneState</text>
</a>
</g>
<g id="edge16" class="edge"><title>Node6-&gt;Node7</title>
<path style="fill:none;stroke:midnightblue;" d="M948,769C975,772 1004,774 1031,776"/>
<polygon style="fill:midnightblue;stroke:midnightblue;" points="1031,773 1041,777 1031,779 1031,773"/>
</g>
<g id="node17" class="node"><title>Node8</title>
<a xlink:href="_security_system_8c.html#a290b0da69aaf212aa38c219c45a6d8a9" target="_top" xlink:title="isZoneMemberOfArea">
<polygon style="fill:none;stroke:black;" points="1021,751 1234,751 1234,719 1021,719 1021,751"/>
<text text-anchor="middle" x="1127" y="742" style="font-family:Helvetica;font-size:20.00;">isZoneMemberOfArea</text>
</a>
</g>
<g id="edge18" class="edge"><title>Node6-&gt;Node8</title>
<path style="fill:none;stroke:midnightblue;" d="M948,751C968,749 990,748 1011,746"/>
<polygon style="fill:midnightblue;stroke:midnightblue;" points="1011,743 1021,745 1011,749 1011,743"/>
</g>
<g id="edge22" class="edge"><title>Node9-&gt;Node6</title>
<path style="fill:none;stroke:midnightblue;" d="M647,862C667,861 689,856 705,844 733,825 714,796 741,776 743,775 746,773 748,772"/>
<polygon style="fill:midnightblue;stroke:midnightblue;" points="747,769 757,767 750,775 747,769"/>
</g>
<g id="edge26" class="edge"><title>Node10-&gt;Node6</title>
<path style="fill:none;stroke:midnightblue;" d="M649,760C677,760 713,760 747,760"/>
<polygon style="fill:midnightblue;stroke:midnightblue;" points="747,756 757,760 747,763 747,756"/>
</g>
<g id="edge30" class="edge"><title>Node11-&gt;Node6</title>
<path style="fill:none;stroke:midnightblue;" d="M663,804C677,801 692,798 705,794 723,789 724,782 741,776 743,775 745,775 747,774"/>
<polygon style="fill:midnightblue;stroke:midnightblue;" points="747,771 757,772 748,777 747,771"/>
</g>
<g id="edge36" class="edge"><title>Node12-&gt;Node3</title>
<path style="fill:none;stroke:midnightblue;" d="M892,476C915,476 942,480 963,494 990,512 973,539 999,556 1010,563 1022,568 1035,571"/>
<polygon style="fill:midnightblue;stroke:midnightblue;" points="1036,568 1045,573 1035,574 1036,568"/>
</g>
<g id="edge42" class="edge"><title>Node14-&gt;Node3</title>
<path style="fill:none;stroke:midnightblue;" d="M885,666C909,666 940,662 963,647 989,631 974,605 999,588 1010,581 1022,576 1035,573"/>
<polygon style="fill:midnightblue;stroke:midnightblue;" points="1035,570 1045,571 1036,576 1035,570"/>
</g>
<g id="edge50" class="edge"><title>Node17-&gt;Node3</title>
<path style="fill:none;stroke:midnightblue;" d="M654,230C667,231 679,232 698,236 702,237 703,237 705,238 727,253 720,270 741,283 828,335 894,254 963,326 972,335 992,538 999,548 1004,556 1018,560 1035,564"/>
<polygon style="fill:midnightblue;stroke:midnightblue;" points="1036,561 1045,566 1035,567 1036,561"/>
</g>
<g id="node44" class="node"><title>Node18</title>
<a xlink:href="_a_e_s_8c.html#a7cc41315b74814b03832fc37ffc835ce" target="_top" xlink:title="AESCalcDecodeKey">
<polygon style="fill:none;stroke:black;" points="753,61 952,61 952,29 753,29 753,61"/>
<text text-anchor="middle" x="852" y="52" style="font-family:Helvetica;font-size:20.00;">AESCalcDecodeKey</text>
</a>
</g>
<g id="edge52" class="edge"><title>Node17-&gt;Node18</title>
<path style="fill:none;stroke:midnightblue;" d="M677,213C687,210 697,205 705,198 752,157 695,103 741,61 742,60 743,59 744,58"/>
<polygon style="fill:midnightblue;stroke:midnightblue;" points="743,55 753,53 746,61 743,55"/>
</g>
<g id="node48" class="node"><title>Node20</title>
<a xlink:href="_a_e_s_8c.html#a7f4a8c317d988a237650447bd91ea792" target="_top" xlink:title="AESDecode">
<polygon style="fill:none;stroke:black;" points="790,136 915,136 915,104 790,104 790,136"/>
<text text-anchor="middle" x="852" y="127" style="font-family:Helvetica;font-size:20.00;">AESDecode</text>
</a>
</g>
<g id="edge56" class="edge"><title>Node17-&gt;Node20</title>
<path style="fill:none;stroke:midnightblue;" d="M677,211C687,208 697,204 705,198 732,181 715,154 741,136 752,129 766,124 780,122"/>
<polygon style="fill:midnightblue;stroke:midnightblue;" points="780,119 790,120 781,125 780,119"/>
</g>
<g id="node54" class="node"><title>Node23</title>
<a xlink:href="_authenticate_8c.html#accacf14baedf98bbdcea140a8f3cd3eb" target="_top" xlink:title="Authenticate">
<polygon style="fill:none;stroke:black;" points="789,186 916,186 916,154 789,154 789,186"/>
<text text-anchor="middle" x="852" y="177" style="font-family:Helvetica;font-size:20.00;">Authenticate</text>
</a>
</g>
<g id="edge62" class="edge"><title>Node17-&gt;Node23</title>
<path style="fill:none;stroke:midnightblue;" d="M677,204C687,202 696,200 705,198 722,195 725,190 741,186 753,184 766,181 779,179"/>
<polygon style="fill:midnightblue;stroke:midnightblue;" points="779,176 789,177 780,182 779,176"/>
</g>
<g id="node58" class="node"><title>Node25</title>
<a xlink:href="_authenticate_8c.html#ae2103408fea706307404b433f103eb56" target="_top" xlink:title="LoadUserPasswordEEdata">
<polygon style="fill:none;stroke:black;" points="999,236 1255,236 1255,204 999,204 999,236"/>
<text text-anchor="middle" x="1127" y="227" style="font-family:Helvetica;font-size:20.00;">LoadUserPasswordEEdata</text>
</a>
</g>
<g id="edge68" class="edge"><title>Node17-&gt;Node25</title>
<path style="fill:none;stroke:midnightblue;" d="M677,215C760,216 890,218 989,219"/>
<polygon style="fill:midnightblue;stroke:midnightblue;" points="989,215 999,219 989,222 989,215"/>
</g>
<g id="node61" class="node"><title>Node26</title>
<a xlink:href="_custom_s_n_t_p_8c.html#a3a2bcda2ac33aacd49d652a93f9031b1" target="_top" xlink:title="SNTPGetUTCSeconds">
<polygon style="fill:none;stroke:black;" points="742,274 963,274 963,242 742,242 742,274"/>
<text text-anchor="middle" x="852" y="265" style="font-family:Helvetica;font-size:20.00;">SNTPGetUTCSeconds</text>
</a>
</g>
<g id="edge70" class="edge"><title>Node17-&gt;Node26</title>
<path style="fill:none;stroke:midnightblue;" d="M677,224C687,226 696,228 705,230 718,233 723,237 732,240"/>
<polygon style="fill:midnightblue;stroke:midnightblue;" points="733,237 742,242 732,243 733,237"/>
</g>
<g id="node46" class="node"><title>Node19</title>
<a xlink:href="_a_e_s_8c.html#a1469592c00f30a3ef472b7213bbec988" target="_top" xlink:title="EncKeySchedule">
<polygon style="fill:none;stroke:black;" points="1043,36 1211,36 1211,4 1043,4 1043,36"/>
<text text-anchor="middle" x="1127" y="27" style="font-family:Helvetica;font-size:20.00;">EncKeySchedule</text>
</a>
</g>
<g id="edge54" class="edge"><title>Node18-&gt;Node19</title>
<path style="fill:none;stroke:midnightblue;" d="M952,36C978,33 1007,31 1033,29"/>
<polygon style="fill:midnightblue;stroke:midnightblue;" points="1033,26 1043,28 1033,32 1033,26"/>
</g>
<g id="node50" class="node"><title>Node21</title>
<a xlink:href="_a_e_s_8c.html#ab28514c50685365342e4f65c68979812" target="_top" xlink:title="DecKeySchedule">
<polygon style="fill:none;stroke:black;" points="1043,136 1212,136 1212,104 1043,104 1043,136"/>
<text text-anchor="middle" x="1127" y="127" style="font-family:Helvetica;font-size:20.00;">DecKeySchedule</text>
</a>
</g>
<g id="edge58" class="edge"><title>Node20-&gt;Node21</title>
<path style="fill:none;stroke:midnightblue;" d="M915,120C950,120 994,120 1033,120"/>
<polygon style="fill:midnightblue;stroke:midnightblue;" points="1033,116 1043,120 1033,123 1033,116"/>
</g>
<g id="node52" class="node"><title>Node22</title>
<a xlink:href="_a_e_s_8c.html#ae3f9a7acb862eae95aeac5f1dda91782" target="_top" xlink:title="DecodeShiftRow">
<polygon style="fill:none;stroke:black;" points="1045,86 1210,86 1210,54 1045,54 1045,86"/>
<text text-anchor="middle" x="1127" y="77" style="font-family:Helvetica;font-size:20.00;">DecodeShiftRow</text>
</a>
</g>
<g id="edge60" class="edge"><title>Node20-&gt;Node22</title>
<path style="fill:none;stroke:midnightblue;" d="M915,115C931,112 948,109 963,104 981,99 982,92 999,86 1011,83 1023,80 1035,78"/>
<polygon style="fill:midnightblue;stroke:midnightblue;" points="1035,75 1045,76 1036,81 1035,75"/>
</g>
<g id="node56" class="node"><title>Node24</title>
<a xlink:href="_authenticate_8c.html#ad9ccab53e1332706a0181ea3d79c6ee6" target="_top" xlink:title="LoadUserNameEEdata">
<polygon style="fill:none;stroke:black;" points="1016,186 1238,186 1238,154 1016,154 1016,186"/>
<text text-anchor="middle" x="1127" y="177" style="font-family:Helvetica;font-size:20.00;">LoadUserNameEEdata</text>
</a>
</g>
<g id="edge64" class="edge"><title>Node23-&gt;Node24</title>
<path style="fill:none;stroke:midnightblue;" d="M916,170C943,170 975,170 1006,170"/>
<polygon style="fill:midnightblue;stroke:midnightblue;" points="1006,166 1016,170 1006,173 1006,166"/>
</g>
<g id="edge66" class="edge"><title>Node23-&gt;Node25</title>
<path style="fill:none;stroke:midnightblue;" d="M916,176C932,178 948,182 963,186 977,191 981,196 990,200"/>
<polygon style="fill:midnightblue;stroke:midnightblue;" points="991,197 999,204 988,203 991,197"/>
</g>
<g id="node71" class="node"><title>Node31</title>
<a xlink:href="x_p_l_8c.html#aa11ae2e433086c0ebc95c02a17a779d3" target="_top" xlink:title="xPLProcess_MsgField">
<polygon style="fill:none;stroke:black;" points="489,964 704,964 704,932 489,932 489,964"/>
<text text-anchor="middle" x="596" y="955" style="font-family:Helvetica;font-size:20.00;">xPLProcess_MsgField</text>
</a>
</g>
<g id="edge80" class="edge"><title>Node30-&gt;Node31</title>
<path style="fill:none;stroke:midnightblue;" d="M451,961C461,960 470,960 479,958"/>
<polygon style="fill:midnightblue;stroke:midnightblue;" points="479,955 489,957 479,961 479,955"/>
</g>
<g id="node73" class="node"><title>Node32</title>
<a xlink:href="x_p_l_8c.html#a3b166aa60e7a002cfcc3f6e34982fa73" target="_top" xlink:title="xPLProcessMsgChar">
<polygon style="fill:none;stroke:black;" points="494,1014 698,1014 698,982 494,982 494,1014"/>
<text text-anchor="middle" x="596" y="1005" style="font-family:Helvetica;font-size:20.00;">xPLProcessMsgChar</text>
</a>
</g>
<g id="edge82" class="edge"><title>Node30-&gt;Node32</title>
<path style="fill:none;stroke:midnightblue;" d="M451,985C462,986 473,987 484,988"/>
<polygon style="fill:midnightblue;stroke:midnightblue;" points="484,985 494,989 484,991 484,985"/>
</g>
<g id="node75" class="node"><title>Node33</title>
<a xlink:href="x_p_l_8c.html#a9abaa084202354fa039c0dbfadc23e09" target="_top" xlink:title="xPLProcessSaveValue">
<polygon style="fill:none;stroke:black;" points="487,1064 705,1064 705,1032 487,1032 487,1064"/>
<text text-anchor="middle" x="596" y="1055" style="font-family:Helvetica;font-size:20.00;">xPLProcessSaveValue</text>
</a>
</g>
<g id="edge84" class="edge"><title>Node30-&gt;Node33</title>
<path style="fill:none;stroke:midnightblue;" d="M452,989C470,998 468,1013 479,1026"/>
<polygon style="fill:midnightblue;stroke:midnightblue;" points="481,1023 487,1032 477,1029 481,1023"/>
</g>
</g>
</svg>
