<?xml version="1.0" encoding="UTF-8" standalone="no"?>
<!DOCTYPE svg PUBLIC "-//W3C//DTD SVG 1.0//EN"
 "http://www.w3.org/TR/2001/REC-SVG-20010904/DTD/svg10.dtd" [
 <!ATTLIST svg xmlns:xlink CDATA #FIXED "http://www.w3.org/1999/xlink">
]>
<!-- Generated by dot version 1.13 (v16) (Mon August 23, 2004)
     For user: (jarrodneven) Jarrod  Neven   Title: G    Pages: 1 -->
<svg width="1180pt" height="1304pt"
 viewBox = "-1 -1 1179 1303"
 xmlns="http://www.w3.org/2000/svg" xmlns:xlink="http://www.w3.org/1999/xlink">
<g id="graph0" class="graph" style="font-family:Times-Roman;font-size:14.00;">
<title>G</title>
<g id="node1" class="node"><title>Node1</title>
<polygon style="fill:#bfbfbf;stroke:black;" points="6,783 107,783 107,751 6,751 6,783"/>
<text text-anchor="middle" x="56" y="774" style="font-family:Helvetica;font-size:20.00;">SchemaTasks</text>
</g>
<g id="node3" class="node"><title>Node2</title>
<a xlink:href="_battery_8c.html#ad7abffae7b40c1538c5411bfd808a68a" target="_top" xlink:title="Task process for managing the battery state.">
<polygon style="fill:none;stroke:black;" points="206,494 326,494 326,462 206,462 206,494"/>
<text text-anchor="middle" x="266" y="485" style="font-family:Helvetica;font-size:20.00;">BatteryTask</text>
</a>
</g>
<g id="edge2" class="edge"><title>Node1-&gt;Node2</title>
<path style="fill:none;stroke:midnightblue;" d="M107,751C182,664 62,576 143,494 157,480 176,475 196,473"/>
<polygon style="fill:midnightblue;stroke:midnightblue;" points="196,470 206,472 196,476 196,470"/>
</g>
<g id="node11" class="node"><title>Node6</title>
<a xlink:href="_security_system_8c.html#ab3be31caf1027bb142335a3a3d7d4eb1" target="_top" xlink:title="bypassZone">
<polygon style="fill:none;stroke:black;" points="204,708 329,708 329,676 204,676 204,708"/>
<text text-anchor="middle" x="266" y="699" style="font-family:Helvetica;font-size:20.00;">bypassZone</text>
</a>
</g>
<g id="edge10" class="edge"><title>Node1-&gt;Node6</title>
<path style="fill:none;stroke:midnightblue;" d="M107,751C128,738 122,720 143,708 158,700 176,695 194,692"/>
<polygon style="fill:midnightblue;stroke:midnightblue;" points="194,689 204,691 194,695 194,689"/>
</g>
<g id="node17" class="node"><title>Node9</title>
<a xlink:href="_security_system_8c.html#a14eb903eaa706a4874267274a2ffc6fa" target="_top" xlink:title="EnableZone">
<polygon style="fill:none;stroke:black;" points="204,758 328,758 328,726 204,726 204,758"/>
<text text-anchor="middle" x="266" y="749" style="font-family:Helvetica;font-size:20.00;">EnableZone</text>
</a>
</g>
<g id="edge16" class="edge"><title>Node1-&gt;Node9</title>
<path style="fill:none;stroke:midnightblue;" d="M107,761C133,758 165,754 194,751"/>
<polygon style="fill:midnightblue;stroke:midnightblue;" points="194,748 204,750 194,754 194,748"/>
</g>
<g id="node21" class="node"><title>Node10</title>
<a xlink:href="_security_system_8c.html#a3ccbc635f6f7bb31465920840c7db474" target="_top" xlink:title="IOTasks">
<polygon style="fill:none;stroke:black;" points="222,268 310,268 310,236 222,236 222,268"/>
<text text-anchor="middle" x="266" y="259" style="font-family:Helvetica;font-size:20.00;">IOTasks</text>
</a>
</g>
<g id="edge22" class="edge"><title>Node1-&gt;Node10</title>
<path style="fill:none;stroke:midnightblue;" d="M107,751C174,666 70,347 143,268 160,250 187,245 212,245"/>
<polygon style="fill:midnightblue;stroke:midnightblue;" points="212,241 222,245 212,248 212,241"/>
</g>
<g id="node36" class="node"><title>Node16</title>
<a xlink:href="_security_system_8h.html#ae9e6733b7fed738a76787f01762bb284" target="_top" xlink:title="SendAlarmingMsg">
<polygon style="fill:none;stroke:black;" points="720,312 899,312 899,280 720,280 720,312"/>
<text text-anchor="middle" x="809" y="303" style="font-family:Helvetica;font-size:20.00;">SendAlarmingMsg</text>
</a>
</g>
<g id="edge64" class="edge"><title>Node1-&gt;Node16</title>
<path style="fill:none;stroke:midnightblue;" d="M87,751C93,749 99,746 107,740 130,724 131,712 135,684 139,661 138,655 139,631 140,625 140,406 143,401 213,316 541,299 710,296"/>
<polygon style="fill:midnightblue;stroke:midnightblue;" points="710,292 720,296 710,299 710,292"/>
</g>
<g id="node40" class="node"><title>Node17</title>
<a xlink:href="_security_system_8h.html#ae777555850cf9c897f46c8407ce1729f" target="_top" xlink:title="Places a new email in the SMTP queue to be processed (sent)">
<polygon style="fill:none;stroke:black;" points="718,362 900,362 900,330 718,330 718,362"/>
<text text-anchor="middle" x="809" y="353" style="font-family:Helvetica;font-size:20.00;">SMTPQueueEmail</text>
</a>
</g>
<g id="edge136" class="edge"><title>Node1-&gt;Node17</title>
<path style="fill:none;stroke:midnightblue;" d="M93,751C97,749 102,747 107,743 131,726 134,714 139,685 142,673 136,464 143,453 221,346 295,377 425,353 520,336 630,336 708,340"/>
<polygon style="fill:midnightblue;stroke:midnightblue;" points="708,336 718,340 708,343 708,336"/>
</g>
<g id="node48" class="node"><title>Node21</title>
<a xlink:href="_security_system_8c.html#aa58e855f239c14c2cfc32dcfa244d31f" target="_top" xlink:title="IsolateZone">
<polygon style="fill:none;stroke:black;" points="206,808 327,808 327,776 206,776 206,808"/>
<text text-anchor="middle" x="266" y="799" style="font-family:Helvetica;font-size:20.00;">IsolateZone</text>
</a>
</g>
<g id="edge54" class="edge"><title>Node1-&gt;Node21</title>
<path style="fill:none;stroke:midnightblue;" d="M107,773C134,776 167,780 196,784"/>
<polygon style="fill:midnightblue;stroke:midnightblue;" points="196,781 206,785 196,787 196,781"/>
</g>
<g id="node52" class="node"><title>Node22</title>
<a xlink:href="_security_x_p_l_sender_8c.html#aa79f220fe412930dbbe86acd8e506f48" target="_top" xlink:title="SendACStat">
<polygon style="fill:none;stroke:black;" points="479,1066 605,1066 605,1034 479,1034 479,1066"/>
<text text-anchor="middle" x="542" y="1057" style="font-family:Helvetica;font-size:20.00;">SendACStat</text>
</a>
</g>
<g id="edge60" class="edge"><title>Node1-&gt;Node22</title>
<path style="fill:none;stroke:midnightblue;" d="M95,783C99,784 103,787 107,792 182,891 51,986 143,1067 226,1140 280,1074 389,1067 415,1066 444,1063 469,1060"/>
<polygon style="fill:midnightblue;stroke:midnightblue;" points="469,1057 479,1059 469,1063 469,1057"/>
</g>
<g id="node56" class="node"><title>Node23</title>
<a xlink:href="_security_system_8h.html#acdb6126b5578c4ca8c06d5343a7b37df" target="_top" xlink:title="SendAreaInfo">
<polygon style="fill:none;stroke:black;" points="740,574 878,574 878,542 740,542 740,574"/>
<text text-anchor="middle" x="809" y="565" style="font-family:Helvetica;font-size:20.00;">SendAreaInfo</text>
</a>
</g>
<g id="edge66" class="edge"><title>Node1-&gt;Node23</title>
<path style="fill:none;stroke:midnightblue;" d="M88,751C94,749 100,746 107,740 122,729 122,723 131,707 139,695 138,690 139,675 140,667 137,603 143,596 223,516 572,536 730,550"/>
<polygon style="fill:midnightblue;stroke:midnightblue;" points="730,547 740,551 730,553 730,547"/>
</g>
<g id="node60" class="node"><title>Node24</title>
<a xlink:href="_security_system_8h.html#a43dbd62169c9f83be3663dc435e232c7" target="_top" xlink:title="SendAreaList">
<polygon style="fill:none;stroke:black;" points="474,1116 610,1116 610,1084 474,1084 474,1116"/>
<text text-anchor="middle" x="542" y="1107" style="font-family:Helvetica;font-size:20.00;">SendAreaList</text>
</a>
</g>
<g id="edge72" class="edge"><title>Node1-&gt;Node24</title>
<path style="fill:none;stroke:midnightblue;" d="M91,783C98,785 103,787 107,796 138,859 92,1061 143,1107 167,1128 355,1116 464,1107"/>
<polygon style="fill:midnightblue;stroke:midnightblue;" points="464,1104 474,1106 464,1110 464,1104"/>
</g>
<g id="node63" class="node"><title>Node25</title>
<a xlink:href="_security_system_8h.html#a5d91f06e22d49f6ecee37802e866e0e6" target="_top" xlink:title="SendAreaStat">
<polygon style="fill:none;stroke:black;" points="739,36 880,36 880,4 739,4 739,36"/>
<text text-anchor="middle" x="809" y="27" style="font-family:Helvetica;font-size:20.00;">SendAreaStat</text>
</a>
</g>
<g id="edge76" class="edge"><title>Node1-&gt;Node25</title>
<path style="fill:none;stroke:midnightblue;" d="M95,751C99,749 103,746 107,740 145,684 101,184 143,131 215,42 567,25 729,21"/>
<polygon style="fill:midnightblue;stroke:midnightblue;" points="729,17 739,21 729,24 729,17"/>
</g>
<g id="node67" class="node"><title>Node26</title>
<a xlink:href="_security_system_8h.html#ae77b19bae92f6c64f9a58f722b4bf193" target="_top" xlink:title="SendAreaStateMsg">
<polygon style="fill:none;stroke:black;" points="715,124 904,124 904,92 715,92 715,124"/>
<text text-anchor="middle" x="809" y="115" style="font-family:Helvetica;font-size:20.00;">SendAreaStateMsg</text>
</a>
</g>
<g id="edge82" class="edge"><title>Node1-&gt;Node26</title>
<path style="fill:none;stroke:midnightblue;" d="M99,751C102,749 104,747 107,743 175,651 81,324 143,227 274,27 425,31 659,77 676,81 679,88 695,92 698,93 702,94 705,95"/>
<polygon style="fill:midnightblue;stroke:midnightblue;" points="706,92 715,97 705,98 706,92"/>
</g>
<g id="node71" class="node"><title>Node27</title>
<a xlink:href="_security_system_8h.html#ae049c3724d5bacc955f50f724483ed91" target="_top" xlink:title="SendArmed">
<polygon style="fill:none;stroke:black;" points="481,1166 603,1166 603,1134 481,1134 481,1166"/>
<text text-anchor="middle" x="542" y="1157" style="font-family:Helvetica;font-size:20.00;">SendArmed</text>
</a>
</g>
<g id="edge88" class="edge"><title>Node1-&gt;Node27</title>
<path style="fill:none;stroke:midnightblue;" d="M89,783C97,785 103,787 107,797 123,831 117,1100 143,1125 188,1168 368,1162 471,1156"/>
<polygon style="fill:midnightblue;stroke:midnightblue;" points="471,1153 481,1155 471,1159 471,1153"/>
</g>
<g id="node74" class="node"><title>Node28</title>
<a xlink:href="_security_x_p_l_sender_8c.html#a80218fda4a4753b2d214453e14b400ff" target="_top" xlink:title="SendBatteryStat">
<polygon style="fill:none;stroke:black;" points="728,1205 890,1205 890,1173 728,1173 728,1205"/>
<text text-anchor="middle" x="809" y="1196" style="font-family:Helvetica;font-size:20.00;">SendBatteryStat</text>
</a>
</g>
<g id="edge92" class="edge"><title>Node1-&gt;Node28</title>
<path style="fill:none;stroke:midnightblue;" d="M82,783C91,787 98,789 106,800 109,803 107,796 111,820 114,837 114,842 115,858 122,930 121,947 127,1018 131,1053 132,1062 135,1096 136,1100 141,1164 143,1166 184,1204 545,1197 718,1192"/>
<polygon style="fill:midnightblue;stroke:midnightblue;" points="718,1188 728,1192 718,1195 718,1188"/>
</g>
<g id="node77" class="node"><title>Node29</title>
<a xlink:href="_security_system_8h.html#a07582d84515caf26cd22e534fd29f378" target="_top" xlink:title="SendConfigList">
<polygon style="fill:none;stroke:black;" points="466,1254 618,1254 618,1222 466,1222 466,1254"/>
<text text-anchor="middle" x="542" y="1245" style="font-family:Helvetica;font-size:20.00;">SendConfigList</text>
</a>
</g>
<g id="edge96" class="edge"><title>Node1-&gt;Node29</title>
<path style="fill:none;stroke:midnightblue;" d="M89,783C97,785 103,787 107,797 112,808 135,1205 143,1214 186,1255 352,1251 456,1245"/>
<polygon style="fill:midnightblue;stroke:midnightblue;" points="456,1242 466,1244 456,1248 456,1242"/>
</g>
<g id="node80" class="node"><title>Node30</title>
<a xlink:href="_security_system_8h.html#af1800c287b83d40961f39fcd9a751322" target="_top" xlink:title="SendDisarm">
<polygon style="fill:none;stroke:black;" points="746,1296 872,1296 872,1264 746,1264 746,1296"/>
<text text-anchor="middle" x="809" y="1287" style="font-family:Helvetica;font-size:20.00;">SendDisarm</text>
</a>
</g>
<g id="edge100" class="edge"><title>Node1-&gt;Node30</title>
<path style="fill:none;stroke:midnightblue;" d="M89,783C97,785 103,787 107,797 111,805 111,861 111,868 114,911 112,1222 143,1252 185,1291 572,1286 736,1282"/>
<polygon style="fill:midnightblue;stroke:midnightblue;" points="736,1278 746,1282 736,1285 736,1278"/>
</g>
<g id="node83" class="node"><title>Node31</title>
<a xlink:href="_security_system_8h.html#ab29cace49ca20af0048aac94e64c10dd" target="_top" xlink:title="SendError">
<polygon style="fill:none;stroke:black;" points="213,658 320,658 320,626 213,626 213,658"/>
<text text-anchor="middle" x="266" y="649" style="font-family:Helvetica;font-size:20.00;">SendError</text>
</a>
</g>
<g id="edge104" class="edge"><title>Node1-&gt;Node31</title>
<path style="fill:none;stroke:midnightblue;" d="M107,751C140,721 109,686 143,658 160,645 182,640 203,638"/>
<polygon style="fill:midnightblue;stroke:midnightblue;" points="203,635 213,637 203,641 203,635"/>
</g>
<g id="node86" class="node"><title>Node32</title>
<a xlink:href="_security_system_8h.html#aeb4ee205f02bf767a5d3b93608abc736" target="_top" xlink:title="SendGateStat">
<polygon style="fill:none;stroke:black;" points="738,624 880,624 880,592 738,592 738,624"/>
<text text-anchor="middle" x="809" y="615" style="font-family:Helvetica;font-size:20.00;">SendGateStat</text>
</a>
</g>
<g id="edge108" class="edge"><title>Node1-&gt;Node32</title>
<path style="fill:none;stroke:midnightblue;" d="M93,751C97,749 102,747 107,743 117,737 117,734 123,724 134,709 137,704 139,685 141,678 138,623 143,617 185,578 560,593 728,603"/>
<polygon style="fill:midnightblue;stroke:midnightblue;" points="728,600 738,604 728,606 728,600"/>
</g>
<g id="node90" class="node"><title>Node33</title>
<a xlink:href="_security_system_8h.html#a2c31ecf27fafa5085703f0719f6decac" target="_top" xlink:title="SendGatewayChanged">
<polygon style="fill:none;stroke:black;" points="155,858 378,858 378,826 155,826 155,858"/>
<text text-anchor="middle" x="266" y="849" style="font-family:Helvetica;font-size:20.00;">SendGatewayChanged</text>
</a>
</g>
<g id="edge114" class="edge"><title>Node1-&gt;Node33</title>
<path style="fill:none;stroke:midnightblue;" d="M107,783C128,797 122,815 143,826 144,826 145,827 146,827"/>
<polygon style="fill:midnightblue;stroke:midnightblue;" points="148,824 155,832 145,830 148,824"/>
</g>
<g id="node93" class="node"><title>Node34</title>
<a xlink:href="_security_system_8h.html#a46495fd42c19f6703e4663cb7cf2d1ec" target="_top" xlink:title="SendGatewayInfo">
<polygon style="fill:none;stroke:black;" points="179,908 354,908 354,876 179,876 179,908"/>
<text text-anchor="middle" x="266" y="899" style="font-family:Helvetica;font-size:20.00;">SendGatewayInfo</text>
</a>
</g>
<g id="edge118" class="edge"><title>Node1-&gt;Node34</title>
<path style="fill:none;stroke:midnightblue;" d="M107,783C140,814 109,849 143,876 150,882 160,887 169,890"/>
<polygon style="fill:midnightblue;stroke:midnightblue;" points="170,887 179,893 168,893 170,887"/>
</g>
<g id="node96" class="node"><title>Node35</title>
<a xlink:href="_security_system_8h.html#ae149da75e2b494aa56f4976837706565" target="_top" xlink:title="SendZoneInfo">
<polygon style="fill:none;stroke:black;" points="738,524 880,524 880,492 738,492 738,524"/>
<text text-anchor="middle" x="809" y="515" style="font-family:Helvetica;font-size:20.00;">SendZoneInfo</text>
</a>
</g>
<g id="edge122" class="edge"><title>Node1-&gt;Node35</title>
<path style="fill:none;stroke:midnightblue;" d="M85,751C92,748 98,746 106,739 125,726 128,720 135,698 140,687 138,683 139,670 140,664 139,564 143,559 182,517 559,509 728,508"/>
<polygon style="fill:midnightblue;stroke:midnightblue;" points="728,504 738,508 728,511 728,504"/>
</g>
<g id="node100" class="node"><title>Node36</title>
<a xlink:href="_security_system_8h.html#a5583c2b95797b8210dfe1b1a5e516c2d" target="_top" xlink:title="SendZoneList">
<polygon style="fill:none;stroke:black;" points="197,958 336,958 336,926 197,926 197,958"/>
<text text-anchor="middle" x="266" y="949" style="font-family:Helvetica;font-size:20.00;">SendZoneList</text>
</a>
</g>
<g id="edge128" class="edge"><title>Node1-&gt;Node36</title>
<path style="fill:none;stroke:midnightblue;" d="M107,783C152,831 95,883 143,926 155,937 171,943 187,946"/>
<polygon style="fill:midnightblue;stroke:midnightblue;" points="187,943 197,947 187,949 187,943"/>
</g>
<g id="node103" class="node"><title>Node37</title>
<a xlink:href="_security_system_8h.html#a7fdbfa1929e90a45cc905c6276ab7cae" target="_top" xlink:title="SendZoneStat">
<polygon style="fill:none;stroke:black;" points="194,1008 338,1008 338,976 194,976 194,1008"/>
<text text-anchor="middle" x="266" y="999" style="font-family:Helvetica;font-size:20.00;">SendZoneStat</text>
</a>
</g>
<g id="edge132" class="edge"><title>Node1-&gt;Node37</title>
<path style="fill:none;stroke:midnightblue;" d="M107,783C165,849 80,917 143,976 154,987 169,993 184,996"/>
<polygon style="fill:midnightblue;stroke:midnightblue;" points="184,993 194,997 184,999 184,993"/>
</g>
<g id="node107" class="node"><title>Node38</title>
<a xlink:href="_security_system_8c.html#ab4b79e3122c6964725cec23bf923547a" target="_top" xlink:title="StateChangeToArmFailed">
<polygon style="fill:none;stroke:black;" points="144,1058 389,1058 389,1026 144,1026 144,1058"/>
<text text-anchor="middle" x="266" y="1049" style="font-family:Helvetica;font-size:20.00;">StateChangeToArmFailed</text>
</a>
</g>
<g id="edge138" class="edge"><title>Node1-&gt;Node38</title>
<path style="fill:none;stroke:midnightblue;" d="M107,783C176,864 73,944 137,1019"/>
<polygon style="fill:midnightblue;stroke:midnightblue;" points="140,1017 144,1027 135,1022 140,1017"/>
</g>
<g id="node5" class="node"><title>Node3</title>
<a xlink:href="_security_system_8h.html#a30c3c9cdda2491c17d5d6d5cc6426b31" target="_top" xlink:title="addxPLMessage">
<polygon style="fill:none;stroke:black;" points="460,444 625,444 625,412 460,412 460,444"/>
<text text-anchor="middle" x="542" y="435" style="font-family:Helvetica;font-size:20.00;">addxPLMessage</text>
</a>
</g>
<g id="edge4" class="edge"><title>Node2-&gt;Node3</title>
<path style="fill:none;stroke:midnightblue;" d="M326,475C347,472 369,468 389,462 407,457 408,450 425,444 433,442 441,440 450,438"/>
<polygon style="fill:midnightblue;stroke:midnightblue;" points="450,435 460,436 451,441 450,435"/>
</g>
<g id="node9" class="node"><title>Node5</title>
<a xlink:href="_battery_8c.html#a35ba3e06ddabc0ec9b6167696f49ec58" target="_top" xlink:title="FetchADC">
<polygon style="fill:none;stroke:black;" points="488,494 596,494 596,462 488,462 488,494"/>
<text text-anchor="middle" x="542" y="485" style="font-family:Helvetica;font-size:20.00;">FetchADC</text>
</a>
</g>
<g id="edge8" class="edge"><title>Node2-&gt;Node5</title>
<path style="fill:none;stroke:midnightblue;" d="M326,478C371,478 432,478 478,478"/>
<polygon style="fill:midnightblue;stroke:midnightblue;" points="478,474 488,478 478,481 478,474"/>
</g>
<g id="node7" class="node"><title>Node4</title>
<a xlink:href="_security_system_8c.html#a491f8822a8274ca5244c41d226e7136e" target="_top" xlink:title="ClearArmingFlags">
<polygon style="fill:none;stroke:black;" points="721,450 897,450 897,418 721,418 721,450"/>
<text text-anchor="middle" x="809" y="441" style="font-family:Helvetica;font-size:20.00;">ClearArmingFlags</text>
</a>
</g>
<g id="edge6" class="edge"><title>Node3-&gt;Node4</title>
<path style="fill:none;stroke:midnightblue;" d="M625,430C652,431 682,432 711,432"/>
<polygon style="fill:midnightblue;stroke:midnightblue;" points="711,428 721,432 711,435 711,428"/>
</g>
<g id="node13" class="node"><title>Node7</title>
<a xlink:href="x_p_l_8c.html#a1099a7d6ccfe562deba149fd4acef424" target="_top" xlink:title="xPLSaveEEConfig">
<polygon style="fill:none;stroke:black;" points="452,788 633,788 633,756 452,756 452,788"/>
<text text-anchor="middle" x="542" y="779" style="font-family:Helvetica;font-size:20.00;">xPLSaveEEConfig</text>
</a>
</g>
<g id="edge12" class="edge"><title>Node6-&gt;Node7</title>
<path style="fill:none;stroke:midnightblue;" d="M329,691C349,693 371,698 389,708 413,722 403,743 425,756 430,759 436,762 442,764"/>
<polygon style="fill:midnightblue;stroke:midnightblue;" points="443,761 452,767 441,767 443,761"/>
</g>
<g id="node15" class="node"><title>Node8</title>
<a xlink:href="x_p_l_8c.html#abde6ae0f37ef47bee8e881bba8502169" target="_top" xlink:title="XPLSendHeader">
<polygon style="fill:none;stroke:black;" points="983,851 1149,851 1149,819 983,819 983,851"/>
<text text-anchor="middle" x="1066" y="842" style="font-family:Helvetica;font-size:20.00;">XPLSendHeader</text>
</a>
</g>
<g id="edge14" class="edge"><title>Node6-&gt;Node8</title>
<path style="fill:none;stroke:midnightblue;" d="M329,686C451,677 724,670 923,766 950,780 949,798 974,815"/>
<polygon style="fill:midnightblue;stroke:midnightblue;" points="976,812 983,820 973,818 976,812"/>
</g>
<g id="edge18" class="edge"><title>Node9-&gt;Node7</title>
<path style="fill:none;stroke:midnightblue;" d="M328,749C362,753 404,757 442,761"/>
<polygon style="fill:midnightblue;stroke:midnightblue;" points="442,758 452,762 442,764 442,758"/>
</g>
<g id="edge20" class="edge"><title>Node9-&gt;Node8</title>
<path style="fill:none;stroke:midnightblue;" d="M328,739C406,736 543,734 659,747 779,762 807,779 923,807 945,812 951,815 973,820"/>
<polygon style="fill:midnightblue;stroke:midnightblue;" points="974,817 983,822 973,823 974,817"/>
</g>
<g id="edge24" class="edge"><title>Node10-&gt;Node3</title>
<path style="fill:none;stroke:midnightblue;" d="M310,247C336,246 368,250 389,268 439,312 376,368 425,412 432,419 441,423 450,427"/>
<polygon style="fill:midnightblue;stroke:midnightblue;" points="451,424 460,430 449,430 451,424"/>
</g>
<g id="node24" class="node"><title>Node11</title>
<a xlink:href="_e_o_l_8c.html#a44f4ef2b28f2d65b626e1ec4e5885934" target="_top" xlink:title="IsZoneTriggered">
<polygon style="fill:none;stroke:black;" points="461,118 623,118 623,86 461,86 461,118"/>
<text text-anchor="middle" x="542" y="109" style="font-family:Helvetica;font-size:20.00;">IsZoneTriggered</text>
</a>
</g>
<g id="edge26" class="edge"><title>Node10-&gt;Node11</title>
<path style="fill:none;stroke:midnightblue;" d="M310,257C336,258 368,254 389,236 431,201 384,154 425,118 432,111 442,107 451,104"/>
<polygon style="fill:midnightblue;stroke:midnightblue;" points="450,101 461,101 452,107 450,101"/>
</g>
<g id="node30" class="node"><title>Node14</title>
<a xlink:href="_security_system_8h.html#ab01e7f6872c9f26dd9f91bc24f43f4b6" target="_top" xlink:title="SendZoneStateMsg">
<polygon style="fill:none;stroke:black;" points="446,394 639,394 639,362 446,362 446,394"/>
<text text-anchor="middle" x="542" y="385" style="font-family:Helvetica;font-size:20.00;">SendZoneStateMsg</text>
</a>
</g>
<g id="edge32" class="edge"><title>Node10-&gt;Node14</title>
<path style="fill:none;stroke:midnightblue;" d="M310,247C336,247 367,251 389,268 425,296 390,335 425,362 429,365 432,368 437,370"/>
<polygon style="fill:midnightblue;stroke:midnightblue;" points="438,367 446,374 435,373 438,367"/>
</g>
<g id="node33" class="node"><title>Node15</title>
<a xlink:href="_security_system_8c.html#accca294859199bc9e59cec74618c871c" target="_top" xlink:title="StateChangeToAlarming">
<polygon style="fill:none;stroke:black;" points="426,268 659,268 659,236 426,236 426,268"/>
<text text-anchor="middle" x="542" y="259" style="font-family:Helvetica;font-size:20.00;">StateChangeToAlarming</text>
</a>
</g>
<g id="edge36" class="edge"><title>Node10-&gt;Node15</title>
<path style="fill:none;stroke:midnightblue;" d="M310,252C338,252 378,252 416,252"/>
<polygon style="fill:midnightblue;stroke:midnightblue;" points="416,248 426,252 416,255 416,248"/>
</g>
<g id="node42" class="node"><title>Node18</title>
<a xlink:href="_security_system_8c.html#a75fd42e4a596598bc65a32ee0c863ac6" target="_top" xlink:title="TaskAlarmed">
<polygon style="fill:none;stroke:black;" points="476,218 608,218 608,186 476,186 476,218"/>
<text text-anchor="middle" x="542" y="209" style="font-family:Helvetica;font-size:20.00;">TaskAlarmed</text>
</a>
</g>
<g id="edge48" class="edge"><title>Node10-&gt;Node18</title>
<path style="fill:none;stroke:midnightblue;" d="M310,250C334,248 364,244 389,236 407,231 408,224 425,218 438,214 452,211 466,209"/>
<polygon style="fill:midnightblue;stroke:midnightblue;" points="466,206 476,207 467,212 466,206"/>
</g>
<g id="node44" class="node"><title>Node19</title>
<a xlink:href="_security_system_8c.html#aa4b206c6022f03ed09cc1e7c0c1c64ac" target="_top" xlink:title="TaskAlarming">
<polygon style="fill:none;stroke:black;" points="474,168 610,168 610,136 474,136 474,168"/>
<text text-anchor="middle" x="542" y="159" style="font-family:Helvetica;font-size:20.00;">TaskAlarming</text>
</a>
</g>
<g id="edge50" class="edge"><title>Node10-&gt;Node19</title>
<path style="fill:none;stroke:midnightblue;" d="M310,256C335,256 366,252 389,236 418,217 397,188 425,168 436,160 450,155 464,153"/>
<polygon style="fill:midnightblue;stroke:midnightblue;" points="464,150 474,151 465,156 464,150"/>
</g>
<g id="node26" class="node"><title>Node12</title>
<a xlink:href="_e_o_l_8c.html#a1cabc40dfab4455722bcd809c23ed21d" target="_top" xlink:title="CheckEOL">
<polygon style="fill:none;stroke:black;" points="753,174 866,174 866,142 753,142 753,174"/>
<text text-anchor="middle" x="809" y="165" style="font-family:Helvetica;font-size:20.00;">CheckEOL</text>
</a>
</g>
<g id="edge28" class="edge"><title>Node11-&gt;Node12</title>
<path style="fill:none;stroke:midnightblue;" d="M623,108C635,111 648,114 659,118 677,125 678,136 695,142 710,148 727,152 743,154"/>
<polygon style="fill:midnightblue;stroke:midnightblue;" points="743,151 753,155 743,157 743,151"/>
</g>
<g id="node28" class="node"><title>Node13</title>
<a xlink:href="_security_system_8c.html#a290b0da69aaf212aa38c219c45a6d8a9" target="_top" xlink:title="isZoneMemberOfArea">
<polygon style="fill:none;stroke:black;" points="960,290 1173,290 1173,258 960,258 960,290"/>
<text text-anchor="middle" x="1066" y="281" style="font-family:Helvetica;font-size:20.00;">isZoneMemberOfArea</text>
</a>
</g>
<g id="edge30" class="edge"><title>Node11-&gt;Node13</title>
<path style="fill:none;stroke:midnightblue;" d="M623,91C652,88 681,84 695,83 797,77 840,26 923,83 948,101 938,119 947,147 949,153 950,155 951,160 952,163 958,247 959,248 968,258 1000,256 1020,257"/>
<polygon style="fill:midnightblue;stroke:midnightblue;" points="1020,254 1030,258 1020,260 1020,254"/>
</g>
<g id="edge34" class="edge"><title>Node14-&gt;Node8</title>
<path style="fill:none;stroke:midnightblue;" d="M639,374C738,371 881,375 923,409 979,455 974,657 975,728 976,730 976,792 980,816"/>
<polygon style="fill:midnightblue;stroke:midnightblue;" points="983,815 983,826 977,817 983,815"/>
</g>
<g id="edge38" class="edge"><title>Node15-&gt;Node13</title>
<path style="fill:none;stroke:midnightblue;" d="M659,257C746,260 864,266 950,269"/>
<polygon style="fill:midnightblue;stroke:midnightblue;" points="950,265 960,269 950,272 950,265"/>
</g>
<g id="edge40" class="edge"><title>Node15-&gt;Node16</title>
<path style="fill:none;stroke:midnightblue;" d="M659,268C676,272 679,277 695,280 700,281 705,282 710,283"/>
<polygon style="fill:midnightblue;stroke:midnightblue;" points="711,280 720,285 710,286 711,280"/>
</g>
<g id="edge46" class="edge"><title>Node15-&gt;Node17</title>
<path style="fill:none;stroke:midnightblue;" d="M659,268C686,286 669,313 695,330 699,333 704,335 708,337"/>
<polygon style="fill:midnightblue;stroke:midnightblue;" points="710,334 718,341 707,341 710,334"/>
</g>
<g id="edge44" class="edge"><title>Node16-&gt;Node8</title>
<path style="fill:none;stroke:midnightblue;" d="M899,296C908,300 916,305 923,312 1001,395 883,737 959,819 964,824 969,827 974,830"/>
<polygon style="fill:midnightblue;stroke:midnightblue;" points="976,827 983,835 973,833 976,827"/>
</g>
<g id="edge42" class="edge"><title>Node16-&gt;Node13</title>
<path style="fill:none;stroke:midnightblue;" d="M899,288C916,286 933,285 950,284"/>
<polygon style="fill:midnightblue;stroke:midnightblue;" points="950,281 960,283 950,287 950,281"/>
</g>
<g id="node46" class="node"><title>Node20</title>
<a xlink:href="_security_system_8c.html#ab4846465588e6aede197b7e0dbfcea7a" target="_top" xlink:title="StateChangeToAlarmed">
<polygon style="fill:none;stroke:black;" points="695,224 923,224 923,192 695,192 695,224"/>
<text text-anchor="middle" x="809" y="215" style="font-family:Helvetica;font-size:20.00;">StateChangeToAlarmed</text>
</a>
</g>
<g id="edge52" class="edge"><title>Node19-&gt;Node20</title>
<path style="fill:none;stroke:midnightblue;" d="M610,156C627,159 644,162 659,168 673,173 677,181 686,187"/>
<polygon style="fill:midnightblue;stroke:midnightblue;" points="688,184 695,192 685,190 688,184"/>
</g>
<g id="edge56" class="edge"><title>Node21-&gt;Node7</title>
<path style="fill:none;stroke:midnightblue;" d="M327,788C361,785 403,782 442,780"/>
<polygon style="fill:midnightblue;stroke:midnightblue;" points="442,777 452,779 442,783 442,777"/>
</g>
<g id="edge58" class="edge"><title>Node21-&gt;Node8</title>
<path style="fill:none;stroke:midnightblue;" d="M327,795C444,801 704,814 923,826 939,827 956,828 973,829"/>
<polygon style="fill:midnightblue;stroke:midnightblue;" points="973,826 983,830 973,832 973,826"/>
</g>
<g id="edge62" class="edge"><title>Node22-&gt;Node8</title>
<path style="fill:none;stroke:midnightblue;" d="M605,1054C701,1058 876,1059 923,1020 986,969 916,903 972,843 972,843 973,842 973,842"/>
<polygon style="fill:midnightblue;stroke:midnightblue;" points="972,838 983,838 975,845 972,838"/>
</g>
<g id="edge70" class="edge"><title>Node23-&gt;Node8</title>
<path style="fill:none;stroke:midnightblue;" d="M878,554C895,556 911,562 923,574 1002,652 882,742 959,819 963,823 968,827 974,830"/>
<polygon style="fill:midnightblue;stroke:midnightblue;" points="975,827 983,834 972,833 975,827"/>
</g>
<g id="edge68" class="edge"><title>Node23-&gt;Node13</title>
<path style="fill:none;stroke:midnightblue;" d="M878,562C895,560 911,554 923,542 1001,465 888,377 953,297"/>
<polygon style="fill:midnightblue;stroke:midnightblue;" points="951,294 960,289 956,299 951,294"/>
</g>
<g id="edge74" class="edge"><title>Node24-&gt;Node8</title>
<path style="fill:none;stroke:midnightblue;" d="M610,1101C706,1101 875,1095 923,1061 962,1034 958,1011 969,965 971,960 975,869 975,863 976,859 975,857 976,853"/>
<polygon style="fill:midnightblue;stroke:midnightblue;" points="974,850 983,845 979,855 974,850"/>
</g>
<g id="edge80" class="edge"><title>Node25-&gt;Node8</title>
<path style="fill:none;stroke:midnightblue;" d="M880,16C896,18 912,24 923,36 982,101 901,755 959,819 964,824 969,827 974,830"/>
<polygon style="fill:midnightblue;stroke:midnightblue;" points="976,827 983,835 973,833 976,827"/>
</g>
<g id="edge78" class="edge"><title>Node25-&gt;Node13</title>
<path style="fill:none;stroke:midnightblue;" d="M880,17C896,19 912,25 923,36 992,104 895,182 953,251"/>
<polygon style="fill:midnightblue;stroke:midnightblue;" points="956,249 960,259 951,254 956,249"/>
</g>
<g id="edge86" class="edge"><title>Node26-&gt;Node8</title>
<path style="fill:none;stroke:midnightblue;" d="M904,111C911,114 918,118 923,124 1028,239 856,705 959,819 964,824 969,827 974,830"/>
<polygon style="fill:midnightblue;stroke:midnightblue;" points="976,827 983,835 973,833 976,827"/>
</g>
<g id="edge84" class="edge"><title>Node26-&gt;Node13</title>
<path style="fill:none;stroke:midnightblue;" d="M904,113C911,115 917,119 923,124 967,163 919,211 953,252"/>
<polygon style="fill:midnightblue;stroke:midnightblue;" points="955,249 960,259 950,254 955,249"/>
</g>
<g id="edge90" class="edge"><title>Node27-&gt;Node8</title>
<path style="fill:none;stroke:midnightblue;" d="M603,1150C698,1149 874,1142 923,1105 955,1082 947,1062 959,1024 965,1009 965,1005 967,989 969,984 969,982 969,976 971,964 972,871 977,859 978,857 979,857 980,855 981,854 983,854 986,853"/>
<polygon style="fill:midnightblue;stroke:midnightblue;" points="986,850 996,851 987,856 986,850"/>
</g>
<g id="edge94" class="edge"><title>Node28-&gt;Node8</title>
<path style="fill:none;stroke:midnightblue;" d="M890,1191C903,1188 914,1182 923,1173 1024,1070 860,955 959,851 963,847 968,843 974,840"/>
<polygon style="fill:midnightblue;stroke:midnightblue;" points="972,837 983,836 975,843 972,837"/>
</g>
<g id="edge98" class="edge"><title>Node29-&gt;Node8</title>
<path style="fill:none;stroke:midnightblue;" d="M618,1242C715,1246 875,1246 923,1214 961,1188 953,1165 967,1122 969,1118 969,1117 969,1112 972,1089 972,1030 972,1006 974,951 973,938 975,882 976,880 975,864 978,853"/>
<polygon style="fill:midnightblue;stroke:midnightblue;" points="975,851 983,844 981,854 975,851"/>
</g>
<g id="edge102" class="edge"><title>Node30-&gt;Node8</title>
<path style="fill:none;stroke:midnightblue;" d="M872,1285C891,1283 910,1278 923,1264 987,1197 896,919 959,851 963,847 968,843 974,840"/>
<polygon style="fill:midnightblue;stroke:midnightblue;" points="972,837 983,836 975,843 972,837"/>
</g>
<g id="edge106" class="edge"><title>Node31-&gt;Node8</title>
<path style="fill:none;stroke:midnightblue;" d="M320,642C459,643 826,651 923,719 960,745 942,781 976,812"/>
<polygon style="fill:midnightblue;stroke:midnightblue;" points="979,810 984,819 974,815 979,810"/>
</g>
<g id="edge112" class="edge"><title>Node32-&gt;Node8</title>
<path style="fill:none;stroke:midnightblue;" d="M880,605C896,607 912,613 923,624 987,685 896,758 959,819 963,823 968,827 974,829"/>
<polygon style="fill:midnightblue;stroke:midnightblue;" points="975,826 983,833 972,832 975,826"/>
</g>
<g id="edge110" class="edge"><title>Node32-&gt;Node13</title>
<path style="fill:none;stroke:midnightblue;" d="M880,612C896,610 912,604 923,592 1016,498 873,393 953,296"/>
<polygon style="fill:midnightblue;stroke:midnightblue;" points="950,294 960,289 955,299 950,294"/>
</g>
<g id="edge116" class="edge"><title>Node33-&gt;Node8</title>
<path style="fill:none;stroke:midnightblue;" d="M378,841C537,840 824,837 973,836"/>
<polygon style="fill:midnightblue;stroke:midnightblue;" points="973,832 983,836 973,839 973,832"/>
</g>
<g id="edge120" class="edge"><title>Node34-&gt;Node8</title>
<path style="fill:none;stroke:midnightblue;" d="M354,886C507,875 817,853 973,842"/>
<polygon style="fill:midnightblue;stroke:midnightblue;" points="973,839 983,841 973,845 973,839"/>
</g>
<g id="edge126" class="edge"><title>Node35-&gt;Node8</title>
<path style="fill:none;stroke:midnightblue;" d="M880,504C896,507 912,513 923,524 1016,619 867,725 959,819 963,823 968,827 974,830"/>
<polygon style="fill:midnightblue;stroke:midnightblue;" points="975,827 983,834 972,833 975,827"/>
</g>
<g id="edge124" class="edge"><title>Node35-&gt;Node13</title>
<path style="fill:none;stroke:midnightblue;" d="M880,512C896,509 912,503 923,492 986,431 901,360 953,297"/>
<polygon style="fill:midnightblue;stroke:midnightblue;" points="951,294 960,289 956,299 951,294"/>
</g>
<g id="edge130" class="edge"><title>Node36-&gt;Node8</title>
<path style="fill:none;stroke:midnightblue;" d="M336,939C457,932 713,912 923,867 945,863 951,857 973,851"/>
<polygon style="fill:midnightblue;stroke:midnightblue;" points="973,848 983,849 974,854 973,848"/>
</g>
<g id="edge134" class="edge"><title>Node37-&gt;Node8</title>
<path style="fill:none;stroke:midnightblue;" d="M338,989C487,983 823,963 923,911 954,896 946,872 975,855 976,855 978,854 982,853"/>
<polygon style="fill:midnightblue;stroke:midnightblue;" points="982,850 992,851 983,856 982,850"/>
</g>
<g id="edge140" class="edge"><title>Node38-&gt;Node8</title>
<path style="fill:none;stroke:midnightblue;" d="M389,1029C578,1008 918,971 923,967 967,936 938,897 975,858 976,857 982,855 990,853"/>
<polygon style="fill:midnightblue;stroke:midnightblue;" points="990,850 1000,851 991,856 990,850"/>
</g>
</g>
</svg>
