<?xml version="1.0" encoding="UTF-8" standalone="no"?>
<!DOCTYPE svg PUBLIC "-//W3C//DTD SVG 1.0//EN"
 "http://www.w3.org/TR/2001/REC-SVG-20010904/DTD/svg10.dtd" [
 <!ATTLIST svg xmlns:xlink CDATA #FIXED "http://www.w3.org/1999/xlink">
]>
<!-- Generated by dot version 1.13 (v16) (Mon August 23, 2004)
     For user: (jarrodneven) Jarrod  Neven   Title: G    Pages: 1 -->
<svg width="448pt" height="144pt"
 viewBox = "-1 -1 447 143"
 xmlns="http://www.w3.org/2000/svg" xmlns:xlink="http://www.w3.org/1999/xlink">
<g id="graph0" class="graph" style="font-family:Times-Roman;font-size:14.00;">
<title>G</title>
<g id="node1" class="node"><title>Node1</title>
<polygon style="fill:#bfbfbf;stroke:black;" points="5,86 187,86 187,54 5,54 5,86"/>
<text text-anchor="middle" x="96" y="77" style="font-family:Helvetica;font-size:20.00;">XPLProcessUDPMsgHeader</text>
</g>
<g id="node3" class="node"><title>Node2</title>
<a xlink:href="x_p_l_8c.html#aa11ae2e433086c0ebc95c02a17a779d3" target="_top" xlink:title="xPLProcess_MsgField">
<polygon style="fill:none;stroke:black;" points="225,36 440,36 440,4 225,4 225,36"/>
<text text-anchor="middle" x="332" y="27" style="font-family:Helvetica;font-size:20.00;">xPLProcess_MsgField</text>
</a>
</g>
<g id="edge2" class="edge"><title>Node1-&gt;Node2</title>
<path style="fill:none;stroke:midnightblue;" d="M187,54C201,50 205,45 216,39"/>
<polygon style="fill:midnightblue;stroke:midnightblue;" points="214,36 225,35 217,42 214,36"/>
</g>
<g id="node5" class="node"><title>Node3</title>
<a xlink:href="x_p_l_8c.html#a3b166aa60e7a002cfcc3f6e34982fa73" target="_top" xlink:title="xPLProcessMsgChar">
<polygon style="fill:none;stroke:black;" points="230,86 434,86 434,54 230,54 230,86"/>
<text text-anchor="middle" x="332" y="77" style="font-family:Helvetica;font-size:20.00;">xPLProcessMsgChar</text>
</a>
</g>
<g id="edge4" class="edge"><title>Node1-&gt;Node3</title>
<path style="fill:none;stroke:midnightblue;" d="M187,70C198,70 209,70 220,70"/>
<polygon style="fill:midnightblue;stroke:midnightblue;" points="220,66 230,70 220,73 220,66"/>
</g>
<g id="node7" class="node"><title>Node4</title>
<a xlink:href="x_p_l_8c.html#a9abaa084202354fa039c0dbfadc23e09" target="_top" xlink:title="xPLProcessSaveValue">
<polygon style="fill:none;stroke:black;" points="223,136 441,136 441,104 223,104 223,136"/>
<text text-anchor="middle" x="332" y="127" style="font-family:Helvetica;font-size:20.00;">xPLProcessSaveValue</text>
</a>
</g>
<g id="edge6" class="edge"><title>Node1-&gt;Node4</title>
<path style="fill:none;stroke:midnightblue;" d="M187,86C200,91 204,96 213,100"/>
<polygon style="fill:midnightblue;stroke:midnightblue;" points="215,97 223,104 212,104 215,97"/>
</g>
</g>
</svg>
