<?xml version="1.0" encoding="UTF-8" standalone="no"?>
<!DOCTYPE svg PUBLIC "-//W3C//DTD SVG 1.0//EN"
 "http://www.w3.org/TR/2001/REC-SVG-20010904/DTD/svg10.dtd" [
 <!ATTLIST svg xmlns:xlink CDATA #FIXED "http://www.w3.org/1999/xlink">
]>
<!-- Generated by dot version 1.13 (v16) (Mon August 23, 2004)
     For user: (jarrodneven) Jarrod  Neven   Title: G    Pages: 1 -->
<svg width="1388pt" height="1700pt"
 viewBox = "-1 -1 1387 1699"
 xmlns="http://www.w3.org/2000/svg" xmlns:xlink="http://www.w3.org/1999/xlink">
<g id="graph0" class="graph" style="font-family:Times-Roman;font-size:14.00;">
<title>G</title>
<g id="node1" class="node"><title>Node1</title>
<polygon style="fill:#bfbfbf;stroke:black;" points="6,1347 81,1347 81,1315 6,1315 6,1347"/>
<text text-anchor="middle" x="43" y="1338" style="font-family:Helvetica;font-size:20.00;">XPLTasks</text>
</g>
<g id="node3" class="node"><title>Node2</title>
<a xlink:href="_security_system_8c.html#a62b4d90791ab073f74677d42bfb64253" target="_top" xlink:title="SchemaTasks">
<polygon style="fill:none;stroke:black;" points="150,704 290,704 290,672 150,672 150,704"/>
<text text-anchor="middle" x="220" y="695" style="font-family:Helvetica;font-size:20.00;">SchemaTasks</text>
</a>
</g>
<g id="edge2" class="edge"><title>Node1-&gt;Node2</title>
<path style="fill:none;stroke:midnightblue;" d="M81,1315C160,1203 26,805 117,704 124,697 131,692 140,689"/>
<polygon style="fill:midnightblue;stroke:midnightblue;" points="139,686 150,686 141,692 139,686"/>
</g>
<g id="node108" class="node"><title>Node38</title>
<a xlink:href="_security_system_8h.html#aa3464edbc8a2b00d44aff04588ed10ef" target="_top" xlink:title="Managers the scheduled sending of emails.">
<polygon style="fill:none;stroke:black;" points="128,1444 313,1444 313,1412 128,1412 128,1444"/>
<text text-anchor="middle" x="220" y="1435" style="font-family:Helvetica;font-size:20.00;">SMTPTaskProcess</text>
</a>
</g>
<g id="edge140" class="edge"><title>Node1-&gt;Node38</title>
<path style="fill:none;stroke:midnightblue;" d="M81,1347C106,1370 90,1393 117,1412 118,1412 118,1413 119,1413"/>
<polygon style="fill:midnightblue;stroke:midnightblue;" points="121,1410 128,1418 118,1416 121,1410"/>
</g>
<g id="node110" class="node"><title>Node39</title>
<a xlink:href="x_p_l_8c.html#a07f019fb7de86ef4bfe4cab422be0969" target="_top" xlink:title="XPLHeartBeatTiming">
<polygon style="fill:none;stroke:black;" points="119,1338 322,1338 322,1306 119,1306 119,1338"/>
<text text-anchor="middle" x="220" y="1329" style="font-family:Helvetica;font-size:20.00;">XPLHeartBeatTiming</text>
</a>
</g>
<g id="edge142" class="edge"><title>Node1-&gt;Node39</title>
<path style="fill:none;stroke:midnightblue;" d="M81,1329C89,1328 99,1328 109,1328"/>
<polygon style="fill:midnightblue;stroke:midnightblue;" points="109,1325 119,1327 109,1331 109,1325"/>
</g>
<g id="node115" class="node"><title>Node41</title>
<a xlink:href="x_p_l_8c.html#a41c59f641ff95b999e66c0d45117b73d" target="_top" xlink:title="XPLProcessUDPMsg">
<polygon style="fill:none;stroke:black;" points="117,1394 323,1394 323,1362 117,1362 117,1394"/>
<text text-anchor="middle" x="220" y="1385" style="font-family:Helvetica;font-size:20.00;">XPLProcessUDPMsg</text>
</a>
</g>
<g id="edge148" class="edge"><title>Node1-&gt;Node41</title>
<path style="fill:none;stroke:midnightblue;" d="M81,1347C91,1351 100,1356 107,1358"/>
<polygon style="fill:midnightblue;stroke:midnightblue;" points="109,1355 117,1362 106,1362 109,1355"/>
</g>
<g id="node5" class="node"><title>Node3</title>
<a xlink:href="_battery_8c.html#ad7abffae7b40c1538c5411bfd808a68a" target="_top" xlink:title="Task process for managing the battery state.">
<polygon style="fill:none;stroke:black;" points="435,1240 555,1240 555,1208 435,1208 435,1240"/>
<text text-anchor="middle" x="495" y="1231" style="font-family:Helvetica;font-size:20.00;">BatteryTask</text>
</a>
</g>
<g id="edge4" class="edge"><title>Node2-&gt;Node3</title>
<path style="fill:none;stroke:midnightblue;" d="M290,686C303,689 314,695 323,704 400,787 282,1127 359,1208 376,1225 401,1232 425,1233"/>
<polygon style="fill:midnightblue;stroke:midnightblue;" points="425,1229 435,1233 425,1236 425,1229"/>
</g>
<g id="node13" class="node"><title>Node7</title>
<a xlink:href="_security_system_8c.html#ab3be31caf1027bb142335a3a3d7d4eb1" target="_top" xlink:title="bypassZone">
<polygon style="fill:none;stroke:black;" points="433,886 558,886 558,854 433,854 433,886"/>
<text text-anchor="middle" x="495" y="877" style="font-family:Helvetica;font-size:20.00;">bypassZone</text>
</a>
</g>
<g id="edge12" class="edge"><title>Node2-&gt;Node7</title>
<path style="fill:none;stroke:midnightblue;" d="M290,688C302,691 314,696 323,704 374,751 308,809 359,854 376,870 400,875 423,877"/>
<polygon style="fill:midnightblue;stroke:midnightblue;" points="423,874 433,878 423,880 423,874"/>
</g>
<g id="node19" class="node"><title>Node10</title>
<a xlink:href="_security_system_8c.html#a14eb903eaa706a4874267274a2ffc6fa" target="_top" xlink:title="EnableZone">
<polygon style="fill:none;stroke:black;" points="433,936 557,936 557,904 433,904 433,936"/>
<text text-anchor="middle" x="495" y="927" style="font-family:Helvetica;font-size:20.00;">EnableZone</text>
</a>
</g>
<g id="edge18" class="edge"><title>Node2-&gt;Node10</title>
<path style="fill:none;stroke:midnightblue;" d="M290,687C302,690 314,695 323,704 388,768 294,843 359,904 376,920 400,926 423,928"/>
<polygon style="fill:midnightblue;stroke:midnightblue;" points="423,924 433,928 423,931 423,924"/>
</g>
<g id="node23" class="node"><title>Node11</title>
<a xlink:href="_security_system_8c.html#a3ccbc635f6f7bb31465920840c7db474" target="_top" xlink:title="IOTasks">
<polygon style="fill:none;stroke:black;" points="451,458 539,458 539,426 451,426 451,458"/>
<text text-anchor="middle" x="495" y="449" style="font-family:Helvetica;font-size:20.00;">IOTasks</text>
</a>
</g>
<g id="edge24" class="edge"><title>Node2-&gt;Node11</title>
<path style="fill:none;stroke:midnightblue;" d="M290,689C303,686 314,681 323,672 392,605 290,525 359,458 380,438 413,434 441,435"/>
<polygon style="fill:midnightblue;stroke:midnightblue;" points="441,431 451,435 441,438 441,431"/>
</g>
<g id="node36" class="node"><title>Node16</title>
<a xlink:href="_security_system_8h.html#ae9e6733b7fed738a76787f01762bb284" target="_top" xlink:title="SendAlarmingMsg">
<polygon style="fill:none;stroke:black;" points="945,324 1124,324 1124,292 945,292 945,324"/>
<text text-anchor="middle" x="1034" y="315" style="font-family:Helvetica;font-size:20.00;">SendAlarmingMsg</text>
</a>
</g>
<g id="edge62" class="edge"><title>Node2-&gt;Node16</title>
<path style="fill:none;stroke:midnightblue;" d="M290,685C303,685 313,680 323,664 333,650 347,363 359,350 437,272 766,286 935,299"/>
<polygon style="fill:midnightblue;stroke:midnightblue;" points="935,296 945,300 935,302 935,296"/>
</g>
<g id="node40" class="node"><title>Node17</title>
<a xlink:href="_security_system_8h.html#ae777555850cf9c897f46c8407ce1729f" target="_top" xlink:title="Places a new email in the SMTP queue to be processed (sent)">
<polygon style="fill:none;stroke:black;" points="943,236 1125,236 1125,204 943,204 943,236"/>
<text text-anchor="middle" x="1034" y="227" style="font-family:Helvetica;font-size:20.00;">SMTPQueueEmail</text>
</a>
</g>
<g id="edge134" class="edge"><title>Node2-&gt;Node17</title>
<path style="fill:none;stroke:midnightblue;" d="M290,675C298,673 304,671 308,670 316,668 320,668 323,661 329,652 327,623 327,611 335,515 335,490 347,393 352,357 336,340 359,311 516,122 656,188 901,203 912,204 922,205 933,206"/>
<polygon style="fill:midnightblue;stroke:midnightblue;" points="933,203 943,207 933,209 933,203"/>
</g>
<g id="node46" class="node"><title>Node20</title>
<a xlink:href="_security_system_8c.html#aa58e855f239c14c2cfc32dcfa244d31f" target="_top" xlink:title="IsolateZone">
<polygon style="fill:none;stroke:black;" points="435,988 556,988 556,956 435,956 435,988"/>
<text text-anchor="middle" x="495" y="979" style="font-family:Helvetica;font-size:20.00;">IsolateZone</text>
</a>
</g>
<g id="edge52" class="edge"><title>Node2-&gt;Node20</title>
<path style="fill:none;stroke:midnightblue;" d="M290,687C303,690 314,695 323,704 403,785 279,877 359,956 376,973 401,979 425,980"/>
<polygon style="fill:midnightblue;stroke:midnightblue;" points="425,976 435,980 425,983 425,976"/>
</g>
<g id="node50" class="node"><title>Node21</title>
<a xlink:href="_security_x_p_l_sender_8c.html#aa79f220fe412930dbbe86acd8e506f48" target="_top" xlink:title="SendACStat">
<polygon style="fill:none;stroke:black;" points="971,672 1097,672 1097,640 971,640 971,672"/>
<text text-anchor="middle" x="1034" y="663" style="font-family:Helvetica;font-size:20.00;">SendACStat</text>
</a>
</g>
<g id="edge58" class="edge"><title>Node2-&gt;Node21</title>
<path style="fill:none;stroke:midnightblue;" d="M290,683C312,681 337,679 359,678 578,667 836,660 961,657"/>
<polygon style="fill:midnightblue;stroke:midnightblue;" points="961,653 971,657 961,660 961,653"/>
</g>
<g id="node54" class="node"><title>Node22</title>
<a xlink:href="_security_system_8h.html#acdb6126b5578c4ca8c06d5343a7b37df" target="_top" xlink:title="SendAreaInfo">
<polygon style="fill:none;stroke:black;" points="965,36 1103,36 1103,4 965,4 965,36"/>
<text text-anchor="middle" x="1034" y="27" style="font-family:Helvetica;font-size:20.00;">SendAreaInfo</text>
</a>
</g>
<g id="edge64" class="edge"><title>Node2-&gt;Node22</title>
<path style="fill:none;stroke:midnightblue;" d="M290,677C302,677 313,673 323,659 328,653 327,361 327,352 329,331 329,326 331,304 335,271 336,263 339,229 347,170 317,138 359,96 442,16 795,14 955,18"/>
<polygon style="fill:midnightblue;stroke:midnightblue;" points="955,14 965,18 955,21 955,14"/>
</g>
<g id="node58" class="node"><title>Node23</title>
<a xlink:href="_security_system_8h.html#a43dbd62169c9f83be3663dc435e232c7" target="_top" xlink:title="SendAreaList">
<polygon style="fill:none;stroke:black;" points="716,710 852,710 852,678 716,678 716,710"/>
<text text-anchor="middle" x="784" y="701" style="font-family:Helvetica;font-size:20.00;">SendAreaList</text>
</a>
</g>
<g id="edge70" class="edge"><title>Node2-&gt;Node23</title>
<path style="fill:none;stroke:midnightblue;" d="M290,689C396,690 595,692 706,693"/>
<polygon style="fill:midnightblue;stroke:midnightblue;" points="706,689 716,693 706,696 706,689"/>
</g>
<g id="node61" class="node"><title>Node24</title>
<a xlink:href="_security_system_8h.html#a5d91f06e22d49f6ecee37802e866e0e6" target="_top" xlink:title="SendAreaStat">
<polygon style="fill:none;stroke:black;" points="964,86 1105,86 1105,54 964,54 964,86"/>
<text text-anchor="middle" x="1034" y="77" style="font-family:Helvetica;font-size:20.00;">SendAreaStat</text>
</a>
</g>
<g id="edge74" class="edge"><title>Node2-&gt;Node24</title>
<path style="fill:none;stroke:midnightblue;" d="M290,674C296,673 301,671 308,668 316,666 320,666 323,659 327,653 327,410 327,402 329,376 329,369 331,342 334,308 335,300 339,265 346,211 320,182 359,143 442,64 793,63 954,67"/>
<polygon style="fill:midnightblue;stroke:midnightblue;" points="954,63 964,67 954,70 954,63"/>
</g>
<g id="node65" class="node"><title>Node25</title>
<a xlink:href="_security_system_8h.html#ae77b19bae92f6c64f9a58f722b4bf193" target="_top" xlink:title="SendAreaStateMsg">
<polygon style="fill:none;stroke:black;" points="940,136 1129,136 1129,104 940,104 940,136"/>
<text text-anchor="middle" x="1034" y="127" style="font-family:Helvetica;font-size:20.00;">SendAreaStateMsg</text>
</a>
</g>
<g id="edge80" class="edge"><title>Node2-&gt;Node25</title>
<path style="fill:none;stroke:midnightblue;" d="M290,679C303,679 314,675 323,659 328,651 327,490 327,480 329,439 329,429 331,387 334,347 334,337 339,297 346,249 324,223 359,189 439,114 761,112 930,116"/>
<polygon style="fill:midnightblue;stroke:midnightblue;" points="930,112 940,116 930,119 930,112"/>
</g>
<g id="node69" class="node"><title>Node26</title>
<a xlink:href="_security_system_8h.html#ae049c3724d5bacc955f50f724483ed91" target="_top" xlink:title="SendArmed">
<polygon style="fill:none;stroke:black;" points="973,1202 1095,1202 1095,1170 973,1170 973,1202"/>
<text text-anchor="middle" x="1034" y="1193" style="font-family:Helvetica;font-size:20.00;">SendArmed</text>
</a>
</g>
<g id="edge86" class="edge"><title>Node2-&gt;Node26</title>
<path style="fill:none;stroke:midnightblue;" d="M290,694C296,696 302,698 308,701 343,718 349,736 355,773 356,779 356,1158 359,1161 401,1204 798,1194 963,1188"/>
<polygon style="fill:midnightblue;stroke:midnightblue;" points="963,1184 973,1188 963,1191 963,1184"/>
</g>
<g id="node72" class="node"><title>Node27</title>
<a xlink:href="_security_x_p_l_sender_8c.html#a80218fda4a4753b2d214453e14b400ff" target="_top" xlink:title="SendBatteryStat">
<polygon style="fill:none;stroke:black;" points="703,546 865,546 865,514 703,514 703,546"/>
<text text-anchor="middle" x="784" y="537" style="font-family:Helvetica;font-size:20.00;">SendBatteryStat</text>
</a>
</g>
<g id="edge90" class="edge"><title>Node2-&gt;Node27</title>
<path style="fill:none;stroke:midnightblue;" d="M290,683C302,679 314,674 323,666 345,649 351,641 355,614 357,605 353,538 359,531 383,509 576,517 693,523"/>
<polygon style="fill:midnightblue;stroke:midnightblue;" points="693,520 703,524 693,526 693,520"/>
</g>
<g id="node75" class="node"><title>Node28</title>
<a xlink:href="_security_system_8h.html#a07582d84515caf26cd22e534fd29f378" target="_top" xlink:title="SendConfigList">
<polygon style="fill:none;stroke:black;" points="958,836 1110,836 1110,804 958,804 958,836"/>
<text text-anchor="middle" x="1034" y="827" style="font-family:Helvetica;font-size:20.00;">SendConfigList</text>
</a>
</g>
<g id="edge94" class="edge"><title>Node2-&gt;Node28</title>
<path style="fill:none;stroke:midnightblue;" d="M290,695C304,698 317,704 327,713 346,729 350,736 355,759 357,765 356,804 359,807 401,847 775,834 948,825"/>
<polygon style="fill:midnightblue;stroke:midnightblue;" points="948,822 958,824 948,828 948,822"/>
</g>
<g id="node78" class="node"><title>Node29</title>
<a xlink:href="_security_system_8h.html#af1800c287b83d40961f39fcd9a751322" target="_top" xlink:title="SendDisarm">
<polygon style="fill:none;stroke:black;" points="721,1076 847,1076 847,1044 721,1044 721,1076"/>
<text text-anchor="middle" x="784" y="1067" style="font-family:Helvetica;font-size:20.00;">SendDisarm</text>
</a>
</g>
<g id="edge98" class="edge"><title>Node2-&gt;Node29</title>
<path style="fill:none;stroke:midnightblue;" d="M290,696C294,697 298,698 301,699 335,711 347,725 355,759 357,766 355,993 359,997 404,1048 601,1058 711,1060"/>
<polygon style="fill:midnightblue;stroke:midnightblue;" points="711,1056 721,1060 711,1063 711,1056"/>
</g>
<g id="node81" class="node"><title>Node30</title>
<a xlink:href="_security_system_8h.html#ab29cace49ca20af0048aac94e64c10dd" target="_top" xlink:title="SendError">
<polygon style="fill:none;stroke:black;" points="981,1114 1088,1114 1088,1082 981,1082 981,1114"/>
<text text-anchor="middle" x="1034" y="1105" style="font-family:Helvetica;font-size:20.00;">SendError</text>
</a>
</g>
<g id="edge102" class="edge"><title>Node2-&gt;Node30</title>
<path style="fill:none;stroke:midnightblue;" d="M290,695C304,699 317,705 327,714 340,725 341,731 347,745 356,765 354,771 355,792 356,800 354,1058 359,1063 401,1107 811,1103 971,1099"/>
<polygon style="fill:midnightblue;stroke:midnightblue;" points="971,1095 981,1099 971,1102 971,1095"/>
</g>
<g id="node84" class="node"><title>Node31</title>
<a xlink:href="_security_system_8h.html#aeb4ee205f02bf767a5d3b93608abc736" target="_top" xlink:title="SendGateStat">
<polygon style="fill:none;stroke:black;" points="963,186 1105,186 1105,154 963,154 963,186"/>
<text text-anchor="middle" x="1034" y="177" style="font-family:Helvetica;font-size:20.00;">SendGateStat</text>
</a>
</g>
<g id="edge106" class="edge"><title>Node2-&gt;Node31</title>
<path style="fill:none;stroke:midnightblue;" d="M290,678C302,678 313,674 323,660 327,656 327,558 327,551 332,481 311,287 359,235 437,151 790,158 953,165"/>
<polygon style="fill:midnightblue;stroke:midnightblue;" points="953,162 963,166 953,168 953,162"/>
</g>
<g id="node88" class="node"><title>Node32</title>
<a xlink:href="_security_system_8h.html#a2c31ecf27fafa5085703f0719f6decac" target="_top" xlink:title="SendGatewayChanged">
<polygon style="fill:none;stroke:black;" points="384,748 607,748 607,716 384,716 384,748"/>
<text text-anchor="middle" x="495" y="739" style="font-family:Helvetica;font-size:20.00;">SendGatewayChanged</text>
</a>
</g>
<g id="edge112" class="edge"><title>Node2-&gt;Node32</title>
<path style="fill:none;stroke:midnightblue;" d="M290,698C301,700 312,702 323,704 340,708 343,713 359,716 364,717 369,718 374,719"/>
<polygon style="fill:midnightblue;stroke:midnightblue;" points="375,716 384,721 374,722 375,716"/>
</g>
<g id="node91" class="node"><title>Node33</title>
<a xlink:href="_security_system_8h.html#a46495fd42c19f6703e4663cb7cf2d1ec" target="_top" xlink:title="SendGatewayInfo">
<polygon style="fill:none;stroke:black;" points="408,1152 583,1152 583,1120 408,1120 408,1152"/>
<text text-anchor="middle" x="495" y="1143" style="font-family:Helvetica;font-size:20.00;">SendGatewayInfo</text>
</a>
</g>
<g id="edge116" class="edge"><title>Node2-&gt;Node33</title>
<path style="fill:none;stroke:midnightblue;" d="M290,687C303,690 314,695 323,704 387,772 295,1054 359,1120 370,1131 383,1137 398,1141"/>
<polygon style="fill:midnightblue;stroke:midnightblue;" points="399,1138 408,1143 398,1144 399,1138"/>
</g>
<g id="node94" class="node"><title>Node34</title>
<a xlink:href="_security_system_8h.html#ae149da75e2b494aa56f4976837706565" target="_top" xlink:title="SendZoneInfo">
<polygon style="fill:none;stroke:black;" points="963,374 1105,374 1105,342 963,342 963,374"/>
<text text-anchor="middle" x="1034" y="365" style="font-family:Helvetica;font-size:20.00;">SendZoneInfo</text>
</a>
</g>
<g id="edge120" class="edge"><title>Node2-&gt;Node34</title>
<path style="fill:none;stroke:midnightblue;" d="M290,683C305,680 318,677 323,671 343,651 341,439 359,417 522,236 659,318 901,337 907,338 929,341 953,345"/>
<polygon style="fill:midnightblue;stroke:midnightblue;" points="954,342 963,347 953,348 954,342"/>
</g>
<g id="node98" class="node"><title>Node35</title>
<a xlink:href="_security_system_8h.html#a5583c2b95797b8210dfe1b1a5e516c2d" target="_top" xlink:title="SendZoneList">
<polygon style="fill:none;stroke:black;" points="426,572 565,572 565,540 426,540 426,572"/>
<text text-anchor="middle" x="495" y="563" style="font-family:Helvetica;font-size:20.00;">SendZoneList</text>
</a>
</g>
<g id="edge126" class="edge"><title>Node2-&gt;Node35</title>
<path style="fill:none;stroke:midnightblue;" d="M290,688C302,685 314,680 323,672 360,642 323,602 359,572 375,560 396,554 416,551"/>
<polygon style="fill:midnightblue;stroke:midnightblue;" points="416,548 426,550 416,554 416,548"/>
</g>
<g id="node101" class="node"><title>Node36</title>
<a xlink:href="_security_system_8h.html#a7fdbfa1929e90a45cc905c6276ab7cae" target="_top" xlink:title="SendZoneStat">
<polygon style="fill:none;stroke:black;" points="423,622 567,622 567,590 423,590 423,622"/>
<text text-anchor="middle" x="495" y="613" style="font-family:Helvetica;font-size:20.00;">SendZoneStat</text>
</a>
</g>
<g id="edge130" class="edge"><title>Node2-&gt;Node36</title>
<path style="fill:none;stroke:midnightblue;" d="M290,685C302,682 313,678 323,672 347,658 336,636 359,622 375,613 394,608 413,605"/>
<polygon style="fill:midnightblue;stroke:midnightblue;" points="413,602 423,604 413,608 413,602"/>
</g>
<g id="node105" class="node"><title>Node37</title>
<a xlink:href="_security_system_8c.html#ab4b79e3122c6964725cec23bf923547a" target="_top" xlink:title="StateChangeToArmFailed">
<polygon style="fill:none;stroke:black;" points="373,798 618,798 618,766 373,766 373,798"/>
<text text-anchor="middle" x="495" y="789" style="font-family:Helvetica;font-size:20.00;">StateChangeToArmFailed</text>
</a>
</g>
<g id="edge136" class="edge"><title>Node2-&gt;Node37</title>
<path style="fill:none;stroke:midnightblue;" d="M290,690C302,693 313,697 323,704 350,722 333,749 359,766 360,767 362,768 364,769"/>
<polygon style="fill:midnightblue;stroke:midnightblue;" points="366,766 373,774 363,772 366,766"/>
</g>
<g id="node7" class="node"><title>Node4</title>
<a xlink:href="_security_system_8h.html#a30c3c9cdda2491c17d5d6d5cc6426b31" target="_top" xlink:title="addxPLMessage">
<polygon style="fill:none;stroke:black;" points="952,1391 1117,1391 1117,1359 952,1359 952,1391"/>
<text text-anchor="middle" x="1034" y="1382" style="font-family:Helvetica;font-size:20.00;">addxPLMessage</text>
</a>
</g>
<g id="edge6" class="edge"><title>Node3-&gt;Node4</title>
<path style="fill:none;stroke:midnightblue;" d="M555,1229C579,1231 607,1235 631,1240 662,1247 874,1310 901,1325 920,1336 918,1348 937,1357 939,1358 940,1359 942,1360"/>
<polygon style="fill:midnightblue;stroke:midnightblue;" points="943,1357 952,1363 941,1363 943,1357"/>
</g>
<g id="node11" class="node"><title>Node6</title>
<a xlink:href="_battery_8c.html#a35ba3e06ddabc0ec9b6167696f49ec58" target="_top" xlink:title="FetchADC">
<polygon style="fill:none;stroke:black;" points="730,1240 838,1240 838,1208 730,1208 730,1240"/>
<text text-anchor="middle" x="784" y="1231" style="font-family:Helvetica;font-size:20.00;">FetchADC</text>
</a>
</g>
<g id="edge10" class="edge"><title>Node3-&gt;Node6</title>
<path style="fill:none;stroke:midnightblue;" d="M555,1224C604,1224 670,1224 720,1224"/>
<polygon style="fill:midnightblue;stroke:midnightblue;" points="720,1220 730,1224 720,1227 720,1220"/>
</g>
<g id="node9" class="node"><title>Node5</title>
<a xlink:href="_security_system_8c.html#a491f8822a8274ca5244c41d226e7136e" target="_top" xlink:title="ClearArmingFlags">
<polygon style="fill:none;stroke:black;" points="1186,1519 1362,1519 1362,1487 1186,1487 1186,1519"/>
<text text-anchor="middle" x="1274" y="1510" style="font-family:Helvetica;font-size:20.00;">ClearArmingFlags</text>
</a>
</g>
<g id="edge8" class="edge"><title>Node4-&gt;Node5</title>
<path style="fill:none;stroke:midnightblue;" d="M1117,1383C1122,1385 1127,1388 1131,1391 1167,1419 1132,1458 1167,1487 1170,1490 1173,1492 1177,1494"/>
<polygon style="fill:midnightblue;stroke:midnightblue;" points="1178,1491 1186,1498 1175,1497 1178,1491"/>
</g>
<g id="node15" class="node"><title>Node8</title>
<a xlink:href="x_p_l_8c.html#a1099a7d6ccfe562deba149fd4acef424" target="_top" xlink:title="xPLSaveEEConfig">
<polygon style="fill:none;stroke:black;" points="694,988 875,988 875,956 694,956 694,988"/>
<text text-anchor="middle" x="784" y="979" style="font-family:Helvetica;font-size:20.00;">xPLSaveEEConfig</text>
</a>
</g>
<g id="edge14" class="edge"><title>Node7-&gt;Node8</title>
<path style="fill:none;stroke:midnightblue;" d="M558,865C583,867 610,872 631,886 660,906 639,936 667,956 672,960 678,963 684,966"/>
<polygon style="fill:midnightblue;stroke:midnightblue;" points="685,963 694,969 683,969 685,963"/>
</g>
<g id="node17" class="node"><title>Node9</title>
<a xlink:href="x_p_l_8c.html#abde6ae0f37ef47bee8e881bba8502169" target="_top" xlink:title="XPLSendHeader">
<polygon style="fill:none;stroke:black;" points="1191,716 1357,716 1357,684 1191,684 1191,716"/>
<text text-anchor="middle" x="1274" y="707" style="font-family:Helvetica;font-size:20.00;">XPLSendHeader</text>
</a>
</g>
<g id="edge16" class="edge"><title>Node7-&gt;Node9</title>
<path style="fill:none;stroke:midnightblue;" d="M558,865C711,863 1083,880 1131,845 1144,837 1170,729 1183,721 1184,721 1184,720 1185,720"/>
<polygon style="fill:midnightblue;stroke:midnightblue;" points="1183,717 1194,716 1186,723 1183,717"/>
</g>
<g id="edge20" class="edge"><title>Node10-&gt;Node8</title>
<path style="fill:none;stroke:midnightblue;" d="M557,922C581,925 608,929 631,936 649,942 650,951 667,956 673,958 678,959 684,961"/>
<polygon style="fill:midnightblue;stroke:midnightblue;" points="685,958 694,963 684,964 685,958"/>
</g>
<g id="edge22" class="edge"><title>Node10-&gt;Node9</title>
<path style="fill:none;stroke:midnightblue;" d="M557,919C709,916 1086,906 1131,872 1158,852 1160,754 1183,729 1185,728 1186,728 1188,727 1208,721 1219,722 1232,719"/>
<polygon style="fill:midnightblue;stroke:midnightblue;" points="1231,716 1242,716 1233,722 1231,716"/>
</g>
<g id="edge26" class="edge"><title>Node11-&gt;Node4</title>
<path style="fill:none;stroke:midnightblue;" d="M539,449C574,451 617,452 631,466 711,548 616,618 667,719 733,849 839,816 901,947 979,1110 861,1188 937,1350 940,1355 943,1354 947,1355 952,1356 956,1357 960,1357"/>
<polygon style="fill:midnightblue;stroke:midnightblue;" points="961,1354 970,1359 960,1360 961,1354"/>
</g>
<g id="node26" class="node"><title>Node12</title>
<a xlink:href="_e_o_l_8c.html#a44f4ef2b28f2d65b626e1ec4e5885934" target="_top" xlink:title="IsZoneTriggered">
<polygon style="fill:none;stroke:red;" points="953,424 1115,424 1115,392 953,392 953,424"/>
<text text-anchor="middle" x="1034" y="415" style="font-family:Helvetica;font-size:20.00;">IsZoneTriggered</text>
</a>
</g>
<g id="edge28" class="edge"><title>Node11-&gt;Node12</title>
<path style="fill:none;stroke:midnightblue;" d="M539,440C549,440 559,438 569,437 579,436 581,435 590,433 595,433 596,433 600,431 605,430 606,430 610,428 635,421 648,420 659,396 666,385 657,376 667,367 750,304 802,336 901,367 920,373 919,385 937,392 939,393 941,394 943,394"/>
<polygon style="fill:midnightblue;stroke:midnightblue;" points="945,391 953,398 942,398 945,391"/>
</g>
<g id="node30" class="node"><title>Node14</title>
<a xlink:href="_security_system_8h.html#ab01e7f6872c9f26dd9f91bc24f43f4b6" target="_top" xlink:title="SendZoneStateMsg">
<polygon style="fill:none;stroke:black;" points="938,505 1131,505 1131,473 938,473 938,505"/>
<text text-anchor="middle" x="1034" y="496" style="font-family:Helvetica;font-size:20.00;">SendZoneStateMsg</text>
</a>
</g>
<g id="edge32" class="edge"><title>Node11-&gt;Node14</title>
<path style="fill:none;stroke:midnightblue;" d="M539,446C566,449 601,453 631,458 648,461 651,465 667,467 754,480 855,486 928,488"/>
<polygon style="fill:midnightblue;stroke:midnightblue;" points="928,484 938,488 928,491 928,484"/>
</g>
<g id="node33" class="node"><title>Node15</title>
<a xlink:href="_security_system_8c.html#accca294859199bc9e59cec74618c871c" target="_top" xlink:title="StateChangeToAlarming">
<polygon style="fill:none;stroke:black;" points="668,244 901,244 901,212 668,212 668,244"/>
<text text-anchor="middle" x="784" y="235" style="font-family:Helvetica;font-size:20.00;">StateChangeToAlarming</text>
</a>
</g>
<g id="edge36" class="edge"><title>Node11-&gt;Node15</title>
<path style="fill:none;stroke:midnightblue;" d="M539,449C569,452 607,449 631,426 689,373 614,307 661,251"/>
<polygon style="fill:midnightblue;stroke:midnightblue;" points="659,248 668,243 664,253 659,248"/>
</g>
<g id="node42" class="node"><title>Node18</title>
<a xlink:href="_security_system_8c.html#a75fd42e4a596598bc65a32ee0c863ac6" target="_top" xlink:title="TaskAlarmed">
<polygon style="fill:none;stroke:black;" points="718,458 850,458 850,426 718,426 718,458"/>
<text text-anchor="middle" x="784" y="449" style="font-family:Helvetica;font-size:20.00;">TaskAlarmed</text>
</a>
</g>
<g id="edge48" class="edge"><title>Node11-&gt;Node18</title>
<path style="fill:none;stroke:midnightblue;" d="M539,442C584,442 654,442 708,442"/>
<polygon style="fill:midnightblue;stroke:midnightblue;" points="708,438 718,442 708,445 708,438"/>
</g>
<g id="node44" class="node"><title>Node19</title>
<a xlink:href="_security_system_8c.html#aa4b206c6022f03ed09cc1e7c0c1c64ac" target="_top" xlink:title="TaskAlarming">
<polygon style="fill:none;stroke:red;" points="716,408 852,408 852,376 716,376 716,408"/>
<text text-anchor="middle" x="784" y="399" style="font-family:Helvetica;font-size:20.00;">TaskAlarming</text>
</a>
</g>
<g id="edge50" class="edge"><title>Node11-&gt;Node19</title>
<path style="fill:none;stroke:midnightblue;" d="M539,441C566,439 601,435 631,426 649,421 650,414 667,408 680,404 693,401 706,399"/>
<polygon style="fill:midnightblue;stroke:midnightblue;" points="706,396 716,398 706,402 706,396"/>
</g>
<g id="node28" class="node"><title>Node13</title>
<a xlink:href="_security_system_8c.html#a290b0da69aaf212aa38c219c45a6d8a9" target="_top" xlink:title="isZoneMemberOfArea">
<polygon style="fill:none;stroke:black;" points="1168,233 1381,233 1381,201 1168,201 1168,233"/>
<text text-anchor="middle" x="1274" y="224" style="font-family:Helvetica;font-size:20.00;">isZoneMemberOfArea</text>
</a>
</g>
<g id="edge30" class="edge"><title>Node12-&gt;Node13</title>
<path style="fill:none;stroke:midnightblue;" d="M1115,403C1121,400 1126,396 1131,392 1181,345 1121,289 1161,240"/>
<polygon style="fill:midnightblue;stroke:midnightblue;" points="1159,237 1168,232 1164,242 1159,237"/>
</g>
<g id="edge34" class="edge"><title>Node14-&gt;Node9</title>
<path style="fill:none;stroke:midnightblue;" d="M1131,505C1190,562 1109,629 1167,684 1171,688 1176,692 1182,694"/>
<polygon style="fill:midnightblue;stroke:midnightblue;" points="1183,691 1191,698 1180,697 1183,691"/>
</g>
<g id="edge38" class="edge"><title>Node15-&gt;Node13</title>
<path style="fill:none;stroke:midnightblue;" d="M901,243C913,244 925,244 937,245 1024,250 1046,255 1131,245 1144,244 1147,242 1159,239 1166,238 1173,236 1180,235"/>
<polygon style="fill:midnightblue;stroke:midnightblue;" points="1180,232 1190,233 1181,238 1180,232"/>
</g>
<g id="edge40" class="edge"><title>Node15-&gt;Node16</title>
<path style="fill:none;stroke:midnightblue;" d="M901,244C921,256 917,274 936,290"/>
<polygon style="fill:midnightblue;stroke:midnightblue;" points="939,288 945,296 935,293 939,288"/>
</g>
<g id="edge46" class="edge"><title>Node15-&gt;Node17</title>
<path style="fill:none;stroke:midnightblue;" d="M901,224C912,224 922,223 933,223"/>
<polygon style="fill:midnightblue;stroke:midnightblue;" points="933,219 943,223 933,226 933,219"/>
</g>
<g id="edge44" class="edge"><title>Node16-&gt;Node9</title>
<path style="fill:none;stroke:midnightblue;" d="M1124,318C1127,320 1129,322 1131,324 1187,383 1112,626 1167,684 1171,688 1176,692 1182,695"/>
<polygon style="fill:midnightblue;stroke:midnightblue;" points="1183,692 1191,699 1180,698 1183,692"/>
</g>
<g id="edge42" class="edge"><title>Node16-&gt;Node13</title>
<path style="fill:none;stroke:midnightblue;" d="M1124,296C1127,295 1129,293 1131,292 1154,277 1145,256 1160,239"/>
<polygon style="fill:midnightblue;stroke:midnightblue;" points="1158,236 1168,232 1163,241 1158,236"/>
</g>
<g id="edge54" class="edge"><title>Node20-&gt;Node8</title>
<path style="fill:none;stroke:midnightblue;" d="M556,972C593,972 641,972 684,972"/>
<polygon style="fill:midnightblue;stroke:midnightblue;" points="684,968 694,972 684,975 684,968"/>
</g>
<g id="edge56" class="edge"><title>Node20-&gt;Node9</title>
<path style="fill:none;stroke:midnightblue;" d="M556,978C580,981 607,984 631,988 648,991 651,995 667,997 771,1010 799,1016 901,997 1009,978 1057,991 1131,910 1145,895 1170,748 1183,732 1194,720 1205,717 1216,717"/>
<polygon style="fill:midnightblue;stroke:midnightblue;" points="1216,714 1226,716 1216,720 1216,714"/>
</g>
<g id="edge60" class="edge"><title>Node21-&gt;Node9</title>
<path style="fill:none;stroke:midnightblue;" d="M1097,665C1108,667 1120,669 1131,672 1148,677 1151,681 1167,684 1172,685 1176,686 1181,687"/>
<polygon style="fill:midnightblue;stroke:midnightblue;" points="1182,684 1191,689 1181,690 1182,684"/>
</g>
<g id="edge68" class="edge"><title>Node22-&gt;Node9</title>
<path style="fill:none;stroke:midnightblue;" d="M1103,20C1114,23 1124,28 1131,36 1228,144 1070,578 1167,684 1172,689 1177,692 1182,695"/>
<polygon style="fill:midnightblue;stroke:midnightblue;" points="1184,692 1191,700 1181,698 1184,692"/>
</g>
<g id="edge66" class="edge"><title>Node22-&gt;Node13</title>
<path style="fill:none;stroke:midnightblue;" d="M1103,21C1114,24 1123,29 1131,36 1183,86 1120,144 1161,195"/>
<polygon style="fill:midnightblue;stroke:midnightblue;" points="1163,192 1168,202 1158,197 1163,192"/>
</g>
<g id="edge72" class="edge"><title>Node23-&gt;Node9</title>
<path style="fill:none;stroke:midnightblue;" d="M852,695C938,696 1085,698 1181,699"/>
<polygon style="fill:midnightblue;stroke:midnightblue;" points="1181,695 1191,699 1181,702 1181,695"/>
</g>
<g id="edge78" class="edge"><title>Node24-&gt;Node9</title>
<path style="fill:none;stroke:midnightblue;" d="M1105,70C1115,73 1124,78 1131,86 1221,185 1078,586 1167,684 1172,689 1177,692 1182,695"/>
<polygon style="fill:midnightblue;stroke:midnightblue;" points="1184,692 1191,700 1181,698 1184,692"/>
</g>
<g id="edge76" class="edge"><title>Node24-&gt;Node13</title>
<path style="fill:none;stroke:midnightblue;" d="M1105,73C1115,75 1124,80 1131,86 1169,120 1133,161 1161,195"/>
<polygon style="fill:midnightblue;stroke:midnightblue;" points="1163,192 1168,202 1158,197 1163,192"/>
</g>
<g id="edge84" class="edge"><title>Node25-&gt;Node9</title>
<path style="fill:none;stroke:midnightblue;" d="M1129,134C1130,135 1130,135 1131,136 1213,227 1085,595 1167,684 1172,689 1177,692 1182,695"/>
<polygon style="fill:midnightblue;stroke:midnightblue;" points="1184,692 1191,700 1181,698 1184,692"/>
</g>
<g id="edge82" class="edge"><title>Node25-&gt;Node13</title>
<path style="fill:none;stroke:midnightblue;" d="M1129,135C1130,135 1130,136 1131,136 1155,154 1143,177 1160,195"/>
<polygon style="fill:midnightblue;stroke:midnightblue;" points="1163,193 1168,202 1158,198 1163,193"/>
</g>
<g id="edge88" class="edge"><title>Node26-&gt;Node9</title>
<path style="fill:none;stroke:midnightblue;" d="M1095,1188C1109,1186 1122,1180 1131,1170 1200,1096 1098,790 1167,716 1171,712 1176,708 1182,705"/>
<polygon style="fill:midnightblue;stroke:midnightblue;" points="1180,702 1191,701 1183,708 1180,702"/>
</g>
<g id="edge92" class="edge"><title>Node27-&gt;Node9</title>
<path style="fill:none;stroke:midnightblue;" d="M865,528C954,527 1090,531 1131,560 1177,593 1143,640 1183,679"/>
<polygon style="fill:midnightblue;stroke:midnightblue;" points="1186,677 1191,686 1181,682 1186,677"/>
</g>
<g id="edge96" class="edge"><title>Node28-&gt;Node9</title>
<path style="fill:none;stroke:midnightblue;" d="M1110,816C1118,813 1125,809 1131,804 1165,778 1134,743 1167,716 1171,713 1176,710 1181,708"/>
<polygon style="fill:midnightblue;stroke:midnightblue;" points="1180,704 1191,704 1183,711 1180,704"/>
</g>
<g id="edge100" class="edge"><title>Node29-&gt;Node9</title>
<path style="fill:none;stroke:midnightblue;" d="M847,1063C936,1067 1092,1067 1131,1030 1182,983 1159,788 1180,721 1181,720 1181,719 1183,717"/>
<polygon style="fill:midnightblue;stroke:midnightblue;" points="1181,714 1191,711 1185,720 1181,714"/>
</g>
<g id="edge104" class="edge"><title>Node30-&gt;Node9</title>
<path style="fill:none;stroke:midnightblue;" d="M1088,1101C1104,1099 1120,1094 1131,1082 1187,1023 1111,776 1167,716 1171,712 1176,708 1182,705"/>
<polygon style="fill:midnightblue;stroke:midnightblue;" points="1180,702 1191,701 1183,708 1180,702"/>
</g>
<g id="edge110" class="edge"><title>Node31-&gt;Node9</title>
<path style="fill:none;stroke:midnightblue;" d="M1105,170C1115,173 1124,178 1131,186 1206,268 1092,603 1167,684 1172,689 1177,692 1182,695"/>
<polygon style="fill:midnightblue;stroke:midnightblue;" points="1184,692 1191,700 1181,698 1184,692"/>
</g>
<g id="edge108" class="edge"><title>Node31-&gt;Node13</title>
<path style="fill:none;stroke:midnightblue;" d="M1105,180C1114,182 1123,184 1131,186 1144,190 1149,194 1158,198"/>
<polygon style="fill:midnightblue;stroke:midnightblue;" points="1159,195 1168,201 1157,201 1159,195"/>
</g>
<g id="edge114" class="edge"><title>Node32-&gt;Node9</title>
<path style="fill:none;stroke:midnightblue;" d="M607,729C689,727 802,723 901,719 997,715 1105,710 1181,706"/>
<polygon style="fill:midnightblue;stroke:midnightblue;" points="1181,703 1191,705 1181,709 1181,703"/>
</g>
<g id="edge118" class="edge"><title>Node33-&gt;Node9</title>
<path style="fill:none;stroke:midnightblue;" d="M583,1140C748,1146 1089,1155 1131,1123 1165,1098 1147,1073 1159,1032 1169,1000 1171,991 1175,957 1177,948 1177,946 1177,936 1180,893 1181,782 1183,738 1184,737 1184,727 1186,718"/>
<polygon style="fill:midnightblue;stroke:midnightblue;" points="1183,716 1191,709 1189,719 1183,716"/>
</g>
<g id="edge124" class="edge"><title>Node34-&gt;Node9</title>
<path style="fill:none;stroke:midnightblue;" d="M1105,359C1115,362 1124,367 1131,374 1227,475 1071,585 1167,684 1171,688 1176,692 1182,695"/>
<polygon style="fill:midnightblue;stroke:midnightblue;" points="1183,692 1191,699 1180,698 1183,692"/>
</g>
<g id="edge122" class="edge"><title>Node34-&gt;Node13</title>
<path style="fill:none;stroke:midnightblue;" d="M1105,356C1115,353 1124,348 1131,342 1167,311 1134,272 1161,239"/>
<polygon style="fill:midnightblue;stroke:midnightblue;" points="1158,237 1168,232 1163,242 1158,237"/>
</g>
<g id="edge128" class="edge"><title>Node35-&gt;Node9</title>
<path style="fill:none;stroke:midnightblue;" d="M565,558C720,564 1082,579 1131,604 1165,622 1154,649 1185,670 1201,680 1211,681 1224,683"/>
<polygon style="fill:midnightblue;stroke:midnightblue;" points="1224,680 1234,684 1224,686 1224,680"/>
</g>
<g id="edge132" class="edge"><title>Node36-&gt;Node9</title>
<path style="fill:none;stroke:midnightblue;" d="M567,603C712,598 1031,592 1131,631 1160,642 1156,662 1183,675 1189,678 1194,680 1199,682"/>
<polygon style="fill:midnightblue;stroke:midnightblue;" points="1200,679 1209,684 1199,685 1200,679"/>
</g>
<g id="edge138" class="edge"><title>Node37-&gt;Node9</title>
<path style="fill:none;stroke:midnightblue;" d="M618,774C747,764 954,747 1131,723 1154,720 1161,719 1181,715"/>
<polygon style="fill:midnightblue;stroke:midnightblue;" points="1181,712 1191,713 1182,718 1181,712"/>
</g>
<g id="node112" class="node"><title>Node40</title>
<a xlink:href="x_p_l_8c.html#abc8f282f2ce56cb62d7e149120130c72" target="_top" xlink:title="XPLSendHeartBeat">
<polygon style="fill:none;stroke:black;" points="400,1327 591,1327 591,1295 400,1295 400,1327"/>
<text text-anchor="middle" x="495" y="1318" style="font-family:Helvetica;font-size:20.00;">XPLSendHeartBeat</text>
</a>
</g>
<g id="edge144" class="edge"><title>Node39-&gt;Node40</title>
<path style="fill:none;stroke:midnightblue;" d="M322,1318C344,1317 368,1316 390,1315"/>
<polygon style="fill:midnightblue;stroke:midnightblue;" points="390,1311 400,1315 390,1318 390,1311"/>
</g>
<g id="edge146" class="edge"><title>Node40-&gt;Node9</title>
<path style="fill:none;stroke:midnightblue;" d="M591,1308C749,1301 1052,1280 1131,1211 1166,1182 1156,1159 1163,1114 1171,1070 1161,956 1167,911 1170,895 1175,891 1177,874 1181,854 1179,848 1180,827 1181,825 1183,753 1188,726"/>
<polygon style="fill:midnightblue;stroke:midnightblue;" points="1185,725 1191,716 1191,727 1185,725"/>
</g>
<g id="node117" class="node"><title>Node42</title>
<a xlink:href="_security_system_8c.html#a3baecc6556e5cc7af0d59d0216aa217c" target="_top" xlink:title="SchemaProcessUDPMsg">
<polygon style="fill:none;stroke:red;" points="374,1466 616,1466 616,1434 374,1434 374,1466"/>
<text text-anchor="middle" x="495" y="1457" style="font-family:Helvetica;font-size:20.00;">SchemaProcessUDPMsg</text>
</a>
</g>
<g id="edge150" class="edge"><title>Node41-&gt;Node42</title>
<path style="fill:none;stroke:midnightblue;" d="M324,1394C345,1405 338,1423 359,1434 361,1435 363,1436 365,1436"/>
<polygon style="fill:midnightblue;stroke:midnightblue;" points="366,1433 374,1440 363,1439 366,1433"/>
</g>
<g id="node136" class="node"><title>Node49</title>
<a xlink:href="x_p_l_8c.html#a5f8892113a09c41986fc7240b315c01e" target="_top" xlink:title="xPLProcessMsgCompair">
<polygon style="fill:none;stroke:black;" points="377,1516 613,1516 613,1484 377,1484 377,1516"/>
<text text-anchor="middle" x="495" y="1507" style="font-family:Helvetica;font-size:20.00;">xPLProcessMsgCompair</text>
</a>
</g>
<g id="edge174" class="edge"><title>Node41-&gt;Node49</title>
<path style="fill:none;stroke:midnightblue;" d="M323,1394C357,1420 325,1457 359,1484 362,1486 365,1488 368,1490"/>
<polygon style="fill:midnightblue;stroke:midnightblue;" points="369,1487 377,1494 366,1493 369,1487"/>
</g>
<g id="node138" class="node"><title>Node50</title>
<a xlink:href="x_p_l_8c.html#af740a9e5684491e3dcbe5b0198f98860" target="_top" xlink:title="XPLProcessUDPMsgHeader">
<polygon style="fill:none;stroke:red;" points="359,1394 631,1394 631,1362 359,1362 359,1394"/>
<text text-anchor="middle" x="495" y="1385" style="font-family:Helvetica;font-size:20.00;">XPLProcessUDPMsgHeader</text>
</a>
</g>
<g id="edge176" class="edge"><title>Node41-&gt;Node50</title>
<path style="fill:none;stroke:midnightblue;" d="M323,1378C332,1378 340,1378 349,1378"/>
<polygon style="fill:midnightblue;stroke:midnightblue;" points="349,1374 359,1378 349,1381 349,1374"/>
</g>
<g id="edge152" class="edge"><title>Node42-&gt;Node4</title>
<path style="fill:none;stroke:midnightblue;" d="M616,1463C617,1463 618,1464 619,1464 649,1472 656,1486 663,1516 665,1522 663,1570 667,1575 705,1610 861,1608 901,1575 965,1522 878,1450 937,1393 938,1392 940,1391 942,1390"/>
<polygon style="fill:midnightblue;stroke:midnightblue;" points="941,1386 952,1386 944,1393 941,1386"/>
</g>
<g id="edge164" class="edge"><title>Node42-&gt;Node5</title>
<path style="fill:none;stroke:midnightblue;" d="M616,1466C618,1466 619,1467 621,1467 635,1470 639,1472 647,1483 659,1496 661,1501 663,1519 665,1528 661,1597 667,1604 743,1675 799,1620 901,1604 1024,1584 1047,1547 1167,1519 1170,1519 1173,1518 1176,1517"/>
<polygon style="fill:midnightblue;stroke:midnightblue;" points="1176,1514 1186,1515 1177,1520 1176,1514"/>
</g>
<g id="edge172" class="edge"><title>Node42-&gt;Node8</title>
<path style="fill:none;stroke:midnightblue;" d="M616,1445C622,1442 627,1439 631,1434 701,1363 599,1061 667,988 672,983 678,979 684,976"/>
<polygon style="fill:midnightblue;stroke:midnightblue;" points="683,972 694,972 686,979 683,972"/>
</g>
<g id="node120" class="node"><title>Node43</title>
<a xlink:href="_security_system_8c.html#a723bf79e9ca7924d850e5c2be4029b1c" target="_top" xlink:title="Arm">
<polygon style="fill:none;stroke:red;" points="758,1366 811,1366 811,1334 758,1334 758,1366"/>
<text text-anchor="middle" x="784" y="1357" style="font-family:Helvetica;font-size:20.00;">Arm</text>
</a>
</g>
<g id="edge154" class="edge"><title>Node42-&gt;Node43</title>
<path style="fill:none;stroke:midnightblue;" d="M616,1442C621,1440 626,1437 631,1434 660,1414 639,1385 667,1366 691,1349 723,1347 748,1347"/>
<polygon style="fill:midnightblue;stroke:midnightblue;" points="748,1343 758,1347 748,1350 748,1343"/>
</g>
<g id="node123" class="node"><title>Node44</title>
<a xlink:href="_security_system_8c.html#af7b9ebfe6bb90725304e83cadb4cced8" target="_top" xlink:title="ArmAway">
<polygon style="fill:none;stroke:red;" points="734,1692 835,1692 835,1660 734,1660 734,1692"/>
<text text-anchor="middle" x="784" y="1683" style="font-family:Helvetica;font-size:20.00;">ArmAway</text>
</a>
</g>
<g id="edge158" class="edge"><title>Node42-&gt;Node44</title>
<path style="fill:none;stroke:midnightblue;" d="M616,1455C622,1458 627,1462 631,1466 696,1525 604,1599 667,1660 682,1675 704,1680 724,1681"/>
<polygon style="fill:midnightblue;stroke:midnightblue;" points="724,1678 734,1682 724,1684 724,1678"/>
</g>
<g id="node125" class="node"><title>Node45</title>
<a xlink:href="_security_system_8c.html#afba09fe6505822eb03078088f14ef89b" target="_top" xlink:title="ArmHome">
<polygon style="fill:none;stroke:red;" points="731,1466 837,1466 837,1434 731,1434 731,1466"/>
<text text-anchor="middle" x="784" y="1457" style="font-family:Helvetica;font-size:20.00;">ArmHome</text>
</a>
</g>
<g id="edge160" class="edge"><title>Node42-&gt;Node45</title>
<path style="fill:none;stroke:midnightblue;" d="M616,1450C652,1450 689,1450 721,1450"/>
<polygon style="fill:midnightblue;stroke:midnightblue;" points="721,1446 731,1450 721,1453 721,1446"/>
</g>
<g id="node127" class="node"><title>Node46</title>
<a xlink:href="_security_system_8c.html#aad7b06369f4a1f3b427e137a9f84a5c0" target="_top" xlink:title="ArmLatchkey">
<polygon style="fill:none;stroke:red;" points="718,1516 851,1516 851,1484 718,1484 718,1516"/>
<text text-anchor="middle" x="784" y="1507" style="font-family:Helvetica;font-size:20.00;">ArmLatchkey</text>
</a>
</g>
<g id="edge162" class="edge"><title>Node42-&gt;Node46</title>
<path style="fill:none;stroke:midnightblue;" d="M616,1462C621,1463 626,1464 631,1466 649,1471 650,1478 667,1484 680,1488 694,1491 708,1493"/>
<polygon style="fill:midnightblue;stroke:midnightblue;" points="709,1490 718,1495 708,1496 709,1490"/>
</g>
<g id="node130" class="node"><title>Node47</title>
<a xlink:href="_security_system_8c.html#a3ca20943ab34a0d560cd22d88c0ba324" target="_top" xlink:title="Disarm">
<polygon style="fill:none;stroke:black;" points="745,1416 824,1416 824,1384 745,1384 745,1416"/>
<text text-anchor="middle" x="784" y="1407" style="font-family:Helvetica;font-size:20.00;">Disarm</text>
</a>
</g>
<g id="edge166" class="edge"><title>Node42-&gt;Node47</title>
<path style="fill:none;stroke:midnightblue;" d="M616,1438C621,1437 626,1435 631,1434 649,1428 650,1421 667,1416 689,1409 714,1405 735,1403"/>
<polygon style="fill:midnightblue;stroke:midnightblue;" points="735,1400 745,1402 735,1406 735,1400"/>
</g>
<g id="node133" class="node"><title>Node48</title>
<a xlink:href="_main_demo_8c.html#a8a69fd5952a14c7bfa97a304380d4bc1" target="_top" xlink:title="DisplayIPValue">
<polygon style="fill:none;stroke:black;" points="709,1566 859,1566 859,1534 709,1534 709,1566"/>
<text text-anchor="middle" x="784" y="1557" style="font-family:Helvetica;font-size:20.00;">DisplayIPValue</text>
</a>
</g>
<g id="edge170" class="edge"><title>Node42-&gt;Node48</title>
<path style="fill:none;stroke:midnightblue;" d="M616,1458C621,1460 626,1463 631,1466 660,1485 639,1514 667,1534 676,1540 688,1545 699,1548"/>
<polygon style="fill:midnightblue;stroke:midnightblue;" points="700,1545 709,1550 699,1551 700,1545"/>
</g>
<g id="edge156" class="edge"><title>Node43-&gt;Node4</title>
<path style="fill:none;stroke:midnightblue;" d="M811,1353C843,1356 895,1361 942,1366"/>
<polygon style="fill:midnightblue;stroke:midnightblue;" points="942,1363 952,1367 942,1369 942,1363"/>
</g>
<g id="edge168" class="edge"><title>Node47-&gt;Node4</title>
<path style="fill:none;stroke:midnightblue;" d="M824,1396C855,1393 901,1389 942,1384"/>
<polygon style="fill:midnightblue;stroke:midnightblue;" points="942,1381 952,1383 942,1387 942,1381"/>
</g>
</g>
</svg>
