<?xml version="1.0" encoding="UTF-8" standalone="no"?>
<!DOCTYPE svg PUBLIC "-//W3C//DTD SVG 1.0//EN"
 "http://www.w3.org/TR/2001/REC-SVG-20010904/DTD/svg10.dtd" [
 <!ATTLIST svg xmlns:xlink CDATA #FIXED "http://www.w3.org/1999/xlink">
]>
<!-- Generated by dot version 1.13 (v16) (Mon August 23, 2004)
     For user: (jarrodneven) Jarrod  Neven   Title: G    Pages: 1 -->
<svg width="946pt" height="44pt"
 viewBox = "-1 -1 945 43"
 xmlns="http://www.w3.org/2000/svg" xmlns:xlink="http://www.w3.org/1999/xlink">
<g id="graph0" class="graph" style="font-family:Times-Roman;font-size:14.00;">
<title>G</title>
<g id="node1" class="node"><title>Node1</title>
<polygon style="fill:#bfbfbf;stroke:black;" points="5,36 153,36 153,4 5,4 5,36"/>
<text text-anchor="middle" x="79" y="27" style="font-family:Helvetica;font-size:20.00;">xPLProcess_MsgField</text>
</g>
<g id="node3" class="node"><title>Node2</title>
<a xlink:href="x_p_l_8c.html#af740a9e5684491e3dcbe5b0198f98860" target="_top" xlink:title="XPLProcessUDPMsgHeader">
<polygon style="fill:none;stroke:black;" points="189,36 461,36 461,4 189,4 189,36"/>
<text text-anchor="middle" x="325" y="27" style="font-family:Helvetica;font-size:20.00;">XPLProcessUDPMsgHeader</text>
</a>
</g>
<g id="edge2" class="edge"><title>Node1-&gt;Node2</title>
<path style="fill:none;stroke:midnightblue;" d="M163,20C171,20 180,20 189,20"/>
<polygon style="fill:midnightblue;stroke:midnightblue;" points="163,23 153,20 163,16 163,23"/>
</g>
<g id="node5" class="node"><title>Node3</title>
<a xlink:href="x_p_l_8c.html#a41c59f641ff95b999e66c0d45117b73d" target="_top" xlink:title="XPLProcessUDPMsg">
<polygon style="fill:none;stroke:black;" points="497,36 703,36 703,4 497,4 497,36"/>
<text text-anchor="middle" x="600" y="27" style="font-family:Helvetica;font-size:20.00;">XPLProcessUDPMsg</text>
</a>
</g>
<g id="edge4" class="edge"><title>Node2-&gt;Node3</title>
<path style="fill:none;stroke:midnightblue;" d="M471,20C480,20 488,20 497,20"/>
<polygon style="fill:midnightblue;stroke:midnightblue;" points="471,23 461,20 471,16 471,23"/>
</g>
<g id="node7" class="node"><title>Node4</title>
<a xlink:href="x_p_l_8h.html#a86d914c966f337c4e3a6fda46a945d11" target="_top" xlink:title="XPLTasks">
<polygon style="fill:none;stroke:black;" points="740,36 843,36 843,4 740,4 740,36"/>
<text text-anchor="middle" x="791" y="27" style="font-family:Helvetica;font-size:20.00;">XPLTasks</text>
</a>
</g>
<g id="edge6" class="edge"><title>Node3-&gt;Node4</title>
<path style="fill:none;stroke:midnightblue;" d="M713,20C722,20 731,20 740,20"/>
<polygon style="fill:midnightblue;stroke:midnightblue;" points="713,23 703,20 713,16 713,23"/>
</g>
<g id="node9" class="node"><title>Node5</title>
<a xlink:href="_main_demo_8c.html#a6288eba0f8e8ad3ab1544ad731eb7667" target="_top" xlink:title="main">
<polygon style="fill:none;stroke:black;" points="880,36 939,36 939,4 880,4 880,36"/>
<text text-anchor="middle" x="909" y="27" style="font-family:Helvetica;font-size:20.00;">main</text>
</a>
</g>
<g id="edge8" class="edge"><title>Node4-&gt;Node5</title>
<path style="fill:none;stroke:midnightblue;" d="M853,20C863,20 872,20 880,20"/>
<polygon style="fill:midnightblue;stroke:midnightblue;" points="853,23 843,20 853,16 853,23"/>
</g>
</g>
</svg>
