G75*
G70*
%OFA0B0*%
%FSLAX24Y24*%
%IPPOS*%
%LPD*%
%AMOC8*
5,1,8,0,0,1.08239X$1,22.5*
%
%ADD10C,0.0620*%
%ADD11C,0.0106*%
%ADD12O,0.0900X0.1740*%
%ADD13O,0.1740X0.0900*%
%ADD14C,0.2360*%
%ADD15O,0.1260X0.0660*%
%ADD16R,0.0620X0.0620*%
%ADD17C,0.0660*%
%ADD18C,0.1020*%
%ADD19C,0.1320*%
D10*
X014989Y001923D03*
X020938Y012681D03*
X020938Y013681D03*
X020938Y014681D03*
X020938Y015681D03*
X021938Y015181D03*
X021938Y014181D03*
X021938Y013181D03*
X014989Y025939D03*
D11*
X010281Y019643D02*
X009855Y019643D01*
X009855Y020069D01*
X010281Y020069D01*
X010281Y019643D01*
X010281Y019748D02*
X009855Y019748D01*
X009855Y019853D02*
X010281Y019853D01*
X010281Y019958D02*
X009855Y019958D01*
X009855Y020063D02*
X010281Y020063D01*
X010281Y018816D02*
X009855Y018816D01*
X009855Y019242D01*
X010281Y019242D01*
X010281Y018816D01*
X010281Y018921D02*
X009855Y018921D01*
X009855Y019026D02*
X010281Y019026D01*
X010281Y019131D02*
X009855Y019131D01*
X009855Y019236D02*
X010281Y019236D01*
X009100Y018816D02*
X008674Y018816D01*
X008674Y019242D01*
X009100Y019242D01*
X009100Y018816D01*
X009100Y018921D02*
X008674Y018921D01*
X008674Y019026D02*
X009100Y019026D01*
X009100Y019131D02*
X008674Y019131D01*
X008674Y019236D02*
X009100Y019236D01*
X009100Y019643D02*
X008674Y019643D01*
X008674Y020069D01*
X009100Y020069D01*
X009100Y019643D01*
X009100Y019748D02*
X008674Y019748D01*
X008674Y019853D02*
X009100Y019853D01*
X009100Y019958D02*
X008674Y019958D01*
X008674Y020063D02*
X009100Y020063D01*
X007919Y019643D02*
X007493Y019643D01*
X007493Y020069D01*
X007919Y020069D01*
X007919Y019643D01*
X007919Y019748D02*
X007493Y019748D01*
X007493Y019853D02*
X007919Y019853D01*
X007919Y019958D02*
X007493Y019958D01*
X007493Y020063D02*
X007919Y020063D01*
X007919Y018816D02*
X007493Y018816D01*
X007493Y019242D01*
X007919Y019242D01*
X007919Y018816D01*
X007919Y018921D02*
X007493Y018921D01*
X007493Y019026D02*
X007919Y019026D01*
X007919Y019131D02*
X007493Y019131D01*
X007493Y019236D02*
X007919Y019236D01*
D12*
X002587Y001923D03*
X003965Y001923D03*
X005343Y001923D03*
X006721Y001923D03*
X008099Y001923D03*
X009477Y001923D03*
X010855Y001923D03*
X012233Y001923D03*
X013611Y001923D03*
X016367Y001923D03*
X017745Y001923D03*
X019123Y001923D03*
X020501Y001923D03*
X021879Y001923D03*
X023257Y001923D03*
X024635Y001923D03*
X026013Y001923D03*
X027391Y001923D03*
X027391Y025939D03*
X026013Y025939D03*
X024635Y025939D03*
X023257Y025939D03*
X021879Y025939D03*
X020501Y025939D03*
X019123Y025939D03*
X017745Y025939D03*
X016367Y025939D03*
X013611Y025939D03*
X012233Y025939D03*
X010855Y025939D03*
X009477Y025939D03*
X008099Y025939D03*
X006721Y025939D03*
X005343Y025939D03*
X003965Y025939D03*
X002587Y025939D03*
D13*
X002981Y019443D03*
X002981Y018065D03*
X002981Y016687D03*
X002981Y015309D03*
X002981Y013931D03*
X002981Y012553D03*
X002981Y011175D03*
X002981Y009797D03*
X002981Y008419D03*
D14*
X003375Y005466D03*
X003375Y022395D03*
X026603Y022395D03*
X026603Y005466D03*
D15*
X010167Y007726D03*
X010167Y009506D03*
X007607Y009506D03*
X007607Y007726D03*
D16*
X021938Y012181D03*
D17*
X025768Y012441D03*
X026368Y011441D03*
X026368Y015431D03*
X025768Y016431D03*
D18*
X023238Y017031D03*
X023238Y010831D03*
D19*
X024438Y011681D03*
X024438Y016181D03*
M02*
