%
M48
M72
T01C0.0197
T02C0.0360
T03C0.0400
T04C0.0560
T05C0.0640
T06C0.1260
%
T01
X6328Y5072
X7509Y4679
X8690Y3694
X10658Y4876
X11446Y4876
X11446Y4088
X13040Y5387
X13119Y6450
X13119Y7238
X14989Y6647
X14989Y5860
X15776Y5860
X15776Y6647
X16485Y8616
X17469Y8616
X18335Y8616
X18926Y8616
X20304Y8616
X20304Y7828
X19398Y7317
X21485Y7238
X23454Y5466
X24044Y5466
X23454Y4876
X22863Y4876
X20698Y4876
X18532Y5269
X22272Y9403
X23257Y9305
X24398Y9305
X25225Y8616
X25816Y8813
X25816Y9403
X25816Y9994
X25619Y7828
X21288Y9994
X20619Y10781
X20107Y11765
X19772Y12671
X19143Y12671
X18139Y11765
X17548Y12356
X17351Y12946
X17351Y13537
X16485Y13557
X16662Y12651
X15875Y12651
X15540Y13439
X15265Y13832
X14418Y13242
X14694Y12750
X14005Y11273
X14202Y9994
X13611Y9600
X12824Y9994
X12036Y9698
X11446Y10191
X12430Y12159
X12725Y13832
X12331Y15033
X10855Y15998
X10068Y16883
X8887Y16883
X8296Y16391
X7706Y16883
X7706Y18557
X8887Y18557
X10068Y18557
X11446Y19049
X12036Y17671
X12627Y17671
X12331Y16785
X14005Y16687
X14202Y17671
X13808Y19147
X13414Y19639
X12430Y21214
X12430Y21805
X12430Y22395
X13532Y23183
X15009Y22238
X15383Y22986
X18139Y22986
X20894Y22986
X20894Y20230
X18532Y20230
X16643Y20427
X15698Y18458
X16839Y17592
X17981Y17080
X19024Y17080
X19536Y15998
X20166Y15998
X19772Y15013
X19143Y15013
X17154Y15112
X16761Y14718
X16269Y14915
X15698Y15092
X15678Y15604
X15186Y15112
X14556Y15151
X15678Y14541
X16465Y15506
X16761Y10978
X17745Y10978
X17351Y9994
X18926Y9994
X15186Y9994
X10658Y12750
X10461Y13734
X9280Y14718
X7706Y12651
X7174Y11569
X6524Y11175
X6131Y10781
X8296Y11175
X8690Y11569
X8690Y10781
X5540Y13576
X4635Y13537
X6721Y14521
X6524Y20624
X7115Y21411
X8296Y22789
X8493Y23576
X8099Y24167
X5737Y22986
X9477Y21411
X11328Y20663
X10658Y23183
X24241Y13537
X25422Y14128
X26603Y13734
X23946Y2907
X9477Y6057
X9477Y6844
X8099Y6608
X7509Y6844
X4556Y7631
T02
X20938Y12681
X20938Y13681
X20938Y14681
X20938Y15681
X21938Y15181
X21938Y14181
X21938Y13181
X21938Y12181
T03
X25768Y12441
X26368Y11441
X26368Y15431
X25768Y16431
X10167Y9506
X10167Y7726
X7607Y7726
X7607Y9506
T04
X2587Y1923
X3965Y1923
X5343Y1923
X6721Y1923
X8099Y1923
X9477Y1923
X10855Y1923
X12233Y1923
X13611Y1923
X14989Y1923
X16367Y1923
X17745Y1923
X19123Y1923
X20501Y1923
X21879Y1923
X23257Y1923
X24635Y1923
X26013Y1923
X27391Y1923
X2981Y8419
X2981Y9797
X2981Y11175
X2981Y12553
X2981Y13931
X2981Y15309
X2981Y16687
X2981Y18065
X2981Y19443
X2587Y25939
X3965Y25939
X5343Y25939
X6721Y25939
X8099Y25939
X9477Y25939
X10855Y25939
X12233Y25939
X13611Y25939
X14989Y25939
X16367Y25939
X17745Y25939
X19123Y25939
X20501Y25939
X21879Y25939
X23257Y25939
X24635Y25939
X26013Y25939
X27391Y25939
T05
X23238Y17031
X23238Y10831
T06
X24438Y11681
X24438Y16181
X26603Y22395
X26603Y5466
X3375Y5466
X3375Y22395
M30
