G75*
G70*
%OFA0B0*%
%FSLAX24Y24*%
%IPPOS*%
%LPD*%
%AMOC8*
5,1,8,0,0,1.08239X$1,22.5*
%
%ADD10C,0.0000*%
%ADD11C,0.0050*%
%ADD12C,0.0060*%
%ADD13C,0.0100*%
%ADD14R,0.1060X0.0160*%
%ADD15C,0.0141*%
%ADD16R,0.0220X0.1339*%
D10*
X001209Y000151D02*
X001209Y027710D01*
X028769Y027710D01*
X028769Y000151D01*
X001209Y000151D01*
X014709Y001923D02*
X014711Y001957D01*
X014717Y001990D01*
X014727Y002022D01*
X014741Y002053D01*
X014759Y002082D01*
X014779Y002109D01*
X014803Y002133D01*
X014830Y002153D01*
X014859Y002171D01*
X014890Y002185D01*
X014922Y002195D01*
X014955Y002201D01*
X014989Y002203D01*
X015023Y002201D01*
X015056Y002195D01*
X015088Y002185D01*
X015119Y002171D01*
X015148Y002153D01*
X015175Y002133D01*
X015199Y002109D01*
X015219Y002082D01*
X015237Y002053D01*
X015251Y002022D01*
X015261Y001990D01*
X015267Y001957D01*
X015269Y001923D01*
X015267Y001889D01*
X015261Y001856D01*
X015251Y001824D01*
X015237Y001793D01*
X015219Y001764D01*
X015199Y001737D01*
X015175Y001713D01*
X015148Y001693D01*
X015119Y001675D01*
X015088Y001661D01*
X015056Y001651D01*
X015023Y001645D01*
X014989Y001643D01*
X014955Y001645D01*
X014922Y001651D01*
X014890Y001661D01*
X014859Y001675D01*
X014830Y001693D01*
X014803Y001713D01*
X014779Y001737D01*
X014759Y001764D01*
X014741Y001793D01*
X014727Y001824D01*
X014717Y001856D01*
X014711Y001889D01*
X014709Y001923D01*
X023808Y011681D02*
X023811Y011738D01*
X023818Y011795D01*
X023831Y011851D01*
X023849Y011905D01*
X023872Y011958D01*
X023900Y012008D01*
X023932Y012056D01*
X023968Y012100D01*
X024008Y012141D01*
X024052Y012179D01*
X024098Y012212D01*
X024148Y012240D01*
X024200Y012264D01*
X024254Y012284D01*
X024310Y012298D01*
X024366Y012307D01*
X024424Y012311D01*
X024481Y012310D01*
X024538Y012303D01*
X024594Y012291D01*
X024649Y012275D01*
X024702Y012253D01*
X024753Y012227D01*
X024801Y012196D01*
X024847Y012161D01*
X024889Y012121D01*
X024927Y012079D01*
X024961Y012032D01*
X024991Y011983D01*
X025016Y011932D01*
X025036Y011878D01*
X025052Y011823D01*
X025062Y011767D01*
X025067Y011710D01*
X025067Y011652D01*
X025062Y011595D01*
X025052Y011539D01*
X025036Y011484D01*
X025016Y011430D01*
X024991Y011379D01*
X024961Y011330D01*
X024927Y011283D01*
X024889Y011241D01*
X024847Y011201D01*
X024801Y011166D01*
X024753Y011135D01*
X024702Y011109D01*
X024649Y011087D01*
X024594Y011071D01*
X024538Y011059D01*
X024481Y011052D01*
X024424Y011051D01*
X024366Y011055D01*
X024310Y011064D01*
X024254Y011078D01*
X024200Y011098D01*
X024148Y011122D01*
X024098Y011150D01*
X024052Y011183D01*
X024008Y011221D01*
X023968Y011262D01*
X023932Y011306D01*
X023900Y011354D01*
X023872Y011404D01*
X023849Y011457D01*
X023831Y011511D01*
X023818Y011567D01*
X023811Y011624D01*
X023808Y011681D01*
X023808Y016181D02*
X023811Y016238D01*
X023818Y016295D01*
X023831Y016351D01*
X023849Y016405D01*
X023872Y016458D01*
X023900Y016508D01*
X023932Y016556D01*
X023968Y016600D01*
X024008Y016641D01*
X024052Y016679D01*
X024098Y016712D01*
X024148Y016740D01*
X024200Y016764D01*
X024254Y016784D01*
X024310Y016798D01*
X024366Y016807D01*
X024424Y016811D01*
X024481Y016810D01*
X024538Y016803D01*
X024594Y016791D01*
X024649Y016775D01*
X024702Y016753D01*
X024753Y016727D01*
X024801Y016696D01*
X024847Y016661D01*
X024889Y016621D01*
X024927Y016579D01*
X024961Y016532D01*
X024991Y016483D01*
X025016Y016432D01*
X025036Y016378D01*
X025052Y016323D01*
X025062Y016267D01*
X025067Y016210D01*
X025067Y016152D01*
X025062Y016095D01*
X025052Y016039D01*
X025036Y015984D01*
X025016Y015930D01*
X024991Y015879D01*
X024961Y015830D01*
X024927Y015783D01*
X024889Y015741D01*
X024847Y015701D01*
X024801Y015666D01*
X024753Y015635D01*
X024702Y015609D01*
X024649Y015587D01*
X024594Y015571D01*
X024538Y015559D01*
X024481Y015552D01*
X024424Y015551D01*
X024366Y015555D01*
X024310Y015564D01*
X024254Y015578D01*
X024200Y015598D01*
X024148Y015622D01*
X024098Y015650D01*
X024052Y015683D01*
X024008Y015721D01*
X023968Y015762D01*
X023932Y015806D01*
X023900Y015854D01*
X023872Y015904D01*
X023849Y015957D01*
X023831Y016011D01*
X023818Y016067D01*
X023811Y016124D01*
X023808Y016181D01*
X014709Y025939D02*
X014711Y025973D01*
X014717Y026006D01*
X014727Y026038D01*
X014741Y026069D01*
X014759Y026098D01*
X014779Y026125D01*
X014803Y026149D01*
X014830Y026169D01*
X014859Y026187D01*
X014890Y026201D01*
X014922Y026211D01*
X014955Y026217D01*
X014989Y026219D01*
X015023Y026217D01*
X015056Y026211D01*
X015088Y026201D01*
X015119Y026187D01*
X015148Y026169D01*
X015175Y026149D01*
X015199Y026125D01*
X015219Y026098D01*
X015237Y026069D01*
X015251Y026038D01*
X015261Y026006D01*
X015267Y025973D01*
X015269Y025939D01*
X015267Y025905D01*
X015261Y025872D01*
X015251Y025840D01*
X015237Y025809D01*
X015219Y025780D01*
X015199Y025753D01*
X015175Y025729D01*
X015148Y025709D01*
X015119Y025691D01*
X015088Y025677D01*
X015056Y025667D01*
X015023Y025661D01*
X014989Y025659D01*
X014955Y025661D01*
X014922Y025667D01*
X014890Y025677D01*
X014859Y025691D01*
X014830Y025709D01*
X014803Y025729D01*
X014779Y025753D01*
X014759Y025780D01*
X014741Y025809D01*
X014727Y025840D01*
X014717Y025872D01*
X014711Y025905D01*
X014709Y025939D01*
D11*
X015107Y024364D02*
X015658Y024364D01*
X015658Y023891D01*
X015816Y023813D02*
X015816Y023340D01*
X016918Y023340D01*
X016918Y023813D01*
X015816Y023813D01*
X015658Y023655D02*
X015658Y023183D01*
X015107Y023183D01*
X015107Y023655D01*
X015107Y023891D02*
X015107Y024364D01*
X014831Y023734D02*
X013965Y023734D01*
X013965Y023025D01*
X013965Y022553D02*
X013965Y021844D01*
X014831Y021844D01*
X014831Y022553D01*
X014831Y023025D02*
X014831Y023734D01*
X015776Y022671D02*
X015776Y022120D01*
X016249Y022120D01*
X016485Y022120D02*
X016957Y022120D01*
X016957Y022671D01*
X016485Y022671D01*
X016249Y022671D02*
X015776Y022671D01*
X015304Y021765D02*
X015304Y020348D01*
X013965Y020348D01*
X013965Y021765D01*
X015304Y021765D01*
X014969Y020230D02*
X014969Y018655D01*
X016524Y018655D01*
X016524Y019265D01*
X017371Y019265D01*
X017371Y020230D01*
X014969Y020230D01*
X014871Y020033D02*
X014320Y020033D01*
X014320Y019561D01*
X014320Y019324D02*
X014320Y018852D01*
X014871Y018852D01*
X014871Y019324D01*
X014871Y019561D02*
X014871Y020033D01*
X013769Y019797D02*
X013769Y020663D01*
X013060Y020663D01*
X012587Y020663D02*
X011879Y020663D01*
X011879Y019797D01*
X012587Y019797D01*
X013060Y019797D02*
X013769Y019797D01*
X015028Y018301D02*
X015580Y018301D01*
X015580Y017828D01*
X015580Y017592D02*
X015580Y017120D01*
X015028Y017120D01*
X015028Y017592D01*
X015028Y017828D02*
X015028Y018301D01*
X013824Y017848D02*
X011824Y017848D01*
X011721Y017080D02*
X011170Y017080D01*
X011170Y016608D01*
X011170Y016372D02*
X011170Y015899D01*
X011721Y015899D01*
X011721Y016372D01*
X011721Y016608D02*
X011721Y017080D01*
X010343Y017080D02*
X010343Y017553D01*
X010343Y017789D02*
X010343Y018261D01*
X009792Y018261D01*
X009792Y017789D01*
X009792Y017553D02*
X009792Y017080D01*
X010343Y017080D01*
X009162Y017080D02*
X009162Y017553D01*
X009162Y017789D02*
X009162Y018261D01*
X008611Y018261D01*
X008611Y017789D01*
X008611Y017553D02*
X008611Y017080D01*
X009162Y017080D01*
X007981Y017080D02*
X007981Y017553D01*
X007981Y017789D02*
X007981Y018261D01*
X007430Y018261D01*
X007430Y017789D01*
X007430Y017553D02*
X007430Y017080D01*
X007981Y017080D01*
X009674Y015191D02*
X009674Y014639D01*
X010146Y014639D01*
X010383Y014639D02*
X010855Y014639D01*
X010855Y015191D01*
X010383Y015191D01*
X010146Y015191D02*
X009674Y015191D01*
X009760Y014527D02*
X011557Y014527D01*
X011557Y012547D01*
X009760Y012547D01*
X009760Y014527D01*
X008965Y014718D02*
X008965Y014246D01*
X008965Y014009D02*
X008965Y013537D01*
X008414Y013537D01*
X008414Y014009D01*
X008414Y014246D02*
X008414Y014718D01*
X008965Y014718D01*
X008965Y013537D02*
X008414Y013537D01*
X008414Y013065D01*
X008414Y012828D02*
X008414Y012356D01*
X008965Y012356D01*
X008965Y012828D01*
X008965Y013065D02*
X008965Y013537D01*
X009280Y012435D02*
X009280Y011883D01*
X009753Y011883D01*
X009989Y011883D02*
X010461Y011883D01*
X010461Y012435D01*
X009989Y012435D01*
X009753Y012435D02*
X009280Y012435D01*
X009998Y012897D02*
X010000Y012924D01*
X010006Y012950D01*
X010016Y012975D01*
X010029Y012998D01*
X010046Y013019D01*
X010066Y013038D01*
X010088Y013053D01*
X010112Y013065D01*
X010138Y013072D01*
X010165Y013076D01*
X010191Y013076D01*
X010218Y013072D01*
X010244Y013065D01*
X010268Y013053D01*
X010290Y013038D01*
X010310Y013019D01*
X010327Y012998D01*
X010340Y012975D01*
X010350Y012950D01*
X010356Y012924D01*
X010358Y012897D01*
X010356Y012870D01*
X010350Y012844D01*
X010340Y012819D01*
X010327Y012796D01*
X010310Y012775D01*
X010290Y012756D01*
X010268Y012741D01*
X010244Y012729D01*
X010218Y012722D01*
X010191Y012718D01*
X010165Y012718D01*
X010138Y012722D01*
X010112Y012729D01*
X010088Y012741D01*
X010066Y012756D01*
X010046Y012775D01*
X010029Y012796D01*
X010016Y012819D01*
X010006Y012844D01*
X010000Y012870D01*
X009998Y012897D01*
X012154Y012789D02*
X012154Y012317D01*
X012706Y012317D01*
X012706Y012789D01*
X012745Y012789D02*
X012745Y012317D01*
X013296Y012317D01*
X013296Y012789D01*
X013296Y013025D02*
X013296Y013498D01*
X012745Y013498D01*
X012745Y013025D01*
X012706Y013025D02*
X012706Y013498D01*
X012154Y013498D01*
X012154Y013025D01*
X012548Y014128D02*
X013099Y014128D01*
X013099Y014600D01*
X013099Y014836D02*
X013099Y015309D01*
X012548Y015309D01*
X012548Y014836D01*
X012548Y014600D02*
X012548Y014128D01*
X014083Y015663D02*
X014083Y012198D01*
X014241Y012041D01*
X017706Y012041D01*
X017863Y012198D01*
X017863Y015663D01*
X017706Y015820D01*
X014241Y015820D01*
X014083Y015663D01*
X016564Y016805D02*
X016564Y017356D01*
X017036Y017356D01*
X017272Y017356D02*
X017745Y017356D01*
X017745Y016805D01*
X017272Y016805D01*
X017036Y016805D02*
X016564Y016805D01*
X016524Y018655D02*
X017371Y018655D01*
X017371Y019265D01*
X017469Y019324D02*
X017469Y018852D01*
X018020Y018852D01*
X018020Y019324D01*
X018020Y019561D02*
X018020Y020033D01*
X017469Y020033D01*
X017469Y019561D01*
X019261Y017356D02*
X019261Y016805D01*
X019733Y016805D01*
X019733Y016726D02*
X019261Y016726D01*
X019261Y016175D01*
X019733Y016175D01*
X019969Y016175D02*
X020442Y016175D01*
X020442Y016726D01*
X019969Y016726D01*
X019969Y016805D02*
X020442Y016805D01*
X020442Y017356D01*
X019969Y017356D01*
X019733Y017356D02*
X019261Y017356D01*
X019339Y014836D02*
X018867Y014836D01*
X018867Y014285D01*
X019339Y014285D01*
X019576Y014285D02*
X020048Y014285D01*
X020048Y014836D01*
X019576Y014836D01*
X019576Y013970D02*
X020048Y013970D01*
X020048Y013419D01*
X020048Y012868D01*
X019576Y012868D01*
X019339Y012868D02*
X018867Y012868D01*
X018867Y013419D01*
X019339Y013419D01*
X018867Y013419D01*
X018867Y013970D01*
X019339Y013970D01*
X019576Y013419D02*
X020048Y013419D01*
X019576Y013419D01*
X019202Y011824D02*
X018650Y011824D01*
X018650Y011352D01*
X018650Y011116D02*
X018650Y010643D01*
X019202Y010643D01*
X019202Y011116D01*
X019202Y011352D02*
X019202Y011824D01*
X019753Y011569D02*
X019753Y010387D01*
X020855Y010387D01*
X020855Y011569D01*
X019753Y011569D01*
X019910Y010663D02*
X020146Y010663D01*
X020144Y010643D01*
X020139Y010623D01*
X020130Y010604D01*
X020118Y010587D01*
X020104Y010573D01*
X020087Y010561D01*
X020068Y010552D01*
X020048Y010547D01*
X020028Y010545D01*
X020008Y010547D01*
X019988Y010552D01*
X019969Y010561D01*
X019952Y010573D01*
X019938Y010587D01*
X019926Y010604D01*
X019917Y010623D01*
X019912Y010643D01*
X019910Y010663D01*
X019713Y010269D02*
X019713Y009718D01*
X020186Y009718D01*
X020422Y009718D02*
X020894Y009718D01*
X020894Y010269D01*
X020422Y010269D01*
X020186Y010269D02*
X019713Y010269D01*
X020265Y008380D02*
X020265Y008222D01*
X020186Y008222D01*
X020265Y008222D02*
X020265Y008065D01*
X020501Y008222D01*
X020580Y008222D01*
X020501Y008222D02*
X020501Y008065D01*
X020501Y008222D02*
X020501Y008380D01*
X020501Y008222D02*
X020265Y008380D01*
X019005Y008222D02*
X019005Y007671D01*
X018532Y007671D01*
X018532Y007592D02*
X019005Y007592D01*
X019005Y007041D01*
X018532Y007041D01*
X018296Y007041D02*
X017824Y007041D01*
X017824Y007592D01*
X018296Y007592D01*
X018296Y007671D02*
X017824Y007671D01*
X017824Y008222D01*
X018296Y008222D01*
X018532Y008222D02*
X019005Y008222D01*
X017745Y008222D02*
X017745Y007750D01*
X017745Y007513D02*
X017745Y007041D01*
X017194Y007041D01*
X017194Y007513D01*
X017194Y007750D02*
X017194Y008222D01*
X017745Y008222D01*
X016761Y008419D02*
X016761Y007868D01*
X016288Y007868D01*
X016288Y007789D02*
X016761Y007789D01*
X016761Y007238D01*
X016288Y007238D01*
X016052Y007238D02*
X015580Y007238D01*
X015580Y007789D01*
X016052Y007789D01*
X016052Y007868D02*
X015580Y007868D01*
X015580Y008419D01*
X016052Y008419D01*
X016288Y008419D02*
X016761Y008419D01*
X015422Y008065D02*
X015422Y008773D01*
X014556Y008773D01*
X014556Y008065D01*
X014418Y008065D02*
X014418Y008773D01*
X013867Y008773D01*
X013552Y008773D02*
X013001Y008773D01*
X013001Y008065D01*
X013552Y008065D01*
X013867Y008065D02*
X014418Y008065D01*
X014556Y007592D02*
X014556Y006883D01*
X015422Y006883D01*
X015422Y007592D01*
X014398Y007395D02*
X013217Y007395D01*
X013217Y006293D01*
X014398Y006293D01*
X014398Y007395D01*
X013493Y007277D02*
X013493Y007041D01*
X013473Y007043D01*
X013453Y007048D01*
X013434Y007057D01*
X013417Y007069D01*
X013403Y007083D01*
X013391Y007100D01*
X013382Y007119D01*
X013377Y007139D01*
X013375Y007159D01*
X013377Y007179D01*
X013382Y007199D01*
X013391Y007218D01*
X013403Y007235D01*
X013417Y007249D01*
X013434Y007261D01*
X013453Y007270D01*
X013473Y007275D01*
X013493Y007277D01*
X012902Y007317D02*
X012902Y008734D01*
X011564Y008734D01*
X011564Y007317D01*
X012902Y007317D01*
X012233Y006135D02*
X012036Y006135D01*
X012036Y006214D01*
X012036Y006135D02*
X011839Y006135D01*
X012036Y005820D01*
X012036Y005742D01*
X012036Y005820D02*
X011839Y005820D01*
X012036Y005820D02*
X012233Y005820D01*
X012036Y005820D02*
X012233Y006135D01*
X011328Y005978D02*
X011328Y006450D01*
X010776Y006450D01*
X010776Y005978D01*
X010737Y005978D02*
X010737Y006450D01*
X010186Y006450D01*
X010186Y005978D01*
X010186Y005742D02*
X010186Y005269D01*
X010737Y005269D01*
X010737Y005742D01*
X010776Y005742D02*
X010776Y005269D01*
X011328Y005269D01*
X011328Y005742D01*
X011682Y004443D02*
X011682Y003576D01*
X012391Y003576D01*
X012863Y003576D02*
X013572Y003576D01*
X013572Y004443D01*
X012863Y004443D01*
X012391Y004443D02*
X011682Y004443D01*
X013217Y004521D02*
X013690Y004521D01*
X013926Y004521D02*
X014398Y004521D01*
X014871Y004521D01*
X015107Y004521D02*
X015580Y004521D01*
X015580Y005072D01*
X015107Y005072D01*
X015107Y005112D02*
X015580Y005112D01*
X015580Y005663D01*
X015107Y005663D01*
X014871Y005663D02*
X014398Y005663D01*
X013926Y005663D01*
X013690Y005663D02*
X013217Y005663D01*
X013217Y005112D01*
X013690Y005112D01*
X013690Y005072D02*
X013217Y005072D01*
X013217Y004521D01*
X013926Y005072D02*
X014398Y005072D01*
X014398Y004521D01*
X014398Y005072D01*
X014871Y005072D01*
X014871Y005112D02*
X014398Y005112D01*
X014398Y005663D01*
X014398Y005112D01*
X013926Y005112D01*
X015776Y005427D02*
X015776Y003537D01*
X016957Y003537D01*
X016957Y005427D01*
X015776Y005427D01*
X017194Y004679D02*
X017194Y003498D01*
X019083Y003498D01*
X019083Y004679D01*
X017194Y004679D01*
X019103Y004860D02*
X019103Y006860D01*
X020501Y007002D02*
X021682Y007002D01*
X021682Y005112D01*
X020501Y005112D01*
X020501Y007002D01*
X022883Y006860D02*
X022883Y004860D01*
X022981Y004482D02*
X023335Y004482D01*
X022981Y004482D02*
X022981Y004167D01*
X022981Y003616D02*
X022981Y003301D01*
X023335Y003301D01*
X023532Y003813D02*
X023532Y003970D01*
X024123Y004009D02*
X024123Y003380D01*
X025934Y003380D01*
X025934Y004009D01*
X024123Y004009D01*
X024851Y003694D02*
X024910Y003694D01*
X024910Y003537D01*
X025146Y003694D01*
X025206Y003694D01*
X025146Y003694D02*
X025146Y003537D01*
X025146Y003694D02*
X025146Y003852D01*
X025146Y003694D02*
X024910Y003852D01*
X024910Y003694D01*
X022351Y003773D02*
X022351Y003301D01*
X021800Y003301D01*
X021800Y003773D01*
X021800Y004009D02*
X021800Y004482D01*
X022351Y004482D01*
X022351Y004009D01*
X021170Y003970D02*
X021170Y003813D01*
X020973Y003301D02*
X020619Y003301D01*
X020619Y003616D01*
X020619Y004167D02*
X020619Y004482D01*
X020973Y004482D01*
X019792Y004679D02*
X019792Y004206D01*
X019792Y003970D02*
X019792Y003498D01*
X019241Y003498D01*
X019241Y003970D01*
X019241Y004206D02*
X019241Y004679D01*
X019792Y004679D01*
X024024Y007025D02*
X024024Y009025D01*
X025265Y008911D02*
X025265Y010092D01*
X026367Y010092D01*
X026367Y008911D01*
X025265Y008911D01*
X025934Y008222D02*
X026485Y008222D01*
X026485Y007750D01*
X026485Y007513D02*
X026485Y007041D01*
X025934Y007041D01*
X025934Y007513D01*
X025934Y007750D02*
X025934Y008222D01*
X026898Y008360D02*
X026898Y008911D01*
X027371Y008911D01*
X027489Y008911D02*
X027489Y009383D01*
X027528Y009383D02*
X027528Y008911D01*
X028080Y008911D01*
X027607Y008911D01*
X027489Y008911D02*
X026938Y008911D01*
X026938Y009383D01*
X026938Y009620D02*
X026938Y010092D01*
X027489Y010092D01*
X027489Y009620D01*
X027528Y009620D02*
X027528Y010092D01*
X028080Y010092D01*
X028080Y009620D01*
X028080Y009383D02*
X028080Y008911D01*
X028080Y008360D01*
X027607Y008360D01*
X027666Y008222D02*
X027312Y008222D01*
X027371Y008360D02*
X026898Y008360D01*
X027115Y007710D02*
X027115Y007553D01*
X027312Y007041D02*
X027666Y007041D01*
X027666Y007356D01*
X027666Y007907D02*
X027666Y008222D01*
X026249Y009817D02*
X026013Y009817D01*
X026015Y009837D01*
X026020Y009857D01*
X026029Y009876D01*
X026041Y009893D01*
X026055Y009907D01*
X026072Y009919D01*
X026091Y009928D01*
X026111Y009933D01*
X026131Y009935D01*
X026151Y009933D01*
X026171Y009928D01*
X026190Y009919D01*
X026207Y009907D01*
X026221Y009893D01*
X026233Y009876D01*
X026242Y009857D01*
X026247Y009837D01*
X026249Y009817D01*
X026328Y012356D02*
X026879Y012356D01*
X026879Y012828D01*
X026879Y013065D02*
X026879Y013537D01*
X026328Y013537D01*
X026328Y013065D01*
X026328Y012828D02*
X026328Y012356D01*
X024831Y012671D02*
X024831Y013222D01*
X024359Y013222D01*
X024123Y013222D02*
X023650Y013222D01*
X023650Y012671D01*
X024123Y012671D01*
X024359Y012671D02*
X024831Y012671D01*
X023650Y012671D02*
X023650Y013222D01*
X023178Y013222D01*
X023178Y013419D02*
X023650Y013419D01*
X023650Y013970D01*
X023178Y013970D01*
X023178Y014049D02*
X023650Y014049D01*
X023650Y014600D01*
X023178Y014600D01*
X023178Y014639D02*
X023650Y014639D01*
X023650Y015191D01*
X023178Y015191D01*
X023178Y015230D02*
X023650Y015230D01*
X023650Y015781D01*
X023178Y015781D01*
X022942Y015781D02*
X022469Y015781D01*
X022469Y015230D01*
X022942Y015230D01*
X022942Y015191D02*
X022469Y015191D01*
X022469Y014639D01*
X022942Y014639D01*
X022942Y014600D02*
X022469Y014600D01*
X022469Y014049D01*
X022942Y014049D01*
X022942Y013970D02*
X022469Y013970D01*
X022469Y013419D01*
X022942Y013419D01*
X022942Y013222D02*
X022469Y013222D01*
X022469Y012671D01*
X022942Y012671D01*
X022942Y012631D02*
X022469Y012631D01*
X022469Y012080D01*
X022942Y012080D01*
X023178Y012080D02*
X023650Y012080D01*
X023650Y012631D01*
X023178Y012631D01*
X023178Y012671D02*
X023650Y012671D01*
X022154Y011234D02*
X021603Y011234D01*
X021603Y010761D01*
X021603Y010525D02*
X021603Y010053D01*
X022154Y010053D01*
X022154Y010525D01*
X022154Y010761D02*
X022154Y011234D01*
X025146Y014324D02*
X025698Y014324D01*
X025698Y014797D01*
X025698Y015033D02*
X025698Y015506D01*
X025146Y015506D01*
X025146Y015033D01*
X025146Y014797D02*
X025146Y014324D01*
X017587Y012356D02*
X017509Y012356D01*
X017511Y012369D01*
X017517Y012380D01*
X017527Y012389D01*
X017538Y012394D01*
X017551Y012395D01*
X017564Y012392D01*
X017574Y012385D01*
X017582Y012375D01*
X017586Y012362D01*
X017586Y012350D01*
X017582Y012337D01*
X017574Y012327D01*
X017564Y012320D01*
X017551Y012317D01*
X017538Y012318D01*
X017527Y012323D01*
X017517Y012332D01*
X017511Y012343D01*
X017509Y012356D01*
X017469Y012356D02*
X017471Y012374D01*
X017477Y012391D01*
X017487Y012407D01*
X017501Y012419D01*
X017517Y012429D01*
X017534Y012434D01*
X017553Y012435D01*
X017571Y012432D01*
X017587Y012424D01*
X017602Y012413D01*
X017614Y012399D01*
X017622Y012383D01*
X017626Y012365D01*
X017626Y012347D01*
X017622Y012329D01*
X017614Y012313D01*
X017602Y012299D01*
X017588Y012288D01*
X017571Y012280D01*
X017553Y012277D01*
X017534Y012278D01*
X017517Y012283D01*
X017501Y012293D01*
X017487Y012305D01*
X017477Y012321D01*
X017471Y012338D01*
X017469Y012356D01*
X017430Y012356D02*
X017432Y012378D01*
X017438Y012399D01*
X017448Y012418D01*
X017461Y012435D01*
X017477Y012450D01*
X017495Y012462D01*
X017516Y012469D01*
X017537Y012473D01*
X017559Y012473D01*
X017580Y012469D01*
X017601Y012462D01*
X017619Y012450D01*
X017635Y012435D01*
X017648Y012418D01*
X017658Y012399D01*
X017664Y012378D01*
X017666Y012356D01*
X017664Y012334D01*
X017658Y012313D01*
X017648Y012294D01*
X017635Y012277D01*
X017619Y012262D01*
X017601Y012250D01*
X017580Y012243D01*
X017559Y012239D01*
X017537Y012239D01*
X017516Y012243D01*
X017495Y012250D01*
X017477Y012262D01*
X017461Y012277D01*
X017448Y012294D01*
X017438Y012313D01*
X017432Y012334D01*
X017430Y012356D01*
X016367Y011175D02*
X016367Y010624D01*
X015894Y010624D01*
X015658Y010624D02*
X015186Y010624D01*
X015186Y011175D01*
X015658Y011175D01*
X015894Y011175D02*
X016367Y011175D01*
X010658Y008891D02*
X010658Y008340D01*
X010186Y008340D01*
X009950Y008340D02*
X009477Y008340D01*
X009477Y008891D01*
X009950Y008891D01*
X010186Y008891D02*
X010658Y008891D01*
X008296Y008891D02*
X008296Y008340D01*
X007824Y008340D01*
X007587Y008340D02*
X007115Y008340D01*
X007115Y008891D01*
X007587Y008891D01*
X007824Y008891D02*
X008296Y008891D01*
X008998Y005472D02*
X007200Y005472D01*
X007200Y003492D01*
X008998Y003492D01*
X008998Y005472D01*
X007439Y003842D02*
X007441Y003869D01*
X007447Y003895D01*
X007457Y003920D01*
X007470Y003943D01*
X007487Y003964D01*
X007507Y003983D01*
X007529Y003998D01*
X007553Y004010D01*
X007579Y004017D01*
X007606Y004021D01*
X007632Y004021D01*
X007659Y004017D01*
X007685Y004010D01*
X007709Y003998D01*
X007731Y003983D01*
X007751Y003964D01*
X007768Y003943D01*
X007781Y003920D01*
X007791Y003895D01*
X007797Y003869D01*
X007799Y003842D01*
X007797Y003815D01*
X007791Y003789D01*
X007781Y003764D01*
X007768Y003741D01*
X007751Y003720D01*
X007731Y003701D01*
X007709Y003686D01*
X007685Y003674D01*
X007659Y003667D01*
X007632Y003663D01*
X007606Y003663D01*
X007579Y003667D01*
X007553Y003674D01*
X007529Y003686D01*
X007507Y003701D01*
X007487Y003720D01*
X007470Y003741D01*
X007457Y003764D01*
X007447Y003789D01*
X007441Y003815D01*
X007439Y003842D01*
X007121Y013032D02*
X005141Y013032D01*
X005141Y014829D01*
X007121Y014829D01*
X007121Y013032D01*
X005311Y014411D02*
X005313Y014438D01*
X005319Y014464D01*
X005329Y014489D01*
X005342Y014512D01*
X005359Y014533D01*
X005379Y014552D01*
X005401Y014567D01*
X005425Y014579D01*
X005451Y014586D01*
X005478Y014590D01*
X005504Y014590D01*
X005531Y014586D01*
X005557Y014579D01*
X005581Y014567D01*
X005603Y014552D01*
X005623Y014533D01*
X005640Y014512D01*
X005653Y014489D01*
X005663Y014464D01*
X005669Y014438D01*
X005671Y014411D01*
X005669Y014384D01*
X005663Y014358D01*
X005653Y014333D01*
X005640Y014310D01*
X005623Y014289D01*
X005603Y014270D01*
X005581Y014255D01*
X005557Y014243D01*
X005531Y014236D01*
X005504Y014232D01*
X005478Y014232D01*
X005451Y014236D01*
X005425Y014243D01*
X005401Y014255D01*
X005379Y014270D01*
X005359Y014289D01*
X005342Y014310D01*
X005329Y014333D01*
X005319Y014358D01*
X005313Y014384D01*
X005311Y014411D01*
X009831Y020525D02*
X010383Y020525D01*
X010383Y020998D01*
X010383Y020525D01*
X010934Y020525D01*
X010934Y020998D01*
X010934Y021234D02*
X010934Y021706D01*
X010934Y022179D01*
X010934Y022415D02*
X010934Y022887D01*
X010383Y022887D01*
X010383Y022415D01*
X010383Y022179D02*
X010383Y021706D01*
X009831Y021706D01*
X009831Y021234D01*
X009831Y020998D02*
X009831Y020525D01*
X010383Y021234D02*
X010383Y021706D01*
X010934Y021706D01*
X010383Y021706D01*
X010383Y021234D01*
X008998Y022390D02*
X007200Y022390D01*
X007200Y024370D01*
X008998Y024370D01*
X008998Y022390D01*
X008769Y022198D02*
X008217Y022198D01*
X008217Y021726D01*
X007981Y021726D02*
X007981Y022198D01*
X007430Y022198D01*
X007430Y021726D01*
X007430Y021490D02*
X007430Y021017D01*
X007981Y021017D01*
X007981Y021490D01*
X008217Y021490D02*
X008217Y021017D01*
X008769Y021017D01*
X008769Y021490D01*
X008769Y021726D02*
X008769Y022198D01*
X008399Y024020D02*
X008401Y024047D01*
X008407Y024073D01*
X008417Y024098D01*
X008430Y024121D01*
X008447Y024142D01*
X008467Y024161D01*
X008489Y024176D01*
X008513Y024188D01*
X008539Y024195D01*
X008566Y024199D01*
X008592Y024199D01*
X008619Y024195D01*
X008645Y024188D01*
X008669Y024176D01*
X008691Y024161D01*
X008711Y024142D01*
X008728Y024121D01*
X008741Y024098D01*
X008751Y024073D01*
X008757Y024047D01*
X008759Y024020D01*
X008757Y023993D01*
X008751Y023967D01*
X008741Y023942D01*
X008728Y023919D01*
X008711Y023898D01*
X008691Y023879D01*
X008669Y023864D01*
X008645Y023852D01*
X008619Y023845D01*
X008592Y023841D01*
X008566Y023841D01*
X008539Y023845D01*
X008513Y023852D01*
X008489Y023864D01*
X008467Y023879D01*
X008447Y023898D01*
X008430Y023919D01*
X008417Y023942D01*
X008407Y023967D01*
X008401Y023993D01*
X008399Y024020D01*
X011859Y022805D02*
X011859Y020805D01*
X012036Y022907D02*
X012036Y023458D01*
X012509Y023458D01*
X012745Y023458D02*
X013217Y023458D01*
X013217Y022907D01*
X012745Y022907D01*
X012509Y022907D02*
X012036Y022907D01*
X017863Y023183D02*
X018414Y023183D01*
X018414Y023655D01*
X018572Y023813D02*
X018572Y023340D01*
X019674Y023340D01*
X019674Y023813D01*
X018572Y023813D01*
X018414Y023891D02*
X018414Y024364D01*
X017863Y024364D01*
X017863Y023891D01*
X017863Y023655D02*
X017863Y023183D01*
X018532Y022671D02*
X018532Y022120D01*
X019005Y022120D01*
X019241Y022120D02*
X019713Y022120D01*
X019713Y022671D01*
X019241Y022671D01*
X019005Y022671D02*
X018532Y022671D01*
X020619Y023183D02*
X021170Y023183D01*
X021170Y023655D01*
X021328Y023813D02*
X021328Y023340D01*
X022430Y023340D01*
X022430Y023813D01*
X021328Y023813D01*
X021170Y023891D02*
X021170Y024364D01*
X020619Y024364D01*
X020619Y023891D01*
X020619Y023655D02*
X020619Y023183D01*
X021288Y022671D02*
X021288Y022120D01*
X021761Y022120D01*
X021997Y022120D02*
X022469Y022120D01*
X022469Y022671D01*
X021997Y022671D01*
X021761Y022671D02*
X021288Y022671D01*
D12*
X021062Y022481D02*
X020728Y022481D01*
X020728Y022370D02*
X020728Y022592D01*
X020895Y022732D02*
X020895Y022955D01*
X020728Y022899D02*
X021062Y022899D01*
X020895Y022732D01*
X021062Y022481D02*
X020950Y022370D01*
X020895Y022230D02*
X020839Y022174D01*
X020839Y022007D01*
X020839Y022118D02*
X020728Y022230D01*
X020895Y022230D02*
X021006Y022230D01*
X021062Y022174D01*
X021062Y022007D01*
X020728Y022007D01*
X021579Y021805D02*
X021801Y021805D01*
X021634Y021972D01*
X021634Y021638D01*
X021941Y021638D02*
X022052Y021749D01*
X021997Y021749D02*
X022164Y021749D01*
X022164Y021638D02*
X022164Y021972D01*
X021997Y021972D01*
X021941Y021916D01*
X021941Y021805D01*
X021997Y021749D01*
X022673Y023291D02*
X022617Y023347D01*
X022617Y023458D01*
X022673Y023514D01*
X022896Y023514D01*
X022951Y023458D01*
X022951Y023347D01*
X022896Y023291D01*
X022673Y023291D01*
X022729Y023403D02*
X022617Y023514D01*
X022673Y023654D02*
X022617Y023710D01*
X022617Y023821D01*
X022673Y023877D01*
X022784Y023877D01*
X022840Y023821D01*
X022840Y023765D01*
X022784Y023654D01*
X022951Y023654D01*
X022951Y023877D01*
X020195Y023877D02*
X020140Y023765D01*
X020028Y023654D01*
X020028Y023821D01*
X019973Y023877D01*
X019917Y023877D01*
X019861Y023821D01*
X019861Y023710D01*
X019917Y023654D01*
X020028Y023654D01*
X019917Y023514D02*
X019861Y023458D01*
X019861Y023347D01*
X019917Y023291D01*
X020140Y023291D01*
X020195Y023347D01*
X020195Y023458D01*
X020140Y023514D01*
X019917Y023514D01*
X019861Y023514D02*
X019973Y023403D01*
X019408Y021972D02*
X019241Y021972D01*
X019185Y021916D01*
X019185Y021805D01*
X019241Y021749D01*
X019408Y021749D01*
X019408Y021638D02*
X019408Y021972D01*
X019296Y021749D02*
X019185Y021638D01*
X019045Y021694D02*
X018990Y021638D01*
X018878Y021638D01*
X018823Y021694D01*
X018823Y021805D01*
X018878Y021861D01*
X018934Y021861D01*
X019045Y021805D01*
X019045Y021972D01*
X018823Y021972D01*
X018306Y022007D02*
X018306Y022174D01*
X018250Y022230D01*
X018139Y022230D01*
X018083Y022174D01*
X018083Y022007D01*
X017972Y022007D02*
X018306Y022007D01*
X018083Y022118D02*
X017972Y022230D01*
X017972Y022370D02*
X017972Y022592D01*
X017972Y022481D02*
X018306Y022481D01*
X018194Y022370D01*
X018139Y022732D02*
X018194Y022843D01*
X018194Y022899D01*
X018139Y022955D01*
X018027Y022955D01*
X017972Y022899D01*
X017972Y022788D01*
X018027Y022732D01*
X018139Y022732D02*
X018306Y022732D01*
X018306Y022955D01*
X017440Y023347D02*
X017440Y023458D01*
X017384Y023514D01*
X017161Y023514D01*
X017106Y023458D01*
X017106Y023347D01*
X017161Y023291D01*
X017384Y023291D01*
X017440Y023347D01*
X017217Y023403D02*
X017106Y023514D01*
X017106Y023654D02*
X017161Y023654D01*
X017384Y023877D01*
X017440Y023877D01*
X017440Y023654D01*
X016652Y021972D02*
X016485Y021972D01*
X016429Y021916D01*
X016429Y021805D01*
X016485Y021749D01*
X016652Y021749D01*
X016652Y021638D02*
X016652Y021972D01*
X016541Y021749D02*
X016429Y021638D01*
X016289Y021694D02*
X016234Y021638D01*
X016122Y021638D01*
X016067Y021694D01*
X016067Y021749D01*
X016122Y021805D01*
X016289Y021805D01*
X016289Y021694D01*
X016289Y021805D02*
X016178Y021916D01*
X016067Y021972D01*
X015550Y022007D02*
X015550Y022174D01*
X015494Y022230D01*
X015383Y022230D01*
X015327Y022174D01*
X015327Y022007D01*
X015216Y022007D02*
X015550Y022007D01*
X015327Y022118D02*
X015216Y022230D01*
X015216Y022370D02*
X015216Y022592D01*
X015216Y022481D02*
X015550Y022481D01*
X015438Y022370D01*
X015383Y022732D02*
X015271Y022732D01*
X015216Y022788D01*
X015216Y022899D01*
X015271Y022955D01*
X015327Y022955D01*
X015383Y022899D01*
X015383Y022732D01*
X015494Y022843D01*
X015550Y022955D01*
X015491Y021436D02*
X015491Y021213D01*
X015714Y021436D01*
X015770Y021436D01*
X015825Y021380D01*
X015825Y021269D01*
X015770Y021213D01*
X015491Y021073D02*
X015491Y020850D01*
X015825Y020850D01*
X016011Y020378D02*
X016234Y020378D01*
X016234Y020712D01*
X016374Y020601D02*
X016374Y020378D01*
X016374Y020545D02*
X016596Y020545D01*
X016596Y020601D02*
X016485Y020712D01*
X016374Y020601D01*
X016596Y020601D02*
X016596Y020378D01*
X016847Y020378D02*
X016847Y020712D01*
X016736Y020712D02*
X016959Y020712D01*
X017099Y020712D02*
X017321Y020378D01*
X017099Y020378D02*
X017321Y020712D01*
X018169Y019892D02*
X018224Y019948D01*
X018280Y019948D01*
X018336Y019892D01*
X018336Y019725D01*
X018224Y019725D01*
X018169Y019781D01*
X018169Y019892D01*
X018336Y019725D02*
X018447Y019836D01*
X018503Y019948D01*
X018169Y019585D02*
X018169Y019363D01*
X018169Y019474D02*
X018503Y019474D01*
X018391Y019363D01*
X018447Y019223D02*
X018503Y019167D01*
X018503Y019056D01*
X018447Y019000D01*
X018224Y019000D01*
X018169Y019056D01*
X018169Y019167D01*
X018224Y019223D01*
X017541Y017838D02*
X017597Y017782D01*
X017597Y017560D01*
X017541Y017504D01*
X017430Y017504D01*
X017374Y017560D01*
X017234Y017504D02*
X017012Y017504D01*
X016872Y017560D02*
X016816Y017504D01*
X016705Y017504D01*
X016649Y017560D01*
X016649Y017615D01*
X016705Y017671D01*
X016761Y017671D01*
X016705Y017671D02*
X016649Y017727D01*
X016649Y017782D01*
X016705Y017838D01*
X016816Y017838D01*
X016872Y017782D01*
X017012Y017782D02*
X017067Y017838D01*
X017179Y017838D01*
X017234Y017782D01*
X017374Y017782D02*
X017430Y017838D01*
X017541Y017838D01*
X017234Y017504D02*
X017012Y017727D01*
X017012Y017782D01*
X014881Y017797D02*
X014881Y017686D01*
X014825Y017630D01*
X014825Y017490D02*
X014881Y017435D01*
X014881Y017323D01*
X014825Y017268D01*
X014602Y017268D01*
X014547Y017323D01*
X014547Y017435D01*
X014602Y017490D01*
X014547Y017630D02*
X014769Y017853D01*
X014825Y017853D01*
X014881Y017797D01*
X014825Y017993D02*
X014602Y017993D01*
X014825Y018215D01*
X014602Y018215D01*
X014547Y018160D01*
X014547Y018048D01*
X014602Y017993D01*
X014547Y017853D02*
X014547Y017630D01*
X014825Y017993D02*
X014881Y018048D01*
X014881Y018160D01*
X014825Y018215D01*
X014116Y019000D02*
X013894Y019000D01*
X013838Y019056D01*
X013838Y019167D01*
X013894Y019223D01*
X013838Y019363D02*
X013838Y019585D01*
X013838Y019474D02*
X014172Y019474D01*
X014061Y019363D01*
X014116Y019223D02*
X014172Y019167D01*
X014172Y019056D01*
X014116Y019000D01*
X014061Y019725D02*
X014172Y019836D01*
X013838Y019836D01*
X013838Y019725D02*
X013838Y019948D01*
X013069Y019554D02*
X013069Y019331D01*
X013014Y019276D01*
X012902Y019276D01*
X012847Y019331D01*
X012707Y019331D02*
X012651Y019276D01*
X012540Y019276D01*
X012484Y019331D01*
X012484Y019443D01*
X012540Y019498D01*
X012595Y019498D01*
X012707Y019443D01*
X012707Y019610D01*
X012484Y019610D01*
X012847Y019554D02*
X012902Y019610D01*
X013014Y019610D01*
X013069Y019554D01*
X013011Y020805D02*
X012630Y020805D01*
X012230Y020805D01*
X011859Y020805D01*
X011849Y020805D01*
X011826Y020807D01*
X011803Y020812D01*
X011781Y020821D01*
X011761Y020834D01*
X011743Y020849D01*
X011728Y020867D01*
X011715Y020887D01*
X011706Y020909D01*
X011701Y020932D01*
X011699Y020955D01*
X011699Y022655D01*
X011701Y022678D01*
X011706Y022701D01*
X011715Y022723D01*
X011728Y022743D01*
X011743Y022761D01*
X011761Y022776D01*
X011781Y022789D01*
X011803Y022798D01*
X011826Y022803D01*
X011849Y022805D01*
X011859Y022805D01*
X013011Y022805D01*
X013034Y022803D01*
X013057Y022798D01*
X013079Y022789D01*
X013099Y022776D01*
X013117Y022761D01*
X013132Y022743D01*
X013145Y022723D01*
X013154Y022701D01*
X013159Y022678D01*
X013161Y022655D01*
X013161Y020955D01*
X013159Y020932D01*
X013154Y020909D01*
X013145Y020887D01*
X013132Y020867D01*
X013117Y020849D01*
X013099Y020834D01*
X013079Y020821D01*
X013057Y020812D01*
X013034Y020807D01*
X013011Y020805D01*
X012630Y020805D02*
X012628Y020832D01*
X012623Y020859D01*
X012613Y020885D01*
X012601Y020909D01*
X012585Y020931D01*
X012567Y020951D01*
X012545Y020968D01*
X012522Y020983D01*
X012497Y020993D01*
X012471Y021001D01*
X012444Y021005D01*
X012416Y021005D01*
X012389Y021001D01*
X012363Y020993D01*
X012338Y020983D01*
X012315Y020968D01*
X012293Y020951D01*
X012275Y020931D01*
X012259Y020909D01*
X012247Y020885D01*
X012237Y020859D01*
X012232Y020832D01*
X012230Y020805D01*
X011652Y020435D02*
X011652Y020324D01*
X011596Y020268D01*
X011652Y020128D02*
X011374Y020128D01*
X011318Y020073D01*
X011318Y019961D01*
X011374Y019906D01*
X011652Y019906D01*
X011374Y020268D02*
X011318Y020324D01*
X011318Y020435D01*
X011374Y020491D01*
X011429Y020491D01*
X011485Y020435D01*
X011485Y020379D01*
X011485Y020435D02*
X011541Y020491D01*
X011596Y020491D01*
X011652Y020435D01*
X010825Y020261D02*
X010825Y020150D01*
X010770Y020094D01*
X010770Y019954D02*
X010825Y019899D01*
X010825Y019787D01*
X010770Y019732D01*
X010770Y019592D02*
X010658Y019592D01*
X010603Y019536D01*
X010603Y019369D01*
X010603Y019481D02*
X010491Y019592D01*
X010491Y019732D02*
X010714Y019954D01*
X010770Y019954D01*
X010491Y019954D02*
X010491Y019732D01*
X010235Y019787D02*
X010179Y019732D01*
X009956Y019732D01*
X009901Y019787D01*
X009901Y019899D01*
X009956Y019954D01*
X010068Y020094D02*
X010068Y020317D01*
X010235Y020261D02*
X010068Y020094D01*
X010179Y019954D02*
X010235Y019899D01*
X010235Y019787D01*
X010491Y020094D02*
X010714Y020317D01*
X010770Y020317D01*
X010825Y020261D01*
X010491Y020317D02*
X010491Y020094D01*
X010235Y020261D02*
X009901Y020261D01*
X010770Y019592D02*
X010825Y019536D01*
X010825Y019369D01*
X010491Y019369D01*
X009310Y018151D02*
X009310Y017929D01*
X009310Y018040D02*
X009644Y018040D01*
X009533Y017929D01*
X009477Y017789D02*
X009477Y017566D01*
X009644Y017733D01*
X009310Y017733D01*
X009310Y017427D02*
X009422Y017315D01*
X009422Y017371D02*
X009422Y017204D01*
X009310Y017204D02*
X009644Y017204D01*
X009644Y017371D01*
X009589Y017427D01*
X009477Y017427D01*
X009422Y017371D01*
X008463Y017371D02*
X008463Y017204D01*
X008129Y017204D01*
X008241Y017204D02*
X008241Y017371D01*
X008296Y017427D01*
X008408Y017427D01*
X008463Y017371D01*
X008352Y017566D02*
X008463Y017678D01*
X008129Y017678D01*
X008129Y017789D02*
X008129Y017566D01*
X008129Y017427D02*
X008241Y017315D01*
X008185Y017929D02*
X008408Y018151D01*
X008185Y018151D01*
X008129Y018096D01*
X008129Y017984D01*
X008185Y017929D01*
X008408Y017929D01*
X008463Y017984D01*
X008463Y018096D01*
X008408Y018151D01*
X007282Y017899D02*
X007282Y017788D01*
X007226Y017732D01*
X007171Y017732D01*
X007115Y017788D01*
X007115Y017955D01*
X007004Y017955D02*
X007226Y017955D01*
X007282Y017899D01*
X007004Y017955D02*
X006948Y017899D01*
X006948Y017788D01*
X007004Y017732D01*
X006948Y017592D02*
X007059Y017481D01*
X007059Y017537D02*
X007059Y017370D01*
X006948Y017370D02*
X007282Y017370D01*
X007282Y017537D01*
X007226Y017592D01*
X007115Y017592D01*
X007059Y017537D01*
X009878Y015506D02*
X010100Y015506D01*
X009933Y015673D01*
X009933Y015339D01*
X010240Y015339D02*
X010463Y015339D01*
X010351Y015339D02*
X010351Y015673D01*
X010463Y015561D01*
X010602Y015617D02*
X010658Y015673D01*
X010769Y015673D01*
X010825Y015617D01*
X010825Y015394D01*
X010769Y015339D01*
X010658Y015339D01*
X010602Y015394D01*
X010744Y016023D02*
X010688Y016078D01*
X010688Y016190D01*
X010744Y016245D01*
X010688Y016385D02*
X010911Y016608D01*
X010967Y016608D01*
X011022Y016552D01*
X011022Y016441D01*
X010967Y016385D01*
X010967Y016245D02*
X011022Y016190D01*
X011022Y016078D01*
X010967Y016023D01*
X010744Y016023D01*
X010688Y016385D02*
X010688Y016608D01*
X010744Y016748D02*
X010688Y016803D01*
X010688Y016915D01*
X010744Y016970D01*
X010855Y016970D01*
X010911Y016915D01*
X010911Y016859D01*
X010855Y016748D01*
X011022Y016748D01*
X011022Y016970D01*
X011366Y017332D02*
X011310Y017388D01*
X011310Y017499D01*
X011366Y017555D01*
X011644Y017555D01*
X011644Y017695D02*
X011644Y017917D01*
X011588Y017917D01*
X011366Y017695D01*
X011310Y017695D01*
X011366Y017332D02*
X011644Y017332D01*
X011824Y017477D02*
X011851Y017475D01*
X011878Y017470D01*
X011904Y017460D01*
X011928Y017448D01*
X011950Y017432D01*
X011970Y017414D01*
X011987Y017392D01*
X012002Y017369D01*
X012012Y017344D01*
X012020Y017318D01*
X012024Y017291D01*
X012024Y017263D01*
X012020Y017236D01*
X012012Y017210D01*
X012002Y017185D01*
X011987Y017162D01*
X011970Y017140D01*
X011950Y017122D01*
X011928Y017106D01*
X011904Y017094D01*
X011878Y017084D01*
X011851Y017079D01*
X011824Y017077D01*
X011824Y017477D01*
X011824Y017848D01*
X011824Y017858D01*
X011826Y017881D01*
X011831Y017904D01*
X011840Y017926D01*
X011853Y017946D01*
X011868Y017964D01*
X011886Y017979D01*
X011906Y017992D01*
X011928Y018001D01*
X011951Y018006D01*
X011974Y018008D01*
X013674Y018008D01*
X013697Y018006D01*
X013720Y018001D01*
X013742Y017992D01*
X013762Y017979D01*
X013780Y017964D01*
X013795Y017946D01*
X013808Y017926D01*
X013817Y017904D01*
X013822Y017881D01*
X013824Y017858D01*
X013824Y017848D01*
X013824Y016697D01*
X013822Y016674D01*
X013817Y016651D01*
X013808Y016629D01*
X013795Y016609D01*
X013780Y016591D01*
X013762Y016576D01*
X013742Y016563D01*
X013720Y016554D01*
X013697Y016549D01*
X013674Y016547D01*
X011974Y016547D01*
X011951Y016549D01*
X011928Y016554D01*
X011906Y016563D01*
X011886Y016576D01*
X011868Y016591D01*
X011853Y016609D01*
X011840Y016629D01*
X011831Y016651D01*
X011826Y016674D01*
X011824Y016697D01*
X011824Y017077D01*
X012161Y015223D02*
X012384Y015223D01*
X012440Y015168D01*
X012440Y015056D01*
X012384Y015001D01*
X012328Y015001D01*
X012273Y015056D01*
X012273Y015223D01*
X012161Y015223D02*
X012106Y015168D01*
X012106Y015056D01*
X012161Y015001D01*
X012106Y014861D02*
X012106Y014638D01*
X012106Y014749D02*
X012440Y014749D01*
X012328Y014638D01*
X012384Y014498D02*
X012440Y014443D01*
X012440Y014331D01*
X012384Y014276D01*
X012161Y014276D01*
X012106Y014331D01*
X012106Y014443D01*
X012161Y014498D01*
X011353Y012326D02*
X011353Y012048D01*
X011298Y011992D01*
X011186Y011992D01*
X011131Y012048D01*
X011131Y012326D01*
X010991Y012159D02*
X010824Y012159D01*
X010768Y012104D01*
X010768Y012048D01*
X010824Y011992D01*
X010935Y011992D01*
X010991Y012048D01*
X010991Y012159D01*
X010879Y012271D01*
X010768Y012326D01*
X010282Y011736D02*
X010171Y011736D01*
X010115Y011680D01*
X009975Y011624D02*
X009864Y011736D01*
X009864Y011402D01*
X009975Y011402D02*
X009753Y011402D01*
X009613Y011402D02*
X009390Y011624D01*
X009390Y011680D01*
X009446Y011736D01*
X009557Y011736D01*
X009613Y011680D01*
X009613Y011402D02*
X009390Y011402D01*
X010115Y011457D02*
X010171Y011402D01*
X010282Y011402D01*
X010338Y011457D01*
X010338Y011680D01*
X010282Y011736D01*
X012263Y011726D02*
X012263Y011503D01*
X012263Y011615D02*
X012597Y011615D01*
X012486Y011503D01*
X012541Y011364D02*
X012597Y011308D01*
X012597Y011197D01*
X012541Y011141D01*
X012319Y011141D01*
X012263Y011197D01*
X012263Y011308D01*
X012319Y011364D01*
X012854Y011308D02*
X012909Y011364D01*
X012854Y011308D02*
X012854Y011197D01*
X012909Y011141D01*
X013132Y011141D01*
X013188Y011197D01*
X013188Y011308D01*
X013132Y011364D01*
X013076Y011503D02*
X013188Y011615D01*
X012854Y011615D01*
X012854Y011726D02*
X012854Y011503D01*
X012909Y011866D02*
X012854Y011921D01*
X012854Y012033D01*
X012909Y012089D01*
X012965Y012089D01*
X013021Y012033D01*
X013021Y011921D01*
X013076Y011866D01*
X013132Y011866D01*
X013188Y011921D01*
X013188Y012033D01*
X013132Y012089D01*
X013076Y012089D01*
X013021Y012033D01*
X013021Y011921D02*
X012965Y011866D01*
X012909Y011866D01*
X012597Y011921D02*
X012597Y012033D01*
X012541Y012089D01*
X012319Y011866D01*
X012263Y011921D01*
X012263Y012033D01*
X012319Y012089D01*
X012541Y012089D01*
X012597Y011921D02*
X012541Y011866D01*
X012319Y011866D01*
X014177Y010948D02*
X014400Y010948D01*
X014400Y010781D01*
X014288Y010837D01*
X014233Y010837D01*
X014177Y010781D01*
X014177Y010670D01*
X014233Y010614D01*
X014344Y010614D01*
X014400Y010670D01*
X014539Y010670D02*
X014539Y010948D01*
X014762Y010948D02*
X014762Y010670D01*
X014706Y010614D01*
X014595Y010614D01*
X014539Y010670D01*
X015296Y010358D02*
X015296Y010302D01*
X015518Y010079D01*
X015518Y010024D01*
X015658Y010024D02*
X015881Y010024D01*
X015770Y010024D02*
X015770Y010358D01*
X015881Y010246D01*
X016021Y010302D02*
X016076Y010358D01*
X016188Y010358D01*
X016243Y010302D01*
X016243Y010079D01*
X016188Y010024D01*
X016076Y010024D01*
X016021Y010079D01*
X015518Y010358D02*
X015296Y010358D01*
X014172Y009216D02*
X014005Y009216D01*
X013949Y009160D01*
X013949Y009049D01*
X014005Y008993D01*
X014172Y008993D01*
X014172Y008882D02*
X014172Y009216D01*
X014060Y008993D02*
X013949Y008882D01*
X013809Y008882D02*
X013586Y008882D01*
X013698Y008882D02*
X013698Y009216D01*
X013809Y009105D01*
X013447Y009160D02*
X013391Y009216D01*
X013280Y009216D01*
X013224Y009160D01*
X013224Y009105D01*
X013447Y008882D01*
X013224Y008882D01*
X012518Y008882D02*
X012295Y008882D01*
X012156Y008882D02*
X011933Y008882D01*
X012044Y008882D02*
X012044Y009216D01*
X012156Y009105D01*
X012518Y009216D02*
X012518Y008882D01*
X012736Y007128D02*
X012736Y006905D01*
X012958Y007128D01*
X013014Y007128D01*
X013069Y007072D01*
X013069Y006961D01*
X013014Y006905D01*
X013069Y006765D02*
X012791Y006765D01*
X012736Y006710D01*
X012736Y006598D01*
X012791Y006543D01*
X013069Y006543D01*
X013069Y006246D02*
X012736Y006246D01*
X012736Y006357D02*
X012736Y006134D01*
X012791Y005994D02*
X013014Y005994D01*
X013069Y005939D01*
X013069Y005772D01*
X012736Y005772D01*
X012736Y005939D01*
X012791Y005994D01*
X012958Y006134D02*
X013069Y006246D01*
X013014Y005617D02*
X012958Y005617D01*
X012902Y005561D01*
X012902Y005450D01*
X012958Y005394D01*
X013014Y005394D01*
X013069Y005450D01*
X013069Y005561D01*
X013014Y005617D01*
X012902Y005561D02*
X012847Y005617D01*
X012791Y005617D01*
X012736Y005561D01*
X012736Y005450D01*
X012791Y005394D01*
X012847Y005394D01*
X012902Y005450D01*
X012736Y005254D02*
X012736Y005032D01*
X012736Y005143D02*
X013069Y005143D01*
X012958Y005032D01*
X012902Y004892D02*
X012847Y004836D01*
X012847Y004669D01*
X012736Y004669D02*
X013069Y004669D01*
X013069Y004836D01*
X013014Y004892D01*
X012902Y004892D01*
X012847Y004781D02*
X012736Y004892D01*
X013696Y004039D02*
X013919Y004039D01*
X013808Y004039D02*
X013808Y004373D01*
X013919Y004262D01*
X014059Y004262D02*
X014059Y004318D01*
X014115Y004373D01*
X014226Y004373D01*
X014282Y004318D01*
X014421Y004318D02*
X014421Y004206D01*
X014477Y004151D01*
X014644Y004151D01*
X014533Y004151D02*
X014421Y004039D01*
X014282Y004039D02*
X014059Y004262D01*
X014059Y004039D02*
X014282Y004039D01*
X014421Y004318D02*
X014477Y004373D01*
X014644Y004373D01*
X014644Y004039D01*
X014886Y004134D02*
X014886Y004190D01*
X014941Y004246D01*
X015108Y004246D01*
X015108Y004134D01*
X015053Y004079D01*
X014941Y004079D01*
X014886Y004134D01*
X015108Y004246D02*
X014997Y004357D01*
X014886Y004413D01*
X015248Y004357D02*
X015304Y004413D01*
X015415Y004413D01*
X015471Y004357D01*
X015471Y004134D01*
X015415Y004079D01*
X015304Y004079D01*
X015248Y004134D01*
X015366Y003389D02*
X015366Y003055D01*
X015255Y003055D02*
X015478Y003055D01*
X015617Y003055D02*
X015840Y003055D01*
X015840Y003389D01*
X015617Y003389D01*
X015478Y003278D02*
X015366Y003389D01*
X015729Y003222D02*
X015840Y003222D01*
X015980Y003166D02*
X015980Y003111D01*
X016036Y003055D01*
X016147Y003055D01*
X016203Y003111D01*
X016147Y003222D02*
X016203Y003278D01*
X016203Y003334D01*
X016147Y003389D01*
X016036Y003389D01*
X015980Y003334D01*
X016036Y003222D02*
X015980Y003166D01*
X016036Y003222D02*
X016147Y003222D01*
X016342Y003111D02*
X016398Y003055D01*
X016509Y003055D01*
X016565Y003111D01*
X016565Y003389D01*
X016705Y003389D02*
X016927Y003389D01*
X016927Y003055D01*
X016927Y003222D02*
X016816Y003222D01*
X017302Y003278D02*
X017302Y003334D01*
X017358Y003389D01*
X017469Y003389D01*
X017525Y003334D01*
X017665Y003389D02*
X017887Y003389D01*
X017887Y003055D01*
X017665Y003055D01*
X017525Y003055D02*
X017302Y003278D01*
X017302Y003055D02*
X017525Y003055D01*
X017776Y003222D02*
X017887Y003222D01*
X018027Y003166D02*
X018027Y003111D01*
X018083Y003055D01*
X018194Y003055D01*
X018250Y003111D01*
X018194Y003222D02*
X018083Y003222D01*
X018027Y003166D01*
X018027Y003334D02*
X018083Y003389D01*
X018194Y003389D01*
X018250Y003334D01*
X018250Y003278D01*
X018194Y003222D01*
X018390Y003111D02*
X018445Y003055D01*
X018557Y003055D01*
X018612Y003111D01*
X018612Y003389D01*
X018752Y003389D02*
X018975Y003389D01*
X018975Y003055D01*
X018975Y003222D02*
X018863Y003222D01*
X018390Y003111D02*
X018390Y003389D01*
X019326Y003334D02*
X019326Y003278D01*
X019382Y003222D01*
X019493Y003222D01*
X019549Y003278D01*
X019549Y003334D01*
X019493Y003389D01*
X019382Y003389D01*
X019326Y003334D01*
X019382Y003222D02*
X019326Y003166D01*
X019326Y003111D01*
X019382Y003055D01*
X019493Y003055D01*
X019549Y003111D01*
X019549Y003166D01*
X019493Y003222D01*
X019689Y003278D02*
X019689Y003334D01*
X019744Y003389D01*
X019856Y003389D01*
X019911Y003334D01*
X020051Y003334D02*
X020051Y003222D01*
X020107Y003166D01*
X020274Y003166D01*
X020274Y003055D02*
X020274Y003389D01*
X020107Y003389D01*
X020051Y003334D01*
X020163Y003166D02*
X020051Y003055D01*
X019911Y003055D02*
X019689Y003278D01*
X019689Y003055D02*
X019911Y003055D01*
X020650Y004630D02*
X020761Y004630D01*
X020817Y004686D01*
X020817Y004741D01*
X020761Y004797D01*
X020650Y004797D01*
X020594Y004741D01*
X020594Y004686D01*
X020650Y004630D01*
X020650Y004797D02*
X020594Y004853D01*
X020594Y004908D01*
X020650Y004964D01*
X020761Y004964D01*
X020817Y004908D01*
X020817Y004853D01*
X020761Y004797D01*
X020957Y004908D02*
X020957Y004686D01*
X021012Y004630D01*
X021124Y004630D01*
X021179Y004686D01*
X021179Y004908D01*
X021124Y004964D01*
X021012Y004964D01*
X020957Y004908D01*
X021068Y004741D02*
X020957Y004630D01*
X020392Y005614D02*
X020058Y005614D01*
X020170Y005614D02*
X020170Y005781D01*
X020225Y005837D01*
X020337Y005837D01*
X020392Y005781D01*
X020392Y005614D01*
X020170Y005726D02*
X020058Y005837D01*
X020058Y005977D02*
X020281Y006199D01*
X020337Y006199D01*
X020392Y006144D01*
X020392Y006032D01*
X020337Y005977D01*
X020058Y005977D02*
X020058Y006199D01*
X020225Y006339D02*
X020225Y006562D01*
X020058Y006506D02*
X020392Y006506D01*
X020225Y006339D01*
X019825Y006992D02*
X019713Y006992D01*
X019658Y007048D01*
X019658Y007271D01*
X019713Y007326D01*
X019825Y007326D01*
X019880Y007271D01*
X019880Y007048D01*
X019825Y006992D01*
X019769Y007104D02*
X019658Y006992D01*
X019518Y006992D02*
X019295Y006992D01*
X019406Y006992D02*
X019406Y007326D01*
X019518Y007215D01*
X019263Y006710D02*
X019263Y005010D01*
X019261Y004987D01*
X019256Y004964D01*
X019247Y004942D01*
X019234Y004922D01*
X019219Y004904D01*
X019201Y004889D01*
X019181Y004876D01*
X019159Y004867D01*
X019136Y004862D01*
X019113Y004860D01*
X019103Y004860D01*
X017952Y004860D01*
X017929Y004862D01*
X017906Y004867D01*
X017884Y004876D01*
X017864Y004889D01*
X017846Y004904D01*
X017831Y004922D01*
X017818Y004942D01*
X017809Y004964D01*
X017804Y004987D01*
X017802Y005010D01*
X017802Y006710D01*
X017804Y006733D01*
X017809Y006756D01*
X017818Y006778D01*
X017831Y006798D01*
X017846Y006816D01*
X017864Y006831D01*
X017884Y006844D01*
X017906Y006853D01*
X017929Y006858D01*
X017952Y006860D01*
X018332Y006860D01*
X018732Y006860D01*
X019103Y006860D01*
X019113Y006860D01*
X019136Y006858D01*
X019159Y006853D01*
X019181Y006844D01*
X019201Y006831D01*
X019219Y006816D01*
X019234Y006798D01*
X019247Y006778D01*
X019256Y006756D01*
X019261Y006733D01*
X019263Y006710D01*
X018732Y006860D02*
X018730Y006833D01*
X018725Y006806D01*
X018715Y006780D01*
X018703Y006756D01*
X018687Y006734D01*
X018669Y006714D01*
X018647Y006697D01*
X018624Y006682D01*
X018599Y006672D01*
X018573Y006664D01*
X018546Y006660D01*
X018518Y006660D01*
X018491Y006664D01*
X018465Y006672D01*
X018440Y006682D01*
X018417Y006697D01*
X018395Y006714D01*
X018377Y006734D01*
X018361Y006756D01*
X018349Y006780D01*
X018339Y006806D01*
X018334Y006833D01*
X018332Y006860D01*
X018242Y008370D02*
X018297Y008426D01*
X018242Y008370D02*
X018130Y008370D01*
X018075Y008426D01*
X018075Y008481D01*
X018130Y008537D01*
X018186Y008537D01*
X018130Y008537D02*
X018075Y008593D01*
X018075Y008648D01*
X018130Y008704D01*
X018242Y008704D01*
X018297Y008648D01*
X018437Y008648D02*
X018437Y008537D01*
X018493Y008481D01*
X018660Y008481D01*
X018660Y008370D02*
X018660Y008704D01*
X018493Y008704D01*
X018437Y008648D01*
X018548Y008481D02*
X018437Y008370D01*
X018399Y008882D02*
X018455Y008938D01*
X018399Y008882D02*
X018288Y008882D01*
X018232Y008938D01*
X018232Y008993D01*
X018288Y009049D01*
X018343Y009049D01*
X018288Y009049D02*
X018232Y009105D01*
X018232Y009160D01*
X018288Y009216D01*
X018399Y009216D01*
X018455Y009160D01*
X018595Y009160D02*
X018650Y009216D01*
X018817Y009216D01*
X018817Y008882D01*
X018817Y008993D02*
X018650Y008993D01*
X018595Y009049D01*
X018595Y009160D01*
X018706Y008993D02*
X018595Y008882D01*
X018092Y008938D02*
X018037Y008882D01*
X017925Y008882D01*
X017870Y008938D01*
X017870Y009160D01*
X018092Y008938D01*
X018092Y009160D01*
X018037Y009216D01*
X017925Y009216D01*
X017870Y009160D01*
X017597Y008978D02*
X017597Y008867D01*
X017541Y008811D01*
X017541Y008672D02*
X017430Y008672D01*
X017374Y008616D01*
X017374Y008449D01*
X017263Y008449D02*
X017597Y008449D01*
X017597Y008616D01*
X017541Y008672D01*
X017374Y008560D02*
X017263Y008672D01*
X017263Y008811D02*
X017486Y009034D01*
X017541Y009034D01*
X017597Y008978D01*
X017430Y009174D02*
X017430Y009341D01*
X017374Y009396D01*
X017319Y009396D01*
X017263Y009341D01*
X017263Y009229D01*
X017319Y009174D01*
X017430Y009174D01*
X017541Y009285D01*
X017597Y009396D01*
X017263Y009034D02*
X017263Y008811D01*
X016613Y008901D02*
X016613Y008567D01*
X016613Y008678D02*
X016446Y008678D01*
X016390Y008734D01*
X016390Y008845D01*
X016446Y008901D01*
X016613Y008901D01*
X016501Y008678D02*
X016390Y008567D01*
X016250Y008567D02*
X016027Y008567D01*
X016139Y008567D02*
X016139Y008901D01*
X016250Y008790D01*
X015888Y008790D02*
X015776Y008901D01*
X015776Y008567D01*
X015665Y008567D02*
X015888Y008567D01*
X015832Y007129D02*
X015721Y007129D01*
X015665Y007074D01*
X015665Y007018D01*
X015721Y006962D01*
X015665Y006907D01*
X015665Y006851D01*
X015721Y006795D01*
X015832Y006795D01*
X015888Y006851D01*
X016027Y006795D02*
X016250Y006795D01*
X016139Y006795D02*
X016139Y007129D01*
X016250Y007018D01*
X016390Y007074D02*
X016390Y006962D01*
X016446Y006907D01*
X016613Y006907D01*
X016613Y006795D02*
X016613Y007129D01*
X016446Y007129D01*
X016390Y007074D01*
X016501Y006907D02*
X016390Y006795D01*
X015888Y007074D02*
X015832Y007129D01*
X015776Y006962D02*
X015721Y006962D01*
X015274Y006759D02*
X015274Y006536D01*
X015218Y006480D01*
X015107Y006480D01*
X015051Y006536D01*
X014911Y006480D02*
X014689Y006703D01*
X014689Y006759D01*
X014744Y006814D01*
X014856Y006814D01*
X014911Y006759D01*
X015051Y006759D02*
X015107Y006814D01*
X015218Y006814D01*
X015274Y006759D01*
X014911Y006480D02*
X014689Y006480D01*
X014658Y006106D02*
X014602Y006050D01*
X014825Y005827D01*
X014769Y005772D01*
X014658Y005772D01*
X014602Y005827D01*
X014602Y006050D01*
X014658Y006106D02*
X014769Y006106D01*
X014825Y006050D01*
X014825Y005827D01*
X014964Y005772D02*
X015187Y005772D01*
X014964Y005994D01*
X014964Y006050D01*
X015020Y006106D01*
X015131Y006106D01*
X015187Y006050D01*
X015327Y006050D02*
X015327Y005939D01*
X015383Y005883D01*
X015550Y005883D01*
X015550Y005772D02*
X015550Y006106D01*
X015383Y006106D01*
X015327Y006050D01*
X015438Y005883D02*
X015327Y005772D01*
X016342Y003389D02*
X016342Y003111D01*
X011534Y003780D02*
X011478Y003724D01*
X011256Y003724D01*
X011200Y003780D01*
X011200Y003891D01*
X011256Y003947D01*
X011200Y004087D02*
X011200Y004310D01*
X011200Y004198D02*
X011534Y004198D01*
X011423Y004087D01*
X011478Y003947D02*
X011534Y003891D01*
X011534Y003780D01*
X010038Y005378D02*
X009704Y005378D01*
X009815Y005378D02*
X009815Y005545D01*
X009871Y005601D01*
X009982Y005601D01*
X010038Y005545D01*
X010038Y005378D01*
X009815Y005489D02*
X009704Y005601D01*
X009704Y005741D02*
X009704Y005963D01*
X009704Y005852D02*
X010038Y005852D01*
X009927Y005741D01*
X009927Y006103D02*
X009871Y006159D01*
X009871Y006326D01*
X009760Y006326D02*
X009982Y006326D01*
X010038Y006270D01*
X010038Y006159D01*
X009982Y006103D01*
X009927Y006103D01*
X009760Y006103D02*
X009704Y006159D01*
X009704Y006270D01*
X009760Y006326D01*
X010271Y006877D02*
X010494Y006654D01*
X010494Y006599D01*
X010634Y006599D02*
X010856Y006599D01*
X010745Y006599D02*
X010745Y006932D01*
X010856Y006821D01*
X010996Y006765D02*
X011052Y006710D01*
X011219Y006710D01*
X011108Y006710D02*
X010996Y006599D01*
X010996Y006765D02*
X010996Y006877D01*
X011052Y006932D01*
X011219Y006932D01*
X011219Y006599D01*
X010494Y006932D02*
X010271Y006932D01*
X010271Y006877D01*
X009329Y008134D02*
X008995Y008134D01*
X009107Y008134D02*
X009107Y008301D01*
X009162Y008357D01*
X009274Y008357D01*
X009329Y008301D01*
X009329Y008134D01*
X009107Y008245D02*
X008995Y008357D01*
X009051Y008496D02*
X008995Y008552D01*
X008995Y008663D01*
X009051Y008719D01*
X009107Y008719D01*
X009162Y008663D01*
X009162Y008608D01*
X009162Y008663D02*
X009218Y008719D01*
X009274Y008719D01*
X009329Y008663D01*
X009329Y008552D01*
X009274Y008496D01*
X009162Y008859D02*
X009162Y009026D01*
X009107Y009082D01*
X009051Y009082D01*
X008995Y009026D01*
X008995Y008915D01*
X009051Y008859D01*
X009162Y008859D01*
X009274Y008970D01*
X009329Y009082D01*
X006967Y009082D02*
X006967Y008859D01*
X006800Y008859D01*
X006856Y008970D01*
X006856Y009026D01*
X006800Y009082D01*
X006689Y009082D01*
X006633Y009026D01*
X006633Y008915D01*
X006689Y008859D01*
X006689Y008719D02*
X006633Y008663D01*
X006633Y008552D01*
X006689Y008496D01*
X006633Y008357D02*
X006744Y008245D01*
X006744Y008301D02*
X006744Y008134D01*
X006633Y008134D02*
X006967Y008134D01*
X006967Y008301D01*
X006911Y008357D01*
X006800Y008357D01*
X006744Y008301D01*
X006911Y008496D02*
X006967Y008552D01*
X006967Y008663D01*
X006911Y008719D01*
X006856Y008719D01*
X006800Y008663D01*
X006744Y008719D01*
X006689Y008719D01*
X006800Y008663D02*
X006800Y008608D01*
X007571Y006027D02*
X007515Y005971D01*
X007738Y005749D01*
X007682Y005693D01*
X007571Y005693D01*
X007515Y005749D01*
X007515Y005971D01*
X007571Y006027D02*
X007682Y006027D01*
X007738Y005971D01*
X007738Y005749D01*
X007878Y005693D02*
X008100Y005693D01*
X007989Y005693D02*
X007989Y006027D01*
X008100Y005916D01*
X008240Y006027D02*
X008240Y005749D01*
X008296Y005693D01*
X008407Y005693D01*
X008463Y005749D01*
X008463Y006027D01*
X008211Y012479D02*
X007988Y012479D01*
X007932Y012535D01*
X007932Y012646D01*
X007988Y012702D01*
X007932Y012842D02*
X007932Y013065D01*
X007932Y012953D02*
X008266Y012953D01*
X008155Y012842D01*
X008211Y012702D02*
X008266Y012646D01*
X008266Y012535D01*
X008211Y012479D01*
X008211Y013204D02*
X008266Y013260D01*
X008266Y013371D01*
X008211Y013427D01*
X008155Y013427D01*
X008099Y013371D01*
X008044Y013427D01*
X007988Y013427D01*
X007932Y013371D01*
X007932Y013260D01*
X007988Y013204D01*
X008099Y013316D02*
X008099Y013371D01*
X007988Y013661D02*
X007932Y013716D01*
X007932Y013828D01*
X007988Y013883D01*
X007932Y014023D02*
X007932Y014246D01*
X007932Y014134D02*
X008266Y014134D01*
X008155Y014023D01*
X008211Y013883D02*
X008266Y013828D01*
X008266Y013716D01*
X008211Y013661D01*
X007988Y013661D01*
X007676Y013629D02*
X007397Y013629D01*
X007342Y013685D01*
X007342Y013796D01*
X007397Y013852D01*
X007676Y013852D01*
X007620Y013992D02*
X007564Y013992D01*
X007509Y014048D01*
X007509Y014215D01*
X007620Y014215D02*
X007676Y014159D01*
X007676Y014048D01*
X007620Y013992D01*
X007620Y014215D02*
X007397Y014215D01*
X007342Y014159D01*
X007342Y014048D01*
X007397Y013992D01*
X007932Y014441D02*
X007932Y014553D01*
X007988Y014608D01*
X008099Y014608D01*
X008155Y014553D01*
X008155Y014497D01*
X008099Y014386D01*
X008266Y014386D01*
X008266Y014608D01*
X007988Y014386D02*
X007932Y014441D01*
X007282Y021165D02*
X006948Y021165D01*
X007059Y021165D02*
X007059Y021332D01*
X007115Y021388D01*
X007226Y021388D01*
X007282Y021332D01*
X007282Y021165D01*
X007059Y021277D02*
X006948Y021388D01*
X007115Y021528D02*
X007115Y021751D01*
X006948Y021695D02*
X007282Y021695D01*
X007115Y021528D01*
X007004Y021890D02*
X006948Y021946D01*
X006948Y022057D01*
X007004Y022113D01*
X007059Y022113D01*
X007115Y022057D01*
X007115Y022002D01*
X007115Y022057D02*
X007171Y022113D01*
X007226Y022113D01*
X007282Y022057D01*
X007282Y021946D01*
X007226Y021890D01*
X008917Y022057D02*
X009251Y022057D01*
X009084Y021890D01*
X009084Y022113D01*
X009084Y021751D02*
X009084Y021528D01*
X009251Y021695D01*
X008917Y021695D01*
X008917Y021388D02*
X009028Y021277D01*
X009028Y021332D02*
X009028Y021165D01*
X008917Y021165D02*
X009251Y021165D01*
X009251Y021332D01*
X009195Y021388D01*
X009084Y021388D01*
X009028Y021332D01*
X009901Y021913D02*
X010235Y021913D01*
X010235Y022080D01*
X010179Y022136D01*
X010068Y022136D01*
X010012Y022080D01*
X010012Y021913D01*
X010012Y022025D02*
X009901Y022136D01*
X009901Y022276D02*
X010124Y022499D01*
X010179Y022499D01*
X010235Y022443D01*
X010235Y022332D01*
X010179Y022276D01*
X009901Y022276D02*
X009901Y022499D01*
X009956Y022638D02*
X009901Y022694D01*
X009901Y022805D01*
X009956Y022861D01*
X010012Y022861D01*
X010068Y022805D01*
X010068Y022750D01*
X010068Y022805D02*
X010124Y022861D01*
X010179Y022861D01*
X010235Y022805D01*
X010235Y022694D01*
X010179Y022638D01*
X010179Y023410D02*
X010068Y023410D01*
X010012Y023465D01*
X010012Y023744D01*
X009872Y023688D02*
X009872Y023632D01*
X009816Y023576D01*
X009705Y023576D01*
X009649Y023521D01*
X009649Y023465D01*
X009705Y023410D01*
X009816Y023410D01*
X009872Y023465D01*
X009872Y023521D01*
X009816Y023576D01*
X009705Y023576D02*
X009649Y023632D01*
X009649Y023688D01*
X009705Y023744D01*
X009816Y023744D01*
X009872Y023688D01*
X010179Y023410D02*
X010235Y023465D01*
X010235Y023744D01*
X012122Y023773D02*
X012122Y023662D01*
X012177Y023606D01*
X012289Y023606D01*
X012344Y023662D01*
X012344Y023773D02*
X012233Y023829D01*
X012177Y023829D01*
X012122Y023773D01*
X012122Y023940D02*
X012344Y023940D01*
X012344Y023773D01*
X012484Y023829D02*
X012484Y023885D01*
X012540Y023940D01*
X012651Y023940D01*
X012707Y023885D01*
X012847Y023885D02*
X012847Y023773D01*
X012902Y023718D01*
X013069Y023718D01*
X012958Y023718D02*
X012847Y023606D01*
X012707Y023606D02*
X012484Y023829D01*
X012484Y023606D02*
X012707Y023606D01*
X012847Y023885D02*
X012902Y023940D01*
X013069Y023940D01*
X013069Y023606D01*
X013444Y023411D02*
X013444Y023299D01*
X013500Y023244D01*
X013500Y023104D02*
X013444Y023048D01*
X013444Y022937D01*
X013500Y022881D01*
X013722Y022881D01*
X013778Y022937D01*
X013778Y023048D01*
X013722Y023104D01*
X013722Y023244D02*
X013778Y023299D01*
X013778Y023411D01*
X013722Y023466D01*
X013667Y023466D01*
X013611Y023411D01*
X013555Y023466D01*
X013500Y023466D01*
X013444Y023411D01*
X013611Y023411D02*
X013611Y023355D01*
X019405Y017782D02*
X019461Y017838D01*
X019572Y017838D01*
X019628Y017782D01*
X019768Y017671D02*
X019990Y017671D01*
X019823Y017838D01*
X019823Y017504D01*
X019628Y017504D02*
X019405Y017727D01*
X019405Y017782D01*
X019405Y017504D02*
X019628Y017504D01*
X020130Y017504D02*
X020241Y017615D01*
X020186Y017615D02*
X020353Y017615D01*
X020353Y017504D02*
X020353Y017838D01*
X020186Y017838D01*
X020130Y017782D01*
X020130Y017671D01*
X020186Y017615D01*
X020186Y016066D02*
X020297Y016066D01*
X020353Y016011D01*
X020353Y015788D01*
X020297Y015732D01*
X020186Y015732D01*
X020130Y015788D01*
X019990Y015732D02*
X019768Y015955D01*
X019768Y016011D01*
X019823Y016066D01*
X019935Y016066D01*
X019990Y016011D01*
X020130Y016011D02*
X020186Y016066D01*
X019990Y015732D02*
X019768Y015732D01*
X019628Y015899D02*
X019405Y015899D01*
X019461Y015732D02*
X019461Y016066D01*
X019628Y015899D01*
X019713Y015318D02*
X019825Y015318D01*
X019880Y015263D01*
X019880Y015040D01*
X019825Y014984D01*
X019713Y014984D01*
X019658Y015040D01*
X019518Y014984D02*
X019295Y015207D01*
X019295Y015263D01*
X019351Y015318D01*
X019462Y015318D01*
X019518Y015263D01*
X019658Y015263D02*
X019713Y015318D01*
X019518Y014984D02*
X019295Y014984D01*
X019155Y014984D02*
X018933Y015207D01*
X018933Y015263D01*
X018988Y015318D01*
X019100Y015318D01*
X019155Y015263D01*
X019155Y014984D02*
X018933Y014984D01*
X019044Y012799D02*
X019044Y012465D01*
X019155Y012465D02*
X018933Y012465D01*
X018988Y012326D02*
X019155Y012159D01*
X018933Y012159D01*
X018988Y011992D02*
X018988Y012326D01*
X019295Y012271D02*
X019295Y012215D01*
X019351Y012159D01*
X019295Y012104D01*
X019295Y012048D01*
X019351Y011992D01*
X019462Y011992D01*
X019518Y012048D01*
X019658Y011992D02*
X019769Y012104D01*
X019713Y012104D02*
X019880Y012104D01*
X019880Y011992D02*
X019880Y012326D01*
X019713Y012326D01*
X019658Y012271D01*
X019658Y012159D01*
X019713Y012104D01*
X019518Y012271D02*
X019462Y012326D01*
X019351Y012326D01*
X019295Y012271D01*
X019351Y012159D02*
X019406Y012159D01*
X019295Y012465D02*
X019518Y012465D01*
X019295Y012687D01*
X019295Y012743D01*
X019351Y012799D01*
X019462Y012799D01*
X019518Y012743D01*
X019658Y012743D02*
X019713Y012799D01*
X019825Y012799D01*
X019880Y012743D01*
X019880Y012520D01*
X019825Y012465D01*
X019713Y012465D01*
X019658Y012520D01*
X019155Y012687D02*
X019044Y012799D01*
X018169Y011759D02*
X018169Y011536D01*
X018169Y011647D02*
X018503Y011647D01*
X018391Y011536D01*
X018391Y011396D02*
X018336Y011341D01*
X018280Y011396D01*
X018224Y011396D01*
X018169Y011341D01*
X018169Y011229D01*
X018224Y011174D01*
X018169Y011034D02*
X018280Y010922D01*
X018280Y010978D02*
X018280Y010811D01*
X018169Y010811D02*
X018503Y010811D01*
X018503Y010978D01*
X018447Y011034D01*
X018336Y011034D01*
X018280Y010978D01*
X018447Y011174D02*
X018503Y011229D01*
X018503Y011341D01*
X018447Y011396D01*
X018391Y011396D01*
X018336Y011341D02*
X018336Y011285D01*
X018539Y010161D02*
X018539Y010105D01*
X018762Y009882D01*
X018762Y009827D01*
X018901Y009827D02*
X019124Y009827D01*
X018901Y010049D01*
X018901Y010105D01*
X018957Y010161D01*
X019068Y010161D01*
X019124Y010105D01*
X019264Y010105D02*
X019264Y009994D01*
X019320Y009938D01*
X019487Y009938D01*
X019487Y009827D02*
X019487Y010161D01*
X019320Y010161D01*
X019264Y010105D01*
X019375Y009938D02*
X019264Y009827D01*
X018762Y010161D02*
X018539Y010161D01*
X020028Y009413D02*
X020028Y009079D01*
X019917Y009079D02*
X020140Y009079D01*
X020279Y009079D02*
X020502Y009079D01*
X020502Y009134D01*
X020279Y009357D01*
X020279Y009413D01*
X020502Y009413D01*
X020642Y009357D02*
X020698Y009413D01*
X020864Y009413D01*
X020864Y009079D01*
X020698Y009079D01*
X020642Y009134D01*
X020642Y009357D01*
X020140Y009301D02*
X020028Y009413D01*
X021121Y009804D02*
X021177Y009748D01*
X021400Y009748D01*
X021455Y009804D01*
X021455Y009915D01*
X021400Y009971D01*
X021455Y010111D02*
X021455Y010333D01*
X021400Y010333D01*
X021177Y010111D01*
X021121Y010111D01*
X021177Y009971D02*
X021121Y009915D01*
X021121Y009804D01*
X022723Y008875D02*
X022723Y007175D01*
X022725Y007152D01*
X022730Y007129D01*
X022739Y007107D01*
X022752Y007087D01*
X022767Y007069D01*
X022785Y007054D01*
X022805Y007041D01*
X022827Y007032D01*
X022850Y007027D01*
X022873Y007025D01*
X024024Y007025D01*
X024034Y007025D01*
X024057Y007027D01*
X024080Y007032D01*
X024102Y007041D01*
X024122Y007054D01*
X024140Y007069D01*
X024155Y007087D01*
X024168Y007107D01*
X024177Y007129D01*
X024182Y007152D01*
X024184Y007175D01*
X024184Y008875D01*
X024182Y008898D01*
X024177Y008921D01*
X024168Y008943D01*
X024155Y008963D01*
X024140Y008981D01*
X024122Y008996D01*
X024102Y009009D01*
X024080Y009018D01*
X024057Y009023D01*
X024034Y009025D01*
X024024Y009025D01*
X023654Y009025D01*
X023254Y009025D01*
X022873Y009025D01*
X022850Y009023D01*
X022827Y009018D01*
X022805Y009009D01*
X022785Y008996D01*
X022767Y008981D01*
X022752Y008963D01*
X022739Y008943D01*
X022730Y008921D01*
X022725Y008898D01*
X022723Y008875D01*
X023254Y009025D02*
X023256Y008998D01*
X023261Y008971D01*
X023271Y008945D01*
X023283Y008921D01*
X023299Y008899D01*
X023317Y008879D01*
X023339Y008862D01*
X023362Y008847D01*
X023387Y008837D01*
X023413Y008829D01*
X023440Y008825D01*
X023468Y008825D01*
X023495Y008829D01*
X023521Y008837D01*
X023546Y008847D01*
X023569Y008862D01*
X023591Y008879D01*
X023609Y008899D01*
X023625Y008921D01*
X023637Y008945D01*
X023647Y008971D01*
X023652Y008998D01*
X023654Y009025D01*
X025027Y008678D02*
X025027Y008455D01*
X025250Y008678D01*
X025306Y008678D01*
X025361Y008622D01*
X025361Y008511D01*
X025306Y008455D01*
X025306Y008315D02*
X025083Y008315D01*
X025027Y008260D01*
X025027Y008148D01*
X025083Y008093D01*
X025306Y008093D01*
X025361Y008148D01*
X025361Y008260D01*
X025306Y008315D01*
X025139Y008204D02*
X025027Y008315D01*
X025452Y007915D02*
X025452Y007693D01*
X025675Y007915D01*
X025730Y007915D01*
X025786Y007860D01*
X025786Y007748D01*
X025730Y007693D01*
X025730Y007553D02*
X025619Y007553D01*
X025563Y007497D01*
X025563Y007330D01*
X025452Y007330D02*
X025786Y007330D01*
X025786Y007497D01*
X025730Y007553D01*
X025563Y007441D02*
X025452Y007553D01*
X025225Y007066D02*
X025225Y006843D01*
X025392Y007010D01*
X025058Y007010D01*
X025058Y006703D02*
X025170Y006592D01*
X025114Y006703D02*
X025058Y006647D01*
X025058Y006536D01*
X025114Y006480D01*
X025337Y006480D01*
X025392Y006536D01*
X025392Y006647D01*
X025337Y006703D01*
X025114Y006703D01*
X024184Y006710D02*
X024184Y005010D01*
X024182Y004987D01*
X024177Y004964D01*
X024168Y004942D01*
X024155Y004922D01*
X024140Y004904D01*
X024122Y004889D01*
X024102Y004876D01*
X024080Y004867D01*
X024057Y004862D01*
X024034Y004860D01*
X023654Y004860D01*
X023254Y004860D01*
X022883Y004860D01*
X022873Y004860D01*
X022850Y004862D01*
X022827Y004867D01*
X022805Y004876D01*
X022785Y004889D01*
X022767Y004904D01*
X022752Y004922D01*
X022739Y004942D01*
X022730Y004964D01*
X022725Y004987D01*
X022723Y005010D01*
X022723Y006710D01*
X022725Y006733D01*
X022730Y006756D01*
X022739Y006778D01*
X022752Y006798D01*
X022767Y006816D01*
X022785Y006831D01*
X022805Y006844D01*
X022827Y006853D01*
X022850Y006858D01*
X022873Y006860D01*
X022883Y006860D01*
X024034Y006860D01*
X024057Y006858D01*
X024080Y006853D01*
X024102Y006844D01*
X024122Y006831D01*
X024140Y006816D01*
X024155Y006798D01*
X024168Y006778D01*
X024177Y006756D01*
X024182Y006733D01*
X024184Y006710D01*
X023654Y004860D02*
X023652Y004887D01*
X023647Y004914D01*
X023637Y004940D01*
X023625Y004964D01*
X023609Y004986D01*
X023591Y005006D01*
X023569Y005023D01*
X023546Y005038D01*
X023521Y005048D01*
X023495Y005056D01*
X023468Y005060D01*
X023440Y005060D01*
X023413Y005056D01*
X023387Y005048D01*
X023362Y005038D01*
X023339Y005023D01*
X023317Y005006D01*
X023299Y004986D01*
X023283Y004964D01*
X023271Y004940D01*
X023261Y004914D01*
X023256Y004887D01*
X023254Y004860D01*
X024138Y004515D02*
X024138Y004292D01*
X024193Y004236D01*
X024305Y004236D01*
X024360Y004292D01*
X024305Y004403D02*
X024138Y004403D01*
X024138Y004515D02*
X024193Y004570D01*
X024305Y004570D01*
X024360Y004515D01*
X024360Y004459D01*
X024305Y004403D01*
X024500Y004292D02*
X024556Y004236D01*
X024667Y004236D01*
X024723Y004292D01*
X024723Y004515D01*
X024667Y004570D01*
X024556Y004570D01*
X024500Y004515D01*
X024500Y004292D01*
X024500Y004236D02*
X024611Y004348D01*
X024925Y004459D02*
X024925Y004515D01*
X024981Y004570D01*
X025092Y004570D01*
X025148Y004515D01*
X025288Y004515D02*
X025288Y004292D01*
X025343Y004236D01*
X025510Y004236D01*
X025510Y004570D01*
X025343Y004570D01*
X025288Y004515D01*
X025148Y004236D02*
X024925Y004459D01*
X024925Y004236D02*
X025148Y004236D01*
X022715Y003192D02*
X022715Y002858D01*
X022715Y002970D02*
X022548Y002970D01*
X022492Y003025D01*
X022492Y003137D01*
X022548Y003192D01*
X022715Y003192D01*
X022604Y002970D02*
X022492Y002858D01*
X022352Y002858D02*
X022130Y003081D01*
X022130Y003137D01*
X022185Y003192D01*
X022297Y003192D01*
X022352Y003137D01*
X022352Y002858D02*
X022130Y002858D01*
X021990Y002914D02*
X021934Y002858D01*
X021823Y002858D01*
X021767Y002914D01*
X021767Y003137D01*
X021823Y003192D01*
X021934Y003192D01*
X021990Y003137D01*
X021990Y003081D01*
X021934Y003025D01*
X021767Y003025D01*
X027894Y006930D02*
X027950Y006874D01*
X028061Y006874D01*
X028117Y006930D01*
X028257Y006930D02*
X028257Y007152D01*
X028312Y007208D01*
X028424Y007208D01*
X028479Y007152D01*
X028479Y006930D01*
X028424Y006874D01*
X028312Y006874D01*
X028257Y006930D01*
X028257Y006874D02*
X028368Y006985D01*
X028117Y007152D02*
X028061Y007208D01*
X027950Y007208D01*
X027894Y007152D01*
X027894Y007097D01*
X027950Y007041D01*
X027894Y006985D01*
X027894Y006930D01*
X027950Y007041D02*
X028005Y007041D01*
X028208Y008055D02*
X028542Y008055D01*
X028542Y008222D01*
X028486Y008278D01*
X028375Y008278D01*
X028319Y008222D01*
X028319Y008055D01*
X028319Y008166D02*
X028208Y008278D01*
X028264Y008418D02*
X028319Y008418D01*
X028375Y008473D01*
X028375Y008585D01*
X028319Y008640D01*
X028264Y008640D01*
X028208Y008585D01*
X028208Y008473D01*
X028264Y008418D01*
X028375Y008473D02*
X028431Y008418D01*
X028486Y008418D01*
X028542Y008473D01*
X028542Y008585D01*
X028486Y008640D01*
X028431Y008640D01*
X028375Y008585D01*
X028319Y009236D02*
X028319Y009403D01*
X028375Y009459D01*
X028486Y009459D01*
X028542Y009403D01*
X028542Y009236D01*
X028208Y009236D01*
X028319Y009348D02*
X028208Y009459D01*
X028208Y009599D02*
X028208Y009821D01*
X028208Y009710D02*
X028542Y009710D01*
X028431Y009599D01*
X027440Y010221D02*
X027440Y010388D01*
X027384Y010443D01*
X027273Y010443D01*
X027217Y010388D01*
X027217Y010221D01*
X027217Y010332D02*
X027106Y010443D01*
X027106Y010583D02*
X027161Y010583D01*
X027384Y010806D01*
X027440Y010806D01*
X027440Y010583D01*
X027440Y010221D02*
X027106Y010221D01*
X026337Y010256D02*
X026281Y010201D01*
X026170Y010201D01*
X026114Y010256D01*
X026114Y010535D01*
X025974Y010424D02*
X025863Y010535D01*
X025863Y010201D01*
X025974Y010201D02*
X025752Y010201D01*
X026337Y010256D02*
X026337Y010535D01*
X026987Y012386D02*
X027321Y012386D01*
X027321Y012553D01*
X027266Y012609D01*
X027154Y012609D01*
X027099Y012553D01*
X027099Y012386D01*
X027099Y012497D02*
X026987Y012609D01*
X027043Y012748D02*
X026987Y012804D01*
X026987Y012915D01*
X027043Y012971D01*
X027099Y012971D01*
X027154Y012915D01*
X027154Y012860D01*
X027154Y012915D02*
X027210Y012971D01*
X027266Y012971D01*
X027321Y012915D01*
X027321Y012804D01*
X027266Y012748D01*
X027266Y013111D02*
X027210Y013111D01*
X027154Y013166D01*
X027154Y013334D01*
X027043Y013334D02*
X027266Y013334D01*
X027321Y013278D01*
X027321Y013166D01*
X027266Y013111D01*
X027043Y013111D02*
X026987Y013166D01*
X026987Y013278D01*
X027043Y013334D01*
X026795Y014354D02*
X026795Y014688D01*
X026628Y014688D01*
X026572Y014633D01*
X026572Y014521D01*
X026628Y014466D01*
X026795Y014466D01*
X026683Y014466D02*
X026572Y014354D01*
X026432Y014521D02*
X026209Y014521D01*
X026265Y014354D02*
X026265Y014688D01*
X026432Y014521D01*
X026070Y014410D02*
X025847Y014633D01*
X025847Y014410D01*
X025903Y014354D01*
X026014Y014354D01*
X026070Y014410D01*
X026070Y014633D01*
X026014Y014688D01*
X025903Y014688D01*
X025847Y014633D01*
X024826Y014984D02*
X024826Y015318D01*
X024659Y015318D01*
X024603Y015263D01*
X024603Y015151D01*
X024659Y015096D01*
X024826Y015096D01*
X024715Y015096D02*
X024603Y014984D01*
X024464Y015040D02*
X024408Y014984D01*
X024297Y014984D01*
X024241Y015040D01*
X024241Y015096D01*
X024297Y015151D01*
X024352Y015151D01*
X024297Y015151D02*
X024241Y015207D01*
X024241Y015263D01*
X024297Y015318D01*
X024408Y015318D01*
X024464Y015263D01*
X024101Y015263D02*
X024101Y015207D01*
X024045Y015151D01*
X023934Y015151D01*
X023878Y015096D01*
X023878Y015040D01*
X023934Y014984D01*
X024045Y014984D01*
X024101Y015040D01*
X024101Y015096D01*
X024045Y015151D01*
X023934Y015151D02*
X023878Y015207D01*
X023878Y015263D01*
X023934Y015318D01*
X024045Y015318D01*
X024101Y015263D01*
X024045Y014806D02*
X023934Y014806D01*
X023878Y014751D01*
X023878Y014528D01*
X023934Y014473D01*
X024045Y014473D01*
X024101Y014528D01*
X024045Y014639D02*
X023878Y014639D01*
X024045Y014639D02*
X024101Y014695D01*
X024101Y014751D01*
X024045Y014806D01*
X024241Y014751D02*
X024297Y014806D01*
X024408Y014806D01*
X024464Y014751D01*
X024464Y014528D01*
X024408Y014473D01*
X024297Y014473D01*
X024241Y014528D01*
X024297Y014295D02*
X024241Y014239D01*
X024297Y014295D02*
X024408Y014295D01*
X024464Y014239D01*
X024464Y014016D01*
X024408Y013961D01*
X024297Y013961D01*
X024241Y014016D01*
X024101Y014016D02*
X024101Y014072D01*
X024045Y014128D01*
X023934Y014128D01*
X023878Y014072D01*
X023878Y014016D01*
X023934Y013961D01*
X024045Y013961D01*
X024101Y014016D01*
X024045Y014128D02*
X024101Y014183D01*
X024101Y014239D01*
X024045Y014295D01*
X023934Y014295D01*
X023878Y014239D01*
X023878Y014183D01*
X023934Y014128D01*
X023934Y013783D02*
X023878Y013727D01*
X023878Y013672D01*
X023934Y013616D01*
X023878Y013560D01*
X023878Y013505D01*
X023934Y013449D01*
X024045Y013449D01*
X024101Y013505D01*
X024241Y013505D02*
X024297Y013449D01*
X024408Y013449D01*
X024464Y013505D01*
X024603Y013449D02*
X024715Y013560D01*
X024659Y013560D02*
X024826Y013560D01*
X024826Y013449D02*
X024826Y013783D01*
X024659Y013783D01*
X024603Y013727D01*
X024603Y013616D01*
X024659Y013560D01*
X024464Y013727D02*
X024408Y013783D01*
X024297Y013783D01*
X024241Y013727D01*
X024241Y013672D01*
X024297Y013616D01*
X024241Y013560D01*
X024241Y013505D01*
X024297Y013616D02*
X024352Y013616D01*
X024101Y013727D02*
X024045Y013783D01*
X023934Y013783D01*
X023934Y013616D02*
X023990Y013616D01*
X024980Y013648D02*
X024980Y013426D01*
X024980Y013537D02*
X025314Y013537D01*
X025202Y013426D01*
X025202Y013286D02*
X025147Y013230D01*
X025147Y013063D01*
X024980Y013063D02*
X025314Y013063D01*
X025314Y013230D01*
X025258Y013286D01*
X025202Y013286D01*
X025147Y013230D02*
X025091Y013286D01*
X025035Y013286D01*
X024980Y013230D01*
X024980Y013063D01*
X025147Y012812D02*
X025147Y012701D01*
X024980Y012701D02*
X025314Y012701D01*
X025314Y012924D01*
X023502Y011932D02*
X023502Y011599D01*
X023502Y011710D02*
X023335Y011710D01*
X023280Y011765D01*
X023280Y011877D01*
X023335Y011932D01*
X023502Y011932D01*
X023391Y011710D02*
X023280Y011599D01*
X023140Y011654D02*
X023084Y011599D01*
X022973Y011599D01*
X022917Y011654D01*
X022917Y011710D01*
X022973Y011765D01*
X023029Y011765D01*
X022973Y011765D02*
X022917Y011821D01*
X022917Y011877D01*
X022973Y011932D01*
X023084Y011932D01*
X023140Y011877D01*
X022777Y011877D02*
X022722Y011932D01*
X022610Y011932D01*
X022555Y011877D01*
X022555Y011821D01*
X022777Y011599D01*
X022555Y011599D01*
X020864Y011772D02*
X020809Y011717D01*
X020698Y011717D01*
X020642Y011772D01*
X020642Y012051D01*
X020502Y011884D02*
X020279Y011884D01*
X020335Y011717D02*
X020335Y012051D01*
X020502Y011884D01*
X020864Y011772D02*
X020864Y012051D01*
X022817Y015929D02*
X022817Y015985D01*
X022594Y016208D01*
X022594Y016263D01*
X022817Y016263D01*
X022957Y016208D02*
X022957Y016152D01*
X023012Y016096D01*
X022957Y016041D01*
X022957Y015985D01*
X023012Y015929D01*
X023124Y015929D01*
X023179Y015985D01*
X023319Y015929D02*
X023430Y016041D01*
X023375Y016041D02*
X023542Y016041D01*
X023542Y015929D02*
X023542Y016263D01*
X023375Y016263D01*
X023319Y016208D01*
X023319Y016096D01*
X023375Y016041D01*
X023179Y016208D02*
X023124Y016263D01*
X023012Y016263D01*
X022957Y016208D01*
X023012Y016096D02*
X023068Y016096D01*
D13*
X021406Y008891D02*
X019595Y008891D01*
X019595Y007553D02*
X021406Y007553D01*
X012548Y006647D02*
X012548Y005072D01*
X012509Y005072D01*
X011564Y005072D02*
X011524Y005072D01*
X011524Y006647D01*
X011564Y006647D01*
X012509Y006647D02*
X012548Y006647D01*
D14*
X012046Y005569D03*
D15*
X015993Y023694D03*
X018749Y023694D03*
X021505Y023694D03*
D16*
X020772Y008222D03*
M02*
