G75*
G70*
%OFA0B0*%
%FSLAX24Y24*%
%IPPOS*%
%LPD*%
%AMOC8*
5,1,8,0,0,1.08239X$1,22.5*
%
%ADD10C,0.0000*%
%ADD11C,0.0080*%
%ADD12C,0.0050*%
%ADD13C,0.0060*%
%ADD14C,0.0100*%
%ADD15R,0.0300X0.0060*%
%ADD16R,0.0960X0.0060*%
%ADD17R,0.0600X0.0060*%
%ADD18R,0.0420X0.0060*%
%ADD19R,0.0360X0.0060*%
%ADD20R,0.0240X0.0060*%
%ADD21R,0.0060X0.0060*%
%ADD22R,0.0120X0.0060*%
%ADD23R,0.0180X0.0060*%
%ADD24R,0.1020X0.0060*%
%ADD25R,0.0660X0.0060*%
%ADD26R,0.0480X0.0060*%
%ADD27R,0.0840X0.0060*%
%ADD28R,0.0720X0.0060*%
%ADD29R,0.0540X0.0060*%
%ADD30R,0.0780X0.0060*%
%ADD31R,0.0900X0.0060*%
%ADD32R,0.1140X0.0060*%
%ADD33R,0.1200X0.0060*%
%ADD34R,0.1080X0.0060*%
%ADD35R,0.1260X0.0060*%
%ADD36R,0.1320X0.0060*%
%ADD37R,0.1440X0.0060*%
%ADD38R,0.2580X0.0060*%
%ADD39R,0.2400X0.0060*%
%ADD40R,0.2220X0.0060*%
%ADD41R,0.2040X0.0060*%
%ADD42R,0.1860X0.0060*%
%ADD43R,0.1380X0.0060*%
%ADD44R,0.1500X0.0060*%
%ADD45R,0.1620X0.0060*%
%ADD46R,0.2880X0.0060*%
%ADD47R,0.2940X0.0060*%
%ADD48R,0.2640X0.0060*%
%ADD49R,0.2160X0.0060*%
%ADD50R,0.1740X0.0060*%
%ADD51R,0.1980X0.0060*%
%ADD52R,0.3840X0.0060*%
%ADD53R,0.3360X0.0060*%
%ADD54R,0.2520X0.0060*%
D10*
X001209Y000151D02*
X001209Y027710D01*
X028769Y027710D01*
X028769Y000151D01*
X001209Y000151D01*
X014709Y001923D02*
X014711Y001957D01*
X014717Y001990D01*
X014727Y002022D01*
X014741Y002053D01*
X014759Y002082D01*
X014779Y002109D01*
X014803Y002133D01*
X014830Y002153D01*
X014859Y002171D01*
X014890Y002185D01*
X014922Y002195D01*
X014955Y002201D01*
X014989Y002203D01*
X015023Y002201D01*
X015056Y002195D01*
X015088Y002185D01*
X015119Y002171D01*
X015148Y002153D01*
X015175Y002133D01*
X015199Y002109D01*
X015219Y002082D01*
X015237Y002053D01*
X015251Y002022D01*
X015261Y001990D01*
X015267Y001957D01*
X015269Y001923D01*
X015267Y001889D01*
X015261Y001856D01*
X015251Y001824D01*
X015237Y001793D01*
X015219Y001764D01*
X015199Y001737D01*
X015175Y001713D01*
X015148Y001693D01*
X015119Y001675D01*
X015088Y001661D01*
X015056Y001651D01*
X015023Y001645D01*
X014989Y001643D01*
X014955Y001645D01*
X014922Y001651D01*
X014890Y001661D01*
X014859Y001675D01*
X014830Y001693D01*
X014803Y001713D01*
X014779Y001737D01*
X014759Y001764D01*
X014741Y001793D01*
X014727Y001824D01*
X014717Y001856D01*
X014711Y001889D01*
X014709Y001923D01*
X023808Y011681D02*
X023811Y011738D01*
X023818Y011795D01*
X023831Y011851D01*
X023849Y011905D01*
X023872Y011958D01*
X023900Y012008D01*
X023932Y012056D01*
X023968Y012100D01*
X024008Y012141D01*
X024052Y012179D01*
X024098Y012212D01*
X024148Y012240D01*
X024200Y012264D01*
X024254Y012284D01*
X024310Y012298D01*
X024366Y012307D01*
X024424Y012311D01*
X024481Y012310D01*
X024538Y012303D01*
X024594Y012291D01*
X024649Y012275D01*
X024702Y012253D01*
X024753Y012227D01*
X024801Y012196D01*
X024847Y012161D01*
X024889Y012121D01*
X024927Y012079D01*
X024961Y012032D01*
X024991Y011983D01*
X025016Y011932D01*
X025036Y011878D01*
X025052Y011823D01*
X025062Y011767D01*
X025067Y011710D01*
X025067Y011652D01*
X025062Y011595D01*
X025052Y011539D01*
X025036Y011484D01*
X025016Y011430D01*
X024991Y011379D01*
X024961Y011330D01*
X024927Y011283D01*
X024889Y011241D01*
X024847Y011201D01*
X024801Y011166D01*
X024753Y011135D01*
X024702Y011109D01*
X024649Y011087D01*
X024594Y011071D01*
X024538Y011059D01*
X024481Y011052D01*
X024424Y011051D01*
X024366Y011055D01*
X024310Y011064D01*
X024254Y011078D01*
X024200Y011098D01*
X024148Y011122D01*
X024098Y011150D01*
X024052Y011183D01*
X024008Y011221D01*
X023968Y011262D01*
X023932Y011306D01*
X023900Y011354D01*
X023872Y011404D01*
X023849Y011457D01*
X023831Y011511D01*
X023818Y011567D01*
X023811Y011624D01*
X023808Y011681D01*
X023808Y016181D02*
X023811Y016238D01*
X023818Y016295D01*
X023831Y016351D01*
X023849Y016405D01*
X023872Y016458D01*
X023900Y016508D01*
X023932Y016556D01*
X023968Y016600D01*
X024008Y016641D01*
X024052Y016679D01*
X024098Y016712D01*
X024148Y016740D01*
X024200Y016764D01*
X024254Y016784D01*
X024310Y016798D01*
X024366Y016807D01*
X024424Y016811D01*
X024481Y016810D01*
X024538Y016803D01*
X024594Y016791D01*
X024649Y016775D01*
X024702Y016753D01*
X024753Y016727D01*
X024801Y016696D01*
X024847Y016661D01*
X024889Y016621D01*
X024927Y016579D01*
X024961Y016532D01*
X024991Y016483D01*
X025016Y016432D01*
X025036Y016378D01*
X025052Y016323D01*
X025062Y016267D01*
X025067Y016210D01*
X025067Y016152D01*
X025062Y016095D01*
X025052Y016039D01*
X025036Y015984D01*
X025016Y015930D01*
X024991Y015879D01*
X024961Y015830D01*
X024927Y015783D01*
X024889Y015741D01*
X024847Y015701D01*
X024801Y015666D01*
X024753Y015635D01*
X024702Y015609D01*
X024649Y015587D01*
X024594Y015571D01*
X024538Y015559D01*
X024481Y015552D01*
X024424Y015551D01*
X024366Y015555D01*
X024310Y015564D01*
X024254Y015578D01*
X024200Y015598D01*
X024148Y015622D01*
X024098Y015650D01*
X024052Y015683D01*
X024008Y015721D01*
X023968Y015762D01*
X023932Y015806D01*
X023900Y015854D01*
X023872Y015904D01*
X023849Y015957D01*
X023831Y016011D01*
X023818Y016067D01*
X023811Y016124D01*
X023808Y016181D01*
X014709Y025939D02*
X014711Y025973D01*
X014717Y026006D01*
X014727Y026038D01*
X014741Y026069D01*
X014759Y026098D01*
X014779Y026125D01*
X014803Y026149D01*
X014830Y026169D01*
X014859Y026187D01*
X014890Y026201D01*
X014922Y026211D01*
X014955Y026217D01*
X014989Y026219D01*
X015023Y026217D01*
X015056Y026211D01*
X015088Y026201D01*
X015119Y026187D01*
X015148Y026169D01*
X015175Y026149D01*
X015199Y026125D01*
X015219Y026098D01*
X015237Y026069D01*
X015251Y026038D01*
X015261Y026006D01*
X015267Y025973D01*
X015269Y025939D01*
X015267Y025905D01*
X015261Y025872D01*
X015251Y025840D01*
X015237Y025809D01*
X015219Y025780D01*
X015199Y025753D01*
X015175Y025729D01*
X015148Y025709D01*
X015119Y025691D01*
X015088Y025677D01*
X015056Y025667D01*
X015023Y025661D01*
X014989Y025659D01*
X014955Y025661D01*
X014922Y025667D01*
X014890Y025677D01*
X014859Y025691D01*
X014830Y025709D01*
X014803Y025729D01*
X014779Y025753D01*
X014759Y025780D01*
X014741Y025809D01*
X014727Y025840D01*
X014717Y025872D01*
X014711Y025905D01*
X014709Y025939D01*
D11*
X014231Y026972D02*
X014093Y026972D01*
X013956Y027110D01*
X013956Y027454D01*
X014261Y027513D02*
X014261Y024600D01*
X001938Y024600D01*
X001938Y027513D01*
X014261Y027513D01*
X013267Y027454D02*
X013267Y027110D01*
X013129Y026972D01*
X012715Y026972D01*
X012578Y027110D01*
X012578Y027454D01*
X011889Y027454D02*
X011889Y027110D01*
X011751Y026972D01*
X011337Y026972D01*
X011200Y027110D01*
X011200Y027454D01*
X010511Y027454D02*
X010511Y027110D01*
X010373Y026972D01*
X009959Y026972D01*
X009822Y027110D01*
X009822Y027454D01*
X009133Y027454D02*
X009133Y027110D01*
X008995Y026972D01*
X008581Y026972D01*
X008444Y027110D01*
X008444Y027454D01*
X007755Y027454D02*
X007755Y027110D01*
X007617Y026972D01*
X007204Y026972D01*
X007066Y027110D01*
X007066Y027454D01*
X006377Y027454D02*
X006377Y027110D01*
X006239Y026972D01*
X005826Y026972D01*
X005688Y027110D01*
X005688Y027454D01*
X004999Y027454D02*
X004999Y027110D01*
X004861Y026972D01*
X004448Y026972D01*
X004310Y027110D01*
X004310Y027454D01*
X003621Y027454D02*
X003621Y027110D01*
X003483Y026972D01*
X003070Y026972D01*
X002932Y027110D01*
X002932Y027454D01*
X002243Y027454D02*
X002243Y027110D01*
X002105Y026972D01*
X001967Y026972D01*
X007351Y023479D02*
X007351Y023243D01*
X007469Y023125D01*
X007587Y023125D01*
X007705Y023243D01*
X007705Y023479D01*
X007823Y023597D01*
X007941Y023597D01*
X008059Y023479D01*
X008059Y023243D01*
X007941Y023125D01*
X008059Y022872D02*
X007351Y022872D01*
X007351Y022400D02*
X008059Y022872D01*
X008059Y022400D02*
X007351Y022400D01*
X007351Y022153D02*
X007351Y021917D01*
X007351Y022035D02*
X008059Y022035D01*
X008059Y021917D02*
X008059Y022153D01*
X008532Y022271D02*
X008532Y021917D01*
X009240Y021917D01*
X009240Y022271D01*
X009122Y022389D01*
X009004Y022389D01*
X008886Y022271D01*
X008886Y021917D01*
X008886Y022271D02*
X008768Y022389D01*
X008650Y022389D01*
X008532Y022271D01*
X008768Y022642D02*
X008532Y022878D01*
X008768Y023114D01*
X009240Y023114D01*
X008886Y023114D02*
X008886Y022642D01*
X008768Y022642D02*
X009240Y022642D01*
X009713Y022642D02*
X009713Y023114D01*
X009713Y022878D02*
X010421Y022878D01*
X010421Y022389D02*
X009949Y022389D01*
X009713Y022153D01*
X009949Y021917D01*
X010421Y021917D01*
X010067Y021917D02*
X010067Y022389D01*
X009713Y021664D02*
X009713Y021192D01*
X009713Y021428D02*
X010421Y021428D01*
X010303Y020939D02*
X010185Y020939D01*
X010067Y020821D01*
X010067Y020585D01*
X009949Y020467D01*
X009831Y020467D01*
X009713Y020585D01*
X009713Y020821D01*
X009831Y020939D01*
X010303Y020939D02*
X010421Y020821D01*
X010421Y020585D01*
X010303Y020467D01*
X009240Y020585D02*
X009240Y020821D01*
X009122Y020939D01*
X008650Y020939D01*
X008532Y020821D01*
X008532Y020585D01*
X008650Y020467D01*
X009122Y020467D01*
X009240Y020585D01*
X009240Y021192D02*
X008532Y021192D01*
X009240Y021664D01*
X008532Y021664D01*
X008059Y021664D02*
X007587Y021664D01*
X007351Y021428D01*
X007587Y021192D01*
X008059Y021192D01*
X008059Y020939D02*
X007351Y020939D01*
X007587Y020703D01*
X007351Y020467D01*
X008059Y020467D01*
X007705Y021192D02*
X007705Y021664D01*
X008532Y023367D02*
X008532Y023839D01*
X008532Y023603D02*
X009240Y023603D01*
X007469Y023597D02*
X007351Y023479D01*
X004320Y020092D02*
X001406Y020092D01*
X001406Y007769D01*
X004320Y007769D01*
X004320Y020092D01*
X001948Y020063D02*
X001948Y019925D01*
X001810Y019787D01*
X001465Y019787D01*
X001465Y019098D02*
X001810Y019098D01*
X001948Y018960D01*
X001948Y018547D01*
X001810Y018409D01*
X001465Y018409D01*
X001465Y017720D02*
X001810Y017720D01*
X001948Y017582D01*
X001948Y017169D01*
X001810Y017031D01*
X001465Y017031D01*
X001465Y016342D02*
X001810Y016342D01*
X001948Y016204D01*
X001948Y015791D01*
X001810Y015653D01*
X001465Y015653D01*
X001465Y014964D02*
X001810Y014964D01*
X001948Y014826D01*
X001948Y014413D01*
X001810Y014275D01*
X001465Y014275D01*
X001465Y013586D02*
X001810Y013586D01*
X001948Y013448D01*
X001948Y013035D01*
X001810Y012897D01*
X001465Y012897D01*
X001465Y012208D02*
X001810Y012208D01*
X001948Y012070D01*
X001948Y011657D01*
X001810Y011519D01*
X001465Y011519D01*
X001465Y010830D02*
X001810Y010830D01*
X001948Y010693D01*
X001948Y010279D01*
X001810Y010141D01*
X001465Y010141D01*
X001465Y009452D02*
X001810Y009452D01*
X001948Y009315D01*
X001948Y008901D01*
X001810Y008763D01*
X001465Y008763D01*
X001465Y008074D02*
X001810Y008074D01*
X001948Y007937D01*
X001948Y007799D01*
X005580Y004246D02*
X006052Y003538D01*
X006305Y003656D02*
X006423Y003538D01*
X006659Y003538D01*
X006777Y003656D01*
X006777Y003774D01*
X006659Y003892D01*
X006305Y003892D01*
X006305Y003656D01*
X006305Y003892D02*
X006541Y004128D01*
X006777Y004246D01*
X006052Y004246D02*
X005580Y003538D01*
X005826Y000889D02*
X006239Y000889D01*
X006377Y000752D01*
X006377Y000407D01*
X007066Y000407D02*
X007066Y000752D01*
X007204Y000889D01*
X007617Y000889D01*
X007755Y000752D01*
X007755Y000407D01*
X008444Y000407D02*
X008444Y000752D01*
X008581Y000889D01*
X008995Y000889D01*
X009133Y000752D01*
X009133Y000407D01*
X009822Y000407D02*
X009822Y000752D01*
X009959Y000889D01*
X010373Y000889D01*
X010511Y000752D01*
X010511Y000407D01*
X011200Y000407D02*
X011200Y000752D01*
X011337Y000889D01*
X011751Y000889D01*
X011889Y000752D01*
X011889Y000407D01*
X012578Y000407D02*
X012578Y000752D01*
X012715Y000889D01*
X013129Y000889D01*
X013267Y000752D01*
X013267Y000407D01*
X013956Y000407D02*
X013956Y000752D01*
X014093Y000889D01*
X014231Y000889D01*
X014261Y000348D02*
X001938Y000348D01*
X001938Y003261D01*
X014261Y003261D01*
X014261Y000348D01*
X015717Y000348D02*
X015717Y003261D01*
X028040Y003261D01*
X028040Y000348D01*
X015717Y000348D01*
X016022Y000407D02*
X016022Y000752D01*
X015885Y000889D01*
X015747Y000889D01*
X016711Y000752D02*
X016711Y000407D01*
X016711Y000752D02*
X016849Y000889D01*
X017263Y000889D01*
X017400Y000752D01*
X017400Y000407D01*
X018089Y000407D02*
X018089Y000752D01*
X018227Y000889D01*
X018641Y000889D01*
X018778Y000752D01*
X018778Y000407D01*
X019467Y000407D02*
X019467Y000752D01*
X019605Y000889D01*
X020019Y000889D01*
X020156Y000752D01*
X020156Y000407D01*
X020845Y000407D02*
X020845Y000752D01*
X020983Y000889D01*
X021396Y000889D01*
X021534Y000752D01*
X021534Y000407D01*
X022223Y000407D02*
X022223Y000752D01*
X022361Y000889D01*
X022774Y000889D01*
X022912Y000752D01*
X022912Y000407D01*
X023601Y000407D02*
X023601Y000752D01*
X023739Y000889D01*
X024152Y000889D01*
X024290Y000752D01*
X024290Y000407D01*
X024979Y000407D02*
X024979Y000752D01*
X025117Y000889D01*
X025530Y000889D01*
X025668Y000752D01*
X025668Y000407D01*
X026357Y000407D02*
X026357Y000752D01*
X026495Y000889D01*
X026908Y000889D01*
X027046Y000752D01*
X027046Y000407D01*
X027735Y000407D02*
X027735Y000752D01*
X027873Y000889D01*
X028011Y000889D01*
X024494Y003538D02*
X024022Y003538D01*
X024494Y004010D01*
X024494Y004128D01*
X024376Y004246D01*
X024140Y004246D01*
X024022Y004128D01*
X023769Y004246D02*
X023297Y003538D01*
X023769Y003538D02*
X023297Y004246D01*
X019870Y013971D02*
X019162Y014443D01*
X019280Y014696D02*
X019162Y014814D01*
X019162Y015050D01*
X019280Y015168D01*
X019398Y015168D01*
X019516Y015050D01*
X019634Y015168D01*
X019752Y015168D01*
X019870Y015050D01*
X019870Y014814D01*
X019752Y014696D01*
X019870Y014443D02*
X019162Y013971D01*
X019516Y014932D02*
X019516Y015050D01*
X018096Y018105D02*
X017860Y018105D01*
X017742Y018223D01*
X017489Y018223D02*
X017371Y018105D01*
X017135Y018105D01*
X017017Y018223D01*
X017489Y018695D01*
X017489Y018223D01*
X017742Y018577D02*
X017860Y018459D01*
X018214Y018459D01*
X018214Y018223D02*
X018214Y018695D01*
X018096Y018813D01*
X017860Y018813D01*
X017742Y018695D01*
X017742Y018577D01*
X017489Y018695D02*
X017371Y018813D01*
X017135Y018813D01*
X017017Y018695D01*
X017017Y018223D01*
X016764Y018223D02*
X016646Y018105D01*
X016410Y018105D01*
X016292Y018223D01*
X016764Y018695D01*
X016764Y018223D01*
X016292Y018223D02*
X016292Y018695D01*
X016410Y018813D01*
X016646Y018813D01*
X016764Y018695D01*
X016764Y019286D02*
X016292Y019286D01*
X016528Y019286D02*
X016528Y019994D01*
X016292Y019758D01*
X016039Y019758D02*
X016039Y019286D01*
X016039Y019640D02*
X015567Y019640D01*
X015567Y019758D02*
X015803Y019994D01*
X016039Y019758D01*
X015567Y019758D02*
X015567Y019286D01*
X015685Y018813D02*
X015567Y018695D01*
X015685Y018813D02*
X015921Y018813D01*
X016039Y018695D01*
X016039Y018577D01*
X015567Y018105D01*
X016039Y018105D01*
X015314Y018813D02*
X014842Y018105D01*
X014589Y018105D02*
X014235Y018105D01*
X014117Y018223D01*
X014117Y018577D01*
X013864Y018459D02*
X013864Y018105D01*
X013510Y018105D01*
X013392Y018223D01*
X013510Y018341D01*
X013864Y018341D01*
X013864Y018459D02*
X013746Y018577D01*
X013510Y018577D01*
X013139Y018813D02*
X013139Y018105D01*
X012667Y018105D02*
X012667Y018813D01*
X012903Y018577D01*
X013139Y018813D01*
X013139Y019286D02*
X012903Y019522D01*
X013021Y019522D02*
X012667Y019522D01*
X012667Y019286D02*
X012667Y019994D01*
X013021Y019994D01*
X013139Y019876D01*
X013139Y019640D01*
X013021Y019522D01*
X013392Y019522D02*
X013864Y019522D01*
X013864Y019640D01*
X013746Y019758D01*
X013510Y019758D01*
X013392Y019640D01*
X013392Y019404D01*
X013510Y019286D01*
X013746Y019286D01*
X014117Y019758D02*
X014353Y019286D01*
X014589Y019758D01*
X014600Y020467D02*
X014600Y020939D01*
X014600Y020703D02*
X014836Y020939D01*
X014954Y020939D01*
X015204Y020939D02*
X015322Y020939D01*
X015440Y020821D01*
X015558Y020939D01*
X015676Y020821D01*
X015676Y020467D01*
X015440Y020467D02*
X015440Y020821D01*
X015204Y020939D02*
X015204Y020467D01*
X014347Y020467D02*
X013993Y020467D01*
X013875Y020585D01*
X013993Y020703D01*
X014347Y020703D01*
X014347Y020821D02*
X014347Y020467D01*
X014347Y020821D02*
X014229Y020939D01*
X013993Y020939D01*
X013510Y021175D02*
X013510Y020467D01*
X013392Y020467D02*
X013628Y020467D01*
X013139Y020467D02*
X013139Y020939D01*
X012903Y021175D01*
X012667Y020939D01*
X012667Y020467D01*
X012667Y020821D02*
X013139Y020821D01*
X013392Y021175D02*
X013510Y021175D01*
X013532Y023616D02*
X013060Y024324D01*
X013532Y024324D02*
X013060Y023616D01*
X013785Y023970D02*
X014257Y023970D01*
X014139Y023616D02*
X014139Y024324D01*
X013785Y023970D01*
X015717Y024600D02*
X015717Y027513D01*
X028040Y027513D01*
X028040Y024600D01*
X015717Y024600D01*
X015747Y026972D02*
X015885Y026972D01*
X016022Y027110D01*
X016022Y027454D01*
X016711Y027454D02*
X016711Y027110D01*
X016849Y026972D01*
X017263Y026972D01*
X017400Y027110D01*
X017400Y027454D01*
X018089Y027454D02*
X018089Y027110D01*
X018227Y026972D01*
X018641Y026972D01*
X018778Y027110D01*
X018778Y027454D01*
X019467Y027454D02*
X019467Y027110D01*
X019605Y026972D01*
X020019Y026972D01*
X020156Y027110D01*
X020156Y027454D01*
X020845Y027454D02*
X020845Y027110D01*
X020983Y026972D01*
X021396Y026972D01*
X021534Y027110D01*
X021534Y027454D01*
X022223Y027454D02*
X022223Y027110D01*
X022361Y026972D01*
X022774Y026972D01*
X022912Y027110D01*
X022912Y027454D01*
X023601Y027454D02*
X023601Y027110D01*
X023739Y026972D01*
X024152Y026972D01*
X024290Y027110D01*
X024290Y027454D01*
X024979Y027454D02*
X024979Y027110D01*
X025117Y026972D01*
X025530Y026972D01*
X025668Y027110D01*
X025668Y027454D01*
X026357Y027454D02*
X026357Y027110D01*
X026495Y026972D01*
X026908Y026972D01*
X027046Y027110D01*
X027046Y027454D01*
X027735Y027454D02*
X027735Y027110D01*
X027873Y026972D01*
X028011Y026972D01*
X022525Y023616D02*
X022053Y023616D01*
X022289Y023616D02*
X022289Y024324D01*
X022053Y024088D01*
X021800Y024324D02*
X021328Y023616D01*
X021800Y023616D02*
X021328Y024324D01*
X019189Y021293D02*
X019189Y021175D01*
X019189Y020939D02*
X019189Y020467D01*
X019071Y020467D02*
X019307Y020467D01*
X019554Y020585D02*
X019554Y020821D01*
X019672Y020939D01*
X019908Y020939D01*
X020026Y020821D01*
X020026Y020585D01*
X019908Y020467D01*
X019672Y020467D01*
X019554Y020585D01*
X019189Y020939D02*
X019071Y020939D01*
X018824Y020939D02*
X018588Y020939D01*
X018706Y021057D02*
X018706Y020585D01*
X018824Y020467D01*
X018335Y020467D02*
X018335Y020821D01*
X018217Y020939D01*
X017981Y020939D01*
X017981Y020703D02*
X018335Y020703D01*
X018335Y020467D02*
X017981Y020467D01*
X017863Y020585D01*
X017981Y020703D01*
X017615Y020939D02*
X017379Y020939D01*
X017497Y021057D02*
X017497Y020585D01*
X017615Y020467D01*
X017126Y020585D02*
X017126Y020703D01*
X017008Y020821D01*
X016772Y020821D01*
X016654Y020939D01*
X016654Y021057D01*
X016772Y021175D01*
X017008Y021175D01*
X017126Y021057D01*
X017126Y020585D02*
X017008Y020467D01*
X016772Y020467D01*
X016654Y020585D01*
X014589Y018577D02*
X014589Y017987D01*
X014471Y017869D01*
X014353Y017869D01*
X018096Y018105D02*
X018214Y018223D01*
X020279Y020467D02*
X020279Y020939D01*
X020633Y020939D01*
X020751Y020821D01*
X020751Y020467D01*
X010421Y018127D02*
X010421Y017891D01*
X010303Y017773D01*
X010303Y017520D02*
X009831Y017520D01*
X009713Y017402D01*
X009713Y017048D01*
X010421Y017048D01*
X010421Y017402D01*
X010303Y017520D01*
X009831Y017773D02*
X009713Y017891D01*
X009713Y018127D01*
X009831Y018245D01*
X009949Y018245D01*
X010067Y018127D01*
X010185Y018245D01*
X010303Y018245D01*
X010421Y018127D01*
X010067Y018127D02*
X010067Y018009D01*
X009240Y017773D02*
X008768Y018245D01*
X008650Y018245D01*
X008532Y018127D01*
X008532Y017891D01*
X008650Y017773D01*
X008650Y017520D02*
X008532Y017402D01*
X008532Y017048D01*
X009240Y017048D01*
X009240Y017402D01*
X009122Y017520D01*
X008650Y017520D01*
X008059Y017402D02*
X008059Y017048D01*
X007351Y017048D01*
X007351Y017402D01*
X007469Y017520D01*
X007941Y017520D01*
X008059Y017402D01*
X008059Y017773D02*
X008059Y018245D01*
X008059Y018009D02*
X007351Y018009D01*
X007587Y017773D01*
X007351Y016795D02*
X007351Y016323D01*
X008059Y016323D01*
X008059Y016795D01*
X007705Y016559D02*
X007705Y016323D01*
X008059Y016070D02*
X008059Y015598D01*
X007351Y015598D01*
X008532Y015598D02*
X009240Y015598D01*
X009240Y016070D01*
X009240Y016323D02*
X009240Y016795D01*
X008886Y016559D02*
X008886Y016323D01*
X008532Y016323D02*
X009240Y016323D01*
X009713Y016323D02*
X009713Y016795D01*
X010067Y016559D02*
X010067Y016323D01*
X009713Y016323D02*
X010421Y016323D01*
X010421Y016795D01*
X010421Y016070D02*
X010421Y015598D01*
X009713Y015598D01*
X008532Y016323D02*
X008532Y016795D01*
X009240Y017773D02*
X009240Y018245D01*
X005402Y015050D02*
X005402Y014814D01*
X005284Y014696D01*
X005048Y014696D02*
X004930Y014932D01*
X004930Y015050D01*
X005048Y015168D01*
X005284Y015168D01*
X005402Y015050D01*
X005048Y014696D02*
X004694Y014696D01*
X004694Y015168D01*
X004694Y014443D02*
X005402Y013971D01*
X005402Y014443D02*
X004694Y013971D01*
X007942Y010624D02*
X007942Y010506D01*
X008060Y010388D01*
X008296Y010388D01*
X008414Y010270D01*
X008414Y010152D01*
X008296Y010034D01*
X008060Y010034D01*
X007942Y010152D01*
X007942Y010624D02*
X008060Y010742D01*
X008296Y010742D01*
X008414Y010624D01*
X008667Y010742D02*
X008667Y010034D01*
X008903Y010270D01*
X009139Y010034D01*
X009139Y010742D01*
X009392Y010506D02*
X009628Y010742D01*
X009628Y010034D01*
X009392Y010034D02*
X009864Y010034D01*
X005826Y000889D02*
X005688Y000752D01*
X005688Y000407D01*
X004999Y000407D02*
X004999Y000752D01*
X004861Y000889D01*
X004448Y000889D01*
X004310Y000752D01*
X004310Y000407D01*
X003621Y000407D02*
X003621Y000752D01*
X003483Y000889D01*
X003070Y000889D01*
X002932Y000752D01*
X002932Y000407D01*
X002243Y000407D02*
X002243Y000752D01*
X002105Y000889D01*
X001967Y000889D01*
D12*
X008137Y007416D02*
X008387Y007416D01*
X009387Y007416D01*
X009637Y007416D01*
X009387Y007416D02*
X009387Y007516D01*
X008387Y007516D01*
X008387Y007416D01*
X007687Y008116D02*
X007687Y008316D01*
X007587Y008316D01*
X007587Y008916D01*
X007687Y008916D01*
X007687Y009116D01*
X008137Y009816D02*
X008437Y009816D01*
X009387Y009816D01*
X009637Y009816D01*
X009387Y009816D02*
X009387Y009716D01*
X008437Y009716D01*
X008437Y009816D01*
X008787Y008616D02*
X008789Y008636D01*
X008795Y008655D01*
X008805Y008673D01*
X008818Y008688D01*
X008834Y008701D01*
X008852Y008710D01*
X008872Y008715D01*
X008892Y008716D01*
X008912Y008713D01*
X008931Y008706D01*
X008948Y008695D01*
X008963Y008681D01*
X008974Y008665D01*
X008982Y008646D01*
X008986Y008626D01*
X008986Y008606D01*
X008982Y008586D01*
X008974Y008567D01*
X008963Y008551D01*
X008948Y008537D01*
X008931Y008526D01*
X008912Y008519D01*
X008892Y008516D01*
X008872Y008517D01*
X008852Y008522D01*
X008834Y008531D01*
X008818Y008544D01*
X008805Y008559D01*
X008795Y008577D01*
X008789Y008596D01*
X008787Y008616D01*
X008187Y008616D02*
X008190Y008680D01*
X008199Y008743D01*
X008213Y008805D01*
X008233Y008865D01*
X008258Y008924D01*
X008289Y008980D01*
X008324Y009033D01*
X008365Y009082D01*
X008409Y009128D01*
X008458Y009169D01*
X008510Y009206D01*
X008565Y009238D01*
X008623Y009264D01*
X008683Y009286D01*
X008745Y009301D01*
X008807Y009311D01*
X008871Y009316D01*
X008935Y009314D01*
X008998Y009307D01*
X009060Y009294D01*
X009121Y009276D01*
X009180Y009252D01*
X009237Y009222D01*
X009291Y009188D01*
X009341Y009149D01*
X009388Y009105D01*
X009430Y009058D01*
X009468Y009007D01*
X009501Y008952D01*
X009529Y008895D01*
X009552Y008835D01*
X009569Y008774D01*
X009580Y008711D01*
X009586Y008648D01*
X009586Y008584D01*
X009580Y008521D01*
X009569Y008458D01*
X009552Y008397D01*
X009529Y008337D01*
X009501Y008280D01*
X009468Y008225D01*
X009430Y008174D01*
X009388Y008127D01*
X009341Y008083D01*
X009291Y008044D01*
X009237Y008010D01*
X009180Y007980D01*
X009121Y007956D01*
X009060Y007938D01*
X008998Y007925D01*
X008935Y007918D01*
X008871Y007916D01*
X008807Y007921D01*
X008745Y007931D01*
X008683Y007946D01*
X008623Y007968D01*
X008565Y007994D01*
X008510Y008026D01*
X008458Y008063D01*
X008409Y008104D01*
X008365Y008150D01*
X008324Y008199D01*
X008289Y008252D01*
X008258Y008308D01*
X008233Y008367D01*
X008213Y008427D01*
X008199Y008489D01*
X008190Y008552D01*
X008187Y008616D01*
X010087Y008916D02*
X010087Y009116D01*
X010087Y008916D02*
X010187Y008916D01*
X010187Y008316D01*
X010087Y008316D01*
X010087Y008116D01*
X010422Y018694D02*
X009713Y018694D01*
X009713Y020191D01*
X010422Y020191D01*
X010422Y018694D01*
X010225Y019364D02*
X010068Y019364D01*
X010068Y019324D01*
X010068Y019364D02*
X009910Y019364D01*
X010068Y019521D01*
X010068Y019561D01*
X010068Y019521D02*
X010225Y019364D01*
X010225Y019521D02*
X010068Y019521D01*
X009910Y019521D01*
X009044Y019521D02*
X008887Y019521D01*
X008887Y019561D01*
X008887Y019521D02*
X009044Y019364D01*
X008887Y019364D01*
X008887Y019324D01*
X008887Y019364D02*
X008729Y019364D01*
X008887Y019521D01*
X008729Y019521D01*
X008532Y020191D02*
X009241Y020191D01*
X009241Y018694D01*
X008532Y018694D01*
X008532Y020191D01*
X008060Y020191D02*
X008060Y018694D01*
X007351Y018694D01*
X007351Y020191D01*
X008060Y020191D01*
X007863Y019521D02*
X007706Y019521D01*
X007706Y019561D01*
X007706Y019521D02*
X007863Y019364D01*
X007706Y019364D01*
X007706Y019324D01*
X007706Y019364D02*
X007548Y019364D01*
X007706Y019521D01*
X007548Y019521D01*
D13*
X002025Y022395D02*
X002031Y022518D01*
X002047Y022640D01*
X002075Y022759D01*
X002114Y022876D01*
X002163Y022989D01*
X002222Y023096D01*
X002290Y023198D01*
X002368Y023294D01*
X002454Y023382D01*
X002547Y023461D01*
X002647Y023532D01*
X002754Y023594D01*
X002865Y023645D01*
X002981Y023686D01*
X003100Y023717D01*
X003222Y023736D01*
X003344Y023745D01*
X003467Y023742D01*
X003589Y023728D01*
X003710Y023703D01*
X003827Y023667D01*
X003941Y023621D01*
X004050Y023564D01*
X004154Y023498D01*
X004251Y023423D01*
X004340Y023339D01*
X004422Y023247D01*
X004495Y023148D01*
X004559Y023043D01*
X004613Y022933D01*
X004657Y022818D01*
X004690Y022700D01*
X004712Y022579D01*
X004724Y022456D01*
X004724Y022334D01*
X004712Y022211D01*
X004690Y022090D01*
X004657Y021972D01*
X004613Y021857D01*
X004559Y021747D01*
X004495Y021642D01*
X004422Y021543D01*
X004340Y021451D01*
X004251Y021367D01*
X004154Y021292D01*
X004050Y021226D01*
X003941Y021169D01*
X003827Y021123D01*
X003710Y021087D01*
X003589Y021062D01*
X003467Y021048D01*
X003344Y021045D01*
X003222Y021054D01*
X003100Y021073D01*
X002981Y021104D01*
X002865Y021145D01*
X002754Y021196D01*
X002647Y021258D01*
X002547Y021329D01*
X002454Y021408D01*
X002368Y021496D01*
X002290Y021592D01*
X002222Y021694D01*
X002163Y021801D01*
X002114Y021914D01*
X002075Y022031D01*
X002047Y022150D01*
X002031Y022272D01*
X002025Y022395D01*
X002025Y005466D02*
X002031Y005589D01*
X002047Y005711D01*
X002075Y005830D01*
X002114Y005947D01*
X002163Y006060D01*
X002222Y006167D01*
X002290Y006269D01*
X002368Y006365D01*
X002454Y006453D01*
X002547Y006532D01*
X002647Y006603D01*
X002754Y006665D01*
X002865Y006716D01*
X002981Y006757D01*
X003100Y006788D01*
X003222Y006807D01*
X003344Y006816D01*
X003467Y006813D01*
X003589Y006799D01*
X003710Y006774D01*
X003827Y006738D01*
X003941Y006692D01*
X004050Y006635D01*
X004154Y006569D01*
X004251Y006494D01*
X004340Y006410D01*
X004422Y006318D01*
X004495Y006219D01*
X004559Y006114D01*
X004613Y006004D01*
X004657Y005889D01*
X004690Y005771D01*
X004712Y005650D01*
X004724Y005527D01*
X004724Y005405D01*
X004712Y005282D01*
X004690Y005161D01*
X004657Y005043D01*
X004613Y004928D01*
X004559Y004818D01*
X004495Y004713D01*
X004422Y004614D01*
X004340Y004522D01*
X004251Y004438D01*
X004154Y004363D01*
X004050Y004297D01*
X003941Y004240D01*
X003827Y004194D01*
X003710Y004158D01*
X003589Y004133D01*
X003467Y004119D01*
X003344Y004116D01*
X003222Y004125D01*
X003100Y004144D01*
X002981Y004175D01*
X002865Y004216D01*
X002754Y004267D01*
X002647Y004329D01*
X002547Y004400D01*
X002454Y004479D01*
X002368Y004567D01*
X002290Y004663D01*
X002222Y004765D01*
X002163Y004872D01*
X002114Y004985D01*
X002075Y005102D01*
X002047Y005221D01*
X002031Y005343D01*
X002025Y005466D01*
X025253Y005466D02*
X025259Y005589D01*
X025275Y005711D01*
X025303Y005830D01*
X025342Y005947D01*
X025391Y006060D01*
X025450Y006167D01*
X025518Y006269D01*
X025596Y006365D01*
X025682Y006453D01*
X025775Y006532D01*
X025875Y006603D01*
X025982Y006665D01*
X026093Y006716D01*
X026209Y006757D01*
X026328Y006788D01*
X026450Y006807D01*
X026572Y006816D01*
X026695Y006813D01*
X026817Y006799D01*
X026938Y006774D01*
X027055Y006738D01*
X027169Y006692D01*
X027278Y006635D01*
X027382Y006569D01*
X027479Y006494D01*
X027568Y006410D01*
X027650Y006318D01*
X027723Y006219D01*
X027787Y006114D01*
X027841Y006004D01*
X027885Y005889D01*
X027918Y005771D01*
X027940Y005650D01*
X027952Y005527D01*
X027952Y005405D01*
X027940Y005282D01*
X027918Y005161D01*
X027885Y005043D01*
X027841Y004928D01*
X027787Y004818D01*
X027723Y004713D01*
X027650Y004614D01*
X027568Y004522D01*
X027479Y004438D01*
X027382Y004363D01*
X027278Y004297D01*
X027169Y004240D01*
X027055Y004194D01*
X026938Y004158D01*
X026817Y004133D01*
X026695Y004119D01*
X026572Y004116D01*
X026450Y004125D01*
X026328Y004144D01*
X026209Y004175D01*
X026093Y004216D01*
X025982Y004267D01*
X025875Y004329D01*
X025775Y004400D01*
X025682Y004479D01*
X025596Y004567D01*
X025518Y004663D01*
X025450Y004765D01*
X025391Y004872D01*
X025342Y004985D01*
X025303Y005102D01*
X025275Y005221D01*
X025259Y005343D01*
X025253Y005466D01*
X025253Y022395D02*
X025259Y022518D01*
X025275Y022640D01*
X025303Y022759D01*
X025342Y022876D01*
X025391Y022989D01*
X025450Y023096D01*
X025518Y023198D01*
X025596Y023294D01*
X025682Y023382D01*
X025775Y023461D01*
X025875Y023532D01*
X025982Y023594D01*
X026093Y023645D01*
X026209Y023686D01*
X026328Y023717D01*
X026450Y023736D01*
X026572Y023745D01*
X026695Y023742D01*
X026817Y023728D01*
X026938Y023703D01*
X027055Y023667D01*
X027169Y023621D01*
X027278Y023564D01*
X027382Y023498D01*
X027479Y023423D01*
X027568Y023339D01*
X027650Y023247D01*
X027723Y023148D01*
X027787Y023043D01*
X027841Y022933D01*
X027885Y022818D01*
X027918Y022700D01*
X027940Y022579D01*
X027952Y022456D01*
X027952Y022334D01*
X027940Y022211D01*
X027918Y022090D01*
X027885Y021972D01*
X027841Y021857D01*
X027787Y021747D01*
X027723Y021642D01*
X027650Y021543D01*
X027568Y021451D01*
X027479Y021367D01*
X027382Y021292D01*
X027278Y021226D01*
X027169Y021169D01*
X027055Y021123D01*
X026938Y021087D01*
X026817Y021062D01*
X026695Y021048D01*
X026572Y021045D01*
X026450Y021054D01*
X026328Y021073D01*
X026209Y021104D01*
X026093Y021145D01*
X025982Y021196D01*
X025875Y021258D01*
X025775Y021329D01*
X025682Y021408D01*
X025596Y021496D01*
X025518Y021592D01*
X025450Y021694D01*
X025391Y021801D01*
X025342Y021914D01*
X025303Y022031D01*
X025275Y022150D01*
X025259Y022272D01*
X025253Y022395D01*
D14*
X028688Y017681D02*
X020188Y017681D01*
X020188Y010181D01*
X028688Y010181D01*
X028688Y017681D01*
D15*
X019267Y010705D03*
X017767Y011665D03*
X017167Y012385D03*
X016447Y012505D03*
X015667Y012805D03*
X015667Y012865D03*
X015247Y013225D03*
X014647Y012985D03*
X014647Y012925D03*
X014107Y013285D03*
X013627Y012865D03*
X012727Y012565D03*
X012667Y012625D03*
X012007Y012085D03*
X011707Y013405D03*
X010687Y012565D03*
X013027Y014005D03*
X016267Y013945D03*
X017527Y010045D03*
X017527Y009985D03*
X017527Y009925D03*
X017587Y009865D03*
X016867Y005965D03*
X016867Y005905D03*
X016387Y005605D03*
X016387Y005545D03*
X016267Y005905D03*
X016747Y004885D03*
X016267Y004405D03*
X016267Y004345D03*
X015907Y004405D03*
X015307Y004405D03*
X014347Y004405D03*
X013867Y004405D03*
X013447Y004405D03*
X012847Y004405D03*
X011767Y004345D03*
X011647Y005305D03*
X011587Y006565D03*
X009067Y004405D03*
X009067Y004345D03*
X011767Y009445D03*
X017647Y005245D03*
X018187Y005245D03*
X017647Y004345D03*
X020047Y004765D03*
X020047Y005185D03*
X020047Y005245D03*
X020767Y004465D03*
D16*
X016657Y008785D03*
X016477Y009505D03*
X017977Y009565D03*
X018637Y008965D03*
X018817Y011185D03*
X018397Y012145D03*
X017257Y011185D03*
X016717Y011725D03*
X016117Y011965D03*
X014737Y011725D03*
X013597Y011245D03*
X012637Y011605D03*
X011677Y012685D03*
X012697Y013405D03*
X012697Y013765D03*
X013957Y013825D03*
X015217Y014125D03*
X015337Y013765D03*
X009937Y004345D03*
D17*
X010777Y004345D03*
X012397Y005905D03*
X011797Y006745D03*
X013957Y005905D03*
X013897Y007885D03*
X014017Y007945D03*
X014137Y008005D03*
X014257Y008065D03*
X014377Y008125D03*
X014497Y008185D03*
X014617Y008245D03*
X014737Y008305D03*
X014857Y008365D03*
X015037Y008425D03*
X016357Y009025D03*
X016597Y009385D03*
X017557Y010285D03*
X017737Y009745D03*
X018697Y008725D03*
X017797Y007885D03*
X016597Y010345D03*
X017197Y011005D03*
X016897Y011425D03*
X016837Y011485D03*
X016777Y011545D03*
X017317Y012505D03*
X018397Y012385D03*
X018937Y011425D03*
X016417Y013825D03*
X014677Y012625D03*
X012637Y011485D03*
X012937Y010885D03*
X012877Y010825D03*
X012817Y010765D03*
X012577Y010525D03*
X012097Y009805D03*
X014257Y009805D03*
X014377Y009865D03*
X011917Y012565D03*
X010717Y012385D03*
X018817Y004345D03*
D18*
X018007Y007765D03*
X018727Y008665D03*
X017707Y009445D03*
X017647Y009805D03*
X017527Y010225D03*
X016267Y009085D03*
X017167Y012025D03*
X016387Y012385D03*
X016327Y012985D03*
X015607Y012685D03*
X015247Y013345D03*
X014647Y012805D03*
X014107Y013345D03*
X013687Y012745D03*
X012787Y012505D03*
X012667Y011425D03*
X011947Y009625D03*
X011887Y009565D03*
X012547Y009085D03*
X012487Y008905D03*
X012427Y008725D03*
X012367Y008545D03*
X012307Y008365D03*
X012247Y008185D03*
X012187Y008005D03*
X012067Y007705D03*
X012007Y007525D03*
X012007Y007465D03*
X011947Y007345D03*
X011947Y007285D03*
X011767Y005185D03*
X012427Y005065D03*
X012307Y004345D03*
X013987Y005065D03*
X013987Y005125D03*
X014887Y004345D03*
X010027Y005125D03*
X010027Y005185D03*
X009187Y005125D03*
X011647Y013345D03*
D19*
X012037Y012505D03*
X012997Y013045D03*
X013657Y012805D03*
X014677Y012865D03*
X015277Y013285D03*
X015637Y012745D03*
X016417Y012445D03*
X017437Y013345D03*
X018397Y012565D03*
X018397Y012505D03*
X018997Y011545D03*
X019297Y010465D03*
X019177Y009625D03*
X018757Y008605D03*
X018097Y007705D03*
X016717Y009265D03*
X017497Y010105D03*
X017497Y010165D03*
X011857Y009505D03*
X010717Y012505D03*
X011677Y006625D03*
X011797Y005905D03*
X011737Y005245D03*
X011797Y005125D03*
X011857Y005065D03*
X012277Y004405D03*
X012877Y004345D03*
X013417Y004345D03*
X013837Y004345D03*
X014857Y004405D03*
X015337Y004345D03*
X015877Y004345D03*
X017677Y004405D03*
X018157Y004405D03*
X020677Y004345D03*
X009157Y005065D03*
D20*
X011077Y005845D03*
X011137Y005785D03*
X011617Y005365D03*
X011917Y005005D03*
X012637Y005845D03*
X013177Y005845D03*
X013177Y005785D03*
X013177Y005725D03*
X013177Y005665D03*
X013177Y005605D03*
X014197Y005845D03*
X015637Y005845D03*
X015637Y005785D03*
X015637Y005725D03*
X015637Y005665D03*
X015637Y005605D03*
X016237Y005965D03*
X016297Y005845D03*
X016357Y005785D03*
X016357Y005725D03*
X016357Y005665D03*
X016477Y005485D03*
X016537Y005305D03*
X016597Y005185D03*
X016657Y005005D03*
X016777Y004825D03*
X016777Y004765D03*
X017557Y004465D03*
X018157Y004345D03*
X018637Y005125D03*
X019297Y004405D03*
X019297Y004345D03*
X019957Y004345D03*
X020437Y005245D03*
X020437Y005305D03*
X020737Y005305D03*
X020737Y005245D03*
X018337Y007585D03*
X018217Y007645D03*
X018757Y008545D03*
X019237Y009565D03*
X019357Y010525D03*
X019057Y011605D03*
X018397Y012625D03*
X017437Y013405D03*
X016297Y012925D03*
X016477Y012565D03*
X015697Y012925D03*
X014137Y013225D03*
X013597Y012925D03*
X013057Y012985D03*
X011737Y013465D03*
X010717Y012625D03*
X012697Y011365D03*
X011737Y009385D03*
X011677Y009325D03*
X011617Y009205D03*
X016117Y009145D03*
X016777Y009205D03*
X017257Y012085D03*
X014377Y004345D03*
D21*
X015367Y004645D03*
X015487Y005245D03*
X015487Y005305D03*
X015247Y005605D03*
X015247Y005665D03*
X015667Y006025D03*
X016267Y005485D03*
X016267Y005425D03*
X016267Y005365D03*
X016267Y005305D03*
X016267Y005245D03*
X016267Y005185D03*
X016267Y005125D03*
X016267Y005065D03*
X016267Y005005D03*
X016267Y004945D03*
X016267Y004885D03*
X016867Y004945D03*
X016867Y005005D03*
X016867Y005065D03*
X016867Y005125D03*
X016867Y005185D03*
X016867Y005245D03*
X016867Y005305D03*
X016867Y005365D03*
X016867Y005425D03*
X016867Y005485D03*
X016867Y005545D03*
X016867Y005605D03*
X016867Y005665D03*
X017827Y004525D03*
X016867Y004405D03*
X016867Y004345D03*
X018667Y005305D03*
X019627Y004585D03*
X013207Y006025D03*
X013027Y005305D03*
X013027Y005245D03*
X012907Y004645D03*
X011947Y005545D03*
X011947Y005605D03*
X011947Y005665D03*
X011947Y005965D03*
X011467Y006445D03*
X010387Y005545D03*
X011527Y004825D03*
X011347Y008725D03*
X011407Y008785D03*
X011407Y008845D03*
X011467Y008965D03*
X012547Y012745D03*
X013147Y012865D03*
X013507Y013105D03*
X014587Y013225D03*
X015247Y013045D03*
X015787Y013105D03*
X016207Y012805D03*
X016627Y012745D03*
X017407Y012205D03*
X011767Y013525D03*
D22*
X010717Y012685D03*
X013537Y013045D03*
X014137Y013105D03*
X014137Y013165D03*
X014617Y013165D03*
X015217Y013105D03*
X015757Y013045D03*
X016177Y014005D03*
X017377Y013465D03*
X018397Y012685D03*
X016837Y009145D03*
X018457Y007525D03*
X016897Y005785D03*
X016897Y005725D03*
X017497Y005125D03*
X017497Y005065D03*
X017497Y005005D03*
X017497Y004945D03*
X017437Y004885D03*
X017497Y004645D03*
X017497Y004585D03*
X017197Y004585D03*
X017197Y004525D03*
X017197Y004465D03*
X017197Y004405D03*
X017197Y004345D03*
X016837Y004465D03*
X016837Y004525D03*
X016297Y004525D03*
X016297Y004465D03*
X016297Y004585D03*
X016297Y004645D03*
X016297Y004705D03*
X016297Y004765D03*
X016297Y004825D03*
X015817Y004825D03*
X015817Y004885D03*
X015757Y005185D03*
X015757Y005245D03*
X015517Y005365D03*
X015517Y005425D03*
X015517Y005485D03*
X015517Y005545D03*
X015697Y005545D03*
X015457Y005185D03*
X015457Y005125D03*
X015457Y004945D03*
X015397Y004885D03*
X015397Y004825D03*
X015397Y004765D03*
X015397Y004705D03*
X015337Y004585D03*
X015337Y004525D03*
X015337Y004465D03*
X014857Y004525D03*
X014857Y004585D03*
X014857Y004645D03*
X014857Y004705D03*
X014857Y004765D03*
X014857Y004825D03*
X014857Y004885D03*
X014857Y004945D03*
X014857Y005005D03*
X014857Y005065D03*
X014857Y005125D03*
X014857Y005185D03*
X014857Y005245D03*
X014857Y005305D03*
X014857Y005365D03*
X014857Y005425D03*
X014857Y005485D03*
X014857Y005545D03*
X014857Y005605D03*
X014857Y005665D03*
X014857Y005725D03*
X014857Y005785D03*
X014557Y005845D03*
X014497Y005785D03*
X014497Y005725D03*
X014497Y005665D03*
X014497Y005605D03*
X014257Y005665D03*
X014257Y005365D03*
X013837Y005365D03*
X013837Y005305D03*
X013837Y005245D03*
X013837Y005425D03*
X013837Y005485D03*
X013837Y005545D03*
X013837Y005605D03*
X013837Y005665D03*
X013837Y005725D03*
X013837Y005785D03*
X013237Y005545D03*
X013057Y005545D03*
X013057Y005485D03*
X013057Y005425D03*
X013057Y005365D03*
X012997Y005185D03*
X012997Y005125D03*
X012997Y004945D03*
X012937Y004885D03*
X012937Y004825D03*
X012937Y004765D03*
X012937Y004705D03*
X012877Y004585D03*
X012877Y004525D03*
X012877Y004465D03*
X013357Y004825D03*
X013357Y004885D03*
X013297Y005185D03*
X013297Y005245D03*
X013837Y005005D03*
X013837Y004945D03*
X013837Y004885D03*
X013837Y004825D03*
X013837Y004765D03*
X013837Y004705D03*
X013837Y004645D03*
X013837Y004585D03*
X013837Y004525D03*
X012697Y005305D03*
X012277Y005305D03*
X012277Y005245D03*
X012277Y005185D03*
X012277Y005365D03*
X012277Y005425D03*
X012277Y005485D03*
X012277Y005545D03*
X012277Y005605D03*
X012277Y005665D03*
X012277Y005725D03*
X012277Y005785D03*
X011917Y005785D03*
X011917Y005725D03*
X011617Y005785D03*
X011617Y005845D03*
X011557Y005725D03*
X011557Y005665D03*
X011557Y005605D03*
X011557Y005545D03*
X011557Y005485D03*
X011257Y005425D03*
X011257Y004885D03*
X011557Y004765D03*
X011557Y004705D03*
X011557Y004645D03*
X011557Y004585D03*
X011917Y004465D03*
X011977Y004585D03*
X011977Y004645D03*
X011977Y004705D03*
X011977Y004765D03*
X011977Y004825D03*
X012277Y004825D03*
X012277Y004765D03*
X012277Y004705D03*
X012277Y004645D03*
X012277Y004585D03*
X012277Y004525D03*
X012277Y004885D03*
X012277Y004945D03*
X013177Y005965D03*
X014557Y006025D03*
X015217Y006025D03*
X015217Y005785D03*
X015217Y005725D03*
X015637Y005965D03*
X017557Y005185D03*
X017797Y005065D03*
X017977Y004945D03*
X017977Y004885D03*
X017977Y004825D03*
X017977Y004765D03*
X017977Y004705D03*
X018037Y004525D03*
X018037Y004465D03*
X018277Y004465D03*
X018337Y004525D03*
X018337Y004585D03*
X018337Y004645D03*
X018337Y004705D03*
X018337Y004765D03*
X018337Y004825D03*
X018337Y004885D03*
X018337Y004945D03*
X018337Y005005D03*
X018337Y005065D03*
X018277Y005185D03*
X018037Y005125D03*
X018037Y005065D03*
X018637Y004945D03*
X018637Y004885D03*
X018637Y004825D03*
X018637Y004765D03*
X018637Y004705D03*
X018637Y004645D03*
X018637Y004585D03*
X018637Y004525D03*
X018637Y004465D03*
X018937Y004465D03*
X018937Y004525D03*
X018937Y004585D03*
X018937Y004645D03*
X018937Y004705D03*
X018937Y004765D03*
X018937Y004825D03*
X018937Y004885D03*
X018937Y004945D03*
X019297Y004945D03*
X019297Y004885D03*
X019297Y004825D03*
X019297Y004765D03*
X019297Y004705D03*
X019297Y004645D03*
X019297Y004585D03*
X019297Y004525D03*
X019297Y004465D03*
X019297Y005005D03*
X019297Y005065D03*
X019297Y005125D03*
X019897Y005125D03*
X019897Y005065D03*
X019897Y005005D03*
X019897Y004945D03*
X020137Y004945D03*
X020137Y004885D03*
X020137Y005005D03*
X020137Y005065D03*
X020137Y005125D03*
X020437Y005125D03*
X020437Y005065D03*
X020437Y005005D03*
X020437Y004945D03*
X020437Y004885D03*
X020437Y004825D03*
X020437Y004765D03*
X020437Y004705D03*
X020437Y004645D03*
X020497Y004525D03*
X020497Y004465D03*
X020737Y004585D03*
X020737Y004645D03*
X020737Y004705D03*
X020737Y004765D03*
X020737Y004825D03*
X020737Y004885D03*
X020737Y004945D03*
X020737Y005005D03*
X020737Y005065D03*
X020737Y005125D03*
X020737Y005185D03*
X020437Y005185D03*
X020137Y004705D03*
X020137Y004645D03*
X020137Y004585D03*
X020137Y004525D03*
X020197Y004345D03*
X019897Y004525D03*
X019897Y004585D03*
X019957Y004705D03*
X017797Y004465D03*
X011437Y008905D03*
X011497Y009025D03*
X010657Y005725D03*
X010657Y005665D03*
X010657Y005605D03*
X010657Y005545D03*
X010657Y005485D03*
X010657Y005425D03*
X010657Y005365D03*
X010657Y005305D03*
X010657Y005245D03*
X010657Y005185D03*
X010657Y005125D03*
X010657Y005065D03*
X010657Y005005D03*
X010657Y004945D03*
X010657Y004885D03*
X010657Y004825D03*
X010657Y004765D03*
X010657Y004705D03*
X010657Y004645D03*
X010657Y004585D03*
X010417Y004645D03*
X010417Y004705D03*
X010357Y004585D03*
X010357Y004525D03*
X010177Y004885D03*
X010177Y004945D03*
X010177Y005005D03*
X010177Y005065D03*
X010177Y005245D03*
X010177Y005305D03*
X010177Y005365D03*
X010177Y005425D03*
X010357Y005605D03*
X010357Y005665D03*
X010297Y005785D03*
X009877Y005785D03*
X009877Y005725D03*
X009877Y005665D03*
X009877Y005605D03*
X009877Y005545D03*
X009877Y005485D03*
X009877Y005425D03*
X009877Y005365D03*
X009877Y005305D03*
X009877Y005065D03*
X009877Y005005D03*
X009877Y004945D03*
X009877Y004885D03*
X009877Y004825D03*
X009877Y004765D03*
X009877Y004705D03*
X009877Y004645D03*
X009877Y004585D03*
X009037Y004585D03*
X009037Y004525D03*
X009037Y004645D03*
X009037Y004705D03*
X009037Y004765D03*
X009037Y004825D03*
X009037Y004885D03*
X009037Y004945D03*
X009037Y005005D03*
X009037Y005245D03*
X009037Y005305D03*
X009037Y005365D03*
X009037Y005425D03*
X009037Y005485D03*
X009037Y005545D03*
X009037Y005605D03*
X009037Y005665D03*
X009037Y005725D03*
X009037Y005785D03*
X009457Y005665D03*
X009457Y005605D03*
X009457Y005545D03*
X009457Y005485D03*
X009457Y005425D03*
D23*
X009427Y005365D03*
X009427Y005305D03*
X009427Y005245D03*
X009367Y005185D03*
X009307Y005005D03*
X009307Y004945D03*
X009367Y004885D03*
X009367Y004825D03*
X009367Y004765D03*
X009427Y004705D03*
X009427Y004645D03*
X009427Y004585D03*
X009487Y004525D03*
X009487Y004465D03*
X009067Y004465D03*
X009067Y005185D03*
X009427Y005725D03*
X009427Y005785D03*
X009367Y005845D03*
X009067Y005845D03*
X009907Y005845D03*
X010267Y005845D03*
X010327Y005725D03*
X010687Y005785D03*
X010687Y005845D03*
X011167Y005725D03*
X011167Y005665D03*
X011227Y005605D03*
X011227Y005545D03*
X011227Y005485D03*
X011287Y005365D03*
X011287Y005305D03*
X011287Y005245D03*
X011287Y005185D03*
X011287Y005125D03*
X011287Y005065D03*
X011287Y005005D03*
X011287Y004945D03*
X011227Y004825D03*
X011227Y004765D03*
X011227Y004705D03*
X011227Y004645D03*
X011167Y004585D03*
X011167Y004525D03*
X011107Y004465D03*
X011587Y004465D03*
X011587Y004525D03*
X011947Y004525D03*
X011947Y004885D03*
X011947Y004945D03*
X012307Y005005D03*
X012667Y005185D03*
X012667Y005245D03*
X012727Y005365D03*
X012727Y005425D03*
X012727Y005485D03*
X012727Y005545D03*
X012727Y005605D03*
X012727Y005665D03*
X012667Y005725D03*
X012667Y005785D03*
X012307Y005845D03*
X011887Y005845D03*
X011767Y005965D03*
X011587Y005425D03*
X012307Y004465D03*
X013387Y004525D03*
X013387Y004585D03*
X013387Y004645D03*
X013387Y004705D03*
X013387Y004765D03*
X013327Y004945D03*
X013327Y005125D03*
X013267Y005305D03*
X013267Y005365D03*
X013267Y005425D03*
X013267Y005485D03*
X013147Y005905D03*
X013867Y005845D03*
X014227Y005785D03*
X014227Y005725D03*
X014287Y005605D03*
X014287Y005545D03*
X014287Y005485D03*
X014287Y005425D03*
X014227Y005305D03*
X014227Y005245D03*
X014167Y005185D03*
X014107Y005005D03*
X014107Y004945D03*
X014167Y004885D03*
X014167Y004825D03*
X014167Y004765D03*
X014227Y004705D03*
X014227Y004645D03*
X014227Y004585D03*
X014287Y004525D03*
X014287Y004465D03*
X013867Y004465D03*
X013447Y004465D03*
X013867Y005185D03*
X014887Y005845D03*
X015187Y005845D03*
X015607Y005905D03*
X015727Y005485D03*
X015727Y005425D03*
X015727Y005365D03*
X015727Y005305D03*
X015787Y005125D03*
X015787Y004945D03*
X015847Y004765D03*
X015847Y004705D03*
X015847Y004645D03*
X015847Y004585D03*
X015847Y004525D03*
X015907Y004465D03*
X016687Y004945D03*
X016627Y005065D03*
X016627Y005125D03*
X016567Y005245D03*
X016507Y005365D03*
X016507Y005425D03*
X016867Y005845D03*
X017647Y005305D03*
X017767Y005185D03*
X017767Y005125D03*
X018007Y005005D03*
X018067Y005185D03*
X018187Y005305D03*
X018307Y005125D03*
X018667Y005065D03*
X018667Y005005D03*
X018967Y005005D03*
X018967Y005065D03*
X018967Y005125D03*
X018847Y005305D03*
X019207Y005305D03*
X020047Y005305D03*
X020107Y004825D03*
X019927Y004645D03*
X019627Y004525D03*
X019627Y004465D03*
X019627Y004405D03*
X019627Y004345D03*
X018967Y004405D03*
X018667Y004405D03*
X018007Y004585D03*
X018007Y004645D03*
X017527Y004525D03*
X017467Y004705D03*
X017467Y004765D03*
X017467Y004825D03*
X016807Y004705D03*
X016807Y004645D03*
X016807Y004585D03*
X014887Y004465D03*
X011527Y006505D03*
X009907Y005245D03*
X009907Y004525D03*
X009907Y004465D03*
X010327Y004465D03*
X010687Y004465D03*
X010687Y004525D03*
X011527Y009085D03*
X011587Y009145D03*
X011647Y009265D03*
X011887Y012145D03*
X012187Y012445D03*
X012607Y012685D03*
X013087Y012925D03*
X013567Y012985D03*
X014647Y013045D03*
X014647Y013105D03*
X015247Y013165D03*
X015727Y012985D03*
X016267Y012865D03*
X016507Y012625D03*
X016567Y012685D03*
X017047Y012325D03*
X017347Y012145D03*
X019087Y011665D03*
X017587Y009385D03*
X018787Y008485D03*
X020467Y004585D03*
X020767Y004525D03*
D24*
X017347Y008125D03*
X018907Y009865D03*
X018967Y010225D03*
X017707Y010465D03*
X018427Y012085D03*
X017587Y012685D03*
X016627Y013405D03*
X016627Y013645D03*
X015367Y013825D03*
X015367Y013885D03*
X015847Y011245D03*
X012907Y009265D03*
X012127Y007045D03*
X009907Y004405D03*
X010747Y012145D03*
X011527Y013045D03*
D25*
X011587Y013225D03*
X012847Y013225D03*
X012847Y013885D03*
X014047Y013585D03*
X014047Y013525D03*
X015007Y014185D03*
X015307Y013525D03*
X016447Y013165D03*
X017587Y013165D03*
X018427Y012325D03*
X018907Y011365D03*
X019027Y009745D03*
X018667Y008785D03*
X016627Y009685D03*
X016627Y009745D03*
X016627Y009805D03*
X016627Y009865D03*
X016627Y009925D03*
X016627Y009985D03*
X016627Y010045D03*
X016627Y010105D03*
X016627Y010165D03*
X016627Y010225D03*
X016627Y010285D03*
X016567Y010405D03*
X016567Y010465D03*
X016567Y010525D03*
X016507Y010585D03*
X016507Y010645D03*
X016447Y010705D03*
X016447Y010765D03*
X016387Y010825D03*
X017227Y011065D03*
X013807Y007825D03*
X013687Y007765D03*
X013567Y007705D03*
X013447Y007645D03*
X013327Y007585D03*
X013207Y007525D03*
X013087Y007465D03*
X011887Y006805D03*
X010807Y005905D03*
X010027Y005905D03*
X010027Y005965D03*
X010807Y004405D03*
X012187Y009865D03*
X013027Y010945D03*
X013087Y011005D03*
D26*
X012877Y012445D03*
X012937Y013105D03*
X013717Y012685D03*
X014077Y013405D03*
X014677Y012745D03*
X015277Y013405D03*
X015577Y012625D03*
X016357Y013045D03*
X016357Y013885D03*
X017497Y013285D03*
X017257Y012445D03*
X017077Y011965D03*
X017197Y010945D03*
X017257Y010825D03*
X017317Y010765D03*
X017317Y010705D03*
X016657Y009325D03*
X018997Y011485D03*
X018397Y012445D03*
X012937Y013945D03*
X010717Y012445D03*
X011977Y009685D03*
X012577Y009205D03*
X012577Y009145D03*
X012517Y009025D03*
X012517Y008965D03*
X012457Y008845D03*
X012457Y008785D03*
X012397Y008665D03*
X012397Y008605D03*
X012337Y008485D03*
X012337Y008425D03*
X012277Y008305D03*
X012277Y008245D03*
X012217Y008125D03*
X012217Y008065D03*
X012157Y007945D03*
X012157Y007885D03*
X012097Y007825D03*
X012097Y007765D03*
X012037Y007645D03*
X012037Y007585D03*
X011977Y007405D03*
X011917Y007225D03*
X011737Y006685D03*
X012337Y005965D03*
X012457Y005125D03*
X013177Y005065D03*
X013177Y005005D03*
X011737Y004405D03*
X009157Y005965D03*
X015637Y005065D03*
X015637Y005005D03*
X020077Y004465D03*
X020077Y004405D03*
X020677Y004405D03*
D27*
X018937Y005185D03*
X016537Y008905D03*
X017677Y010405D03*
X017257Y011125D03*
X016717Y011665D03*
X015997Y011185D03*
X017497Y012625D03*
X017617Y013045D03*
X016537Y013285D03*
X015337Y013705D03*
X014017Y013705D03*
X012757Y013345D03*
X011557Y013105D03*
X012637Y011545D03*
X013417Y011185D03*
X011977Y006925D03*
X018397Y012205D03*
X018997Y009805D03*
D28*
X018937Y009385D03*
X019117Y010345D03*
X019057Y010765D03*
X017857Y009505D03*
X017617Y010345D03*
X017497Y010645D03*
X016717Y011605D03*
X016177Y011065D03*
X016237Y011005D03*
X016297Y010945D03*
X016357Y010885D03*
X017437Y012565D03*
X016477Y013225D03*
X015337Y013585D03*
X014197Y014185D03*
X014017Y013645D03*
X013297Y011125D03*
X013177Y011065D03*
X012217Y009925D03*
X014137Y009745D03*
X016477Y008965D03*
X017677Y007945D03*
X018937Y005245D03*
X012937Y007405D03*
X012817Y007345D03*
X011917Y006865D03*
X010717Y012325D03*
D29*
X011647Y013285D03*
X012127Y012025D03*
X012907Y012385D03*
X013747Y012625D03*
X012907Y013165D03*
X014047Y013465D03*
X014707Y012685D03*
X015547Y012565D03*
X016327Y012325D03*
X016387Y013105D03*
X015307Y013465D03*
X017527Y013225D03*
X017767Y011425D03*
X017227Y010885D03*
X019087Y009685D03*
X019207Y010405D03*
X017887Y007825D03*
X014527Y009985D03*
X014467Y009925D03*
X012727Y010705D03*
X012667Y010645D03*
X012607Y010585D03*
X012547Y010465D03*
X012487Y010405D03*
X012427Y010345D03*
X012367Y010285D03*
X012067Y009745D03*
X010747Y005965D03*
X009187Y005905D03*
X013927Y005965D03*
D30*
X014887Y005965D03*
X014887Y005905D03*
X012727Y007285D03*
X012607Y007225D03*
X012307Y009985D03*
X012487Y010225D03*
X010747Y012265D03*
X011587Y013165D03*
X011827Y012625D03*
X012787Y013285D03*
X012787Y013825D03*
X015307Y013645D03*
X016507Y013765D03*
X017587Y013105D03*
X018427Y012265D03*
X018907Y011305D03*
X017827Y009685D03*
X018667Y008845D03*
X017587Y008005D03*
X016567Y009445D03*
X016087Y011125D03*
D31*
X017947Y009625D03*
X018667Y008905D03*
X017467Y008065D03*
X016627Y008845D03*
X019027Y010285D03*
X018847Y011245D03*
X018067Y011725D03*
X017647Y012985D03*
X016567Y013345D03*
X016567Y013705D03*
X013987Y013765D03*
X010747Y012205D03*
X013987Y009685D03*
X012067Y006985D03*
D32*
X012187Y007105D03*
X016387Y009565D03*
X017767Y010525D03*
X018847Y010825D03*
X018847Y009925D03*
X018607Y009025D03*
X017707Y012865D03*
X016687Y013525D03*
X016687Y013585D03*
X015367Y013945D03*
X013987Y014125D03*
X013927Y013945D03*
X012607Y013525D03*
X011587Y012745D03*
X011467Y012925D03*
X012667Y011665D03*
D33*
X010777Y012025D03*
X012577Y013645D03*
X015397Y014005D03*
X017677Y012745D03*
X017737Y012805D03*
X018397Y011965D03*
X018757Y011065D03*
X018877Y010165D03*
X018577Y009085D03*
X017137Y008245D03*
X016357Y009625D03*
X017257Y011305D03*
X012277Y007165D03*
D34*
X013777Y009625D03*
X015997Y012025D03*
X016657Y011785D03*
X017257Y011245D03*
X018397Y012025D03*
X017677Y012925D03*
X016657Y013465D03*
X013957Y013885D03*
X012637Y013705D03*
X012637Y013465D03*
X011497Y012985D03*
X010777Y012085D03*
X017257Y008185D03*
X018817Y011125D03*
D35*
X018727Y011005D03*
X018367Y011905D03*
X018787Y009985D03*
X018547Y009145D03*
X017047Y008305D03*
X015667Y011305D03*
X013807Y011305D03*
X012727Y011725D03*
X011467Y012805D03*
X011467Y012865D03*
X012547Y013585D03*
X013927Y014005D03*
X013927Y014065D03*
X015367Y014065D03*
X013027Y009325D03*
D36*
X013537Y009565D03*
X010777Y011965D03*
X016597Y011845D03*
X017317Y011365D03*
X017797Y010585D03*
X018757Y010105D03*
X018637Y009325D03*
X016897Y008365D03*
X018397Y011845D03*
D37*
X018517Y009265D03*
X016777Y008425D03*
X014737Y011665D03*
X015817Y012085D03*
X012757Y011785D03*
X010777Y011845D03*
X013117Y009385D03*
D38*
X016147Y008485D03*
D39*
X016177Y008545D03*
X014737Y011485D03*
X014677Y012445D03*
X014677Y012505D03*
D40*
X016207Y008605D03*
D41*
X016237Y008665D03*
D42*
X016267Y008725D03*
X014767Y011605D03*
D43*
X018367Y011785D03*
X018667Y010945D03*
X018667Y010885D03*
X018727Y010045D03*
X018547Y009205D03*
X010807Y011905D03*
D44*
X010807Y011785D03*
X013387Y012025D03*
X013207Y009445D03*
X016567Y011905D03*
D45*
X014287Y012565D03*
X012787Y011845D03*
X013267Y009505D03*
D46*
X013417Y010045D03*
X014737Y011365D03*
D47*
X013507Y010165D03*
X013447Y010105D03*
D48*
X014737Y011425D03*
D49*
X014737Y011545D03*
D50*
X013567Y012085D03*
X012847Y011905D03*
D51*
X012907Y011965D03*
D52*
X014617Y012145D03*
X014617Y012205D03*
X014617Y012265D03*
D53*
X014317Y012325D03*
D54*
X014617Y012385D03*
M02*
